<svg width="481" height="68" viewBox="0 0 481 68" fill="none" xmlns="http://www.w3.org/2000/svg">
<path d="M34.36 28.8389C34.36 30.5189 34 31.7589 33.28 32.4789C32.56 33.2389 31.48 33.5989 30.04 33.5989H7.92C6.48 33.5989 5.4 33.2389 4.68 32.4789C3.96 31.7589 3.6 30.5189 3.6 28.8389V15.3989C3.6 14.9989 3.68 14.7589 3.84 14.5989C4 14.4789 4.24 14.3989 4.64 14.3989H33.32C33.68 14.3989 33.96 14.4789 34.12 14.5989C34.28 14.7589 34.36 14.9989 34.36 15.3989V28.8389ZM1.08 37.9189C1.08 37.5189 1.16 37.2789 1.32 37.1189C1.48 36.9989 1.72 36.9189 2.12 36.9189H35.88C36.24 36.9189 36.52 36.9989 36.68 37.1189C36.84 37.2789 36.92 37.5189 36.92 37.9189V42.5989C36.92 42.9989 36.84 43.2789 36.68 43.3989C36.52 43.5589 36.24 43.5989 35.88 43.5989H22.84V51.3589C22.84 51.7589 22.76 51.9989 22.6 52.1589C22.44 52.2789 22.16 52.3589 21.8 52.3589H16.2C15.8 52.3589 15.56 52.2789 15.4 52.1589C15.24 51.9989 15.16 51.7589 15.16 51.3589V43.5989H2.12C1.72 43.5989 1.48 43.5589 1.32 43.3989C1.16 43.2789 1.08 42.9989 1.08 42.5989V37.9189ZM25.92 27.3189C26.36 27.3189 26.68 27.2389 26.84 27.0389C27 26.8789 27.08 26.5589 27.08 26.0389V20.4789H10.88V26.0389C10.88 26.5589 10.96 26.8789 11.12 27.0389C11.28 27.2389 11.56 27.3189 12.04 27.3189H25.92ZM50.4878 14.1989C52.1678 14.1989 53.6078 14.3989 54.8878 14.7189C56.1278 15.1189 57.2078 15.5989 58.0878 16.1589C58.9678 16.7589 59.6878 17.4389 60.2478 18.1989C60.8078 18.9989 61.2478 19.8389 61.5678 20.6389H65.8078V15.3989C65.8078 14.9989 65.8878 14.7589 66.0478 14.5989C66.2078 14.4789 66.4478 14.3989 66.8478 14.3989H72.4478C72.8078 14.3989 73.0878 14.4789 73.2478 14.5989C73.4078 14.7589 73.4878 14.9989 73.4878 15.3989V35.9589C73.4878 36.3589 73.4078 36.6389 73.2478 36.7589C73.0878 36.9189 72.8078 36.9589 72.4478 36.9589H66.8478C66.4478 36.9589 66.2078 36.9189 66.0478 36.7589C65.8878 36.6389 65.8078 36.3589 65.8078 35.9589V27.2789H61.8878C61.6478 28.2389 61.2478 29.1589 60.7678 30.0389C60.2478 30.9589 59.5278 31.7589 58.6478 32.4389C57.7278 33.1589 56.6078 33.7589 55.2878 34.1589C53.9278 34.5989 52.3278 34.7989 50.4878 34.7989C48.1278 34.7989 46.2078 34.4789 44.7278 33.7989C43.2078 33.1589 42.0078 32.3589 41.1278 31.3189C40.2478 30.3189 39.6078 29.1989 39.2878 27.9589C38.9278 26.7589 38.7678 25.5989 38.7678 24.4789C38.7678 23.3589 38.9278 22.1989 39.2878 20.9989C39.6078 19.7989 40.2478 18.7189 41.1678 17.6789C42.0478 16.6789 43.2478 15.8389 44.7678 15.1589C46.2478 14.5189 48.1678 14.1989 50.4878 14.1989ZM60.6478 36.6389C61.0478 36.6389 61.2878 36.7589 61.4478 36.9189C61.5278 37.1189 61.6078 37.3589 61.6078 37.6389C61.6078 38.6389 61.8478 39.5989 62.3678 40.5189C62.8478 41.4789 63.6078 42.3189 64.5678 43.0389C65.5278 43.7989 66.6878 44.4389 68.0878 44.9189C69.4478 45.3989 71.0078 45.7189 72.7678 45.8789C72.8478 45.8789 72.9278 45.8789 73.0878 45.9189C73.2078 45.9189 73.3278 45.9989 73.4878 46.0789C73.5678 46.1589 73.6878 46.2789 73.7678 46.4389C73.8478 46.5989 73.8878 46.7989 73.8878 47.1189V51.2389C73.8878 51.5189 73.8478 51.7589 73.7678 51.9189C73.6478 52.0789 73.5278 52.1989 73.4078 52.2789C73.2478 52.3189 73.0878 52.3589 72.9678 52.3989H72.5678C70.7278 52.3189 69.0078 52.1189 67.4878 51.7189C65.8878 51.2789 64.4878 50.7589 63.2878 50.1989C62.0078 49.5589 60.9278 48.9189 60.0478 48.1989C59.1278 47.4389 58.4078 46.7189 57.8878 45.9989C57.3278 46.7189 56.6478 47.4389 55.7678 48.1989C54.8478 48.9189 53.7678 49.5589 52.5678 50.1989C51.2878 50.7589 49.8878 51.2789 48.3678 51.7189C46.7678 52.1189 45.0878 52.3189 43.2478 52.3989H42.8878C42.7278 52.3589 42.5678 52.3189 42.4478 52.2789C42.2878 52.1989 42.1678 52.0789 42.0878 51.9189C41.9678 51.7589 41.9278 51.5189 41.9278 51.2389V47.1189C41.9278 46.7989 41.9678 46.5989 42.0478 46.4389C42.1278 46.2789 42.2078 46.1589 42.3678 46.0789C42.4478 45.9989 42.5678 45.9189 42.7278 45.9189C42.8478 45.8789 42.9678 45.8789 43.0478 45.8789C44.8078 45.7189 46.3678 45.3989 47.7678 44.9189C49.1278 44.4389 50.2878 43.7989 51.2478 43.0389C52.2078 42.3189 52.9278 41.4789 53.4478 40.5189C53.9278 39.5989 54.2078 38.6389 54.2078 37.6389C54.2078 37.3589 54.2478 37.1189 54.4078 36.9189C54.4878 36.7589 54.7678 36.6389 55.1678 36.6389H60.6478ZM50.4878 28.2789C50.9678 28.2789 51.4478 28.1989 51.9678 28.0389C52.4478 27.9189 52.9278 27.6789 53.3678 27.3589C53.7678 27.0789 54.1278 26.6789 54.4078 26.1989C54.6478 25.7189 54.8078 25.1589 54.8078 24.4389C54.8078 23.7989 54.6478 23.1989 54.4078 22.6789C54.1278 22.1989 53.7678 21.8389 53.3678 21.5189C52.9278 21.2389 52.4478 20.9989 51.9678 20.8389C51.4478 20.7189 50.9678 20.6389 50.4878 20.6389C50.0078 20.6389 49.4878 20.7189 49.0078 20.8389C48.4878 20.9989 48.0078 21.2389 47.6078 21.5189C47.1678 21.8389 46.8078 22.1989 46.5678 22.6789C46.2878 23.1989 46.1678 23.7989 46.1678 24.4389C46.1678 25.1589 46.2878 25.7189 46.5678 26.1989C46.8078 26.6789 47.1678 27.0789 47.6078 27.3589C48.0078 27.6789 48.4878 27.9189 49.0078 28.0389C49.4878 28.1989 50.0078 28.2789 50.4878 28.2789ZM112.048 50.7189C112.088 51.0389 112.008 51.2389 111.848 51.3189C111.648 51.3989 111.368 51.4389 111.008 51.5189C109.168 51.6789 107.368 51.8389 105.648 51.9589C103.888 52.0389 102.128 52.1589 100.328 52.2389L94.6078 52.3589C92.5678 52.3589 90.3278 52.3989 87.9278 52.3989C86.6878 52.3989 85.6078 52.2789 84.7278 52.0789C83.8078 51.8389 83.0478 51.5189 82.4878 51.0389C81.8878 50.5589 81.4478 49.9189 81.2078 49.1589C80.8878 48.3589 80.7678 47.3989 80.7678 46.2789V42.1989C80.7678 41.8389 80.8478 41.5989 81.0078 41.4389C81.1678 41.3189 81.4078 41.2389 81.8078 41.2389H104.648V40.0789H81.8078C81.0878 40.0789 80.7678 39.7189 80.7678 38.9189V36.4789C80.7678 36.0789 80.8478 35.8389 81.0078 35.6789C81.1678 35.5589 81.4078 35.4789 81.8078 35.4789H110.528C110.888 35.4789 111.168 35.5589 111.328 35.6789C111.488 35.8389 111.568 36.0789 111.568 36.4789V44.8389C111.568 45.2389 111.488 45.4789 111.328 45.6389C111.168 45.7589 110.888 45.8389 110.528 45.8389H87.6878V46.4789C87.6878 46.8789 87.8478 47.1589 88.1678 47.2789C88.4878 47.3589 88.9678 47.3989 89.6478 47.3989C91.8878 47.3989 93.9278 47.3589 95.8478 47.3589C97.6878 47.3189 99.4878 47.2789 101.168 47.2389C102.848 47.1589 104.448 47.1189 106.008 47.0389C107.528 46.9589 109.048 46.8389 110.648 46.7189C111.008 46.6789 111.248 46.7189 111.408 46.8789C111.528 46.9589 111.608 47.1589 111.688 47.4789L112.048 50.7189ZM78.2878 29.4389C78.2878 29.0389 78.3678 28.7989 78.5278 28.6389C78.6878 28.5189 78.9278 28.4389 79.3278 28.4389H113.088C113.448 28.4389 113.728 28.5189 113.888 28.6389C114.048 28.7989 114.128 29.0389 114.128 29.4389V32.9589C114.128 33.3589 114.048 33.6389 113.888 33.7589C113.728 33.9189 113.448 33.9589 113.088 33.9589H79.3278C78.9278 33.9589 78.6878 33.9189 78.5278 33.7589C78.3678 33.6389 78.2878 33.3589 78.2878 32.9589V29.4389ZM96.2078 27.1989C93.3278 27.1989 90.8878 27.0789 88.9278 26.7989C86.9278 26.5589 85.3278 26.1589 84.1278 25.5989C82.8878 25.0789 82.0078 24.3989 81.4878 23.5189C80.9278 22.7189 80.6478 21.7189 80.6478 20.5989C80.6478 19.4789 80.9278 18.4789 81.4878 17.6389C82.0078 16.8389 82.8878 16.1589 84.1678 15.5989C85.3678 15.0789 86.9678 14.6789 88.9678 14.3989C90.9278 14.1589 93.3278 13.9989 96.2078 13.9989C99.0478 13.9989 101.448 14.1589 103.448 14.3989C105.408 14.6789 107.008 15.0789 108.288 15.5989C109.488 16.1589 110.408 16.8389 110.968 17.6389C111.488 18.4789 111.768 19.4789 111.768 20.5989C111.768 21.7189 111.488 22.7189 110.968 23.5189C110.408 24.3989 109.528 25.0789 108.328 25.5989C107.088 26.1589 105.488 26.5589 103.528 26.7989C101.528 27.0789 99.0878 27.1989 96.2078 27.1989ZM96.2078 21.6389C97.8878 21.6389 99.2878 21.6389 100.328 21.5589C101.368 21.5589 102.168 21.4789 102.768 21.3589C103.328 21.2789 103.728 21.1989 103.968 21.0389C104.128 20.9189 104.248 20.7589 104.248 20.5989C104.248 20.4389 104.128 20.3189 103.968 20.1589C103.728 20.0389 103.328 19.9189 102.768 19.7989C102.168 19.7189 101.368 19.6789 100.328 19.5989C99.2878 19.5989 97.8878 19.5589 96.2078 19.5589C94.4878 19.5589 93.1278 19.5989 92.0878 19.5989C91.0078 19.6789 90.2078 19.7189 89.6478 19.7989C89.0478 19.9189 88.6478 20.0389 88.4878 20.1589C88.2478 20.3189 88.1678 20.4389 88.1678 20.5989C88.1678 20.7589 88.2478 20.9189 88.4878 21.0389C88.6478 21.1989 89.0478 21.2789 89.6478 21.3589C90.2078 21.4789 91.0078 21.5589 92.0878 21.5589C93.1278 21.6389 94.4878 21.6389 96.2078 21.6389ZM129.027 38.3989C129.027 37.9989 129.107 37.7589 129.267 37.5989C129.427 37.4789 129.667 37.3989 130.067 37.3989H159.587C159.947 37.3989 160.227 37.4789 160.387 37.5989C160.547 37.7589 160.627 37.9989 160.627 38.3989V42.4389C160.627 42.8389 160.547 43.1189 160.387 43.2389C160.227 43.3989 159.947 43.4389 159.587 43.4389H150.587C151.587 44.2389 152.867 44.8389 154.467 45.2389C155.987 45.6389 157.747 45.9189 159.667 46.0789C159.747 46.0789 159.827 46.0789 159.987 46.1189C160.107 46.1189 160.227 46.1989 160.387 46.2789C160.467 46.3589 160.587 46.4789 160.667 46.6389C160.747 46.7989 160.787 46.9989 160.787 47.3189V51.2389C160.787 51.5189 160.747 51.7589 160.667 51.9189C160.547 52.0789 160.427 52.1989 160.307 52.2789C160.147 52.3189 159.987 52.3589 159.867 52.3989H159.467C157.627 52.3189 155.907 52.1589 154.387 51.8789C152.787 51.5589 151.387 51.1989 150.187 50.7589C148.907 50.2789 147.827 49.7189 146.947 49.1589C146.027 48.5589 145.307 47.9589 144.787 47.3189C144.227 47.9589 143.547 48.5589 142.667 49.1589C141.747 49.7189 140.667 50.2789 139.467 50.7589C138.187 51.1989 136.787 51.5589 135.267 51.8789C133.667 52.1589 131.987 52.3189 130.147 52.3989H129.787C129.627 52.3589 129.467 52.3189 129.347 52.2789C129.187 52.1989 129.067 52.0789 128.987 51.9189C128.867 51.7589 128.827 51.5189 128.827 51.2389V47.3189C128.827 46.9989 128.867 46.7989 128.947 46.6389C129.027 46.4789 129.107 46.3589 129.267 46.2789C129.347 46.1989 129.467 46.1189 129.627 46.1189C129.747 46.0789 129.867 46.0789 129.947 46.0789C131.867 45.9189 133.587 45.6389 135.187 45.2389C136.707 44.8389 137.987 44.2389 139.027 43.4389H130.067C129.667 43.4389 129.427 43.3989 129.267 43.2389C129.107 43.1189 129.027 42.8389 129.027 42.4389V38.3989ZM140.627 13.3989C140.987 13.3989 141.267 13.4789 141.427 13.5989C141.587 13.7589 141.667 13.9989 141.667 14.3989V16.3989H148.307C148.667 16.3989 148.947 16.4789 149.107 16.5989C149.267 16.7589 149.347 16.9989 149.347 17.3989V22.0789C149.347 22.4789 149.267 22.7589 149.107 22.8789C148.947 23.0389 148.667 23.0789 148.307 23.0789H141.747C141.827 23.7189 142.027 24.3589 142.307 24.9189C142.547 25.5189 142.947 26.0789 143.507 26.5589C143.987 27.0789 144.667 27.5189 145.467 27.8789C146.227 28.2789 147.187 28.5589 148.307 28.7989C148.387 28.8389 148.547 28.8789 148.707 28.8789C148.827 28.9189 148.947 28.9589 149.107 29.0389C149.227 29.1589 149.347 29.2789 149.467 29.4389C149.547 29.6389 149.587 29.8789 149.587 30.1989V34.6389C149.587 35.1189 149.467 35.3989 149.227 35.4789C148.947 35.5989 148.707 35.6389 148.547 35.5989C147.587 35.5189 146.667 35.3989 145.707 35.1589C144.707 34.9989 143.747 34.7189 142.827 34.3189C141.867 33.9989 140.987 33.5189 140.147 32.9589C139.267 32.3989 138.507 31.7589 137.867 30.9589C137.147 31.7589 136.387 32.3989 135.587 32.9589C134.707 33.5189 133.827 33.9989 132.907 34.3189C131.947 34.7189 131.027 34.9989 130.067 35.1589C129.067 35.3989 128.107 35.5189 127.187 35.5989C126.987 35.6389 126.787 35.5989 126.547 35.4789C126.267 35.3989 126.147 35.1189 126.147 34.6389V30.1989C126.147 29.8789 126.187 29.6389 126.307 29.4389C126.387 29.2789 126.467 29.1589 126.627 29.0389C126.747 28.9589 126.907 28.9189 127.067 28.8789C127.187 28.8789 127.307 28.8389 127.427 28.7989C128.547 28.5589 129.507 28.2789 130.307 27.8789C131.067 27.5189 131.707 27.0789 132.227 26.5589C132.707 26.0789 133.107 25.5189 133.387 24.9189C133.627 24.3589 133.827 23.7189 133.947 23.0789H127.387C126.987 23.0789 126.747 23.0389 126.587 22.8789C126.427 22.7589 126.347 22.4789 126.347 22.0789V17.3989C126.347 16.9989 126.427 16.7589 126.587 16.5989C126.747 16.4789 126.987 16.3989 127.387 16.3989H134.067V14.3989C134.067 13.9989 134.147 13.7589 134.307 13.5989C134.467 13.4789 134.707 13.3989 135.107 13.3989H140.627ZM165.307 26.6789C165.307 27.0789 165.227 27.3589 165.067 27.4789C164.907 27.6389 164.627 27.6789 164.267 27.6789H160.587V34.7589C160.587 35.1589 160.507 35.4389 160.347 35.5589C160.187 35.7189 159.907 35.7589 159.547 35.7589H153.947C153.547 35.7589 153.307 35.7189 153.147 35.5589C152.987 35.4389 152.907 35.1589 152.907 34.7589V15.3989C152.907 14.9989 152.987 14.7589 153.147 14.5989C153.307 14.4789 153.547 14.3989 153.947 14.3989H159.547C159.907 14.3989 160.187 14.4789 160.347 14.5989C160.507 14.7589 160.587 14.9989 160.587 15.3989V21.0389H164.267C164.627 21.0389 164.907 21.1189 165.067 21.2389C165.227 21.3989 165.307 21.6389 165.307 22.0389V26.6789ZM191.587 22.7589C191.587 22.1189 191.467 21.6789 191.227 21.4389C190.947 21.1989 190.587 21.0789 190.107 21.0789H170.187C169.787 21.0789 169.547 21.0389 169.387 20.8789C169.227 20.7589 169.147 20.4789 169.147 20.0789V15.3989C169.147 14.9989 169.227 14.7589 169.387 14.5989C169.547 14.4789 169.787 14.3989 170.187 14.3989H194.947C196.387 14.3989 197.467 14.7989 198.187 15.5189C198.907 16.2789 199.267 17.4789 199.267 19.1589C199.267 20.9989 199.227 22.8389 199.187 24.7589C199.107 26.6789 198.987 28.5989 198.867 30.4789L198.387 36.0789C198.187 37.9189 197.987 39.5989 197.747 41.1989C197.667 41.5989 197.587 41.8789 197.427 41.9989C197.267 42.1589 196.947 42.2389 196.507 42.1589L191.107 41.5589C190.707 41.5189 190.427 41.3989 190.267 41.1989C190.067 41.0389 190.027 40.7189 190.107 40.2389C190.307 39.0389 190.507 37.6789 190.707 36.2389C190.867 34.7989 190.987 33.3189 191.147 31.7989C191.267 30.2789 191.387 28.7589 191.467 27.1989C191.547 25.6789 191.587 24.1989 191.587 22.7589ZM166.307 45.5189C166.307 45.1189 166.387 44.8789 166.547 44.7189C166.707 44.5989 166.947 44.5189 167.347 44.5189H176.787V30.3989C176.787 29.9989 176.867 29.7589 177.027 29.5989C177.187 29.4789 177.427 29.3989 177.827 29.3989H183.427C183.787 29.3989 184.067 29.4789 184.227 29.5989C184.387 29.7589 184.467 29.9989 184.467 30.3989V44.5189H201.107C201.467 44.5189 201.747 44.5989 201.907 44.7189C202.067 44.8789 202.147 45.1189 202.147 45.5189V50.1989C202.147 50.5989 202.067 50.8389 201.907 50.9989C201.747 51.1189 201.467 51.1989 201.107 51.1989H167.347C166.947 51.1989 166.707 51.1189 166.547 50.9989C166.387 50.8389 166.307 50.5989 166.307 50.1989V45.5189ZM215.205 15.3989C215.205 14.9989 215.285 14.7589 215.445 14.5989C215.605 14.4789 215.845 14.3989 216.245 14.3989H226.445C227.445 14.3989 228.325 14.5189 229.045 14.7589C229.765 14.9989 230.365 15.3989 230.845 15.9189C231.285 16.4789 231.605 17.1989 231.845 18.0389C232.005 18.9189 232.085 19.9989 232.085 21.2389V21.5989H234.525V15.3989C234.525 14.9989 234.605 14.7589 234.765 14.5989C234.925 14.4789 235.165 14.3989 235.565 14.3989H240.565C240.925 14.3989 241.205 14.4789 241.365 14.5989C241.525 14.7589 241.605 14.9989 241.605 15.3989V50.5989C241.605 50.9989 241.525 51.2389 241.365 51.3989C241.205 51.5189 240.925 51.5989 240.565 51.5989H235.565C235.165 51.5989 234.925 51.5189 234.765 51.3989C234.605 51.2389 234.525 50.9989 234.525 50.5989V41.4389H230.005C229.765 42.8789 229.565 44.2389 229.325 45.5989L228.485 49.5989C228.405 49.9989 228.285 50.2789 228.205 50.4789C228.045 50.6389 227.805 50.6789 227.445 50.5989L222.285 49.5189C221.885 49.4389 221.605 49.3189 221.405 49.1989C221.165 49.0389 221.165 48.6789 221.325 48.0389C221.805 45.9989 222.285 43.8789 222.725 41.5989C223.125 39.3589 223.485 37.1589 223.805 34.9589C224.085 32.7989 224.325 30.6789 224.525 28.6789C224.685 26.7189 224.765 24.9989 224.765 23.4789C224.765 22.4789 224.605 21.8389 224.325 21.5189C224.005 21.2389 223.525 21.0789 222.845 21.0789H216.245C215.845 21.0789 215.605 21.0389 215.445 20.8789C215.285 20.7589 215.205 20.4789 215.205 20.0789V15.3989ZM244.205 51.5989C243.805 51.5989 243.565 51.5189 243.405 51.3989C243.245 51.2389 243.165 50.9989 243.165 50.5989V15.3989C243.165 14.9989 243.245 14.7589 243.405 14.5989C243.565 14.4789 243.805 14.3989 244.205 14.3989H249.205C249.565 14.3989 249.845 14.4789 250.005 14.5989C250.165 14.7589 250.245 14.9989 250.245 15.3989V50.5989C250.245 50.9989 250.165 51.2389 250.005 51.3989C249.845 51.5189 249.565 51.5989 249.205 51.5989H244.205ZM231.685 28.2389C231.565 29.2789 231.445 30.3589 231.365 31.4389C231.205 32.5589 231.085 33.6789 230.965 34.7989H234.525V28.2389H231.685ZM282.485 40.7989C282.085 40.7989 281.845 40.7589 281.685 40.5989C281.525 40.4789 281.445 40.1989 281.445 39.7989V15.3989C281.445 14.9989 281.525 14.7589 281.685 14.5989C281.845 14.4789 282.085 14.3989 282.485 14.3989H288.085C288.445 14.3989 288.725 14.4789 288.885 14.5989C289.045 14.7589 289.125 14.9989 289.125 15.3989V39.7989C289.125 40.1989 289.045 40.4789 288.885 40.5989C288.725 40.7589 288.445 40.7989 288.085 40.7989H282.485ZM289.565 50.1989C289.605 50.5989 289.525 50.8389 289.365 50.9589C289.165 51.0389 288.885 51.1189 288.525 51.1989C286.685 51.3589 284.725 51.5589 282.725 51.7189L276.645 52.0789L270.605 52.3189C268.605 52.3589 266.765 52.3989 265.085 52.3989C262.525 52.3989 260.685 51.7189 259.605 50.3589C258.485 48.9589 257.925 46.7589 257.925 43.7589V39.3589C257.925 38.9589 258.005 38.7189 258.165 38.5589C258.325 38.4389 258.565 38.3589 258.965 38.3589H264.565C264.925 38.3589 265.205 38.4389 265.365 38.5589C265.525 38.7189 265.605 38.9589 265.605 39.3589V42.9989C265.605 43.9589 265.805 44.6789 266.205 45.1189C266.605 45.5589 267.325 45.7589 268.405 45.7589C269.845 45.7189 271.365 45.6789 273.045 45.6389C274.685 45.5589 276.365 45.4389 278.085 45.3589C279.765 45.2789 281.485 45.1589 283.205 44.9989C284.885 44.8789 286.525 44.7189 288.125 44.5589C288.485 44.5189 288.725 44.5589 288.885 44.7189C289.005 44.8789 289.085 45.1589 289.165 45.5589L289.565 50.1989ZM268.645 14.3989C269.005 14.3989 269.285 14.4789 269.445 14.5989C269.605 14.7589 269.685 14.9989 269.685 15.3989V22.6389C269.685 23.4389 269.765 24.1589 269.965 24.8789C270.125 25.6389 270.485 26.3189 271.005 26.9189C271.485 27.5589 272.165 28.1189 273.045 28.5989C273.885 29.1189 274.965 29.5189 276.325 29.7589C276.405 29.7989 276.565 29.8389 276.725 29.8389C276.845 29.8789 276.965 29.9189 277.125 29.9989C277.245 30.1189 277.365 30.2389 277.485 30.3989C277.565 30.5989 277.605 30.8389 277.605 31.1589V35.5989C277.605 36.0789 277.485 36.3589 277.245 36.4389C276.965 36.5589 276.725 36.5989 276.565 36.5589C275.605 36.4789 274.685 36.3589 273.725 36.1189C272.725 35.9589 271.765 35.6789 270.845 35.2789C269.885 34.9589 269.005 34.4789 268.165 33.9189C267.285 33.3589 266.525 32.7189 265.885 31.9189C265.165 32.7189 264.405 33.3589 263.605 33.9189C262.725 34.4789 261.845 34.9589 260.925 35.2789C259.965 35.6789 259.045 35.9589 258.085 36.1189C257.085 36.3589 256.125 36.4789 255.205 36.5589C255.005 36.5989 254.805 36.5589 254.565 36.4389C254.285 36.3589 254.165 36.0789 254.165 35.5989V31.1589C254.165 30.8389 254.205 30.5989 254.325 30.3989C254.405 30.2389 254.485 30.1189 254.645 29.9989C254.765 29.9189 254.925 29.8789 255.085 29.8389C255.205 29.8389 255.325 29.7989 255.445 29.7589C256.765 29.5189 257.845 29.1189 258.725 28.5989C259.565 28.1189 260.245 27.5589 260.765 26.9189C261.245 26.3189 261.605 25.6389 261.805 24.8789C261.965 24.1589 262.085 23.4389 262.085 22.6389V15.3989C262.085 14.9989 262.165 14.7589 262.325 14.5989C262.485 14.4789 262.725 14.3989 263.125 14.3989H268.645ZM294.405 15.3989C294.405 14.9989 294.485 14.7589 294.645 14.5989C294.805 14.4789 295.045 14.3989 295.445 14.3989H309.245C310.245 14.3989 311.125 14.5189 311.845 14.7589C312.565 14.9989 313.165 15.3989 313.645 15.9189C314.085 16.4789 314.405 17.1989 314.645 18.0389C314.805 18.9189 314.885 19.9989 314.885 21.2389C314.845 23.0789 314.725 25.1189 314.485 27.3989C314.205 29.7189 313.885 32.1189 313.485 34.5989C313.085 37.1189 312.605 39.6389 312.125 42.1989C311.565 44.7989 311.045 47.2389 310.485 49.5989C310.365 49.9989 310.245 50.2789 310.165 50.4789C310.045 50.6389 309.805 50.6789 309.445 50.5989L303.885 49.4389C303.685 49.3989 303.525 49.3589 303.405 49.3589C303.245 49.2789 303.085 49.1989 303.005 49.1189C302.885 48.9989 302.845 48.8789 302.845 48.7189C302.805 48.5189 302.845 48.2789 302.925 47.9589C303.485 45.9189 304.005 43.7989 304.525 41.5189C305.005 39.2789 305.485 37.0789 305.885 34.8789C306.245 32.7189 306.565 30.6789 306.805 28.6789C307.045 26.7189 307.165 24.9989 307.165 23.4789C307.165 22.4789 307.005 21.8389 306.725 21.5189C306.405 21.2389 305.925 21.0789 305.245 21.0789H295.445C295.045 21.0789 294.805 21.0389 294.645 20.8789C294.485 20.7589 294.405 20.4789 294.405 20.0789V15.3989ZM332.525 33.6389C332.525 34.0389 332.445 34.3189 332.285 34.4389C332.125 34.5989 331.845 34.6389 331.485 34.6389H327.805V50.5989C327.805 50.9989 327.725 51.2389 327.565 51.3989C327.405 51.5189 327.125 51.5989 326.765 51.5989H321.165C320.765 51.5989 320.525 51.5189 320.365 51.3989C320.205 51.2389 320.125 50.9989 320.125 50.5989V15.3989C320.125 14.9989 320.205 14.7589 320.365 14.5989C320.525 14.4789 320.765 14.3989 321.165 14.3989H326.765C327.125 14.3989 327.405 14.4789 327.565 14.5989C327.725 14.7589 327.805 14.9989 327.805 15.3989V27.9989H331.485C331.845 27.9989 332.125 28.0789 332.285 28.1989C332.445 28.3589 332.525 28.5989 332.525 28.9989V33.6389ZM367.045 27.4389C367.045 29.1589 366.765 30.7989 366.245 32.3189C365.685 33.8789 364.805 35.2789 363.685 36.4789V44.5189H368.325C368.685 44.5189 368.965 44.5989 369.125 44.7189C369.285 44.8789 369.365 45.1189 369.365 45.5189V50.1989C369.365 50.5989 369.285 50.8389 369.125 50.9989C368.965 51.1189 368.685 51.1989 368.325 51.1989H334.565C334.165 51.1989 333.925 51.1189 333.765 50.9989C333.605 50.8389 333.525 50.5989 333.525 50.1989V45.5189C333.525 45.1189 333.605 44.8789 333.765 44.7189C333.925 44.5989 334.165 44.5189 334.565 44.5189H339.205V36.4789C338.045 35.2789 337.205 33.8789 336.685 32.3189C336.125 30.7989 335.845 29.1589 335.845 27.4389C335.845 25.6789 336.125 23.9589 336.765 22.2789C337.365 20.6789 338.325 19.2389 339.605 17.9989C340.885 16.7989 342.485 15.7989 344.485 15.0389C346.405 14.3189 348.725 13.9589 351.445 13.9589C354.125 13.9589 356.445 14.3189 358.445 15.0389C360.365 15.7989 362.005 16.7989 363.285 17.9989C364.565 19.2389 365.485 20.6789 366.125 22.2789C366.725 23.9589 367.045 25.6789 367.045 27.4389ZM343.525 27.4389C343.525 28.4389 343.685 29.3589 344.045 30.1589C344.365 31.0389 344.885 31.7589 345.565 32.3589C346.205 32.9989 347.045 33.5189 348.045 33.8389C349.005 34.1989 350.165 34.3589 351.445 34.3589C352.725 34.3589 353.845 34.1989 354.845 33.8389C355.805 33.5189 356.645 32.9989 357.325 32.3589C357.965 31.7589 358.485 31.0389 358.845 30.1589C359.165 29.3589 359.365 28.4389 359.365 27.4389C359.365 26.4789 359.165 25.5589 358.845 24.6789C358.485 23.8789 357.965 23.1189 357.325 22.4789C356.645 21.8789 355.805 21.3989 354.845 21.0389C353.845 20.7189 352.725 20.5189 351.445 20.5189C350.165 20.5189 349.005 20.7189 348.045 21.0389C347.045 21.3989 346.205 21.8789 345.565 22.4789C344.885 23.1189 344.365 23.8789 344.045 24.6789C343.685 25.5589 343.525 26.4789 343.525 27.4389ZM351.445 40.9189C349.685 40.9189 348.165 40.7989 346.885 40.5189V44.5189H356.005V40.5189C354.645 40.7989 353.125 40.9189 351.445 40.9189ZM377.253 52.3989C376.853 52.3989 376.613 52.3189 376.453 52.1989C376.293 52.0389 376.213 51.7989 376.213 51.3989V46.3589C376.213 45.9589 376.293 45.6789 376.453 45.5589C376.613 45.3989 376.853 45.3589 377.253 45.3589H382.653C383.013 45.3589 383.293 45.3989 383.453 45.5589C383.613 45.6789 383.693 45.9589 383.693 46.3589V51.3989C383.693 51.7989 383.613 52.0389 383.453 52.1989C383.293 52.3189 383.013 52.3989 382.653 52.3989H377.253ZM376.213 38.3589C376.213 37.1989 376.413 36.1989 376.893 35.3189C377.293 34.5189 377.853 33.7589 378.533 33.1189C379.173 32.5189 379.933 31.9589 380.733 31.3989C381.493 30.9189 382.213 30.3589 382.893 29.7989C383.533 29.2389 384.093 28.6389 384.573 27.9589C384.973 27.3189 385.213 26.4789 385.213 25.5189C385.213 24.8789 385.173 24.3189 385.093 23.8389C385.013 23.3589 384.813 22.9589 384.573 22.5989C384.253 22.2789 383.813 22.0389 383.253 21.8789C382.653 21.7189 381.853 21.6389 380.893 21.6389C380.453 21.6389 379.973 21.6789 379.453 21.6789C378.893 21.7589 378.333 21.7989 377.773 21.8389C377.213 21.9189 376.653 21.9989 376.133 22.0789C375.573 22.1589 375.093 22.2389 374.693 22.3189C374.213 22.3989 373.853 22.3989 373.533 22.2789C373.213 22.1989 373.013 21.8389 372.933 21.1189L372.453 17.0789C372.373 16.7589 372.413 16.5189 372.493 16.2789C372.573 16.0789 372.653 15.9189 372.813 15.7589C372.933 15.6789 373.093 15.5989 373.253 15.5189C373.413 15.4789 373.533 15.4389 373.653 15.3989C375.093 15.0789 376.573 14.8389 378.093 14.5989C379.613 14.4389 381.093 14.3589 382.533 14.3989C383.933 14.4789 385.253 14.6789 386.533 14.9989C387.773 15.3989 388.893 15.9589 389.853 16.7589C390.773 17.5589 391.533 18.5989 392.093 19.8389C392.613 21.1189 392.893 22.7189 392.893 24.5589C392.893 26.1589 392.653 27.4789 392.213 28.5989C391.733 29.7589 391.173 30.7589 390.533 31.5589C389.813 32.4389 389.093 33.1589 388.293 33.7189L386.093 35.3989C385.373 35.9189 384.813 36.3989 384.373 36.8789C383.893 37.3589 383.693 37.9189 383.693 38.5189V41.7589C383.693 42.1589 383.613 42.4389 383.453 42.5589C383.293 42.7189 383.013 42.7589 382.653 42.7589H377.253C376.853 42.7589 376.613 42.7189 376.453 42.5589C376.293 42.4389 376.213 42.1589 376.213 41.7589V38.3589Z" fill="#222222"/>
<path d="M450.5 57.9182C467.345 57.9182 481 44.9528 481 28.9591C481 12.9654 467.345 0 450.5 0C433.655 0 420 12.9654 420 28.9591C420 44.9528 433.655 57.9182 450.5 57.9182Z" fill="#F2AD48"/>
<path d="M457.693 10.7L454.101 11.5885C453.812 11.6583 453.633 11.9678 453.713 12.2573L454.648 15.4916C454.797 16.0007 454.2 16.39 453.792 16.0506L450.827 13.555C450.628 13.3853 450.339 13.3853 450.14 13.555L447.175 16.0506C446.767 16.39 446.17 16.0007 446.319 15.4916L447.255 12.2573C447.334 11.9678 447.165 11.6583 446.866 11.5885L443.274 10.7C442.737 10.5702 442.737 9.79162 443.274 9.66185L446.866 8.77341C447.155 8.70353 447.334 8.39407 447.255 8.10458L446.319 4.87027C446.17 4.36116 446.767 3.97185 447.175 4.31125L450.14 6.80686C450.339 6.97657 450.628 6.97657 450.827 6.80686L453.792 4.31125C454.2 3.97185 454.797 4.36116 454.648 4.87027L453.713 8.10458C453.633 8.39407 453.802 8.70353 454.101 8.77341L457.693 9.66185C458.231 9.79162 458.231 10.5702 457.693 10.7Z" fill="#4A734E"/>
<path d="M440.578 22.8425C439.344 23.8407 438.996 25.2083 438.588 26.9353C438.19 28.6123 437.882 29.95 438.19 31.7069C438.379 32.7451 438.628 34.1526 439.713 35.2906C441.554 37.2172 445.225 37.8361 447.236 36.0892C448.37 35.1009 448.997 33.6235 449.216 32.1361C449.435 30.6488 449.276 29.1314 449.067 27.6341C448.698 25.0586 448.141 23.092 446.43 22.1537C444.419 21.0456 441.902 22.0938 441.733 22.1737C441.474 22.2835 441.046 22.4731 440.588 22.8425H440.578Z" fill="#F5F1DE"/>
<path d="M443.365 25.4659C442.321 25.8253 441.813 26.7536 441.753 26.8734C441.485 27.3925 441.445 27.9615 441.505 29.0895C441.544 29.7583 441.614 30.4272 441.733 31.096C441.813 31.5751 441.923 32.0643 442.171 32.4935C442.559 33.1624 443.276 33.6315 444.052 33.6914C444.818 33.7613 445.614 33.4219 446.102 32.8229C446.57 32.2539 446.749 31.5152 446.898 30.7965C447.107 29.7783 447.266 28.7202 447.077 27.7019C446.948 26.9932 446.699 26.1147 445.923 25.6456C445.037 25.1065 443.853 25.3661 443.654 25.406C443.584 25.426 443.495 25.4459 443.375 25.4858L443.365 25.4659Z" fill="#222222"/>
<path d="M460.422 22.8425C461.656 23.8407 462.005 25.2083 462.412 26.9353C462.811 28.6123 463.119 29.95 462.811 31.7069C462.621 32.7451 462.373 34.1526 461.288 35.2906C459.447 37.2172 455.775 37.8361 453.765 36.0892C452.631 35.1009 452.004 33.6235 451.785 32.1361C451.566 30.6488 451.725 29.1314 451.934 27.6341C452.302 25.0586 452.859 23.092 454.571 22.1537C456.581 21.0456 459.099 22.0938 459.268 22.1737C459.527 22.2835 459.955 22.4731 460.412 22.8425H460.422Z" fill="#F5F1DE"/>
<path d="M457.636 25.4659C458.681 25.8253 459.188 26.7536 459.248 26.8734C459.517 27.3925 459.556 27.9615 459.497 29.0895C459.457 29.7583 459.387 30.4272 459.268 31.096C459.188 31.5751 459.079 32.0643 458.83 32.4935C458.442 33.1624 457.725 33.6315 456.949 33.6914C456.183 33.7613 455.387 33.4219 454.899 32.8229C454.432 32.2539 454.253 31.5152 454.103 30.7965C453.894 29.7783 453.735 28.7202 453.924 27.7019C454.054 26.9932 454.302 26.1147 455.078 25.6456C455.964 25.1065 457.148 25.3661 457.347 25.406C457.417 25.426 457.507 25.4459 457.626 25.4858L457.636 25.4659Z" fill="#222222"/>
<path d="M439.017 49.625C438.161 52.7295 437.295 55.8341 436.44 58.9486C436.221 58.9486 433.524 58.9286 432.171 61.025C431.962 61.3444 431.295 62.3726 431.524 63.5405C432.071 66.4055 437.275 67.234 439.017 67.5136C440.977 67.833 442.171 68.0227 443.226 67.3239C444.689 66.3656 444.908 64.399 445.137 62.1131C445.634 57.1817 445.983 53.4483 446.221 50.8129" fill="#F2AD48"/>
<path d="M461.974 49.625C462.83 52.7295 463.696 55.8341 464.551 58.9486C464.77 58.9486 467.467 58.9286 468.82 61.025C469.029 61.3444 469.696 62.3726 469.467 63.5405C468.92 66.4055 463.716 67.234 461.974 67.5136C460.014 67.833 458.82 68.0227 457.765 67.3239C456.302 66.3656 456.083 64.399 455.854 62.1131C455.357 57.1817 455.008 53.4483 454.77 50.8129" fill="#F2AD48"/>
<g clip-path="url(#clip0_191_2712)">
<path d="M464.65 37.6653C466.879 36.2448 468.487 34.0325 469.151 31.474C469.814 28.9155 469.484 26.2006 468.226 23.8759C466.968 21.5512 464.877 19.7892 462.372 18.9447C459.868 18.1001 457.136 18.2357 454.727 19.3242C452.319 20.4126 450.412 22.3731 449.391 24.811C448.369 27.2488 448.309 29.9831 449.223 32.4633C450.137 34.9435 451.956 36.9856 454.315 38.1784C456.673 39.3713 459.396 39.6263 461.935 38.8922L464.881 45.4114L467.595 44.1882L464.65 37.6653ZM456.427 35.8585C455.05 35.3389 453.859 34.4227 453.003 33.2259C452.147 32.0291 451.665 30.6054 451.619 29.1348C451.572 27.6643 451.963 26.2129 452.741 24.9642C453.519 23.7156 454.65 22.7257 455.991 22.1198C457.331 21.5139 458.822 21.3192 460.273 21.5604C461.725 21.8015 463.072 22.4676 464.145 23.4744C465.218 24.4813 465.968 25.7836 466.301 27.2168C466.633 28.6501 466.533 30.1497 466.014 31.5262C465.315 33.3709 463.914 34.863 462.116 35.6753C460.319 36.4875 458.273 36.5534 456.427 35.8585Z" fill="#E24444"/>
</g>
<path d="M477.368 39.1922C476.651 40.1904 469.616 49.8934 464.979 47.8669C463.944 47.4177 462.372 46.09 462.431 44.6526C462.481 43.245 464.073 42.4065 465.536 41.2985C467.287 39.9608 469.566 37.6748 471.656 33.582" fill="#A87533"/>
<path opacity="0.3" d="M476.938 38.6023C476.222 39.6006 469.186 49.3035 464.549 47.2771C463.514 46.8279 461.942 45.5002 462.002 44.0627C462.051 42.6552 463.644 41.8167 465.106 40.7086C466.858 39.371 469.137 37.085 471.226 32.9922" fill="#A87533"/>
<path d="M477.147 38.7195C476.431 39.7178 469.395 49.4207 464.758 47.3943C463.723 46.9451 462.151 45.6174 462.211 44.1799C462.26 42.7724 463.853 41.9339 465.315 40.8258C467.067 39.4882 469.346 37.2022 471.435 33.1094" fill="#F2AD48"/>
<path d="M423.621 39.1922C424.338 40.1904 431.373 49.8934 436.01 47.8669C437.045 47.4177 438.617 46.09 438.558 44.6526C438.508 43.245 436.916 42.4065 435.453 41.2985C433.702 39.9608 431.423 37.6748 429.333 33.582" fill="#A87533"/>
<path opacity="0.3" d="M424.049 38.6023C424.765 39.6006 431.801 49.3035 436.438 47.2771C437.473 46.8279 439.045 45.5002 438.985 44.0627C438.936 42.6552 437.343 41.8167 435.881 40.7086C434.129 39.371 431.85 37.085 429.761 32.9922" fill="#A87533"/>
<path d="M423.84 38.7195C424.556 39.7178 431.592 49.4207 436.229 47.3943C437.264 46.9451 438.836 45.6174 438.776 44.1799C438.727 42.7724 437.134 41.9339 435.672 40.8258C433.92 39.4882 431.641 37.2022 429.552 33.1094" fill="#F2AD48"/>
<defs>
<clipPath id="clip0_191_2712">
<rect width="23.805" height="23.805" fill="white" transform="translate(452.988 15.4766) rotate(20.6822)"/>
</clipPath>
</defs>
</svg>
