<svg width="61" height="68" viewBox="0 0 61 68" fill="none" xmlns="http://www.w3.org/2000/svg">
<path d="M30.5 57.9182C47.3447 57.9182 61 44.9528 61 28.9591C61 12.9654 47.3447 0 30.5 0C13.6553 0 0 12.9654 0 28.9591C0 44.9528 13.6553 57.9182 30.5 57.9182Z" fill="#F2AD48"/>
<path d="M37.6932 10.7L34.1009 11.5885C33.8123 11.6583 33.6332 11.9678 33.7128 12.2573L34.6482 15.4916C34.7974 16.0007 34.2004 16.39 33.7924 16.0506L30.827 13.555C30.6279 13.3853 30.3394 13.3853 30.1403 13.555L27.1749 16.0506C26.7669 16.39 26.1699 16.0007 26.3191 15.4916L27.2545 12.2573C27.3341 11.9678 27.165 11.6583 26.8664 11.5885L23.2741 10.7C22.7368 10.5702 22.7368 9.79162 23.2741 9.66185L26.8664 8.77341C27.155 8.70353 27.3341 8.39407 27.2545 8.10458L26.3191 4.87027C26.1699 4.36116 26.7669 3.97185 27.1749 4.31125L30.1403 6.80686C30.3394 6.97657 30.6279 6.97657 30.827 6.80686L33.7924 4.31125C34.2004 3.97185 34.7974 4.36116 34.6482 4.87027L33.7128 8.10458C33.6332 8.39407 33.8023 8.70353 34.1009 8.77341L37.6932 9.66185C38.2305 9.79162 38.2305 10.5702 37.6932 10.7Z" fill="#4A734E"/>
<path d="M20.5783 22.8425C19.3444 23.8407 18.9961 25.2083 18.5881 26.9353C18.1901 28.6123 17.8816 29.95 18.1901 31.7069C18.3791 32.7451 18.6279 34.1526 19.7126 35.2906C21.5535 37.2172 25.2255 37.8361 27.2356 36.0892C28.37 35.1009 28.9969 33.6235 29.2158 32.1361C29.4348 30.6488 29.2755 29.1314 29.0666 27.6341C28.6984 25.0586 28.1411 23.092 26.4296 22.1537C24.4194 21.0456 21.9018 22.0938 21.7327 22.1737C21.4739 22.2835 21.046 22.4731 20.5883 22.8425H20.5783Z" fill="#F5F1DE"/>
<path d="M23.3654 25.4659C22.3206 25.8253 21.8131 26.7536 21.7534 26.8734C21.4847 27.3925 21.4449 27.9615 21.5046 29.0895C21.5444 29.7583 21.6141 30.4272 21.7335 31.096C21.8131 31.5751 21.9225 32.0643 22.1713 32.4935C22.5594 33.1624 23.2759 33.6315 24.0521 33.6914C24.8183 33.7613 25.6144 33.4219 26.102 32.8229C26.5697 32.2539 26.7488 31.5152 26.8981 30.7965C27.107 29.7783 27.2663 28.7202 27.0772 27.7019C26.9478 26.9932 26.699 26.1147 25.9229 25.6456C25.0372 25.1065 23.853 25.3661 23.654 25.406C23.5844 25.426 23.4948 25.4459 23.3754 25.4858L23.3654 25.4659Z" fill="#222222"/>
<path d="M40.4223 22.8425C41.6562 23.8407 42.0045 25.2083 42.4125 26.9353C42.8105 28.6123 43.119 29.95 42.8105 31.7069C42.6215 32.7451 42.3727 34.1526 41.288 35.2906C39.4471 37.2172 35.7751 37.8361 33.765 36.0892C32.6306 35.1009 32.0037 33.6235 31.7848 32.1361C31.5658 30.6488 31.7251 29.1314 31.934 27.6341C32.3022 25.0586 32.8595 23.092 34.5711 22.1537C36.5812 21.0456 39.0988 22.0938 39.268 22.1737C39.5267 22.2835 39.9546 22.4731 40.4123 22.8425H40.4223Z" fill="#F5F1DE"/>
<path d="M37.6359 25.4659C38.6808 25.8253 39.1883 26.7536 39.248 26.8734C39.5167 27.3925 39.5565 27.9615 39.4968 29.0895C39.457 29.7583 39.3873 30.4272 39.2679 31.096C39.1883 31.5751 39.0788 32.0643 38.83 32.4935C38.4419 33.1624 37.7255 33.6315 36.9493 33.6914C36.1831 33.7613 35.387 33.4219 34.8994 32.8229C34.4317 32.2539 34.2526 31.5152 34.1033 30.7965C33.8943 29.7783 33.7351 28.7202 33.9242 27.7019C34.0535 26.9932 34.3023 26.1147 35.0785 25.6456C35.9641 25.1065 37.1483 25.3661 37.3473 25.406C37.417 25.426 37.5066 25.4459 37.626 25.4858L37.6359 25.4659Z" fill="#222222"/>
<path d="M19.0169 49.625C18.1611 52.7295 17.2954 55.8341 16.4396 58.9486C16.2207 58.9486 13.5239 58.9286 12.1706 61.025C11.9616 61.3444 11.2949 62.3726 11.5238 63.5405C12.0711 66.4055 17.2755 67.234 19.0169 67.5136C20.9773 67.833 22.1714 68.0227 23.2262 67.3239C24.689 66.3656 24.9079 64.399 25.1368 62.1131C25.6344 57.1817 25.9827 53.4483 26.2215 50.8129" fill="#F2AD48"/>
<path d="M41.9741 49.625C42.8299 52.7295 43.6956 55.8341 44.5514 58.9486C44.7703 58.9486 47.4671 58.9286 48.8204 61.025C49.0294 61.3444 49.6961 62.3726 49.4672 63.5405C48.9199 66.4055 43.7155 67.234 41.9741 67.5136C40.0137 67.833 38.8196 68.0227 37.7648 67.3239C36.302 66.3656 36.0831 64.399 35.8542 62.1131C35.3567 57.1817 35.0084 53.4483 34.7695 50.8129" fill="#F2AD48"/>
<g clip-path="url(#clip0_191_2714)">
<path d="M44.6504 37.6653C46.8793 36.2448 48.4873 34.0325 49.1508 31.474C49.8143 28.9155 49.4839 26.2006 48.2261 23.8759C46.9684 21.5512 44.8767 19.7892 42.3722 18.9447C39.8676 18.1001 37.136 18.2357 34.7274 19.3242C32.3188 20.4126 30.4119 22.3731 29.3906 24.811C28.3693 27.2488 28.3094 29.9831 29.223 32.4633C30.1366 34.9435 31.9558 36.9856 34.3145 38.1784C36.6732 39.3713 39.3962 39.6263 41.9353 38.8922L44.8813 45.4114L47.5949 44.1882L44.6504 37.6653ZM36.4268 35.8585C35.0503 35.3389 33.8588 34.4227 33.003 33.2259C32.1472 32.0291 31.6655 30.6054 31.6188 29.1348C31.5721 27.6643 31.9626 26.2129 32.7408 24.9642C33.519 23.7156 34.6499 22.7257 35.9907 22.1198C37.3315 21.5139 38.8218 21.3192 40.2732 21.5604C41.7246 21.8015 43.072 22.4676 44.1448 23.4744C45.2177 24.4813 45.9679 25.7836 46.3005 27.2168C46.6332 28.6501 46.5334 30.1497 46.0138 31.5262C45.3154 33.3709 43.9137 34.863 42.1163 35.6753C40.3189 36.4875 38.2727 36.5534 36.4268 35.8585Z" fill="#E24444"/>
</g>
<path d="M57.3679 39.1922C56.6514 40.1904 49.616 49.8934 44.9788 47.8669C43.9439 47.4177 42.3716 46.09 42.4313 44.6526C42.4811 43.245 44.0733 42.4065 45.5361 41.2985C47.2875 39.9608 49.5662 37.6748 51.656 33.582" fill="#A87533"/>
<path opacity="0.3" d="M56.9382 38.6023C56.2217 39.6006 49.1863 49.3035 44.5491 47.2771C43.5142 46.8279 41.9419 45.5002 42.0017 44.0627C42.0514 42.6552 43.6436 41.8167 45.1064 40.7086C46.8578 39.371 49.1366 37.085 51.2263 32.9922" fill="#A87533"/>
<path d="M57.1472 38.7195C56.4307 39.7178 49.3953 49.4207 44.7581 47.3943C43.7232 46.9451 42.1509 45.6174 42.2106 44.1799C42.2604 42.7724 43.8526 41.9339 45.3154 40.8258C47.0667 39.4882 49.3455 37.2022 51.4353 33.1094" fill="#F2AD48"/>
<path d="M3.62109 39.1922C4.33757 40.1904 11.373 49.8934 16.0102 47.8669C17.0451 47.4177 18.6173 46.09 18.5576 44.6526C18.5079 43.245 16.9157 42.4065 15.4529 41.2985C13.7015 39.9608 11.4227 37.6748 9.33299 33.582" fill="#A87533"/>
<path opacity="0.3" d="M4.04883 38.6023C4.7653 39.6006 11.8007 49.3035 16.4379 47.2771C17.4728 46.8279 19.0451 45.5002 18.9854 44.0627C18.9356 42.6552 17.3434 41.8167 15.8806 40.7086C14.1293 39.371 11.8505 37.085 9.76074 32.9922" fill="#A87533"/>
<path d="M3.83984 38.7195C4.55632 39.7178 11.5917 49.4207 16.2289 47.3943C17.2638 46.9451 18.8361 45.6174 18.7764 44.1799C18.7266 42.7724 17.1345 41.9339 15.6717 40.8258C13.9203 39.4882 11.6415 37.2022 9.55176 33.1094" fill="#F2AD48"/>
<defs>
<clipPath id="clip0_191_2714">
<rect width="23.805" height="23.805" fill="white" transform="translate(32.9883 15.4766) rotate(20.6822)"/>
</clipPath>
</defs>
</svg>
