<svg width="225" height="189" viewBox="0 0 225 189" fill="none" xmlns="http://www.w3.org/2000/svg">
<path d="M202.254 13.9922L201.518 42.709H194.268L193.531 13.9922H202.254ZM197.949 55.5098C195.287 55.5098 193.135 53.3574 193.191 50.752C193.135 48.1465 195.287 46.0508 197.949 46.0508C200.441 46.0508 202.65 48.1465 202.65 50.752C202.65 53.3574 200.441 55.5098 197.949 55.5098ZM220.039 13.9922L219.303 42.709H212.053L211.316 13.9922H220.039ZM215.734 55.5098C213.072 55.5098 210.92 53.3574 210.977 50.752C210.92 48.1465 213.072 46.0508 215.734 46.0508C218.227 46.0508 220.436 48.1465 220.436 50.752C220.436 53.3574 218.227 55.5098 215.734 55.5098Z" fill="#E24444"/>
<path d="M92 189.004C142.81 189.004 184 150.053 184 102.004C184 53.9551 142.81 15.0039 92 15.0039C41.1898 15.0039 -3.79307e-10 53.9551 -8.47205e-10 102.004C-1.3151e-09 150.053 41.1898 189.004 92 189.004Z" fill="#E24444"/>
<path d="M112.203 47.7341L101.596 50.4431C100.722 50.6688 100.206 51.5924 100.464 52.4749L103.225 62.3259C103.662 63.8652 101.894 65.0555 100.703 64.0293L91.943 56.4358C91.3471 55.9227 90.493 55.9227 89.917 56.4358L81.1573 64.0293C79.9656 65.0555 78.1978 63.8652 78.6348 62.3259L81.3957 52.4749C81.6539 51.5924 81.1375 50.6688 80.2635 50.4431L69.6566 47.7341C68.0676 47.3236 68.0676 44.984 69.6566 44.5735L80.2635 41.8645C81.1375 41.6387 81.6539 40.7152 81.3957 39.8327L78.6348 29.9817C78.1978 28.4424 79.9656 27.2521 81.1573 28.2783L89.917 35.8718C90.5128 36.3848 91.3669 36.3848 91.943 35.8718L100.703 28.2783C101.894 27.2521 103.662 28.4424 103.225 29.9817L100.464 39.8327C100.206 40.7152 100.722 41.6387 101.596 41.8645L112.203 44.5735C113.792 44.984 113.792 47.3236 112.203 47.7341Z" fill="#4A734E"/>
<path d="M61.1381 83.0668C57.3845 86.1122 56.3237 90.3099 55.0792 95.5776C53.8756 100.701 52.9168 104.775 53.8756 110.167C54.4468 113.335 55.2016 117.636 58.5065 121.113C64.0962 127.019 75.2756 128.912 81.3753 123.541C84.823 120.517 86.7202 116.01 87.3934 111.463C88.0667 106.915 87.577 102.265 86.9446 97.7175C85.8226 89.8572 84.109 83.8488 78.9273 80.9886C72.8276 77.614 65.1774 80.8034 64.647 81.0503C63.8514 81.4001 62.5661 81.9557 61.1585 83.108L61.1381 83.0668Z" fill="#F5F1DE"/>
<path d="M69.8769 90.7069C66.7139 91.8022 65.1932 94.654 65.0107 95.026C64.1795 96.6172 64.0781 98.353 64.2606 101.825C64.3619 103.891 64.6052 105.937 64.9499 107.983C65.1932 109.471 65.5176 110.959 66.2678 112.261C67.4235 114.327 69.6133 115.733 71.9247 115.939C74.2361 116.146 76.6286 115.113 78.1087 113.273C79.5077 111.538 80.0552 109.244 80.5013 107.053C81.1298 103.912 81.6164 100.688 81.0487 97.5471C80.6634 95.3773 79.9132 92.6908 77.5613 91.2236C74.8849 89.5703 71.3164 90.3556 70.7285 90.5003C70.5257 90.5416 70.2621 90.6036 69.8972 90.7276L69.8769 90.7069Z" fill="#222222"/>
<path d="M120.717 83.0668C124.471 86.1122 125.532 90.3099 126.776 95.5776C127.98 100.701 128.939 104.775 127.98 110.167C127.409 113.335 126.654 117.636 123.349 121.113C117.759 127.019 106.58 128.912 100.48 123.541C97.0326 120.517 95.1354 116.01 94.4622 111.463C93.789 106.915 94.2786 102.265 94.911 97.7175C96.033 89.8572 97.7466 83.8488 102.928 80.9886C109.028 77.614 116.678 80.8034 117.209 81.0503C118.004 81.4001 119.289 81.9557 120.697 83.108L120.717 83.0668Z" fill="#F5F1DE"/>
<path d="M112.692 90.7069C115.46 91.8022 116.791 94.654 116.95 95.026C117.678 96.6172 117.766 98.353 117.607 101.825C117.518 103.891 117.305 105.937 117.003 107.983C116.791 109.471 116.507 110.959 115.85 112.261C114.839 114.327 112.923 115.733 110.901 115.939C108.878 116.146 106.785 115.113 105.49 113.273C104.265 111.538 103.786 109.244 103.396 107.053C102.846 103.912 102.42 100.688 102.917 97.5471C103.254 95.3773 103.911 92.6908 105.969 91.2236C108.31 89.5703 111.433 90.3556 111.947 90.5003C112.125 90.5416 112.355 90.6036 112.675 90.7276L112.692 90.7069Z" fill="#222222"/>
</svg>
