<svg width="141" height="72" viewBox="0 0 141 72" fill="none" xmlns="http://www.w3.org/2000/svg">
<path d="M2.10497 47.9834V42.4309L16.4751 20.0552H25.326V42.3315H29.6022V47.9834H25.326V54H18.5967V47.9834H2.10497ZM9.21547 42.3315H18.6961V27.779H18.3812L9.21547 42.0663V42.3315Z" fill="#222222"/>
<path d="M111.105 47.9834V42.4309L125.475 20.0552H134.326V42.3315H138.602V47.9834H134.326V54H127.597V47.9834H111.105ZM118.215 42.3315H127.696V27.779H127.381L118.215 42.0663V42.3315Z" fill="#222222"/>
<path d="M70.5 65.7372C87.3447 65.7372 101 52.8123 101 36.8686C101 20.9249 87.3447 8 70.5 8C53.6553 8 40 20.9249 40 36.8686C40 52.8123 53.6553 65.7372 70.5 65.7372Z" fill="#A7A7A7"/>
<path d="M72.4741 18.6678L76.0592 19.554C76.3546 19.6278 76.5292 19.9299 76.4419 20.2186L75.5087 23.4412C75.361 23.9447 75.9585 24.3341 76.3613 23.9984L79.322 21.5144C79.5234 21.3465 79.8121 21.3465 80.0068 21.5144L82.9675 23.9984C83.3703 24.3341 83.9679 23.9447 83.8202 23.4412L82.8869 20.2186C82.7997 19.9299 82.9742 19.6278 83.2696 19.554L86.8547 18.6678C87.3918 18.5335 87.3918 17.7682 86.8547 17.6339L83.2696 16.7477C82.9742 16.6738 82.7997 16.3717 82.8869 16.083L83.8202 12.8605C83.9679 12.357 83.3703 11.9676 82.9675 12.3033L80.0068 14.7873C79.8054 14.9551 79.5167 14.9551 79.322 14.7873L76.3613 12.3033C75.9585 11.9676 75.361 12.357 75.5087 12.8605L76.4419 16.083C76.5292 16.3717 76.3546 16.6738 76.0592 16.7477L72.4741 17.6339C71.937 17.7682 71.937 18.5335 72.4741 18.6678Z" fill="#7A7A7A"/>
<path d="M95.8874 34.6039C96.0006 37.2275 96.0804 38.9992 95.6278 41.0504C95.1352 43.3196 94.7225 44.6552 93.5109 45.8545C92.2528 47.1016 90.2158 47.6331 88.7048 46.7404C87.7861 46.1952 87.187 45.2276 86.6811 44.2736C85.849 42.7063 85.1501 40.9754 85.2899 39.1968C85.4097 37.6772 86.1286 36.2803 86.8276 34.931C87.6264 33.4046 88.5251 31.7827 90.0761 31.0877C91.8268 30.304 93.5109 31.224 93.6174 31.2785C93.6973 31.3194 95.5213 32.3075 95.8408 34.1473C95.8741 34.345 95.8807 34.5017 95.8874 34.6039Z" fill="#F5F1DE"/>
<path d="M93.7666 33.0153C94.4686 33.5808 94.5187 34.6715 94.5438 35.1697C94.5876 36.1526 94.3369 36.8865 94.1426 37.4789C93.7415 38.6706 93.1023 39.842 92.0807 40.4816C91.7924 40.6634 91.4602 40.8047 91.128 40.7509C90.8209 40.7037 90.5514 40.495 90.3195 40.2661C89.3982 39.3573 88.8466 38.031 88.8403 36.6845C88.8403 35.338 89.3731 34.005 90.2944 33.0894C90.683 32.7056 91.2095 32.1738 91.9051 32.2007C92.5382 32.2209 93.2965 32.6989 93.5535 32.8605C93.6663 32.9345 93.7227 32.9682 93.7728 33.0086L93.7666 33.0153Z" fill="#222222"/>
<path d="M83.0432 34.6039C83.1563 37.2275 83.2362 38.9992 82.7835 41.0504C82.2909 43.3196 81.8782 44.6552 80.6667 45.8545C79.4086 47.1016 77.3716 47.6331 75.8606 46.7404C74.9419 46.1952 74.3428 45.2276 73.8369 44.2736C73.0048 42.7063 72.3058 40.9754 72.4456 39.1968C72.5655 37.6772 73.2844 36.2803 73.9833 34.931C74.7822 33.4046 75.6808 31.7827 77.2318 31.0877C78.9826 30.304 80.6667 31.224 80.7732 31.2785C80.8531 31.3194 82.677 32.3075 82.9966 34.1473C83.0298 34.345 83.0365 34.5017 83.0432 34.6039Z" fill="#F5F1DE"/>
<path d="M81.5382 33.0153C82.3279 33.5808 82.3843 34.6715 82.4125 35.1697C82.4618 36.1526 82.1798 36.8865 81.9612 37.4789C81.5099 38.6706 80.7908 39.842 79.6415 40.4816C79.3171 40.6634 78.9434 40.8047 78.5697 40.7509C78.2242 40.7037 77.921 40.495 77.6601 40.2661C76.6237 39.3573 76.0031 38.031 75.9961 36.6845C75.9961 35.338 76.5954 34.005 77.6319 33.0894C78.0691 32.7056 78.6614 32.1738 79.444 32.2007C80.1562 32.2209 81.0093 32.6989 81.2984 32.8605C81.4253 32.9345 81.4888 32.9682 81.5452 33.0086L81.5382 33.0153Z" fill="#222222"/>
</svg>
