<svg width="24" height="19" viewBox="0 0 24 19" fill="none" xmlns="http://www.w3.org/2000/svg">
<path d="M12.5232 24.3155C18.9801 24.3155 24.2144 19.0308 24.2144 12.5119C24.2144 5.99295 18.9801 0.708313 12.5232 0.708313C6.06636 0.708313 0.832031 5.99295 0.832031 12.5119C0.832031 19.0308 6.06636 24.3155 12.5232 24.3155Z" fill="#E24444"/>
<path d="M13.2716 5.06699L14.6458 5.42933C14.7591 5.45953 14.826 5.58305 14.7925 5.70109L14.4348 7.0187C14.3782 7.22457 14.6072 7.38378 14.7616 7.24653L15.8965 6.23088C15.9737 6.16225 16.0844 6.16225 16.159 6.23088L17.2939 7.24653C17.4483 7.38378 17.6774 7.22457 17.6207 7.0187L17.263 5.70109C17.2296 5.58305 17.2965 5.45953 17.4097 5.42933L18.7839 5.06699C18.9898 5.01209 18.9898 4.69916 18.7839 4.64426L17.4097 4.28191C17.2965 4.25172 17.2296 4.1282 17.263 4.01016L17.6207 2.69255C17.6774 2.48668 17.4483 2.32746 17.2939 2.46471L16.159 3.48037C16.0818 3.549 15.9712 3.549 15.8965 3.48037L14.7616 2.46471C14.6072 2.32746 14.3782 2.48668 14.4348 2.69255L14.7925 4.01016C14.826 4.1282 14.7591 4.25172 14.6458 4.28191L13.2716 4.64426C13.0657 4.69916 13.0657 5.01209 13.2716 5.06699Z" fill="#4A734E"/>
<path d="M22.2566 11.5979C22.3 12.6706 22.3306 13.395 22.1571 14.2337C21.9682 15.1615 21.81 15.7076 21.3456 16.198C20.8634 16.7079 20.0826 16.9252 19.5033 16.5602C19.1512 16.3373 18.9216 15.9417 18.7276 15.5516C18.4087 14.9108 18.1408 14.2031 18.1944 13.4758C18.2403 12.8545 18.5159 12.2833 18.7838 11.7317C19.09 11.1076 19.4345 10.4444 20.029 10.1602C20.7001 9.83982 21.3456 10.216 21.3865 10.2383C21.4171 10.255 22.1162 10.659 22.2387 11.4113C22.2515 11.4921 22.254 11.5561 22.2566 11.5979Z" fill="#F5F1DE"/>
<path d="M21.4411 10.9495C21.7101 11.1807 21.7294 11.6267 21.739 11.8304C21.7558 12.2323 21.6597 12.5323 21.5852 12.7745C21.4315 13.2618 21.1864 13.7407 20.7948 14.0023C20.6843 14.0766 20.557 14.1344 20.4296 14.1124C20.3119 14.0931 20.2086 14.0078 20.1197 13.9142C19.7666 13.5426 19.5551 13.0003 19.5527 12.4497C19.5527 11.8992 19.7569 11.3542 20.1101 10.9798C20.2591 10.8229 20.4609 10.6054 20.7275 10.6164C20.9702 10.6247 21.2609 10.8201 21.3594 10.8862C21.4026 10.9165 21.4242 10.9302 21.4435 10.9468L21.4411 10.9495Z" fill="#222222"/>
<path d="M17.3347 11.5979C17.3781 12.6706 17.4087 13.395 17.2352 14.2337C17.0464 15.1615 16.8882 15.7076 16.4238 16.198C15.9415 16.7079 15.1607 16.9252 14.5815 16.5602C14.2294 16.3373 13.9997 15.9417 13.8058 15.5516C13.4868 14.9108 13.2189 14.2031 13.2725 13.4758C13.3184 12.8545 13.594 12.2833 13.8619 11.7317C14.1681 11.1076 14.5126 10.4444 15.1071 10.1602C15.7782 9.83982 16.4238 10.216 16.4646 10.2383C16.4952 10.255 17.1944 10.659 17.3168 11.4113C17.3296 11.4921 17.3322 11.5561 17.3347 11.5979Z" fill="#F5F1DE"/>
<path d="M16.7552 10.9495C17.0579 11.1807 17.0796 11.6267 17.0904 11.8304C17.1093 12.2323 17.0012 12.5323 16.9174 12.7745C16.7444 13.2618 16.4687 13.7407 16.0282 14.0023C15.9039 14.0766 15.7606 14.1344 15.6174 14.1124C15.4849 14.0931 15.3687 14.0078 15.2687 13.9142C14.8714 13.5426 14.6336 13.0003 14.6309 12.4497C14.6309 11.8992 14.8606 11.3542 15.2579 10.9798C15.4255 10.8229 15.6525 10.6054 15.9525 10.6164C16.2255 10.6247 16.5525 10.8201 16.6633 10.8862C16.712 10.9165 16.7363 10.9302 16.7579 10.9468L16.7552 10.9495Z" fill="#222222"/>
</svg>
