<svg width="79" height="18" viewBox="0 0 79 18" fill="none" xmlns="http://www.w3.org/2000/svg">
<path d="M16.6308 11.4884C16.6553 11.6814 16.6259 11.81 16.5329 11.8595C16.4448 11.9139 16.3076 11.9486 16.1264 11.9782C15.2988 12.0673 14.4615 12.1415 13.6045 12.2009C12.7475 12.2603 11.8856 12.3147 11.0237 12.3642V14.7292H17.3262C17.5074 14.7292 17.6347 14.7638 17.7131 14.8282C17.7914 14.8925 17.8306 15.0211 17.8306 15.219V17.5049C17.8306 17.6979 17.7914 17.8315 17.7131 17.8958C17.6347 17.9601 17.5074 17.9947 17.3262 17.9947H1.00439C0.823205 17.9947 0.695882 17.9601 0.617529 17.8958C0.539176 17.8315 0.5 17.6979 0.5 17.5049V15.219C0.5 15.0211 0.539176 14.8925 0.617529 14.8282C0.695882 14.7638 0.823205 14.7292 1.00439 14.7292H7.30688V12.4829C6.93471 12.4978 6.56743 12.5027 6.21484 12.5027H5.18157C3.94262 12.5027 3.05625 12.1663 2.52248 11.4983C1.9887 10.8254 1.71936 9.75669 1.71936 8.28225V0.504356C1.71936 0.311393 1.75854 0.177803 1.83689 0.113482C1.91524 0.0491609 2.04257 0.0145264 2.22376 0.0145264H15.8963C16.0775 0.0145264 16.2048 0.0491609 16.2831 0.113482C16.3615 0.177803 16.4007 0.311393 16.4007 0.504356V2.79023C16.4007 2.98814 16.3615 3.11678 16.2831 3.1811C16.2048 3.24542 16.0775 3.28006 15.8963 3.28006H5.43132V4.68522H15.911C16.0922 4.68522 16.2195 4.71986 16.2978 4.78418C16.3762 4.8485 16.4154 4.98209 16.4154 5.17505V7.26796C16.4154 7.46092 16.3762 7.59451 16.2978 7.65883C16.2195 7.72315 16.0922 7.75779 15.911 7.75779H5.43132V8.10908C5.43132 8.57912 5.52926 8.92546 5.72024 9.14316C5.91612 9.36581 6.26871 9.46972 6.7829 9.45487C8.18835 9.43013 9.68194 9.37571 11.2686 9.29655C12.8552 9.21738 14.4076 9.09369 15.9306 8.92546C16.1118 8.90072 16.2342 8.92546 16.2978 9.00463C16.3615 9.08379 16.4056 9.21738 16.435 9.41529L16.6308 11.4884Z" fill="#E24444"/>
<path d="M29.5731 14.7246C29.5731 15.536 29.4017 16.1248 29.0589 16.486C28.7161 16.8471 28.197 17.0253 27.5114 17.0253H21.2726C20.5821 17.0253 20.0679 16.8422 19.7251 16.486C19.3823 16.1248 19.2109 15.5409 19.2109 14.7246V0.499713C19.2109 0.30675 19.2501 0.178108 19.3236 0.113787C19.4019 0.0494661 19.5292 0.0148315 19.7055 0.0148315H29.0785C29.2548 0.0148315 29.387 0.0494661 29.4604 0.113787C29.5388 0.178108 29.5731 0.30675 29.5731 0.499713V14.7246ZM25.5183 13.9923C25.7338 13.9923 25.8807 13.9527 25.9591 13.8686C26.0374 13.7845 26.0717 13.6212 26.0717 13.3738V2.95381H22.7025V13.3738C22.7025 13.6212 22.7417 13.7845 22.8152 13.8686C22.8935 13.9527 23.0404 13.9923 23.2559 13.9923H25.5134H25.5183ZM37.4377 9.31664C37.4377 9.5096 37.3985 9.63824 37.3251 9.70256C37.2467 9.76689 37.1194 9.80152 36.9431 9.80152H35.1851V17.5151C35.1851 17.7081 35.1459 17.8367 35.0724 17.901C34.9941 17.9653 34.8668 18 34.6905 18H32.0118C31.8306 18 31.7033 17.9703 31.6298 17.901C31.5515 17.8367 31.5172 17.7081 31.5172 17.5151V0.499713C31.5172 0.30675 31.5564 0.178108 31.6298 0.113787C31.7082 0.0494661 31.8355 0.0148315 32.0118 0.0148315H34.6905C34.8668 0.0148315 34.999 0.0494661 35.0724 0.113787C35.1508 0.178108 35.1851 0.30675 35.1851 0.499713V6.59042H36.9431C37.1194 6.59042 37.2516 6.62505 37.3251 6.68937C37.4034 6.75369 37.4377 6.88234 37.4377 7.0753V9.31664Z" fill="#E24444"/>
<path d="M54.3437 11.4887C54.3682 11.6817 54.3388 11.8103 54.2458 11.8598C54.1576 11.9142 54.0205 11.9489 53.8393 11.9785C53.0117 12.0676 52.1743 12.1418 51.3174 12.2012C50.4604 12.2606 49.5985 12.315 48.7366 12.3645V14.7295H55.0391C55.2203 14.7295 55.3476 14.7641 55.426 14.8285C55.5043 14.8928 55.5435 15.0214 55.5435 15.2193V17.5052C55.5435 17.6982 55.5043 17.8318 55.426 17.8961C55.3476 17.9604 55.2203 17.995 55.0391 17.995H38.7173C38.5361 17.995 38.4088 17.9604 38.3304 17.8961C38.2521 17.8318 38.2129 17.6982 38.2129 17.5052V15.2193C38.2129 15.0214 38.2521 14.8928 38.3304 14.8285C38.4088 14.7641 38.5361 14.7295 38.7173 14.7295H45.0198V12.4832C44.6476 12.4981 44.2803 12.503 43.9277 12.503H42.8945C41.6555 12.503 40.7691 12.1666 40.2354 11.4986C39.7016 10.8257 39.4323 9.75699 39.4323 8.28256V0.504661C39.4323 0.311698 39.4714 0.178108 39.5498 0.113787C39.6281 0.0494661 39.7555 0.0148315 39.9366 0.0148315H53.6092C53.7904 0.0148315 53.9177 0.0494661 53.996 0.113787C54.0744 0.178108 54.1136 0.311698 54.1136 0.504661V2.79053C54.1136 2.98844 54.0744 3.11708 53.996 3.1814C53.9177 3.24573 53.7904 3.28036 53.6092 3.28036H43.1491V4.68553H53.6288C53.81 4.68553 53.9373 4.72016 54.0156 4.78448C54.094 4.8488 54.1332 4.98239 54.1332 5.17536V7.26826C54.1332 7.46123 54.094 7.59482 54.0156 7.65914C53.9373 7.72346 53.81 7.75809 53.6288 7.75809H43.1491V8.10938C43.1491 8.57942 43.247 8.92577 43.438 9.14347C43.6339 9.36612 43.9865 9.47002 44.5007 9.45518C45.9061 9.43044 47.3997 9.37601 48.9864 9.29685C50.573 9.21769 52.1254 9.09399 53.6484 8.92577C53.8295 8.90103 53.952 8.92577 54.0156 9.00493C54.0793 9.0841 54.1234 9.21769 54.1527 9.4156L54.3486 11.4887H54.3437Z" fill="#E24444"/>
<path d="M56.7715 6.96151C56.7715 6.7735 56.8107 6.64486 56.8841 6.58053C56.9576 6.51621 57.0849 6.48653 57.2612 6.48653H73.0688C73.2451 6.48653 73.3675 6.51621 73.441 6.58053C73.5145 6.64486 73.5536 6.76855 73.5536 6.96151V8.62891C73.5536 8.81693 73.5145 8.94557 73.441 9.00989C73.3675 9.07421 73.2402 9.1039 73.0688 9.1039H57.2612C57.0849 9.1039 56.9625 9.07421 56.8841 9.00989C56.8107 8.94557 56.7715 8.82187 56.7715 8.62891V6.96151ZM72.5791 17.1984C72.6036 17.3518 72.5742 17.4458 72.4861 17.4805C72.3979 17.5151 72.2657 17.5497 72.0943 17.5745C71.2324 17.6635 70.395 17.7328 69.587 17.7823C68.779 17.8318 67.9465 17.8713 67.0944 17.906C66.2473 17.9357 65.3511 17.9604 64.406 17.9703C63.4608 17.9802 62.4227 17.9901 61.2866 17.9901C60.7136 17.9901 60.2141 17.9406 59.7881 17.8367C59.362 17.7328 59.0143 17.5695 58.7401 17.3469C58.4659 17.1193 58.2602 16.8224 58.1329 16.4563C58.0006 16.0901 57.937 15.635 57.937 15.0956V13.166C57.937 12.9879 57.9762 12.8692 58.0496 12.8048C58.1231 12.7405 58.2504 12.7108 58.4267 12.7108H69.1218V12.1616H58.4267C58.1035 12.1616 57.9419 11.9786 57.9419 11.6124V10.4596C57.9419 10.2716 57.9811 10.1429 58.0545 10.0836C58.128 10.0192 58.2553 9.98955 58.4316 9.98955H71.8788C72.0551 9.98955 72.1776 10.0192 72.2559 10.0836C72.3294 10.1479 72.3686 10.2716 72.3686 10.4596V14.4129C72.3686 14.6009 72.3294 14.7295 72.2559 14.7938C72.1825 14.8582 72.0551 14.8878 71.8788 14.8878H61.1837V15.1897C61.1837 15.3925 61.2572 15.5162 61.409 15.5607C61.5608 15.6053 61.791 15.6251 62.0995 15.6251C63.1474 15.6251 64.1121 15.6201 64.9936 15.6053C65.8751 15.5904 66.7076 15.5756 67.496 15.5459C68.2844 15.5162 69.0337 15.4915 69.7535 15.4519C70.4734 15.4123 71.1982 15.3628 71.9376 15.2985C72.1139 15.2837 72.2314 15.3084 72.2951 15.3628C72.3588 15.4222 72.4028 15.5162 72.4273 15.6547L72.5938 17.1886L72.5791 17.1984ZM71.8691 0.0148432C72.0453 0.0148432 72.1678 0.0445298 72.2461 0.108851C72.3196 0.173172 72.3588 0.296866 72.3588 0.489829V1.85047C72.3588 2.03848 72.3196 2.16712 72.2461 2.2265C72.1727 2.29082 72.0453 2.3205 71.8691 2.3205H61.551V2.7757C61.551 3.02804 61.6 3.18142 61.7028 3.24079C61.8007 3.29521 62.0358 3.31995 62.3933 3.30511C63.1425 3.29521 63.9163 3.27542 64.7145 3.25563C65.5127 3.23584 66.3158 3.2111 67.1189 3.18142C67.922 3.15173 68.7252 3.11215 69.5185 3.06762C70.3118 3.02309 71.0757 2.96866 71.8152 2.90434C71.9915 2.8796 72.109 2.90434 72.1727 2.97856C72.2363 3.05277 72.2804 3.18636 72.3049 3.37438L72.4714 4.73502C72.4959 4.92303 72.4665 5.04673 72.3783 5.1061C72.2902 5.16547 72.158 5.20011 71.9866 5.21C70.2383 5.34854 68.3481 5.46234 66.3207 5.5514C64.2933 5.64046 62.1778 5.68499 59.979 5.68499C59.6656 5.68499 59.3865 5.65035 59.1368 5.58108C58.887 5.51182 58.6764 5.39307 58.5001 5.2199C58.3238 5.04673 58.1916 4.81913 58.0986 4.52721C58.0055 4.23529 57.9566 3.86916 57.9566 3.4288V0.474986C57.9566 0.286971 57.9957 0.158329 58.0692 0.0940077C58.1427 0.0296867 58.27 0 58.4463 0H71.8739L71.8691 0.0148432Z" fill="#E24444"/>
<path d="M75.5522 17.995C75.3808 17.995 75.2584 17.9653 75.1849 17.901C75.1114 17.8367 75.0723 17.713 75.0723 17.5299V15.1847C75.0723 14.9967 75.1114 14.873 75.1849 14.8136C75.2584 14.7493 75.3808 14.7196 75.5522 14.7196H78.0203C78.1917 14.7196 78.3141 14.7493 78.3876 14.8136C78.461 14.8779 78.5002 15.0016 78.5002 15.1847V17.5299C78.5002 17.718 78.4659 17.8416 78.3876 17.901C78.3141 17.9604 78.1917 17.995 78.0203 17.995H75.5522Z" fill="#4A734E"/>
</svg>
