<svg width="38" height="36" viewBox="0 0 38 36" fill="none" xmlns="http://www.w3.org/2000/svg">
<path d="M18.9718 35.9141C29.4497 35.9141 37.9436 27.8744 37.9436 17.957C37.9436 8.03963 29.4497 0 18.9718 0C8.49397 0 0 8.03963 0 17.957C0 27.8744 8.49397 35.9141 18.9718 35.9141Z" fill="#E24444"/>
<path d="M17.7445 6.63561L15.5145 7.18685C15.3307 7.23279 15.2222 7.42071 15.2764 7.60028L15.8569 9.60478C15.9488 9.91799 15.5771 10.1602 15.3266 9.9514L13.4849 8.40626C13.3596 8.30186 13.1801 8.30186 13.059 8.40626L11.2173 9.9514C10.9668 10.1602 10.5951 9.91799 10.687 9.60478L11.2674 7.60028C11.3217 7.42071 11.2131 7.23279 11.0294 7.18685L8.79939 6.63561C8.46531 6.55209 8.46531 6.07602 8.79939 5.9925L11.0294 5.44126C11.2131 5.39532 11.3217 5.2074 11.2674 5.02783L10.687 3.02333C10.5951 2.71012 10.9668 2.46791 11.2173 2.67671L13.059 4.22185C13.1842 4.32625 13.3638 4.32625 13.4849 4.22185L15.3266 2.67671C15.5771 2.46791 15.9488 2.71012 15.8569 3.02333L15.2764 5.02783C15.2222 5.2074 15.3307 5.39532 15.5145 5.44126L17.7445 5.9925C18.0786 6.07602 18.0786 6.55209 17.7445 6.63561Z" fill="#4A734E"/>
<path d="M6.45879 16.6009C6.3837 18.1619 6.3307 19.216 6.63104 20.4364C6.95787 21.7865 7.23171 22.5812 8.03555 23.2948C8.87031 24.0368 10.2218 24.353 11.2244 23.8219C11.8339 23.4975 12.2314 22.9218 12.5671 22.3542C13.1192 21.4216 13.5829 20.3918 13.4902 19.3336C13.4107 18.4294 12.9337 17.5983 12.4699 16.7955C11.9399 15.8873 11.3437 14.9223 10.3146 14.5088C9.15298 14.0425 8.03555 14.5899 7.96488 14.6223C7.91188 14.6466 6.7017 15.2345 6.4897 16.3292C6.46761 16.4468 6.4632 16.5401 6.45879 16.6009Z" fill="#F5F1DE"/>
<path d="M14.4454 16.6009C14.375 18.1619 14.3253 19.216 14.6069 20.4364C14.9133 21.7865 15.17 22.5812 15.9236 23.2948C16.7062 24.0368 17.9732 24.353 18.9131 23.8219C19.4846 23.4975 19.8572 22.9218 20.1719 22.3542C20.6895 21.4216 21.1243 20.3918 21.0373 19.3336C20.9628 18.4294 20.5156 17.5983 20.0808 16.7955C19.5839 15.8873 19.0249 14.9223 18.0602 14.5088C16.9712 14.0425 15.9236 14.5899 15.8573 14.6223C15.8076 14.6466 14.6731 15.2345 14.4744 16.3292C14.4536 16.4468 14.4495 16.5401 14.4454 16.6009Z" fill="#F5F1DE"/>
<path d="M15.3814 17.4918C14.8902 17.8436 14.8551 18.522 14.8375 18.8319C14.8068 19.4433 14.9823 19.8998 15.1182 20.2683C15.3989 21.0095 15.8463 21.7382 16.5612 22.136C16.7629 22.2491 16.9954 22.337 17.2278 22.3035C17.4427 22.2742 17.6313 22.1444 17.7936 22.002C18.4383 21.4367 18.8243 20.6117 18.8287 19.7742C18.8287 18.9366 18.4559 18.1074 17.8112 17.5379C17.5392 17.2992 17.1708 16.9684 16.684 16.9851C16.241 16.9977 15.7103 17.295 15.5305 17.3955C15.4515 17.4416 15.4121 17.4625 15.377 17.4876L15.3814 17.4918Z" fill="#222222"/>
<path d="M7.39114 17.4918C6.89992 17.8436 6.86483 18.522 6.84729 18.8319C6.81659 19.4433 6.99202 19.8998 7.12798 20.2683C7.40868 21.0095 7.85604 21.7382 8.57094 22.136C8.77269 22.2491 9.00514 22.337 9.23759 22.3035C9.4525 22.2742 9.6411 22.1444 9.80338 22.002C10.4481 21.4367 10.8341 20.6117 10.8384 19.7742C10.8384 18.9366 10.4656 18.1074 9.82092 17.5379C9.54899 17.2992 9.18058 16.9684 8.69375 16.9851C8.25077 16.9977 7.72008 17.295 7.54026 17.3955C7.46131 17.4416 7.42184 17.4625 7.38676 17.4876L7.39114 17.4918Z" fill="#222222"/>
</svg>
