<svg width="25" height="24" viewBox="0 0 25 24" fill="none" xmlns="http://www.w3.org/2000/svg">
<path d="M12.5 24C19.4036 24 25 18.6274 25 12C25 5.37258 19.4036 0 12.5 0C5.59644 0 0 5.37258 0 12C0 18.6274 5.59644 24 12.5 24Z" fill="#F2AD48"/>
<path d="M15.2455 4.51383L13.8043 4.88749C13.6856 4.91863 13.6154 5.04602 13.6505 5.16774L14.0256 6.5265C14.085 6.73881 13.8448 6.90299 13.6829 6.76145L12.4927 5.71407C12.4117 5.6433 12.2957 5.6433 12.2174 5.71407L11.0273 6.76145C10.8653 6.90299 10.6251 6.73881 10.6845 6.5265L11.0596 5.16774C11.0947 5.04602 11.0246 4.91863 10.9058 4.88749L9.46466 4.51383C9.24876 4.45722 9.24876 4.13451 9.46466 4.07789L10.9058 3.70423C11.0246 3.67309 11.0947 3.54571 11.0596 3.42399L10.6845 2.06522C10.6251 1.85292 10.8653 1.68873 11.0273 1.83027L12.2174 2.87765C12.2984 2.94842 12.4144 2.94842 12.4927 2.87765L13.6829 1.83027C13.8448 1.68873 14.085 1.85292 14.0256 2.06522L13.6505 3.42399C13.6154 3.54571 13.6856 3.67309 13.8043 3.70423L15.2455 4.07789C15.4614 4.13451 15.4614 4.45722 15.2455 4.51383Z" fill="#4A734E"/>
<path d="M8.30749 9.38716C7.79748 9.80722 7.65335 10.3862 7.48427 11.1128C7.32073 11.8195 7.19046 12.3814 7.32074 13.1251C7.39835 13.5621 7.5009 14.1553 7.94993 14.635C8.7094 15.4495 10.2283 15.7106 11.0571 14.9699C11.5255 14.5527 11.7833 13.9311 11.8748 13.3039C11.9663 12.6766 11.8997 12.0352 11.8138 11.408C11.6614 10.3238 11.4285 9.49502 10.7245 9.10051C9.89573 8.63505 8.85631 9.07497 8.78424 9.10902C8.67614 9.15727 8.50151 9.2339 8.31026 9.39284L8.30749 9.38716Z" fill="#F5F1DE"/>
<path d="M9.49424 10.4413C9.06449 10.5923 8.85788 10.9857 8.83309 11.037C8.72014 11.2565 8.70637 11.4959 8.73116 11.9748C8.74494 12.2598 8.77799 12.542 8.82482 12.8242C8.85788 13.0294 8.90196 13.2346 9.00389 13.4142C9.16091 13.6993 9.45843 13.8931 9.77248 13.9216C10.0865 13.9501 10.4116 13.8076 10.6127 13.5539C10.8028 13.3145 10.8772 12.9981 10.9378 12.6959C11.0232 12.2627 11.0893 11.818 11.0122 11.3847C10.9598 11.0855 10.8579 10.7149 10.5383 10.5125C10.1747 10.2845 9.68984 10.3928 9.60995 10.4128C9.5824 10.4185 9.54659 10.427 9.497 10.4441L9.49424 10.4413Z" fill="#222222"/>
<path d="M16.4023 9.38716C16.9123 9.80722 17.0564 10.3862 17.2255 11.1128C17.389 11.8195 17.5193 12.3814 17.389 13.1251C17.3114 13.5621 17.2089 14.1553 16.7598 14.635C16.0004 15.4495 14.4814 15.7106 13.6527 14.9699C13.1842 14.5527 12.9264 13.9311 12.835 13.3039C12.7435 12.6766 12.81 12.0352 12.8959 11.408C13.0484 10.3238 13.2812 9.49502 13.9853 9.10051C14.814 8.63505 15.8534 9.07497 15.9255 9.10902C16.0336 9.15727 16.2082 9.2339 16.3995 9.39284L16.4023 9.38716Z" fill="#F5F1DE"/>
<path d="M15.3112 10.4413C15.6872 10.5923 15.868 10.9857 15.8897 11.037C15.9885 11.2565 16.0006 11.4959 15.9789 11.9748C15.9668 12.2598 15.9379 12.542 15.8969 12.8242C15.868 13.0294 15.8294 13.2346 15.7402 13.4142C15.6028 13.6993 15.3425 13.8931 15.0677 13.9216C14.7929 13.9501 14.5085 13.8076 14.3325 13.5539C14.1662 13.3145 14.1011 12.9981 14.0481 12.6959C13.9734 12.2627 13.9155 11.818 13.983 11.3847C14.0288 11.0855 14.118 10.7149 14.3976 10.5125C14.7158 10.2845 15.14 10.3928 15.2099 10.4128C15.234 10.4185 15.2654 10.427 15.3087 10.4441L15.3112 10.4413Z" fill="#222222"/>
</svg>
