<svg width="241" height="118" viewBox="0 0 241 118" fill="none" xmlns="http://www.w3.org/2000/svg">
<path d="M3.52734 68.082L28.1367 29.6094H45.7734V68H52.9922V78.9922H45.7734V89H32.4023V78.9922H3.52734V68.082ZM32.6484 68V44.457H32.1562L17.4727 67.5078V68H32.6484Z" fill="#222222"/>
<path d="M187.527 68.082L212.137 29.6094H229.773V68H236.992V78.9922H229.773V89H216.402V78.9922H187.527V68.082ZM216.648 68V44.457H216.156L201.473 67.5078V68H216.648Z" fill="#222222"/>
<path d="M120 102.997C145.405 102.997 166 83.5032 166 59.457C166 35.4108 145.405 15.9175 120 15.9175C94.5949 15.9175 74 35.4108 74 59.457C74 83.5032 94.5949 102.997 120 102.997Z" fill="#A7A7A7"/>
<path d="M122.977 32.0065L128.384 33.3431C128.829 33.4545 129.092 33.9101 128.961 34.3455L127.553 39.2057C127.331 39.9651 128.232 40.5524 128.839 40.0461L133.305 36.2997C133.608 36.0466 134.044 36.0466 134.337 36.2997L138.803 40.0461C139.41 40.5524 140.311 39.9651 140.089 39.2057L138.681 34.3455C138.55 33.9101 138.813 33.4545 139.258 33.3431L144.665 32.0065C145.475 31.804 145.475 30.6497 144.665 30.4472L139.258 29.1106C138.813 28.9993 138.55 28.5436 138.681 28.1082L140.089 23.248C140.311 22.4886 139.41 21.9013 138.803 22.4076L134.337 26.154C134.034 26.4071 133.598 26.4071 133.305 26.154L128.839 22.4076C128.232 21.9013 127.331 22.4886 127.553 23.248L128.961 28.1082C129.092 28.5436 128.829 28.9993 128.384 29.1106L122.977 30.4472C122.167 30.6497 122.167 31.804 122.977 32.0065Z" fill="#7A7A7A"/>
<path d="M158.289 56.041C158.46 59.9979 158.581 62.67 157.898 65.7635C157.155 69.1859 156.533 71.2003 154.705 73.0092C152.808 74.8899 149.736 75.6916 147.457 74.3452C146.071 73.523 145.168 72.0636 144.405 70.6248C143.15 68.261 142.095 65.6505 142.306 62.9681C142.487 60.6762 143.571 58.5693 144.625 56.5343C145.83 54.2322 147.186 51.7862 149.525 50.7378C152.165 49.5559 154.705 50.9434 154.866 51.0256C154.986 51.0873 157.737 52.5775 158.219 55.3524C158.269 55.6505 158.279 55.8869 158.289 56.041Z" fill="#F5F1DE"/>
<path d="M155.09 53.6456C156.149 54.4986 156.224 56.1435 156.262 56.8949C156.328 58.3773 155.95 59.4841 155.657 60.3776C155.052 62.1748 154.088 63.9416 152.547 64.9062C152.112 65.1804 151.611 65.3936 151.11 65.3124C150.647 65.2413 150.241 64.9265 149.891 64.5813C148.501 63.2105 147.67 61.2102 147.66 59.1795C147.66 57.1487 148.464 55.1382 149.853 53.7573C150.439 53.1786 151.233 52.3764 152.282 52.417C153.237 52.4475 154.381 53.1684 154.769 53.4121C154.939 53.5238 155.024 53.5745 155.099 53.6355L155.09 53.6456Z" fill="#222222"/>
<path d="M138.917 56.041C139.088 59.9979 139.209 62.67 138.526 65.7635C137.783 69.1859 137.16 71.2003 135.333 73.0092C133.436 74.8899 130.364 75.6916 128.085 74.3452C126.699 73.523 125.796 72.0636 125.032 70.6248C123.778 68.261 122.723 65.6505 122.934 62.9681C123.115 60.6762 124.199 58.5693 125.253 56.5343C126.458 54.2322 127.814 51.7862 130.153 50.7378C132.793 49.5559 135.333 50.9434 135.494 51.0256C135.614 51.0873 138.365 52.5775 138.847 55.3524C138.897 55.6505 138.907 55.8869 138.917 56.041Z" fill="#F5F1DE"/>
<path d="M136.648 53.6456C137.839 54.4986 137.924 56.1435 137.966 56.8949C138.041 58.3773 137.615 59.4841 137.286 60.3776C136.605 62.1748 135.52 63.9416 133.787 64.9062C133.298 65.1804 132.734 65.3936 132.171 65.3124C131.649 65.2413 131.192 64.9265 130.799 64.5813C129.236 63.2105 128.3 61.2102 128.289 59.1795C128.289 57.1487 129.193 55.1382 130.756 53.7573C131.416 53.1786 132.309 52.3764 133.489 52.417C134.563 52.4475 135.85 53.1684 136.286 53.4121C136.477 53.5238 136.573 53.5745 136.658 53.6355L136.648 53.6456Z" fill="#222222"/>
</svg>
