<svg width="30" height="30" viewBox="0 0 30 30" fill="none" xmlns="http://www.w3.org/2000/svg">
<g clip-path="url(#clip0_171_1926)">
<path d="M14.9997 2.71333C18.9459 2.71333 19.4132 2.73063 20.9651 2.79986C22.4074 2.86333 23.1862 3.10563 23.7055 3.30756C24.392 3.57294 24.8882 3.89602 25.4016 4.40948C25.9209 4.92871 26.2382 5.4191 26.5035 6.10563C26.7055 6.62487 26.9478 7.40948 27.0112 8.84602C27.0805 10.4037 27.0978 10.871 27.0978 14.8114C27.0978 18.7576 27.0805 19.2249 27.0112 20.7768C26.9478 22.2191 26.7055 22.9979 26.5035 23.5172C26.2382 24.2037 25.9151 24.6999 25.4016 25.2133C24.8824 25.7326 24.392 26.0499 23.7055 26.3153C23.1862 26.5172 22.4016 26.7595 20.9651 26.8229C19.4074 26.8922 18.9401 26.9095 14.9997 26.9095C11.0535 26.9095 10.5862 26.8922 9.03432 26.8229C7.59201 26.7595 6.81316 26.5172 6.29393 26.3153C5.60739 26.0499 5.11124 25.7268 4.59778 25.2133C4.07855 24.6941 3.76124 24.2037 3.49585 23.5172C3.29393 22.9979 3.05162 22.2133 2.98816 20.7768C2.91893 19.2191 2.90162 18.7518 2.90162 14.8114C2.90162 10.8652 2.91893 10.3979 2.98816 8.84602C3.05162 7.40371 3.29393 6.62487 3.49585 6.10563C3.76124 5.4191 4.08432 4.92294 4.59778 4.40948C5.11701 3.89025 5.60739 3.57294 6.29393 3.30756C6.81316 3.10563 7.59778 2.86333 9.03432 2.79986C10.5862 2.73063 11.0535 2.71333 14.9997 2.71333ZM14.9997 0.0537109C10.9901 0.0537109 10.4882 0.0710186 8.91316 0.140249C7.34393 0.20948 6.26508 0.463326 5.33047 0.826788C4.35547 1.20756 3.53047 1.70948 2.71124 2.53448C1.88624 3.35371 1.38432 4.17871 1.00355 5.14794C0.640084 6.08833 0.386238 7.1614 0.317007 8.73063C0.247776 10.3114 0.230469 10.8133 0.230469 14.8229C0.230469 18.8326 0.247776 19.3345 0.317007 20.9095C0.386238 22.4787 0.640084 23.5576 1.00355 24.4922C1.38432 25.4672 1.88624 26.2922 2.71124 27.1114C3.53047 27.9306 4.35547 28.4383 5.3247 28.8133C6.26508 29.1768 7.33816 29.4306 8.90739 29.4999C10.4824 29.5691 10.9843 29.5864 14.9939 29.5864C19.0035 29.5864 19.5055 29.5691 21.0805 29.4999C22.6497 29.4306 23.7285 29.1768 24.6632 28.8133C25.6324 28.4383 26.4574 27.9306 27.2766 27.1114C28.0959 26.2922 28.6035 25.4672 28.9785 24.4979C29.342 23.5576 29.5959 22.4845 29.6651 20.9153C29.7343 19.3403 29.7516 18.8383 29.7516 14.8287C29.7516 10.8191 29.7343 10.3172 29.6651 8.74217C29.5959 7.17294 29.342 6.0941 28.9785 5.15948C28.6151 4.17871 28.1132 3.35371 27.2882 2.53448C26.4689 1.71525 25.6439 1.20756 24.6747 0.832557C23.7343 0.469096 22.6612 0.215249 21.092 0.146019C19.5112 0.0710186 19.0093 0.0537109 14.9997 0.0537109Z" fill="#E24444"/>
<path d="M15.0006 7.23645C10.8121 7.23645 7.41406 10.6345 7.41406 14.823C7.41406 19.0115 10.8121 22.4095 15.0006 22.4095C19.1891 22.4095 22.5871 19.0115 22.5871 14.823C22.5871 10.6345 19.1891 7.23645 15.0006 7.23645ZM15.0006 19.7441C12.2833 19.7441 10.0794 17.5403 10.0794 14.823C10.0794 12.1057 12.2833 9.90183 15.0006 9.90183C17.7179 9.90183 19.9218 12.1057 19.9218 14.823C19.9218 17.5403 17.7179 19.7441 15.0006 19.7441Z" fill="#E24444"/>
<path d="M24.6575 6.93632C24.6575 7.91709 23.8614 8.70747 22.8864 8.70747C21.9056 8.70747 21.1152 7.91132 21.1152 6.93632C21.1152 5.95555 21.9114 5.16516 22.8864 5.16516C23.8614 5.16516 24.6575 5.96132 24.6575 6.93632Z" fill="#E24444"/>
</g>
<defs>
<clipPath id="clip0_171_1926">
<rect width="29.5385" height="29.5385" fill="white" transform="translate(0.230469 0.0537109)"/>
</clipPath>
</defs>
</svg>
