<svg width="167" height="29" viewBox="0 0 167 29" fill="none" xmlns="http://www.w3.org/2000/svg">
<path d="M25.8522 18.4321C25.8915 18.7381 25.8444 18.9422 25.6953 19.0207C25.554 19.107 25.3342 19.1619 25.0439 19.209C23.7175 19.3503 22.3754 19.468 21.002 19.5622C19.6285 19.6564 18.2472 19.7427 16.866 19.8212V23.5727H26.9667C27.2571 23.5727 27.4611 23.6276 27.5867 23.7296C27.7123 23.8317 27.7751 24.0357 27.7751 24.3497V27.9756C27.7751 28.2816 27.7123 28.4936 27.5867 28.5956C27.4611 28.6976 27.2571 28.7525 26.9667 28.7525H0.808373C0.517986 28.7525 0.313931 28.6976 0.188359 28.5956C0.0627862 28.4936 0 28.2816 0 27.9756V24.3497C0 24.0357 0.0627862 23.8317 0.188359 23.7296C0.313931 23.6276 0.517986 23.5727 0.808373 23.5727H10.9091V20.0096C10.3126 20.0331 9.72402 20.041 9.15894 20.041H7.50295C5.51734 20.041 4.0968 19.5073 3.24134 18.4478C2.38588 17.3804 1.95422 15.6852 1.95422 13.3464V1.01673C1.95422 0.710643 2.01701 0.498739 2.14258 0.396712C2.26815 0.294684 2.47221 0.239746 2.76259 0.239746H24.675C24.9654 0.239746 25.1694 0.294684 25.295 0.396712C25.4206 0.498739 25.4834 0.710643 25.4834 1.01673V4.64263C25.4834 4.95656 25.4206 5.16062 25.295 5.26265C25.1694 5.36467 24.9654 5.41961 24.675 5.41961H7.90322V7.64852H24.6985C24.9889 7.64852 25.193 7.70346 25.3185 7.80549C25.4441 7.90752 25.5069 8.11942 25.5069 8.4255V11.7453C25.5069 12.0514 25.4441 12.2633 25.3185 12.3653C25.193 12.4674 24.9889 12.5223 24.6985 12.5223H7.90322V13.0795C7.90322 13.8251 8.06018 14.3745 8.36627 14.7198C8.6802 15.073 9.24527 15.2378 10.0693 15.2143C12.3218 15.175 14.7155 15.0887 17.2584 14.9631C19.8012 14.8375 22.2891 14.6413 24.7299 14.3745C25.0203 14.3353 25.2165 14.3745 25.3185 14.5001C25.4206 14.6256 25.4912 14.8375 25.5383 15.1515L25.8522 18.4399V18.4321Z" fill="#E24444"/>
<path d="M46.5952 23.5727C46.5952 24.8598 46.3205 25.7937 45.7712 26.3667C45.2218 26.9396 44.3899 27.2221 43.2911 27.2221H33.2924C32.1858 27.2221 31.3617 26.9317 30.8123 26.3667C30.263 25.7937 29.9883 24.8676 29.9883 23.5727V1.00888C29.9883 0.702795 30.0511 0.498739 30.1688 0.396712C30.2944 0.294684 30.4984 0.239746 30.781 0.239746H45.8026C46.0851 0.239746 46.297 0.294684 46.4147 0.396712C46.5403 0.498739 46.5952 0.702795 46.5952 1.00888V23.5727ZM40.089 22.4111C40.4343 22.4111 40.6698 22.3483 40.7954 22.2149C40.9209 22.0815 40.9759 21.8225 40.9759 21.4301V4.90162H35.5763V21.4301C35.5763 21.8225 35.639 22.0815 35.7568 22.2149C35.8823 22.3483 36.1178 22.4111 36.4631 22.4111H40.0812H40.089ZM59.1917 14.9867C59.1917 15.2927 59.1289 15.4968 59.0112 15.5988C58.8856 15.7009 58.6816 15.7558 58.3991 15.7558H55.5815V27.9913C55.5815 28.2973 55.5187 28.5014 55.401 28.6034C55.2754 28.7055 55.0714 28.7604 54.7888 28.7604H50.4958C50.2054 28.7604 50.0014 28.7133 49.8837 28.6034C49.7581 28.5014 49.7032 28.2973 49.7032 27.9913V1.00888C49.7032 0.702795 49.7659 0.498739 49.8837 0.396712C50.0092 0.294684 50.2133 0.239746 50.4958 0.239746H54.7888C55.0714 0.239746 55.2833 0.294684 55.401 0.396712C55.5266 0.498739 55.5815 0.702795 55.5815 1.00888V10.6701H58.3991C58.6816 10.6701 58.8935 10.725 59.0112 10.8271C59.1368 10.9291 59.1917 11.1332 59.1917 11.4392V14.9945V14.9867Z" fill="#E24444"/>
<path d="M86.2839 18.4321C86.3231 18.7381 86.276 18.9422 86.1269 19.0207C85.9856 19.107 85.7659 19.1619 85.4755 19.209C84.1491 19.3503 82.8071 19.468 81.4336 19.5622C80.0602 19.6564 78.6789 19.7427 77.2976 19.8212V23.5727H87.3983C87.6887 23.5727 87.8928 23.6276 88.0183 23.7296C88.1439 23.8317 88.2067 24.0357 88.2067 24.3497V27.9756C88.2067 28.2816 88.1439 28.4936 88.0183 28.5956C87.8928 28.6976 87.6887 28.7525 87.3983 28.7525H61.24C60.9496 28.7525 60.7456 28.6976 60.62 28.5956C60.4944 28.4936 60.4316 28.2816 60.4316 27.9756V24.3497C60.4316 24.0357 60.4944 23.8317 60.62 23.7296C60.7456 23.6276 60.9496 23.5727 61.24 23.5727H71.3407V20.0096C70.7443 20.0331 70.1557 20.041 69.5906 20.041H67.9346C65.949 20.041 64.5284 19.5073 63.673 18.4478C62.8175 17.3804 62.3859 15.6852 62.3859 13.3464V1.01673C62.3859 0.710643 62.4487 0.498739 62.5742 0.396712C62.6998 0.294684 62.9038 0.239746 63.1942 0.239746H85.1066C85.397 0.239746 85.6011 0.294684 85.7266 0.396712C85.8522 0.498739 85.915 0.710643 85.915 1.01673V4.64263C85.915 4.95656 85.8522 5.16062 85.7266 5.26265C85.6011 5.36467 85.397 5.41961 85.1066 5.41961H68.3427V7.64852H85.138C85.4284 7.64852 85.6325 7.70346 85.758 7.80549C85.8836 7.90752 85.9464 8.11942 85.9464 8.4255V11.7453C85.9464 12.0514 85.8836 12.2633 85.758 12.3653C85.6325 12.4674 85.4284 12.5223 85.138 12.5223H68.3427V13.0795C68.3427 13.8251 68.4997 14.3745 68.8058 14.7198C69.1197 15.073 69.6848 15.2378 70.5088 15.2143C72.7613 15.175 75.155 15.0887 77.6979 14.9631C80.2407 14.8375 82.7286 14.6413 85.1694 14.3745C85.4598 14.3353 85.656 14.3745 85.758 14.5001C85.8601 14.6256 85.9307 14.8375 85.9778 15.1515L86.2917 18.4399L86.2839 18.4321Z" fill="#E24444"/>
<path d="M90.1855 11.2587C90.1855 10.9605 90.2483 10.7564 90.3661 10.6544C90.4838 10.5524 90.6878 10.5053 90.9704 10.5053H116.305C116.587 10.5053 116.783 10.5524 116.901 10.6544C117.019 10.7564 117.082 10.9526 117.082 11.2587V13.9036C117.082 14.2018 117.019 14.4059 116.901 14.5079C116.783 14.6099 116.579 14.657 116.305 14.657H90.9704C90.6878 14.657 90.4916 14.6099 90.3661 14.5079C90.2483 14.4059 90.1855 14.2097 90.1855 13.9036V11.2587ZM115.52 27.4968C115.559 27.7401 115.512 27.8892 115.371 27.9442C115.229 27.9991 115.017 28.0541 114.743 28.0933C113.362 28.2346 112.019 28.3444 110.724 28.4229C109.43 28.5014 108.095 28.5642 106.73 28.6191C105.372 28.6662 103.936 28.7055 102.421 28.7212C100.906 28.7368 99.2425 28.7525 97.4217 28.7525C96.5034 28.7525 95.7029 28.6741 95.0201 28.5092C94.3373 28.3444 93.7801 28.0854 93.3406 27.7323C92.901 27.3712 92.5714 26.9004 92.3674 26.3196C92.1555 25.7388 92.0534 25.0168 92.0534 24.1613V21.1005C92.0534 20.8179 92.1162 20.6296 92.2339 20.5275C92.3517 20.4255 92.5557 20.3784 92.8383 20.3784H109.979V19.5073H92.8383C92.3203 19.5073 92.0613 19.2169 92.0613 18.6361V16.8075C92.0613 16.5092 92.1241 16.3052 92.2418 16.211C92.3595 16.109 92.5636 16.0619 92.8461 16.0619H114.397C114.68 16.0619 114.876 16.109 115.002 16.211C115.12 16.313 115.182 16.5092 115.182 16.8075V23.0782C115.182 23.3765 115.12 23.5805 115.002 23.6826C114.884 23.7846 114.68 23.8317 114.397 23.8317H97.2568V24.3104C97.2568 24.6322 97.3746 24.8284 97.6179 24.899C97.8612 24.9697 98.23 25.0011 98.7245 25.0011C100.404 25.0011 101.95 24.9932 103.363 24.9697C104.775 24.9461 106.11 24.9226 107.373 24.8755C108.637 24.8284 109.838 24.7892 110.991 24.7264C112.145 24.6636 113.307 24.5851 114.492 24.4831C114.774 24.4595 114.963 24.4988 115.065 24.5851C115.167 24.6793 115.237 24.8284 115.276 25.0482L115.543 27.4811L115.52 27.4968ZM114.382 0.239746C114.664 0.239746 114.861 0.286836 114.986 0.388863C115.104 0.490891 115.167 0.687098 115.167 0.993181V3.15146C115.167 3.44969 115.104 3.65375 114.986 3.74793C114.868 3.84995 114.664 3.89704 114.382 3.89704H97.8455V4.61909C97.8455 5.01935 97.9239 5.26264 98.0888 5.35682C98.2457 5.44316 98.6224 5.4824 99.1954 5.45885C100.396 5.44316 101.636 5.41176 102.915 5.38037C104.195 5.34898 105.482 5.30973 106.769 5.26265C108.056 5.21556 109.343 5.15277 110.615 5.08213C111.886 5.0115 113.11 4.92517 114.295 4.82314C114.578 4.7839 114.766 4.82314 114.868 4.94087C114.97 5.05859 115.041 5.27049 115.08 5.56873L115.347 7.727C115.386 8.02524 115.339 8.22145 115.198 8.31563C115.057 8.40981 114.845 8.46474 114.57 8.48044C111.768 8.70019 108.739 8.8807 105.49 9.02197C102.241 9.16324 98.85 9.23387 95.3262 9.23387C94.8239 9.23387 94.3765 9.17894 93.9763 9.06906C93.576 8.95918 93.2385 8.77083 92.956 8.49614C92.6735 8.22145 92.4615 7.86043 92.3124 7.39738C92.1633 6.93433 92.0848 6.35356 92.0848 5.65506V0.993181C92.0848 0.694946 92.1476 0.490891 92.2653 0.388863C92.3831 0.286836 92.5871 0.239746 92.8697 0.239746H114.39L114.382 0.239746Z" fill="#E24444"/>
<path d="M120.275 28.7532C120 28.7532 119.804 28.7061 119.686 28.6041C119.569 28.502 119.506 28.3058 119.506 28.0154V24.2954C119.506 23.9971 119.569 23.8009 119.686 23.7067C119.804 23.6047 120 23.5576 120.275 23.5576H124.231C124.505 23.5576 124.701 23.6047 124.819 23.7067C124.937 23.8088 125 24.005 125 24.2954V28.0154C125 28.3137 124.945 28.5099 124.819 28.6041C124.701 28.6982 124.505 28.7532 124.231 28.7532H120.275Z" fill="#4A734E"/>
<path d="M151.791 28.5001C159.96 28.5001 166.582 22.2321 166.582 14.5002C166.582 6.76823 159.96 0.500244 151.791 0.500244C143.622 0.500244 137 6.76823 137 14.5002C137 22.2321 143.622 28.5001 151.791 28.5001Z" fill="#E24444"/>
<path d="M150.833 5.67447L149.095 6.10424C148.951 6.14005 148.867 6.28656 148.909 6.42656L149.362 7.98934C149.433 8.23353 149.144 8.42236 148.948 8.25957L147.512 7.05493C147.415 6.97353 147.275 6.97353 147.18 7.05493L145.745 8.25957C145.549 8.42236 145.259 8.23353 145.331 7.98934L145.784 6.42656C145.826 6.28656 145.741 6.14005 145.598 6.10424L143.859 5.67447C143.599 5.60935 143.599 5.23819 143.859 5.17308L145.598 4.74331C145.741 4.7075 145.826 4.56099 145.784 4.42099L145.331 2.85821C145.259 2.61402 145.549 2.42518 145.745 2.58797L147.18 3.79262C147.278 3.87401 147.418 3.87401 147.512 3.79262L148.948 2.58797C149.144 2.42518 149.433 2.61402 149.362 2.85821L148.909 4.42099C148.867 4.56099 148.951 4.7075 149.095 4.74331L150.833 5.17308C151.094 5.23819 151.094 5.60935 150.833 5.67447Z" fill="#4A734E"/>
<path d="M142.036 13.4423C141.977 14.6593 141.936 15.4812 142.17 16.4327C142.425 17.4853 142.638 18.1048 143.265 18.6612C143.916 19.2396 144.97 19.4862 145.751 19.0721C146.226 18.8192 146.536 18.3703 146.798 17.9278C147.228 17.2008 147.59 16.3979 147.518 15.5729C147.456 14.868 147.084 14.22 146.722 13.5941C146.309 12.886 145.844 12.1337 145.042 11.8113C144.136 11.4478 143.265 11.8745 143.21 11.8998C143.169 11.9188 142.225 12.3771 142.06 13.2306C142.043 13.3222 142.039 13.3949 142.036 13.4423Z" fill="#F5F1DE"/>
<path d="M148.261 13.4423C148.207 14.6593 148.168 15.4812 148.387 16.4327C148.626 17.4853 148.826 18.1048 149.414 18.6612C150.024 19.2396 151.012 19.4862 151.745 19.0721C152.19 18.8192 152.481 18.3703 152.726 17.9278C153.13 17.2008 153.469 16.3979 153.401 15.5729C153.343 14.868 152.994 14.22 152.655 13.5941C152.268 12.886 151.832 12.1337 151.08 11.8113C150.231 11.4478 149.414 11.8745 149.362 11.8998C149.324 11.9188 148.439 12.3771 148.284 13.2306C148.268 13.3222 148.265 13.3949 148.261 13.4423Z" fill="#F5F1DE"/>
<path d="M148.991 14.1377C148.608 14.412 148.581 14.9409 148.567 15.1825C148.543 15.6592 148.68 16.015 148.786 16.3024C149.005 16.8802 149.354 17.4483 149.911 17.7585C150.068 17.8467 150.25 17.9152 150.431 17.8891C150.598 17.8663 150.745 17.765 150.872 17.654C151.375 17.2133 151.675 16.5701 151.679 15.9171C151.679 15.2641 151.388 14.6177 150.886 14.1736C150.674 13.9875 150.386 13.7296 150.007 13.7427C149.661 13.7525 149.248 13.9843 149.107 14.0626C149.046 14.0985 149.015 14.1149 148.988 14.1345L148.991 14.1377Z" fill="#222222"/>
<path d="M142.763 14.1377C142.38 14.412 142.352 14.9409 142.339 15.1825C142.315 15.6592 142.452 16.015 142.558 16.3024C142.776 16.8802 143.125 17.4483 143.683 17.7585C143.84 17.8467 144.021 17.9152 144.202 17.8891C144.37 17.8663 144.517 17.765 144.643 17.654C145.146 17.2133 145.447 16.5701 145.45 15.9171C145.45 15.2641 145.16 14.6177 144.657 14.1736C144.445 13.9875 144.158 13.7296 143.778 13.7427C143.433 13.7525 143.019 13.9843 142.879 14.0626C142.817 14.0985 142.787 14.1149 142.759 14.1345L142.763 14.1377Z" fill="#222222"/>
</svg>
