<svg width="78" height="18" viewBox="0 0 78 18" fill="none" xmlns="http://www.w3.org/2000/svg">
<path d="M16.1308 11.3756C16.1553 11.5667 16.1259 11.694 16.0329 11.743C15.9448 11.7969 15.8076 11.8312 15.6264 11.8606C14.7988 11.9488 13.9615 12.0223 13.1045 12.0811C12.2475 12.1398 11.3856 12.1937 10.5237 12.2427V14.5845H16.8262C17.0074 14.5845 17.1347 14.6188 17.2131 14.6825C17.2914 14.7462 17.3306 14.8736 17.3306 15.0695V17.3329C17.3306 17.524 17.2914 17.6563 17.2131 17.7199C17.1347 17.7836 17.0074 17.8179 16.8262 17.8179H0.504395C0.323205 17.8179 0.195882 17.7836 0.117529 17.7199C0.0391764 17.6563 0 17.524 0 17.3329V15.0695C0 14.8736 0.0391764 14.7462 0.117529 14.6825C0.195882 14.6188 0.323205 14.5845 0.504395 14.5845H6.80688V12.3603C6.43471 12.375 6.06743 12.3799 5.71484 12.3799H4.68157C3.44262 12.3799 2.55625 12.0468 2.02248 11.3854C1.4887 10.7191 1.21936 9.66089 1.21936 8.20096V0.499539C1.21936 0.308474 1.25854 0.176197 1.33689 0.112509C1.41524 0.0488204 1.54257 0.0145264 1.72376 0.0145264H15.3963C15.5775 0.0145264 15.7048 0.0488204 15.7831 0.112509C15.8615 0.176197 15.9007 0.308474 15.9007 0.499539V2.76293C15.9007 2.9589 15.8615 3.08627 15.7831 3.14996C15.7048 3.21365 15.5775 3.24795 15.3963 3.24795H4.93132V4.6393H15.411C15.5922 4.6393 15.7195 4.67359 15.7978 4.73728C15.8762 4.80097 15.9154 4.93324 15.9154 5.12431V7.19664C15.9154 7.3877 15.8762 7.51998 15.7978 7.58367C15.7195 7.64736 15.5922 7.68165 15.411 7.68165H4.93132V8.02949C4.93132 8.4949 5.02926 8.83784 5.22024 9.0534C5.41612 9.27386 5.76871 9.37674 6.2829 9.36205C7.68835 9.33755 9.18194 9.28366 10.7686 9.20528C12.3552 9.12689 13.9076 9.00441 15.4306 8.83784C15.6118 8.81335 15.7342 8.83784 15.7978 8.91623C15.8615 8.99461 15.9056 9.12689 15.935 9.32285L16.1308 11.3756Z" fill="#E24444"/>
<path d="M29.0731 14.5797C29.0731 15.3832 28.9017 15.9662 28.5589 16.3238C28.2161 16.6815 27.697 16.8578 27.0114 16.8578H20.7726C20.0821 16.8578 19.5679 16.6766 19.2251 16.3238C18.8823 15.9662 18.7109 15.3881 18.7109 14.5797V0.494762C18.7109 0.303696 18.7501 0.176319 18.8236 0.112631C18.9019 0.0489424 19.0292 0.0146484 19.2055 0.0146484H28.5785C28.7548 0.0146484 28.887 0.0489424 28.9604 0.112631C29.0388 0.176319 29.0731 0.303696 29.0731 0.494762V14.5797ZM25.0183 13.8547C25.2338 13.8547 25.3807 13.8155 25.4591 13.7322C25.5374 13.6489 25.5717 13.4872 25.5717 13.2423V2.92473H22.2025V13.2423C22.2025 13.4872 22.2417 13.6489 22.3152 13.7322C22.3935 13.8155 22.5404 13.8547 22.7559 13.8547H25.0134H25.0183ZM36.9377 9.22499C36.9377 9.41606 36.8985 9.54343 36.8251 9.60712C36.7467 9.67081 36.6194 9.70511 36.4431 9.70511H34.6851V17.3428C34.6851 17.5339 34.6459 17.6613 34.5724 17.725C34.4941 17.7887 34.3668 17.8229 34.1905 17.8229H31.5118C31.3306 17.8229 31.2033 17.7936 31.1298 17.725C31.0515 17.6613 31.0172 17.5339 31.0172 17.3428V0.494762C31.0172 0.303696 31.0564 0.176319 31.1298 0.112631C31.2082 0.0489424 31.3355 0.0146484 31.5118 0.0146484H34.1905C34.3668 0.0146484 34.499 0.0489424 34.5724 0.112631C34.6508 0.176319 34.6851 0.303696 34.6851 0.494762V6.52558H36.4431C36.6194 6.52558 36.7516 6.55987 36.8251 6.62356C36.9034 6.68725 36.9377 6.81463 36.9377 7.00569V9.22499Z" fill="#E24444"/>
<path d="M53.8437 11.3757C53.8682 11.5668 53.8388 11.6942 53.7458 11.7431C53.6576 11.797 53.5205 11.8313 53.3393 11.8607C52.5117 11.9489 51.6743 12.0224 50.8174 12.0812C49.9604 12.14 49.0985 12.1939 48.2366 12.2429V14.5846H54.5391C54.7203 14.5846 54.8476 14.6189 54.926 14.6826C55.0043 14.7463 55.0435 14.8737 55.0435 15.0696V17.333C55.0435 17.5241 55.0043 17.6564 54.926 17.7201C54.8476 17.7838 54.7203 17.8181 54.5391 17.8181H38.2173C38.0361 17.8181 37.9088 17.7838 37.8304 17.7201C37.7521 17.6564 37.7129 17.5241 37.7129 17.333V15.0696C37.7129 14.8737 37.7521 14.7463 37.8304 14.6826C37.9088 14.6189 38.0361 14.5846 38.2173 14.5846H44.5198V12.3604C44.1476 12.3751 43.7803 12.38 43.4277 12.38H42.3945C41.1555 12.38 40.2691 12.0469 39.7354 11.3855C39.2016 10.7192 38.9323 9.66102 38.9323 8.20108V0.499661C38.9323 0.308596 38.9714 0.17632 39.0498 0.112631C39.1281 0.0489424 39.2555 0.0146484 39.4366 0.0146484H53.1092C53.2904 0.0146484 53.4177 0.0489424 53.496 0.112631C53.5744 0.17632 53.6136 0.308596 53.6136 0.499661V2.76305C53.6136 2.95902 53.5744 3.0864 53.496 3.15009C53.4177 3.21377 53.2904 3.24807 53.1092 3.24807H42.6491V4.63942H53.1288C53.31 4.63942 53.4373 4.67371 53.5156 4.7374C53.594 4.80109 53.6332 4.93337 53.6332 5.12443V7.19676C53.6332 7.38782 53.594 7.5201 53.5156 7.58379C53.4373 7.64748 53.31 7.68177 53.1288 7.68177H42.6491V8.02961C42.6491 8.49503 42.747 8.83796 42.938 9.05352C43.1339 9.27399 43.4865 9.37687 44.0007 9.36217C45.4061 9.33767 46.8997 9.28378 48.4864 9.2054C50.073 9.12701 51.6254 9.00453 53.1484 8.83796C53.3295 8.81347 53.452 8.83796 53.5156 8.91635C53.5793 8.99474 53.6234 9.12701 53.6527 9.32298L53.8486 11.3757H53.8437Z" fill="#E24444"/>
<path d="M56.2715 6.89306C56.2715 6.70689 56.3107 6.57952 56.3841 6.51583C56.4576 6.45214 56.5849 6.42274 56.7612 6.42274H72.5688C72.7451 6.42274 72.8675 6.45214 72.941 6.51583C73.0145 6.57952 73.0536 6.702 73.0536 6.89306V8.54406C73.0536 8.73023 73.0145 8.85761 72.941 8.9213C72.8675 8.98498 72.7402 9.01438 72.5688 9.01438H56.7612C56.5849 9.01438 56.4625 8.98498 56.3841 8.9213C56.3107 8.85761 56.2715 8.73513 56.2715 8.54406V6.89306ZM72.0791 17.0293C72.1036 17.1812 72.0742 17.2743 71.9861 17.3086C71.8979 17.3429 71.7657 17.3772 71.5943 17.4017C70.7324 17.4899 69.895 17.5584 69.087 17.6074C68.279 17.6564 67.4465 17.6956 66.5944 17.7299C65.7473 17.7593 64.8511 17.7838 63.906 17.7936C62.9608 17.8034 61.9227 17.8132 60.7866 17.8132C60.2136 17.8132 59.7141 17.7642 59.2881 17.6613C58.862 17.5584 58.5143 17.3968 58.2401 17.1763C57.9659 16.951 57.7602 16.657 57.6329 16.2945C57.5006 15.9319 57.437 15.4812 57.437 14.9472V13.0366C57.437 12.8602 57.4762 12.7426 57.5496 12.6789C57.6231 12.6152 57.7504 12.5858 57.9267 12.5858H68.6218V12.042H57.9267C57.6035 12.042 57.4419 11.8608 57.4419 11.4982V10.3567C57.4419 10.1706 57.4811 10.0432 57.5545 9.9844C57.628 9.92072 57.7553 9.89132 57.9316 9.89132H71.3788C71.5551 9.89132 71.6776 9.92072 71.7559 9.9844C71.8294 10.0481 71.8686 10.1706 71.8686 10.3567V14.2711C71.8686 14.4573 71.8294 14.5847 71.7559 14.6484C71.6825 14.7121 71.5551 14.7415 71.3788 14.7415H60.6837V15.0403C60.6837 15.2412 60.7572 15.3636 60.909 15.4077C61.0608 15.4518 61.291 15.4714 61.5995 15.4714C62.6474 15.4714 63.6121 15.4665 64.4936 15.4518C65.3751 15.4371 66.2076 15.4224 66.996 15.393C67.7844 15.3636 68.5337 15.3391 69.2535 15.2999C69.9734 15.2608 70.6982 15.2118 71.4376 15.1481C71.6139 15.1334 71.7314 15.1579 71.7951 15.2118C71.8588 15.2706 71.9028 15.3636 71.9273 15.5008L72.0938 17.0195L72.0791 17.0293ZM71.3691 0.0146972C71.5453 0.0146972 71.6678 0.044092 71.7461 0.107781C71.8196 0.171469 71.8588 0.293947 71.8588 0.485013V1.83227C71.8588 2.01844 71.8196 2.14581 71.7461 2.2046C71.6727 2.26829 71.5453 2.29769 71.3691 2.29769H61.051V2.74841C61.051 2.99826 61.1 3.15013 61.2028 3.20892C61.3007 3.26281 61.5358 3.28731 61.8933 3.27261C62.6425 3.26281 63.4163 3.24322 64.2145 3.22362C65.0127 3.20402 65.8158 3.17953 66.6189 3.15013C67.422 3.12074 68.2252 3.08155 69.0185 3.03745C69.8118 2.99336 70.5757 2.93947 71.3152 2.87578C71.4915 2.85129 71.609 2.87578 71.6727 2.94927C71.7363 3.02276 71.7804 3.15503 71.8049 3.3412L71.9714 4.68846C71.9959 4.87462 71.9665 4.9971 71.8783 5.05589C71.7902 5.11468 71.658 5.14897 71.4866 5.15877C69.7383 5.29595 67.8481 5.40863 65.8207 5.49681C63.7933 5.585 61.6778 5.62909 59.479 5.62909C59.1656 5.62909 58.8865 5.59479 58.6368 5.52621C58.387 5.45762 58.1764 5.34004 58.0001 5.16857C57.8238 4.9971 57.6916 4.77174 57.5986 4.48269C57.5055 4.19365 57.4566 3.83111 57.4566 3.39509V0.470315C57.4566 0.284149 57.4957 0.156772 57.5692 0.0930833C57.6427 0.0293947 57.77 0 57.9463 0H71.3739L71.3691 0.0146972Z" fill="#E24444"/>
<path d="M75.0522 17.818C74.8808 17.818 74.7584 17.7887 74.6849 17.725C74.6114 17.6613 74.5723 17.5388 74.5723 17.3575V15.0353C74.5723 14.8492 74.6114 14.7267 74.6849 14.6679C74.7584 14.6042 74.8808 14.5748 75.0522 14.5748H77.5203C77.6917 14.5748 77.8141 14.6042 77.8876 14.6679C77.961 14.7316 78.0002 14.8541 78.0002 15.0353V17.3575C78.0002 17.5437 77.9659 17.6662 77.8876 17.725C77.8141 17.7838 77.6917 17.818 77.5203 17.818H75.0522Z" fill="#4A734E"/>
</svg>
