<svg width="92" height="91" viewBox="0 0 92 91" fill="none" xmlns="http://www.w3.org/2000/svg">
<path d="M46 90.4891C71.4051 90.4891 92 70.2325 92 45.2446C92 20.2567 71.4051 0 46 0C20.5949 0 0 20.2567 0 45.2446C0 70.2325 20.5949 90.4891 46 90.4891Z" fill="#E24444"/>
<path d="M48.9864 16.7204L54.3935 18.1093C54.839 18.2251 55.1022 18.6985 54.9706 19.151L53.5632 24.2015C53.3404 24.9907 54.2416 25.601 54.8491 25.0749L59.3144 21.1817C59.6182 20.9187 60.0536 20.9187 60.3472 21.1817L64.8125 25.0749C65.4201 25.601 66.3213 24.9907 66.0985 24.2015L64.691 19.151C64.5594 18.6985 64.8227 18.2251 65.2682 18.1093L70.6752 16.7204C71.4853 16.51 71.4853 15.3105 70.6752 15.1L65.2682 13.7111C64.8227 13.5954 64.5594 13.1219 64.691 12.6694L66.0985 7.61888C66.3213 6.82973 65.4201 6.21946 64.8125 6.74556L60.3472 10.6387C60.0435 10.9017 59.6081 10.9017 59.3144 10.6387L54.8491 6.74556C54.2416 6.21946 53.3404 6.82973 53.5632 7.61888L54.9706 12.6694C55.1022 13.1219 54.839 13.5954 54.3935 13.7111L48.9864 15.1C48.1764 15.3105 48.1764 16.51 48.9864 16.7204Z" fill="#4A734E"/>
<path d="M84.4389 41.7907C84.6095 45.9025 84.73 48.6793 84.0473 51.894C83.3044 55.4504 82.6819 57.5437 80.8547 59.4233C78.9572 61.3778 75.8851 62.2108 73.6061 60.8117C72.2206 59.9573 71.317 58.4408 70.554 56.9456C69.299 54.4892 68.2449 51.7765 68.4557 48.989C68.6364 46.6074 69.7207 44.418 70.7749 42.3034C71.9796 39.9111 73.335 37.3692 75.6742 36.2799C78.3147 35.0517 80.8547 36.4935 81.0154 36.5789C81.1358 36.643 83.8867 38.1916 84.3686 41.0752C84.4188 41.3849 84.4288 41.6305 84.4389 41.7907Z" fill="#F5F1DE"/>
<path d="M81.2394 39.3022C82.2981 40.1885 82.3737 41.8979 82.4115 42.6787C82.4776 44.2192 82.0995 45.3693 81.8065 46.2978C81.2015 48.1654 80.2374 50.0014 78.6966 51.0038C78.2618 51.2886 77.7608 51.5102 77.2598 51.4258C76.7966 51.352 76.3902 51.0249 76.0404 50.6661C74.6509 49.2417 73.819 47.163 73.8096 45.0527C73.8096 42.9424 74.613 40.8533 76.0026 39.4183C76.5886 38.8168 77.3827 37.9833 78.4319 38.0255C79.3866 38.0571 80.5304 38.8063 80.918 39.0595C81.0881 39.1756 81.1732 39.2283 81.2488 39.2916L81.2394 39.3022Z" fill="#222222"/>
<path d="M65.0668 41.7907C65.2374 45.9025 65.358 48.6793 64.6753 51.894C63.9323 55.4504 63.3098 57.5437 61.4826 59.4233C59.5851 61.3778 56.513 62.2108 54.234 60.8117C52.8485 59.9573 51.945 58.4408 51.182 56.9456C49.927 54.4892 48.8728 51.7765 49.0836 48.989C49.2644 46.6074 50.3486 44.418 51.4028 42.3034C52.6076 39.9111 53.9629 37.3692 56.3022 36.2799C58.9426 35.0517 61.4826 36.4935 61.6433 36.5789C61.7637 36.643 64.5146 38.1916 64.9965 41.0752C65.0467 41.3849 65.0567 41.6305 65.0668 41.7907Z" fill="#F5F1DE"/>
<path d="M62.7965 39.3022C63.9875 40.1885 64.0726 41.8979 64.1151 42.6787C64.1896 44.2192 63.7642 45.3693 63.4345 46.2978C62.7539 48.1654 61.6693 50.0014 59.9359 51.0038C59.4467 51.2886 58.8831 51.5102 58.3195 51.4258C57.7984 51.352 57.3411 51.0249 56.9477 50.6661C55.3844 49.2417 54.4486 47.163 54.438 45.0527C54.438 42.9424 55.3419 40.8533 56.9051 39.4183C57.5645 38.8168 58.4578 37.9833 59.6382 38.0255C60.7122 38.0571 61.9989 38.8063 62.4349 39.0595C62.6263 39.1756 62.7221 39.2283 62.8071 39.2916L62.7965 39.3022Z" fill="#222222"/>
</svg>
