<svg width="29" height="28" viewBox="0 0 29 28" fill="none" xmlns="http://www.w3.org/2000/svg">
<path d="M14.5 27.657C22.5081 27.657 29 21.5425 29 14C29 6.45746 22.5081 0.343018 14.5 0.343018C6.49187 0.343018 0 6.45746 0 14C0 21.5425 6.49187 27.657 14.5 27.657Z" fill="#F2AD48"/>
<path d="M17.6846 5.48007L16.0128 5.90532C15.8751 5.94076 15.7937 6.08574 15.8344 6.22427L16.2695 7.77065C16.3384 8.01228 16.0598 8.19913 15.872 8.03805L14.4914 6.84604C14.3975 6.7655 14.2628 6.7655 14.1721 6.84604L12.7915 8.03805C12.6036 8.19913 12.325 8.01228 12.3939 7.77065L12.829 6.22427C12.8697 6.08574 12.7883 5.94076 12.6506 5.90532L10.9789 5.48007C10.7284 5.41564 10.7284 5.04837 10.9789 4.98394L12.6506 4.55868C12.7883 4.52324 12.8697 4.37827 12.829 4.23974L12.3939 2.69335C12.325 2.45173 12.6036 2.26488 12.7915 2.42596L14.1721 3.61796C14.266 3.6985 14.4006 3.6985 14.4914 3.61796L15.872 2.42596C16.0598 2.26488 16.3384 2.45173 16.2695 2.69335L15.8344 4.23974C15.7937 4.37827 15.8751 4.52324 16.0128 4.55868L17.6846 4.98394C17.935 5.04837 17.935 5.41564 17.6846 5.48007Z" fill="#4A734E"/>
<path d="M9.63599 11.0264C9.04438 11.5044 8.87718 12.1634 8.68105 12.9903C8.49135 13.7946 8.34023 14.4341 8.49135 15.2804C8.58138 15.7778 8.70034 16.4529 9.22121 16.9988C10.1022 17.9258 11.8642 18.223 12.8255 17.38C13.3689 16.9051 13.6679 16.1977 13.7741 15.4839C13.8802 14.77 13.803 14.04 13.7033 13.3262C13.5265 12.0923 13.2564 11.1491 12.4397 10.7001C11.4783 10.1704 10.2726 10.6711 10.189 10.7098C10.0636 10.7647 9.86105 10.852 9.6392 11.0328L9.63599 11.0264Z" fill="#F5F1DE"/>
<path d="M11.0145 12.2261C10.516 12.398 10.2763 12.8457 10.2476 12.9041C10.1165 13.1538 10.1006 13.4263 10.1293 13.9713C10.1453 14.2957 10.1836 14.6169 10.238 14.938C10.2763 15.1716 10.3274 15.4052 10.4457 15.6095C10.6278 15.9339 10.973 16.1545 11.3373 16.1869C11.7016 16.2194 12.0786 16.0572 12.3119 15.7685C12.5324 15.496 12.6187 15.1359 12.689 14.792C12.7881 14.299 12.8647 13.7929 12.7753 13.2998C12.7146 12.9592 12.5963 12.5375 12.2256 12.3072C11.8038 12.0476 11.2414 12.1709 11.1487 12.1936C11.1168 12.2001 11.0752 12.2098 11.0177 12.2293L11.0145 12.2261Z" fill="#222222"/>
<path d="M19.0269 11.0264C19.6186 11.5044 19.7857 12.1634 19.9819 12.9903C20.1716 13.7946 20.3227 14.4341 20.1716 15.2804C20.0815 15.7778 19.9626 16.4529 19.4417 16.9988C18.5607 17.9258 16.7988 18.223 15.8374 17.38C15.294 16.9051 14.995 16.1977 14.8889 15.4839C14.7828 14.77 14.8599 14.04 14.9596 13.3262C15.1365 12.0923 15.4065 11.1491 16.2232 10.7001C17.1846 10.1704 18.3903 10.6711 18.4739 10.7098C18.5993 10.7647 18.8019 10.852 19.0237 11.0328L19.0269 11.0264Z" fill="#F5F1DE"/>
<path d="M17.7609 12.2261C18.1971 12.398 18.4068 12.8457 18.4319 12.9041C18.5466 13.1538 18.5606 13.4263 18.5354 13.9713C18.5214 14.2957 18.4879 14.6169 18.4403 14.938C18.4068 15.1716 18.362 15.4052 18.2586 15.6095C18.0992 15.9339 17.7972 16.1545 17.4785 16.1869C17.1597 16.2194 16.8298 16.0572 16.6256 15.7685C16.4327 15.496 16.3572 15.1359 16.2957 14.792C16.209 14.299 16.1419 13.7929 16.2202 13.2998C16.2733 12.9592 16.3768 12.5375 16.7011 12.3072C17.0702 12.0476 17.5623 12.1709 17.6434 12.1936C17.6714 12.2001 17.7077 12.2098 17.7581 12.2293L17.7609 12.2261Z" fill="#222222"/>
</svg>
