<svg width="21" height="20" viewBox="0 0 21 20" fill="none" xmlns="http://www.w3.org/2000/svg">
<path d="M10.5 20C16.299 20 21 15.5228 21 10C21 4.47715 16.299 0 10.5 0C4.70101 0 0 4.47715 0 10C0 15.5228 4.70101 20 10.5 20Z" fill="#ABABAB"/>
<path d="M12.8239 3.76136L11.6134 4.07275C11.5136 4.0987 11.4547 4.20485 11.4841 4.30629L11.7992 5.43859C11.8491 5.61551 11.6474 5.75233 11.5113 5.63438L10.5116 4.76156C10.4436 4.70259 10.3461 4.70259 10.2804 4.76156L9.28063 5.63438C9.14461 5.75233 8.94285 5.61551 8.99273 5.43859L9.30783 4.30629C9.3373 4.20485 9.27836 4.0987 9.17861 4.07275L7.96805 3.76136C7.78669 3.71419 7.78669 3.44526 7.96805 3.39808L9.17861 3.0867C9.27836 3.06075 9.3373 2.9546 9.30783 2.85316L8.99273 1.72086C8.94285 1.54393 9.14461 1.40711 9.28063 1.52506L10.2804 2.39788C10.3484 2.45685 10.4459 2.45685 10.5116 2.39788L11.5113 1.52506C11.6474 1.40711 11.8491 1.54393 11.7992 1.72086L11.4841 2.85316C11.4547 2.9546 11.5136 3.06075 11.6134 3.0867L12.8239 3.39808C13.0053 3.44526 13.0053 3.71419 12.8239 3.76136Z" fill="#4A734E"/>
<path d="M6.979 7.82329C6.55059 8.17333 6.42952 8.65582 6.28749 9.2613C6.15012 9.85023 6.04069 10.3185 6.15012 10.9382C6.21531 11.3024 6.30146 11.7967 6.67864 12.1965C7.3166 12.8753 8.59251 13.0929 9.28867 12.4755C9.68215 12.1279 9.89869 11.6099 9.97552 11.0872C10.0524 10.5645 9.99648 10.03 9.9243 9.50728C9.79624 8.60379 9.60067 7.91317 9.00928 7.58441C8.31312 7.19652 7.44 7.56312 7.37947 7.5915C7.28866 7.63171 7.14197 7.69557 6.98132 7.82802L6.979 7.82329Z" fill="#F5F1DE"/>
<path d="M7.97985 8.7013C7.61886 8.8272 7.44531 9.15499 7.42448 9.19775C7.32961 9.38064 7.31804 9.58017 7.33886 9.97922C7.35043 10.2168 7.3782 10.4519 7.41754 10.6871C7.44531 10.8581 7.48233 11.0291 7.56795 11.1788C7.69985 11.4163 7.94977 11.5778 8.21357 11.6016C8.47738 11.6253 8.75043 11.5066 8.91936 11.2952C9.07903 11.0956 9.14151 10.832 9.19242 10.5802C9.26416 10.2191 9.31969 9.84858 9.2549 9.48753C9.21093 9.23813 9.12531 8.92934 8.85688 8.76069C8.55142 8.57066 8.14415 8.66092 8.07705 8.67755C8.05391 8.6823 8.02382 8.68943 7.98217 8.70368L7.97985 8.7013Z" fill="#222222"/>
<path d="M13.7795 7.82329C14.2079 8.17333 14.329 8.65582 14.471 9.2613C14.6084 9.85023 14.7178 10.3185 14.6084 10.9382C14.5432 11.3024 14.4571 11.7967 14.0799 12.1965C13.4419 12.8753 12.166 13.0929 11.4699 12.4755C11.0764 12.1279 10.8598 11.6099 10.783 11.0872C10.7062 10.5645 10.7621 10.03 10.8342 9.50728C10.9623 8.60379 11.1579 7.91317 11.7493 7.58441C12.4454 7.19652 13.3185 7.56312 13.3791 7.5915C13.4699 7.63171 13.6166 7.69557 13.7772 7.82802L13.7795 7.82329Z" fill="#F5F1DE"/>
<path d="M12.8771 8.70204C13.1929 8.82793 13.3448 9.15572 13.363 9.19848C13.446 9.38138 13.4562 9.5809 13.4379 9.97996C13.4278 10.2175 13.4035 10.4526 13.3691 10.6878C13.3448 10.8588 13.3124 11.0298 13.2375 11.1795C13.1221 11.417 12.9034 11.5785 12.6726 11.6023C12.4417 11.6261 12.2028 11.5073 12.055 11.2959C11.9153 11.0964 11.8606 10.8327 11.8161 10.5809C11.7533 10.2199 11.7047 9.84932 11.7614 9.48827C11.7999 9.23886 11.8748 8.93007 12.1097 8.76142C12.377 8.57139 12.7333 8.66166 12.792 8.67828C12.8123 8.68303 12.8386 8.69016 12.8751 8.70441L12.8771 8.70204Z" fill="#222222"/>
</svg>
