<svg width="21" height="13" viewBox="0 0 21 13" fill="none" xmlns="http://www.w3.org/2000/svg">
<path d="M19.6567 6.67433L14.8898 7.5857C14.497 7.66164 14.2649 7.97234 14.381 8.26922L15.6218 11.5833C15.8182 12.1011 15.0237 12.5015 14.4881 12.1563L10.5514 9.60174C10.2836 9.42914 9.89976 9.42914 9.64088 9.60174L5.70422 12.1563C5.16861 12.5015 4.37412 12.1011 4.5705 11.5833L5.81133 8.26922C5.92738 7.97234 5.69528 7.66164 5.3025 7.5857L0.535604 6.67433C-0.178535 6.53625 -0.178535 5.74916 0.535604 5.61108L5.3025 4.69971C5.69528 4.62377 5.92738 4.31308 5.81133 4.01619L4.5705 0.702143C4.37412 0.184323 5.16861 -0.216124 5.70422 0.129089L9.64088 2.68367C9.90868 2.85627 10.2926 2.85627 10.5514 2.68367L14.4881 0.129089C15.0237 -0.216124 15.8182 0.184323 15.6218 0.702143L14.381 4.01619C14.2649 4.31308 14.497 4.62377 14.8898 4.69971L19.6567 5.61108C20.3708 5.74916 20.3708 6.53625 19.6567 6.67433Z" fill="#4A734E"/>
</svg>
