<svg width="80" height="82" viewBox="0 0 80 82" fill="none" xmlns="http://www.w3.org/2000/svg">
<path d="M25.6238 46.2899L39.1782 56.8653L20.8141 80.3147L19.2686 68.3466L7.25977 69.7392L25.6238 46.2899Z" fill="#F2AD48"/>
<path d="M55.2467 42.8035L44.5332 56.2351L67.8665 74.777L66.5759 62.7789L78.5799 61.3454L55.2467 42.8035Z" fill="#F2AD48"/>
<path d="M36.115 4.66041C36.3709 4.34328 36.8335 4.28883 37.1565 4.53784L44.3612 10.0928C44.5689 10.2529 44.845 10.293 45.0895 10.1987L53.5796 6.92183C53.9602 6.77496 54.3885 6.95923 54.5437 7.33656L58.0002 15.7402C58.1001 15.983 58.3196 16.1559 58.579 16.1963L67.5721 17.5955C67.9758 17.6583 68.2551 18.0325 68.2005 18.4372L66.9847 27.4371C66.9495 27.6975 67.0532 27.9575 67.2581 28.1222L74.3446 33.8203C74.6632 34.0765 74.7181 34.5405 74.4681 34.8637L68.9063 42.0504C68.7455 42.2582 68.7053 42.535 68.8003 42.7801L72.0835 51.2505C72.2311 51.6314 72.0468 52.0603 71.6689 52.2151L63.2494 55.6635C63.0066 55.763 62.8335 55.9822 62.793 56.2415L61.393 65.2167C61.3302 65.6197 60.9566 65.8983 60.5523 65.8438L51.5305 64.628C51.2707 64.593 51.0115 64.6961 50.847 64.9L45.1368 71.975C44.8808 72.2921 44.4182 72.3465 44.0953 72.0975L36.8905 66.5426C36.6829 66.3825 36.4068 66.3423 36.1623 66.4367L27.6721 69.7135C27.2916 69.8604 26.8633 69.6761 26.7081 69.2988L23.2515 60.8952C23.1517 60.6524 22.9322 60.4794 22.6728 60.4391L13.6797 59.0399C13.276 58.9771 12.9966 58.6029 13.0513 58.1981L14.2671 49.1982C14.3023 48.9378 14.1985 48.6779 13.9936 48.5132L6.90718 42.8151C6.58854 42.5589 6.53363 42.0948 6.78371 41.7717L12.3454 34.585C12.5062 34.3772 12.5464 34.1004 12.4514 33.8553L9.16829 25.3849C9.02065 25.0039 9.20498 24.5751 9.58291 24.4203L18.0024 20.9718C18.2452 20.8724 18.4183 20.6532 18.4587 20.3939L19.8587 11.4187C19.9216 11.0157 20.2951 10.7371 20.6995 10.7916L29.7213 12.0074C29.9811 12.0424 30.2402 11.9393 30.4048 11.7354L36.115 4.66041Z" fill="#4A734E"/>
<path d="M36.665 10.3364C36.921 10.0193 37.3836 9.96485 37.7065 10.2139L43.5681 14.7332C43.7757 14.8933 44.0518 14.9334 44.2963 14.839L51.2036 12.1731C51.5841 12.0262 52.0124 12.2105 52.1676 12.5878L54.9796 19.4243C55.0795 19.6671 55.2989 19.8401 55.5583 19.8804L62.8744 21.0187C63.2781 21.0815 63.5575 21.4557 63.5028 21.8604L62.5138 29.1816C62.4786 29.442 62.5824 29.7019 62.7873 29.8667L68.552 34.502C68.8706 34.7582 68.9255 35.2222 68.6754 35.5453L64.1511 41.3916C63.9903 41.5994 63.9501 41.8762 64.0451 42.1213L66.7158 49.0118C66.8635 49.3927 66.6791 49.8215 66.3012 49.9763L59.4518 52.7817C59.2089 52.8812 59.0358 53.1004 58.9954 53.3596L57.8565 60.6611C57.7936 61.0641 57.4201 61.3427 57.0157 61.2882L49.6759 60.2991C49.4161 60.2641 49.1569 60.3672 48.9924 60.5711L44.3468 66.327C44.0908 66.6442 43.6283 66.6986 43.3053 66.4496L37.4438 61.9303C37.2362 61.7702 36.9601 61.7301 36.7156 61.8244L29.8083 64.4904C29.4277 64.6372 28.9994 64.4529 28.8442 64.0756L26.0322 57.2391C25.9324 56.9964 25.7129 56.8234 25.4535 56.783L18.1374 55.6448C17.7337 55.582 17.4544 55.2077 17.509 54.803L18.498 47.4818C18.5332 47.2214 18.4295 46.9615 18.2246 46.7968L12.4599 42.1615C12.1413 41.9053 12.0863 41.4412 12.3364 41.1181L16.8608 35.2719C17.0216 35.0641 17.0618 34.7872 16.9668 34.5422L14.296 27.6517C14.1484 27.2708 14.3327 26.842 14.7106 26.6872L21.5601 23.8817C21.8029 23.7823 21.976 23.5631 22.0164 23.3038L23.1554 16.0024C23.2182 15.5994 23.5918 15.3207 23.9961 15.3752L31.336 16.3644C31.5958 16.3994 31.8549 16.2962 32.0195 16.0924L36.665 10.3364Z" fill="#F5F1DE"/>
<path d="M42.0369 55.0145C51.9925 53.8428 59.1653 45.3059 58.0578 35.9468C56.9502 26.5878 47.9818 19.9506 38.0262 21.1223C28.0706 22.294 20.8978 30.8308 22.0054 40.1899C23.1129 49.549 32.0813 56.1862 42.0369 55.0145Z" fill="#E24444"/>
<path d="M42.7377 27.0313L40.7219 27.8035C40.5558 27.8677 40.4759 28.0595 40.5469 28.2254L41.3149 30.0805C41.436 30.3703 41.1171 30.6429 40.8599 30.4705L38.9685 29.1934C38.84 29.1072 38.6726 29.1269 38.5716 29.2401L37.0303 30.9212C36.8204 31.1486 36.4466 30.9575 36.4967 30.6476L36.8106 28.6651C36.8409 28.4873 36.7184 28.3193 36.542 28.2955L34.4013 28.0124C34.0804 27.9691 34.0265 27.5134 34.3284 27.3968L36.3442 26.6245C36.5103 26.5604 36.5902 26.3686 36.5192 26.2026L35.7512 24.3475C35.6301 24.0578 35.949 23.7851 36.2062 23.9575L38.0976 25.2346C38.2262 25.3208 38.3935 25.3011 38.4945 25.1879L40.0358 23.5068C40.2457 23.2794 40.6195 23.4705 40.5694 23.7804L40.2555 25.7629C40.2252 25.9408 40.3477 26.1087 40.5241 26.1326L42.6649 26.4156C42.9857 26.4589 43.0396 26.9147 42.7377 27.0313Z" fill="#4A734E"/>
<path d="M33.5488 35.0911C32.8835 35.7709 32.7724 36.613 32.65 37.6677C32.5323 38.6935 32.4383 39.5092 32.7504 40.5372C32.9354 41.1412 33.1824 41.9615 33.9101 42.5627C35.1415 43.5841 37.3756 43.695 38.4469 42.5082C39.0527 41.8396 39.3206 40.9181 39.3477 40.0168C39.3748 39.1155 39.1717 38.2209 38.9429 37.3497C38.5419 35.8446 38.0676 34.7137 36.9864 34.2761C35.7135 33.7595 34.2881 34.5571 34.1898 34.6174C34.042 34.7039 33.803 34.8418 33.5537 35.0987L33.5488 35.0911Z" fill="#F5F1DE"/>
<path d="M35.4362 36.3783C34.8417 36.6645 34.6095 37.2551 34.5823 37.3318C34.4561 37.6609 34.4762 38.0013 34.592 38.6734C34.6595 39.0735 34.7543 39.4664 34.869 39.857C34.951 40.1412 35.0489 40.4235 35.2259 40.6598C35.4999 41.0357 35.9614 41.2589 36.419 41.2459C36.8767 41.2328 37.3217 40.9764 37.5693 40.584C37.8034 40.2136 37.8578 39.7542 37.8947 39.3172C37.9454 38.6909 37.9665 38.0517 37.7828 37.453C37.6573 37.0392 37.4484 36.5333 36.9538 36.3017C36.3913 36.0414 35.7102 36.2766 35.5983 36.3184C35.5595 36.3311 35.5093 36.3493 35.4406 36.3818L35.4362 36.3783Z" fill="#222222"/>
<path d="M45.2211 33.7173C46.0268 34.2239 46.3314 35.0171 46.6967 36.0144C47.0506 36.9847 47.3324 37.7562 47.2688 38.8284C47.2299 39.4588 47.1811 40.3139 46.6138 41.0674C45.6547 42.3466 43.5078 42.9732 42.1889 42.0677C41.4436 41.5581 40.968 40.7241 40.7313 39.8538C40.4946 38.9836 40.4833 38.0665 40.5024 37.1661C40.5411 35.6092 40.7383 34.3993 41.6877 33.7227C42.8051 32.9247 44.3775 33.3696 44.4871 33.4054C44.6511 33.4552 44.9157 33.5338 45.2181 33.7258L45.2211 33.7173Z" fill="#F5F1DE"/>
<path d="M43.8248 35.391C44.3923 35.5406 44.7188 36.0654 44.7586 36.1341C44.9378 36.4273 44.9952 36.7634 45.044 37.4433C45.0742 37.8479 45.0797 38.2513 45.0677 38.6567C45.0603 38.9515 45.039 39.2478 44.9404 39.5165C44.7899 39.9424 44.4468 40.2603 44.0553 40.3472C43.6638 40.4341 43.2298 40.2811 42.9337 39.9527C42.6538 39.6428 42.5071 39.2071 42.3801 38.7894C42.1999 38.1902 42.0422 37.5721 42.0671 36.9488C42.0832 36.5184 42.1498 35.98 42.5193 35.6467C42.94 35.2707 43.5699 35.3517 43.674 35.368C43.7098 35.3719 43.7564 35.3787 43.8218 35.3955L43.8248 35.391Z" fill="#222222"/>
</svg>
