<svg width="1003" height="547" viewBox="0 0 1003 547" fill="none" xmlns="http://www.w3.org/2000/svg">
<g clip-path="url(#clip0_1_1810)">
<rect width="1003" height="547" rx="20" fill="#F5F1DE"/>
<path d="M61.9724 79.3094C61.9392 86.9503 65.2044 94.6575 72.0497 97.9724L68.4365 102.729C63.8785 100.475 60.779 96.2652 59.0055 91.1271C57.1492 96.6464 53.8508 101.155 49.011 103.558L45.3481 98.7017C52.558 95.3867 55.9724 87.232 55.989 79.3094V72.9282H61.9724V79.3094ZM73.9392 112.326V69.6298H79.9227V86.0884H86.221V91.1436H79.9227V112.326H73.9392ZM111.247 73.9061V77.337C111.231 81.3481 111.231 86.6022 110.087 93.6961L104.203 93.232C105.181 87.0331 105.281 82.4586 105.297 78.6796H89.137V73.9061H111.247ZM86.8994 98.8343C89.3027 98.8177 91.9547 98.8011 94.7392 98.7348V86.1381H100.623V98.5525C104.817 98.3702 109.076 98.0718 113.004 97.5746L113.352 102C104.601 103.492 94.9381 103.641 87.4629 103.608L86.8994 98.8343ZM115.01 112.326V69.6298H121.043V86.7845H126.861V91.7901H121.043V112.326H115.01ZM161.931 69.6298V85.9889H167.965V90.9282H161.931V112.227H155.948V69.6298H161.931ZM127.821 100.276C137.898 95.2044 143.318 88.4088 144.445 78.895H130.224V74.0055H150.545C150.512 86.768 145.523 97.8066 131.186 104.851L127.821 100.276ZM205.248 86.9834V91.7901H196.977V98.8011C200.491 98.6519 204.004 98.4199 207.336 98.0718L207.783 102.414C198.469 103.856 188.772 103.923 180.734 103.923L180.054 99.0497C183.452 99.0663 187.165 99.0497 190.993 98.9834V91.7901H182.855V73.442H205.049V78.1823H188.789V86.9834H205.248ZM209.756 112.425V69.6298H215.706V112.425H209.756ZM237.385 81.2652C237.385 88.1768 240.948 95.5525 248.092 98.5193L244.876 103.21C239.838 101.088 236.373 96.8453 234.451 91.674C232.528 97.2928 228.998 101.967 223.959 104.271L220.561 99.5801C227.622 96.4144 231.285 88.5083 231.302 81.2652V78.6464H222.235V73.7569H246.318V78.6464H237.385V81.2652ZM250.528 112.326V69.6298H256.578V112.326H250.528ZM306.308 69.6298V77.9006H312.043V82.8232H306.308V90.9613H300.308V69.6298H306.308ZM273.723 89.3702V71.6519H294.209V89.3702H273.723ZM277.999 97.2762V92.6685H306.308V104.304H283.966V107.138H307.535V111.845H278.065V99.9779H300.342V97.2762H277.999ZM279.64 84.663H288.308V76.3757H279.64V84.663ZM348.606 73.3425V77.3867C348.589 82.7238 348.589 88.7238 346.898 97.8066L340.865 97.1768C342.49 89.105 342.572 83.105 342.606 78.0994H317.479V73.3425H348.606ZM313.467 107.088V102.232H327.39V87.5635H333.324V102.232H352.385V107.088H313.467Z" fill="#222222"/>
<path d="M406.328 94.976C406.376 95.456 406.28 95.792 406.088 95.888C405.848 96.032 405.512 96.128 405.08 96.176C403.016 96.416 400.952 96.608 398.84 96.704C396.68 96.896 394.52 97.04 392.408 97.136V102.944H408.056C408.488 102.944 408.824 103.04 409.016 103.184C409.208 103.376 409.304 103.664 409.304 104.144V109.76C409.304 110.24 409.208 110.528 409.016 110.72C408.824 110.864 408.488 110.96 408.056 110.96H367.544C367.064 110.96 366.776 110.864 366.584 110.72C366.392 110.528 366.296 110.24 366.296 109.76V104.144C366.296 103.664 366.392 103.376 366.584 103.184C366.776 103.04 367.064 102.944 367.544 102.944H383.192V97.424C382.232 97.472 381.368 97.472 380.504 97.472H377.912C374.84 97.472 372.632 96.656 371.336 94.976C369.992 93.344 369.32 90.752 369.32 87.104V68C369.32 67.52 369.416 67.232 369.608 67.04C369.8 66.896 370.088 66.8 370.568 66.8H404.504C404.936 66.8 405.272 66.896 405.464 67.04C405.656 67.232 405.752 67.52 405.752 68V73.616C405.752 74.096 405.656 74.432 405.464 74.576C405.272 74.768 404.936 74.816 404.504 74.816H378.536V78.272H404.552C404.984 78.272 405.32 78.368 405.512 78.512C405.704 78.704 405.8 78.992 405.8 79.472V84.608C405.8 85.088 405.704 85.424 405.512 85.568C405.32 85.76 404.984 85.808 404.552 85.808H378.536V86.672C378.536 87.824 378.776 88.688 379.256 89.216C379.736 89.792 380.6 90.032 381.896 89.984C385.352 89.936 389.096 89.792 393.032 89.6C396.968 89.408 400.808 89.12 404.6 88.688C405.032 88.64 405.32 88.688 405.512 88.88C405.656 89.072 405.752 89.408 405.848 89.888L406.328 94.976ZM438.497 103.328C438.497 105.344 438.065 106.784 437.201 107.696C436.337 108.56 435.041 109.04 433.313 109.04H417.665C415.937 109.04 414.641 108.56 413.777 107.696C412.913 106.784 412.481 105.344 412.481 103.328V68C412.481 67.52 412.577 67.232 412.769 67.04C412.961 66.896 413.249 66.8 413.729 66.8H437.249C437.681 66.8 438.017 66.896 438.209 67.04C438.401 67.232 438.497 67.52 438.497 68V103.328ZM458.225 89.888C458.225 90.368 458.129 90.704 457.937 90.848C457.745 91.04 457.409 91.088 456.977 91.088H452.561V110.24C452.561 110.72 452.465 111.008 452.273 111.2C452.081 111.344 451.745 111.44 451.313 111.44H444.593C444.113 111.44 443.825 111.344 443.633 111.2C443.441 111.008 443.345 110.72 443.345 110.24V68C443.345 67.52 443.441 67.232 443.633 67.04C443.825 66.896 444.113 66.8 444.593 66.8H451.313C451.745 66.8 452.081 66.896 452.273 67.04C452.465 67.232 452.561 67.52 452.561 68V83.12H456.977C457.409 83.12 457.745 83.216 457.937 83.36C458.129 83.552 458.225 83.84 458.225 84.32V89.888ZM428.321 101.504C428.849 101.504 429.233 101.408 429.425 101.168C429.617 100.976 429.713 100.592 429.713 99.968V74.096H421.265V99.968C421.265 100.592 421.361 100.976 421.553 101.168C421.745 101.408 422.081 101.504 422.657 101.504H428.321ZM499.937 94.976C499.985 95.456 499.889 95.792 499.697 95.888C499.457 96.032 499.121 96.128 498.689 96.176C496.625 96.416 494.561 96.608 492.449 96.704C490.289 96.896 488.129 97.04 486.017 97.136V102.944H501.665C502.097 102.944 502.433 103.04 502.625 103.184C502.817 103.376 502.913 103.664 502.913 104.144V109.76C502.913 110.24 502.817 110.528 502.625 110.72C502.433 110.864 502.097 110.96 501.665 110.96H461.153C460.673 110.96 460.385 110.864 460.193 110.72C460.001 110.528 459.905 110.24 459.905 109.76V104.144C459.905 103.664 460.001 103.376 460.193 103.184C460.385 103.04 460.673 102.944 461.153 102.944H476.801V97.424C475.841 97.472 474.977 97.472 474.113 97.472H471.521C468.449 97.472 466.241 96.656 464.945 94.976C463.601 93.344 462.929 90.752 462.929 87.104V68C462.929 67.52 463.025 67.232 463.217 67.04C463.409 66.896 463.697 66.8 464.177 66.8H498.113C498.545 66.8 498.881 66.896 499.073 67.04C499.265 67.232 499.361 67.52 499.361 68V73.616C499.361 74.096 499.265 74.432 499.073 74.576C498.881 74.768 498.545 74.816 498.113 74.816H472.145V78.272H498.161C498.593 78.272 498.929 78.368 499.121 78.512C499.313 78.704 499.409 78.992 499.409 79.472V84.608C499.409 85.088 499.313 85.424 499.121 85.568C498.929 85.76 498.593 85.808 498.161 85.808H472.145V86.672C472.145 87.824 472.385 88.688 472.865 89.216C473.345 89.792 474.209 90.032 475.505 89.984C478.961 89.936 482.705 89.792 486.641 89.6C490.577 89.408 494.417 89.12 498.209 88.688C498.641 88.64 498.929 88.688 499.121 88.88C499.265 89.072 499.361 89.408 499.457 89.888L499.937 94.976Z" fill="#E24444"/>
<path d="M542.922 85.0156H548.969V89.9375H542.922V111.219H536.922V68.6562H542.922V85.0156ZM531.531 73.0156C531.5 79.8125 529.969 85.8203 526.938 91.0391C523.922 96.2422 519 100.516 512.172 103.859L508.797 99.2656C513.875 96.7188 517.773 93.7031 520.492 90.2188C523.227 86.7344 524.875 82.625 525.438 77.8906H511.234V73.0156H531.531ZM586.259 90.7812H577.962V97.7891C581.696 97.6328 585.149 97.3906 588.321 97.0625L588.79 101.422C584.649 102.062 580.462 102.477 576.228 102.664C572.009 102.836 567.181 102.922 561.743 102.922L561.04 98.0469H564.556C567.806 98.0469 570.274 98.0234 571.962 97.9766V90.7812H563.853V72.4531H586.024V77.1875H569.806V86H586.259V90.7812ZM596.712 111.406H590.759V68.6562H596.712V111.406ZM613.622 71.6562C615.529 71.6562 617.255 72.1641 618.802 73.1797C620.349 74.1797 621.615 75.6172 622.599 77.4922C623.599 79.3516 624.24 81.5469 624.521 84.0781H631.951V68.6562H637.857V111.406H631.951V88.8594H624.591C624.388 91.5625 623.794 93.9141 622.81 95.9141C621.826 97.8984 620.544 99.4219 618.966 100.484C617.388 101.547 615.607 102.078 613.622 102.078C611.466 102.078 609.544 101.461 607.857 100.227C606.185 98.9766 604.88 97.2031 603.943 94.9062C603.005 92.5938 602.544 89.9062 602.56 86.8438C602.544 83.7969 603.005 81.1328 603.943 78.8516C604.88 76.5547 606.185 74.7812 607.857 73.5312C609.544 72.2812 611.466 71.6562 613.622 71.6562ZM613.622 77.0469C612.56 77.0469 611.622 77.4297 610.81 78.1953C609.997 78.9453 609.365 80.0625 608.912 81.5469C608.474 83.0156 608.263 84.7812 608.279 86.8438C608.263 88.9219 608.474 90.6953 608.912 92.1641C609.365 93.6328 609.99 94.75 610.787 95.5156C611.599 96.2656 612.544 96.6406 613.622 96.6406C614.701 96.6406 615.638 96.2656 616.435 95.5156C617.247 94.7656 617.872 93.6562 618.31 92.1875C618.747 90.7188 618.966 88.9375 618.966 86.8438C618.966 84.7656 618.747 82.9922 618.31 81.5234C617.872 80.0547 617.247 78.9453 616.435 78.1953C615.638 77.4297 614.701 77.0469 613.622 77.0469ZM676.518 84.7812H682.799V89.7031H676.518V111.406H670.611V68.6562H676.518V84.7812ZM664.33 88.7656H650.596V96.5C653.893 96.4844 656.877 96.3828 659.549 96.1953C662.221 96.0078 664.908 95.6875 667.611 95.2344L668.127 100.016C665.033 100.578 661.955 100.961 658.893 101.164C655.83 101.367 652.283 101.469 648.252 101.469H644.643V84.0312H658.377V77.0469H644.596V72.2188H664.33V88.7656Z" fill="#222222"/>
<path d="M380.5 531C460.305 531 525 470.335 525 395.5C525 320.665 460.305 260 380.5 260C300.695 260 236 320.665 236 395.5C236 470.335 300.695 531 380.5 531Z" fill="#4A734E"/>
<path d="M77.0001 637C195.741 637 292 546.114 292 434C292 321.886 195.741 231 77.0001 231C-41.7411 231 -138 321.886 -138 434C-138 546.114 -41.7411 637 77.0001 637Z" fill="#629665"/>
<path d="M91.7851 305.092L116.573 311.249C118.615 311.762 119.822 313.861 119.219 315.867L112.767 338.256C111.745 341.755 115.877 344.46 118.662 342.128L139.133 324.869C140.525 323.703 142.521 323.703 143.867 324.869L164.338 342.128C167.123 344.46 171.255 341.755 170.233 338.256L163.781 315.867C163.178 313.861 164.385 311.762 166.427 311.249L191.215 305.092C194.928 304.159 194.928 298.841 191.215 297.908L166.427 291.751C164.385 291.238 163.178 289.139 163.781 287.133L170.233 264.744C171.255 261.245 167.123 258.54 164.338 260.872L143.867 278.131C142.475 279.297 140.479 279.297 139.133 278.131L118.662 260.872C115.877 258.54 111.745 261.245 112.767 264.744L119.219 287.133C119.822 289.139 118.615 291.238 116.573 291.751L91.7851 297.908C88.0716 298.841 88.0716 304.159 91.7851 305.092Z" fill="#4A734E"/>
<path d="M879.5 625C1026.13 625 1145 512.623 1145 374C1145 235.377 1026.13 123 879.5 123C732.868 123 614 235.377 614 374C614 512.623 732.868 625 879.5 625Z" fill="#F2AD48"/>
<path d="M862.499 251.414L831.337 258.98C828.769 259.611 827.252 262.191 828.011 264.655L836.122 292.17C837.406 296.47 832.212 299.794 828.711 296.928L802.976 275.719C801.225 274.286 798.716 274.286 797.024 275.719L771.289 296.928C767.788 299.794 762.594 296.47 763.878 292.17L771.989 264.655C772.748 262.191 771.231 259.611 768.663 258.98L737.501 251.414C732.833 250.267 732.833 243.733 737.501 242.586L768.663 235.02C771.231 234.389 772.748 231.809 771.989 229.345L763.878 201.83C762.594 197.53 767.788 194.206 771.289 197.072L797.024 218.281C798.775 219.714 801.284 219.714 802.976 218.281L828.711 197.072C832.212 194.206 837.406 197.53 836.122 201.83L828.011 229.345C827.252 231.809 828.769 234.389 831.337 235.02L862.499 242.586C867.167 243.733 867.167 250.267 862.499 251.414Z" fill="#4A734E"/>
<path d="M289.729 560.35C351.987 560.35 402.458 512.814 402.458 454.175C402.458 395.536 351.987 348 289.729 348C227.47 348 177 395.536 177 454.175C177 512.814 227.47 560.35 289.729 560.35Z" fill="#A87533"/>
<path d="M291.783 559.124C354.042 559.124 404.512 511.588 404.512 452.949C404.512 394.31 354.042 346.774 291.783 346.774C229.525 346.774 179.054 394.31 179.054 452.949C179.054 511.588 229.525 559.124 291.783 559.124Z" fill="#F2AD48"/>
<path d="M318.539 386.716L305.542 390.022C304.471 390.297 303.838 391.424 304.155 392.501L307.538 404.524C308.073 406.402 305.907 407.855 304.447 406.603L293.714 397.335C292.984 396.709 291.937 396.709 291.231 397.335L280.498 406.603C279.038 407.855 276.871 406.402 277.407 404.524L280.79 392.501C281.106 391.424 280.474 390.297 279.403 390.022L266.406 386.716C264.459 386.215 264.459 383.36 266.406 382.859L279.403 379.552C280.474 379.277 281.106 378.15 280.79 377.073L277.407 365.051C276.871 363.172 279.038 361.72 280.498 362.972L291.231 372.239C291.961 372.865 293.008 372.865 293.714 372.239L304.447 362.972C305.907 361.72 308.073 363.172 307.538 365.051L304.155 377.073C303.838 378.15 304.471 379.277 305.542 379.552L318.539 382.859C320.486 383.36 320.486 386.215 318.539 386.716Z" fill="#4A734E"/>
<path d="M519.603 493.343C600.792 478.084 654.958 403.724 640.586 327.255C626.215 250.786 548.747 201.165 467.558 216.424C386.368 231.683 332.202 306.044 346.574 382.513C360.946 458.982 438.414 508.602 519.603 493.343Z" fill="#E24444"/>
<path d="M509.63 262.444L493.492 269.94C492.163 270.562 491.614 272.187 492.29 273.514L499.649 288.363C500.807 290.681 498.338 293.106 496.127 291.831L479.859 282.377C478.753 281.739 477.389 281.996 476.622 282.985L464.896 297.701C463.299 299.692 460.118 298.328 460.356 295.748L461.821 279.241C461.969 277.759 460.868 276.444 459.404 276.347L441.645 275.221C438.983 275.045 438.283 271.322 440.7 270.191L456.838 262.694C458.167 262.072 458.716 260.448 458.039 259.121L450.681 244.272C449.522 241.954 451.991 239.528 454.202 240.804L470.471 250.258C471.576 250.895 472.941 250.639 473.708 249.649L485.434 234.934C487.031 232.943 490.212 234.306 489.974 236.887L488.509 253.394C488.36 254.876 489.462 256.191 490.926 256.288L508.685 257.414C511.347 257.59 512.046 261.313 509.63 262.444Z" fill="#4A734E"/>
<path d="M438.608 334.011C433.521 339.985 433.082 346.984 432.669 355.741C432.278 364.257 431.965 371.029 435.109 379.321C436.97 384.193 439.462 390.81 445.783 395.352C456.481 403.072 474.911 402.727 483.051 392.348C487.656 386.499 489.339 378.758 489.055 371.318C488.77 363.879 486.597 356.625 484.226 349.577C480.082 337.405 475.547 328.357 466.412 325.361C455.656 321.822 444.385 329.196 443.612 329.748C442.445 330.544 440.558 331.814 438.653 334.071L438.608 334.011Z" fill="#F5F1DE"/>
<path d="M454.855 332.18C450.129 334.873 448.552 339.869 448.371 340.515C447.519 343.297 447.876 346.09 449.206 351.561C449.987 354.819 450.987 358.002 452.15 361.155C452.984 363.45 453.947 365.72 455.535 367.567C458 370.509 461.919 372.087 465.675 371.722C469.43 371.357 472.944 368.994 474.759 365.622C476.475 362.44 476.664 358.624 476.721 355.004C476.786 349.817 476.599 344.54 474.752 339.711C473.488 336.374 471.486 332.323 467.289 330.695C462.518 328.867 457.05 331.189 456.154 331.596C455.842 331.722 455.44 331.9 454.894 332.207L454.855 332.18Z" fill="#222222"/>
<path d="M533.804 316.119C540.713 319.839 543.664 326.201 547.228 334.211C550.684 342.003 553.434 348.199 553.515 357.067C553.55 362.282 553.63 369.353 549.39 375.88C542.224 386.957 524.927 393.327 513.574 386.612C507.16 382.833 502.781 376.231 500.345 369.196C497.909 362.161 497.3 354.613 496.951 347.186C496.392 334.339 497.333 324.262 504.758 318.154C513.495 310.952 526.673 313.73 527.594 313.964C528.97 314.282 531.19 314.78 533.784 316.191L533.804 316.119Z" fill="#F5F1DE"/>
<path d="M522.79 319.323C527.54 320.235 530.519 324.374 530.885 324.918C532.523 327.232 533.184 329.968 533.968 335.541C534.444 338.856 534.716 342.176 534.846 345.523C534.951 347.955 534.942 350.408 534.283 352.677C533.285 356.27 530.644 359.081 527.474 360.018C524.304 360.954 520.65 359.938 518.03 357.4C515.555 355.005 514.103 351.498 512.824 348.129C511.006 343.295 509.361 338.293 509.216 333.144C509.105 329.59 509.351 325.117 512.2 322.164C515.448 318.83 520.672 319.142 521.537 319.218C521.833 319.23 522.22 319.259 522.767 319.361L522.79 319.323Z" fill="#222222"/>
<path d="M430.5 710C511.41 710 577 648.215 577 572C577 495.785 511.41 434 430.5 434C349.59 434 284 495.785 284 572C284 648.215 349.59 710 430.5 710Z" fill="#A87533"/>
<path d="M433.5 710C514.41 710 580 648.215 580 572C580 495.785 514.41 434 433.5 434C352.59 434 287 495.785 287 572C287 648.215 352.59 710 433.5 710Z" fill="#F2AD48"/>
<path d="M638 646C720.29 646 787 583.32 787 506C787 428.68 720.29 366 638 366C555.71 366 489 428.68 489 506C489 583.32 555.71 646 638 646Z" fill="#4A734E"/>
<path d="M635 646C717.29 646 784 583.32 784 506C784 428.68 717.29 366 635 366C552.71 366 486 428.68 486 506C486 583.32 552.71 646 635 646Z" fill="#629665"/>
<path d="M668.064 419.053L650.83 423.43C649.41 423.795 648.571 425.287 648.991 426.712L653.477 442.628C654.187 445.115 651.314 447.038 649.378 445.38L635.146 433.112C634.178 432.283 632.79 432.283 631.854 433.112L617.622 445.38C615.686 447.038 612.813 445.115 613.523 442.628L618.009 426.712C618.429 425.287 617.59 423.795 616.17 423.43L598.936 419.053C596.355 418.39 596.355 414.61 598.936 413.947L616.17 409.57C617.59 409.205 618.429 407.713 618.009 406.288L613.523 390.372C612.813 387.885 615.686 385.962 617.622 387.62L631.854 399.888C632.822 400.717 634.21 400.717 635.146 399.888L649.378 387.62C651.314 385.962 654.187 387.885 653.477 390.372L648.991 406.288C648.571 407.713 649.41 409.205 650.83 409.57L668.064 413.947C670.645 414.61 670.645 418.39 668.064 419.053Z" fill="#4A734E"/>
</g>
<defs>
<clipPath id="clip0_1_1810">
<rect width="1003" height="547" rx="20" fill="white"/>
</clipPath>
</defs>
</svg>
