<svg width="280" height="183" viewBox="0 0 280 183" fill="none" xmlns="http://www.w3.org/2000/svg">
<g opacity="0.8" filter="url(#filter0_f_1_1764)">
<ellipse cx="37.9161" cy="167.548" rx="28.9161" ry="4.5657" fill="#EE8F8F"/>
</g>
<path d="M37.9162 167.449C52.6254 167.449 64.5495 156.168 64.5495 142.252C64.5495 128.336 52.6254 117.055 37.9162 117.055C23.2071 117.055 11.283 128.336 11.283 142.252C11.283 156.168 23.2071 167.449 37.9162 167.449Z" fill="#E24444"/>
<path d="M39.6398 126.367L42.7704 127.14C43.0284 127.205 43.1808 127.469 43.1046 127.72L42.2897 130.533C42.1607 130.973 42.6825 131.312 43.0342 131.02L45.6196 128.851C45.7954 128.705 46.0475 128.705 46.2176 128.851L48.8029 131.02C49.1546 131.312 49.6764 130.973 49.5474 130.533L48.7326 127.72C48.6563 127.469 48.8088 127.205 49.0667 127.14L52.1973 126.367C52.6663 126.25 52.6663 125.582 52.1973 125.464L49.0667 124.691C48.8088 124.627 48.6563 124.363 48.7326 124.111L49.5474 121.298C49.6764 120.859 49.1546 120.519 48.8029 120.812L46.2176 122.98C46.0417 123.126 45.7896 123.126 45.6196 122.98L43.0342 120.812C42.6825 120.519 42.1607 120.859 42.2897 121.298L43.1046 124.111C43.1808 124.363 43.0284 124.627 42.7704 124.691L39.6398 125.464C39.1708 125.582 39.1708 126.25 39.6398 126.367Z" fill="#4A734E"/>
<path d="M60.0848 140.276C60.1836 142.566 60.2534 144.112 59.8581 145.902C59.4279 147.883 59.0676 149.049 58.0096 150.095C56.911 151.184 55.1323 151.648 53.8128 150.869C53.0106 150.393 52.4875 149.548 52.0457 148.716C51.3191 147.348 50.7088 145.837 50.8308 144.284C50.9355 142.958 51.5632 141.739 52.1736 140.561C52.8711 139.229 53.6558 137.813 55.0102 137.207C56.539 136.523 58.0096 137.326 58.1026 137.373C58.1724 137.409 59.7651 138.271 60.0441 139.877C60.0732 140.05 60.079 140.187 60.0848 140.276Z" fill="#F5F1DE"/>
<path d="M58.2326 138.891C58.8456 139.384 58.8894 140.336 58.9113 140.771C58.9496 141.629 58.7307 142.27 58.561 142.787C58.2107 143.827 57.6525 144.849 56.7604 145.407C56.5087 145.566 56.2186 145.69 55.9285 145.643C55.6604 145.601 55.425 145.419 55.2225 145.219C54.418 144.426 53.9364 143.269 53.9309 142.093C53.9309 140.918 54.3961 139.755 55.2006 138.955C55.5399 138.621 55.9997 138.156 56.6072 138.18C57.1599 138.197 57.8222 138.615 58.0465 138.756C58.1451 138.82 58.1943 138.85 58.2381 138.885L58.2326 138.891Z" fill="#222222"/>
<path d="M48.8697 140.276C48.9685 142.566 49.0383 144.112 48.643 145.902C48.2129 147.883 47.8525 149.049 46.7945 150.095C45.6959 151.184 43.9172 151.648 42.5977 150.869C41.7955 150.393 41.2724 149.548 40.8306 148.716C40.104 147.348 39.4937 145.837 39.6157 144.284C39.7204 142.958 40.3481 141.739 40.9585 140.561C41.656 139.229 42.4408 137.813 43.7951 137.207C45.3239 136.523 46.7946 137.326 46.8876 137.373C46.9573 137.409 48.55 138.271 48.829 139.877C48.8581 140.05 48.8639 140.187 48.8697 140.276Z" fill="#F5F1DE"/>
<path d="M47.5545 138.891C48.2441 139.384 48.2934 140.336 48.318 140.771C48.3611 141.629 48.1148 142.27 47.9239 142.787C47.5299 143.827 46.9019 144.849 45.8983 145.407C45.6151 145.566 45.2887 145.69 44.9624 145.643C44.6607 145.601 44.396 145.419 44.1682 145.219C43.2631 144.426 42.7212 143.269 42.7151 142.093C42.7151 140.918 43.2384 139.755 44.1435 138.955C44.5253 138.621 45.0425 138.156 45.7259 138.18C46.3477 138.197 47.0927 138.615 47.3452 138.756C47.456 138.82 47.5114 138.85 47.5607 138.885L47.5545 138.891Z" fill="#222222"/>
<g opacity="0.8" filter="url(#filter1_f_1_1764)">
<ellipse cx="242.612" cy="169.831" rx="28.9161" ry="4.5657" fill="#EE8F8F"/>
</g>
<path d="M242.612 169.755C257.321 169.755 269.245 158.474 269.245 144.558C269.245 130.642 257.321 119.361 242.612 119.361C227.902 119.361 215.978 130.642 215.978 144.558C215.978 158.474 227.902 169.755 242.612 169.755Z" fill="#F2AD48"/>
<path d="M240.889 128.673L237.758 129.446C237.5 129.511 237.348 129.775 237.424 130.026L238.239 132.839C238.368 133.279 237.846 133.619 237.495 133.326L234.909 131.157C234.733 131.011 234.481 131.011 234.311 131.157L231.726 133.326C231.374 133.619 230.852 133.279 230.981 132.839L231.796 130.026C231.872 129.775 231.72 129.511 231.462 129.446L228.331 128.673C227.862 128.556 227.862 127.888 228.331 127.771L231.462 126.997C231.72 126.933 231.872 126.669 231.796 126.417L230.981 123.604C230.852 123.165 231.374 122.825 231.726 123.118L234.311 125.286C234.487 125.432 234.739 125.432 234.909 125.286L237.495 123.118C237.846 122.825 238.368 123.165 238.239 123.604L237.424 126.417C237.348 126.669 237.5 126.933 237.758 126.997L240.889 127.771C241.358 127.888 241.358 128.556 240.889 128.673Z" fill="#4A734E"/>
<path d="M225.045 142.655C224.94 144.845 224.866 146.324 225.287 148.037C225.746 149.931 226.13 151.046 227.259 152.048C228.431 153.089 230.328 153.533 231.735 152.787C232.591 152.332 233.149 151.524 233.62 150.728C234.395 149.419 235.046 147.974 234.916 146.489C234.805 145.221 234.135 144.055 233.484 142.928C232.74 141.654 231.903 140.3 230.458 139.719C228.828 139.065 227.259 139.833 227.16 139.879C227.085 139.913 225.386 140.738 225.089 142.274C225.058 142.439 225.052 142.57 225.045 142.655Z" fill="#F5F1DE"/>
<path d="M236.256 142.655C236.157 144.845 236.087 146.324 236.483 148.037C236.913 149.931 237.273 151.046 238.331 152.048C239.43 153.089 241.209 153.533 242.528 152.787C243.33 152.332 243.853 151.524 244.295 150.728C245.022 149.419 245.632 147.974 245.51 146.489C245.405 145.221 244.778 144.055 244.167 142.928C243.47 141.654 242.685 140.3 241.331 139.719C239.802 139.065 238.331 139.833 238.238 139.879C238.168 139.913 236.576 140.738 236.297 142.274C236.268 142.439 236.262 142.57 236.256 142.655Z" fill="#F5F1DE"/>
<path d="M237.57 143.905C236.881 144.399 236.831 145.351 236.807 145.785C236.764 146.643 237.01 147.284 237.201 147.801C237.595 148.841 238.223 149.863 239.226 150.422C239.51 150.58 239.836 150.704 240.162 150.657C240.464 150.616 240.729 150.433 240.957 150.234C241.862 149.44 242.403 148.283 242.41 147.107C242.41 145.932 241.886 144.769 240.981 143.97C240.599 143.635 240.082 143.17 239.399 143.194C238.777 143.212 238.032 143.629 237.78 143.77C237.669 143.834 237.613 143.864 237.564 143.899L237.57 143.905Z" fill="#222222"/>
<path d="M226.354 143.905C225.665 144.399 225.616 145.351 225.591 145.785C225.548 146.643 225.794 147.284 225.985 147.801C226.379 148.841 227.007 149.863 228.011 150.422C228.294 150.58 228.62 150.704 228.946 150.657C229.248 150.616 229.513 150.433 229.741 150.234C230.646 149.44 231.188 148.283 231.194 147.107C231.194 145.932 230.67 144.769 229.765 143.97C229.384 143.635 228.866 143.17 228.183 143.194C227.561 143.212 226.816 143.629 226.564 143.77C226.453 143.834 226.397 143.864 226.348 143.899L226.354 143.905Z" fill="#222222"/>
<g opacity="0.8" filter="url(#filter2_f_1_1764)">
<ellipse cx="139.883" cy="168.309" rx="57.8322" ry="4.5657" fill="#EE8F8F"/>
</g>
<path d="M140.298 149.972C172.895 149.972 199.32 124.894 199.32 93.9589C199.32 63.0235 172.895 37.9454 140.298 37.9454C107.702 37.9454 81.2769 63.0235 81.2769 93.9589C81.2769 124.894 107.702 149.972 140.298 149.972Z" fill="#629665"/>
<path d="M154.221 58.6451L147.269 60.3636C146.711 60.4987 146.364 61.0973 146.518 61.6572L148.329 67.9132C148.617 68.8979 147.462 69.6509 146.672 68.9944L140.934 64.1673C140.549 63.8391 139.99 63.8391 139.605 64.1673L133.867 68.9944C133.077 69.6509 131.922 68.8979 132.211 67.9132L134.021 61.6572C134.175 61.0973 133.848 60.4987 133.27 60.3636L126.318 58.6451C125.278 58.3941 125.278 56.8881 126.318 56.6371L133.27 54.9186C133.828 54.7835 134.175 54.1849 134.021 53.625L132.211 47.3691C131.922 46.3844 133.077 45.6313 133.867 46.2878L139.605 51.1149C139.99 51.4431 140.549 51.4431 140.934 51.1149L146.672 46.2878C147.462 45.6313 148.617 46.3844 148.329 47.3691L146.518 53.625C146.364 54.1849 146.692 54.7835 147.269 54.9186L154.221 56.6371C155.261 56.8881 155.261 58.3941 154.221 58.6451Z" fill="#4A734E"/>
<path d="M121.099 82.125C118.711 84.0558 118.038 86.7011 117.248 90.0414C116.478 93.2852 115.881 95.8725 116.478 99.2708C116.844 101.279 117.325 104.001 119.424 106.202C122.986 109.929 130.092 111.126 133.982 107.747C136.177 105.836 137.39 102.978 137.814 100.101C138.238 97.2241 137.93 94.2892 137.525 91.393C136.813 86.4114 135.734 82.6077 132.422 80.7927C128.532 78.6495 123.66 80.6768 123.333 80.8313C122.832 81.0437 122.004 81.4106 121.119 82.125H121.099Z" fill="#F5F1DE"/>
<path d="M126.49 87.2016C124.468 87.8967 123.486 89.6923 123.371 89.924C122.851 90.9281 122.774 92.0286 122.889 94.2105C122.966 95.5042 123.101 96.7978 123.332 98.0915C123.486 99.0183 123.698 99.9644 124.18 100.795C124.931 102.088 126.317 102.996 127.819 103.112C129.302 103.247 130.842 102.59 131.786 101.432C132.691 100.331 133.038 98.9024 133.327 97.5122C133.731 95.5428 134.039 93.4961 133.673 91.5266C133.423 90.1557 132.941 88.4566 131.439 87.5491C129.726 86.5065 127.434 87.0085 127.049 87.0857C126.914 87.1243 126.741 87.163 126.51 87.2402L126.49 87.2016Z" fill="#222222"/>
<path d="M159.496 82.125C161.884 84.0558 162.558 86.7011 163.347 90.0414C164.118 93.2852 164.714 95.8725 164.118 99.2708C163.752 101.279 163.27 104.001 161.171 106.202C157.609 109.929 150.503 111.126 146.613 107.747C144.418 105.836 143.205 102.978 142.781 100.101C142.358 97.2241 142.666 94.2892 143.07 91.393C143.783 86.4114 144.861 82.6077 148.173 80.7927C152.063 78.6495 156.935 80.6768 157.262 80.8313C157.763 81.0437 158.591 81.4106 159.477 82.125H159.496Z" fill="#F5F1DE"/>
<path d="M154.105 87.2016C156.127 87.8967 157.109 89.6923 157.224 89.924C157.744 90.9281 157.821 92.0286 157.706 94.2105C157.629 95.5042 157.494 96.7978 157.263 98.0915C157.109 99.0183 156.897 99.9644 156.415 100.795C155.664 102.088 154.278 102.996 152.776 103.112C151.293 103.247 149.753 102.59 148.809 101.432C147.904 100.331 147.557 98.9024 147.269 97.5122C146.864 95.5428 146.556 93.4961 146.922 91.5266C147.172 90.1557 147.654 88.4566 149.156 87.5491C150.87 86.5065 153.161 87.0085 153.546 87.0857C153.681 87.1243 153.854 87.163 154.085 87.2402L154.105 87.2016Z" fill="#222222"/>
<path d="M79.7169 98.3235C78.7349 99.0765 64.2539 110.449 67.1231 119.679C67.8164 121.938 69.9153 125.22 72.438 125.297C75.0376 125.374 76.9055 122.053 78.8119 119.389C81.5848 115.547 86.2642 110.681 94.5253 106.414C94.5253 106.375 94.3134 105.719 93.6202 105.545C92.9847 105.371 92.5033 105.757 92.4456 105.796" fill="#4A734E"/>
<path d="M85.5313 90.234C83.3168 91.7401 61.8649 106.569 65.1963 117.922C65.9473 120.452 68.3929 124.429 71.3777 124.564C74.3047 124.699 76.3459 121.089 78.9262 117.845C82.0266 113.945 87.1873 108.982 96.1031 104.812" fill="#629665"/>
<path d="M118.095 133.93C116.439 139.935 114.764 145.94 113.108 151.964C112.684 151.964 107.465 151.925 104.846 155.98C104.442 156.598 103.152 158.587 103.595 160.846C104.654 166.387 114.725 167.99 118.095 168.53C121.889 169.148 124.199 169.515 126.241 168.164C129.071 166.31 129.495 162.506 129.938 158.085C130.901 148.546 131.575 141.325 132.037 136.228" fill="#629665"/>
<path d="M162.5 133.93C164.156 139.935 165.832 145.94 167.488 151.964C167.911 151.964 173.13 151.925 175.749 155.98C176.153 156.598 177.443 158.587 177.001 160.846C175.941 166.387 165.87 167.99 162.5 168.53C158.707 169.148 156.396 169.515 154.355 168.164C151.524 166.31 151.1 162.506 150.658 158.085C149.695 148.546 149.021 141.325 148.559 136.228" fill="#629665"/>
<path d="M76.6434 22.1539C76.209 21.9603 75.847 21.6216 75.6781 21.186L74.2543 17.9194C73.9889 17.4113 73.2166 17.4113 72.9753 17.9194L71.5515 21.186C71.3584 21.6216 71.0206 21.9361 70.5862 22.1539L68.7522 22.9524C68.2213 23.2186 68.2213 23.9445 68.7522 24.2107L70.5862 25.0092C71.0206 25.2027 71.3826 25.5415 71.5515 25.977L72.9753 29.2436C73.2408 29.7518 74.013 29.7518 74.2543 29.2436L75.6781 25.977C75.8712 25.5415 76.209 25.2269 76.6434 25.0092L78.4774 24.2107C79.0083 23.9445 79.0083 23.2186 78.4774 22.9524L76.6434 22.1539Z" fill="#00A6ED"/>
<path d="M59.8066 56.2801C58.5035 55.6994 57.4658 54.6105 56.9108 53.3039L52.6152 43.0927C51.8189 41.4715 49.5263 41.4715 48.73 43.0927L44.4344 53.3039C43.8794 54.6347 42.8417 55.6994 41.5386 56.2801L36.0847 58.7482C34.4679 59.5467 34.4679 61.8938 36.0847 62.6923L41.5386 65.1604C42.8417 65.7411 43.8794 66.83 44.4344 68.1366L48.73 78.3478C49.5263 79.969 51.8189 79.969 52.6152 78.3478L56.9108 68.1366C57.4658 66.8058 58.5035 65.7411 59.8066 65.1604L65.2605 62.6923C66.8773 61.8938 66.8773 59.5467 65.2605 58.7482L59.8066 56.2801Z" fill="#00A6ED"/>
<path d="M28.5279 34.1891C28.812 34.8825 29.3234 35.4314 29.9768 35.7492L32.7324 37.0493C33.5563 37.4826 33.5563 38.696 32.7324 39.1005L29.9768 40.4005C29.3234 40.7183 28.812 41.2962 28.5279 41.9606L26.3404 47.3342C25.9427 48.1721 24.778 48.1721 24.3802 47.3342L22.1928 41.9606C21.9087 41.2673 21.3973 40.7183 20.7439 40.4005L17.9883 39.1005C17.1644 38.6671 17.1644 37.4537 17.9883 37.0493L20.7439 35.7492C21.3973 35.4314 21.9087 34.8536 22.1928 34.1891L24.3802 28.8155C24.778 27.9777 25.9427 27.9777 26.3404 28.8155L28.5279 34.1891Z" fill="#00A6ED"/>
<path d="M252.492 58.0293C251.975 57.7986 251.543 57.3948 251.342 56.8756L249.645 52.9819C249.328 52.3762 248.408 52.3762 248.12 52.9819L246.423 56.8756C246.193 57.3948 245.79 57.7697 245.272 58.0293L243.086 58.9811C242.453 59.2984 242.453 60.1636 243.086 60.4809L245.272 61.4327C245.79 61.6634 246.222 62.0672 246.423 62.5864L248.12 66.4801C248.437 67.0858 249.357 67.0858 249.645 66.4801L251.342 62.5864C251.572 62.0672 251.975 61.6923 252.492 61.4327L254.679 60.4809C255.311 60.1636 255.311 59.2984 254.679 58.9811L252.492 58.0293Z" fill="#F2AD48"/>
<path d="M247.222 17.2144C245.669 16.5222 244.432 15.2243 243.77 13.6668L238.65 1.49523C237.701 -0.437213 234.968 -0.437213 234.019 1.49523L228.899 13.6668C228.237 15.2531 227 16.5222 225.447 17.2144L218.946 20.1563C217.019 21.1081 217.019 23.9058 218.946 24.8576L225.447 27.7996C227 28.4918 228.237 29.7897 228.899 31.3472L234.019 43.5187C234.968 45.4512 237.701 45.4512 238.65 43.5187L243.77 31.3472C244.432 29.7609 245.669 28.4918 247.222 27.7996L253.723 24.8576C255.65 23.9058 255.65 21.1081 253.723 20.1563L247.222 17.2144Z" fill="#F2AD48"/>
<path d="M216.555 46.5228C216.879 47.3228 217.464 47.9562 218.211 48.3229L221.36 49.8229C222.301 50.323 222.301 51.723 221.36 52.1897L218.211 53.6898C217.464 54.0565 216.879 54.7232 216.555 55.4899L214.055 61.6902C213.6 62.657 212.269 62.657 211.815 61.6902L209.315 55.4899C208.99 54.6899 208.405 54.0565 207.659 53.6898L204.509 52.1897C203.568 51.6897 203.568 50.2896 204.509 49.8229L207.659 48.3229C208.405 47.9562 208.99 47.2895 209.315 46.5228L211.815 40.3225C212.269 39.3557 213.6 39.3557 214.055 40.3225L216.555 46.5228Z" fill="#F2AD48"/>
<path d="M148.347 62.0442H132.19C122.851 62.0442 115.264 54.456 115.264 45.0721V34.4332H165.235V45.0721C165.254 54.4367 157.686 62.0442 148.347 62.0442Z" fill="#533566"/>
<path d="M143.071 18.4443L172.957 33.7944C174.806 34.7405 174.806 37.4051 172.957 38.3512L143.071 53.7013C141.318 54.6088 139.277 54.6088 137.525 53.7013L107.639 38.3512C105.79 37.4051 105.79 34.7405 107.639 33.7944L137.525 18.4443C139.258 17.5368 141.318 17.5368 143.071 18.4443Z" fill="#321B41"/>
<path d="M138.256 34.9709C138.719 33.9669 139.913 33.5807 140.895 34.0634L157.224 42.4626C157.879 42.8101 158.264 43.4666 158.264 44.2003V59.5311C159.747 60.2648 160.767 61.7709 160.767 63.528C160.767 63.9141 160.71 64.281 160.613 64.6478V64.7058C160.594 64.8023 160.556 64.9182 160.517 65.0147C160.517 65.034 160.498 65.0726 160.498 65.0919C160.479 65.1885 160.421 65.285 160.382 65.3816C160.382 65.4009 160.363 65.4395 160.363 65.4395C160.247 65.7098 160.074 65.9801 159.901 66.1925C159.882 66.2504 159.843 66.2697 159.805 66.3084L160.941 71.6761C161.576 74.6303 159.342 77.4107 156.319 77.4107C153.296 77.4107 151.062 74.6303 151.698 71.6761L152.834 66.3084C152.217 65.5553 151.852 64.6092 151.852 63.5473C151.852 62.9294 151.967 62.3501 152.198 61.8481C152.198 61.8288 152.217 61.7902 152.256 61.7709C152.275 61.6937 152.333 61.5971 152.372 61.5199C152.429 61.4233 152.468 61.3268 152.545 61.2303C152.564 61.211 152.564 61.1723 152.603 61.153C153.045 60.4772 153.681 59.9173 154.413 59.5504V45.3974L139.2 37.5775C138.256 37.0948 137.814 35.917 138.276 34.9709H138.256Z" fill="#FFB02E"/>
<path d="M200.878 98.3235C201.86 99.0765 216.341 110.449 213.472 119.679C212.779 121.938 210.68 125.22 208.157 125.297C205.558 125.374 203.69 122.053 201.783 119.389C199.011 115.547 194.331 110.681 186.07 106.414C186.07 106.375 186.282 105.719 186.975 105.545C187.611 105.371 188.092 105.757 188.15 105.796" fill="#4A734E"/>
<path d="M195.045 90.234C197.26 91.7401 218.711 106.569 215.38 117.922C214.629 120.452 212.183 124.429 209.199 124.564C206.272 124.699 204.23 121.089 201.65 117.845C198.55 113.945 193.389 108.982 184.473 104.812" fill="#629665"/>
<defs>
<filter id="filter0_f_1_1764" x="0.984703" y="154.967" width="73.8629" height="25.1619" filterUnits="userSpaceOnUse" color-interpolation-filters="sRGB">
<feFlood flood-opacity="0" result="BackgroundImageFix"/>
<feBlend mode="normal" in="SourceGraphic" in2="BackgroundImageFix" result="shape"/>
<feGaussianBlur stdDeviation="4.00765" result="effect1_foregroundBlur_1_1764"/>
</filter>
<filter id="filter1_f_1_1764" x="205.681" y="157.25" width="73.8629" height="25.1619" filterUnits="userSpaceOnUse" color-interpolation-filters="sRGB">
<feFlood flood-opacity="0" result="BackgroundImageFix"/>
<feBlend mode="normal" in="SourceGraphic" in2="BackgroundImageFix" result="shape"/>
<feGaussianBlur stdDeviation="4.00765" result="effect1_foregroundBlur_1_1764"/>
</filter>
<filter id="filter2_f_1_1764" x="74.0357" y="155.728" width="131.695" height="25.1619" filterUnits="userSpaceOnUse" color-interpolation-filters="sRGB">
<feFlood flood-opacity="0" result="BackgroundImageFix"/>
<feBlend mode="normal" in="SourceGraphic" in2="BackgroundImageFix" result="shape"/>
<feGaussianBlur stdDeviation="4.00765" result="effect1_foregroundBlur_1_1764"/>
</filter>
</defs>
</svg>
