<svg width="42" height="16" viewBox="0 0 42 16" fill="none" xmlns="http://www.w3.org/2000/svg">
<path d="M8.01437 15.1966C12.4406 15.1966 16.0287 11.8003 16.0287 7.61086C16.0287 3.42138 12.4406 0.0251465 8.01437 0.0251465C3.58816 0.0251465 0 3.42138 0 7.61086C0 11.8003 3.58816 15.1966 8.01437 15.1966Z" fill="#E24444"/>
<path d="M7.49591 2.82622L6.55387 3.05908C6.47625 3.07849 6.43038 3.15787 6.45332 3.23373L6.69852 4.08051C6.73734 4.21282 6.58033 4.31513 6.47448 4.22693L5.69651 3.5742C5.64359 3.5301 5.56773 3.5301 5.51657 3.5742L4.7386 4.22693C4.63275 4.31513 4.47575 4.21282 4.51456 4.08051L4.75977 3.23373C4.7827 3.15787 4.73683 3.07849 4.65921 3.05908L3.71717 2.82622C3.57605 2.79094 3.57605 2.58983 3.71717 2.55454L4.65921 2.32168C4.73683 2.30227 4.7827 2.22289 4.75977 2.14703L4.51456 1.30026C4.47575 1.16795 4.63275 1.06563 4.7386 1.15383L5.51657 1.80656C5.5695 1.85066 5.64535 1.85066 5.69651 1.80656L6.47448 1.15383C6.58033 1.06563 6.73734 1.16795 6.69852 1.30026L6.45332 2.14703C6.43038 2.22289 6.47625 2.30227 6.55387 2.32168L7.49591 2.55454C7.63704 2.58983 7.63704 2.79094 7.49591 2.82622Z" fill="#4A734E"/>
<path d="M33.28 15.1966C37.7062 15.1966 41.2944 11.8003 41.2944 7.61086C41.2944 3.42138 37.7062 0.0251465 33.28 0.0251465C28.8538 0.0251465 25.2656 3.42138 25.2656 7.61086C25.2656 11.8003 28.8538 15.1966 33.28 15.1966Z" fill="#E24444"/>
<path d="M33.8002 2.82622L34.7422 3.05908C34.8198 3.07849 34.8657 3.15787 34.8428 3.23373L34.5976 4.08051C34.5588 4.21282 34.7158 4.31513 34.8216 4.22693L35.5996 3.5742C35.6525 3.5301 35.7284 3.5301 35.7795 3.5742L36.5575 4.22693C36.6633 4.31513 36.8203 4.21282 36.7815 4.08051L36.5363 3.23373C36.5134 3.15787 36.5593 3.07849 36.6369 3.05908L37.5789 2.82622C37.72 2.79094 37.72 2.58983 37.5789 2.55454L36.6369 2.32168C36.5593 2.30227 36.5134 2.22289 36.5363 2.14703L36.7815 1.30026C36.8203 1.16795 36.6633 1.06563 36.5575 1.15383L35.7795 1.80656C35.7266 1.85066 35.6507 1.85066 35.5996 1.80656L34.8216 1.15383C34.7158 1.06563 34.5588 1.16795 34.5976 1.30026L34.8428 2.14703C34.8657 2.22289 34.8198 2.30227 34.7422 2.32168L33.8002 2.55454C33.6591 2.58983 33.6591 2.79094 33.8002 2.82622Z" fill="#4A734E"/>
<path d="M20.6816 15.1873C25.1344 15.1873 28.7441 11.7875 28.7441 7.59353C28.7441 3.3996 25.1344 -0.000244141 20.6816 -0.000244141C16.2288 -0.000244141 12.6191 3.3996 12.6191 7.59353C12.6191 11.7875 16.2288 15.1873 20.6816 15.1873Z" fill="#E24444"/>
<path d="M22.4522 2.85644L21.5227 3.0929C21.4461 3.11261 21.4008 3.19322 21.4234 3.27025L21.6654 4.13009C21.7037 4.26444 21.5488 4.36834 21.4443 4.27877L20.6767 3.61598C20.6244 3.57119 20.5496 3.57119 20.4991 3.61598L19.7315 4.27877C19.627 4.36834 19.4721 4.26444 19.5104 4.13009L19.7523 3.27025C19.775 3.19322 19.7297 3.11261 19.6531 3.0929L18.7236 2.85644C18.5843 2.82062 18.5843 2.6164 18.7236 2.58058L19.6531 2.34412C19.7297 2.32441 19.775 2.2438 19.7523 2.16678L19.5104 1.30693C19.4721 1.17258 19.627 1.06868 19.7315 1.15825L20.4991 1.82105C20.5513 1.86583 20.6262 1.86583 20.6767 1.82105L21.4443 1.15825C21.5488 1.06868 21.7037 1.17258 21.6654 1.30693L21.4234 2.16678C21.4008 2.2438 21.4461 2.32441 21.5227 2.34412L22.4522 2.58058C22.5915 2.6164 22.5915 2.82062 22.4522 2.85644Z" fill="#4A734E"/>
<path d="M17.9774 5.94052C17.6484 6.20633 17.5555 6.57273 17.4464 7.03251C17.3409 7.47973 17.2569 7.83535 17.3409 8.30591C17.391 8.5825 17.4571 8.95787 17.7468 9.2614C18.2366 9.77687 19.2163 9.94211 19.7509 9.47334C20.053 9.20932 20.2193 8.81599 20.2783 8.41906C20.3373 8.02213 20.2944 7.61623 20.239 7.2193C20.1406 6.53321 19.9905 6.00877 19.5364 5.75912C19.0018 5.46457 18.3314 5.74295 18.2849 5.76451C18.2152 5.79504 18.1025 5.84353 17.9792 5.94411L17.9774 5.94052Z" fill="#F5F1DE"/>
<path d="M18.7431 6.60759C18.4659 6.70319 18.3326 6.95211 18.3166 6.98458C18.2438 7.12347 18.2349 7.27498 18.2509 7.57802C18.2598 7.75839 18.2811 7.93696 18.3113 8.11554C18.3326 8.24541 18.361 8.37528 18.4268 8.48892C18.5281 8.66929 18.72 8.79195 18.9225 8.80999C19.1251 8.82802 19.3348 8.73784 19.4645 8.5773C19.5871 8.42578 19.6351 8.22557 19.6742 8.03437C19.7292 7.7602 19.7719 7.47881 19.7221 7.20464C19.6884 7.01524 19.6226 6.78075 19.4165 6.65269C19.182 6.50839 18.8692 6.57693 18.8177 6.58956C18.7999 6.59316 18.7768 6.59857 18.7449 6.6094L18.7431 6.60759Z" fill="#222222"/>
<path d="M23.1984 5.94052C23.5274 6.20633 23.6203 6.57273 23.7294 7.03251C23.8349 7.47973 23.9189 7.83535 23.8349 8.30591C23.7848 8.5825 23.7186 8.95787 23.429 9.2614C22.9392 9.77687 21.9594 9.94211 21.4249 9.47334C21.1228 9.20932 20.9565 8.81599 20.8975 8.41906C20.8385 8.02213 20.8814 7.61623 20.9368 7.2193C21.0352 6.53321 21.1853 6.00877 21.6394 5.75912C22.174 5.46457 22.8444 5.74295 22.8909 5.76451C22.9606 5.79504 23.0733 5.84353 23.1966 5.94411L23.1984 5.94052Z" fill="#F5F1DE"/>
<path d="M22.4951 6.60759C22.7376 6.70319 22.8542 6.95211 22.8682 6.98458C22.932 7.12347 22.9397 7.27498 22.9257 7.57802C22.918 7.75839 22.8993 7.93696 22.8729 8.11554C22.8542 8.24541 22.8293 8.37528 22.7718 8.48892C22.6832 8.66929 22.5153 8.79195 22.338 8.80999C22.1608 8.82802 21.9773 8.73784 21.8638 8.5773C21.7566 8.42578 21.7146 8.22557 21.6804 8.03437C21.6322 7.7602 21.5949 7.47881 21.6384 7.20464C21.6679 7.01524 21.7255 6.78075 21.9058 6.65269C22.111 6.50839 22.3847 6.57693 22.4298 6.58956C22.4453 6.59316 22.4655 6.59857 22.4935 6.6094L22.4951 6.60759Z" fill="#222222"/>
<path d="M27.0665 2.99976C27.0665 2.99976 27.0599 3.00859 27.0566 3.01389C27.3996 3.45544 28.6632 5.18809 28.6353 7.77205C28.6091 10.2518 27.4111 11.9067 27.0566 12.3642C27.0599 12.3677 27.0616 12.3713 27.0648 12.3748C27.4013 11.9739 28.7124 10.3172 28.7436 7.77558C28.7748 5.12274 27.3881 3.38302 27.0681 2.99976H27.0665Z" fill="#963030"/>
<path d="M14.2957 2.99976C14.2957 2.99976 14.303 3.00859 14.3066 3.01389C13.9256 3.45544 12.5216 5.18809 12.5526 7.77205C12.5817 10.2518 13.9128 11.9067 14.3066 12.3642C14.303 12.3677 14.3012 12.3713 14.2975 12.3748C13.9237 11.9739 12.4669 10.3172 12.4322 7.77558C12.3976 5.12274 13.9383 3.38302 14.2939 2.99976H14.2957Z" fill="#963030"/>
</svg>
