<svg width="240" height="280" viewBox="0 0 240 280" fill="none" xmlns="http://www.w3.org/2000/svg">
<path d="M121.441 265.97C156.498 265.97 184.917 255.937 184.917 243.561C184.917 231.185 156.498 221.152 121.441 221.152C86.3841 221.152 57.9648 231.185 57.9648 243.561C57.9648 255.937 86.3841 265.97 121.441 265.97Z" fill="#D8D5C5"/>
<path d="M120.289 233.362C153.258 233.362 179.984 208.104 179.984 176.947C179.984 145.79 153.258 120.532 120.289 120.532C87.3202 120.532 60.5938 145.79 60.5938 176.947C60.5938 208.104 87.3202 233.362 120.289 233.362Z" fill="#E24444"/>
<path d="M134.381 141.379L127.356 143.113C126.781 143.255 126.44 143.845 126.604 144.411L128.43 150.709C128.717 151.697 127.548 152.459 126.758 151.797L120.964 146.938C120.577 146.613 120.009 146.613 119.622 146.938L113.828 151.797C113.038 152.459 111.868 151.697 112.156 150.709L113.981 144.411C114.146 143.845 113.805 143.255 113.23 143.113L106.205 141.379C105.15 141.119 105.15 139.618 106.205 139.357L113.23 137.623C113.805 137.481 114.146 136.892 113.981 136.325L112.156 130.027C111.868 129.039 113.038 128.277 113.828 128.94L119.622 133.798C120.009 134.124 120.577 134.124 120.964 133.798L126.758 128.94C127.548 128.277 128.717 129.039 128.43 130.027L126.604 136.325C126.44 136.892 126.781 137.481 127.356 137.623L134.381 139.357C135.435 139.618 135.435 141.119 134.381 141.379Z" fill="#4A734E"/>
<path d="M100.865 165.013C98.4417 166.95 97.7669 169.63 96.9693 172.984C96.1947 176.254 95.5774 178.846 96.1909 182.28C96.5513 184.305 97.0421 187.039 99.1665 189.263C102.759 193.023 109.961 194.233 113.902 190.814C116.123 188.888 117.35 186.017 117.775 183.111C118.205 180.208 117.898 177.249 117.48 174.343C116.759 169.331 115.659 165.503 112.311 163.669C108.381 161.521 103.45 163.558 103.112 163.703C102.602 163.922 101.774 164.285 100.865 165.009V165.013Z" fill="#F5F1DE"/>
<path d="M106.319 170.136C104.268 170.833 103.282 172.64 103.159 172.873C102.623 173.888 102.55 174.99 102.672 177.184C102.745 178.494 102.895 179.795 103.117 181.089C103.282 182.027 103.493 182.977 103.968 183.804C104.72 185.109 106.135 186.013 107.642 186.139C109.145 186.266 110.694 185.615 111.653 184.451C112.565 183.348 112.918 181.897 113.202 180.496C113.605 178.509 113.919 176.453 113.555 174.458C113.302 173.084 112.818 171.369 111.289 170.446C109.552 169.397 107.235 169.898 106.856 169.986C106.725 170.017 106.549 170.059 106.319 170.136Z" fill="#222222"/>
<path d="M139.707 165.013C142.131 166.95 142.805 169.63 143.603 172.984C144.378 176.254 144.995 178.846 144.381 182.28C144.021 184.305 143.53 187.039 141.406 189.263C137.813 193.023 130.612 194.233 126.67 190.814C124.45 188.888 123.223 186.017 122.797 183.111C122.368 180.208 122.674 177.249 123.092 174.343C123.813 169.331 124.914 165.503 128.261 163.669C132.192 161.521 137.123 163.558 137.46 163.703C137.97 163.922 138.798 164.285 139.707 165.009V165.013Z" fill="#F5F1DE"/>
<path d="M134.256 170.136C136.307 170.833 137.293 172.64 137.415 172.873C137.952 173.888 138.025 174.99 137.902 177.184C137.829 178.494 137.68 179.795 137.458 181.089C137.293 182.027 137.082 182.977 136.606 183.804C135.855 185.109 134.44 186.013 132.933 186.139C131.43 186.266 129.881 185.615 128.922 184.451C128.009 183.348 127.657 181.897 127.373 180.496C126.97 178.509 126.656 176.453 127.02 174.458C127.273 173.084 127.756 171.369 129.286 170.446C131.023 169.397 133.339 169.898 133.719 169.986C133.849 170.017 134.026 170.059 134.256 170.136Z" fill="#222222"/>
<path d="M59.0154 181.338C58.03 182.093 43.3746 193.544 46.2734 202.844C46.9828 205.114 49.1033 208.434 51.6532 208.503C54.2798 208.571 56.1626 205.229 58.099 202.553C60.9097 198.674 65.6299 193.774 74.0006 189.474C73.9891 189.432 73.7782 188.781 73.0957 188.594C72.4553 188.421 71.9607 188.808 71.9146 188.846" fill="#963030"/>
<path d="M64.9118 173.195C62.6762 174.704 40.9654 189.655 44.3397 201.091C45.0951 203.648 47.5799 207.649 50.5976 207.787C53.554 207.925 55.617 204.291 58.2359 201.018C61.3802 197.09 66.5989 192.093 75.6023 187.882" fill="#E24444"/>
<path d="M180.114 186.913C181.1 186.158 195.755 174.707 192.856 165.407C192.147 163.137 190.026 159.818 187.476 159.749C184.85 159.68 182.967 163.022 181.031 165.698C178.22 169.577 173.5 174.477 165.129 178.777C165.14 178.819 165.351 179.47 166.034 179.657C166.674 179.83 167.169 179.443 167.215 179.405" fill="#963030"/>
<path d="M174.222 195.056C176.457 193.548 198.168 178.597 194.794 167.161C194.038 164.603 191.554 160.602 188.536 160.464C185.58 160.327 183.517 163.96 180.898 167.233C177.753 171.162 172.535 176.158 163.531 180.369" fill="#E24444"/>
<path d="M97.8299 217.19C96.1466 223.243 94.4671 229.292 92.7837 235.345C92.3543 235.334 87.0819 235.299 84.4284 239.388C84.0181 240.02 82.7221 242.019 83.1592 244.293C84.2367 249.867 94.4172 251.491 97.8261 252.038C101.668 252.651 103.992 253.026 106.066 251.667C108.923 249.798 109.364 245.966 109.813 241.521C110.783 231.911 111.465 224.637 111.929 219.502" fill="#E24444"/>
<path d="M142.748 217.19C144.431 223.243 146.111 229.292 147.794 235.345C148.223 235.334 153.496 235.299 156.149 239.388C156.56 240.02 157.856 242.019 157.419 244.293C156.341 249.867 146.161 251.491 142.752 252.038C138.91 252.651 136.586 253.026 134.511 251.667C131.655 249.798 131.214 245.966 130.765 241.521C129.795 231.911 129.112 224.637 128.648 219.502" fill="#E24444"/>
<path d="M54.3936 128.718L55.7318 131.279C55.9351 131.658 56.307 131.926 56.7365 131.987L59.5625 132.374C61.0733 132.581 61.66 134.441 60.5403 135.475L58.6039 137.259C58.2703 137.569 58.1131 138.025 58.1974 138.473L58.6691 141.088C58.9336 142.543 57.4152 143.68 56.0808 143.014L53.3813 141.678C53.0055 141.494 52.5646 141.494 52.1849 141.678L49.4855 143.014C48.1549 143.672 46.6364 142.543 46.8972 141.088L47.3688 138.473C47.4532 138.029 47.296 137.569 46.9624 137.259L45.026 135.475C43.9101 134.445 44.493 132.581 46.0037 132.374L48.8298 131.987C49.2592 131.926 49.635 131.666 49.8344 131.279L51.1727 128.718C51.8552 127.427 53.7111 127.427 54.3859 128.718H54.3936Z" fill="#F5D45D"/>
<path d="M196.741 202.43L198.08 204.991C198.283 205.37 198.655 205.638 199.084 205.7L201.91 206.086C203.421 206.293 204.008 208.154 202.888 209.188L200.952 210.972C200.618 211.282 200.461 211.737 200.545 212.185L201.017 214.8C201.281 216.255 199.763 217.392 198.428 216.726L195.729 215.39C195.353 215.206 194.912 215.206 194.533 215.39L191.833 216.726C190.503 217.385 188.984 216.255 189.245 214.8L189.716 212.185C189.801 211.741 189.644 211.282 189.31 210.972L187.374 209.188C186.258 208.158 186.841 206.293 188.351 206.086L191.177 205.7C191.607 205.638 191.983 205.378 192.182 204.991L193.52 202.43C194.203 201.14 196.059 201.14 196.734 202.43H196.741Z" fill="#F5D45D"/>
<path d="M70.3431 126.309C71.8615 126.309 73.0924 125.08 73.0924 123.564C73.0924 122.048 71.8615 120.819 70.3431 120.819C68.8247 120.819 67.5938 122.048 67.5938 123.564C67.5938 125.08 68.8247 126.309 70.3431 126.309Z" fill="#F5D45D"/>
<path d="M178.554 220.815C180.072 220.815 181.303 219.586 181.303 218.07C181.303 216.554 180.072 215.325 178.554 215.325C177.036 215.325 175.805 216.554 175.805 218.07C175.805 219.586 177.036 220.815 178.554 220.815Z" fill="#F5D45D"/>
<path fill-rule="evenodd" clip-rule="evenodd" d="M70.3951 51.7046C67.9199 48.1482 66.4688 43.8258 66.4688 39.1645C66.4688 27.0264 76.3086 17.1865 88.4467 17.1865C91.0047 17.1865 93.4607 17.6235 95.744 18.427C98.9399 9.9945 107.092 4 116.645 4C124.669 4 131.705 8.22955 135.646 14.5808C137.738 13.8943 139.97 13.5235 142.287 13.5235C147.055 13.5235 151.462 15.0937 155.036 17.7532C157.349 16.9122 159.841 16.4541 162.439 16.4541C173.722 16.4541 183.02 25.099 184.273 36.2294C191 39.8133 195.607 47.1277 195.607 55.5683C195.607 67.5459 186.329 77.2557 174.884 77.2557L174.781 77.2554C173.681 88.3636 164.309 97.0399 152.912 97.0399C147.777 97.0399 143.053 95.279 139.312 92.3283C135.371 98.6747 128.337 102.9 120.317 102.9C111.49 102.9 103.858 97.7816 100.228 90.3504C98.7169 90.5368 97.1695 90.6334 95.5943 90.6334C78.6975 90.6334 65 79.5126 65 65.7945C65 60.5624 66.9925 55.7081 70.3951 51.7046Z" fill="#ECECEC"/>
<path d="M103.523 43.8249C103.523 44.6649 103.463 45.4209 103.343 46.0689C103.211 46.7409 103.007 47.2929 102.743 47.7489C102.455 48.2049 102.095 48.5529 101.651 48.7929C101.195 49.0329 100.655 49.1529 100.007 49.1529C99.3586 49.1529 98.8066 49.0329 98.3626 48.7929C97.9066 48.5529 97.5466 48.2049 97.2826 47.7489C96.9946 47.2929 96.8026 46.7409 96.6826 46.0689C96.5506 45.4209 96.4906 44.6649 96.4906 43.8249C96.4906 42.9849 96.5506 42.2409 96.6826 41.5689C96.8026 40.9209 96.9946 40.3569 97.2826 39.9009C97.5466 39.4449 97.9066 39.0969 98.3626 38.8569C98.8066 38.6169 99.3586 38.4969 100.007 38.4969C100.655 38.4969 101.195 38.6169 101.651 38.8569C102.095 39.0969 102.455 39.4449 102.743 39.9009C103.007 40.3569 103.211 40.9209 103.343 41.5689C103.463 42.2409 103.523 42.9849 103.523 43.8249ZM108.047 44.2689C108.047 44.3889 108.023 44.4729 107.975 44.5089C107.927 44.5569 107.843 44.5689 107.735 44.5689H106.631V49.3569C106.631 49.4769 106.607 49.5489 106.559 49.5969C106.511 49.6329 106.427 49.6569 106.319 49.6569H104.639C104.519 49.6569 104.447 49.6329 104.399 49.5969C104.351 49.5489 104.327 49.4769 104.327 49.3569V38.7969C104.327 38.6769 104.351 38.6049 104.399 38.5569C104.447 38.5209 104.519 38.4969 104.639 38.4969H106.319C106.427 38.4969 106.511 38.5209 106.559 38.5569C106.607 38.6049 106.631 38.6769 106.631 38.7969V42.5769H107.735C107.843 42.5769 107.927 42.6009 107.975 42.6369C108.023 42.6849 108.047 42.7569 108.047 42.8769V44.2689ZM101.279 43.8249C101.279 43.0929 101.231 42.5049 101.159 42.0609C101.063 41.6289 100.955 41.2809 100.835 41.0409C100.703 40.8129 100.571 40.6569 100.427 40.5849C100.271 40.5129 100.127 40.4769 100.007 40.4769C99.8746 40.4769 99.7426 40.5129 99.5986 40.5849C99.4426 40.6569 99.2986 40.8129 99.1786 41.0409C99.0466 41.2809 98.9386 41.6289 98.8666 42.0609C98.7706 42.5049 98.7346 43.0929 98.7346 43.8249C98.7346 44.5689 98.7706 45.1569 98.8666 45.5889C98.9386 46.0329 99.0466 46.3689 99.1786 46.5969C99.2986 46.8369 99.4426 46.9929 99.5986 47.0649C99.7426 47.1369 99.8746 47.1729 100.007 47.1729C100.127 47.1729 100.271 47.1369 100.427 47.0649C100.571 46.9929 100.703 46.8369 100.835 46.5969C100.955 46.3689 101.063 46.0329 101.159 45.5889C101.231 45.1569 101.279 44.5689 101.279 43.8249ZM108.599 38.7969C108.599 38.6769 108.623 38.6049 108.671 38.5569C108.719 38.5209 108.791 38.4969 108.911 38.4969H115.187C115.295 38.4969 115.379 38.5209 115.427 38.5569C115.475 38.6049 115.499 38.6769 115.499 38.7969V40.2009C115.499 40.3209 115.475 40.4049 115.427 40.4409C115.379 40.4889 115.295 40.5009 115.187 40.5009H113.195C113.195 40.7409 113.219 40.9569 113.279 41.1729C113.327 41.4009 113.435 41.6049 113.591 41.7849C113.735 41.9769 113.939 42.1449 114.203 42.2889C114.455 42.4329 114.779 42.5529 115.187 42.6249C115.211 42.6369 115.259 42.6489 115.307 42.6489C115.343 42.6609 115.379 42.6729 115.427 42.6969C115.463 42.7329 115.499 42.7689 115.535 42.8169C115.559 42.8769 115.571 42.9489 115.571 43.0449V44.3769C115.571 44.5209 115.535 44.6049 115.463 44.6289C115.379 44.6649 115.307 44.6769 115.259 44.6649C114.971 44.6409 114.695 44.6049 114.407 44.5329C114.107 44.4849 113.819 44.4009 113.543 44.2809C113.255 44.1849 112.991 44.0409 112.739 43.8729C112.475 43.7049 112.247 43.5129 112.055 43.2729C111.839 43.5129 111.611 43.7049 111.371 43.8729C111.107 44.0409 110.843 44.1849 110.567 44.2809C110.279 44.4009 110.003 44.4849 109.715 44.5329C109.415 44.6049 109.127 44.6409 108.851 44.6649C108.791 44.6769 108.731 44.6649 108.659 44.6289C108.575 44.6049 108.539 44.5209 108.539 44.3769V43.0449C108.539 42.9489 108.551 42.8769 108.587 42.8169C108.611 42.7689 108.635 42.7329 108.683 42.6969C108.719 42.6729 108.767 42.6609 108.815 42.6489C108.851 42.6489 108.887 42.6369 108.923 42.6249C109.307 42.5529 109.631 42.4329 109.895 42.2889C110.147 42.1449 110.351 41.9769 110.507 41.7849C110.651 41.6049 110.759 41.4009 110.831 41.1729C110.879 40.9569 110.915 40.7409 110.915 40.5009H108.911C108.791 40.5009 108.719 40.4889 108.671 40.4409C108.623 40.4049 108.599 40.3209 108.599 40.2009V38.7969ZM109.439 45.5169C109.439 45.3969 109.463 45.3249 109.511 45.2769C109.559 45.2409 109.631 45.2169 109.751 45.2169H118.595C118.703 45.2169 118.787 45.2409 118.835 45.2769C118.883 45.3249 118.907 45.3969 118.907 45.5169V49.5969C118.907 49.7169 118.883 49.7889 118.835 49.8369C118.787 49.8729 118.703 49.8969 118.595 49.8969H116.915C116.795 49.8969 116.723 49.8729 116.675 49.8369C116.627 49.7889 116.603 49.7169 116.603 49.5969V47.2089H109.751C109.631 47.2089 109.559 47.1969 109.511 47.1489C109.463 47.1129 109.439 47.0289 109.439 46.9089V45.5169ZM116.915 44.6649C116.795 44.6649 116.723 44.6529 116.675 44.6049C116.627 44.5689 116.603 44.4849 116.603 44.3649V38.7969C116.603 38.6769 116.627 38.6049 116.675 38.5569C116.723 38.5209 116.795 38.4969 116.915 38.4969H118.595C118.703 38.4969 118.787 38.5209 118.835 38.5569C118.883 38.6049 118.907 38.6769 118.907 38.7969V44.3649C118.907 44.4849 118.883 44.5689 118.835 44.6049C118.787 44.6529 118.703 44.6649 118.595 44.6649H116.915ZM123.83 43.5849C123.83 43.4649 123.854 43.3929 123.902 43.3449C123.95 43.3089 124.022 43.2849 124.142 43.2849H134.27C134.378 43.2849 134.462 43.3089 134.51 43.3449C134.558 43.3929 134.582 43.4649 134.582 43.5849V44.9889C134.582 45.1089 134.558 45.1929 134.51 45.2289C134.462 45.2769 134.378 45.2889 134.27 45.2889H124.142C124.022 45.2889 123.95 45.2769 123.902 45.2289C123.854 45.1929 123.83 45.1089 123.83 44.9889V43.5849ZM133.502 38.4969C133.61 38.4969 133.694 38.5209 133.742 38.5569C133.79 38.6049 133.814 38.6769 133.814 38.7969V39.9129C133.814 40.0329 133.79 40.1169 133.742 40.1529C133.694 40.2009 133.61 40.2129 133.502 40.2129H126.89V40.6689C126.89 40.8369 126.914 40.9329 126.986 40.9569C127.046 41.0049 127.19 41.0169 127.43 41.0049C127.91 41.0049 128.402 40.9929 128.918 40.9689C129.422 40.9689 129.938 40.9449 130.466 40.9209C130.97 40.9089 131.486 40.8849 132.002 40.8489C132.506 40.8249 132.986 40.8009 133.466 40.7529C133.574 40.7409 133.646 40.7529 133.694 40.8009C133.73 40.8489 133.754 40.9329 133.778 41.0529L133.886 42.1569C133.898 42.2769 133.874 42.3609 133.826 42.3849C133.766 42.4329 133.682 42.4569 133.574 42.4569C132.446 42.5529 131.27 42.6249 130.046 42.6729C128.81 42.7329 127.586 42.7569 126.374 42.7569C125.726 42.7569 125.27 42.6249 125.006 42.3609C124.718 42.1089 124.586 41.6649 124.586 41.0289V38.7969C124.586 38.6769 124.61 38.6049 124.658 38.5569C124.706 38.5209 124.778 38.4969 124.898 38.4969H133.502ZM129.206 50.2809C127.646 50.2809 126.47 50.1009 125.702 49.7409C124.922 49.3809 124.538 48.8049 124.538 48.0249C124.538 47.2449 124.934 46.6689 125.726 46.3089C126.506 45.9609 127.67 45.7809 129.206 45.7809C130.742 45.7809 131.906 45.9609 132.698 46.3089C133.478 46.6689 133.874 47.2449 133.874 48.0249C133.874 48.8049 133.478 49.3809 132.71 49.7409C131.93 50.1009 130.766 50.2809 129.206 50.2809ZM129.206 48.4929C129.686 48.4929 130.07 48.4809 130.382 48.4689C130.682 48.4449 130.922 48.4209 131.102 48.3849C131.27 48.3369 131.402 48.2889 131.474 48.2409C131.534 48.1689 131.57 48.0969 131.57 48.0129C131.57 47.9289 131.534 47.8569 131.474 47.8089C131.402 47.7489 131.27 47.7009 131.102 47.6529C130.922 47.6169 130.682 47.5809 130.382 47.5569C130.07 47.5449 129.686 47.5329 129.206 47.5329C128.726 47.5329 128.33 47.5449 128.03 47.5569C127.718 47.5809 127.478 47.6169 127.31 47.6529C127.13 47.7009 127.01 47.7489 126.95 47.8089C126.878 47.8569 126.842 47.9289 126.842 48.0129C126.842 48.0969 126.878 48.1689 126.95 48.2409C127.01 48.2889 127.13 48.3369 127.31 48.3849C127.478 48.4209 127.718 48.4449 128.03 48.4689C128.33 48.4809 128.726 48.4929 129.206 48.4929ZM145.36 43.3089C145.372 43.4049 145.348 43.4649 145.3 43.4889C145.24 43.5129 145.156 43.5369 145.048 43.5489C144.496 43.6089 143.956 43.6569 143.428 43.6809C142.888 43.7169 142.336 43.7409 141.76 43.7649V44.2449H145.672C145.78 44.2449 145.864 44.2689 145.912 44.3049C145.96 44.3529 145.984 44.4249 145.984 44.5449V45.7089C145.984 45.8289 145.96 45.9129 145.912 45.9489C145.864 45.9969 145.78 46.0089 145.672 46.0089H135.544C135.424 46.0089 135.352 45.9969 135.304 45.9489C135.256 45.9129 135.232 45.8289 135.232 45.7089V44.5449C135.232 44.4249 135.256 44.3529 135.304 44.3049C135.352 44.2689 135.424 44.2449 135.544 44.2449H139.456V43.8129H137.776C137.404 43.8129 137.104 43.7889 136.876 43.7289C136.636 43.6809 136.456 43.5969 136.336 43.4769C136.192 43.3569 136.108 43.2009 136.06 43.0089C136.012 42.8289 135.988 42.6009 135.988 42.3369V40.5969C135.988 40.4889 136.012 40.4169 136.06 40.3689C136.108 40.3329 136.18 40.3089 136.3 40.3089H143.14V39.9489H136.3C136.084 39.9489 135.988 39.8409 135.988 39.6009V38.7969C135.988 38.6769 136.012 38.6049 136.06 38.5569C136.108 38.5209 136.18 38.4969 136.3 38.4969H144.904C145.012 38.4969 145.096 38.5209 145.144 38.5569C145.192 38.6049 145.216 38.6769 145.216 38.7969V41.4609C145.216 41.5809 145.192 41.6649 145.144 41.7009C145.096 41.7489 145.012 41.7609 144.904 41.7609H138.064V41.9649C138.064 42.0969 138.112 42.1689 138.208 42.1929C138.304 42.2289 138.448 42.2409 138.652 42.2409C139.324 42.2409 139.936 42.2409 140.512 42.2289C141.064 42.2289 141.604 42.2169 142.12 42.1929C142.624 42.1809 143.104 42.1569 143.572 42.1329C144.028 42.1089 144.496 42.0849 144.976 42.0369C145.072 42.0369 145.132 42.0369 145.18 42.0609C145.204 42.0849 145.228 42.1449 145.252 42.2289L145.36 43.3089ZM135.988 46.7769C135.988 46.6569 136.012 46.5849 136.06 46.5369C136.108 46.5009 136.18 46.4769 136.3 46.4769H144.904C145.012 46.4769 145.096 46.5009 145.144 46.5369C145.192 46.5849 145.216 46.6569 145.216 46.7769V49.5849C145.216 49.7049 145.192 49.7769 145.144 49.8249C145.096 49.8609 145.012 49.8849 144.904 49.8849H143.224C143.104 49.8849 143.032 49.8609 142.984 49.8249C142.936 49.7769 142.912 49.7049 142.912 49.5849V48.2289H136.3C136.18 48.2289 136.108 48.2049 136.06 48.1689C136.012 48.1209 135.988 48.0489 135.988 47.9289V46.7769ZM153.151 38.4969C153.259 38.4969 153.343 38.5209 153.391 38.5569C153.439 38.6049 153.463 38.6769 153.463 38.7969V39.8889C153.463 40.0089 153.439 40.0929 153.391 40.1289C153.343 40.1769 153.259 40.1889 153.151 40.1889H149.467V40.8369C149.467 40.9809 149.491 41.0769 149.539 41.1129C149.587 41.1609 149.695 41.1729 149.863 41.1729C150.199 41.1729 150.523 41.1729 150.811 41.1609C151.099 41.1609 151.375 41.1489 151.651 41.1249C151.915 41.1249 152.191 41.1009 152.455 41.0769C152.719 41.0529 152.995 41.0289 153.295 41.0049C153.403 40.9929 153.487 41.0049 153.535 41.0409C153.571 41.0889 153.595 41.1729 153.607 41.2929L153.679 42.4089C153.679 42.5289 153.667 42.6129 153.619 42.6369C153.559 42.6729 153.475 42.6969 153.367 42.7089C153.079 42.7329 152.791 42.7569 152.491 42.7689C152.179 42.7929 151.879 42.8049 151.567 42.8169V43.5729H153.979C154.087 43.5729 154.171 43.5969 154.219 43.6329C154.267 43.6809 154.291 43.7529 154.291 43.8729V45.2769C154.291 45.3969 154.267 45.4809 154.219 45.5169C154.171 45.5649 154.087 45.5769 153.979 45.5769H146.947C146.827 45.5769 146.755 45.5649 146.707 45.5169C146.659 45.4809 146.635 45.3969 146.635 45.2769V43.8729C146.635 43.7529 146.659 43.6809 146.707 43.6329C146.755 43.5969 146.827 43.5729 146.947 43.5729H149.263V42.8769H148.471C148.063 42.8769 147.751 42.7689 147.523 42.5529C147.283 42.3369 147.163 41.9649 147.163 41.4129V38.7969C147.163 38.6769 147.187 38.6049 147.235 38.5569C147.283 38.5209 147.355 38.4969 147.475 38.4969H153.151ZM157.207 49.2369C157.219 49.3569 157.195 49.4289 157.147 49.4649C157.087 49.4889 157.003 49.5129 156.895 49.5369C156.343 49.5849 155.743 49.6449 155.107 49.6929L153.175 49.8009L151.279 49.8729C150.655 49.8849 150.079 49.8969 149.575 49.8969C148.807 49.8969 148.255 49.6929 147.931 49.2849C147.595 48.8649 147.427 48.2049 147.427 47.3049V46.3449C147.427 46.2249 147.451 46.1529 147.499 46.1049C147.547 46.0689 147.619 46.0449 147.739 46.0449H149.419C149.527 46.0449 149.611 46.0689 149.659 46.1049C149.707 46.1529 149.731 46.2249 149.731 46.3449V47.0769C149.731 47.3649 149.791 47.5809 149.911 47.7129C150.031 47.8449 150.247 47.9049 150.571 47.9049C151.003 47.8929 151.483 47.8809 152.011 47.8689C152.527 47.8449 153.067 47.8089 153.619 47.7849C154.171 47.7609 154.711 47.7249 155.263 47.6769C155.791 47.6409 156.295 47.5929 156.775 47.5449C156.883 47.5329 156.955 47.5449 157.003 47.5929C157.039 47.6409 157.063 47.7249 157.087 47.8449L157.207 49.2369ZM155.083 46.8969C154.963 46.8969 154.891 46.8849 154.843 46.8369C154.795 46.8009 154.771 46.7169 154.771 46.5969V38.7969C154.771 38.6769 154.795 38.6049 154.843 38.5569C154.891 38.5209 154.963 38.4969 155.083 38.4969H156.763C156.871 38.4969 156.955 38.5209 157.003 38.5569C157.051 38.6049 157.075 38.6769 157.075 38.7969V46.5969C157.075 46.7169 157.051 46.8009 157.003 46.8369C156.955 46.8849 156.871 46.8969 156.763 46.8969H155.083ZM82.0642 63.5529C82.0642 63.4329 82.0882 63.3609 82.1362 63.3129C82.1842 63.2769 82.2562 63.2529 82.3762 63.2529H92.5042C92.6122 63.2529 92.6962 63.2769 92.7442 63.3129C92.7922 63.3609 92.8162 63.4329 92.8162 63.5529V64.9569C92.8162 65.0769 92.7922 65.1609 92.7442 65.1969C92.6962 65.2449 92.6122 65.2569 92.5042 65.2569H88.5922V67.5849C88.5922 67.7049 88.5682 67.7769 88.5202 67.8249C88.4722 67.8609 88.3882 67.8849 88.2802 67.8849H86.6002C86.4802 67.8849 86.4082 67.8609 86.3602 67.8249C86.3122 67.7769 86.2882 67.7049 86.2882 67.5849V65.2569H82.3762C82.2562 65.2569 82.1842 65.2449 82.1362 65.1969C82.0882 65.1609 82.0642 65.0769 82.0642 64.9569V63.5529ZM83.1922 62.5089H83.0842C83.0362 62.5089 82.9882 62.4969 82.9522 62.4729C82.9042 62.4489 82.8682 62.4129 82.8442 62.3649C82.8082 62.3169 82.7962 62.2569 82.7962 62.1609V60.7569C82.7962 60.6129 82.8082 60.5169 82.8442 60.4689C82.8682 60.4329 82.9402 60.4089 83.0602 60.3849C83.5882 60.3369 84.0562 60.2289 84.4642 60.0609C84.8602 59.9049 85.1962 59.7009 85.4722 59.4609C85.7362 59.2329 85.9402 58.9689 86.0842 58.6569C86.2162 58.3689 86.2882 58.0449 86.2882 57.7089V56.7369C86.2882 56.6169 86.3122 56.5449 86.3602 56.4969C86.4082 56.4609 86.4802 56.4369 86.6002 56.4369H88.2802C88.3882 56.4369 88.4722 56.4609 88.5202 56.4969C88.5682 56.5449 88.5922 56.6169 88.5922 56.7369V57.7089C88.5922 58.0449 88.6522 58.3689 88.7962 58.6569C88.9282 58.9689 89.1322 59.2329 89.4082 59.4609C89.6722 59.7009 90.0202 59.9049 90.4282 60.0609C90.8242 60.2289 91.2922 60.3369 91.8202 60.3849C91.9282 60.4089 92.0002 60.4329 92.0362 60.4689C92.0602 60.5169 92.0842 60.6129 92.0842 60.7569V62.1609C92.0842 62.2569 92.0722 62.3169 92.0482 62.3649C92.0122 62.4129 91.9762 62.4489 91.9402 62.4729C91.8922 62.4969 91.8442 62.5089 91.8082 62.5089H91.6882C91.1842 62.4609 90.7042 62.3769 90.2602 62.2449C89.8042 62.1249 89.4082 61.9809 89.0482 61.8009C88.6762 61.6329 88.3522 61.4409 88.0882 61.2249C87.8122 61.0209 87.5962 60.8049 87.4402 60.5889C87.2722 60.8049 87.0562 61.0209 86.7922 61.2249C86.5162 61.4409 86.1922 61.6329 85.8322 61.8009C85.4602 61.9809 85.0522 62.1249 84.6202 62.2449C84.1642 62.3769 83.6962 62.4609 83.1922 62.5089ZM99.5266 68.2809C98.8306 68.2809 98.2306 68.2089 97.7506 68.0769C97.2466 67.9329 96.8506 67.7529 96.5506 67.5129C96.2386 67.2729 96.0106 66.9969 95.8786 66.6849C95.7346 66.3609 95.6626 66.0249 95.6626 65.6649C95.6626 65.3049 95.7346 64.9689 95.8786 64.6449C96.0226 64.3329 96.2506 64.0569 96.5626 63.8169C96.8746 63.5889 97.2706 63.4089 97.7626 63.2649C98.2426 63.1329 98.8306 63.0609 99.5266 63.0609C100.211 63.0609 100.799 63.1329 101.291 63.2649C101.771 63.4089 102.179 63.5889 102.491 63.8169C102.803 64.0569 103.031 64.3329 103.175 64.6449C103.319 64.9689 103.391 65.3049 103.391 65.6649C103.391 66.0249 103.319 66.3609 103.187 66.6849C103.043 66.9969 102.815 67.2729 102.515 67.5129C102.203 67.7529 101.795 67.9329 101.315 68.0769C100.811 68.2089 100.223 68.2809 99.5266 68.2809ZM97.6426 56.4969C97.7506 56.4969 97.8346 56.5209 97.8826 56.5569C97.9306 56.6049 97.9546 56.6769 97.9546 56.7969V58.4889C97.9546 58.7289 97.9786 58.9449 98.0386 59.1609C98.0866 59.3889 98.1946 59.5929 98.3506 59.7729C98.4946 59.9649 98.6986 60.1329 98.9626 60.2769C99.2146 60.4329 99.5386 60.5529 99.9466 60.6249C99.9706 60.6369 100.019 60.6489 100.067 60.6489C100.103 60.6609 100.139 60.6729 100.187 60.6969C100.223 60.7329 100.259 60.7689 100.295 60.8169C100.319 60.8769 100.331 60.9489 100.331 61.0449V62.3769C100.331 62.5209 100.295 62.6049 100.223 62.6289C100.139 62.6649 100.067 62.6769 100.019 62.6649C99.7306 62.6409 99.4546 62.6049 99.1666 62.5329C98.8666 62.4849 98.5786 62.4009 98.3026 62.2809C98.0146 62.1849 97.7506 62.0409 97.4986 61.8729C97.2346 61.7049 97.0066 61.5129 96.8146 61.2729C96.5986 61.5129 96.3706 61.7049 96.1306 61.8729C95.8666 62.0409 95.6026 62.1849 95.3266 62.2809C95.0386 62.4009 94.7626 62.4849 94.4746 62.5329C94.1746 62.6049 93.8866 62.6409 93.6106 62.6649C93.5506 62.6769 93.4906 62.6649 93.4186 62.6289C93.3346 62.6049 93.2986 62.5209 93.2986 62.3769V61.0449C93.2986 60.9489 93.3106 60.8769 93.3466 60.8169C93.3706 60.7689 93.3946 60.7329 93.4426 60.6969C93.4786 60.6729 93.5266 60.6609 93.5746 60.6489C93.6106 60.6489 93.6466 60.6369 93.6826 60.6249C94.0786 60.5529 94.4026 60.4329 94.6666 60.2769C94.9186 60.1329 95.1226 59.9649 95.2786 59.7729C95.4226 59.5929 95.5306 59.3889 95.5906 59.1609C95.6386 58.9449 95.6746 58.7289 95.6746 58.4889V56.7969C95.6746 56.6769 95.6986 56.6049 95.7466 56.5569C95.7946 56.5209 95.8666 56.4969 95.9866 56.4969H97.6426ZM105.047 60.0609C105.047 60.1809 105.023 60.2649 104.975 60.3009C104.927 60.3489 104.843 60.3609 104.735 60.3609H103.631V62.4849C103.631 62.6049 103.607 62.6889 103.559 62.7249C103.511 62.7729 103.427 62.7849 103.319 62.7849H101.639C101.519 62.7849 101.447 62.7729 101.399 62.7249C101.351 62.6889 101.327 62.6049 101.327 62.4849V56.7969C101.327 56.6769 101.351 56.6049 101.399 56.5569C101.447 56.5209 101.519 56.4969 101.639 56.4969H103.319C103.427 56.4969 103.511 56.5209 103.559 56.5569C103.607 56.6049 103.631 56.6769 103.631 56.7969V58.3689H104.735C104.843 58.3689 104.927 58.3929 104.975 58.4289C105.023 58.4769 105.047 58.5489 105.047 58.6689V60.0609ZM99.5266 66.3969C99.7306 66.3969 99.9346 66.3849 100.127 66.3609C100.319 66.3369 100.487 66.2889 100.643 66.2409C100.787 66.1809 100.895 66.1089 100.991 66.0129C101.075 65.9169 101.123 65.7969 101.123 65.6529C101.123 65.5089 101.075 65.3889 100.991 65.2929C100.895 65.2089 100.787 65.1369 100.643 65.0649C100.487 65.0169 100.319 64.9689 100.127 64.9449C99.9346 64.9209 99.7306 64.9089 99.5266 64.9089C99.3106 64.9089 99.1186 64.9209 98.9266 64.9449C98.7346 64.9689 98.5666 65.0169 98.4226 65.0649C98.2666 65.1369 98.1466 65.2089 98.0626 65.2929C97.9666 65.3889 97.9306 65.5089 97.9306 65.6529C97.9306 65.7969 97.9666 65.9169 98.0626 66.0129C98.1466 66.1089 98.2666 66.1809 98.4226 66.2409C98.5666 66.2889 98.7346 66.3369 98.9266 66.3609C99.1186 66.3849 99.3106 66.3969 99.5266 66.3969ZM105.359 56.7969C105.359 56.6769 105.383 56.6049 105.431 56.5569C105.479 56.5209 105.551 56.4969 105.671 56.4969H111.947C112.055 56.4969 112.139 56.5209 112.187 56.5569C112.235 56.6049 112.259 56.6769 112.259 56.7969V58.2009C112.259 58.3209 112.235 58.4049 112.187 58.4409C112.139 58.4889 112.055 58.5009 111.947 58.5009H109.955C109.955 58.7409 109.979 58.9569 110.039 59.1729C110.087 59.4009 110.195 59.6049 110.351 59.7849C110.495 59.9769 110.699 60.1449 110.963 60.2889C111.215 60.4329 111.539 60.5529 111.947 60.6249C111.971 60.6369 112.019 60.6489 112.067 60.6489C112.103 60.6609 112.139 60.6729 112.187 60.6969C112.223 60.7329 112.259 60.7689 112.295 60.8169C112.319 60.8769 112.331 60.9489 112.331 61.0449V62.3769C112.331 62.5209 112.295 62.6049 112.223 62.6289C112.139 62.6649 112.067 62.6769 112.019 62.6649C111.731 62.6409 111.455 62.6049 111.167 62.5329C110.867 62.4849 110.579 62.4009 110.303 62.2809C110.015 62.1849 109.751 62.0409 109.499 61.8729C109.235 61.7049 109.007 61.5129 108.815 61.2729C108.599 61.5129 108.371 61.7049 108.131 61.8729C107.867 62.0409 107.603 62.1849 107.327 62.2809C107.039 62.4009 106.763 62.4849 106.475 62.5329C106.175 62.6049 105.887 62.6409 105.611 62.6649C105.551 62.6769 105.491 62.6649 105.419 62.6289C105.335 62.6049 105.299 62.5209 105.299 62.3769V61.0449C105.299 60.9489 105.311 60.8769 105.347 60.8169C105.371 60.7689 105.395 60.7329 105.443 60.6969C105.479 60.6729 105.527 60.6609 105.575 60.6489C105.611 60.6489 105.647 60.6369 105.683 60.6249C106.067 60.5529 106.391 60.4329 106.655 60.2889C106.907 60.1449 107.111 59.9769 107.267 59.7849C107.411 59.6049 107.519 59.4009 107.591 59.1729C107.639 58.9569 107.675 58.7409 107.675 58.5009H105.671C105.551 58.5009 105.479 58.4889 105.431 58.4409C105.383 58.4049 105.359 58.3209 105.359 58.2009V56.7969ZM106.163 63.5169C106.163 63.3969 106.187 63.3249 106.235 63.2769C106.283 63.2409 106.355 63.2169 106.475 63.2169H115.319C115.427 63.2169 115.511 63.2409 115.559 63.2769C115.607 63.3249 115.631 63.3969 115.631 63.5169V67.5969C115.631 67.7169 115.607 67.7889 115.559 67.8369C115.511 67.8729 115.427 67.8969 115.319 67.8969H113.639C113.519 67.8969 113.447 67.8729 113.399 67.8369C113.351 67.7889 113.327 67.7169 113.327 67.5969V65.2089H106.475C106.355 65.2089 106.283 65.1969 106.235 65.1489C106.187 65.1129 106.163 65.0289 106.163 64.9089V63.5169ZM117.047 60.0609C117.047 60.1809 117.023 60.2649 116.975 60.3009C116.927 60.3489 116.843 60.3609 116.735 60.3609H115.631V62.3649C115.631 62.4849 115.607 62.5689 115.559 62.6049C115.511 62.6529 115.427 62.6649 115.319 62.6649H113.639C113.519 62.6649 113.447 62.6529 113.399 62.6049C113.351 62.5689 113.327 62.4849 113.327 62.3649V56.7969C113.327 56.6769 113.351 56.6049 113.399 56.5569C113.447 56.5209 113.519 56.4969 113.639 56.4969H115.319C115.427 56.4969 115.511 56.5209 115.559 56.5569C115.607 56.6049 115.631 56.6769 115.631 56.7969V58.3689H116.735C116.843 58.3689 116.927 58.3929 116.975 58.4289C117.023 58.4769 117.047 58.5489 117.047 58.6689V60.0609ZM125.915 67.6569C125.795 67.6569 125.723 67.6329 125.675 67.5969C125.627 67.5489 125.603 67.4769 125.603 67.3569V56.7969C125.603 56.6769 125.627 56.6049 125.675 56.5569C125.723 56.5209 125.795 56.4969 125.915 56.4969H127.595C127.703 56.4969 127.787 56.5209 127.835 56.5569C127.883 56.6049 127.907 56.6769 127.907 56.7969V67.3569C127.907 67.4769 127.883 67.5489 127.835 67.5969C127.787 67.6329 127.703 67.6569 127.595 67.6569H125.915ZM124.643 61.8249C124.643 62.6649 124.583 63.4209 124.463 64.0689C124.331 64.7409 124.127 65.2929 123.863 65.7489C123.575 66.2049 123.215 66.5529 122.771 66.7929C122.315 67.0329 121.775 67.1529 121.127 67.1529C120.479 67.1529 119.927 67.0329 119.483 66.7929C119.027 66.5529 118.667 66.2049 118.403 65.7489C118.115 65.2929 117.923 64.7409 117.803 64.0689C117.671 63.4209 117.611 62.6649 117.611 61.8249C117.611 60.9849 117.671 60.2409 117.803 59.5689C117.923 58.9209 118.115 58.3569 118.403 57.9009C118.667 57.4449 119.027 57.0969 119.483 56.8569C119.927 56.6169 120.479 56.4969 121.127 56.4969C121.775 56.4969 122.315 56.6169 122.771 56.8569C123.215 57.0969 123.575 57.4449 123.863 57.9009C124.127 58.3569 124.331 58.9209 124.463 59.5689C124.583 60.2409 124.643 60.9849 124.643 61.8249ZM122.399 61.8249C122.399 61.0929 122.351 60.5049 122.279 60.0609C122.183 59.6289 122.075 59.2809 121.955 59.0409C121.823 58.8129 121.691 58.6569 121.547 58.5849C121.391 58.5129 121.247 58.4769 121.127 58.4769C120.995 58.4769 120.863 58.5129 120.719 58.5849C120.563 58.6569 120.419 58.8129 120.299 59.0409C120.167 59.2809 120.059 59.6289 119.987 60.0609C119.891 60.5049 119.855 61.0929 119.855 61.8249C119.855 62.5689 119.891 63.1569 119.987 63.5889C120.059 64.0329 120.167 64.3689 120.299 64.5969C120.419 64.8369 120.563 64.9929 120.719 65.0649C120.863 65.1369 120.995 65.1729 121.127 65.1729C121.247 65.1729 121.391 65.1369 121.547 65.0649C121.691 64.9929 121.823 64.8369 121.955 64.5969C122.075 64.3689 122.183 64.0329 122.279 63.5889C122.351 63.1569 122.399 62.5689 122.399 61.8249ZM136.37 62.3769C135.662 62.3769 135.086 62.2929 134.642 62.1009C134.186 61.9209 133.826 61.6809 133.562 61.3929C133.298 61.1049 133.106 60.7929 133.01 60.4329C132.902 60.0849 132.854 59.7369 132.854 59.4009C132.854 59.0649 132.902 58.7289 133.01 58.3689C133.106 58.0329 133.298 57.7089 133.574 57.4209C133.838 57.1329 134.198 56.9049 134.654 56.7129C135.098 56.5329 135.674 56.4369 136.37 56.4369C136.886 56.4369 137.342 56.4969 137.726 56.5929C138.11 56.7009 138.434 56.8449 138.71 57.0129C138.974 57.2049 139.19 57.4089 139.358 57.6369C139.514 57.8769 139.634 58.1169 139.73 58.3689H140.966V56.7969C140.966 56.6769 140.99 56.6049 141.038 56.5569C141.086 56.5209 141.158 56.4969 141.278 56.4969H142.958C143.066 56.4969 143.15 56.5209 143.198 56.5569C143.246 56.6049 143.27 56.6769 143.27 56.7969V62.0769C143.27 62.1969 143.246 62.2809 143.198 62.3169C143.15 62.3649 143.066 62.3769 142.958 62.3769H141.278C141.158 62.3769 141.086 62.3649 141.038 62.3169C140.99 62.2809 140.966 62.1969 140.966 62.0769V60.3609H139.742C139.658 60.6249 139.538 60.8769 139.382 61.1169C139.214 61.3689 139.01 61.5849 138.746 61.7649C138.47 61.9569 138.146 62.1009 137.762 62.2089C137.366 62.3289 136.898 62.3769 136.37 62.3769ZM138.554 66.4689C138.554 66.9729 138.446 67.3329 138.23 67.5609C138.014 67.7769 137.69 67.8969 137.258 67.8969H134.822C134.39 67.8969 134.066 67.7769 133.85 67.5609C133.634 67.3329 133.526 66.9729 133.526 66.4689V63.1569C133.526 63.0369 133.55 62.9649 133.598 62.9169C133.646 62.8809 133.718 62.8569 133.838 62.8569H135.218C135.326 62.8569 135.41 62.8809 135.458 62.9169C135.506 62.9649 135.53 63.0369 135.53 63.1569V63.7569H136.55V63.1569C136.55 63.0369 136.574 62.9649 136.622 62.9169C136.67 62.8809 136.742 62.8569 136.862 62.8569H138.242C138.35 62.8569 138.434 62.8809 138.482 62.9169C138.53 62.9649 138.554 63.0369 138.554 63.1569V66.4689ZM142.274 62.8569C142.394 62.8569 142.466 62.8929 142.514 62.9409C142.538 63.0009 142.562 63.0729 142.562 63.1569C142.562 63.6489 142.586 64.0569 142.634 64.3929C142.682 64.7289 142.754 65.0049 142.85 65.2209C142.946 65.4369 143.066 65.6049 143.234 65.7129C143.378 65.8209 143.57 65.8929 143.81 65.9409C143.834 65.9409 143.858 65.9529 143.906 65.9649C143.942 65.9649 143.978 65.9769 144.026 66.0009C144.05 66.0249 144.086 66.0609 144.11 66.1089C144.134 66.1569 144.146 66.2169 144.146 66.3129V67.5489C144.146 67.6329 144.134 67.7049 144.11 67.7529C144.074 67.8009 144.038 67.8369 144.002 67.8609C143.954 67.8849 143.906 67.8969 143.87 67.8969H143.75C143.498 67.8729 143.258 67.8369 143.03 67.7649C142.79 67.6809 142.586 67.5849 142.394 67.4649C142.19 67.3449 142.01 67.2009 141.866 67.0449C141.71 66.8769 141.59 66.7089 141.518 66.5289C141.422 66.7089 141.314 66.8769 141.17 67.0449C141.014 67.2009 140.846 67.3449 140.654 67.4649C140.45 67.5849 140.234 67.6809 140.006 67.7649C139.766 67.8369 139.526 67.8729 139.286 67.8969H139.178C139.13 67.8969 139.082 67.8849 139.046 67.8609C138.998 67.8369 138.962 67.8009 138.938 67.7529C138.902 67.7049 138.89 67.6329 138.89 67.5489V66.3129C138.89 66.2169 138.902 66.1569 138.926 66.1089C138.95 66.0609 138.974 66.0249 139.022 66.0009C139.046 65.9769 139.082 65.9649 139.13 65.9649C139.166 65.9529 139.202 65.9409 139.226 65.9409C139.442 65.8929 139.634 65.8209 139.802 65.7129C139.958 65.6049 140.09 65.4369 140.186 65.2209C140.282 65.0049 140.354 64.7289 140.402 64.3929C140.45 64.0569 140.474 63.6489 140.474 63.1569C140.474 63.0729 140.486 63.0009 140.534 62.9409C140.558 62.8929 140.642 62.8569 140.762 62.8569H142.274ZM136.37 60.4209C136.514 60.4209 136.658 60.4089 136.814 60.3729C136.958 60.3489 137.102 60.3009 137.234 60.2169C137.354 60.1449 137.462 60.0369 137.546 59.8929C137.618 59.7729 137.666 59.6049 137.666 59.3889C137.666 59.1969 137.618 59.0289 137.546 58.8849C137.462 58.7649 137.354 58.6569 137.234 58.5729C137.102 58.5009 136.958 58.4409 136.814 58.4049C136.658 58.3809 136.514 58.3689 136.37 58.3689C136.226 58.3689 136.07 58.3809 135.926 58.4049C135.77 58.4409 135.626 58.5009 135.506 58.5729C135.374 58.6569 135.266 58.7649 135.194 58.8849C135.11 59.0289 135.074 59.1969 135.074 59.3889C135.074 59.6049 135.11 59.7729 135.194 59.8929C135.266 60.0369 135.374 60.1449 135.506 60.2169C135.626 60.3009 135.77 60.3489 135.926 60.3729C136.07 60.4089 136.226 60.4209 136.37 60.4209ZM136.202 66.2529C136.334 66.2529 136.43 66.2289 136.478 66.1809C136.526 66.1209 136.55 66.0129 136.55 65.8689V65.3409H135.53V65.8689C135.53 66.0129 135.554 66.1209 135.602 66.1809C135.65 66.2289 135.734 66.2529 135.878 66.2529H136.202ZM153.278 67.6569C153.158 67.6569 153.086 67.6329 153.038 67.5969C152.99 67.5489 152.966 67.4769 152.966 67.3569V62.5689H151.862C151.826 63.3009 151.742 63.9489 151.598 64.5129C151.454 65.0889 151.238 65.5689 150.962 65.9529C150.674 66.3369 150.326 66.6369 149.906 66.8529C149.474 67.0449 148.97 67.1529 148.37 67.1529C147.722 67.1529 147.17 67.0329 146.726 66.7929C146.27 66.5529 145.91 66.2049 145.646 65.7489C145.358 65.2929 145.166 64.7409 145.046 64.0689C144.914 63.4209 144.854 62.6649 144.854 61.8249C144.854 60.9849 144.914 60.2409 145.046 59.5689C145.166 58.9209 145.358 58.3569 145.646 57.9009C145.91 57.4449 146.27 57.0969 146.726 56.8569C147.17 56.6169 147.722 56.4969 148.37 56.4969C148.922 56.4969 149.414 56.5929 149.834 56.7609C150.242 56.9529 150.578 57.2169 150.866 57.5529C151.142 57.9129 151.358 58.3329 151.526 58.8369C151.67 59.3529 151.778 59.9289 151.838 60.5769H152.966V56.7969C152.966 56.6769 152.99 56.6049 153.038 56.5569C153.086 56.5209 153.158 56.4969 153.278 56.4969H154.958C155.066 56.4969 155.15 56.5209 155.198 56.5569C155.246 56.6049 155.27 56.6769 155.27 56.7969V67.3569C155.27 67.4769 155.246 67.5489 155.198 67.5969C155.15 67.6329 155.066 67.6569 154.958 67.6569H153.278ZM149.642 61.8249C149.642 61.0929 149.594 60.5049 149.522 60.0609C149.426 59.6289 149.318 59.2809 149.198 59.0409C149.066 58.8129 148.934 58.6569 148.79 58.5849C148.634 58.5129 148.49 58.4769 148.37 58.4769C148.238 58.4769 148.106 58.5129 147.962 58.5849C147.806 58.6569 147.662 58.8129 147.542 59.0409C147.41 59.2809 147.302 59.6289 147.23 60.0609C147.134 60.5049 147.098 61.0929 147.098 61.8249C147.098 62.5689 147.134 63.1569 147.23 63.5889C147.302 64.0329 147.41 64.3689 147.542 64.5969C147.662 64.8369 147.806 64.9929 147.962 65.0649C148.106 65.1369 148.238 65.1729 148.37 65.1729C148.49 65.1729 148.634 65.1369 148.79 65.0649C148.934 64.9929 149.066 64.8369 149.198 64.5969C149.318 64.3689 149.426 64.0329 149.522 63.5889C149.594 63.1569 149.642 62.5689 149.642 61.8249ZM166.886 60.4089C166.886 60.9249 166.802 61.4169 166.646 61.8729C166.478 62.3409 166.214 62.7609 165.878 63.1209V65.5329H167.27C167.378 65.5329 167.462 65.5569 167.51 65.5929C167.558 65.6409 167.582 65.7129 167.582 65.8329V67.2369C167.582 67.3569 167.558 67.4289 167.51 67.4769C167.462 67.5129 167.378 67.5369 167.27 67.5369H157.142C157.022 67.5369 156.95 67.5129 156.902 67.4769C156.854 67.4289 156.83 67.3569 156.83 67.2369V65.8329C156.83 65.7129 156.854 65.6409 156.902 65.5929C156.95 65.5569 157.022 65.5329 157.142 65.5329H158.534V63.1209C158.186 62.7609 157.934 62.3409 157.778 61.8729C157.61 61.4169 157.526 60.9249 157.526 60.4089C157.526 59.8809 157.61 59.3649 157.802 58.8609C157.982 58.3809 158.27 57.9489 158.654 57.5769C159.038 57.2169 159.518 56.9169 160.118 56.6889C160.694 56.4729 161.39 56.3649 162.206 56.3649C163.01 56.3649 163.706 56.4729 164.306 56.6889C164.882 56.9169 165.374 57.2169 165.758 57.5769C166.142 57.9489 166.418 58.3809 166.61 58.8609C166.79 59.3649 166.886 59.8809 166.886 60.4089ZM159.83 60.4089C159.83 60.7089 159.878 60.9849 159.986 61.2249C160.082 61.4889 160.238 61.7049 160.442 61.8849C160.634 62.0769 160.886 62.2329 161.186 62.3289C161.474 62.4369 161.822 62.4849 162.206 62.4849C162.59 62.4849 162.926 62.4369 163.226 62.3289C163.514 62.2329 163.766 62.0769 163.97 61.8849C164.162 61.7049 164.318 61.4889 164.426 61.2249C164.522 60.9849 164.582 60.7089 164.582 60.4089C164.582 60.1209 164.522 59.8449 164.426 59.5809C164.318 59.3409 164.162 59.1129 163.97 58.9209C163.766 58.7409 163.514 58.5969 163.226 58.4889C162.926 58.3929 162.59 58.3329 162.206 58.3329C161.822 58.3329 161.474 58.3929 161.186 58.4889C160.886 58.5969 160.634 58.7409 160.442 58.9209C160.238 59.1129 160.082 59.3409 159.986 59.5809C159.878 59.8449 159.83 60.1209 159.83 60.4089ZM162.206 64.4529C161.678 64.4529 161.222 64.4169 160.838 64.3329V65.5329H163.574V64.3329C163.166 64.4169 162.71 64.4529 162.206 64.4529ZM169.492 67.8969C169.372 67.8969 169.3 67.8729 169.252 67.8369C169.204 67.7889 169.18 67.7169 169.18 67.5969V66.0849C169.18 65.9649 169.204 65.8809 169.252 65.8449C169.3 65.7969 169.372 65.7849 169.492 65.7849H171.112C171.22 65.7849 171.304 65.7969 171.352 65.8449C171.4 65.8809 171.424 65.9649 171.424 66.0849V67.5969C171.424 67.7169 171.4 67.7889 171.352 67.8369C171.304 67.8729 171.22 67.8969 171.112 67.8969H169.492ZM169.492 65.0049C169.372 65.0049 169.3 64.9929 169.252 64.9449C169.204 64.9089 169.18 64.8249 169.18 64.7049V56.7969C169.18 56.6769 169.204 56.6049 169.252 56.5569C169.3 56.5209 169.372 56.4969 169.492 56.4969H171.112C171.22 56.4969 171.304 56.5209 171.352 56.5569C171.4 56.6049 171.424 56.6769 171.424 56.7969V64.7049C171.424 64.8249 171.4 64.9089 171.352 64.9449C171.304 64.9929 171.22 65.0049 171.112 65.0049H169.492Z" fill="#494949"/>
</svg>
