<svg width="375" height="149" viewBox="0 0 375 149" fill="none" xmlns="http://www.w3.org/2000/svg">
<path d="M378.398 0H-2.88764C-6.2634 0 -9 2.74535 -9 6.13191V142.68C-9 146.066 -6.2634 148.812 -2.88764 148.812H378.398C381.774 148.812 384.51 146.066 384.51 142.68V6.13191C384.51 2.74535 381.774 0 378.398 0Z" fill="#F5F1DE"/>
<mask id="mask0_188_3266" style="mask-type:alpha" maskUnits="userSpaceOnUse" x="-9" y="0" width="394" height="149">
<path d="M378.398 0H-2.88764C-6.2634 0 -9 2.74535 -9 6.13191V142.68C-9 146.066 -6.2634 148.812 -2.88764 148.812H378.398C381.774 148.812 384.51 146.066 384.51 142.68V6.13191C384.51 2.74535 381.774 0 378.398 0Z" fill="#F5F1DE"/>
</mask>
<g mask="url(#mask0_188_3266)">
<path d="M357.945 160.764C381.102 160.764 399.874 142.996 399.874 121.079C399.874 99.1625 381.102 81.3953 357.945 81.3953C334.789 81.3953 316.017 99.1625 316.017 121.079C316.017 142.996 334.789 160.764 357.945 160.764Z" fill="#629665"/>
<path d="M355.227 96.0585L350.296 97.2789C349.891 97.3785 349.652 97.7926 349.77 98.1942L351.049 102.624C351.252 103.319 350.43 103.854 349.876 103.39L345.804 99.9718C345.533 99.7446 345.134 99.7446 344.86 99.9718L340.788 103.39C340.234 103.854 339.412 103.322 339.615 102.624L340.894 98.1942C341.009 97.7957 340.769 97.3785 340.368 97.2789L335.437 96.0585C334.696 95.8748 334.696 94.8195 335.437 94.6358L340.368 93.4154C340.773 93.3158 341.012 92.9017 340.894 92.5001L339.615 88.07C339.412 87.3758 340.234 86.8403 340.788 87.3042L344.86 90.7225C345.131 90.9497 345.53 90.9497 345.804 90.7225L349.876 87.3042C350.43 86.8403 351.252 87.3727 351.049 88.07L349.77 92.5001C349.655 92.8986 349.894 93.3158 350.296 93.4154L355.227 94.6358C355.968 94.8195 355.968 95.8748 355.227 96.0585Z" fill="#537151"/>
<path d="M323.08 118.053C322.921 121.602 322.815 124.006 323.438 126.786C324.126 129.859 324.696 131.667 326.377 133.296C328.117 134.983 330.944 135.708 333.042 134.494C334.319 133.756 335.147 132.449 335.847 131.151C336.999 129.027 337.967 126.68 337.778 124.27C337.613 122.209 336.616 120.32 335.642 118.495C334.537 116.431 333.285 114.227 331.14 113.29C328.709 112.228 326.374 113.474 326.231 113.548C326.122 113.604 323.594 114.94 323.145 117.431C323.096 117.701 323.086 117.91 323.08 118.05V118.053Z" fill="#F5F1DE"/>
<path d="M325.601 116.014C324.565 116.793 324.493 118.281 324.459 118.972C324.393 120.317 324.758 121.325 325.054 122.138C325.648 123.776 326.585 125.379 328.089 126.26C328.515 126.509 329.007 126.699 329.496 126.627C329.954 126.562 330.346 126.275 330.685 125.964C332.046 124.722 332.855 122.895 332.861 121.055C332.868 119.212 332.074 117.381 330.726 116.126C330.156 115.597 329.375 114.875 328.35 114.906C327.416 114.934 326.302 115.591 325.925 115.815C325.76 115.915 325.676 115.961 325.601 116.017V116.014Z" fill="#222222"/>
<path d="M340.225 118.053C340.066 121.602 339.96 124.006 340.583 126.786C341.271 129.859 341.84 131.667 343.521 133.296C345.262 134.983 348.089 135.708 350.187 134.494C351.463 133.756 352.291 132.449 352.992 131.151C354.144 129.027 355.112 126.68 354.922 124.27C354.757 122.209 353.761 120.32 352.786 118.495C351.681 116.431 350.43 114.227 348.285 113.29C345.853 112.228 343.518 113.474 343.375 113.548C343.266 113.604 340.738 114.94 340.29 117.431C340.24 117.701 340.231 117.91 340.225 118.05V118.053Z" fill="#F5F1DE"/>
<path d="M342.746 116.014C341.709 116.793 341.638 118.281 341.603 118.972C341.538 120.317 341.902 121.325 342.198 122.138C342.793 123.776 343.73 125.379 345.233 126.26C345.66 126.509 346.152 126.699 346.641 126.627C347.098 126.562 347.49 126.275 347.83 125.964C349.19 124.722 350 122.895 350.006 121.055C350.012 119.212 349.218 117.381 347.87 116.126C347.301 115.597 346.519 114.875 345.495 114.906C344.561 114.934 343.446 115.591 343.07 115.815C342.905 115.915 342.821 115.961 342.746 116.017V116.014Z" fill="#222222"/>
<path d="M364.492 90.7628C381.49 90.7628 395.269 77.7207 395.269 61.6324C395.269 45.5442 381.49 32.5021 364.492 32.5021C347.494 32.5021 333.715 45.5442 333.715 61.6324C333.715 77.7207 347.494 90.7628 364.492 90.7628Z" fill="#F2AD48"/>
<path d="M362.496 43.2675L358.876 44.1641C358.58 44.2388 358.403 44.5408 358.49 44.8366L359.43 48.0899C359.576 48.6005 358.975 48.9927 358.568 48.6503L355.579 46.141C355.38 45.9729 355.087 45.9729 354.888 46.141L351.899 48.6503C351.491 48.9927 350.89 48.6005 351.037 48.0899L351.977 44.8366C352.061 44.5439 351.887 44.2388 351.591 44.1641L347.97 43.2675C347.425 43.1337 347.425 42.3585 347.97 42.2246L351.591 41.328C351.887 41.2533 352.064 40.9513 351.977 40.6555L351.037 37.4022C350.89 36.8917 351.491 36.4994 351.899 36.8418L354.888 39.3511C355.087 39.5192 355.38 39.5192 355.579 39.3511L358.568 36.8418C358.975 36.4994 359.576 36.8917 359.43 37.4022L358.49 40.6555C358.406 40.9482 358.58 41.2533 358.876 41.328L362.496 42.2246C363.041 42.3585 363.041 43.1337 362.496 43.2675Z" fill="#537151"/>
<path d="M338.902 59.4126C338.787 62.0184 338.709 63.7805 339.164 65.8227C339.668 68.0798 340.088 69.406 341.321 70.6015C342.598 71.8406 344.674 72.3729 346.215 71.4826C347.152 70.9409 347.759 69.9789 348.276 69.0293C349.12 67.4696 349.833 65.748 349.693 63.9797C349.571 62.4667 348.84 61.0782 348.124 59.7426C347.314 58.2296 346.393 56.6107 344.817 55.9227C343.033 55.1444 341.321 56.0566 341.215 56.1126C341.134 56.1531 339.282 57.1337 338.952 58.9612C338.915 59.1604 338.908 59.313 338.905 59.4157L338.902 59.4126Z" fill="#F5F1DE"/>
<path d="M340.751 57.9151C339.991 58.4848 339.938 59.5806 339.914 60.085C339.867 61.0719 340.135 61.8128 340.349 62.4074C340.785 63.6091 341.473 64.7859 342.578 65.4335C342.893 65.6172 343.251 65.7573 343.612 65.7043C343.948 65.6545 344.235 65.4459 344.487 65.2187C345.486 64.3065 346.081 62.9678 346.084 61.6136C346.09 60.2624 345.508 58.9175 344.515 57.996C344.098 57.6069 343.525 57.0776 342.772 57.0994C342.087 57.1212 341.268 57.6037 340.991 57.7656C340.869 57.8372 340.807 57.8746 340.751 57.9151Z" fill="#222222"/>
<path d="M351.485 59.4126C351.37 62.0184 351.292 63.7805 351.747 65.8227C352.251 68.0798 352.671 69.406 353.904 70.6015C355.181 71.8406 357.257 72.3729 358.798 71.4826C359.735 70.9409 360.342 69.9789 360.859 69.0293C361.703 67.4696 362.416 65.748 362.276 63.9797C362.154 62.4667 361.423 61.0782 360.707 59.7426C359.897 58.2296 358.976 56.6107 357.4 55.9227C355.616 55.1444 353.904 56.0566 353.798 56.1126C353.717 56.1531 351.865 57.1337 351.535 58.9612C351.498 59.1604 351.491 59.313 351.488 59.4157L351.485 59.4126Z" fill="#F5F1DE"/>
<path d="M353.334 57.9151C352.574 58.4848 352.521 59.5806 352.497 60.085C352.45 61.0719 352.718 61.8128 352.932 62.4074C353.368 63.6091 354.056 64.7859 355.161 65.4335C355.476 65.6172 355.834 65.7573 356.195 65.7043C356.531 65.6545 356.818 65.4459 357.07 65.2187C358.069 64.3065 358.664 62.9678 358.667 61.6136C358.673 60.2624 358.091 58.9175 357.098 57.996C356.681 57.6069 356.108 57.0776 355.354 57.0994C354.67 57.1212 353.851 57.6037 353.574 57.7656C353.452 57.8372 353.39 57.8746 353.334 57.9151Z" fill="#222222"/>
</g>
<path d="M227.61 142.981C256.073 142.981 279.147 134.823 279.147 124.759C279.147 114.696 256.073 106.537 227.61 106.537C199.148 106.537 176.074 114.696 176.074 124.759C176.074 134.823 199.148 142.981 227.61 142.981Z" fill="#D8D5C5"/>
<path d="M226.677 116.465C253.445 116.465 275.144 95.9273 275.144 70.5922C275.144 45.2571 253.445 24.719 226.677 24.719C199.91 24.719 178.211 45.2571 178.211 70.5922C178.211 95.9273 199.91 116.465 226.677 116.465Z" fill="#E24444"/>
<path d="M238.118 41.6705L232.414 43.0808C231.947 43.1959 231.67 43.6754 231.804 44.1361L233.286 49.2574C233.519 50.0606 232.57 50.6801 231.929 50.1415L227.224 46.1909C226.91 45.9262 226.449 45.9262 226.135 46.1909L221.431 50.1415C220.789 50.6801 219.84 50.0606 220.073 49.2574L221.555 44.1361C221.689 43.6754 221.412 43.1959 220.945 43.0808L215.242 41.6705C214.386 41.4588 214.386 40.2384 215.242 40.0267L220.945 38.6164C221.412 38.5012 221.689 38.0218 221.555 37.561L220.073 32.4398C219.84 31.6366 220.789 31.017 221.431 31.5556L226.135 35.5063C226.449 35.7709 226.91 35.7709 227.224 35.5063L231.929 31.5556C232.57 31.017 233.519 31.6366 233.286 32.4398L231.804 37.561C231.67 38.0218 231.947 38.5012 232.414 38.6164L238.118 40.0267C238.974 40.2384 238.974 41.4588 238.118 41.6705Z" fill="#4A734E"/>
<path d="M210.912 60.8883C208.944 62.4636 208.396 64.6428 207.749 67.37C207.12 70.0287 206.619 72.1363 207.117 74.9289C207.409 76.5758 207.808 78.7986 209.532 80.6074C212.45 83.6646 218.296 84.6484 221.497 81.8683C223.299 80.3023 224.295 77.9674 224.641 75.6045C224.99 73.2447 224.741 70.8381 224.401 68.4752C223.816 64.4 222.922 61.2868 220.205 59.7956C217.014 58.0491 213.01 59.7053 212.736 59.8236C212.322 60.001 211.649 60.2968 210.912 60.8852V60.8883Z" fill="#F5F1DE"/>
<path d="M215.338 65.0537C213.673 65.6203 212.873 67.0897 212.773 67.2796C212.337 68.1046 212.278 69.0012 212.378 70.7851C212.437 71.8498 212.558 72.9083 212.739 73.9606C212.873 74.7233 213.044 75.4954 213.43 76.1679C214.04 77.2295 215.189 77.9642 216.412 78.0669C217.633 78.1697 218.89 77.6404 219.669 76.694C220.41 75.7974 220.696 74.6175 220.927 73.4781C221.253 71.8623 221.509 70.1905 221.213 68.5685C221.007 67.4509 220.615 66.0561 219.373 65.3059C217.963 64.4528 216.082 64.8607 215.774 64.9323C215.668 64.9572 215.525 64.9914 215.338 65.0537Z" fill="#222222"/>
<path d="M242.442 60.8883C244.41 62.4636 244.958 64.6428 245.606 67.37C246.234 70.0287 246.736 72.1363 246.238 74.9289C245.945 76.5758 245.546 78.7986 243.822 80.6074C240.905 83.6646 235.058 84.6484 231.858 81.8683C230.055 80.3023 229.059 77.9674 228.713 75.6045C228.365 73.2447 228.614 70.8381 228.953 68.4752C229.538 64.4 230.432 61.2868 233.15 59.7956C236.341 58.0491 240.344 59.7053 240.618 59.8236C241.032 60.001 241.705 60.2968 242.442 60.8852V60.8883Z" fill="#F5F1DE"/>
<path d="M238.018 65.0537C239.683 65.6203 240.483 67.0897 240.583 67.2796C241.019 68.1046 241.078 69.0012 240.978 70.7851C240.919 71.8498 240.798 72.9083 240.617 73.9606C240.483 74.7233 240.312 75.4954 239.926 76.1679C239.316 77.2295 238.167 77.9642 236.944 78.0669C235.723 78.1697 234.466 77.6404 233.687 76.694C232.946 75.7974 232.66 74.6175 232.43 73.4781C232.103 71.8623 231.847 70.1905 232.143 68.5685C232.349 67.4509 232.741 66.0561 233.983 65.3059C235.393 64.4528 237.274 64.8607 237.582 64.9323C237.688 64.9572 237.831 64.9914 238.018 65.0537Z" fill="#222222"/>
<path d="M176.931 74.163C176.131 74.7763 164.232 84.0879 166.586 91.6499C167.162 93.496 168.884 96.1952 170.954 96.2512C173.086 96.3073 174.615 93.5894 176.187 91.4133C178.469 88.2596 182.301 84.2747 189.098 80.7785C189.088 80.7443 188.917 80.2151 188.363 80.0625C187.843 79.9224 187.441 80.2368 187.404 80.268" fill="#963030"/>
<path d="M181.716 67.5413C179.901 68.7679 162.274 80.925 165.013 90.2241C165.626 92.3038 167.644 95.5571 170.094 95.6692C172.494 95.7812 174.169 92.8268 176.295 90.165C178.848 86.9708 183.085 82.9081 190.395 79.4836" fill="#E24444"/>
<path d="M275.247 78.6959C276.047 78.0826 287.945 68.771 285.592 61.209C285.016 59.3629 283.294 56.6637 281.224 56.6077C279.091 56.5516 277.563 59.2695 275.991 61.4456C273.709 64.5993 269.876 68.5842 263.08 72.0803C263.089 72.1146 263.261 72.6438 263.815 72.7964C264.335 72.9365 264.736 72.622 264.774 72.5909" fill="#963030"/>
<path d="M270.464 85.3178C272.279 84.0912 289.906 71.9341 287.166 62.6349C286.553 60.5552 284.536 57.3019 282.085 57.1899C279.685 57.0778 278.01 60.0322 275.884 62.694C273.331 65.8882 269.094 69.9509 261.784 73.3755" fill="#E24444"/>
<path d="M208.441 103.315C207.075 108.237 205.711 113.156 204.344 118.078C203.996 118.069 199.715 118.041 197.561 121.365C197.228 121.879 196.175 123.504 196.53 125.354C197.405 129.886 205.671 131.206 208.438 131.652C211.558 132.15 213.444 132.455 215.129 131.35C217.448 129.83 217.806 126.714 218.17 123.1C218.958 115.285 219.512 109.37 219.889 105.195" fill="#E24444"/>
<path d="M244.913 103.315C246.28 108.237 247.643 113.156 249.01 118.078C249.359 118.069 253.639 118.041 255.794 121.365C256.127 121.879 257.179 123.504 256.824 125.354C255.949 129.886 247.684 131.206 244.916 131.652C241.797 132.15 239.91 132.455 238.226 131.35C235.907 129.83 235.549 126.714 235.184 123.1C234.397 115.285 233.843 109.37 233.466 105.195" fill="#E24444"/>
<path d="M173.179 31.375L174.265 33.4577C174.43 33.7659 174.732 33.9839 175.081 34.0337L177.375 34.3481C178.602 34.5162 179.078 36.0293 178.169 36.8698L176.597 38.3206C176.326 38.5728 176.198 38.9432 176.267 39.3075L176.65 41.4338C176.865 42.6168 175.632 43.5414 174.548 42.9997L172.357 41.9132C172.052 41.7638 171.694 41.7638 171.385 41.9132L169.194 42.9997C168.113 43.5352 166.881 42.6168 167.092 41.4338L167.475 39.3075C167.544 38.9463 167.416 38.5728 167.145 38.3206L165.573 36.8698C164.667 36.0324 165.14 34.5162 166.367 34.3481L168.661 34.0337C169.01 33.9839 169.315 33.7722 169.477 33.4577L170.563 31.375C171.118 30.3258 172.624 30.3258 173.172 31.375H173.179Z" fill="#F5D45D"/>
<path d="M288.748 91.314L289.834 93.3967C289.999 93.7049 290.301 93.9228 290.65 93.9727L292.945 94.2871C294.171 94.4552 294.647 95.9682 293.738 96.8088L292.166 98.2595C291.895 98.5117 291.768 98.8822 291.836 99.2464L292.219 101.373C292.434 102.556 291.201 103.48 290.118 102.939L287.926 101.852C287.621 101.703 287.263 101.703 286.955 101.852L284.763 102.939C283.683 103.474 282.45 102.556 282.662 101.373L283.045 99.2464C283.113 98.8853 282.985 98.5117 282.715 98.2595L281.142 96.8088C280.236 95.9713 280.71 94.4552 281.936 94.2871L284.231 93.9727C284.579 93.9228 284.884 93.7111 285.046 93.3967L286.133 91.314C286.687 90.2648 288.194 90.2648 288.742 91.314H288.748Z" fill="#F5D45D"/>
<path d="M280.314 43.2926L283.95 56.1315L261.697 62.3922L266.217 54.1889L258.061 49.5533L280.314 43.2926Z" fill="#F2AD48"/>
<path d="M300.459 54.6931L287.592 58.1893L293.697 80.4986L298.392 72.3949L306.564 77.0024L300.459 54.6931Z" fill="#F2AD48"/>
<path d="M305.976 22.0384C306.281 21.9575 306.596 22.1349 306.686 22.44L308.65 29.2237C308.707 29.4199 308.862 29.5724 309.058 29.6253L315.876 31.4684C316.181 31.5524 316.365 31.8637 316.29 32.1688L314.6 39.0148C314.55 39.214 314.609 39.4226 314.752 39.5658L319.74 44.5657C319.964 44.7898 319.967 45.1541 319.746 45.3813L314.858 50.459C314.718 50.6053 314.662 50.817 314.715 51.0131L316.539 57.8311C316.62 58.1362 316.443 58.4537 316.138 58.5409L309.36 60.4898C309.164 60.5458 309.012 60.7015 308.959 60.8976L307.128 67.7062C307.047 68.0113 306.733 68.195 306.428 68.1203L299.575 66.4173C299.379 66.3675 299.168 66.4267 299.024 66.5699L294.031 71.5479C293.807 71.7721 293.446 71.7752 293.218 71.5541L288.128 66.6539C287.982 66.5138 287.773 66.4578 287.574 66.5107L280.753 68.3226C280.448 68.4036 280.133 68.2261 280.043 67.921L278.079 61.1373C278.023 60.9412 277.867 60.7886 277.671 60.7357L270.853 58.8927C270.548 58.8086 270.364 58.4973 270.439 58.1922L272.129 51.3462C272.179 51.147 272.12 50.9384 271.977 50.7952L266.989 45.7954C266.765 45.5712 266.762 45.207 266.983 44.9797L271.871 39.9021C272.011 39.7557 272.067 39.544 272.014 39.3479L270.19 32.53C270.109 32.2249 270.286 31.9073 270.591 31.8202L277.369 29.8713C277.565 29.8152 277.718 29.6596 277.77 29.4635L279.601 22.6549C279.682 22.3498 279.996 22.1661 280.302 22.2408L287.154 23.9437C287.35 23.9935 287.562 23.9344 287.705 23.7912L292.698 18.8131C292.923 18.589 293.284 18.5859 293.511 18.8069L298.601 23.7071C298.747 23.8472 298.956 23.9033 299.155 23.8503L305.976 22.0384Z" fill="#4A734E"/>
<path d="M303.716 25.846C304.021 25.7651 304.335 25.9425 304.425 26.2476L306.023 31.7643C306.079 31.9604 306.234 32.1129 306.43 32.1659L311.978 33.6633C312.283 33.7474 312.467 34.0587 312.392 34.3638L311.016 39.9333C310.966 40.1326 311.026 40.3412 311.169 40.4844L315.228 44.5534C315.452 44.7775 315.456 45.1417 315.235 45.369L311.259 49.5002C311.119 49.6466 311.063 49.8583 311.116 50.0544L312.598 55.599C312.679 55.9041 312.501 56.2217 312.196 56.3089L306.683 57.8935C306.486 57.9495 306.334 58.1052 306.281 58.3013L304.793 63.8397C304.712 64.1448 304.397 64.3285 304.092 64.2538L298.517 62.8684C298.317 62.8186 298.109 62.8777 297.966 63.0209L293.903 67.0712C293.679 67.2954 293.318 67.2985 293.09 67.0775L288.95 63.0926C288.803 62.9525 288.595 62.8964 288.396 62.9493L282.848 64.4219C282.543 64.5028 282.228 64.3254 282.138 64.0203L280.541 58.5037C280.485 58.3075 280.329 58.155 280.133 58.1021L274.585 56.6046C274.28 56.5206 274.097 56.2092 274.171 55.9041L275.547 50.3346C275.597 50.1353 275.538 49.9268 275.395 49.7836L271.335 45.7146C271.111 45.4904 271.108 45.1262 271.329 44.8989L275.304 40.7677C275.445 40.6214 275.501 40.4097 275.448 40.2135L273.966 34.6689C273.885 34.3638 274.062 34.0462 274.367 33.9591L279.881 32.3744C280.077 32.3184 280.23 32.1628 280.283 31.9666L281.771 26.4282C281.852 26.1231 282.166 25.9394 282.471 26.0141L288.047 27.3995C288.243 27.4493 288.455 27.3902 288.598 27.247L292.661 23.1967C292.885 22.9725 293.246 22.9694 293.473 23.1905L297.614 27.1754C297.76 27.3155 297.969 27.3715 298.168 27.3186L303.716 25.846Z" fill="#F5F1DE"/>
<path d="M286.587 56.2808C293.358 60.1131 301.764 58.0584 305.362 51.6888C308.961 45.3222 306.39 37.0535 299.619 33.2212C292.847 29.3888 284.442 31.4435 280.843 37.8132C277.244 44.1797 279.815 52.4484 286.587 56.2808Z" fill="#E24444"/>
<path d="M299.862 39.0834L298.246 38.6413C298.112 38.6039 297.975 38.688 297.944 38.825L297.574 40.338C297.518 40.5746 297.191 40.5995 297.11 40.3722L296.512 38.7067C296.472 38.5946 296.357 38.5292 296.241 38.5541L294.504 38.8997C294.268 38.9464 294.121 38.6537 294.296 38.4825L295.401 37.3867C295.5 37.2902 295.5 37.1283 295.401 37.0318L294.19 35.8736C294.009 35.6993 294.184 35.388 294.426 35.4534L296.042 35.8954C296.176 35.9328 296.313 35.8487 296.344 35.7118L296.715 34.1987C296.771 33.9621 297.098 33.9372 297.178 34.1645L297.776 35.8301C297.817 35.9421 297.932 36.0075 298.047 35.9826L299.784 35.637C300.021 35.5903 300.167 35.883 299.993 36.0542L298.888 37.1501C298.788 37.2466 298.788 37.4085 298.888 37.505L300.099 38.6631C300.279 38.8374 300.105 39.1488 299.862 39.0834Z" fill="#4A734E"/>
<path d="M290.409 39.9146C289.681 40.036 289.226 40.5123 288.666 41.1163C288.121 41.7047 287.689 42.1717 287.411 42.9593C287.25 43.4232 287.029 44.049 287.209 44.7588C287.511 45.9636 288.859 47.0563 290.073 46.8041C290.758 46.6641 291.35 46.2095 291.779 45.6585C292.209 45.1074 292.492 44.4537 292.748 43.803C293.186 42.676 293.408 41.7514 292.931 40.9824C292.371 40.0765 291.113 39.9208 291.023 39.9146C290.892 39.9022 290.677 39.8772 290.403 39.9239V39.9177L290.409 39.9146Z" fill="#F5F1DE"/>
<path d="M291.001 41.5863C290.496 41.4929 290.082 41.7575 290.029 41.7917C289.799 41.9412 289.656 42.1622 289.419 42.6354C289.279 42.9156 289.158 43.2051 289.049 43.504C288.971 43.7188 288.902 43.9398 288.902 44.1702C288.902 44.5314 289.089 44.8832 289.382 45.0855C289.674 45.2879 290.07 45.3315 290.406 45.1976C290.724 45.0731 290.966 44.8115 291.191 44.5531C291.508 44.1827 291.816 43.7935 291.975 43.3359C292.087 43.0183 292.187 42.6074 291.984 42.2338C291.751 41.8135 291.219 41.6485 291.128 41.6236C291.097 41.6143 291.06 41.6018 291.001 41.5925V41.5863Z" fill="#222222"/>
<path d="M298.348 44.4069C298.619 45.0949 298.448 45.73 298.217 46.5208C297.993 47.2897 297.816 47.903 297.286 48.5443C296.972 48.921 296.552 49.4347 295.848 49.6464C294.662 50.0076 293.031 49.416 292.62 48.2424C292.386 47.5824 292.47 46.8414 292.723 46.1876C292.975 45.5339 293.386 44.9548 293.812 44.4007C294.55 43.4449 295.229 42.7756 296.135 42.788C297.199 42.8005 297.981 43.7998 298.034 43.8745C298.115 43.9804 298.242 44.1516 298.345 44.41H298.351L298.348 44.4069Z" fill="#F5F1DE"/>
<path d="M296.708 44.8148C296.995 45.1697 296.957 45.646 296.951 45.7083C296.929 45.9729 296.811 46.2095 296.531 46.6578C296.363 46.9255 296.182 47.1808 295.989 47.4299C295.849 47.6104 295.7 47.7879 295.516 47.9093C295.226 48.1054 294.865 48.149 294.582 48.0245C294.296 47.9 294.096 47.6042 294.062 47.2618C294.028 46.938 294.137 46.5986 294.249 46.278C294.411 45.8203 294.594 45.3596 294.896 44.9829C295.105 44.7214 295.391 44.4132 295.777 44.3758C296.213 44.3322 296.571 44.6716 296.627 44.7307C296.649 44.7494 296.674 44.7743 296.708 44.8148Z" fill="#222222"/>
<path d="M186.126 29.4167C187.359 29.4167 188.358 28.4174 188.358 27.1846C188.358 25.9518 187.359 24.9524 186.126 24.9524C184.893 24.9524 183.894 25.9518 183.894 27.1846C183.894 28.4174 184.893 29.4167 186.126 29.4167Z" fill="#F5D45D"/>
<path d="M273.987 106.264C275.22 106.264 276.219 105.264 276.219 104.031C276.219 102.799 275.22 101.799 273.987 101.799C272.754 101.799 271.755 102.799 271.755 104.031C271.755 105.264 272.754 106.264 273.987 106.264Z" fill="#F5D45D"/>
<mask id="mask1_188_3266" style="mask-type:alpha" maskUnits="userSpaceOnUse" x="-9" y="0" width="394" height="149">
<path d="M378.398 0H-2.88764C-6.2634 0 -9 2.74535 -9 6.13191V142.68C-9 146.066 -6.2634 148.812 -2.88764 148.812H378.398C381.774 148.812 384.51 146.066 384.51 142.68V6.13191C384.51 2.74535 381.774 0 378.398 0Z" fill="#F5F1DE"/>
</mask>
<g mask="url(#mask1_188_3266)">
<path d="M357.945 160.764C381.102 160.764 399.874 142.996 399.874 121.079C399.874 99.1625 381.102 81.3953 357.945 81.3953C334.789 81.3953 316.017 99.1625 316.017 121.079C316.017 142.996 334.789 160.764 357.945 160.764Z" fill="#629665"/>
<path d="M355.227 96.0585L350.296 97.2789C349.891 97.3785 349.652 97.7926 349.77 98.1942L351.049 102.624C351.252 103.319 350.43 103.854 349.876 103.39L345.804 99.9718C345.533 99.7446 345.134 99.7446 344.86 99.9718L340.788 103.39C340.234 103.854 339.412 103.322 339.615 102.624L340.894 98.1942C341.009 97.7957 340.769 97.3785 340.368 97.2789L335.437 96.0585C334.696 95.8748 334.696 94.8195 335.437 94.6358L340.368 93.4154C340.773 93.3158 341.012 92.9017 340.894 92.5001L339.615 88.07C339.412 87.3758 340.234 86.8403 340.788 87.3042L344.86 90.7225C345.131 90.9497 345.53 90.9497 345.804 90.7225L349.876 87.3042C350.43 86.8403 351.252 87.3727 351.049 88.07L349.77 92.5001C349.655 92.8986 349.894 93.3158 350.296 93.4154L355.227 94.6358C355.968 94.8195 355.968 95.8748 355.227 96.0585Z" fill="#537151"/>
<path d="M323.08 118.053C322.921 121.602 322.815 124.006 323.438 126.786C324.126 129.859 324.696 131.667 326.377 133.296C328.117 134.983 330.944 135.708 333.042 134.494C334.319 133.756 335.147 132.449 335.847 131.151C336.999 129.027 337.967 126.68 337.778 124.27C337.613 122.209 336.616 120.32 335.642 118.495C334.537 116.431 333.285 114.227 331.14 113.29C328.709 112.228 326.374 113.474 326.231 113.548C326.122 113.604 323.594 114.94 323.145 117.431C323.096 117.701 323.086 117.91 323.08 118.05V118.053Z" fill="#F5F1DE"/>
<path d="M325.601 116.014C324.565 116.793 324.493 118.281 324.459 118.972C324.393 120.317 324.758 121.325 325.054 122.138C325.648 123.776 326.585 125.379 328.089 126.26C328.515 126.509 329.007 126.699 329.496 126.627C329.954 126.562 330.346 126.275 330.685 125.964C332.046 124.722 332.855 122.895 332.861 121.055C332.868 119.212 332.074 117.381 330.726 116.126C330.156 115.597 329.375 114.875 328.35 114.906C327.416 114.934 326.302 115.591 325.925 115.815C325.76 115.915 325.676 115.961 325.601 116.017V116.014Z" fill="#222222"/>
<path d="M340.225 118.053C340.066 121.602 339.96 124.006 340.583 126.786C341.271 129.859 341.84 131.667 343.521 133.296C345.262 134.983 348.089 135.708 350.187 134.494C351.463 133.756 352.291 132.449 352.992 131.151C354.144 129.027 355.112 126.68 354.922 124.27C354.757 122.209 353.761 120.32 352.786 118.495C351.681 116.431 350.43 114.227 348.285 113.29C345.853 112.228 343.518 113.474 343.375 113.548C343.266 113.604 340.738 114.94 340.29 117.431C340.24 117.701 340.231 117.91 340.225 118.05V118.053Z" fill="#F5F1DE"/>
<path d="M342.746 116.014C341.709 116.793 341.638 118.281 341.603 118.972C341.538 120.317 341.902 121.325 342.198 122.138C342.793 123.776 343.73 125.379 345.233 126.26C345.66 126.509 346.152 126.699 346.641 126.627C347.098 126.562 347.49 126.275 347.83 125.964C349.19 124.722 350 122.895 350.006 121.055C350.012 119.212 349.218 117.381 347.87 116.126C347.301 115.597 346.519 114.875 345.495 114.906C344.561 114.934 343.446 115.591 343.07 115.815C342.905 115.915 342.821 115.961 342.746 116.017V116.014Z" fill="#222222"/>
<path d="M364.492 90.7628C381.49 90.7628 395.269 77.7207 395.269 61.6324C395.269 45.5442 381.49 32.5021 364.492 32.5021C347.494 32.5021 333.715 45.5442 333.715 61.6324C333.715 77.7207 347.494 90.7628 364.492 90.7628Z" fill="#F2AD48"/>
<path d="M362.496 43.2675L358.876 44.1641C358.58 44.2388 358.403 44.5408 358.49 44.8366L359.43 48.0899C359.576 48.6005 358.975 48.9927 358.568 48.6503L355.579 46.141C355.38 45.9729 355.087 45.9729 354.888 46.141L351.899 48.6503C351.491 48.9927 350.89 48.6005 351.037 48.0899L351.977 44.8366C352.061 44.5439 351.887 44.2388 351.591 44.1641L347.97 43.2675C347.425 43.1337 347.425 42.3585 347.97 42.2246L351.591 41.328C351.887 41.2533 352.064 40.9513 351.977 40.6555L351.037 37.4022C350.89 36.8917 351.491 36.4994 351.899 36.8418L354.888 39.3511C355.087 39.5192 355.38 39.5192 355.579 39.3511L358.568 36.8418C358.975 36.4994 359.576 36.8917 359.43 37.4022L358.49 40.6555C358.406 40.9482 358.58 41.2533 358.876 41.328L362.496 42.2246C363.041 42.3585 363.041 43.1337 362.496 43.2675Z" fill="#537151"/>
<path d="M338.902 59.4126C338.787 62.0184 338.709 63.7805 339.164 65.8227C339.668 68.0798 340.088 69.406 341.321 70.6015C342.598 71.8406 344.674 72.3729 346.215 71.4826C347.152 70.9409 347.759 69.9789 348.276 69.0293C349.12 67.4696 349.833 65.748 349.693 63.9797C349.571 62.4667 348.84 61.0782 348.124 59.7426C347.314 58.2296 346.393 56.6107 344.817 55.9227C343.033 55.1444 341.321 56.0566 341.215 56.1126C341.134 56.1531 339.282 57.1337 338.952 58.9612C338.915 59.1604 338.908 59.313 338.905 59.4157L338.902 59.4126Z" fill="#F5F1DE"/>
<path d="M340.751 57.9151C339.991 58.4848 339.938 59.5806 339.914 60.085C339.867 61.0719 340.135 61.8128 340.349 62.4074C340.785 63.6091 341.473 64.7859 342.578 65.4335C342.893 65.6172 343.251 65.7573 343.612 65.7043C343.948 65.6545 344.235 65.4459 344.487 65.2187C345.486 64.3065 346.081 62.9678 346.084 61.6136C346.09 60.2624 345.508 58.9175 344.515 57.996C344.098 57.6069 343.525 57.0776 342.772 57.0994C342.087 57.1212 341.268 57.6037 340.991 57.7656C340.869 57.8372 340.807 57.8746 340.751 57.9151Z" fill="#222222"/>
<path d="M351.485 59.4126C351.37 62.0184 351.292 63.7805 351.747 65.8227C352.251 68.0798 352.671 69.406 353.904 70.6015C355.181 71.8406 357.257 72.3729 358.798 71.4826C359.735 70.9409 360.342 69.9789 360.859 69.0293C361.703 67.4696 362.416 65.748 362.276 63.9797C362.154 62.4667 361.423 61.0782 360.707 59.7426C359.897 58.2296 358.976 56.6107 357.4 55.9227C355.616 55.1444 353.904 56.0566 353.798 56.1126C353.717 56.1531 351.865 57.1337 351.535 58.9612C351.498 59.1604 351.491 59.313 351.488 59.4157L351.485 59.4126Z" fill="#F5F1DE"/>
<path d="M353.334 57.9151C352.574 58.4848 352.521 59.5806 352.497 60.085C352.45 61.0719 352.718 61.8128 352.932 62.4074C353.368 63.6091 354.056 64.7859 355.161 65.4335C355.476 65.6172 355.834 65.7573 356.195 65.7043C356.531 65.6545 356.818 65.4459 357.07 65.2187C358.069 64.3065 358.664 62.9678 358.667 61.6136C358.673 60.2624 358.091 58.9175 357.098 57.996C356.681 57.6069 356.108 57.0776 355.354 57.0994C354.67 57.1212 353.851 57.6037 353.574 57.7656C353.452 57.8372 353.39 57.8746 353.334 57.9151Z" fill="#222222"/>
</g>
<path d="M378.398 0H-2.88764C-6.2634 0 -9 2.74535 -9 6.13191V142.68C-9 146.066 -6.2634 148.812 -2.88764 148.812H378.398C381.774 148.812 384.51 146.066 384.51 142.68V6.13191C384.51 2.74535 381.774 0 378.398 0Z" fill="#F5F1DE"/>
<path d="M227.61 142.981C256.073 142.981 279.147 134.823 279.147 124.759C279.147 114.696 256.073 106.537 227.61 106.537C199.148 106.537 176.074 114.696 176.074 124.759C176.074 134.823 199.148 142.981 227.61 142.981Z" fill="#D8D5C5"/>
<path d="M226.677 116.465C253.445 116.465 275.144 95.9273 275.144 70.5922C275.144 45.2571 253.445 24.719 226.677 24.719C199.91 24.719 178.211 45.2571 178.211 70.5922C178.211 95.9273 199.91 116.465 226.677 116.465Z" fill="#E24444"/>
<path d="M238.118 41.6705L232.414 43.0808C231.947 43.1959 231.67 43.6754 231.804 44.1361L233.286 49.2574C233.519 50.0606 232.57 50.6801 231.929 50.1415L227.224 46.1909C226.91 45.9262 226.449 45.9262 226.135 46.1909L221.431 50.1415C220.789 50.6801 219.84 50.0606 220.073 49.2574L221.555 44.1361C221.689 43.6754 221.412 43.1959 220.945 43.0808L215.242 41.6705C214.386 41.4588 214.386 40.2384 215.242 40.0267L220.945 38.6164C221.412 38.5012 221.689 38.0218 221.555 37.561L220.073 32.4398C219.84 31.6366 220.789 31.017 221.431 31.5556L226.135 35.5063C226.449 35.7709 226.91 35.7709 227.224 35.5063L231.929 31.5556C232.57 31.017 233.519 31.6366 233.286 32.4398L231.804 37.561C231.67 38.0218 231.947 38.5012 232.414 38.6164L238.118 40.0267C238.974 40.2384 238.974 41.4588 238.118 41.6705Z" fill="#4A734E"/>
<path d="M210.912 60.8883C208.944 62.4636 208.396 64.6428 207.749 67.37C207.12 70.0287 206.619 72.1363 207.117 74.9289C207.409 76.5758 207.808 78.7986 209.532 80.6074C212.45 83.6646 218.296 84.6484 221.497 81.8683C223.299 80.3023 224.295 77.9674 224.641 75.6045C224.99 73.2447 224.741 70.8381 224.401 68.4752C223.816 64.4 222.922 61.2868 220.205 59.7956C217.014 58.0491 213.01 59.7053 212.736 59.8236C212.322 60.001 211.649 60.2968 210.912 60.8852V60.8883Z" fill="#F5F1DE"/>
<path d="M215.338 65.0537C213.673 65.6203 212.873 67.0897 212.773 67.2796C212.337 68.1046 212.278 69.0012 212.378 70.7851C212.437 71.8498 212.558 72.9083 212.739 73.9606C212.873 74.7233 213.044 75.4954 213.43 76.1679C214.04 77.2295 215.189 77.9642 216.412 78.0669C217.633 78.1697 218.89 77.6404 219.669 76.694C220.41 75.7974 220.696 74.6175 220.927 73.4781C221.253 71.8623 221.509 70.1905 221.213 68.5685C221.007 67.4509 220.615 66.0561 219.373 65.3059C217.963 64.4528 216.082 64.8607 215.774 64.9323C215.668 64.9572 215.525 64.9914 215.338 65.0537Z" fill="#222222"/>
<path d="M242.442 60.8883C244.41 62.4636 244.958 64.6428 245.606 67.37C246.234 70.0287 246.736 72.1363 246.238 74.9289C245.945 76.5758 245.546 78.7986 243.822 80.6074C240.905 83.6646 235.058 84.6484 231.858 81.8683C230.055 80.3023 229.059 77.9674 228.713 75.6045C228.365 73.2447 228.614 70.8381 228.953 68.4752C229.538 64.4 230.432 61.2868 233.15 59.7956C236.341 58.0491 240.344 59.7053 240.618 59.8236C241.032 60.001 241.705 60.2968 242.442 60.8852V60.8883Z" fill="#F5F1DE"/>
<path d="M238.018 65.0537C239.683 65.6203 240.483 67.0897 240.583 67.2796C241.019 68.1046 241.078 69.0012 240.978 70.7851C240.919 71.8498 240.798 72.9083 240.617 73.9606C240.483 74.7233 240.312 75.4954 239.926 76.1679C239.316 77.2295 238.167 77.9642 236.944 78.0669C235.723 78.1697 234.466 77.6404 233.687 76.694C232.946 75.7974 232.66 74.6175 232.43 73.4781C232.103 71.8623 231.847 70.1905 232.143 68.5685C232.349 67.4509 232.741 66.0561 233.983 65.3059C235.393 64.4528 237.274 64.8607 237.582 64.9323C237.688 64.9572 237.831 64.9914 238.018 65.0537Z" fill="#222222"/>
<path d="M176.931 74.163C176.131 74.7763 164.232 84.0879 166.586 91.6499C167.162 93.496 168.884 96.1952 170.954 96.2512C173.086 96.3073 174.615 93.5894 176.187 91.4133C178.469 88.2596 182.301 84.2747 189.098 80.7785C189.088 80.7443 188.917 80.2151 188.363 80.0625C187.843 79.9224 187.441 80.2368 187.404 80.268" fill="#963030"/>
<path d="M181.716 67.5413C179.901 68.7679 162.274 80.925 165.013 90.2241C165.626 92.3038 167.644 95.5571 170.094 95.6692C172.494 95.7812 174.169 92.8268 176.295 90.165C178.848 86.9708 183.085 82.9081 190.395 79.4836" fill="#E24444"/>
<path d="M275.247 78.6959C276.047 78.0826 287.945 68.771 285.592 61.209C285.016 59.3629 283.294 56.6637 281.224 56.6077C279.091 56.5516 277.563 59.2695 275.991 61.4456C273.709 64.5993 269.876 68.5842 263.08 72.0803C263.089 72.1146 263.261 72.6438 263.815 72.7964C264.335 72.9365 264.736 72.622 264.774 72.5909" fill="#963030"/>
<path d="M270.464 85.3178C272.279 84.0912 289.906 71.9341 287.166 62.6349C286.553 60.5552 284.536 57.3019 282.085 57.1899C279.685 57.0778 278.01 60.0322 275.884 62.694C273.331 65.8882 269.094 69.9509 261.784 73.3755" fill="#E24444"/>
<path d="M208.441 103.315C207.075 108.237 205.711 113.156 204.344 118.078C203.996 118.069 199.715 118.041 197.561 121.365C197.228 121.879 196.175 123.504 196.53 125.354C197.405 129.886 205.671 131.206 208.438 131.652C211.558 132.15 213.444 132.455 215.129 131.35C217.448 129.83 217.806 126.714 218.17 123.1C218.958 115.285 219.512 109.37 219.889 105.195" fill="#E24444"/>
<path d="M244.913 103.315C246.28 108.237 247.643 113.156 249.01 118.078C249.359 118.069 253.639 118.041 255.794 121.365C256.127 121.879 257.179 123.504 256.824 125.354C255.949 129.886 247.684 131.206 244.916 131.652C241.797 132.15 239.91 132.455 238.226 131.35C235.907 129.83 235.549 126.714 235.184 123.1C234.397 115.285 233.843 109.37 233.466 105.195" fill="#E24444"/>
<path d="M173.179 31.375L174.265 33.4577C174.43 33.7659 174.732 33.9839 175.081 34.0337L177.375 34.3481C178.602 34.5162 179.078 36.0293 178.169 36.8698L176.597 38.3206C176.326 38.5728 176.198 38.9432 176.267 39.3075L176.65 41.4338C176.865 42.6168 175.632 43.5414 174.548 42.9997L172.357 41.9132C172.052 41.7638 171.694 41.7638 171.385 41.9132L169.194 42.9997C168.113 43.5352 166.881 42.6168 167.092 41.4338L167.475 39.3075C167.544 38.9463 167.416 38.5728 167.145 38.3206L165.573 36.8698C164.667 36.0324 165.14 34.5162 166.367 34.3481L168.661 34.0337C169.01 33.9839 169.315 33.7722 169.477 33.4577L170.563 31.375C171.118 30.3258 172.624 30.3258 173.172 31.375H173.179Z" fill="#F5D45D"/>
<path d="M288.748 91.314L289.834 93.3967C289.999 93.7049 290.301 93.9228 290.65 93.9727L292.945 94.2871C294.171 94.4552 294.647 95.9682 293.738 96.8088L292.166 98.2595C291.895 98.5117 291.768 98.8822 291.836 99.2464L292.219 101.373C292.434 102.556 291.201 103.48 290.118 102.939L287.926 101.852C287.621 101.703 287.263 101.703 286.955 101.852L284.763 102.939C283.683 103.474 282.45 102.556 282.662 101.373L283.045 99.2464C283.113 98.8853 282.985 98.5117 282.715 98.2595L281.142 96.8088C280.236 95.9713 280.71 94.4552 281.936 94.2871L284.231 93.9727C284.579 93.9228 284.884 93.7111 285.046 93.3967L286.133 91.314C286.687 90.2648 288.194 90.2648 288.742 91.314H288.748Z" fill="#F5D45D"/>
<path d="M280.314 43.2926L283.95 56.1315L261.697 62.3922L266.217 54.1889L258.061 49.5533L280.314 43.2926Z" fill="#F2AD48"/>
<path d="M300.459 54.6931L287.592 58.1893L293.697 80.4986L298.392 72.3949L306.564 77.0024L300.459 54.6931Z" fill="#F2AD48"/>
<path d="M305.976 22.0384C306.281 21.9575 306.596 22.1349 306.686 22.44L308.65 29.2237C308.707 29.4199 308.862 29.5724 309.058 29.6253L315.876 31.4684C316.181 31.5524 316.365 31.8637 316.29 32.1688L314.6 39.0148C314.55 39.214 314.609 39.4226 314.752 39.5658L319.74 44.5657C319.964 44.7898 319.967 45.1541 319.746 45.3813L314.858 50.459C314.718 50.6053 314.662 50.817 314.715 51.0131L316.539 57.8311C316.62 58.1362 316.443 58.4537 316.138 58.5409L309.36 60.4898C309.164 60.5458 309.012 60.7015 308.959 60.8976L307.128 67.7062C307.047 68.0113 306.733 68.195 306.428 68.1203L299.575 66.4173C299.379 66.3675 299.168 66.4267 299.024 66.5699L294.031 71.5479C293.807 71.7721 293.446 71.7752 293.218 71.5541L288.128 66.6539C287.982 66.5138 287.773 66.4578 287.574 66.5107L280.753 68.3226C280.448 68.4036 280.133 68.2261 280.043 67.921L278.079 61.1373C278.023 60.9412 277.867 60.7886 277.671 60.7357L270.853 58.8927C270.548 58.8086 270.364 58.4973 270.439 58.1922L272.129 51.3462C272.179 51.147 272.12 50.9384 271.977 50.7952L266.989 45.7954C266.765 45.5712 266.762 45.207 266.983 44.9797L271.871 39.9021C272.011 39.7557 272.067 39.544 272.014 39.3479L270.19 32.53C270.109 32.2249 270.286 31.9073 270.591 31.8202L277.369 29.8713C277.565 29.8152 277.718 29.6596 277.77 29.4635L279.601 22.6549C279.682 22.3498 279.996 22.1661 280.302 22.2408L287.154 23.9437C287.35 23.9935 287.562 23.9344 287.705 23.7912L292.698 18.8131C292.923 18.589 293.284 18.5859 293.511 18.8069L298.601 23.7071C298.747 23.8472 298.956 23.9033 299.155 23.8503L305.976 22.0384Z" fill="#4A734E"/>
<path d="M303.716 25.846C304.021 25.7651 304.335 25.9425 304.425 26.2476L306.023 31.7643C306.079 31.9604 306.234 32.1129 306.43 32.1659L311.978 33.6633C312.283 33.7474 312.467 34.0587 312.392 34.3638L311.016 39.9333C310.966 40.1326 311.026 40.3412 311.169 40.4844L315.228 44.5534C315.452 44.7775 315.456 45.1417 315.235 45.369L311.259 49.5002C311.119 49.6466 311.063 49.8583 311.116 50.0544L312.598 55.599C312.679 55.9041 312.501 56.2217 312.196 56.3089L306.683 57.8935C306.486 57.9495 306.334 58.1052 306.281 58.3013L304.793 63.8397C304.712 64.1448 304.397 64.3285 304.092 64.2538L298.517 62.8684C298.317 62.8186 298.109 62.8777 297.966 63.0209L293.903 67.0712C293.679 67.2954 293.318 67.2985 293.09 67.0775L288.95 63.0926C288.803 62.9525 288.595 62.8964 288.396 62.9493L282.848 64.4219C282.543 64.5028 282.228 64.3254 282.138 64.0203L280.541 58.5037C280.485 58.3075 280.329 58.155 280.133 58.1021L274.585 56.6046C274.28 56.5206 274.097 56.2092 274.171 55.9041L275.547 50.3346C275.597 50.1353 275.538 49.9268 275.395 49.7836L271.335 45.7146C271.111 45.4904 271.108 45.1262 271.329 44.8989L275.304 40.7677C275.445 40.6214 275.501 40.4097 275.448 40.2135L273.966 34.6689C273.885 34.3638 274.062 34.0462 274.367 33.9591L279.881 32.3744C280.077 32.3184 280.23 32.1628 280.283 31.9666L281.771 26.4282C281.852 26.1231 282.166 25.9394 282.471 26.0141L288.047 27.3995C288.243 27.4493 288.455 27.3902 288.598 27.247L292.661 23.1967C292.885 22.9725 293.246 22.9694 293.473 23.1905L297.614 27.1754C297.76 27.3155 297.969 27.3715 298.168 27.3186L303.716 25.846Z" fill="#F5F1DE"/>
<path d="M286.587 56.2808C293.358 60.1131 301.764 58.0584 305.362 51.6888C308.961 45.3222 306.39 37.0535 299.619 33.2212C292.847 29.3888 284.442 31.4435 280.843 37.8132C277.244 44.1797 279.815 52.4484 286.587 56.2808Z" fill="#E24444"/>
<path d="M299.862 39.0834L298.246 38.6413C298.112 38.6039 297.975 38.688 297.944 38.825L297.574 40.338C297.518 40.5746 297.191 40.5995 297.11 40.3722L296.512 38.7067C296.472 38.5946 296.357 38.5292 296.241 38.5541L294.504 38.8997C294.268 38.9464 294.121 38.6537 294.296 38.4825L295.401 37.3867C295.5 37.2902 295.5 37.1283 295.401 37.0318L294.19 35.8736C294.009 35.6993 294.184 35.388 294.426 35.4534L296.042 35.8954C296.176 35.9328 296.313 35.8487 296.344 35.7118L296.715 34.1987C296.771 33.9621 297.098 33.9372 297.178 34.1645L297.776 35.8301C297.817 35.9421 297.932 36.0075 298.047 35.9826L299.784 35.637C300.021 35.5903 300.167 35.883 299.993 36.0542L298.888 37.1501C298.788 37.2466 298.788 37.4085 298.888 37.505L300.099 38.6631C300.279 38.8374 300.105 39.1488 299.862 39.0834Z" fill="#4A734E"/>
<path d="M290.409 39.9146C289.681 40.036 289.226 40.5123 288.666 41.1163C288.121 41.7047 287.689 42.1717 287.411 42.9593C287.25 43.4232 287.029 44.049 287.209 44.7588C287.511 45.9636 288.859 47.0563 290.073 46.8041C290.758 46.6641 291.35 46.2095 291.779 45.6585C292.209 45.1074 292.492 44.4537 292.748 43.803C293.186 42.676 293.408 41.7514 292.931 40.9824C292.371 40.0765 291.113 39.9208 291.023 39.9146C290.892 39.9022 290.677 39.8772 290.403 39.9239V39.9177L290.409 39.9146Z" fill="#F5F1DE"/>
<path d="M291.001 41.5863C290.496 41.4929 290.082 41.7575 290.029 41.7917C289.799 41.9412 289.656 42.1622 289.419 42.6354C289.279 42.9156 289.158 43.2051 289.049 43.504C288.971 43.7188 288.902 43.9398 288.902 44.1702C288.902 44.5314 289.089 44.8832 289.382 45.0855C289.674 45.2879 290.07 45.3315 290.406 45.1976C290.724 45.0731 290.966 44.8115 291.191 44.5531C291.508 44.1827 291.816 43.7935 291.975 43.3359C292.087 43.0183 292.187 42.6074 291.984 42.2338C291.751 41.8135 291.219 41.6485 291.128 41.6236C291.097 41.6143 291.06 41.6018 291.001 41.5925V41.5863Z" fill="#222222"/>
<path d="M298.348 44.4069C298.619 45.0949 298.448 45.73 298.217 46.5208C297.993 47.2897 297.816 47.903 297.286 48.5443C296.972 48.921 296.552 49.4347 295.848 49.6464C294.662 50.0076 293.031 49.416 292.62 48.2424C292.386 47.5824 292.47 46.8414 292.723 46.1876C292.975 45.5339 293.386 44.9548 293.812 44.4007C294.55 43.4449 295.229 42.7756 296.135 42.788C297.199 42.8005 297.981 43.7998 298.034 43.8745C298.115 43.9804 298.242 44.1516 298.345 44.41H298.351L298.348 44.4069Z" fill="#F5F1DE"/>
<path d="M296.708 44.8148C296.995 45.1697 296.957 45.646 296.951 45.7083C296.929 45.9729 296.811 46.2095 296.531 46.6578C296.363 46.9255 296.182 47.1808 295.989 47.4299C295.849 47.6104 295.7 47.7879 295.516 47.9093C295.226 48.1054 294.865 48.149 294.582 48.0245C294.296 47.9 294.096 47.6042 294.062 47.2618C294.028 46.938 294.137 46.5986 294.249 46.278C294.411 45.8203 294.594 45.3596 294.896 44.9829C295.105 44.7214 295.391 44.4132 295.777 44.3758C296.213 44.3322 296.571 44.6716 296.627 44.7307C296.649 44.7494 296.674 44.7743 296.708 44.8148Z" fill="#222222"/>
<path d="M186.126 29.4167C187.359 29.4167 188.358 28.4174 188.358 27.1846C188.358 25.9518 187.359 24.9524 186.126 24.9524C184.893 24.9524 183.894 25.9518 183.894 27.1846C183.894 28.4174 184.893 29.4167 186.126 29.4167Z" fill="#F5D45D"/>
<path d="M273.987 106.264C275.22 106.264 276.219 105.264 276.219 104.031C276.219 102.799 275.22 101.799 273.987 101.799C272.754 101.799 271.755 102.799 271.755 104.031C271.755 105.264 272.754 106.264 273.987 106.264Z" fill="#F5D45D"/>
<mask id="mask2_188_3266" style="mask-type:alpha" maskUnits="userSpaceOnUse" x="-9" y="-1" width="394" height="150">
<path d="M378.398 -0.00012207H-2.88763C-6.2634 -0.00012207 -9 2.74523 -9 6.13179V142.68C-9 146.066 -6.2634 148.812 -2.88763 148.812H378.398C381.774 148.812 384.51 146.066 384.51 142.68V6.13179C384.51 2.74523 381.774 -0.00012207 378.398 -0.00012207Z" fill="#F5F1DE"/>
</mask>
<g mask="url(#mask2_188_3266)">
<path d="M357.945 160.763C381.102 160.763 399.874 142.996 399.874 121.079C399.874 99.1622 381.102 81.395 357.945 81.395C334.789 81.395 316.017 99.1622 316.017 121.079C316.017 142.996 334.789 160.763 357.945 160.763Z" fill="#629665"/>
<path d="M355.227 96.0584L350.296 97.2788C349.891 97.3784 349.652 97.7925 349.77 98.1941L351.049 102.624C351.252 103.318 350.43 103.854 349.876 103.39L345.804 99.9717C345.533 99.7444 345.134 99.7444 344.86 99.9717L340.788 103.39C340.234 103.854 339.412 103.322 339.615 102.624L340.894 98.1941C341.009 97.7956 340.769 97.3784 340.368 97.2788L335.437 96.0584C334.696 95.8747 334.696 94.8193 335.437 94.6357L340.368 93.4153C340.773 93.3157 341.012 92.9016 340.894 92.5L339.615 88.0699C339.412 87.3756 340.234 86.8402 340.788 87.304L344.86 90.7223C345.131 90.9496 345.53 90.9496 345.804 90.7223L349.876 87.304C350.43 86.8402 351.252 87.3725 351.049 88.0699L349.77 92.5C349.655 92.8985 349.894 93.3157 350.296 93.4153L355.227 94.6357C355.968 94.8193 355.968 95.8747 355.227 96.0584Z" fill="#537151"/>
<path d="M323.08 118.053C322.921 121.602 322.815 124.006 323.438 126.786C324.126 129.859 324.696 131.667 326.377 133.296C328.117 134.983 330.944 135.708 333.042 134.494C334.319 133.756 335.147 132.449 335.847 131.151C336.999 129.027 337.967 126.68 337.778 124.27C337.613 122.209 336.616 120.32 335.642 118.495C334.537 116.431 333.285 114.227 331.14 113.29C328.709 112.228 326.374 113.474 326.231 113.548C326.122 113.604 323.594 114.94 323.145 117.431C323.096 117.701 323.086 117.91 323.08 118.05V118.053Z" fill="#F5F1DE"/>
<path d="M325.601 116.014C324.565 116.792 324.493 118.28 324.459 118.972C324.393 120.317 324.758 121.325 325.054 122.138C325.648 123.775 326.585 125.379 328.089 126.26C328.515 126.509 329.007 126.699 329.496 126.627C329.954 126.562 330.346 126.275 330.685 125.964C332.046 124.722 332.855 122.894 332.861 121.054C332.868 119.211 332.074 117.381 330.726 116.126C330.156 115.597 329.375 114.875 328.35 114.906C327.416 114.934 326.302 115.591 325.925 115.815C325.76 115.914 325.676 115.961 325.601 116.017V116.014Z" fill="#222222"/>
<path d="M340.225 118.053C340.066 121.602 339.96 124.006 340.583 126.786C341.271 129.859 341.84 131.667 343.521 133.296C345.262 134.983 348.089 135.708 350.187 134.494C351.463 133.756 352.291 132.449 352.992 131.151C354.144 129.027 355.112 126.68 354.922 124.27C354.757 122.209 353.761 120.32 352.786 118.495C351.681 116.431 350.43 114.227 348.285 113.29C345.853 112.228 343.518 113.474 343.375 113.548C343.266 113.604 340.738 114.94 340.29 117.431C340.24 117.701 340.231 117.91 340.225 118.05V118.053Z" fill="#F5F1DE"/>
<path d="M342.746 116.014C341.709 116.792 341.638 118.28 341.603 118.972C341.538 120.317 341.902 121.325 342.198 122.138C342.793 123.775 343.73 125.379 345.233 126.26C345.66 126.509 346.152 126.699 346.641 126.627C347.098 126.562 347.49 126.275 347.83 125.964C349.19 124.722 350 122.894 350.006 121.054C350.012 119.211 349.218 117.381 347.87 116.126C347.301 115.597 346.519 114.875 345.495 114.906C344.561 114.934 343.446 115.591 343.07 115.815C342.905 115.914 342.821 115.961 342.746 116.017V116.014Z" fill="#222222"/>
<path d="M368.141 94.5898C386.982 94.5898 402.256 80.1334 402.256 62.3006C402.256 44.4678 386.982 30.0115 368.141 30.0115C349.3 30.0115 334.026 44.4678 334.026 62.3006C334.026 80.1334 349.3 94.5898 368.141 94.5898Z" fill="#F2AD48"/>
<path d="M365.928 41.9443L361.915 42.9382C361.587 43.021 361.391 43.3557 361.487 43.6836L362.529 47.2896C362.692 47.8556 362.026 48.2904 361.573 47.9108L358.261 45.1294C358.04 44.9431 357.715 44.9431 357.495 45.1294L354.182 47.9108C353.73 48.2904 353.064 47.8556 353.226 47.2896L354.268 43.6836C354.361 43.3592 354.168 43.021 353.84 42.9382L349.827 41.9443C349.223 41.796 349.223 40.9367 349.827 40.7883L353.84 39.7945C354.168 39.7117 354.365 39.3769 354.268 39.0491L353.226 35.443C353.064 34.8771 353.73 34.4423 354.182 34.8219L357.495 37.6032C357.715 37.7896 358.04 37.7896 358.261 37.6032L361.573 34.8219C362.026 34.4423 362.692 34.8771 362.529 35.443L361.487 39.0491C361.394 39.3735 361.587 39.7117 361.915 39.7945L365.928 40.7883C366.532 40.9367 366.532 41.796 365.928 41.9443Z" fill="#537151"/>
<path d="M339.775 59.8402C339.647 62.7286 339.561 64.6817 340.065 66.9454C340.624 69.4473 341.09 70.9173 342.456 72.2424C343.871 73.6158 346.173 74.2059 347.881 73.219C348.92 72.6185 349.593 71.5523 350.165 70.4998C351.101 68.7709 351.891 66.8626 351.736 64.9026C351.601 63.2255 350.79 61.6864 349.996 60.206C349.099 58.5289 348.078 56.7345 346.332 55.9719C344.354 55.1092 342.456 56.1203 342.339 56.1824C342.249 56.2272 340.196 57.3142 339.83 59.3399C339.789 59.5607 339.782 59.7298 339.779 59.8437L339.775 59.8402Z" fill="#F5F1DE"/>
<path d="M341.825 58.1802C340.983 58.8117 340.924 60.0264 340.897 60.5854C340.845 61.6793 341.142 62.5006 341.38 63.1597C341.863 64.4917 342.625 65.7961 343.85 66.5139C344.199 66.7175 344.596 66.8728 344.996 66.8141C345.369 66.7589 345.686 66.5277 345.966 66.2758C347.073 65.2647 347.733 63.7809 347.736 62.2798C347.743 60.7821 347.098 59.2914 345.997 58.2699C345.534 57.8386 344.9 57.252 344.064 57.2761C343.305 57.3003 342.398 57.8351 342.091 58.0146C341.956 58.094 341.887 58.1354 341.825 58.1802Z" fill="#222222"/>
<path d="M353.723 59.8402C353.596 62.7286 353.509 64.6817 354.013 66.9454C354.572 69.4473 355.038 70.9173 356.405 72.2424C357.819 73.6158 360.121 74.2059 361.829 73.219C362.868 72.6185 363.541 71.5523 364.114 70.4998C365.049 68.7709 365.839 66.8626 365.684 64.9026C365.549 63.2255 364.738 61.6864 363.945 60.206C363.047 58.5289 362.026 56.7345 360.28 55.9719C358.303 55.1092 356.405 56.1203 356.287 56.1824C356.198 56.2272 354.144 57.3142 353.779 59.3399C353.737 59.5607 353.73 59.7298 353.727 59.8437L353.723 59.8402Z" fill="#F5F1DE"/>
<path d="M355.774 58.1802C354.932 58.8117 354.873 60.0264 354.846 60.5854C354.794 61.6793 355.091 62.5006 355.329 63.1597C355.812 64.4917 356.575 65.7961 357.8 66.5139C358.148 66.7175 358.545 66.8728 358.945 66.8141C359.318 66.7589 359.635 66.5277 359.915 66.2758C361.023 65.2647 361.682 63.7809 361.685 62.2798C361.692 60.7821 361.047 59.2914 359.946 58.2699C359.484 57.8386 358.849 57.252 358.014 57.2761C357.254 57.3003 356.347 57.8351 356.04 58.0146C355.905 58.094 355.836 58.1354 355.774 58.1802Z" fill="#222222"/>
</g>
<rect x="29" y="29.8871" width="80.321" height="22.7265" rx="3.11322" fill="#222222"/>
<path d="M44.9365 42.9233C44.9485 43.0433 44.9245 43.1273 44.8765 43.1513C44.8165 43.1873 44.7325 43.2113 44.6245 43.2233C44.1085 43.2833 43.5925 43.3313 43.0645 43.3553C42.5245 43.4033 41.9845 43.4393 41.4565 43.4633V44.9153H45.3685C45.4765 44.9153 45.5605 44.9393 45.6085 44.9753C45.6565 45.0233 45.6805 45.0953 45.6805 45.2153V46.6193C45.6805 46.7393 45.6565 46.8113 45.6085 46.8593C45.5605 46.8953 45.4765 46.9193 45.3685 46.9193H35.2405C35.1205 46.9193 35.0485 46.8953 35.0005 46.8593C34.9525 46.8113 34.9285 46.7393 34.9285 46.6193V45.2153C34.9285 45.0953 34.9525 45.0233 35.0005 44.9753C35.0485 44.9393 35.1205 44.9153 35.2405 44.9153H39.1525V43.5353C38.9125 43.5473 38.6965 43.5473 38.4805 43.5473H37.8325C37.0645 43.5473 36.5125 43.3433 36.1885 42.9233C35.8525 42.5153 35.6845 41.8673 35.6845 40.9553V36.1793C35.6845 36.0593 35.7085 35.9873 35.7565 35.9393C35.8045 35.9033 35.8765 35.8793 35.9965 35.8793H44.4805C44.5885 35.8793 44.6725 35.9033 44.7205 35.9393C44.7685 35.9873 44.7925 36.0593 44.7925 36.1793V37.5833C44.7925 37.7033 44.7685 37.7873 44.7205 37.8233C44.6725 37.8713 44.5885 37.8833 44.4805 37.8833H37.9885V38.7473H44.4925C44.6005 38.7473 44.6845 38.7713 44.7325 38.8073C44.7805 38.8553 44.8045 38.9273 44.8045 39.0473V40.3313C44.8045 40.4513 44.7805 40.5353 44.7325 40.5713C44.6845 40.6193 44.6005 40.6313 44.4925 40.6313H37.9885V40.8473C37.9885 41.1353 38.0485 41.3513 38.1685 41.4833C38.2885 41.6273 38.5045 41.6873 38.8285 41.6753C39.6925 41.6633 40.6285 41.6273 41.6125 41.5793C42.5965 41.5313 43.5565 41.4593 44.5045 41.3513C44.6125 41.3393 44.6845 41.3513 44.7325 41.3993C44.7685 41.4473 44.7925 41.5313 44.8165 41.6513L44.9365 42.9233ZM52.9788 45.0113C52.9788 45.5153 52.8708 45.8753 52.6548 46.1033C52.4388 46.3193 52.1148 46.4393 51.6828 46.4393H47.7708C47.3388 46.4393 47.0148 46.3193 46.7988 46.1033C46.5828 45.8753 46.4748 45.5153 46.4748 45.0113V36.1793C46.4748 36.0593 46.4988 35.9873 46.5468 35.9393C46.5948 35.9033 46.6668 35.8793 46.7868 35.8793H52.6668C52.7748 35.8793 52.8588 35.9033 52.9068 35.9393C52.9548 35.9873 52.9788 36.0593 52.9788 36.1793V45.0113ZM57.9108 41.6513C57.9108 41.7713 57.8868 41.8553 57.8388 41.8913C57.7908 41.9393 57.7068 41.9513 57.5988 41.9513H56.4948V46.7393C56.4948 46.8593 56.4708 46.9313 56.4228 46.9793C56.3748 47.0153 56.2908 47.0393 56.1828 47.0393H54.5028C54.3828 47.0393 54.3108 47.0153 54.2628 46.9793C54.2148 46.9313 54.1908 46.8593 54.1908 46.7393V36.1793C54.1908 36.0593 54.2148 35.9873 54.2628 35.9393C54.3108 35.9033 54.3828 35.8793 54.5028 35.8793H56.1828C56.2908 35.8793 56.3748 35.9033 56.4228 35.9393C56.4708 35.9873 56.4948 36.0593 56.4948 36.1793V39.9593H57.5988C57.7068 39.9593 57.7908 39.9833 57.8388 40.0193C57.8868 40.0673 57.9108 40.1393 57.9108 40.2593V41.6513ZM50.4348 44.5553C50.5668 44.5553 50.6628 44.5313 50.7108 44.4713C50.7588 44.4233 50.7828 44.3273 50.7828 44.1713V37.7033H48.6708V44.1713C48.6708 44.3273 48.6948 44.4233 48.7428 44.4713C48.7908 44.5313 48.8748 44.5553 49.0188 44.5553H50.4348ZM68.3388 42.9233C68.3508 43.0433 68.3268 43.1273 68.2788 43.1513C68.2188 43.1873 68.1348 43.2113 68.0268 43.2233C67.5108 43.2833 66.9948 43.3313 66.4668 43.3553C65.9268 43.4033 65.3868 43.4393 64.8588 43.4633V44.9153H68.7708C68.8788 44.9153 68.9628 44.9393 69.0108 44.9753C69.0588 45.0233 69.0828 45.0953 69.0828 45.2153V46.6193C69.0828 46.7393 69.0588 46.8113 69.0108 46.8593C68.9628 46.8953 68.8788 46.9193 68.7708 46.9193H58.6428C58.5228 46.9193 58.4508 46.8953 58.4028 46.8593C58.3548 46.8113 58.3308 46.7393 58.3308 46.6193V45.2153C58.3308 45.0953 58.3548 45.0233 58.4028 44.9753C58.4508 44.9393 58.5228 44.9153 58.6428 44.9153H62.5548V43.5353C62.3148 43.5473 62.0988 43.5473 61.8828 43.5473H61.2348C60.4668 43.5473 59.9148 43.3433 59.5908 42.9233C59.2548 42.5153 59.0868 41.8673 59.0868 40.9553V36.1793C59.0868 36.0593 59.1108 35.9873 59.1588 35.9393C59.2068 35.9033 59.2788 35.8793 59.3988 35.8793H67.8828C67.9908 35.8793 68.0748 35.9033 68.1228 35.9393C68.1708 35.9873 68.1948 36.0593 68.1948 36.1793V37.5833C68.1948 37.7033 68.1708 37.7873 68.1228 37.8233C68.0748 37.8713 67.9908 37.8833 67.8828 37.8833H61.3908V38.7473H67.8948C68.0028 38.7473 68.0868 38.7713 68.1348 38.8073C68.1828 38.8553 68.2068 38.9273 68.2068 39.0473V40.3313C68.2068 40.4513 68.1828 40.5353 68.1348 40.5713C68.0868 40.6193 68.0028 40.6313 67.8948 40.6313H61.3908V40.8473C61.3908 41.1353 61.4508 41.3513 61.5708 41.4833C61.6908 41.6273 61.9068 41.6873 62.2308 41.6753C63.0948 41.6633 64.0308 41.6273 65.0148 41.5793C65.9988 41.5313 66.9588 41.4593 67.9068 41.3513C68.0148 41.3393 68.0868 41.3513 68.1348 41.3993C68.1708 41.4473 68.1948 41.5313 68.2188 41.6513L68.3388 42.9233ZM76.0485 44.0153V46.7873C76.0485 46.9073 76.0245 46.9793 75.9765 47.0273C75.9285 47.0633 75.8445 47.0873 75.7365 47.0873H74.1765C74.0565 47.0873 73.9845 47.0633 73.9365 47.0273C73.8885 46.9793 73.8645 46.9073 73.8645 46.7873V37.8353C73.8645 37.6193 73.8765 37.4033 73.9125 37.2113C73.9365 37.0313 73.9965 36.8753 74.1045 36.7313C74.2005 36.6113 74.3445 36.5033 74.5365 36.4313C74.7285 36.3593 74.9925 36.3233 75.3285 36.3233H77.7645C79.0125 36.3233 79.9605 36.6353 80.5965 37.2593C81.2205 37.8833 81.5445 38.8313 81.5445 40.0793C81.5445 41.3393 81.2205 42.3113 80.5965 42.9833C79.9605 43.6793 79.0125 44.0153 77.7645 44.0153H76.0485ZM76.0485 41.9393H77.7525C78.2805 41.9393 78.6885 41.7833 78.9645 41.4473C79.2285 41.1353 79.3605 40.6793 79.3605 40.0793C79.3605 39.5033 79.2285 39.0833 78.9645 38.8073C78.6885 38.5433 78.2805 38.3993 77.7525 38.3993H76.6125C76.3965 38.3993 76.2405 38.4473 76.1685 38.5193C76.0845 38.6153 76.0485 38.7713 76.0485 38.9993V41.9393ZM83.3628 47.0993C83.2428 47.0993 83.1708 47.0753 83.1228 47.0393C83.0748 46.9913 83.0508 46.9193 83.0508 46.7993V39.7673C83.0508 39.6473 83.0748 39.5753 83.1228 39.5273C83.1708 39.4913 83.2428 39.4673 83.3628 39.4673H84.8868C84.9948 39.4673 85.0788 39.4913 85.1268 39.5273C85.1748 39.5753 85.1988 39.6473 85.1988 39.7673V46.7993C85.1988 46.9193 85.1748 46.9913 85.1268 47.0393C85.0788 47.0753 84.9948 47.0993 84.8868 47.0993H83.3628ZM83.3628 38.4593C83.2428 38.4593 83.1708 38.4473 83.1228 38.3993C83.0748 38.3633 83.0508 38.2793 83.0508 38.1593V36.6233C83.0508 36.5033 83.0748 36.4313 83.1228 36.3833C83.1708 36.3473 83.2428 36.3233 83.3628 36.3233H84.8868C84.9948 36.3233 85.0788 36.3473 85.1268 36.3833C85.1748 36.4313 85.1988 36.5033 85.1988 36.6233V38.1593C85.1988 38.2793 85.1748 38.3633 85.1268 38.3993C85.0788 38.4473 84.9948 38.4593 84.8868 38.4593H83.3628ZM90.0187 39.1313C90.1747 39.1313 90.3547 39.1433 90.5587 39.1553C90.7507 39.1793 90.9547 39.2033 91.1707 39.2273C91.3627 39.2513 91.5547 39.2873 91.7467 39.3113C91.9147 39.3473 92.0707 39.3713 92.2027 39.3953C92.2987 39.4193 92.3707 39.4433 92.4307 39.4913C92.4787 39.5393 92.5027 39.6473 92.5027 39.8033L92.4667 40.9073C92.4547 41.1473 92.3467 41.2433 92.1427 41.2193C91.9267 41.2073 91.6747 41.1833 91.3867 41.1593C91.0747 41.1353 90.8227 41.1233 90.6187 41.1233C90.2347 41.1233 89.9347 41.1593 89.7187 41.2193C89.4787 41.2913 89.2987 41.4113 89.1787 41.5673C89.0347 41.7353 88.9507 41.9393 88.9147 42.1913C88.8667 42.4553 88.8427 42.7673 88.8427 43.1273C88.8427 43.5473 88.8667 43.8953 88.9147 44.1593C88.9627 44.4473 89.0467 44.6633 89.1907 44.8313C89.3107 44.9993 89.4907 45.1193 89.7307 45.1913C89.9587 45.2513 90.2587 45.2873 90.6427 45.2873C90.7387 45.2873 90.8587 45.2753 91.0027 45.2753C91.1227 45.2633 91.2667 45.2513 91.4107 45.2513C91.5427 45.2393 91.6747 45.2273 91.8187 45.2273C91.9507 45.2033 92.0707 45.1913 92.1667 45.1913C92.2507 45.1793 92.3227 45.1913 92.3827 45.2153C92.4307 45.2393 92.4547 45.3353 92.4667 45.5153L92.5027 46.6073C92.5027 46.7513 92.4787 46.8593 92.4307 46.9193C92.3707 46.9673 92.2987 46.9913 92.2027 47.0153C92.0587 47.0393 91.9027 47.0633 91.7227 47.0993C91.5307 47.1233 91.3267 47.1593 91.1347 47.1953C90.9187 47.2193 90.7147 47.2433 90.5227 47.2673C90.3067 47.2793 90.1267 47.2913 89.9707 47.2913C89.3827 47.2913 88.8907 47.2073 88.4827 47.0513C88.0627 46.8833 87.7267 46.6433 87.4747 46.3073C87.2107 45.9713 87.0187 45.5393 86.8987 45.0113C86.7787 44.4953 86.7187 43.8713 86.7187 43.1273C86.7187 42.4313 86.7787 41.8313 86.9107 41.3273C87.0307 40.8353 87.2227 40.4273 87.4987 40.0913C87.7627 39.7673 88.0987 39.5273 88.5187 39.3593C88.9267 39.2153 89.4307 39.1313 90.0187 39.1313ZM96.1673 46.7873C96.1673 46.9073 96.1433 46.9793 96.0953 47.0273C96.0473 47.0633 95.9633 47.0873 95.8553 47.0873H94.3913C94.2713 47.0873 94.1993 47.0633 94.1513 47.0273C94.1033 46.9793 94.0793 46.9073 94.0793 46.7873V36.6233C94.0793 36.5033 94.1033 36.4313 94.1513 36.3833C94.1993 36.3473 94.2713 36.3233 94.3913 36.3233H95.8553C95.9633 36.3233 96.0473 36.3473 96.0953 36.3833C96.1433 36.4313 96.1673 36.5033 96.1673 36.6233V42.2633L96.9713 42.1073L98.3633 39.5753C98.4113 39.4913 98.4713 39.4193 98.5433 39.3713C98.6033 39.3233 98.6993 39.2993 98.8193 39.2993H100.427C100.559 39.2993 100.643 39.3353 100.691 39.3953C100.715 39.4673 100.703 39.5633 100.643 39.6833L98.8433 42.9833L100.727 46.6433C100.811 46.7993 100.835 46.9193 100.799 46.9913C100.751 47.0513 100.655 47.0873 100.487 47.0873H99.0233C98.8433 47.0873 98.7113 47.0633 98.6393 47.0153C98.5553 46.9553 98.4833 46.8713 98.4233 46.7633L97.0073 44.1593L96.1673 44.3153V46.7873Z" fill="#F5F1DE"/>
<path d="M40.655 63.8753V76.2233H39.227V69.9513H37.827V75.6073H36.427V64.1273H37.827V68.7193H39.227V63.8753H40.655ZM30.407 73.3393V65.3313H35.027V66.5633H31.947V72.0653C33.291 72.0513 34.397 71.9813 35.643 71.7433L35.755 73.0033C34.271 73.2973 32.969 73.3393 31.247 73.3393H30.407ZM46.1467 64.6313C48.1067 64.6453 49.5347 65.8633 49.5347 67.6273C49.5347 69.1393 48.4567 70.2593 46.9027 70.5253V72.3313C48.0087 72.2753 49.1287 72.1773 50.1787 72.0233L50.2907 73.1433C47.5187 73.6613 44.5647 73.6753 42.3667 73.6753L42.1987 72.4433C43.1367 72.4433 44.2427 72.4433 45.3907 72.4013V70.5253C43.8367 70.2593 42.7447 69.1393 42.7587 67.6273C42.7447 65.8633 44.2007 64.6453 46.1467 64.6313ZM44.2427 67.6273C44.2427 68.6493 45.0547 69.3073 46.1467 69.3073C47.2387 69.3073 48.0507 68.6493 48.0507 67.6273C48.0507 66.5773 47.2387 65.9473 46.1467 65.9473C45.0547 65.9473 44.2427 66.5773 44.2427 67.6273ZM50.9067 76.2513V63.8753H52.4187V76.2513H50.9067ZM64.0143 63.8753V66.8713H65.6943V68.1593H64.0143V71.1553H62.5023V63.8753H64.0143ZM54.1303 69.8953C55.0543 69.8953 56.1183 69.8953 57.2383 69.8813V69.2653C55.8523 69.1113 54.9983 68.5373 54.9983 67.6553C54.9983 66.6333 56.1603 66.0453 57.9943 66.0593C59.7863 66.0453 60.9623 66.6333 60.9623 67.6553C60.9623 68.5373 60.1083 69.1113 58.7503 69.2653V69.8253C59.8003 69.7693 60.8643 69.6853 61.8583 69.5593L61.9703 70.5113C59.3383 70.9593 56.4403 70.9733 54.2983 70.9593L54.1303 69.8953ZM54.4383 65.7513V64.7153H57.2383V63.7633H58.7503V64.7153H61.5223V65.7513H54.4383ZM55.7823 76.1393V73.3673H62.5023V72.6673H55.7823V71.6313H64.0143V74.3193H57.2943V75.1033H64.4623V76.1393H55.7823ZM56.4543 67.6553C56.4543 68.0753 57.0143 68.3273 57.9943 68.3273C58.9323 68.3273 59.5063 68.0753 59.5063 67.6553C59.5063 67.2353 58.9323 67.0113 57.9943 67.0113C57.0143 67.0113 56.4543 67.2353 56.4543 67.6553ZM77.5979 69.8113V71.0153H66.3419V69.8113H71.2419V68.6073H67.7139V64.4353H76.2539V65.6393H69.2259V67.4033H76.3099V68.6073H72.7259V69.8113H77.5979ZM67.6299 73.9833C67.6439 72.5273 69.2679 71.7153 71.9419 71.7153C74.6159 71.7153 76.2259 72.5273 76.2259 73.9833C76.2259 75.4113 74.6159 76.2373 71.9419 76.2513C69.2679 76.2373 67.6439 75.4113 67.6299 73.9833ZM69.1979 73.9833C69.1839 74.6973 70.1499 75.0613 71.9419 75.0473C73.7199 75.0613 74.6999 74.6973 74.7139 73.9833C74.6999 73.2693 73.7199 72.8913 71.9419 72.8913C70.1499 72.8913 69.1839 73.2693 69.1979 73.9833ZM93.0614 69.9793V71.2113H88.2734V73.4793H86.7334V71.2113H81.7494V69.9793H93.0614ZM82.9534 66.6753C82.9534 65.1213 84.7314 64.1553 87.4054 64.1553C90.0514 64.1553 91.8154 65.1213 91.8294 66.6753C91.8154 68.2293 90.0514 69.1953 87.4054 69.1953C84.7314 69.1953 82.9534 68.2293 82.9534 66.6753ZM83.1494 75.9993V72.3313H84.6614V74.7393H91.8014V75.9993H83.1494ZM84.6054 66.6753C84.5914 67.5013 85.6974 67.9773 87.4054 67.9913C89.0994 67.9773 90.1914 67.5013 90.2054 66.6753C90.1914 65.8353 89.0994 65.3593 87.4054 65.3593C85.6974 65.3593 84.5914 65.8353 84.6054 66.6753ZM97.293 64.5753C98.287 64.5613 99.155 64.9393 99.743 65.5553H102.697V63.8753H104.209V71.1553H102.697V69.5593H99.757C99.169 70.1753 98.301 70.5533 97.293 70.5393C95.431 70.5533 94.031 69.3073 94.045 67.5713C94.031 65.8213 95.431 64.5613 97.293 64.5753ZM95.473 67.5713C95.487 68.5793 96.243 69.2653 97.293 69.2513C98.329 69.2653 99.085 68.5793 99.085 67.5713C99.085 66.5213 98.329 65.8633 97.293 65.8913C96.243 65.8633 95.487 66.5213 95.473 67.5713ZM95.837 73.8153C95.823 72.2893 97.447 71.4073 100.037 71.4073C102.627 71.4073 104.251 72.2893 104.265 73.8153C104.251 75.3273 102.627 76.2233 100.037 76.2233C97.447 76.2233 95.823 75.3273 95.837 73.8153ZM97.321 73.8153C97.321 74.5993 98.315 75.0333 100.037 75.0193C101.787 75.0333 102.767 74.5993 102.781 73.8153C102.767 73.0033 101.787 72.5693 100.037 72.5833C98.315 72.5693 97.321 73.0033 97.321 73.8153ZM100.429 68.3553H102.697V66.7873H100.429C100.499 67.0393 100.541 67.2913 100.541 67.5713C100.541 67.8513 100.499 68.1033 100.429 68.3553ZM110.373 66.8433C110.373 69.0553 111.479 71.2813 113.397 72.2193L112.473 73.4233C111.115 72.7513 110.163 71.4353 109.631 69.8533C109.085 71.5473 108.077 72.9333 106.677 73.6473L105.725 72.4153C107.727 71.4913 108.861 69.1253 108.861 66.8433V64.8833H110.373V66.8433ZM114.125 76.2233V63.8753H115.637V68.7193H117.541V70.0073H115.637V76.2233H114.125ZM129.36 70.8753V72.1073H124.432V76.2233H122.92V72.1073H118.048V70.8753H129.36ZM119.42 69.4193V64.5193H127.96V69.4193H119.42ZM120.932 68.2433H126.448V65.7233H120.932V68.2433ZM140.088 64.4353V65.3873C140.088 66.2973 140.088 67.3753 139.822 68.7473H141.46V69.9793H136.56V71.9113H140.116V76.2233H138.576V73.1153H131.324V71.9113H135.02V69.9793H130.176V68.7473H138.282C138.534 67.4873 138.562 66.5213 138.576 65.6673H131.576V64.4353H140.088ZM152.551 63.8753V76.2513H151.011V63.8753H152.551ZM142.667 69.1393C142.653 66.4793 144.011 64.7853 145.887 64.7713C147.749 64.7853 149.107 66.4793 149.107 69.1393C149.107 71.8273 147.749 73.5213 145.887 73.5073C144.011 73.5213 142.653 71.8273 142.667 69.1393ZM144.123 69.1393C144.123 71.0433 144.837 72.1493 145.887 72.1353C146.923 72.1493 147.637 71.0433 147.651 69.1393C147.637 67.2633 146.923 66.1433 145.887 66.1433C144.837 66.1433 144.123 67.2633 144.123 69.1393ZM34.719 84.0313C34.719 85.5573 35.769 87.0693 37.743 87.6713L36.959 88.8473C35.559 88.4133 34.537 87.4753 33.977 86.2993C33.431 87.5873 32.381 88.5953 30.911 89.0993L30.127 87.9233C32.115 87.2513 33.179 85.6413 33.179 84.0313V83.8633H30.519V82.6593H37.323V83.8633H34.719V84.0313ZM31.891 91.1433V89.9113H40.319V94.2233H38.807V91.1433H31.891ZM38.807 89.3233V81.8753H40.319V89.3233H38.807ZM52.4747 81.8753V88.6233H50.9627V85.9633H48.8347V84.7313H50.9627V81.8753H52.4747ZM42.1147 87.6433C44.0607 86.9713 45.1107 85.3753 45.1387 83.7513H42.5627V82.4913H49.2267V83.7513H46.6787C46.6927 85.2353 47.6867 86.7613 49.5907 87.3913L48.8067 88.5673C47.4347 88.0913 46.4547 87.1673 45.9227 86.0053C45.3767 87.2933 44.3547 88.3293 42.8987 88.8193L42.1147 87.6433ZM44.3267 94.0833V89.1273H45.8387V90.4153H50.9627V89.1273H52.4747V94.0833H44.3267ZM45.8387 92.8513H50.9627V91.6193H45.8387V92.8513ZM68.8342 89.2953V90.5553H63.9342V94.2513H62.4222V90.5553H57.5782V89.2953H68.8342ZM58.1942 87.3353C60.6582 87.0413 62.2822 85.7673 62.4082 84.5353H58.6142V83.3313H62.4222V81.8753H63.9342V83.3313H67.7702V84.5353H63.9762C64.0882 85.7673 65.7122 87.0413 68.1902 87.3353L67.6302 88.5393C65.5862 88.2873 64.0042 87.3913 63.1922 86.2013C62.3942 87.4053 60.7982 88.2733 58.7262 88.5393L58.1942 87.3353ZM74.1018 84.8153C74.1018 86.2713 75.1378 87.6993 77.0978 88.3153L76.3698 89.4913C74.9558 89.0713 73.9478 88.1753 73.3738 87.0413C72.8278 88.2593 71.8058 89.2253 70.3778 89.6873L69.6218 88.5113C71.5678 87.8953 72.5898 86.3833 72.5898 84.8153V84.6193H70.0138V83.4153H72.5898V81.9593H74.1298V83.4153H76.6778V84.6193H74.1018V84.8153ZM71.9178 93.9993V90.2753H73.4298V92.7673H80.3178V93.9993H71.9178ZM76.2858 86.8033V85.5713H78.4978V81.9033H80.0098V91.0593H78.4978V86.8033H76.2858ZM91.4374 81.8753V86.8033H93.3414V88.0633H91.4374V94.2233H89.9534V81.8753H91.4374ZM81.6934 85.0113V83.7793H84.6334V82.0433H86.1454V83.7793H89.0014V85.0113H81.6934ZM82.2814 88.7073C82.2674 86.9993 83.5834 85.7953 85.3894 85.7953C87.1674 85.7953 88.4834 86.9993 88.4974 88.7073C88.4834 90.4153 87.1674 91.6053 85.3894 91.6193C83.5834 91.6053 82.2674 90.4153 82.2814 88.7073ZM83.7374 88.7073C83.7234 89.7153 84.4234 90.3593 85.3894 90.3593C86.3414 90.3593 87.0274 89.7153 87.0414 88.7073C87.0274 87.6993 86.3414 87.0413 85.3894 87.0553C84.4234 87.0413 83.7234 87.6993 83.7374 88.7073ZM103.873 85.3753V86.5793H95.305V82.3233H96.817V85.3753H103.873ZM93.849 89.2113V88.0073H105.161V89.2113H93.849ZM95.221 93.9433V90.3033H96.733V92.7113H103.957V93.9433H95.221ZM40.823 99.7913V112.335H38.975V106.119H37.967V111.747H36.175V99.9873H37.967V104.551H38.975V99.7913H40.823ZM30.267 109.563V101.219H34.943V102.787H32.255V107.925C33.333 107.911 34.355 107.827 35.475 107.631L35.615 109.227C34.089 109.521 32.731 109.563 31.163 109.563H30.267ZM46.0907 100.519C48.0927 100.505 49.6047 101.807 49.6187 103.627C49.6047 105.139 48.5687 106.273 47.0707 106.623V108.191C48.0787 108.121 49.0867 108.037 50.0387 107.911L50.1787 109.311C47.4347 109.843 44.4947 109.871 42.3107 109.871L42.1147 108.303C42.9967 108.303 44.0327 108.289 45.1107 108.261V106.623C43.6267 106.273 42.5767 105.139 42.5907 103.627C42.5767 101.807 44.1167 100.505 46.0907 100.519ZM44.5507 103.627C44.5367 104.537 45.2227 105.069 46.0907 105.055C47.0007 105.069 47.6867 104.537 47.6867 103.627C47.6867 102.675 47.0007 102.185 46.0907 102.199C45.2227 102.185 44.5367 102.675 44.5507 103.627ZM50.7107 112.363V99.7913H52.6707V112.363H50.7107ZM64.2663 99.7913V102.675H65.7783V104.299H64.2663V107.155H62.2783V99.7913H64.2663ZM53.9903 105.755C54.8723 105.755 55.8803 105.755 56.9303 105.727V105.251C55.5863 105.069 54.7603 104.509 54.7743 103.627C54.7603 102.605 55.9923 102.017 57.8823 102.003C59.7723 102.017 61.0043 102.605 60.9903 103.627C61.0043 104.495 60.1923 105.055 58.8903 105.237V105.657C59.8703 105.615 60.8503 105.531 61.7743 105.419L61.8863 106.623C59.2403 107.071 56.3703 107.085 54.1863 107.071L53.9903 105.755ZM54.3263 101.807V100.519H56.9303V99.6793H58.8903V100.519H61.4663V101.807H54.3263ZM55.6423 108.863V107.575H64.2663V110.487H57.6303V110.963H64.6583V112.251H55.6703V109.311H62.2783V108.863H55.6423ZM56.6503 103.627C56.6503 103.949 57.0843 104.089 57.8823 104.075C58.6803 104.089 59.1143 103.949 59.1143 103.627C59.1143 103.333 58.6803 103.221 57.8823 103.207C57.0843 103.221 56.6503 103.333 56.6503 103.627ZM77.7099 105.615V107.155H66.2579V105.615H71.0179V104.663H67.6299V100.323H76.3659V101.863H69.5899V103.123H76.4219V104.663H72.9499V105.615H77.7099ZM67.5459 110.039C67.5319 108.527 69.1979 107.701 71.9419 107.687C74.6859 107.701 76.3239 108.527 76.3379 110.039C76.3239 111.509 74.6859 112.349 71.9419 112.363C69.1979 112.349 67.5319 111.509 67.5459 110.039ZM69.5339 110.039C69.5339 110.613 70.3039 110.865 71.9419 110.851C73.5519 110.865 74.3499 110.613 74.3499 110.039C74.3499 109.451 73.5519 109.185 71.9419 109.199C70.3039 109.185 69.5339 109.451 69.5339 110.039ZM86.4163 100.659L83.2243 112.503H81.2643L84.4563 100.659H86.4163ZM95.6203 107.547C98.3783 107.561 100.114 108.443 100.128 109.955C100.114 111.453 98.3783 112.349 95.6203 112.335C92.9043 112.349 91.1263 111.453 91.1403 109.955C91.1263 108.443 92.9043 107.561 95.6203 107.547ZM90.0203 106.875V105.307H94.1363V103.179H96.0963V105.307H101.388V106.875H90.0203ZM91.2803 101.863V100.323H100.072V101.331C100.072 102.325 100.072 103.417 99.7083 104.691L97.7763 104.523C98.0423 103.473 98.0843 102.661 98.0983 101.863H91.2803ZM93.1003 109.955C93.0863 110.571 93.9823 110.851 95.6203 110.851C97.2583 110.851 98.1683 110.571 98.1683 109.955C98.1683 109.325 97.2583 109.017 95.6203 109.003C93.9823 109.017 93.0863 109.325 93.1003 109.955ZM113.544 109.311V110.907H102.092V109.311H106.824V106.903H103.268V100.659H112.312V106.903H108.784V109.311H113.544ZM105.2 105.363H110.38V102.255H105.2V105.363ZM124.803 99.7913V108.947H122.843V104.551H120.967V102.983H122.843V99.7913H124.803ZM114.079 106.007C116.221 105.363 117.019 103.739 117.019 102.199V102.143H114.611V100.575H121.443V102.143H119.035V102.199C119.035 103.613 119.819 105.153 121.863 105.811L120.883 107.379C119.525 106.931 118.601 106.063 118.055 104.985C117.509 106.175 116.543 107.141 115.087 107.603L114.079 106.007ZM116.403 112.139V108.163H118.363V110.543H125.083V112.139H116.403Z" fill="#222222"/>
<path d="M227.611 142.981C256.074 142.981 279.148 134.823 279.148 124.759C279.148 114.696 256.074 106.537 227.611 106.537C199.149 106.537 176.075 114.696 176.075 124.759C176.075 134.823 199.149 142.981 227.611 142.981Z" fill="#D8D5C5"/>
<path d="M226.677 116.465C253.445 116.465 275.144 95.9273 275.144 70.5922C275.144 45.2571 253.445 24.719 226.677 24.719C199.91 24.719 178.211 45.2571 178.211 70.5922C178.211 95.9273 199.91 116.465 226.677 116.465Z" fill="#E24444"/>
<path d="M238.118 41.6705L232.414 43.0808C231.947 43.1959 231.67 43.6754 231.804 44.1361L233.286 49.2574C233.519 50.0606 232.57 50.6801 231.929 50.1415L227.224 46.1909C226.91 45.9262 226.449 45.9262 226.135 46.1909L221.431 50.1415C220.789 50.6801 219.84 50.0606 220.073 49.2574L221.555 44.1361C221.689 43.6754 221.412 43.1959 220.945 43.0808L215.242 41.6705C214.386 41.4588 214.386 40.2384 215.242 40.0267L220.945 38.6164C221.412 38.5012 221.689 38.0218 221.555 37.561L220.073 32.4398C219.84 31.6366 220.789 31.017 221.431 31.5556L226.135 35.5063C226.449 35.7709 226.91 35.7709 227.224 35.5063L231.929 31.5556C232.57 31.017 233.519 31.6366 233.286 32.4398L231.804 37.561C231.67 38.0218 231.947 38.5012 232.414 38.6164L238.118 40.0267C238.974 40.2384 238.974 41.4588 238.118 41.6705Z" fill="#4A734E"/>
<path d="M210.912 60.8884C208.944 62.4637 208.396 64.643 207.749 67.3701C207.12 70.0288 206.619 72.1365 207.117 74.929C207.409 76.5759 207.808 78.7988 209.532 80.6075C212.45 83.6647 218.296 84.6485 221.497 81.8684C223.299 80.3024 224.295 77.9675 224.641 75.6046C224.99 73.2448 224.741 70.8383 224.401 68.4753C223.816 64.4001 222.922 61.2869 220.205 59.7957C217.014 58.0492 213.01 59.7054 212.736 59.8237C212.322 60.0012 211.649 60.2969 210.912 60.8853V60.8884Z" fill="#F5F1DE"/>
<path d="M215.338 65.0539C213.673 65.6205 212.873 67.09 212.773 67.2799C212.337 68.1049 212.278 69.0015 212.378 70.7854C212.437 71.8501 212.558 72.9086 212.739 73.9608C212.873 74.7236 213.044 75.4957 213.43 76.1681C214.04 77.2297 215.189 77.9644 216.412 78.0672C217.633 78.1699 218.89 77.6407 219.669 76.6942C220.41 75.7976 220.696 74.6177 220.927 73.4783C221.253 71.8625 221.509 70.1907 221.213 68.5688C221.007 67.4511 220.615 66.0564 219.373 65.3061C217.963 64.4531 216.082 64.8609 215.774 64.9325C215.668 64.9574 215.525 64.9917 215.338 65.0539Z" fill="#222222"/>
<path d="M242.442 60.8884C244.41 62.4637 244.958 64.643 245.606 67.3701C246.234 70.0288 246.736 72.1365 246.238 74.929C245.945 76.5759 245.546 78.7988 243.822 80.6075C240.905 83.6647 235.058 84.6485 231.858 81.8684C230.055 80.3024 229.059 77.9675 228.713 75.6046C228.365 73.2448 228.614 70.8383 228.953 68.4753C229.538 64.4001 230.432 61.2869 233.15 59.7957C236.341 58.0492 240.344 59.7054 240.618 59.8237C241.032 60.0012 241.705 60.2969 242.442 60.8853V60.8884Z" fill="#F5F1DE"/>
<path d="M238.018 65.0539C239.683 65.6205 240.483 67.09 240.583 67.2799C241.019 68.1049 241.078 69.0015 240.978 70.7854C240.919 71.8501 240.798 72.9086 240.617 73.9608C240.483 74.7236 240.312 75.4957 239.926 76.1681C239.316 77.2297 238.167 77.9644 236.944 78.0672C235.723 78.1699 234.466 77.6407 233.687 76.6942C232.946 75.7976 232.66 74.6177 232.43 73.4783C232.103 71.8625 231.847 70.1907 232.143 68.5688C232.349 67.4511 232.741 66.0564 233.983 65.3061C235.393 64.4531 237.274 64.8609 237.582 64.9325C237.688 64.9574 237.831 64.9917 238.018 65.0539Z" fill="#222222"/>
<path d="M176.931 74.1633C176.131 74.7766 164.232 84.0883 166.586 91.6503C167.162 93.4964 168.884 96.1956 170.954 96.2516C173.086 96.3076 174.615 93.5898 176.187 91.4137C178.469 88.26 182.301 84.2751 189.098 80.7789C189.088 80.7447 188.917 80.2154 188.363 80.0629C187.843 79.9228 187.441 80.2372 187.404 80.2683" fill="#963030"/>
<path d="M181.716 67.5415C179.901 68.7681 162.274 80.9252 165.013 90.2244C165.626 92.304 167.644 95.5573 170.094 95.6694C172.494 95.7815 174.169 92.827 176.295 90.1652C178.848 86.9711 183.085 82.9083 190.395 79.4838" fill="#E24444"/>
<path d="M275.247 78.6959C276.047 78.0826 287.945 68.771 285.592 61.209C285.016 59.3629 283.294 56.6637 281.224 56.6077C279.091 56.5516 277.563 59.2695 275.991 61.4456C273.709 64.5993 269.876 68.5842 263.08 72.0803C263.089 72.1146 263.261 72.6438 263.815 72.7964C264.335 72.9365 264.736 72.622 264.774 72.5909" fill="#963030"/>
<path d="M270.464 85.318C272.279 84.0914 289.906 71.9343 287.166 62.6351C286.553 60.5555 284.536 57.3022 282.085 57.1901C279.685 57.078 278.01 60.0325 275.884 62.6943C273.331 65.8884 269.094 69.9512 261.784 73.3757" fill="#E24444"/>
<path d="M208.441 103.315C207.075 108.237 205.711 113.156 204.344 118.078C203.996 118.069 199.715 118.041 197.561 121.365C197.228 121.879 196.175 123.504 196.53 125.354C197.405 129.886 205.671 131.206 208.438 131.652C211.558 132.15 213.444 132.455 215.129 131.35C217.448 129.83 217.806 126.714 218.17 123.1C218.958 115.285 219.512 109.37 219.889 105.195" fill="#E24444"/>
<path d="M244.913 103.315C246.28 108.237 247.643 113.156 249.01 118.078C249.359 118.069 253.639 118.041 255.794 121.365C256.127 121.879 257.179 123.504 256.824 125.354C255.949 129.886 247.684 131.206 244.916 131.652C241.797 132.15 239.91 132.455 238.226 131.35C235.907 129.83 235.549 126.714 235.184 123.1C234.397 115.285 233.843 109.37 233.466 105.195" fill="#E24444"/>
<path d="M173.179 31.375L174.265 33.4577C174.43 33.7659 174.732 33.9839 175.081 34.0337L177.375 34.3481C178.602 34.5162 179.078 36.0293 178.169 36.8698L176.597 38.3206C176.326 38.5728 176.198 38.9432 176.267 39.3075L176.65 41.4338C176.865 42.6168 175.632 43.5414 174.548 42.9997L172.357 41.9132C172.052 41.7638 171.694 41.7638 171.385 41.9132L169.194 42.9997C168.113 43.5352 166.881 42.6168 167.092 41.4338L167.475 39.3075C167.544 38.9463 167.416 38.5728 167.145 38.3206L165.573 36.8698C164.667 36.0324 165.14 34.5162 166.367 34.3481L168.661 34.0337C169.01 33.9839 169.315 33.7722 169.477 33.4577L170.563 31.375C171.118 30.3258 172.624 30.3258 173.172 31.375H173.179Z" fill="#F5D45D"/>
<path d="M288.748 91.314L289.834 93.3967C289.999 93.7049 290.301 93.9228 290.65 93.9727L292.945 94.2871C294.171 94.4552 294.647 95.9682 293.738 96.8088L292.166 98.2595C291.895 98.5117 291.768 98.8822 291.836 99.2464L292.219 101.373C292.434 102.556 291.201 103.48 290.118 102.939L287.926 101.852C287.621 101.703 287.263 101.703 286.955 101.852L284.763 102.939C283.683 103.474 282.45 102.556 282.662 101.373L283.045 99.2464C283.113 98.8853 282.985 98.5117 282.715 98.2595L281.142 96.8088C280.236 95.9713 280.71 94.4552 281.936 94.2871L284.231 93.9727C284.579 93.9228 284.884 93.7111 285.046 93.3967L286.133 91.314C286.687 90.2648 288.194 90.2648 288.742 91.314H288.748Z" fill="#F5D45D"/>
<path d="M280.316 43.2925L283.952 56.1314L261.699 62.3921L266.219 54.1887L258.062 49.5532L280.316 43.2925Z" fill="#F2AD48"/>
<path d="M300.462 54.693L287.595 58.1891L293.7 80.4984L298.394 72.3947L306.567 77.0023L300.462 54.693Z" fill="#F2AD48"/>
<path d="M305.978 22.0384C306.283 21.9575 306.598 22.1349 306.688 22.44L308.652 29.2237C308.708 29.4199 308.864 29.5724 309.06 29.6253L315.878 31.4684C316.183 31.5524 316.367 31.8637 316.292 32.1688L314.602 39.0148C314.552 39.214 314.611 39.4226 314.754 39.5658L319.742 44.5657C319.966 44.7898 319.969 45.1541 319.748 45.3813L314.86 50.459C314.72 50.6053 314.664 50.817 314.717 51.0131L316.541 57.8311C316.622 58.1362 316.445 58.4537 316.14 58.5409L309.362 60.4898C309.166 60.5458 309.014 60.7015 308.961 60.8976L307.13 67.7062C307.049 68.0113 306.735 68.195 306.43 68.1203L299.577 66.4173C299.381 66.3675 299.17 66.4267 299.026 66.5699L294.033 71.5479C293.809 71.7721 293.447 71.7752 293.22 71.5541L288.13 66.6539C287.984 66.5138 287.775 66.4578 287.576 66.5107L280.755 68.3226C280.45 68.4036 280.135 68.2261 280.045 67.921L278.081 61.1373C278.025 60.9412 277.869 60.7886 277.673 60.7357L270.855 58.8927C270.55 58.8086 270.366 58.4973 270.441 58.1922L272.131 51.3462C272.181 51.147 272.122 50.9384 271.979 50.7952L266.991 45.7954C266.767 45.5712 266.764 45.207 266.985 44.9797L271.873 39.9021C272.013 39.7557 272.069 39.544 272.016 39.3479L270.192 32.53C270.111 32.2249 270.288 31.9073 270.593 31.8202L277.371 29.8713C277.567 29.8152 277.72 29.6596 277.772 29.4635L279.603 22.6549C279.684 22.3498 279.998 22.1661 280.303 22.2408L287.156 23.9437C287.352 23.9935 287.563 23.9344 287.707 23.7912L292.7 18.8131C292.924 18.589 293.286 18.5859 293.513 18.8069L298.603 23.7071C298.749 23.8472 298.958 23.9033 299.157 23.8503L305.978 22.0384Z" fill="#4A734E"/>
<path d="M303.718 25.8459C304.023 25.765 304.337 25.9424 304.427 26.2475L306.025 31.7641C306.081 31.9603 306.236 32.1128 306.432 32.1657L311.98 33.6632C312.285 33.7473 312.469 34.0586 312.394 34.3637L311.018 39.9332C310.968 40.1325 311.027 40.341 311.171 40.4843L315.23 44.5532C315.454 44.7774 315.458 45.1416 315.237 45.3689L311.261 49.5001C311.121 49.6464 311.065 49.8581 311.118 50.0543L312.6 55.5989C312.681 55.904 312.503 56.2216 312.198 56.3087L306.685 57.8934C306.488 57.9494 306.336 58.1051 306.283 58.3012L304.795 63.8396C304.714 64.1447 304.399 64.3284 304.094 64.2537L298.519 62.8683C298.319 62.8185 298.111 62.8776 297.968 63.0208L293.905 67.0711C293.681 67.2953 293.319 67.2984 293.092 67.0774L288.952 63.0924C288.805 62.9523 288.597 62.8963 288.397 62.9492L282.85 64.4218C282.545 64.5027 282.23 64.3253 282.14 64.0202L280.543 58.5035C280.487 58.3074 280.331 58.1549 280.135 58.1019L274.587 56.6045C274.282 56.5204 274.099 56.2091 274.173 55.904L275.549 50.3345C275.599 50.1352 275.54 49.9266 275.397 49.7834L271.337 45.7145C271.113 45.4903 271.11 45.1261 271.331 44.8988L275.306 40.7676C275.447 40.6212 275.503 40.4095 275.45 40.2134L273.968 34.6688C273.887 34.3637 274.064 34.0461 274.369 33.959L279.883 32.3743C280.079 32.3183 280.232 32.1626 280.284 31.9665L281.773 26.4281C281.854 26.123 282.168 25.9393 282.473 26.014L288.049 27.3994C288.245 27.4492 288.457 27.3901 288.6 27.2469L292.663 23.1966C292.887 22.9724 293.248 22.9693 293.475 23.1903L297.616 27.1753C297.762 27.3154 297.971 27.3714 298.17 27.3185L303.718 25.8459Z" fill="#F5F1DE"/>
<path d="M286.59 56.2808C293.361 60.1131 301.766 58.0584 305.365 51.6888C308.964 45.3222 306.393 37.0535 299.621 33.2212C292.85 29.3888 284.445 31.4435 280.846 37.8132C277.247 44.1797 279.818 52.4484 286.59 56.2808Z" fill="#E24444"/>
<path d="M299.865 39.0834L298.249 38.6413C298.115 38.6039 297.978 38.688 297.947 38.825L297.577 40.338C297.521 40.5746 297.194 40.5995 297.113 40.3722L296.515 38.7067C296.475 38.5946 296.359 38.5292 296.244 38.5541L294.507 38.8997C294.271 38.9464 294.124 38.6537 294.299 38.4825L295.404 37.3867C295.503 37.2902 295.503 37.1283 295.404 37.0318L294.193 35.8736C294.012 35.6993 294.186 35.388 294.429 35.4534L296.045 35.8954C296.179 35.9328 296.316 35.8487 296.347 35.7118L296.718 34.1987C296.774 33.9621 297.1 33.9372 297.181 34.1645L297.779 35.8301C297.82 35.9421 297.935 36.0075 298.05 35.9826L299.787 35.637C300.024 35.5903 300.17 35.883 299.996 36.0542L298.891 37.1501C298.791 37.2466 298.791 37.4085 298.891 37.505L300.102 38.6631C300.282 38.8374 300.108 39.1488 299.865 39.0834Z" fill="#4A734E"/>
<path d="M290.412 39.9145C289.684 40.0359 289.229 40.5122 288.669 41.1162C288.124 41.7046 287.691 42.1716 287.414 42.9592C287.253 43.4231 287.031 44.0488 287.212 44.7586C287.514 45.9635 288.862 47.0562 290.076 46.804C290.761 46.6639 291.353 46.2094 291.782 45.6584C292.212 45.1073 292.495 44.4535 292.75 43.8029C293.189 42.6759 293.41 41.7513 292.934 40.9823C292.374 40.0764 291.116 39.9207 291.026 39.9145C290.895 39.902 290.68 39.8771 290.406 39.9238V39.9176L290.412 39.9145Z" fill="#F5F1DE"/>
<path d="M291.004 41.5865C290.499 41.4931 290.085 41.7577 290.032 41.792C289.802 41.9414 289.659 42.1624 289.422 42.6357C289.282 42.9158 289.161 43.2054 289.052 43.5042C288.974 43.7191 288.905 43.9401 288.905 44.1705C288.905 44.5316 289.092 44.8834 289.385 45.0858C289.677 45.2881 290.073 45.3317 290.409 45.1978C290.726 45.0733 290.969 44.8118 291.193 44.5534C291.511 44.1829 291.819 43.7938 291.978 43.3361C292.09 43.0186 292.19 42.6076 291.987 42.234C291.754 41.8138 291.221 41.6488 291.131 41.6239C291.1 41.6145 291.063 41.6021 291.004 41.5927V41.5865Z" fill="#222222"/>
<path d="M298.35 44.4069C298.621 45.0949 298.45 45.73 298.219 46.5208C297.995 47.2897 297.818 47.903 297.288 48.5443C296.974 48.921 296.554 49.4347 295.85 49.6464C294.664 50.0076 293.033 49.416 292.622 48.2424C292.388 47.5824 292.472 46.8414 292.724 46.1876C292.977 45.5339 293.388 44.9548 293.814 44.4007C294.552 43.4449 295.231 42.7756 296.137 42.788C297.201 42.8005 297.983 43.7998 298.036 43.8745C298.117 43.9804 298.244 44.1516 298.347 44.41H298.353L298.35 44.4069Z" fill="#F5F1DE"/>
<path d="M296.71 44.8149C296.997 45.1698 296.959 45.6461 296.953 45.7084C296.931 45.973 296.813 46.2096 296.533 46.6579C296.365 46.9256 296.184 47.1809 295.991 47.43C295.851 47.6106 295.702 47.788 295.518 47.9094C295.228 48.1056 294.867 48.1491 294.584 48.0246C294.298 47.9001 294.098 47.6043 294.064 47.2619C294.03 46.9381 294.139 46.5988 294.251 46.2781C294.413 45.8205 294.596 45.3597 294.898 44.983C295.107 44.7215 295.393 44.4133 295.779 44.3759C296.215 44.3323 296.573 44.6717 296.629 44.7308C296.651 44.7495 296.676 44.7744 296.71 44.8149Z" fill="#222222"/>
<path d="M186.126 29.4167C187.359 29.4167 188.358 28.4174 188.358 27.1846C188.358 25.9518 187.359 24.9524 186.126 24.9524C184.893 24.9524 183.894 25.9518 183.894 27.1846C183.894 28.4174 184.893 29.4167 186.126 29.4167Z" fill="#F5D45D"/>
<path d="M273.988 106.264C275.221 106.264 276.22 105.264 276.22 104.031C276.22 102.799 275.221 101.799 273.988 101.799C272.755 101.799 271.756 102.799 271.756 104.031C271.756 105.264 272.755 106.264 273.988 106.264Z" fill="#F5D45D"/>
</svg>
