<svg width="319" height="230" viewBox="0 0 319 230" fill="none" xmlns="http://www.w3.org/2000/svg">
<rect width="319" height="230" rx="15.8621" fill="#F5F1DE"/>
<mask id="mask0_1_1765" style="mask-type:alpha" maskUnits="userSpaceOnUse" x="0" y="0" width="319" height="230">
<rect width="319" height="230" rx="15.8621" fill="#F5F1DE"/>
</mask>
<g mask="url(#mask0_1_1765)">
<path d="M57.5831 176.563C100.071 176.563 134.514 143.962 134.514 103.747C134.514 63.5315 100.071 30.9306 57.5831 30.9306C15.0953 30.9306 -19.3479 63.5315 -19.3479 103.747C-19.3479 143.962 15.0953 176.563 57.5831 176.563Z" fill="#F2AD48"/>
<path d="M62.5625 57.8397L71.6053 60.075C72.3504 60.2613 72.7907 61.0233 72.5706 61.7515L70.2167 69.8798C69.8442 71.1498 71.3512 72.132 72.3673 71.2853L79.8352 65.0198C80.3432 64.5964 81.0714 64.5964 81.5625 65.0198L89.0304 71.2853C90.0464 72.132 91.5536 71.1498 91.181 69.8798L88.8272 61.7515C88.607 61.0233 89.0473 60.2613 89.7924 60.075L98.8351 57.8397C100.19 57.5011 100.19 55.5706 98.8351 55.2319L89.7924 52.9966C89.0473 52.8104 88.607 52.0483 88.8272 51.3202L91.181 43.1919C91.5536 41.9218 90.0464 40.9396 89.0304 41.7863L81.5625 48.0519C81.0545 48.4753 80.3263 48.4753 79.8352 48.0519L72.3673 41.7863C71.3512 40.9396 69.8442 41.9218 70.2167 43.1919L72.5706 51.3202C72.7907 52.0483 72.3504 52.8104 71.6053 52.9966L62.5625 55.2319C61.2078 55.5706 61.2078 57.5011 62.5625 57.8397Z" fill="#4A734E"/>
<path d="M121.615 98.0338C121.901 104.651 122.102 109.12 120.96 114.294C119.718 120.018 118.677 123.386 115.621 126.412C112.448 129.557 107.31 130.898 103.498 128.646C101.181 127.271 99.67 124.83 98.3939 122.424C96.2951 118.471 94.5322 114.105 94.8848 109.619C95.187 105.786 97.0004 102.262 98.7634 98.8588C100.778 95.0087 103.045 90.9179 106.957 89.1647C111.373 87.188 115.621 89.5085 115.89 89.646C116.091 89.7491 120.692 92.2414 121.498 96.8822C121.582 97.3807 121.598 97.776 121.615 98.0338Z" fill="#F5F1DE"/>
<path d="M116.269 94.0282C118.04 95.4546 118.166 98.2056 118.229 99.4622C118.34 101.942 117.708 103.792 117.218 105.287C116.206 108.293 114.593 111.247 112.017 112.861C111.289 113.319 110.452 113.676 109.614 113.54C108.839 113.421 108.159 112.894 107.574 112.317C105.251 110.025 103.859 106.679 103.844 103.283C103.844 99.8868 105.187 96.5245 107.511 94.215C108.491 93.247 109.819 91.9055 111.574 91.9734C113.171 92.0244 115.084 93.23 115.732 93.6376C116.016 93.8244 116.158 93.9093 116.285 94.0112L116.269 94.0282Z" fill="#222222"/>
<path d="M89.2246 98.0338C89.51 104.651 89.7115 109.12 88.5697 114.294C87.3272 120.018 86.2862 123.386 83.2304 126.412C80.057 129.557 74.9191 130.898 71.1077 128.646C68.7906 127.271 67.2794 124.83 66.0033 122.424C63.9045 118.471 62.1415 114.105 62.4941 109.619C62.7964 105.786 64.6097 102.262 66.3727 98.8588C68.3876 95.0087 70.6543 90.9179 74.5665 89.1647C78.9824 87.188 83.2304 89.5085 83.4991 89.646C83.7006 89.7491 88.3011 92.2414 89.107 96.8822C89.191 97.3807 89.2078 97.776 89.2246 98.0338Z" fill="#F5F1DE"/>
<path d="M85.424 94.0282C87.4159 95.4546 87.5581 98.2056 87.6293 99.4622C87.7538 101.942 87.0424 103.792 86.491 105.287C85.3528 108.293 83.5388 111.247 80.6399 112.861C79.8218 113.319 78.8791 113.676 77.9366 113.54C77.0651 113.421 76.3004 112.894 75.6424 112.317C73.028 110.025 71.4629 106.679 71.4451 103.283C71.4451 99.8868 72.9568 96.5245 75.5711 94.215C76.6738 93.247 78.1677 91.9055 80.1418 91.9734C81.9381 92.0244 84.0901 93.23 84.8193 93.6376C85.1394 93.8244 85.2994 93.9093 85.4417 94.0112L85.424 94.0282Z" fill="#222222"/>
<path d="M194.236 289.411C247.897 289.411 291.398 248.237 291.398 197.446C291.398 146.656 247.897 105.482 194.236 105.482C140.575 105.482 97.074 146.656 97.074 197.446C97.074 248.237 140.575 289.411 194.236 289.411Z" fill="#629665"/>
<path d="M187.95 139.466L176.529 142.289C175.588 142.525 175.032 143.487 175.31 144.407L178.283 154.672C178.753 156.276 176.85 157.517 175.567 156.448L166.135 148.534C165.493 148 164.574 148 163.953 148.534L154.522 156.448C153.238 157.517 151.335 156.276 151.805 154.672L154.778 144.407C155.056 143.487 154.5 142.525 153.559 142.289L142.138 139.466C140.427 139.038 140.427 136.6 142.138 136.173L153.559 133.349C154.5 133.114 155.056 132.152 154.778 131.232L151.805 120.966C151.335 119.362 153.238 118.122 154.522 119.191L163.953 127.104C164.595 127.639 165.515 127.639 166.135 127.104L175.567 119.191C176.85 118.122 178.753 119.362 178.283 120.966L175.31 131.232C175.032 132.152 175.588 133.114 176.529 133.349L187.95 136.173C189.661 136.6 189.661 139.038 187.95 139.466Z" fill="#4A734E"/>
<path d="M129.971 191.818C129.576 199.78 129.297 205.157 130.877 211.381C132.596 218.268 134.037 222.321 138.265 225.961C142.656 229.745 149.765 231.358 155.038 228.649C158.244 226.995 160.335 224.058 162.101 221.163C165.005 216.407 167.444 211.154 166.956 205.756C166.538 201.145 164.029 196.905 161.59 192.81C158.802 188.178 155.666 183.256 150.253 181.147C144.142 178.769 138.265 181.56 137.893 181.726C137.614 181.85 131.249 184.849 130.134 190.432C130.017 191.032 129.994 191.508 129.971 191.818Z" fill="#F5F1DE"/>
<path d="M170.41 191.818C170.048 199.78 169.793 205.157 171.241 211.381C172.817 218.268 174.137 222.321 178.013 225.961C182.038 229.745 188.554 231.358 193.389 228.649C196.327 226.995 198.244 224.058 199.863 221.163C202.525 216.407 204.761 211.154 204.313 205.756C203.93 201.145 201.63 196.905 199.394 192.81C196.839 188.178 193.964 183.256 189.002 181.147C183.401 178.769 178.013 181.56 177.672 181.726C177.417 181.85 171.581 184.849 170.559 190.432C170.453 191.032 170.432 191.508 170.41 191.818Z" fill="#F5F1DE"/>
<path d="M176.232 195.312C173.552 197.162 173.361 200.731 173.265 202.361C173.098 205.577 174.055 207.978 174.796 209.916C176.327 213.815 178.768 217.648 182.667 219.741C183.768 220.335 185.036 220.798 186.304 220.622C187.476 220.467 188.505 219.785 189.39 219.036C192.907 216.062 195.012 211.722 195.036 207.317C195.036 202.911 193.003 198.55 189.486 195.554C188.003 194.299 185.993 192.558 183.337 192.647C180.921 192.713 178.026 194.277 177.045 194.805C176.615 195.048 176.399 195.158 176.208 195.29L176.232 195.312Z" fill="#222222"/>
<path d="M135.336 195.312C133.04 197.162 132.876 200.731 132.794 202.361C132.65 205.577 133.47 207.978 134.106 209.916C135.418 213.815 137.51 217.648 140.853 219.741C141.796 220.335 142.883 220.798 143.97 220.622C144.975 220.467 145.856 219.785 146.615 219.036C149.63 216.062 151.434 211.722 151.455 207.317C151.455 202.911 149.712 198.55 146.697 195.554C145.426 194.299 143.703 192.558 141.427 192.647C139.356 192.713 136.874 194.277 136.034 194.805C135.665 195.048 135.48 195.158 135.316 195.29L135.336 195.312Z" fill="#222222"/>
<path d="M48.8983 269.927C93.1588 269.927 129.039 236.133 129.039 194.446C129.039 152.759 93.1588 118.965 48.8983 118.965C4.63778 118.965 -31.2424 152.759 -31.2424 194.446C-31.2424 236.133 4.63778 269.927 48.8983 269.927Z" fill="#E24444"/>
<path d="M60.1509 149.741L50.9113 152.091C50.15 152.287 49.7001 153.088 49.925 153.854L52.3301 162.401C52.7107 163.736 51.1708 164.769 50.1327 163.879L42.5022 157.29C41.9831 156.845 41.2391 156.845 40.7374 157.29L33.1069 163.879C32.0688 164.769 30.5288 163.736 30.9095 162.401L33.3145 153.854C33.5395 153.088 33.0896 152.287 32.3283 152.091L23.0887 149.741C21.7045 149.385 21.7045 147.355 23.0887 146.999L32.3283 144.648C33.0896 144.452 33.5395 143.651 33.3145 142.886L30.9095 134.339C30.5288 133.003 32.0688 131.971 33.1069 132.861L40.7374 139.449C41.2564 139.894 42.0004 139.894 42.5022 139.449L50.1327 132.861C51.1708 131.971 52.7107 133.003 52.3301 134.339L49.925 142.886C49.7001 143.651 50.15 144.452 50.9113 144.648L60.1509 146.999C61.5351 147.355 61.5351 149.385 60.1509 149.741Z" fill="#4A734E"/>
<path d="M15.6747 180.396C12.4049 183.038 11.4808 186.68 10.3968 191.25C9.34837 195.696 8.51315 199.23 9.34837 203.908C9.84595 206.657 10.5034 210.388 13.3823 213.405C18.2515 218.529 27.9898 220.171 33.3032 215.512C36.3064 212.888 37.9591 208.978 38.5456 205.033C39.132 201.087 38.7055 197.052 38.1546 193.107C37.1772 186.287 35.6845 181.074 31.1707 178.593C25.8573 175.665 19.1933 178.432 18.7313 178.647C18.0382 178.95 16.9186 179.432 15.6925 180.432L15.6747 180.396Z" fill="#F5F1DE"/>
<path d="M23.2794 187.025C20.5242 187.976 19.1996 190.45 19.0406 190.773C18.3165 192.153 18.2282 193.659 18.3871 196.671C18.4754 198.464 18.6874 200.239 18.9876 202.014C19.1996 203.305 19.4821 204.596 20.1356 205.726C21.1424 207.519 23.0498 208.738 25.0633 208.917C27.0768 209.096 29.1608 208.2 30.4502 206.604C31.6688 205.098 32.1457 203.108 32.5343 201.207C33.0818 198.482 33.5057 195.685 33.0111 192.96C32.6756 191.077 32.0221 188.747 29.9733 187.474C27.6419 186.039 24.5335 186.721 24.0213 186.846C23.8446 186.882 23.615 186.936 23.2971 187.043L23.2794 187.025Z" fill="#222222"/>
<path d="M67.5665 180.396C70.8363 183.038 71.7603 186.68 72.8443 191.25C73.8928 195.696 74.728 199.23 73.8928 203.908C73.3952 206.657 72.7377 210.388 69.8589 213.405C64.9897 218.529 55.2514 220.171 49.938 215.512C46.9347 212.888 45.282 208.978 44.6956 205.033C44.1092 201.087 44.5357 197.052 45.0866 193.107C46.064 186.287 47.5567 181.074 52.0704 178.593C57.3839 175.665 64.0479 178.432 64.5099 178.647C65.203 178.95 66.3225 179.432 67.5487 180.432L67.5665 180.396Z" fill="#F5F1DE"/>
<path d="M60.5776 187.025C62.9884 187.976 64.1475 190.45 64.2865 190.773C64.9202 192.153 64.9974 193.659 64.8583 196.671C64.7811 198.464 64.5956 200.239 64.3329 202.014C64.1475 203.305 63.9002 204.596 63.3284 205.726C62.4475 207.519 60.7784 208.738 59.0167 208.917C57.2549 209.096 55.4313 208.2 54.3032 206.604C53.2368 205.098 52.8196 203.108 52.4796 201.207C52.0005 198.482 51.6296 195.685 52.0623 192.96C52.3559 191.077 52.9277 188.747 54.7204 187.474C56.7604 186.039 59.4803 186.721 59.9285 186.846C60.083 186.882 60.2839 186.936 60.5621 187.043L60.5776 187.025Z" fill="#222222"/>
</g>
<path d="M272.75 63.9228C272.75 63.6372 272.494 63.4127 272.207 63.4535L262.887 64.6573C262.651 64.6879 262.466 64.892 262.466 65.1368V72.5737C262.138 72.4615 261.79 72.4003 261.431 72.4003C259.667 72.4003 258.242 73.8285 258.242 75.5832C258.242 77.3379 259.667 78.7559 261.431 78.7559C263.194 78.7559 264.62 77.3379 264.62 75.5832C264.62 75.522 264.62 75.4506 264.62 75.3792V67.779C264.62 67.5648 264.784 67.3913 264.989 67.3607L270.125 66.6976C270.382 66.667 270.607 66.8609 270.607 67.1159V70.6864C270.279 70.5742 269.931 70.513 269.561 70.513C267.798 70.513 266.373 71.931 266.373 73.6857C266.373 75.4404 267.798 76.8584 269.561 76.8584C271.325 76.8584 272.75 75.4404 272.75 73.6857V63.9228Z" fill="#00A6ED"/>
<path d="M143.473 26.7363C143.473 26.4506 143.216 26.2262 142.929 26.267L133.609 27.4708C133.374 27.5014 133.189 27.7054 133.189 27.9503V35.3872C132.861 35.275 132.512 35.2138 132.154 35.2138C130.39 35.2138 128.965 36.642 128.965 38.3967C128.965 40.1513 130.39 41.5694 132.154 41.5694C133.917 41.5694 135.342 40.1513 135.342 38.3967C135.342 38.3355 135.342 38.264 135.342 38.1926V30.5925C135.342 30.3782 135.506 30.2048 135.711 30.1742L140.848 29.5111C141.104 29.4805 141.33 29.6743 141.33 29.9294V33.4999C141.002 33.3877 140.653 33.3265 140.284 33.3265C138.521 33.3265 137.095 34.7445 137.095 36.4992C137.095 38.2538 138.521 39.6719 140.284 39.6719C142.048 39.6719 143.473 38.2538 143.473 36.4992V26.7363Z" fill="#00A6ED"/>
<path d="M216.043 31.7861L211.511 32.3778C211.275 32.4084 211.101 32.6125 211.101 32.8471V38.4477C210.68 38.3049 210.219 38.2437 209.727 38.2947C208.209 38.458 207.02 39.7025 206.917 41.2226C206.794 43.0487 208.25 44.5687 210.065 44.5687C211.88 44.5687 213.223 43.1609 213.223 41.4266C213.223 41.3654 213.223 41.294 213.223 41.2328V35.4791C213.223 35.2751 213.377 35.1016 213.582 35.071L216.135 34.7446C216.33 34.7242 216.473 34.5508 216.473 34.3569V32.2044C216.473 31.9698 216.278 31.7861 216.043 31.8167V31.7861Z" fill="#F2AD48"/>
<path d="M215.102 37.4071L219.634 36.8154C219.869 36.7746 220.074 36.9582 220.074 37.1929V39.3454C220.074 39.5392 219.931 39.7126 219.736 39.733L217.183 40.0595C216.978 40.0901 216.824 40.2635 216.824 40.4676V47.9759C216.824 48.0371 216.824 48.1085 216.824 48.1697C216.824 49.9142 215.409 51.3118 213.666 51.3118C211.923 51.3118 210.396 49.802 210.519 47.9657C210.611 46.4559 211.8 45.2113 213.318 45.0481C213.81 44.997 214.271 45.0481 214.692 45.2011V37.8458C214.692 37.6009 214.866 37.4071 215.102 37.3765V37.4071Z" fill="#F2AD48"/>
<path d="M168.234 71.3794L163.702 71.9711C163.466 72.0017 163.292 72.1955 163.292 72.4302V79.7855C162.872 79.6427 162.41 79.5814 161.918 79.6325C160.401 79.7957 159.211 81.0403 159.109 82.5603C158.986 84.3864 160.442 85.9064 162.256 85.9064C164.071 85.9064 165.414 84.4986 165.414 82.7643C165.414 82.7031 165.414 82.6317 165.414 82.5705V75.0724C165.414 74.8683 165.568 74.6949 165.773 74.6643L168.326 74.3378C168.521 74.3072 168.675 74.144 168.675 73.9502V71.7875C168.675 71.5528 168.47 71.3794 168.234 71.41V71.3794Z" fill="#F2AD48"/>
</svg>
