<svg width="288" height="278" viewBox="0 0 288 278" fill="none" xmlns="http://www.w3.org/2000/svg">
<path d="M141.441 265.97C176.498 265.97 204.917 255.937 204.917 243.561C204.917 231.185 176.498 221.152 141.441 221.152C106.384 221.152 77.9648 231.185 77.9648 243.561C77.9648 255.937 106.384 265.97 141.441 265.97Z" fill="#D8D5C5"/>
<path d="M140.289 233.362C173.258 233.362 199.984 208.104 199.984 176.947C199.984 145.79 173.258 120.532 140.289 120.532C107.32 120.532 80.5938 145.79 80.5938 176.947C80.5938 208.104 107.32 233.362 140.289 233.362Z" fill="#E24444"/>
<path d="M154.381 141.379L147.356 143.113C146.781 143.255 146.44 143.845 146.604 144.411L148.43 150.709C148.717 151.697 147.548 152.459 146.758 151.797L140.964 146.938C140.577 146.613 140.009 146.613 139.622 146.938L133.828 151.797C133.038 152.459 131.868 151.697 132.156 150.709L133.981 144.411C134.146 143.845 133.805 143.255 133.23 143.113L126.205 141.379C125.15 141.119 125.15 139.618 126.205 139.357L133.23 137.623C133.805 137.481 134.146 136.892 133.981 136.325L132.156 130.027C131.868 129.039 133.038 128.277 133.828 128.94L139.622 133.798C140.009 134.124 140.577 134.124 140.964 133.798L146.758 128.94C147.548 128.277 148.717 129.039 148.43 130.027L146.604 136.325C146.44 136.892 146.781 137.481 147.356 137.623L154.381 139.357C155.435 139.618 155.435 141.119 154.381 141.379Z" fill="#4A734E"/>
<path d="M120.865 165.013C118.442 166.95 117.767 169.63 116.969 172.984C116.195 176.254 115.577 178.846 116.191 182.28C116.551 184.305 117.042 187.039 119.166 189.263C122.759 193.023 129.961 194.233 133.902 190.814C136.123 188.888 137.35 186.017 137.775 183.111C138.205 180.208 137.898 177.249 137.48 174.343C136.759 169.331 135.659 165.503 132.311 163.669C128.381 161.521 123.45 163.558 123.112 163.703C122.602 163.922 121.774 164.285 120.865 165.009V165.013Z" fill="#F5F1DE"/>
<path d="M126.319 170.136C124.268 170.833 123.282 172.64 123.159 172.873C122.623 173.888 122.55 174.99 122.672 177.184C122.745 178.494 122.895 179.795 123.117 181.089C123.282 182.027 123.493 182.977 123.968 183.804C124.72 185.109 126.135 186.013 127.642 186.139C129.145 186.266 130.694 185.615 131.653 184.451C132.565 183.348 132.918 181.897 133.202 180.496C133.605 178.509 133.919 176.453 133.555 174.458C133.302 173.084 132.818 171.369 131.289 170.446C129.552 169.397 127.235 169.898 126.856 169.986C126.725 170.017 126.549 170.059 126.319 170.136Z" fill="#222222"/>
<path d="M159.707 165.013C162.131 166.95 162.805 169.63 163.603 172.984C164.378 176.254 164.995 178.846 164.381 182.28C164.021 184.305 163.53 187.039 161.406 189.263C157.813 193.023 150.612 194.233 146.67 190.814C144.45 188.888 143.223 186.017 142.797 183.111C142.368 180.208 142.674 177.249 143.092 174.343C143.813 169.331 144.914 165.503 148.261 163.669C152.192 161.521 157.123 163.558 157.46 163.703C157.97 163.922 158.798 164.285 159.707 165.009V165.013Z" fill="#F5F1DE"/>
<path d="M154.256 170.136C156.307 170.833 157.293 172.64 157.415 172.873C157.952 173.888 158.025 174.99 157.902 177.184C157.829 178.494 157.68 179.795 157.458 181.089C157.293 182.027 157.082 182.977 156.606 183.804C155.855 185.109 154.44 186.013 152.933 186.139C151.43 186.266 149.881 185.615 148.922 184.451C148.009 183.348 147.657 181.897 147.373 180.496C146.97 178.509 146.656 176.453 147.02 174.458C147.273 173.084 147.756 171.369 149.286 170.446C151.023 169.397 153.339 169.898 153.719 169.986C153.849 170.017 154.026 170.059 154.256 170.136Z" fill="#222222"/>
<path d="M79.0154 181.338C78.03 182.093 63.3746 193.544 66.2734 202.844C66.9828 205.114 69.1033 208.434 71.6532 208.503C74.2798 208.571 76.1626 205.229 78.099 202.553C80.9097 198.674 85.6299 193.774 94.0006 189.474C93.9891 189.432 93.7782 188.781 93.0957 188.594C92.4553 188.421 91.9607 188.808 91.9146 188.846" fill="#963030"/>
<path d="M84.9118 173.195C82.6762 174.704 60.9654 189.655 64.3397 201.091C65.0951 203.648 67.5799 207.649 70.5976 207.787C73.554 207.925 75.617 204.291 78.2359 201.018C81.3802 197.09 86.5989 192.093 95.6023 187.882" fill="#E24444"/>
<path d="M200.114 186.913C201.1 186.158 215.755 174.707 212.856 165.407C212.147 163.137 210.026 159.818 207.476 159.749C204.85 159.68 202.967 163.022 201.031 165.698C198.22 169.577 193.5 174.477 185.129 178.777C185.14 178.819 185.351 179.47 186.034 179.657C186.674 179.83 187.169 179.443 187.215 179.405" fill="#963030"/>
<path d="M194.222 195.056C196.457 193.548 218.168 178.597 214.794 167.161C214.038 164.603 211.554 160.602 208.536 160.464C205.58 160.327 203.517 163.96 200.898 167.233C197.753 171.162 192.535 176.158 183.531 180.369" fill="#E24444"/>
<path d="M117.83 217.19C116.147 223.243 114.467 229.292 112.784 235.345C112.354 235.334 107.082 235.299 104.428 239.388C104.018 240.02 102.722 242.019 103.159 244.293C104.237 249.867 114.417 251.491 117.826 252.038C121.668 252.651 123.992 253.026 126.066 251.667C128.923 249.798 129.364 245.966 129.813 241.521C130.783 231.911 131.465 224.637 131.929 219.502" fill="#E24444"/>
<path d="M162.748 217.19C164.431 223.243 166.111 229.292 167.794 235.345C168.223 235.334 173.496 235.299 176.149 239.388C176.56 240.02 177.856 242.019 177.419 244.293C176.341 249.867 166.161 251.491 162.752 252.038C158.91 252.651 156.586 253.026 154.511 251.667C151.655 249.798 151.214 245.966 150.765 241.521C149.795 231.911 149.112 224.637 148.648 219.502" fill="#E24444"/>
<path d="M74.3936 128.718L75.7318 131.279C75.9351 131.658 76.307 131.926 76.7365 131.987L79.5625 132.374C81.0733 132.581 81.66 134.441 80.5403 135.475L78.6039 137.259C78.2703 137.569 78.1131 138.025 78.1974 138.473L78.6691 141.088C78.9336 142.543 77.4152 143.68 76.0808 143.014L73.3813 141.678C73.0055 141.494 72.5646 141.494 72.1849 141.678L69.4855 143.014C68.1549 143.672 66.6364 142.543 66.8972 141.088L67.3688 138.473C67.4532 138.029 67.296 137.569 66.9624 137.259L65.026 135.475C63.9101 134.445 64.493 132.581 66.0037 132.374L68.8298 131.987C69.2592 131.926 69.635 131.666 69.8344 131.279L71.1727 128.718C71.8552 127.427 73.7111 127.427 74.3859 128.718H74.3936Z" fill="#F5D45D"/>
<path d="M216.741 202.43L218.08 204.991C218.283 205.37 218.655 205.638 219.084 205.7L221.91 206.086C223.421 206.293 224.008 208.154 222.888 209.188L220.952 210.972C220.618 211.282 220.461 211.737 220.545 212.185L221.017 214.8C221.281 216.255 219.763 217.392 218.428 216.726L215.729 215.39C215.353 215.206 214.912 215.206 214.533 215.39L211.833 216.726C210.503 217.385 208.984 216.255 209.245 214.8L209.716 212.185C209.801 211.741 209.644 211.282 209.31 210.972L207.374 209.188C206.258 208.158 206.841 206.293 208.351 206.086L211.177 205.7C211.607 205.638 211.983 205.378 212.182 204.991L213.52 202.43C214.203 201.14 216.059 201.14 216.734 202.43H216.741Z" fill="#F5D45D"/>
<path d="M90.3431 126.309C91.8615 126.309 93.0924 125.08 93.0924 123.564C93.0924 122.048 91.8615 120.819 90.3431 120.819C88.8247 120.819 87.5938 122.048 87.5938 123.564C87.5938 125.08 88.8247 126.309 90.3431 126.309Z" fill="#F5D45D"/>
<path d="M198.554 220.815C200.072 220.815 201.303 219.586 201.303 218.07C201.303 216.554 200.072 215.325 198.554 215.325C197.036 215.325 195.805 216.554 195.805 218.07C195.805 219.586 197.036 220.815 198.554 220.815Z" fill="#F5D45D"/>
<path fill-rule="evenodd" clip-rule="evenodd" d="M90.3951 51.7046C87.9199 48.1482 86.4688 43.8258 86.4688 39.1645C86.4688 27.0264 96.3086 17.1865 108.447 17.1865C111.005 17.1865 113.461 17.6235 115.744 18.427C118.94 9.9945 127.092 4 136.645 4C144.669 4 151.705 8.22955 155.646 14.5808C157.738 13.8943 159.97 13.5235 162.287 13.5235C167.055 13.5235 171.462 15.0937 175.036 17.7532C177.349 16.9122 179.841 16.4541 182.439 16.4541C193.722 16.4541 203.02 25.099 204.273 36.2294C211 39.8133 215.607 47.1277 215.607 55.5683C215.607 67.5459 206.329 77.2557 194.884 77.2557L194.781 77.2554C193.681 88.3636 184.309 97.0399 172.912 97.0399C167.777 97.0399 163.053 95.279 159.312 92.3283C155.371 98.6747 148.337 102.9 140.317 102.9C131.49 102.9 123.858 97.7816 120.228 90.3504C118.717 90.5368 117.169 90.6334 115.594 90.6334C98.6975 90.6334 85 79.5126 85 65.7945C85 60.5624 86.9925 55.7081 90.3951 51.7046Z" fill="#ECECEC"/>
<path d="M123.523 43.8249C123.523 44.6649 123.463 45.4209 123.343 46.0689C123.211 46.7409 123.007 47.2929 122.743 47.7489C122.455 48.2049 122.095 48.5529 121.651 48.7929C121.195 49.0329 120.655 49.1529 120.007 49.1529C119.359 49.1529 118.807 49.0329 118.363 48.7929C117.907 48.5529 117.547 48.2049 117.283 47.7489C116.995 47.2929 116.803 46.7409 116.683 46.0689C116.551 45.4209 116.491 44.6649 116.491 43.8249C116.491 42.9849 116.551 42.2409 116.683 41.5689C116.803 40.9209 116.995 40.3569 117.283 39.9009C117.547 39.4449 117.907 39.0969 118.363 38.8569C118.807 38.6169 119.359 38.4969 120.007 38.4969C120.655 38.4969 121.195 38.6169 121.651 38.8569C122.095 39.0969 122.455 39.4449 122.743 39.9009C123.007 40.3569 123.211 40.9209 123.343 41.5689C123.463 42.2409 123.523 42.9849 123.523 43.8249ZM128.047 44.2689C128.047 44.3889 128.023 44.4729 127.975 44.5089C127.927 44.5569 127.843 44.5689 127.735 44.5689H126.631V49.3569C126.631 49.4769 126.607 49.5489 126.559 49.5969C126.511 49.6329 126.427 49.6569 126.319 49.6569H124.639C124.519 49.6569 124.447 49.6329 124.399 49.5969C124.351 49.5489 124.327 49.4769 124.327 49.3569V38.7969C124.327 38.6769 124.351 38.6049 124.399 38.5569C124.447 38.5209 124.519 38.4969 124.639 38.4969H126.319C126.427 38.4969 126.511 38.5209 126.559 38.5569C126.607 38.6049 126.631 38.6769 126.631 38.7969V42.5769H127.735C127.843 42.5769 127.927 42.6009 127.975 42.6369C128.023 42.6849 128.047 42.7569 128.047 42.8769V44.2689ZM121.279 43.8249C121.279 43.0929 121.231 42.5049 121.159 42.0609C121.063 41.6289 120.955 41.2809 120.835 41.0409C120.703 40.8129 120.571 40.6569 120.427 40.5849C120.271 40.5129 120.127 40.4769 120.007 40.4769C119.875 40.4769 119.743 40.5129 119.599 40.5849C119.443 40.6569 119.299 40.8129 119.179 41.0409C119.047 41.2809 118.939 41.6289 118.867 42.0609C118.771 42.5049 118.735 43.0929 118.735 43.8249C118.735 44.5689 118.771 45.1569 118.867 45.5889C118.939 46.0329 119.047 46.3689 119.179 46.5969C119.299 46.8369 119.443 46.9929 119.599 47.0649C119.743 47.1369 119.875 47.1729 120.007 47.1729C120.127 47.1729 120.271 47.1369 120.427 47.0649C120.571 46.9929 120.703 46.8369 120.835 46.5969C120.955 46.3689 121.063 46.0329 121.159 45.5889C121.231 45.1569 121.279 44.5689 121.279 43.8249ZM128.599 38.7969C128.599 38.6769 128.623 38.6049 128.671 38.5569C128.719 38.5209 128.791 38.4969 128.911 38.4969H135.187C135.295 38.4969 135.379 38.5209 135.427 38.5569C135.475 38.6049 135.499 38.6769 135.499 38.7969V40.2009C135.499 40.3209 135.475 40.4049 135.427 40.4409C135.379 40.4889 135.295 40.5009 135.187 40.5009H133.195C133.195 40.7409 133.219 40.9569 133.279 41.1729C133.327 41.4009 133.435 41.6049 133.591 41.7849C133.735 41.9769 133.939 42.1449 134.203 42.2889C134.455 42.4329 134.779 42.5529 135.187 42.6249C135.211 42.6369 135.259 42.6489 135.307 42.6489C135.343 42.6609 135.379 42.6729 135.427 42.6969C135.463 42.7329 135.499 42.7689 135.535 42.8169C135.559 42.8769 135.571 42.9489 135.571 43.0449V44.3769C135.571 44.5209 135.535 44.6049 135.463 44.6289C135.379 44.6649 135.307 44.6769 135.259 44.6649C134.971 44.6409 134.695 44.6049 134.407 44.5329C134.107 44.4849 133.819 44.4009 133.543 44.2809C133.255 44.1849 132.991 44.0409 132.739 43.8729C132.475 43.7049 132.247 43.5129 132.055 43.2729C131.839 43.5129 131.611 43.7049 131.371 43.8729C131.107 44.0409 130.843 44.1849 130.567 44.2809C130.279 44.4009 130.003 44.4849 129.715 44.5329C129.415 44.6049 129.127 44.6409 128.851 44.6649C128.791 44.6769 128.731 44.6649 128.659 44.6289C128.575 44.6049 128.539 44.5209 128.539 44.3769V43.0449C128.539 42.9489 128.551 42.8769 128.587 42.8169C128.611 42.7689 128.635 42.7329 128.683 42.6969C128.719 42.6729 128.767 42.6609 128.815 42.6489C128.851 42.6489 128.887 42.6369 128.923 42.6249C129.307 42.5529 129.631 42.4329 129.895 42.2889C130.147 42.1449 130.351 41.9769 130.507 41.7849C130.651 41.6049 130.759 41.4009 130.831 41.1729C130.879 40.9569 130.915 40.7409 130.915 40.5009H128.911C128.791 40.5009 128.719 40.4889 128.671 40.4409C128.623 40.4049 128.599 40.3209 128.599 40.2009V38.7969ZM129.439 45.5169C129.439 45.3969 129.463 45.3249 129.511 45.2769C129.559 45.2409 129.631 45.2169 129.751 45.2169H138.595C138.703 45.2169 138.787 45.2409 138.835 45.2769C138.883 45.3249 138.907 45.3969 138.907 45.5169V49.5969C138.907 49.7169 138.883 49.7889 138.835 49.8369C138.787 49.8729 138.703 49.8969 138.595 49.8969H136.915C136.795 49.8969 136.723 49.8729 136.675 49.8369C136.627 49.7889 136.603 49.7169 136.603 49.5969V47.2089H129.751C129.631 47.2089 129.559 47.1969 129.511 47.1489C129.463 47.1129 129.439 47.0289 129.439 46.9089V45.5169ZM136.915 44.6649C136.795 44.6649 136.723 44.6529 136.675 44.6049C136.627 44.5689 136.603 44.4849 136.603 44.3649V38.7969C136.603 38.6769 136.627 38.6049 136.675 38.5569C136.723 38.5209 136.795 38.4969 136.915 38.4969H138.595C138.703 38.4969 138.787 38.5209 138.835 38.5569C138.883 38.6049 138.907 38.6769 138.907 38.7969V44.3649C138.907 44.4849 138.883 44.5689 138.835 44.6049C138.787 44.6529 138.703 44.6649 138.595 44.6649H136.915ZM143.83 43.5849C143.83 43.4649 143.854 43.3929 143.902 43.3449C143.95 43.3089 144.022 43.2849 144.142 43.2849H154.27C154.378 43.2849 154.462 43.3089 154.51 43.3449C154.558 43.3929 154.582 43.4649 154.582 43.5849V44.9889C154.582 45.1089 154.558 45.1929 154.51 45.2289C154.462 45.2769 154.378 45.2889 154.27 45.2889H144.142C144.022 45.2889 143.95 45.2769 143.902 45.2289C143.854 45.1929 143.83 45.1089 143.83 44.9889V43.5849ZM153.502 38.4969C153.61 38.4969 153.694 38.5209 153.742 38.5569C153.79 38.6049 153.814 38.6769 153.814 38.7969V39.9129C153.814 40.0329 153.79 40.1169 153.742 40.1529C153.694 40.2009 153.61 40.2129 153.502 40.2129H146.89V40.6689C146.89 40.8369 146.914 40.9329 146.986 40.9569C147.046 41.0049 147.19 41.0169 147.43 41.0049C147.91 41.0049 148.402 40.9929 148.918 40.9689C149.422 40.9689 149.938 40.9449 150.466 40.9209C150.97 40.9089 151.486 40.8849 152.002 40.8489C152.506 40.8249 152.986 40.8009 153.466 40.7529C153.574 40.7409 153.646 40.7529 153.694 40.8009C153.73 40.8489 153.754 40.9329 153.778 41.0529L153.886 42.1569C153.898 42.2769 153.874 42.3609 153.826 42.3849C153.766 42.4329 153.682 42.4569 153.574 42.4569C152.446 42.5529 151.27 42.6249 150.046 42.6729C148.81 42.7329 147.586 42.7569 146.374 42.7569C145.726 42.7569 145.27 42.6249 145.006 42.3609C144.718 42.1089 144.586 41.6649 144.586 41.0289V38.7969C144.586 38.6769 144.61 38.6049 144.658 38.5569C144.706 38.5209 144.778 38.4969 144.898 38.4969H153.502ZM149.206 50.2809C147.646 50.2809 146.47 50.1009 145.702 49.7409C144.922 49.3809 144.538 48.8049 144.538 48.0249C144.538 47.2449 144.934 46.6689 145.726 46.3089C146.506 45.9609 147.67 45.7809 149.206 45.7809C150.742 45.7809 151.906 45.9609 152.698 46.3089C153.478 46.6689 153.874 47.2449 153.874 48.0249C153.874 48.8049 153.478 49.3809 152.71 49.7409C151.93 50.1009 150.766 50.2809 149.206 50.2809ZM149.206 48.4929C149.686 48.4929 150.07 48.4809 150.382 48.4689C150.682 48.4449 150.922 48.4209 151.102 48.3849C151.27 48.3369 151.402 48.2889 151.474 48.2409C151.534 48.1689 151.57 48.0969 151.57 48.0129C151.57 47.9289 151.534 47.8569 151.474 47.8089C151.402 47.7489 151.27 47.7009 151.102 47.6529C150.922 47.6169 150.682 47.5809 150.382 47.5569C150.07 47.5449 149.686 47.5329 149.206 47.5329C148.726 47.5329 148.33 47.5449 148.03 47.5569C147.718 47.5809 147.478 47.6169 147.31 47.6529C147.13 47.7009 147.01 47.7489 146.95 47.8089C146.878 47.8569 146.842 47.9289 146.842 48.0129C146.842 48.0969 146.878 48.1689 146.95 48.2409C147.01 48.2889 147.13 48.3369 147.31 48.3849C147.478 48.4209 147.718 48.4449 148.03 48.4689C148.33 48.4809 148.726 48.4929 149.206 48.4929ZM165.36 43.3089C165.372 43.4049 165.348 43.4649 165.3 43.4889C165.24 43.5129 165.156 43.5369 165.048 43.5489C164.496 43.6089 163.956 43.6569 163.428 43.6809C162.888 43.7169 162.336 43.7409 161.76 43.7649V44.2449H165.672C165.78 44.2449 165.864 44.2689 165.912 44.3049C165.96 44.3529 165.984 44.4249 165.984 44.5449V45.7089C165.984 45.8289 165.96 45.9129 165.912 45.9489C165.864 45.9969 165.78 46.0089 165.672 46.0089H155.544C155.424 46.0089 155.352 45.9969 155.304 45.9489C155.256 45.9129 155.232 45.8289 155.232 45.7089V44.5449C155.232 44.4249 155.256 44.3529 155.304 44.3049C155.352 44.2689 155.424 44.2449 155.544 44.2449H159.456V43.8129H157.776C157.404 43.8129 157.104 43.7889 156.876 43.7289C156.636 43.6809 156.456 43.5969 156.336 43.4769C156.192 43.3569 156.108 43.2009 156.06 43.0089C156.012 42.8289 155.988 42.6009 155.988 42.3369V40.5969C155.988 40.4889 156.012 40.4169 156.06 40.3689C156.108 40.3329 156.18 40.3089 156.3 40.3089H163.14V39.9489H156.3C156.084 39.9489 155.988 39.8409 155.988 39.6009V38.7969C155.988 38.6769 156.012 38.6049 156.06 38.5569C156.108 38.5209 156.18 38.4969 156.3 38.4969H164.904C165.012 38.4969 165.096 38.5209 165.144 38.5569C165.192 38.6049 165.216 38.6769 165.216 38.7969V41.4609C165.216 41.5809 165.192 41.6649 165.144 41.7009C165.096 41.7489 165.012 41.7609 164.904 41.7609H158.064V41.9649C158.064 42.0969 158.112 42.1689 158.208 42.1929C158.304 42.2289 158.448 42.2409 158.652 42.2409C159.324 42.2409 159.936 42.2409 160.512 42.2289C161.064 42.2289 161.604 42.2169 162.12 42.1929C162.624 42.1809 163.104 42.1569 163.572 42.1329C164.028 42.1089 164.496 42.0849 164.976 42.0369C165.072 42.0369 165.132 42.0369 165.18 42.0609C165.204 42.0849 165.228 42.1449 165.252 42.2289L165.36 43.3089ZM155.988 46.7769C155.988 46.6569 156.012 46.5849 156.06 46.5369C156.108 46.5009 156.18 46.4769 156.3 46.4769H164.904C165.012 46.4769 165.096 46.5009 165.144 46.5369C165.192 46.5849 165.216 46.6569 165.216 46.7769V49.5849C165.216 49.7049 165.192 49.7769 165.144 49.8249C165.096 49.8609 165.012 49.8849 164.904 49.8849H163.224C163.104 49.8849 163.032 49.8609 162.984 49.8249C162.936 49.7769 162.912 49.7049 162.912 49.5849V48.2289H156.3C156.18 48.2289 156.108 48.2049 156.06 48.1689C156.012 48.1209 155.988 48.0489 155.988 47.9289V46.7769ZM173.151 38.4969C173.259 38.4969 173.343 38.5209 173.391 38.5569C173.439 38.6049 173.463 38.6769 173.463 38.7969V39.8889C173.463 40.0089 173.439 40.0929 173.391 40.1289C173.343 40.1769 173.259 40.1889 173.151 40.1889H169.467V40.8369C169.467 40.9809 169.491 41.0769 169.539 41.1129C169.587 41.1609 169.695 41.1729 169.863 41.1729C170.199 41.1729 170.523 41.1729 170.811 41.1609C171.099 41.1609 171.375 41.1489 171.651 41.1249C171.915 41.1249 172.191 41.1009 172.455 41.0769C172.719 41.0529 172.995 41.0289 173.295 41.0049C173.403 40.9929 173.487 41.0049 173.535 41.0409C173.571 41.0889 173.595 41.1729 173.607 41.2929L173.679 42.4089C173.679 42.5289 173.667 42.6129 173.619 42.6369C173.559 42.6729 173.475 42.6969 173.367 42.7089C173.079 42.7329 172.791 42.7569 172.491 42.7689C172.179 42.7929 171.879 42.8049 171.567 42.8169V43.5729H173.979C174.087 43.5729 174.171 43.5969 174.219 43.6329C174.267 43.6809 174.291 43.7529 174.291 43.8729V45.2769C174.291 45.3969 174.267 45.4809 174.219 45.5169C174.171 45.5649 174.087 45.5769 173.979 45.5769H166.947C166.827 45.5769 166.755 45.5649 166.707 45.5169C166.659 45.4809 166.635 45.3969 166.635 45.2769V43.8729C166.635 43.7529 166.659 43.6809 166.707 43.6329C166.755 43.5969 166.827 43.5729 166.947 43.5729H169.263V42.8769H168.471C168.063 42.8769 167.751 42.7689 167.523 42.5529C167.283 42.3369 167.163 41.9649 167.163 41.4129V38.7969C167.163 38.6769 167.187 38.6049 167.235 38.5569C167.283 38.5209 167.355 38.4969 167.475 38.4969H173.151ZM177.207 49.2369C177.219 49.3569 177.195 49.4289 177.147 49.4649C177.087 49.4889 177.003 49.5129 176.895 49.5369C176.343 49.5849 175.743 49.6449 175.107 49.6929L173.175 49.8009L171.279 49.8729C170.655 49.8849 170.079 49.8969 169.575 49.8969C168.807 49.8969 168.255 49.6929 167.931 49.2849C167.595 48.8649 167.427 48.2049 167.427 47.3049V46.3449C167.427 46.2249 167.451 46.1529 167.499 46.1049C167.547 46.0689 167.619 46.0449 167.739 46.0449H169.419C169.527 46.0449 169.611 46.0689 169.659 46.1049C169.707 46.1529 169.731 46.2249 169.731 46.3449V47.0769C169.731 47.3649 169.791 47.5809 169.911 47.7129C170.031 47.8449 170.247 47.9049 170.571 47.9049C171.003 47.8929 171.483 47.8809 172.011 47.8689C172.527 47.8449 173.067 47.8089 173.619 47.7849C174.171 47.7609 174.711 47.7249 175.263 47.6769C175.791 47.6409 176.295 47.5929 176.775 47.5449C176.883 47.5329 176.955 47.5449 177.003 47.5929C177.039 47.6409 177.063 47.7249 177.087 47.8449L177.207 49.2369ZM175.083 46.8969C174.963 46.8969 174.891 46.8849 174.843 46.8369C174.795 46.8009 174.771 46.7169 174.771 46.5969V38.7969C174.771 38.6769 174.795 38.6049 174.843 38.5569C174.891 38.5209 174.963 38.4969 175.083 38.4969H176.763C176.871 38.4969 176.955 38.5209 177.003 38.5569C177.051 38.6049 177.075 38.6769 177.075 38.7969V46.5969C177.075 46.7169 177.051 46.8009 177.003 46.8369C176.955 46.8849 176.871 46.8969 176.763 46.8969H175.083ZM102.064 63.5529C102.064 63.4329 102.088 63.3609 102.136 63.3129C102.184 63.2769 102.256 63.2529 102.376 63.2529H112.504C112.612 63.2529 112.696 63.2769 112.744 63.3129C112.792 63.3609 112.816 63.4329 112.816 63.5529V64.9569C112.816 65.0769 112.792 65.1609 112.744 65.1969C112.696 65.2449 112.612 65.2569 112.504 65.2569H108.592V67.5849C108.592 67.7049 108.568 67.7769 108.52 67.8249C108.472 67.8609 108.388 67.8849 108.28 67.8849H106.6C106.48 67.8849 106.408 67.8609 106.36 67.8249C106.312 67.7769 106.288 67.7049 106.288 67.5849V65.2569H102.376C102.256 65.2569 102.184 65.2449 102.136 65.1969C102.088 65.1609 102.064 65.0769 102.064 64.9569V63.5529ZM103.192 62.5089H103.084C103.036 62.5089 102.988 62.4969 102.952 62.4729C102.904 62.4489 102.868 62.4129 102.844 62.3649C102.808 62.3169 102.796 62.2569 102.796 62.1609V60.7569C102.796 60.6129 102.808 60.5169 102.844 60.4689C102.868 60.4329 102.94 60.4089 103.06 60.3849C103.588 60.3369 104.056 60.2289 104.464 60.0609C104.86 59.9049 105.196 59.7009 105.472 59.4609C105.736 59.2329 105.94 58.9689 106.084 58.6569C106.216 58.3689 106.288 58.0449 106.288 57.7089V56.7369C106.288 56.6169 106.312 56.5449 106.36 56.4969C106.408 56.4609 106.48 56.4369 106.6 56.4369H108.28C108.388 56.4369 108.472 56.4609 108.52 56.4969C108.568 56.5449 108.592 56.6169 108.592 56.7369V57.7089C108.592 58.0449 108.652 58.3689 108.796 58.6569C108.928 58.9689 109.132 59.2329 109.408 59.4609C109.672 59.7009 110.02 59.9049 110.428 60.0609C110.824 60.2289 111.292 60.3369 111.82 60.3849C111.928 60.4089 112 60.4329 112.036 60.4689C112.06 60.5169 112.084 60.6129 112.084 60.7569V62.1609C112.084 62.2569 112.072 62.3169 112.048 62.3649C112.012 62.4129 111.976 62.4489 111.94 62.4729C111.892 62.4969 111.844 62.5089 111.808 62.5089H111.688C111.184 62.4609 110.704 62.3769 110.26 62.2449C109.804 62.1249 109.408 61.9809 109.048 61.8009C108.676 61.6329 108.352 61.4409 108.088 61.2249C107.812 61.0209 107.596 60.8049 107.44 60.5889C107.272 60.8049 107.056 61.0209 106.792 61.2249C106.516 61.4409 106.192 61.6329 105.832 61.8009C105.46 61.9809 105.052 62.1249 104.62 62.2449C104.164 62.3769 103.696 62.4609 103.192 62.5089ZM119.527 68.2809C118.831 68.2809 118.231 68.2089 117.751 68.0769C117.247 67.9329 116.851 67.7529 116.551 67.5129C116.239 67.2729 116.011 66.9969 115.879 66.6849C115.735 66.3609 115.663 66.0249 115.663 65.6649C115.663 65.3049 115.735 64.9689 115.879 64.6449C116.023 64.3329 116.251 64.0569 116.563 63.8169C116.875 63.5889 117.271 63.4089 117.763 63.2649C118.243 63.1329 118.831 63.0609 119.527 63.0609C120.211 63.0609 120.799 63.1329 121.291 63.2649C121.771 63.4089 122.179 63.5889 122.491 63.8169C122.803 64.0569 123.031 64.3329 123.175 64.6449C123.319 64.9689 123.391 65.3049 123.391 65.6649C123.391 66.0249 123.319 66.3609 123.187 66.6849C123.043 66.9969 122.815 67.2729 122.515 67.5129C122.203 67.7529 121.795 67.9329 121.315 68.0769C120.811 68.2089 120.223 68.2809 119.527 68.2809ZM117.643 56.4969C117.751 56.4969 117.835 56.5209 117.883 56.5569C117.931 56.6049 117.955 56.6769 117.955 56.7969V58.4889C117.955 58.7289 117.979 58.9449 118.039 59.1609C118.087 59.3889 118.195 59.5929 118.351 59.7729C118.495 59.9649 118.699 60.1329 118.963 60.2769C119.215 60.4329 119.539 60.5529 119.947 60.6249C119.971 60.6369 120.019 60.6489 120.067 60.6489C120.103 60.6609 120.139 60.6729 120.187 60.6969C120.223 60.7329 120.259 60.7689 120.295 60.8169C120.319 60.8769 120.331 60.9489 120.331 61.0449V62.3769C120.331 62.5209 120.295 62.6049 120.223 62.6289C120.139 62.6649 120.067 62.6769 120.019 62.6649C119.731 62.6409 119.455 62.6049 119.167 62.5329C118.867 62.4849 118.579 62.4009 118.303 62.2809C118.015 62.1849 117.751 62.0409 117.499 61.8729C117.235 61.7049 117.007 61.5129 116.815 61.2729C116.599 61.5129 116.371 61.7049 116.131 61.8729C115.867 62.0409 115.603 62.1849 115.327 62.2809C115.039 62.4009 114.763 62.4849 114.475 62.5329C114.175 62.6049 113.887 62.6409 113.611 62.6649C113.551 62.6769 113.491 62.6649 113.419 62.6289C113.335 62.6049 113.299 62.5209 113.299 62.3769V61.0449C113.299 60.9489 113.311 60.8769 113.347 60.8169C113.371 60.7689 113.395 60.7329 113.443 60.6969C113.479 60.6729 113.527 60.6609 113.575 60.6489C113.611 60.6489 113.647 60.6369 113.683 60.6249C114.079 60.5529 114.403 60.4329 114.667 60.2769C114.919 60.1329 115.123 59.9649 115.279 59.7729C115.423 59.5929 115.531 59.3889 115.591 59.1609C115.639 58.9449 115.675 58.7289 115.675 58.4889V56.7969C115.675 56.6769 115.699 56.6049 115.747 56.5569C115.795 56.5209 115.867 56.4969 115.987 56.4969H117.643ZM125.047 60.0609C125.047 60.1809 125.023 60.2649 124.975 60.3009C124.927 60.3489 124.843 60.3609 124.735 60.3609H123.631V62.4849C123.631 62.6049 123.607 62.6889 123.559 62.7249C123.511 62.7729 123.427 62.7849 123.319 62.7849H121.639C121.519 62.7849 121.447 62.7729 121.399 62.7249C121.351 62.6889 121.327 62.6049 121.327 62.4849V56.7969C121.327 56.6769 121.351 56.6049 121.399 56.5569C121.447 56.5209 121.519 56.4969 121.639 56.4969H123.319C123.427 56.4969 123.511 56.5209 123.559 56.5569C123.607 56.6049 123.631 56.6769 123.631 56.7969V58.3689H124.735C124.843 58.3689 124.927 58.3929 124.975 58.4289C125.023 58.4769 125.047 58.5489 125.047 58.6689V60.0609ZM119.527 66.3969C119.731 66.3969 119.935 66.3849 120.127 66.3609C120.319 66.3369 120.487 66.2889 120.643 66.2409C120.787 66.1809 120.895 66.1089 120.991 66.0129C121.075 65.9169 121.123 65.7969 121.123 65.6529C121.123 65.5089 121.075 65.3889 120.991 65.2929C120.895 65.2089 120.787 65.1369 120.643 65.0649C120.487 65.0169 120.319 64.9689 120.127 64.9449C119.935 64.9209 119.731 64.9089 119.527 64.9089C119.311 64.9089 119.119 64.9209 118.927 64.9449C118.735 64.9689 118.567 65.0169 118.423 65.0649C118.267 65.1369 118.147 65.2089 118.063 65.2929C117.967 65.3889 117.931 65.5089 117.931 65.6529C117.931 65.7969 117.967 65.9169 118.063 66.0129C118.147 66.1089 118.267 66.1809 118.423 66.2409C118.567 66.2889 118.735 66.3369 118.927 66.3609C119.119 66.3849 119.311 66.3969 119.527 66.3969ZM125.359 56.7969C125.359 56.6769 125.383 56.6049 125.431 56.5569C125.479 56.5209 125.551 56.4969 125.671 56.4969H131.947C132.055 56.4969 132.139 56.5209 132.187 56.5569C132.235 56.6049 132.259 56.6769 132.259 56.7969V58.2009C132.259 58.3209 132.235 58.4049 132.187 58.4409C132.139 58.4889 132.055 58.5009 131.947 58.5009H129.955C129.955 58.7409 129.979 58.9569 130.039 59.1729C130.087 59.4009 130.195 59.6049 130.351 59.7849C130.495 59.9769 130.699 60.1449 130.963 60.2889C131.215 60.4329 131.539 60.5529 131.947 60.6249C131.971 60.6369 132.019 60.6489 132.067 60.6489C132.103 60.6609 132.139 60.6729 132.187 60.6969C132.223 60.7329 132.259 60.7689 132.295 60.8169C132.319 60.8769 132.331 60.9489 132.331 61.0449V62.3769C132.331 62.5209 132.295 62.6049 132.223 62.6289C132.139 62.6649 132.067 62.6769 132.019 62.6649C131.731 62.6409 131.455 62.6049 131.167 62.5329C130.867 62.4849 130.579 62.4009 130.303 62.2809C130.015 62.1849 129.751 62.0409 129.499 61.8729C129.235 61.7049 129.007 61.5129 128.815 61.2729C128.599 61.5129 128.371 61.7049 128.131 61.8729C127.867 62.0409 127.603 62.1849 127.327 62.2809C127.039 62.4009 126.763 62.4849 126.475 62.5329C126.175 62.6049 125.887 62.6409 125.611 62.6649C125.551 62.6769 125.491 62.6649 125.419 62.6289C125.335 62.6049 125.299 62.5209 125.299 62.3769V61.0449C125.299 60.9489 125.311 60.8769 125.347 60.8169C125.371 60.7689 125.395 60.7329 125.443 60.6969C125.479 60.6729 125.527 60.6609 125.575 60.6489C125.611 60.6489 125.647 60.6369 125.683 60.6249C126.067 60.5529 126.391 60.4329 126.655 60.2889C126.907 60.1449 127.111 59.9769 127.267 59.7849C127.411 59.6049 127.519 59.4009 127.591 59.1729C127.639 58.9569 127.675 58.7409 127.675 58.5009H125.671C125.551 58.5009 125.479 58.4889 125.431 58.4409C125.383 58.4049 125.359 58.3209 125.359 58.2009V56.7969ZM126.163 63.5169C126.163 63.3969 126.187 63.3249 126.235 63.2769C126.283 63.2409 126.355 63.2169 126.475 63.2169H135.319C135.427 63.2169 135.511 63.2409 135.559 63.2769C135.607 63.3249 135.631 63.3969 135.631 63.5169V67.5969C135.631 67.7169 135.607 67.7889 135.559 67.8369C135.511 67.8729 135.427 67.8969 135.319 67.8969H133.639C133.519 67.8969 133.447 67.8729 133.399 67.8369C133.351 67.7889 133.327 67.7169 133.327 67.5969V65.2089H126.475C126.355 65.2089 126.283 65.1969 126.235 65.1489C126.187 65.1129 126.163 65.0289 126.163 64.9089V63.5169ZM137.047 60.0609C137.047 60.1809 137.023 60.2649 136.975 60.3009C136.927 60.3489 136.843 60.3609 136.735 60.3609H135.631V62.3649C135.631 62.4849 135.607 62.5689 135.559 62.6049C135.511 62.6529 135.427 62.6649 135.319 62.6649H133.639C133.519 62.6649 133.447 62.6529 133.399 62.6049C133.351 62.5689 133.327 62.4849 133.327 62.3649V56.7969C133.327 56.6769 133.351 56.6049 133.399 56.5569C133.447 56.5209 133.519 56.4969 133.639 56.4969H135.319C135.427 56.4969 135.511 56.5209 135.559 56.5569C135.607 56.6049 135.631 56.6769 135.631 56.7969V58.3689H136.735C136.843 58.3689 136.927 58.3929 136.975 58.4289C137.023 58.4769 137.047 58.5489 137.047 58.6689V60.0609ZM145.915 67.6569C145.795 67.6569 145.723 67.6329 145.675 67.5969C145.627 67.5489 145.603 67.4769 145.603 67.3569V56.7969C145.603 56.6769 145.627 56.6049 145.675 56.5569C145.723 56.5209 145.795 56.4969 145.915 56.4969H147.595C147.703 56.4969 147.787 56.5209 147.835 56.5569C147.883 56.6049 147.907 56.6769 147.907 56.7969V67.3569C147.907 67.4769 147.883 67.5489 147.835 67.5969C147.787 67.6329 147.703 67.6569 147.595 67.6569H145.915ZM144.643 61.8249C144.643 62.6649 144.583 63.4209 144.463 64.0689C144.331 64.7409 144.127 65.2929 143.863 65.7489C143.575 66.2049 143.215 66.5529 142.771 66.7929C142.315 67.0329 141.775 67.1529 141.127 67.1529C140.479 67.1529 139.927 67.0329 139.483 66.7929C139.027 66.5529 138.667 66.2049 138.403 65.7489C138.115 65.2929 137.923 64.7409 137.803 64.0689C137.671 63.4209 137.611 62.6649 137.611 61.8249C137.611 60.9849 137.671 60.2409 137.803 59.5689C137.923 58.9209 138.115 58.3569 138.403 57.9009C138.667 57.4449 139.027 57.0969 139.483 56.8569C139.927 56.6169 140.479 56.4969 141.127 56.4969C141.775 56.4969 142.315 56.6169 142.771 56.8569C143.215 57.0969 143.575 57.4449 143.863 57.9009C144.127 58.3569 144.331 58.9209 144.463 59.5689C144.583 60.2409 144.643 60.9849 144.643 61.8249ZM142.399 61.8249C142.399 61.0929 142.351 60.5049 142.279 60.0609C142.183 59.6289 142.075 59.2809 141.955 59.0409C141.823 58.8129 141.691 58.6569 141.547 58.5849C141.391 58.5129 141.247 58.4769 141.127 58.4769C140.995 58.4769 140.863 58.5129 140.719 58.5849C140.563 58.6569 140.419 58.8129 140.299 59.0409C140.167 59.2809 140.059 59.6289 139.987 60.0609C139.891 60.5049 139.855 61.0929 139.855 61.8249C139.855 62.5689 139.891 63.1569 139.987 63.5889C140.059 64.0329 140.167 64.3689 140.299 64.5969C140.419 64.8369 140.563 64.9929 140.719 65.0649C140.863 65.1369 140.995 65.1729 141.127 65.1729C141.247 65.1729 141.391 65.1369 141.547 65.0649C141.691 64.9929 141.823 64.8369 141.955 64.5969C142.075 64.3689 142.183 64.0329 142.279 63.5889C142.351 63.1569 142.399 62.5689 142.399 61.8249ZM156.37 62.3769C155.662 62.3769 155.086 62.2929 154.642 62.1009C154.186 61.9209 153.826 61.6809 153.562 61.3929C153.298 61.1049 153.106 60.7929 153.01 60.4329C152.902 60.0849 152.854 59.7369 152.854 59.4009C152.854 59.0649 152.902 58.7289 153.01 58.3689C153.106 58.0329 153.298 57.7089 153.574 57.4209C153.838 57.1329 154.198 56.9049 154.654 56.7129C155.098 56.5329 155.674 56.4369 156.37 56.4369C156.886 56.4369 157.342 56.4969 157.726 56.5929C158.11 56.7009 158.434 56.8449 158.71 57.0129C158.974 57.2049 159.19 57.4089 159.358 57.6369C159.514 57.8769 159.634 58.1169 159.73 58.3689H160.966V56.7969C160.966 56.6769 160.99 56.6049 161.038 56.5569C161.086 56.5209 161.158 56.4969 161.278 56.4969H162.958C163.066 56.4969 163.15 56.5209 163.198 56.5569C163.246 56.6049 163.27 56.6769 163.27 56.7969V62.0769C163.27 62.1969 163.246 62.2809 163.198 62.3169C163.15 62.3649 163.066 62.3769 162.958 62.3769H161.278C161.158 62.3769 161.086 62.3649 161.038 62.3169C160.99 62.2809 160.966 62.1969 160.966 62.0769V60.3609H159.742C159.658 60.6249 159.538 60.8769 159.382 61.1169C159.214 61.3689 159.01 61.5849 158.746 61.7649C158.47 61.9569 158.146 62.1009 157.762 62.2089C157.366 62.3289 156.898 62.3769 156.37 62.3769ZM158.554 66.4689C158.554 66.9729 158.446 67.3329 158.23 67.5609C158.014 67.7769 157.69 67.8969 157.258 67.8969H154.822C154.39 67.8969 154.066 67.7769 153.85 67.5609C153.634 67.3329 153.526 66.9729 153.526 66.4689V63.1569C153.526 63.0369 153.55 62.9649 153.598 62.9169C153.646 62.8809 153.718 62.8569 153.838 62.8569H155.218C155.326 62.8569 155.41 62.8809 155.458 62.9169C155.506 62.9649 155.53 63.0369 155.53 63.1569V63.7569H156.55V63.1569C156.55 63.0369 156.574 62.9649 156.622 62.9169C156.67 62.8809 156.742 62.8569 156.862 62.8569H158.242C158.35 62.8569 158.434 62.8809 158.482 62.9169C158.53 62.9649 158.554 63.0369 158.554 63.1569V66.4689ZM162.274 62.8569C162.394 62.8569 162.466 62.8929 162.514 62.9409C162.538 63.0009 162.562 63.0729 162.562 63.1569C162.562 63.6489 162.586 64.0569 162.634 64.3929C162.682 64.7289 162.754 65.0049 162.85 65.2209C162.946 65.4369 163.066 65.6049 163.234 65.7129C163.378 65.8209 163.57 65.8929 163.81 65.9409C163.834 65.9409 163.858 65.9529 163.906 65.9649C163.942 65.9649 163.978 65.9769 164.026 66.0009C164.05 66.0249 164.086 66.0609 164.11 66.1089C164.134 66.1569 164.146 66.2169 164.146 66.3129V67.5489C164.146 67.6329 164.134 67.7049 164.11 67.7529C164.074 67.8009 164.038 67.8369 164.002 67.8609C163.954 67.8849 163.906 67.8969 163.87 67.8969H163.75C163.498 67.8729 163.258 67.8369 163.03 67.7649C162.79 67.6809 162.586 67.5849 162.394 67.4649C162.19 67.3449 162.01 67.2009 161.866 67.0449C161.71 66.8769 161.59 66.7089 161.518 66.5289C161.422 66.7089 161.314 66.8769 161.17 67.0449C161.014 67.2009 160.846 67.3449 160.654 67.4649C160.45 67.5849 160.234 67.6809 160.006 67.7649C159.766 67.8369 159.526 67.8729 159.286 67.8969H159.178C159.13 67.8969 159.082 67.8849 159.046 67.8609C158.998 67.8369 158.962 67.8009 158.938 67.7529C158.902 67.7049 158.89 67.6329 158.89 67.5489V66.3129C158.89 66.2169 158.902 66.1569 158.926 66.1089C158.95 66.0609 158.974 66.0249 159.022 66.0009C159.046 65.9769 159.082 65.9649 159.13 65.9649C159.166 65.9529 159.202 65.9409 159.226 65.9409C159.442 65.8929 159.634 65.8209 159.802 65.7129C159.958 65.6049 160.09 65.4369 160.186 65.2209C160.282 65.0049 160.354 64.7289 160.402 64.3929C160.45 64.0569 160.474 63.6489 160.474 63.1569C160.474 63.0729 160.486 63.0009 160.534 62.9409C160.558 62.8929 160.642 62.8569 160.762 62.8569H162.274ZM156.37 60.4209C156.514 60.4209 156.658 60.4089 156.814 60.3729C156.958 60.3489 157.102 60.3009 157.234 60.2169C157.354 60.1449 157.462 60.0369 157.546 59.8929C157.618 59.7729 157.666 59.6049 157.666 59.3889C157.666 59.1969 157.618 59.0289 157.546 58.8849C157.462 58.7649 157.354 58.6569 157.234 58.5729C157.102 58.5009 156.958 58.4409 156.814 58.4049C156.658 58.3809 156.514 58.3689 156.37 58.3689C156.226 58.3689 156.07 58.3809 155.926 58.4049C155.77 58.4409 155.626 58.5009 155.506 58.5729C155.374 58.6569 155.266 58.7649 155.194 58.8849C155.11 59.0289 155.074 59.1969 155.074 59.3889C155.074 59.6049 155.11 59.7729 155.194 59.8929C155.266 60.0369 155.374 60.1449 155.506 60.2169C155.626 60.3009 155.77 60.3489 155.926 60.3729C156.07 60.4089 156.226 60.4209 156.37 60.4209ZM156.202 66.2529C156.334 66.2529 156.43 66.2289 156.478 66.1809C156.526 66.1209 156.55 66.0129 156.55 65.8689V65.3409H155.53V65.8689C155.53 66.0129 155.554 66.1209 155.602 66.1809C155.65 66.2289 155.734 66.2529 155.878 66.2529H156.202ZM173.278 67.6569C173.158 67.6569 173.086 67.6329 173.038 67.5969C172.99 67.5489 172.966 67.4769 172.966 67.3569V62.5689H171.862C171.826 63.3009 171.742 63.9489 171.598 64.5129C171.454 65.0889 171.238 65.5689 170.962 65.9529C170.674 66.3369 170.326 66.6369 169.906 66.8529C169.474 67.0449 168.97 67.1529 168.37 67.1529C167.722 67.1529 167.17 67.0329 166.726 66.7929C166.27 66.5529 165.91 66.2049 165.646 65.7489C165.358 65.2929 165.166 64.7409 165.046 64.0689C164.914 63.4209 164.854 62.6649 164.854 61.8249C164.854 60.9849 164.914 60.2409 165.046 59.5689C165.166 58.9209 165.358 58.3569 165.646 57.9009C165.91 57.4449 166.27 57.0969 166.726 56.8569C167.17 56.6169 167.722 56.4969 168.37 56.4969C168.922 56.4969 169.414 56.5929 169.834 56.7609C170.242 56.9529 170.578 57.2169 170.866 57.5529C171.142 57.9129 171.358 58.3329 171.526 58.8369C171.67 59.3529 171.778 59.9289 171.838 60.5769H172.966V56.7969C172.966 56.6769 172.99 56.6049 173.038 56.5569C173.086 56.5209 173.158 56.4969 173.278 56.4969H174.958C175.066 56.4969 175.15 56.5209 175.198 56.5569C175.246 56.6049 175.27 56.6769 175.27 56.7969V67.3569C175.27 67.4769 175.246 67.5489 175.198 67.5969C175.15 67.6329 175.066 67.6569 174.958 67.6569H173.278ZM169.642 61.8249C169.642 61.0929 169.594 60.5049 169.522 60.0609C169.426 59.6289 169.318 59.2809 169.198 59.0409C169.066 58.8129 168.934 58.6569 168.79 58.5849C168.634 58.5129 168.49 58.4769 168.37 58.4769C168.238 58.4769 168.106 58.5129 167.962 58.5849C167.806 58.6569 167.662 58.8129 167.542 59.0409C167.41 59.2809 167.302 59.6289 167.23 60.0609C167.134 60.5049 167.098 61.0929 167.098 61.8249C167.098 62.5689 167.134 63.1569 167.23 63.5889C167.302 64.0329 167.41 64.3689 167.542 64.5969C167.662 64.8369 167.806 64.9929 167.962 65.0649C168.106 65.1369 168.238 65.1729 168.37 65.1729C168.49 65.1729 168.634 65.1369 168.79 65.0649C168.934 64.9929 169.066 64.8369 169.198 64.5969C169.318 64.3689 169.426 64.0329 169.522 63.5889C169.594 63.1569 169.642 62.5689 169.642 61.8249ZM186.886 60.4089C186.886 60.9249 186.802 61.4169 186.646 61.8729C186.478 62.3409 186.214 62.7609 185.878 63.1209V65.5329H187.27C187.378 65.5329 187.462 65.5569 187.51 65.5929C187.558 65.6409 187.582 65.7129 187.582 65.8329V67.2369C187.582 67.3569 187.558 67.4289 187.51 67.4769C187.462 67.5129 187.378 67.5369 187.27 67.5369H177.142C177.022 67.5369 176.95 67.5129 176.902 67.4769C176.854 67.4289 176.83 67.3569 176.83 67.2369V65.8329C176.83 65.7129 176.854 65.6409 176.902 65.5929C176.95 65.5569 177.022 65.5329 177.142 65.5329H178.534V63.1209C178.186 62.7609 177.934 62.3409 177.778 61.8729C177.61 61.4169 177.526 60.9249 177.526 60.4089C177.526 59.8809 177.61 59.3649 177.802 58.8609C177.982 58.3809 178.27 57.9489 178.654 57.5769C179.038 57.2169 179.518 56.9169 180.118 56.6889C180.694 56.4729 181.39 56.3649 182.206 56.3649C183.01 56.3649 183.706 56.4729 184.306 56.6889C184.882 56.9169 185.374 57.2169 185.758 57.5769C186.142 57.9489 186.418 58.3809 186.61 58.8609C186.79 59.3649 186.886 59.8809 186.886 60.4089ZM179.83 60.4089C179.83 60.7089 179.878 60.9849 179.986 61.2249C180.082 61.4889 180.238 61.7049 180.442 61.8849C180.634 62.0769 180.886 62.2329 181.186 62.3289C181.474 62.4369 181.822 62.4849 182.206 62.4849C182.59 62.4849 182.926 62.4369 183.226 62.3289C183.514 62.2329 183.766 62.0769 183.97 61.8849C184.162 61.7049 184.318 61.4889 184.426 61.2249C184.522 60.9849 184.582 60.7089 184.582 60.4089C184.582 60.1209 184.522 59.8449 184.426 59.5809C184.318 59.3409 184.162 59.1129 183.97 58.9209C183.766 58.7409 183.514 58.5969 183.226 58.4889C182.926 58.3929 182.59 58.3329 182.206 58.3329C181.822 58.3329 181.474 58.3929 181.186 58.4889C180.886 58.5969 180.634 58.7409 180.442 58.9209C180.238 59.1129 180.082 59.3409 179.986 59.5809C179.878 59.8449 179.83 60.1209 179.83 60.4089ZM182.206 64.4529C181.678 64.4529 181.222 64.4169 180.838 64.3329V65.5329H183.574V64.3329C183.166 64.4169 182.71 64.4529 182.206 64.4529ZM189.492 67.8969C189.372 67.8969 189.3 67.8729 189.252 67.8369C189.204 67.7889 189.18 67.7169 189.18 67.5969V66.0849C189.18 65.9649 189.204 65.8809 189.252 65.8449C189.3 65.7969 189.372 65.7849 189.492 65.7849H191.112C191.22 65.7849 191.304 65.7969 191.352 65.8449C191.4 65.8809 191.424 65.9649 191.424 66.0849V67.5969C191.424 67.7169 191.4 67.7889 191.352 67.8369C191.304 67.8729 191.22 67.8969 191.112 67.8969H189.492ZM189.492 65.0049C189.372 65.0049 189.3 64.9929 189.252 64.9449C189.204 64.9089 189.18 64.8249 189.18 64.7049V56.7969C189.18 56.6769 189.204 56.6049 189.252 56.5569C189.3 56.5209 189.372 56.4969 189.492 56.4969H191.112C191.22 56.4969 191.304 56.5209 191.352 56.5569C191.4 56.6049 191.424 56.6769 191.424 56.7969V64.7049C191.424 64.8249 191.4 64.9089 191.352 64.9449C191.304 64.9929 191.22 65.0049 191.112 65.0049H189.492Z" fill="#494949"/>
</svg>
