<svg width="1264" height="478" viewBox="0 0 1264 478" fill="none" xmlns="http://www.w3.org/2000/svg">
<path d="M1244.37 0H19.6336C8.79027 0 0 8.81837 0 19.6964V458.304C0 469.182 8.79027 478 19.6336 478H1244.37C1255.21 478 1264 469.182 1264 458.304V19.6964C1264 8.81837 1255.21 0 1244.37 0Z" fill="#F5F1DE"/>
<mask id="mask0_171_6190" style="mask-type:alpha" maskUnits="userSpaceOnUse" x="0" y="0" width="1264" height="478">
<path d="M1244.37 0H19.6336C8.79027 0 0 8.81837 0 19.6964V458.304C0 469.182 8.79027 478 19.6336 478H1244.37C1255.21 478 1264 469.182 1264 458.304V19.6964C1264 8.81837 1255.21 0 1244.37 0Z" fill="#F5F1DE"/>
</mask>
<g mask="url(#mask0_171_6190)">
<path d="M1178.67 516.39C1253.05 516.39 1313.35 459.32 1313.35 388.92C1313.35 318.52 1253.05 261.45 1178.67 261.45C1104.29 261.45 1043.99 318.52 1043.99 388.92C1043.99 459.32 1104.29 516.39 1178.67 516.39Z" fill="#629665"/>
<path d="M1169.94 308.55L1154.1 312.47C1152.8 312.79 1152.03 314.12 1152.41 315.41L1156.52 329.64C1157.17 331.87 1154.53 333.59 1152.75 332.1L1139.67 321.12C1138.8 320.39 1137.52 320.39 1136.64 321.12L1123.56 332.1C1121.78 333.59 1119.14 331.88 1119.79 329.64L1123.9 315.41C1124.27 314.13 1123.5 312.79 1122.21 312.47L1106.37 308.55C1103.99 307.96 1103.99 304.57 1106.37 303.98L1122.21 300.06C1123.51 299.74 1124.28 298.41 1123.9 297.12L1119.79 282.89C1119.14 280.66 1121.78 278.94 1123.56 280.43L1136.64 291.41C1137.51 292.14 1138.79 292.14 1139.67 291.41L1152.75 280.43C1154.53 278.94 1157.17 280.65 1156.52 282.89L1152.41 297.12C1152.04 298.4 1152.81 299.74 1154.1 300.06L1169.94 303.98C1172.32 304.57 1172.32 307.96 1169.94 308.55Z" fill="#537151"/>
<path d="M1066.68 379.2C1066.17 390.6 1065.83 398.32 1067.83 407.25C1070.04 417.12 1071.87 422.93 1077.27 428.16C1082.86 433.58 1091.94 435.91 1098.68 432.01C1102.78 429.64 1105.44 425.44 1107.69 421.27C1111.39 414.45 1114.5 406.91 1113.89 399.17C1113.36 392.55 1110.16 386.48 1107.03 380.62C1103.48 373.99 1099.46 366.91 1092.57 363.9C1084.76 360.49 1077.26 364.49 1076.8 364.73C1076.45 364.91 1068.33 369.2 1066.89 377.2C1066.73 378.07 1066.7 378.74 1066.68 379.19V379.2Z" fill="#F5F1DE"/>
<path d="M1074.78 372.65C1071.45 375.15 1071.22 379.93 1071.11 382.15C1070.9 386.47 1072.07 389.71 1073.02 392.32C1074.93 397.58 1077.94 402.73 1082.77 405.56C1084.14 406.36 1085.72 406.97 1087.29 406.74C1088.76 406.53 1090.02 405.61 1091.11 404.61C1095.48 400.62 1098.08 394.75 1098.1 388.84C1098.12 382.92 1095.57 377.04 1091.24 373.01C1089.41 371.31 1086.9 368.99 1083.61 369.09C1080.61 369.18 1077.03 371.29 1075.82 372.01C1075.29 372.33 1075.02 372.48 1074.78 372.66V372.65Z" fill="#222222"/>
<path d="M1121.75 379.2C1121.24 390.6 1120.9 398.32 1122.9 407.25C1125.11 417.12 1126.94 422.93 1132.34 428.16C1137.93 433.58 1147.01 435.91 1153.75 432.01C1157.85 429.64 1160.51 425.44 1162.76 421.27C1166.46 414.45 1169.57 406.91 1168.96 399.17C1168.43 392.55 1165.23 386.48 1162.1 380.62C1158.55 373.99 1154.53 366.91 1147.64 363.9C1139.83 360.49 1132.33 364.49 1131.87 364.73C1131.52 364.91 1123.4 369.2 1121.96 377.2C1121.8 378.07 1121.77 378.74 1121.75 379.19V379.2Z" fill="#F5F1DE"/>
<path d="M1129.85 372.65C1126.52 375.15 1126.29 379.93 1126.18 382.15C1125.97 386.47 1127.14 389.71 1128.09 392.32C1130 397.58 1133.01 402.73 1137.84 405.56C1139.21 406.36 1140.79 406.97 1142.36 406.74C1143.83 406.53 1145.09 405.61 1146.18 404.61C1150.55 400.62 1153.15 394.75 1153.17 388.84C1153.19 382.92 1150.64 377.04 1146.31 373.01C1144.48 371.31 1141.97 368.99 1138.68 369.09C1135.68 369.18 1132.1 371.29 1130.89 372.01C1130.36 372.33 1130.09 372.48 1129.85 372.66V372.65Z" fill="#222222"/>
<path d="M1199.7 291.54C1254.3 291.54 1298.56 249.647 1298.56 197.97C1298.56 146.293 1254.3 104.4 1199.7 104.4C1145.1 104.4 1100.84 146.293 1100.84 197.97C1100.84 249.647 1145.1 291.54 1199.7 291.54Z" fill="#F2AD48"/>
<path d="M1193.29 138.98L1181.66 141.86C1180.71 142.1 1180.14 143.07 1180.42 144.02L1183.44 154.47C1183.91 156.11 1181.98 157.37 1180.67 156.27L1171.07 148.21C1170.43 147.67 1169.49 147.67 1168.85 148.21L1159.25 156.27C1157.94 157.37 1156.01 156.11 1156.48 154.47L1159.5 144.02C1159.77 143.08 1159.21 142.1 1158.26 141.86L1146.63 138.98C1144.88 138.55 1144.88 136.06 1146.63 135.63L1158.26 132.75C1159.21 132.51 1159.78 131.54 1159.5 130.59L1156.48 120.14C1156.01 118.5 1157.94 117.24 1159.25 118.34L1168.85 126.4C1169.49 126.94 1170.43 126.94 1171.07 126.4L1180.67 118.34C1181.98 117.24 1183.91 118.5 1183.44 120.14L1180.42 130.59C1180.15 131.53 1180.71 132.51 1181.66 132.75L1193.29 135.63C1195.04 136.06 1195.04 138.55 1193.29 138.98Z" fill="#537151"/>
<path d="M1117.5 190.84C1117.13 199.21 1116.88 204.87 1118.34 211.43C1119.96 218.68 1121.31 222.94 1125.27 226.78C1129.37 230.76 1136.04 232.47 1140.99 229.61C1144 227.87 1145.95 224.78 1147.61 221.73C1150.32 216.72 1152.61 211.19 1152.16 205.51C1151.77 200.65 1149.42 196.19 1147.12 191.9C1144.52 187.04 1141.56 181.84 1136.5 179.63C1130.77 177.13 1125.27 180.06 1124.93 180.24C1124.67 180.37 1118.72 183.52 1117.66 189.39C1117.54 190.03 1117.52 190.52 1117.51 190.85L1117.5 190.84Z" fill="#F5F1DE"/>
<path d="M1123.44 186.03C1121 187.86 1120.83 191.38 1120.75 193C1120.6 196.17 1121.46 198.55 1122.15 200.46C1123.55 204.32 1125.76 208.1 1129.31 210.18C1130.32 210.77 1131.47 211.22 1132.63 211.05C1133.71 210.89 1134.63 210.22 1135.44 209.49C1138.65 206.56 1140.56 202.26 1140.57 197.91C1140.59 193.57 1138.72 189.25 1135.53 186.29C1134.19 185.04 1132.35 183.34 1129.93 183.41C1127.73 183.48 1125.1 185.03 1124.21 185.55C1123.82 185.78 1123.62 185.9 1123.44 186.03Z" fill="#222222"/>
<path d="M1157.92 190.84C1157.55 199.21 1157.3 204.87 1158.76 211.43C1160.38 218.68 1161.73 222.94 1165.69 226.78C1169.79 230.76 1176.46 232.47 1181.41 229.61C1184.42 227.87 1186.37 224.78 1188.03 221.73C1190.74 216.72 1193.03 211.19 1192.58 205.51C1192.19 200.65 1189.84 196.19 1187.54 191.9C1184.94 187.04 1181.98 181.84 1176.92 179.63C1171.19 177.13 1165.69 180.06 1165.35 180.24C1165.09 180.37 1159.14 183.52 1158.08 189.39C1157.96 190.03 1157.94 190.52 1157.93 190.85L1157.92 190.84Z" fill="#F5F1DE"/>
<path d="M1163.86 186.03C1161.42 187.86 1161.25 191.38 1161.17 193C1161.02 196.17 1161.88 198.55 1162.57 200.46C1163.97 204.32 1166.18 208.1 1169.73 210.18C1170.74 210.77 1171.89 211.22 1173.05 211.05C1174.13 210.89 1175.05 210.22 1175.86 209.49C1179.07 206.56 1180.98 202.26 1180.99 197.91C1181.01 193.57 1179.14 189.25 1175.95 186.29C1174.61 185.04 1172.77 183.34 1170.35 183.41C1168.15 183.48 1165.52 185.03 1164.63 185.55C1164.24 185.78 1164.04 185.9 1163.86 186.03Z" fill="#222222"/>
</g>
<path d="M760.02 459.27C851.445 459.27 925.56 433.065 925.56 400.74C925.56 368.415 851.445 342.21 760.02 342.21C668.594 342.21 594.479 368.415 594.479 400.74C594.479 433.065 668.594 459.27 760.02 459.27Z" fill="#D8D5C5"/>
<path d="M757.02 374.1C843 374.1 912.7 308.129 912.7 226.75C912.7 145.371 843 79.3999 757.02 79.3999C671.04 79.3999 601.34 145.371 601.34 226.75C601.34 308.129 671.04 374.1 757.02 374.1Z" fill="#E24444"/>
<path d="M793.77 133.85L775.45 138.38C773.95 138.75 773.06 140.29 773.49 141.77L778.25 158.22C779 160.8 775.95 162.79 773.89 161.06L758.78 148.37C757.77 147.52 756.29 147.52 755.28 148.37L740.17 161.06C738.11 162.79 735.06 160.8 735.81 158.22L740.57 141.77C741 140.29 740.11 138.75 738.61 138.38L720.29 133.85C717.54 133.17 717.54 129.25 720.29 128.57L738.61 124.04C740.11 123.67 741 122.13 740.57 120.65L735.81 104.2C735.06 101.62 738.11 99.6301 740.17 101.36L755.28 114.05C756.29 114.9 757.77 114.9 758.78 114.05L773.89 101.36C775.95 99.6301 779 101.62 778.25 104.2L773.49 120.65C773.06 122.13 773.95 123.67 775.45 124.04L793.77 128.57C796.52 129.25 796.52 133.17 793.77 133.85Z" fill="#4A734E"/>
<path d="M706.38 195.58C700.06 200.64 698.3 207.64 696.22 216.4C694.2 224.94 692.59 231.71 694.19 240.68C695.13 245.97 696.41 253.11 701.95 258.92C711.32 268.74 730.1 271.9 740.38 262.97C746.17 257.94 749.37 250.44 750.48 242.85C751.6 235.27 750.8 227.54 749.71 219.95C747.83 206.86 744.96 196.86 736.23 192.07C725.98 186.46 713.12 191.78 712.24 192.16C710.91 192.73 708.75 193.68 706.38 195.57V195.58Z" fill="#F5F1DE"/>
<path d="M720.6 208.96C715.25 210.78 712.68 215.5 712.36 216.11C710.96 218.76 710.77 221.64 711.09 227.37C711.28 230.79 711.67 234.19 712.25 237.57C712.68 240.02 713.23 242.5 714.47 244.66C716.43 248.07 720.12 250.43 724.05 250.76C727.97 251.09 732.01 249.39 734.51 246.35C736.89 243.47 737.81 239.68 738.55 236.02C739.6 230.83 740.42 225.46 739.47 220.25C738.81 216.66 737.55 212.18 733.56 209.77C729.03 207.03 722.99 208.34 722 208.57C721.66 208.65 721.2 208.76 720.6 208.96Z" fill="#222222"/>
<path d="M807.66 195.58C813.98 200.64 815.74 207.64 817.82 216.4C819.84 224.94 821.45 231.71 819.85 240.68C818.91 245.97 817.63 253.11 812.09 258.92C802.72 268.74 783.94 271.9 773.66 262.97C767.87 257.94 764.67 250.44 763.56 242.85C762.44 235.27 763.24 227.54 764.33 219.95C766.21 206.86 769.08 196.86 777.81 192.07C788.06 186.46 800.92 191.78 801.8 192.16C803.13 192.73 805.29 193.68 807.66 195.57V195.58Z" fill="#F5F1DE"/>
<path d="M793.45 208.96C798.8 210.78 801.37 215.5 801.69 216.11C803.09 218.76 803.28 221.64 802.96 227.37C802.77 230.79 802.38 234.19 801.8 237.57C801.37 240.02 800.82 242.5 799.58 244.66C797.62 248.07 793.93 250.43 790 250.76C786.08 251.09 782.04 249.39 779.54 246.35C777.16 243.47 776.24 239.68 775.5 236.02C774.45 230.83 773.63 225.46 774.58 220.25C775.24 216.66 776.5 212.18 780.49 209.77C785.02 207.03 791.06 208.34 792.05 208.57C792.39 208.65 792.85 208.76 793.45 208.96Z" fill="#222222"/>
<path d="M597.23 238.22C594.66 240.19 556.44 270.1 564 294.39C565.85 300.32 571.38 308.99 578.03 309.17C584.88 309.35 589.79 300.62 594.84 293.63C602.17 283.5 614.48 270.7 636.31 259.47C636.28 259.36 635.73 257.66 633.95 257.17C632.28 256.72 630.99 257.73 630.87 257.83" fill="#963030"/>
<path d="M612.6 216.95C606.77 220.89 550.15 259.94 558.95 289.81C560.92 296.49 567.4 306.94 575.27 307.3C582.98 307.66 588.36 298.17 595.19 289.62C603.39 279.36 617 266.31 640.48 255.31" fill="#E24444"/>
<path d="M913.03 252.78C915.6 250.81 953.82 220.9 946.26 196.61C944.41 190.68 938.88 182.01 932.23 181.83C925.38 181.65 920.47 190.38 915.42 197.37C908.09 207.5 895.78 220.3 873.95 231.53C873.98 231.64 874.53 233.34 876.31 233.83C877.98 234.28 879.27 233.27 879.39 233.17" fill="#963030"/>
<path d="M897.67 274.05C903.5 270.11 960.12 231.06 951.32 201.19C949.35 194.51 942.87 184.06 935 183.7C927.29 183.34 921.91 192.83 915.08 201.38C906.88 211.64 893.27 224.69 869.79 235.69" fill="#E24444"/>
<path d="M698.45 331.86C694.06 347.67 689.68 363.47 685.29 379.28C684.17 379.25 670.42 379.16 663.5 389.84C662.43 391.49 659.05 396.71 660.19 402.65C663 417.21 689.55 421.45 698.44 422.88C708.46 424.48 714.52 425.46 719.93 421.91C727.38 417.03 728.53 407.02 729.7 395.41C732.23 370.31 734.01 351.31 735.22 337.9" fill="#E24444"/>
<path d="M815.6 331.86C819.99 347.67 824.37 363.47 828.76 379.28C829.88 379.25 843.63 379.16 850.55 389.84C851.62 391.49 855 396.71 853.86 402.65C851.05 417.21 824.5 421.45 815.61 422.88C805.59 424.48 799.53 425.46 794.12 421.91C786.67 417.03 785.52 407.02 784.35 395.41C781.82 370.31 780.04 351.31 778.83 337.9" fill="#E24444"/>
<path d="M585.18 100.78L588.67 107.47C589.2 108.46 590.17 109.16 591.29 109.32L598.66 110.33C602.6 110.87 604.13 115.73 601.21 118.43L596.16 123.09C595.29 123.9 594.88 125.09 595.1 126.26L596.33 133.09C597.02 136.89 593.06 139.86 589.58 138.12L582.54 134.63C581.56 134.15 580.41 134.15 579.42 134.63L572.38 138.12C568.91 139.84 564.95 136.89 565.63 133.09L566.86 126.26C567.08 125.1 566.67 123.9 565.8 123.09L560.75 118.43C557.84 115.74 559.36 110.87 563.3 110.33L570.67 109.32C571.79 109.16 572.77 108.48 573.29 107.47L576.78 100.78C578.56 97.4099 583.4 97.4099 585.16 100.78H585.18Z" fill="#F5D45D"/>
<path d="M956.4 293.31L959.89 300C960.42 300.99 961.39 301.69 962.51 301.85L969.88 302.86C973.82 303.4 975.35 308.26 972.43 310.96L967.38 315.62C966.51 316.43 966.1 317.62 966.32 318.79L967.55 325.62C968.24 329.42 964.28 332.39 960.8 330.65L953.76 327.16C952.78 326.68 951.63 326.68 950.64 327.16L943.6 330.65C940.13 332.37 936.17 329.42 936.85 325.62L938.08 318.79C938.3 317.63 937.89 316.43 937.02 315.62L931.97 310.96C929.06 308.27 930.58 303.4 934.52 302.86L941.89 301.85C943.01 301.69 943.99 301.01 944.51 300L948 293.31C949.78 289.94 954.62 289.94 956.38 293.31H956.4Z" fill="#F5D45D"/>
<path d="M929.31 139.06L940.99 180.3L869.51 200.41L884.03 174.06L857.83 159.17L929.31 139.06Z" fill="#F2AD48"/>
<path d="M994.02 175.68L952.69 186.91L972.3 258.57L987.38 232.54L1013.63 247.34L994.02 175.68Z" fill="#F2AD48"/>
<path d="M1011.74 70.7902C1012.72 70.5302 1013.73 71.1002 1014.02 72.0802L1020.33 93.8702C1020.51 94.5002 1021.01 94.9902 1021.64 95.1602L1043.54 101.08C1044.52 101.35 1045.11 102.35 1044.87 103.33L1039.44 125.32C1039.28 125.96 1039.47 126.63 1039.93 127.09L1055.95 143.15C1056.67 143.87 1056.68 145.04 1055.97 145.77L1040.27 162.08C1039.82 162.55 1039.64 163.23 1039.81 163.86L1045.67 185.76C1045.93 186.74 1045.36 187.76 1044.38 188.04L1022.61 194.3C1021.98 194.48 1021.49 194.98 1021.32 195.61L1015.44 217.48C1015.18 218.46 1014.17 219.05 1013.19 218.81L991.18 213.34C990.55 213.18 989.87 213.37 989.41 213.83L973.37 229.82C972.65 230.54 971.49 230.55 970.76 229.84L954.41 214.1C953.94 213.65 953.27 213.47 952.63 213.64L930.72 219.46C929.74 219.72 928.73 219.15 928.44 218.17L922.13 196.38C921.95 195.75 921.45 195.26 920.82 195.09L898.92 189.17C897.94 188.9 897.35 187.9 897.59 186.92L903.02 164.93C903.18 164.29 902.99 163.62 902.53 163.16L886.51 147.1C885.79 146.38 885.78 145.21 886.49 144.48L902.19 128.17C902.64 127.7 902.82 127.02 902.65 126.39L896.79 104.49C896.53 103.51 897.1 102.49 898.08 102.21L919.85 95.9502C920.48 95.7702 920.97 95.2702 921.14 94.6402L927.02 72.7702C927.28 71.7902 928.29 71.2002 929.27 71.4402L951.28 76.9102C951.91 77.0702 952.59 76.8802 953.05 76.4202L969.09 60.4302C969.81 59.7102 970.97 59.7002 971.7 60.4102L988.05 76.1502C988.52 76.6002 989.19 76.7802 989.83 76.6102L1011.74 70.7902Z" fill="#4A734E"/>
<path d="M1004.48 83.0202C1005.46 82.7602 1006.47 83.3302 1006.76 84.3102L1011.89 102.03C1012.07 102.66 1012.57 103.15 1013.2 103.32L1031.02 108.13C1032 108.4 1032.59 109.4 1032.35 110.38L1027.93 128.27C1027.77 128.91 1027.96 129.58 1028.42 130.04L1041.46 143.11C1042.18 143.83 1042.19 145 1041.48 145.73L1028.71 159C1028.26 159.47 1028.08 160.15 1028.25 160.78L1033.01 178.59C1033.27 179.57 1032.7 180.59 1031.72 180.87L1014.01 185.96C1013.38 186.14 1012.89 186.64 1012.72 187.27L1007.94 205.06C1007.68 206.04 1006.67 206.63 1005.69 206.39L987.78 201.94C987.14 201.78 986.47 201.97 986.01 202.43L972.96 215.44C972.24 216.16 971.08 216.17 970.35 215.46L957.05 202.66C956.58 202.21 955.91 202.03 955.27 202.2L937.45 206.93C936.47 207.19 935.46 206.62 935.17 205.64L930.04 187.92C929.86 187.29 929.36 186.8 928.73 186.63L910.91 181.82C909.93 181.55 909.34 180.55 909.58 179.57L914 161.68C914.16 161.04 913.97 160.37 913.51 159.91L900.47 146.84C899.75 146.12 899.74 144.95 900.45 144.22L913.22 130.95C913.67 130.48 913.85 129.8 913.68 129.17L908.92 111.36C908.66 110.38 909.23 109.36 910.21 109.08L927.92 103.99C928.55 103.81 929.04 103.31 929.21 102.68L933.99 84.8902C934.25 83.9102 935.26 83.3202 936.24 83.5602L954.15 88.0102C954.78 88.1702 955.46 87.9802 955.92 87.5202L968.97 74.5102C969.69 73.7902 970.85 73.7802 971.58 74.4902L984.88 87.2902C985.35 87.7402 986.02 87.9202 986.66 87.7502L1004.48 83.0202Z" fill="#F5F1DE"/>
<path d="M949.46 180.78C971.21 193.09 998.21 186.49 1009.77 166.03C1021.33 145.58 1013.07 119.02 991.32 106.71C969.57 94.4002 942.57 101 931.01 121.46C919.45 141.91 927.71 168.47 949.46 180.78Z" fill="#E24444"/>
<path d="M992.1 125.54L986.91 124.12C986.48 124 986.04 124.27 985.94 124.71L984.75 129.57C984.57 130.33 983.52 130.41 983.26 129.68L981.34 124.33C981.21 123.97 980.84 123.76 980.47 123.84L974.89 124.95C974.13 125.1 973.66 124.16 974.22 123.61L977.77 120.09C978.09 119.78 978.09 119.26 977.77 118.95L973.88 115.23C973.3 114.67 973.86 113.67 974.64 113.88L979.83 115.3C980.26 115.42 980.7 115.15 980.8 114.71L981.99 109.85C982.17 109.09 983.22 109.01 983.48 109.74L985.4 115.09C985.53 115.45 985.9 115.66 986.27 115.58L991.85 114.47C992.61 114.32 993.08 115.26 992.52 115.81L988.97 119.33C988.65 119.64 988.65 120.16 988.97 120.47L992.86 124.19C993.44 124.75 992.88 125.75 992.1 125.54Z" fill="#4A734E"/>
<path d="M961.74 128.21C959.4 128.6 957.94 130.13 956.14 132.07C954.39 133.96 953 135.46 952.11 137.99C951.59 139.48 950.88 141.49 951.46 143.77C952.43 147.64 956.76 151.15 960.66 150.34C962.86 149.89 964.76 148.43 966.14 146.66C967.52 144.89 968.43 142.79 969.25 140.7C970.66 137.08 971.37 134.11 969.84 131.64C968.04 128.73 964 128.23 963.71 128.21C963.29 128.17 962.6 128.09 961.72 128.24V128.22L961.74 128.21Z" fill="#F5F1DE"/>
<path d="M963.64 133.58C962.02 133.28 960.69 134.13 960.52 134.24C959.78 134.72 959.32 135.43 958.56 136.95C958.11 137.85 957.72 138.78 957.37 139.74C957.12 140.43 956.9 141.14 956.9 141.88C956.9 143.04 957.5 144.17 958.44 144.82C959.38 145.47 960.65 145.61 961.73 145.18C962.75 144.78 963.53 143.94 964.25 143.11C965.27 141.92 966.26 140.67 966.77 139.2C967.13 138.18 967.45 136.86 966.8 135.66C966.05 134.31 964.34 133.78 964.05 133.7C963.95 133.67 963.83 133.63 963.64 133.6V133.58Z" fill="#222222"/>
<path d="M987.24 142.64C988.11 144.85 987.56 146.89 986.82 149.43C986.1 151.9 985.53 153.87 983.83 155.93C982.82 157.14 981.47 158.79 979.21 159.47C975.4 160.63 970.16 158.73 968.84 154.96C968.09 152.84 968.36 150.46 969.17 148.36C969.98 146.26 971.3 144.4 972.67 142.62C975.04 139.55 977.22 137.4 980.13 137.44C983.55 137.48 986.06 140.69 986.23 140.93C986.49 141.27 986.9 141.82 987.23 142.65H987.25L987.24 142.64Z" fill="#F5F1DE"/>
<path d="M981.97 143.95C982.89 145.09 982.77 146.62 982.75 146.82C982.68 147.67 982.3 148.43 981.4 149.87C980.86 150.73 980.28 151.55 979.66 152.35C979.21 152.93 978.73 153.5 978.14 153.89C977.21 154.52 976.05 154.66 975.14 154.26C974.22 153.86 973.58 152.91 973.47 151.81C973.36 150.77 973.71 149.68 974.07 148.65C974.59 147.18 975.18 145.7 976.15 144.49C976.82 143.65 977.74 142.66 978.98 142.54C980.38 142.4 981.53 143.49 981.71 143.68C981.78 143.74 981.86 143.82 981.97 143.95Z" fill="#222222"/>
<path d="M626.77 94.4899C630.73 94.4899 633.94 91.2798 633.94 87.3199C633.94 83.36 630.73 80.1499 626.77 80.1499C622.81 80.1499 619.6 83.36 619.6 87.3199C619.6 91.2798 622.81 94.4899 626.77 94.4899Z" fill="#F5D45D"/>
<path d="M908.99 341.33C912.95 341.33 916.16 338.12 916.16 334.16C916.16 330.2 912.95 326.99 908.99 326.99C905.03 326.99 901.82 330.2 901.82 334.16C901.82 338.12 905.03 341.33 908.99 341.33Z" fill="#F5D45D"/>
<mask id="mask1_171_6190" style="mask-type:alpha" maskUnits="userSpaceOnUse" x="0" y="0" width="1264" height="478">
<path d="M1244.37 0H19.6336C8.79027 0 0 8.81837 0 19.6964V458.304C0 469.182 8.79027 478 19.6336 478H1244.37C1255.21 478 1264 469.182 1264 458.304V19.6964C1264 8.81837 1255.21 0 1244.37 0Z" fill="#F5F1DE"/>
</mask>
<g mask="url(#mask1_171_6190)">
<path d="M1178.67 516.39C1253.05 516.39 1313.35 459.32 1313.35 388.92C1313.35 318.52 1253.05 261.45 1178.67 261.45C1104.29 261.45 1043.99 318.52 1043.99 388.92C1043.99 459.32 1104.29 516.39 1178.67 516.39Z" fill="#629665"/>
<path d="M1169.94 308.55L1154.1 312.47C1152.8 312.79 1152.03 314.12 1152.41 315.41L1156.52 329.64C1157.17 331.87 1154.53 333.59 1152.75 332.1L1139.67 321.12C1138.8 320.39 1137.52 320.39 1136.64 321.12L1123.56 332.1C1121.78 333.59 1119.14 331.88 1119.79 329.64L1123.9 315.41C1124.27 314.13 1123.5 312.79 1122.21 312.47L1106.37 308.55C1103.99 307.96 1103.99 304.57 1106.37 303.98L1122.21 300.06C1123.51 299.74 1124.28 298.41 1123.9 297.12L1119.79 282.89C1119.14 280.66 1121.78 278.94 1123.56 280.43L1136.64 291.41C1137.51 292.14 1138.79 292.14 1139.67 291.41L1152.75 280.43C1154.53 278.94 1157.17 280.65 1156.52 282.89L1152.41 297.12C1152.04 298.4 1152.81 299.74 1154.1 300.06L1169.94 303.98C1172.32 304.57 1172.32 307.96 1169.94 308.55Z" fill="#537151"/>
<path d="M1066.68 379.2C1066.17 390.6 1065.83 398.32 1067.83 407.25C1070.04 417.12 1071.87 422.93 1077.27 428.16C1082.86 433.58 1091.94 435.91 1098.68 432.01C1102.78 429.64 1105.44 425.44 1107.69 421.27C1111.39 414.45 1114.5 406.91 1113.89 399.17C1113.36 392.55 1110.16 386.48 1107.03 380.62C1103.48 373.99 1099.46 366.91 1092.57 363.9C1084.76 360.49 1077.26 364.49 1076.8 364.73C1076.45 364.91 1068.33 369.2 1066.89 377.2C1066.73 378.07 1066.7 378.74 1066.68 379.19V379.2Z" fill="#F5F1DE"/>
<path d="M1074.78 372.65C1071.45 375.15 1071.22 379.93 1071.11 382.15C1070.9 386.47 1072.07 389.71 1073.02 392.32C1074.93 397.58 1077.94 402.73 1082.77 405.56C1084.14 406.36 1085.72 406.97 1087.29 406.74C1088.76 406.53 1090.02 405.61 1091.11 404.61C1095.48 400.62 1098.08 394.75 1098.1 388.84C1098.12 382.92 1095.57 377.04 1091.24 373.01C1089.41 371.31 1086.9 368.99 1083.61 369.09C1080.61 369.18 1077.03 371.29 1075.82 372.01C1075.29 372.33 1075.02 372.48 1074.78 372.66V372.65Z" fill="#222222"/>
<path d="M1121.75 379.2C1121.24 390.6 1120.9 398.32 1122.9 407.25C1125.11 417.12 1126.94 422.93 1132.34 428.16C1137.93 433.58 1147.01 435.91 1153.75 432.01C1157.85 429.64 1160.51 425.44 1162.76 421.27C1166.46 414.45 1169.57 406.91 1168.96 399.17C1168.43 392.55 1165.23 386.48 1162.1 380.62C1158.55 373.99 1154.53 366.91 1147.64 363.9C1139.83 360.49 1132.33 364.49 1131.87 364.73C1131.52 364.91 1123.4 369.2 1121.96 377.2C1121.8 378.07 1121.77 378.74 1121.75 379.19V379.2Z" fill="#F5F1DE"/>
<path d="M1129.85 372.65C1126.52 375.15 1126.29 379.93 1126.18 382.15C1125.97 386.47 1127.14 389.71 1128.09 392.32C1130 397.58 1133.01 402.73 1137.84 405.56C1139.21 406.36 1140.79 406.97 1142.36 406.74C1143.83 406.53 1145.09 405.61 1146.18 404.61C1150.55 400.62 1153.15 394.75 1153.17 388.84C1153.19 382.92 1150.64 377.04 1146.31 373.01C1144.48 371.31 1141.97 368.99 1138.68 369.09C1135.68 369.18 1132.1 371.29 1130.89 372.01C1130.36 372.33 1130.09 372.48 1129.85 372.66V372.65Z" fill="#222222"/>
<path d="M1199.7 291.54C1254.3 291.54 1298.56 249.647 1298.56 197.97C1298.56 146.293 1254.3 104.4 1199.7 104.4C1145.1 104.4 1100.84 146.293 1100.84 197.97C1100.84 249.647 1145.1 291.54 1199.7 291.54Z" fill="#F2AD48"/>
<path d="M1193.29 138.98L1181.66 141.86C1180.71 142.1 1180.14 143.07 1180.42 144.02L1183.44 154.47C1183.91 156.11 1181.98 157.37 1180.67 156.27L1171.07 148.21C1170.43 147.67 1169.49 147.67 1168.85 148.21L1159.25 156.27C1157.94 157.37 1156.01 156.11 1156.48 154.47L1159.5 144.02C1159.77 143.08 1159.21 142.1 1158.26 141.86L1146.63 138.98C1144.88 138.55 1144.88 136.06 1146.63 135.63L1158.26 132.75C1159.21 132.51 1159.78 131.54 1159.5 130.59L1156.48 120.14C1156.01 118.5 1157.94 117.24 1159.25 118.34L1168.85 126.4C1169.49 126.94 1170.43 126.94 1171.07 126.4L1180.67 118.34C1181.98 117.24 1183.91 118.5 1183.44 120.14L1180.42 130.59C1180.15 131.53 1180.71 132.51 1181.66 132.75L1193.29 135.63C1195.04 136.06 1195.04 138.55 1193.29 138.98Z" fill="#537151"/>
<path d="M1117.5 190.84C1117.13 199.21 1116.88 204.87 1118.34 211.43C1119.96 218.68 1121.31 222.94 1125.27 226.78C1129.37 230.76 1136.04 232.47 1140.99 229.61C1144 227.87 1145.95 224.78 1147.61 221.73C1150.32 216.72 1152.61 211.19 1152.16 205.51C1151.77 200.65 1149.42 196.19 1147.12 191.9C1144.52 187.04 1141.56 181.84 1136.5 179.63C1130.77 177.13 1125.27 180.06 1124.93 180.24C1124.67 180.37 1118.72 183.52 1117.66 189.39C1117.54 190.03 1117.52 190.52 1117.51 190.85L1117.5 190.84Z" fill="#F5F1DE"/>
<path d="M1123.44 186.03C1121 187.86 1120.83 191.38 1120.75 193C1120.6 196.17 1121.46 198.55 1122.15 200.46C1123.55 204.32 1125.76 208.1 1129.31 210.18C1130.32 210.77 1131.47 211.22 1132.63 211.05C1133.71 210.89 1134.63 210.22 1135.44 209.49C1138.65 206.56 1140.56 202.26 1140.57 197.91C1140.59 193.57 1138.72 189.25 1135.53 186.29C1134.19 185.04 1132.35 183.34 1129.93 183.41C1127.73 183.48 1125.1 185.03 1124.21 185.55C1123.82 185.78 1123.62 185.9 1123.44 186.03Z" fill="#222222"/>
<path d="M1157.92 190.84C1157.55 199.21 1157.3 204.87 1158.76 211.43C1160.38 218.68 1161.73 222.94 1165.69 226.78C1169.79 230.76 1176.46 232.47 1181.41 229.61C1184.42 227.87 1186.37 224.78 1188.03 221.73C1190.74 216.72 1193.03 211.19 1192.58 205.51C1192.19 200.65 1189.84 196.19 1187.54 191.9C1184.94 187.04 1181.98 181.84 1176.92 179.63C1171.19 177.13 1165.69 180.06 1165.35 180.24C1165.09 180.37 1159.14 183.52 1158.08 189.39C1157.96 190.03 1157.94 190.52 1157.93 190.85L1157.92 190.84Z" fill="#F5F1DE"/>
<path d="M1163.86 186.03C1161.42 187.86 1161.25 191.38 1161.17 193C1161.02 196.17 1161.88 198.55 1162.57 200.46C1163.97 204.32 1166.18 208.1 1169.73 210.18C1170.74 210.77 1171.89 211.22 1173.05 211.05C1174.13 210.89 1175.05 210.22 1175.86 209.49C1179.07 206.56 1180.98 202.26 1180.99 197.91C1181.01 193.57 1179.14 189.25 1175.95 186.29C1174.61 185.04 1172.77 183.34 1170.35 183.41C1168.15 183.48 1165.52 185.03 1164.63 185.55C1164.24 185.78 1164.04 185.9 1163.86 186.03Z" fill="#222222"/>
</g>
<path d="M1244.37 0H19.6336C8.79027 0 0 8.81837 0 19.6964V458.304C0 469.182 8.79027 478 19.6336 478H1244.37C1255.21 478 1264 469.182 1264 458.304V19.6964C1264 8.81837 1255.21 0 1244.37 0Z" fill="#F5F1DE"/>
<path d="M760.02 459.27C851.445 459.27 925.56 433.065 925.56 400.74C925.56 368.415 851.445 342.21 760.02 342.21C668.594 342.21 594.479 368.415 594.479 400.74C594.479 433.065 668.594 459.27 760.02 459.27Z" fill="#D8D5C5"/>
<path d="M757.02 374.1C843 374.1 912.7 308.129 912.7 226.75C912.7 145.371 843 79.3999 757.02 79.3999C671.04 79.3999 601.34 145.371 601.34 226.75C601.34 308.129 671.04 374.1 757.02 374.1Z" fill="#E24444"/>
<path d="M793.77 133.85L775.45 138.38C773.95 138.75 773.06 140.29 773.49 141.77L778.25 158.22C779 160.8 775.95 162.79 773.89 161.06L758.78 148.37C757.77 147.52 756.29 147.52 755.28 148.37L740.17 161.06C738.11 162.79 735.06 160.8 735.81 158.22L740.57 141.77C741 140.29 740.11 138.75 738.61 138.38L720.29 133.85C717.54 133.17 717.54 129.25 720.29 128.57L738.61 124.04C740.11 123.67 741 122.13 740.57 120.65L735.81 104.2C735.06 101.62 738.11 99.6301 740.17 101.36L755.28 114.05C756.29 114.9 757.77 114.9 758.78 114.05L773.89 101.36C775.95 99.6301 779 101.62 778.25 104.2L773.49 120.65C773.06 122.13 773.95 123.67 775.45 124.04L793.77 128.57C796.52 129.25 796.52 133.17 793.77 133.85Z" fill="#4A734E"/>
<path d="M706.38 195.58C700.06 200.64 698.3 207.64 696.22 216.4C694.2 224.94 692.59 231.71 694.19 240.68C695.13 245.97 696.41 253.11 701.95 258.92C711.32 268.74 730.1 271.9 740.38 262.97C746.17 257.94 749.37 250.44 750.48 242.85C751.6 235.27 750.8 227.54 749.71 219.95C747.83 206.86 744.96 196.86 736.23 192.07C725.98 186.46 713.12 191.78 712.24 192.16C710.91 192.73 708.75 193.68 706.38 195.57V195.58Z" fill="#F5F1DE"/>
<path d="M720.6 208.96C715.25 210.78 712.68 215.5 712.36 216.11C710.96 218.76 710.77 221.64 711.09 227.37C711.28 230.79 711.67 234.19 712.25 237.57C712.68 240.02 713.23 242.5 714.47 244.66C716.43 248.07 720.12 250.43 724.05 250.76C727.97 251.09 732.01 249.39 734.51 246.35C736.89 243.47 737.81 239.68 738.55 236.02C739.6 230.83 740.42 225.46 739.47 220.25C738.81 216.66 737.55 212.18 733.56 209.77C729.03 207.03 722.99 208.34 722 208.57C721.66 208.65 721.2 208.76 720.6 208.96Z" fill="#222222"/>
<path d="M807.66 195.58C813.98 200.64 815.74 207.64 817.82 216.4C819.84 224.94 821.45 231.71 819.85 240.68C818.91 245.97 817.63 253.11 812.09 258.92C802.72 268.74 783.94 271.9 773.66 262.97C767.87 257.94 764.67 250.44 763.56 242.85C762.44 235.27 763.24 227.54 764.33 219.95C766.21 206.86 769.08 196.86 777.81 192.07C788.06 186.46 800.92 191.78 801.8 192.16C803.13 192.73 805.29 193.68 807.66 195.57V195.58Z" fill="#F5F1DE"/>
<path d="M793.45 208.96C798.8 210.78 801.37 215.5 801.69 216.11C803.09 218.76 803.28 221.64 802.96 227.37C802.77 230.79 802.38 234.19 801.8 237.57C801.37 240.02 800.82 242.5 799.58 244.66C797.62 248.07 793.93 250.43 790 250.76C786.08 251.09 782.04 249.39 779.54 246.35C777.16 243.47 776.24 239.68 775.5 236.02C774.45 230.83 773.63 225.46 774.58 220.25C775.24 216.66 776.5 212.18 780.49 209.77C785.02 207.03 791.06 208.34 792.05 208.57C792.39 208.65 792.85 208.76 793.45 208.96Z" fill="#222222"/>
<path d="M597.23 238.22C594.66 240.19 556.44 270.1 564 294.39C565.85 300.32 571.38 308.99 578.03 309.17C584.88 309.35 589.79 300.62 594.84 293.63C602.17 283.5 614.48 270.7 636.31 259.47C636.28 259.36 635.73 257.66 633.95 257.17C632.28 256.72 630.99 257.73 630.87 257.83" fill="#963030"/>
<path d="M612.6 216.95C606.77 220.89 550.15 259.94 558.95 289.81C560.92 296.49 567.4 306.94 575.27 307.3C582.98 307.66 588.36 298.17 595.19 289.62C603.39 279.36 617 266.31 640.48 255.31" fill="#E24444"/>
<path d="M913.03 252.78C915.6 250.81 953.82 220.9 946.26 196.61C944.41 190.68 938.88 182.01 932.23 181.83C925.38 181.65 920.47 190.38 915.42 197.37C908.09 207.5 895.78 220.3 873.95 231.53C873.98 231.64 874.53 233.34 876.31 233.83C877.98 234.28 879.27 233.27 879.39 233.17" fill="#963030"/>
<path d="M897.67 274.05C903.5 270.11 960.12 231.06 951.32 201.19C949.35 194.51 942.87 184.06 935 183.7C927.29 183.34 921.91 192.83 915.08 201.38C906.88 211.64 893.27 224.69 869.79 235.69" fill="#E24444"/>
<path d="M698.45 331.86C694.06 347.67 689.68 363.47 685.29 379.28C684.17 379.25 670.42 379.16 663.5 389.84C662.43 391.49 659.05 396.71 660.19 402.65C663 417.21 689.55 421.45 698.44 422.88C708.46 424.48 714.52 425.46 719.93 421.91C727.38 417.03 728.53 407.02 729.7 395.41C732.23 370.31 734.01 351.31 735.22 337.9" fill="#E24444"/>
<path d="M815.6 331.86C819.99 347.67 824.37 363.47 828.76 379.28C829.88 379.25 843.63 379.16 850.55 389.84C851.62 391.49 855 396.71 853.86 402.65C851.05 417.21 824.5 421.45 815.61 422.88C805.59 424.48 799.53 425.46 794.12 421.91C786.67 417.03 785.52 407.02 784.35 395.41C781.82 370.31 780.04 351.31 778.83 337.9" fill="#E24444"/>
<path d="M585.18 100.78L588.67 107.47C589.2 108.46 590.17 109.16 591.29 109.32L598.66 110.33C602.6 110.87 604.13 115.73 601.21 118.43L596.16 123.09C595.29 123.9 594.88 125.09 595.1 126.26L596.33 133.09C597.02 136.89 593.06 139.86 589.58 138.12L582.54 134.63C581.56 134.15 580.41 134.15 579.42 134.63L572.38 138.12C568.91 139.84 564.95 136.89 565.63 133.09L566.86 126.26C567.08 125.1 566.67 123.9 565.8 123.09L560.75 118.43C557.84 115.74 559.36 110.87 563.3 110.33L570.67 109.32C571.79 109.16 572.77 108.48 573.29 107.47L576.78 100.78C578.56 97.4099 583.4 97.4099 585.16 100.78H585.18Z" fill="#F5D45D"/>
<path d="M956.4 293.31L959.89 300C960.42 300.99 961.39 301.69 962.51 301.85L969.88 302.86C973.82 303.4 975.35 308.26 972.43 310.96L967.38 315.62C966.51 316.43 966.1 317.62 966.32 318.79L967.55 325.62C968.24 329.42 964.28 332.39 960.8 330.65L953.76 327.16C952.78 326.68 951.63 326.68 950.64 327.16L943.6 330.65C940.13 332.37 936.17 329.42 936.85 325.62L938.08 318.79C938.3 317.63 937.89 316.43 937.02 315.62L931.97 310.96C929.06 308.27 930.58 303.4 934.52 302.86L941.89 301.85C943.01 301.69 943.99 301.01 944.51 300L948 293.31C949.78 289.94 954.62 289.94 956.38 293.31H956.4Z" fill="#F5D45D"/>
<path d="M929.31 139.06L940.99 180.3L869.51 200.41L884.03 174.06L857.83 159.17L929.31 139.06Z" fill="#F2AD48"/>
<path d="M994.02 175.68L952.69 186.91L972.3 258.57L987.38 232.54L1013.63 247.34L994.02 175.68Z" fill="#F2AD48"/>
<path d="M1011.74 70.7902C1012.72 70.5302 1013.73 71.1002 1014.02 72.0802L1020.33 93.8702C1020.51 94.5002 1021.01 94.9902 1021.64 95.1602L1043.54 101.08C1044.52 101.35 1045.11 102.35 1044.87 103.33L1039.44 125.32C1039.28 125.96 1039.47 126.63 1039.93 127.09L1055.95 143.15C1056.67 143.87 1056.68 145.04 1055.97 145.77L1040.27 162.08C1039.82 162.55 1039.64 163.23 1039.81 163.86L1045.67 185.76C1045.93 186.74 1045.36 187.76 1044.38 188.04L1022.61 194.3C1021.98 194.48 1021.49 194.98 1021.32 195.61L1015.44 217.48C1015.18 218.46 1014.17 219.05 1013.19 218.81L991.18 213.34C990.55 213.18 989.87 213.37 989.41 213.83L973.37 229.82C972.65 230.54 971.49 230.55 970.76 229.84L954.41 214.1C953.94 213.65 953.27 213.47 952.63 213.64L930.72 219.46C929.74 219.72 928.73 219.15 928.44 218.17L922.13 196.38C921.95 195.75 921.45 195.26 920.82 195.09L898.92 189.17C897.94 188.9 897.35 187.9 897.59 186.92L903.02 164.93C903.18 164.29 902.99 163.62 902.53 163.16L886.51 147.1C885.79 146.38 885.78 145.21 886.49 144.48L902.19 128.17C902.64 127.7 902.82 127.02 902.65 126.39L896.79 104.49C896.53 103.51 897.1 102.49 898.08 102.21L919.85 95.9502C920.48 95.7702 920.97 95.2702 921.14 94.6402L927.02 72.7702C927.28 71.7902 928.29 71.2002 929.27 71.4402L951.28 76.9102C951.91 77.0702 952.59 76.8802 953.05 76.4202L969.09 60.4302C969.81 59.7102 970.97 59.7002 971.7 60.4102L988.05 76.1502C988.52 76.6002 989.19 76.7802 989.83 76.6102L1011.74 70.7902Z" fill="#4A734E"/>
<path d="M1004.48 83.0202C1005.46 82.7602 1006.47 83.3302 1006.76 84.3102L1011.89 102.03C1012.07 102.66 1012.57 103.15 1013.2 103.32L1031.02 108.13C1032 108.4 1032.59 109.4 1032.35 110.38L1027.93 128.27C1027.77 128.91 1027.96 129.58 1028.42 130.04L1041.46 143.11C1042.18 143.83 1042.19 145 1041.48 145.73L1028.71 159C1028.26 159.47 1028.08 160.15 1028.25 160.78L1033.01 178.59C1033.27 179.57 1032.7 180.59 1031.72 180.87L1014.01 185.96C1013.38 186.14 1012.89 186.64 1012.72 187.27L1007.94 205.06C1007.68 206.04 1006.67 206.63 1005.69 206.39L987.78 201.94C987.14 201.78 986.47 201.97 986.01 202.43L972.96 215.44C972.24 216.16 971.08 216.17 970.35 215.46L957.05 202.66C956.58 202.21 955.91 202.03 955.27 202.2L937.45 206.93C936.47 207.19 935.46 206.62 935.17 205.64L930.04 187.92C929.86 187.29 929.36 186.8 928.73 186.63L910.91 181.82C909.93 181.55 909.34 180.55 909.58 179.57L914 161.68C914.16 161.04 913.97 160.37 913.51 159.91L900.47 146.84C899.75 146.12 899.74 144.95 900.45 144.22L913.22 130.95C913.67 130.48 913.85 129.8 913.68 129.17L908.92 111.36C908.66 110.38 909.23 109.36 910.21 109.08L927.92 103.99C928.55 103.81 929.04 103.31 929.21 102.68L933.99 84.8902C934.25 83.9102 935.26 83.3202 936.24 83.5602L954.15 88.0102C954.78 88.1702 955.46 87.9802 955.92 87.5202L968.97 74.5102C969.69 73.7902 970.85 73.7802 971.58 74.4902L984.88 87.2902C985.35 87.7402 986.02 87.9202 986.66 87.7502L1004.48 83.0202Z" fill="#F5F1DE"/>
<path d="M949.46 180.78C971.21 193.09 998.21 186.49 1009.77 166.03C1021.33 145.58 1013.07 119.02 991.32 106.71C969.57 94.4002 942.57 101 931.01 121.46C919.45 141.91 927.71 168.47 949.46 180.78Z" fill="#E24444"/>
<path d="M992.1 125.54L986.91 124.12C986.48 124 986.04 124.27 985.94 124.71L984.75 129.57C984.57 130.33 983.52 130.41 983.26 129.68L981.34 124.33C981.21 123.97 980.84 123.76 980.47 123.84L974.89 124.95C974.13 125.1 973.66 124.16 974.22 123.61L977.77 120.09C978.09 119.78 978.09 119.26 977.77 118.95L973.88 115.23C973.3 114.67 973.86 113.67 974.64 113.88L979.83 115.3C980.26 115.42 980.7 115.15 980.8 114.71L981.99 109.85C982.17 109.09 983.22 109.01 983.48 109.74L985.4 115.09C985.53 115.45 985.9 115.66 986.27 115.58L991.85 114.47C992.61 114.32 993.08 115.26 992.52 115.81L988.97 119.33C988.65 119.64 988.65 120.16 988.97 120.47L992.86 124.19C993.44 124.75 992.88 125.75 992.1 125.54Z" fill="#4A734E"/>
<path d="M961.74 128.21C959.4 128.6 957.94 130.13 956.14 132.07C954.39 133.96 953 135.46 952.11 137.99C951.59 139.48 950.88 141.49 951.46 143.77C952.43 147.64 956.76 151.15 960.66 150.34C962.86 149.89 964.76 148.43 966.14 146.66C967.52 144.89 968.43 142.79 969.25 140.7C970.66 137.08 971.37 134.11 969.84 131.64C968.04 128.73 964 128.23 963.71 128.21C963.29 128.17 962.6 128.09 961.72 128.24V128.22L961.74 128.21Z" fill="#F5F1DE"/>
<path d="M963.64 133.58C962.02 133.28 960.69 134.13 960.52 134.24C959.78 134.72 959.32 135.43 958.56 136.95C958.11 137.85 957.72 138.78 957.37 139.74C957.12 140.43 956.9 141.14 956.9 141.88C956.9 143.04 957.5 144.17 958.44 144.82C959.38 145.47 960.65 145.61 961.73 145.18C962.75 144.78 963.53 143.94 964.25 143.11C965.27 141.92 966.26 140.67 966.77 139.2C967.13 138.18 967.45 136.86 966.8 135.66C966.05 134.31 964.34 133.78 964.05 133.7C963.95 133.67 963.83 133.63 963.64 133.6V133.58Z" fill="#222222"/>
<path d="M987.24 142.64C988.11 144.85 987.56 146.89 986.82 149.43C986.1 151.9 985.53 153.87 983.83 155.93C982.82 157.14 981.47 158.79 979.21 159.47C975.4 160.63 970.16 158.73 968.84 154.96C968.09 152.84 968.36 150.46 969.17 148.36C969.98 146.26 971.3 144.4 972.67 142.62C975.04 139.55 977.22 137.4 980.13 137.44C983.55 137.48 986.06 140.69 986.23 140.93C986.49 141.27 986.9 141.82 987.23 142.65H987.25L987.24 142.64Z" fill="#F5F1DE"/>
<path d="M981.97 143.95C982.89 145.09 982.77 146.62 982.75 146.82C982.68 147.67 982.3 148.43 981.4 149.87C980.86 150.73 980.28 151.55 979.66 152.35C979.21 152.93 978.73 153.5 978.14 153.89C977.21 154.52 976.05 154.66 975.14 154.26C974.22 153.86 973.58 152.91 973.47 151.81C973.36 150.77 973.71 149.68 974.07 148.65C974.59 147.18 975.18 145.7 976.15 144.49C976.82 143.65 977.74 142.66 978.98 142.54C980.38 142.4 981.53 143.49 981.71 143.68C981.78 143.74 981.86 143.82 981.97 143.95Z" fill="#222222"/>
<path d="M626.77 94.4899C630.73 94.4899 633.94 91.2798 633.94 87.3199C633.94 83.36 630.73 80.1499 626.77 80.1499C622.81 80.1499 619.6 83.36 619.6 87.3199C619.6 91.2798 622.81 94.4899 626.77 94.4899Z" fill="#F5D45D"/>
<path d="M908.99 341.33C912.95 341.33 916.16 338.12 916.16 334.16C916.16 330.2 912.95 326.99 908.99 326.99C905.03 326.99 901.82 330.2 901.82 334.16C901.82 338.12 905.03 341.33 908.99 341.33Z" fill="#F5D45D"/>
<mask id="mask2_171_6190" style="mask-type:alpha" maskUnits="userSpaceOnUse" x="0" y="0" width="1264" height="479">
<path d="M1244.37 0.00012207H19.6336C8.79027 0.00012207 0 8.81849 0 19.6965V458.304C0 469.182 8.79027 478 19.6336 478H1244.37C1255.21 478 1264 469.182 1264 458.304V19.6965C1264 8.81849 1255.21 0.00012207 1244.37 0.00012207Z" fill="#F5F1DE"/>
</mask>
<g mask="url(#mask2_171_6190)">
<path d="M1178.67 516.39C1253.05 516.39 1313.35 459.32 1313.35 388.92C1313.35 318.521 1253.05 261.45 1178.67 261.45C1104.29 261.45 1043.99 318.521 1043.99 388.92C1043.99 459.32 1104.29 516.39 1178.67 516.39Z" fill="#629665"/>
<path d="M1169.94 308.55L1154.1 312.47C1152.8 312.79 1152.03 314.12 1152.41 315.41L1156.52 329.64C1157.17 331.87 1154.53 333.59 1152.75 332.1L1139.67 321.12C1138.8 320.39 1137.52 320.39 1136.64 321.12L1123.56 332.1C1121.78 333.59 1119.14 331.88 1119.79 329.64L1123.9 315.41C1124.27 314.13 1123.5 312.79 1122.21 312.47L1106.37 308.55C1103.99 307.96 1103.99 304.57 1106.37 303.98L1122.21 300.06C1123.51 299.74 1124.28 298.41 1123.9 297.12L1119.79 282.89C1119.14 280.66 1121.78 278.94 1123.56 280.43L1136.64 291.41C1137.51 292.14 1138.79 292.14 1139.67 291.41L1152.75 280.43C1154.53 278.94 1157.17 280.65 1156.52 282.89L1152.41 297.12C1152.04 298.4 1152.81 299.74 1154.1 300.06L1169.94 303.98C1172.32 304.57 1172.32 307.96 1169.94 308.55Z" fill="#537151"/>
<path d="M1066.68 379.2C1066.17 390.6 1065.83 398.32 1067.83 407.25C1070.04 417.12 1071.87 422.93 1077.27 428.16C1082.86 433.58 1091.94 435.91 1098.68 432.01C1102.78 429.64 1105.44 425.44 1107.69 421.27C1111.39 414.45 1114.5 406.91 1113.89 399.17C1113.36 392.55 1110.16 386.48 1107.03 380.62C1103.48 373.99 1099.46 366.91 1092.57 363.9C1084.76 360.49 1077.26 364.49 1076.8 364.73C1076.45 364.91 1068.33 369.2 1066.89 377.2C1066.73 378.07 1066.7 378.74 1066.68 379.19V379.2Z" fill="#F5F1DE"/>
<path d="M1074.78 372.65C1071.45 375.15 1071.22 379.93 1071.11 382.15C1070.9 386.47 1072.07 389.71 1073.02 392.32C1074.93 397.58 1077.94 402.73 1082.77 405.56C1084.14 406.36 1085.72 406.97 1087.29 406.74C1088.76 406.53 1090.02 405.61 1091.11 404.61C1095.48 400.62 1098.08 394.75 1098.1 388.84C1098.12 382.92 1095.57 377.04 1091.24 373.01C1089.41 371.31 1086.9 368.99 1083.61 369.09C1080.61 369.18 1077.03 371.29 1075.82 372.01C1075.29 372.33 1075.02 372.48 1074.78 372.66V372.65Z" fill="#222222"/>
<path d="M1121.75 379.2C1121.24 390.6 1120.9 398.32 1122.9 407.25C1125.11 417.12 1126.94 422.93 1132.34 428.16C1137.93 433.58 1147.01 435.91 1153.75 432.01C1157.85 429.64 1160.51 425.44 1162.76 421.27C1166.46 414.45 1169.57 406.91 1168.96 399.17C1168.43 392.55 1165.23 386.48 1162.1 380.62C1158.55 373.99 1154.53 366.91 1147.64 363.9C1139.83 360.49 1132.33 364.49 1131.87 364.73C1131.52 364.91 1123.4 369.2 1121.96 377.2C1121.8 378.07 1121.77 378.74 1121.75 379.19V379.2Z" fill="#F5F1DE"/>
<path d="M1129.85 372.65C1126.52 375.15 1126.29 379.93 1126.18 382.15C1125.97 386.47 1127.14 389.71 1128.09 392.32C1130 397.58 1133.01 402.73 1137.84 405.56C1139.21 406.36 1140.79 406.97 1142.36 406.74C1143.83 406.53 1145.09 405.61 1146.18 404.61C1150.55 400.62 1153.15 394.75 1153.17 388.84C1153.19 382.92 1150.64 377.04 1146.31 373.01C1144.48 371.31 1141.97 368.99 1138.68 369.09C1135.68 369.18 1132.1 371.29 1130.89 372.01C1130.36 372.33 1130.09 372.48 1129.85 372.66V372.65Z" fill="#222222"/>
<path d="M1211.42 303.833C1271.94 303.833 1321 257.397 1321 200.116C1321 142.835 1271.94 96.4 1211.42 96.4C1150.9 96.4 1101.84 142.835 1101.84 200.116C1101.84 257.397 1150.9 303.833 1211.42 303.833Z" fill="#F2AD48"/>
<path d="M1204.32 134.73L1191.42 137.922C1190.37 138.188 1189.74 139.263 1190.05 140.316L1193.4 151.9C1193.92 153.717 1191.78 155.114 1190.33 153.895L1179.69 144.961C1178.98 144.362 1177.93 144.362 1177.22 144.961L1166.58 153.895C1165.13 155.114 1162.99 153.717 1163.51 151.9L1166.86 140.316C1167.16 139.274 1166.54 138.188 1165.49 137.922L1152.6 134.73C1150.66 134.253 1150.66 131.493 1152.6 131.017L1165.49 127.824C1166.54 127.558 1167.17 126.483 1166.86 125.43L1163.51 113.847C1162.99 112.029 1165.13 110.632 1166.58 111.852L1177.22 120.786C1177.93 121.384 1178.98 121.384 1179.69 120.786L1190.33 111.852C1191.78 110.632 1193.92 112.029 1193.4 113.847L1190.05 125.43C1189.75 126.472 1190.37 127.558 1191.42 127.824L1204.32 131.017C1206.25 131.493 1206.25 134.253 1204.32 134.73Z" fill="#537151"/>
<path d="M1120.31 192.213C1119.9 201.491 1119.62 207.765 1121.24 215.036C1123.03 223.072 1124.53 227.794 1128.92 232.05C1133.46 236.462 1140.86 238.357 1146.34 235.187C1149.68 233.259 1151.84 229.834 1153.68 226.453C1156.69 220.9 1159.22 214.77 1158.72 208.474C1158.29 203.087 1155.69 198.143 1153.14 193.388C1150.26 188.001 1146.98 182.237 1141.37 179.788C1135.02 177.017 1128.92 180.264 1128.54 180.464C1128.25 180.608 1121.66 184.099 1120.48 190.606C1120.35 191.315 1120.33 191.859 1120.32 192.224L1120.31 192.213Z" fill="#F5F1DE"/>
<path d="M1126.89 186.882C1124.19 188.91 1124 192.812 1123.91 194.607C1123.74 198.121 1124.7 200.759 1125.46 202.876C1127.01 207.155 1129.46 211.345 1133.4 213.65C1134.52 214.304 1135.79 214.803 1137.08 214.615C1138.27 214.437 1139.29 213.695 1140.19 212.886C1143.75 209.638 1145.87 204.872 1145.88 200.05C1145.9 195.239 1143.83 190.451 1140.29 187.17C1138.81 185.784 1136.77 183.9 1134.08 183.978C1131.65 184.055 1128.73 185.773 1127.74 186.35C1127.31 186.605 1127.09 186.738 1126.89 186.882Z" fill="#222222"/>
<path d="M1165.11 192.213C1164.7 201.491 1164.42 207.765 1166.04 215.036C1167.84 223.072 1169.33 227.794 1173.72 232.05C1178.27 236.462 1185.66 238.357 1191.15 235.187C1194.48 233.259 1196.64 229.834 1198.48 226.453C1201.49 220.9 1204.03 214.77 1203.53 208.474C1203.09 203.087 1200.49 198.143 1197.94 193.388C1195.06 188.001 1191.78 182.237 1186.17 179.788C1179.82 177.017 1173.72 180.264 1173.34 180.464C1173.06 180.608 1166.46 184.099 1165.29 190.606C1165.15 191.315 1165.13 191.859 1165.12 192.224L1165.11 192.213Z" fill="#F5F1DE"/>
<path d="M1171.69 186.882C1168.99 188.91 1168.8 192.812 1168.71 194.607C1168.55 198.121 1169.5 200.759 1170.26 202.876C1171.82 207.155 1174.27 211.345 1178.2 213.65C1179.32 214.304 1180.59 214.803 1181.88 214.615C1183.08 214.437 1184.1 213.695 1185 212.886C1188.55 209.638 1190.67 204.872 1190.68 200.05C1190.7 195.239 1188.63 190.451 1185.1 187.17C1183.61 185.784 1181.57 183.9 1178.89 183.978C1176.45 184.055 1173.53 185.773 1172.55 186.35C1172.12 186.605 1171.89 186.738 1171.69 186.882Z" fill="#222222"/>
</g>
<rect x="81" y="96.0001" width="258" height="73" rx="10" fill="#222222"/>
<path d="M133.44 137.48C133.493 137.88 133.427 138.133 133.24 138.24C133.053 138.347 132.773 138.427 132.4 138.48C130.693 138.667 128.947 138.827 127.16 138.96C125.4 139.067 123.627 139.173 121.84 139.28V144.12H134.88C135.253 144.12 135.52 144.187 135.68 144.32C135.84 144.453 135.92 144.72 135.92 145.12V149.8C135.92 150.2 135.84 150.467 135.68 150.6C135.52 150.733 135.253 150.8 134.88 150.8H101.12C100.747 150.8 100.48 150.733 100.32 150.6C100.16 150.467 100.08 150.2 100.08 149.8V145.12C100.08 144.72 100.16 144.453 100.32 144.32C100.48 144.187 100.747 144.12 101.12 144.12H114.16V139.52C113.387 139.547 112.627 139.56 111.88 139.56C111.16 139.56 110.453 139.56 109.76 139.56C107.2 139.56 105.36 138.88 104.24 137.52C103.147 136.133 102.6 133.933 102.6 130.92V115C102.6 114.6 102.68 114.333 102.84 114.2C103 114.067 103.267 114 103.64 114H131.92C132.293 114 132.56 114.067 132.72 114.2C132.88 114.333 132.96 114.6 132.96 115V119.68C132.96 120.08 132.88 120.347 132.72 120.48C132.56 120.613 132.293 120.68 131.92 120.68H110.28V123.56H131.96C132.333 123.56 132.6 123.627 132.76 123.76C132.92 123.893 133 124.16 133 124.56V128.84C133 129.24 132.92 129.507 132.76 129.64C132.6 129.773 132.333 129.84 131.96 129.84H110.28V130.56C110.28 131.52 110.48 132.227 110.88 132.68C111.28 133.133 112.013 133.347 113.08 133.32C115.987 133.267 119.08 133.16 122.36 133C125.64 132.84 128.853 132.587 132 132.24C132.373 132.187 132.627 132.24 132.76 132.4C132.893 132.56 132.987 132.84 133.04 133.24L133.44 137.48ZM160.248 144.44C160.248 146.12 159.888 147.333 159.168 148.08C158.448 148.827 157.368 149.2 155.928 149.2H142.888C141.448 149.2 140.368 148.827 139.648 148.08C138.928 147.333 138.568 146.12 138.568 144.44V115C138.568 114.6 138.648 114.333 138.808 114.2C138.968 114.067 139.234 114 139.608 114H159.208C159.581 114 159.848 114.067 160.008 114.2C160.168 114.333 160.248 114.6 160.248 115V144.44ZM176.688 133.24C176.688 133.64 176.608 133.907 176.448 134.04C176.288 134.173 176.021 134.24 175.648 134.24H171.968V150.2C171.968 150.6 171.888 150.867 171.728 151C171.568 151.133 171.301 151.2 170.928 151.2H165.328C164.954 151.2 164.688 151.133 164.528 151C164.368 150.867 164.288 150.6 164.288 150.2V115C164.288 114.6 164.368 114.333 164.528 114.2C164.688 114.067 164.954 114 165.328 114H170.928C171.301 114 171.568 114.067 171.728 114.2C171.888 114.333 171.968 114.6 171.968 115V127.6H175.648C176.021 127.6 176.288 127.667 176.448 127.8C176.608 127.933 176.688 128.2 176.688 128.6V133.24ZM151.768 142.92C152.221 142.92 152.528 142.84 152.688 142.68C152.848 142.493 152.928 142.147 152.928 141.64V120.08H145.888V141.64C145.888 142.147 145.968 142.493 146.128 142.68C146.288 142.84 146.594 142.92 147.048 142.92H151.768ZM211.448 137.48C211.501 137.88 211.434 138.133 211.248 138.24C211.061 138.347 210.781 138.427 210.408 138.48C208.701 138.667 206.954 138.827 205.168 138.96C203.408 139.067 201.634 139.173 199.848 139.28V144.12H212.888C213.261 144.12 213.528 144.187 213.688 144.32C213.848 144.453 213.928 144.72 213.928 145.12V149.8C213.928 150.2 213.848 150.467 213.688 150.6C213.528 150.733 213.261 150.8 212.888 150.8H179.128C178.754 150.8 178.488 150.733 178.328 150.6C178.168 150.467 178.088 150.2 178.088 149.8V145.12C178.088 144.72 178.168 144.453 178.328 144.32C178.488 144.187 178.754 144.12 179.128 144.12H192.168V139.52C191.394 139.547 190.634 139.56 189.888 139.56C189.168 139.56 188.461 139.56 187.768 139.56C185.208 139.56 183.368 138.88 182.248 137.52C181.154 136.133 180.608 133.933 180.608 130.92V115C180.608 114.6 180.688 114.333 180.848 114.2C181.008 114.067 181.274 114 181.648 114H209.928C210.301 114 210.568 114.067 210.728 114.2C210.888 114.333 210.968 114.6 210.968 115V119.68C210.968 120.08 210.888 120.347 210.728 120.48C210.568 120.613 210.301 120.68 209.928 120.68H188.288V123.56H209.968C210.341 123.56 210.608 123.627 210.768 123.76C210.928 123.893 211.008 124.16 211.008 124.56V128.84C211.008 129.24 210.928 129.507 210.768 129.64C210.608 129.773 210.341 129.84 209.968 129.84H188.288V130.56C188.288 131.52 188.488 132.227 188.888 132.68C189.288 133.133 190.021 133.347 191.088 133.32C193.994 133.267 197.088 133.16 200.368 133C203.648 132.84 206.861 132.587 210.008 132.24C210.381 132.187 210.634 132.24 210.768 132.4C210.901 132.56 210.994 132.84 211.048 133.24L211.448 137.48ZM237.147 141.12V150.36C237.147 150.76 237.067 151.027 236.907 151.16C236.747 151.293 236.48 151.36 236.107 151.36H230.907C230.533 151.36 230.267 151.293 230.107 151.16C229.947 151.027 229.867 150.76 229.867 150.36V120.52C229.867 119.773 229.907 119.093 229.987 118.48C230.093 117.84 230.307 117.307 230.627 116.88C230.973 116.427 231.467 116.08 232.107 115.84C232.747 115.6 233.627 115.48 234.747 115.48H242.867C247.053 115.48 250.2 116.52 252.307 118.6C254.413 120.68 255.467 123.813 255.467 128C255.467 132.187 254.413 135.427 252.307 137.72C250.2 139.987 247.053 141.12 242.867 141.12H237.147ZM237.147 134.2H242.827C244.613 134.2 245.947 133.667 246.827 132.6C247.733 131.507 248.187 129.973 248.187 128C248.187 126.08 247.733 124.667 246.827 123.76C245.947 122.853 244.613 122.4 242.827 122.4H239.027C238.307 122.4 237.813 122.547 237.547 122.84C237.28 123.107 237.147 123.627 237.147 124.4V134.2ZM261.528 151.4C261.154 151.4 260.888 151.333 260.728 151.2C260.568 151.067 260.488 150.8 260.488 150.4V126.96C260.488 126.56 260.568 126.293 260.728 126.16C260.888 126.027 261.154 125.96 261.528 125.96H266.608C266.981 125.96 267.248 126.027 267.408 126.16C267.568 126.293 267.648 126.56 267.648 126.96V150.4C267.648 150.8 267.568 151.067 267.408 151.2C267.248 151.333 266.981 151.4 266.608 151.4H261.528ZM261.528 122.6C261.154 122.6 260.888 122.533 260.728 122.4C260.568 122.267 260.488 122 260.488 121.6V116.48C260.488 116.08 260.568 115.813 260.728 115.68C260.888 115.547 261.154 115.48 261.528 115.48H266.608C266.981 115.48 267.248 115.547 267.408 115.68C267.568 115.813 267.648 116.08 267.648 116.48V121.6C267.648 122 267.568 122.267 267.408 122.4C267.248 122.533 266.981 122.6 266.608 122.6H261.528ZM283.714 124.84C284.247 124.84 284.847 124.88 285.514 124.96C286.181 125.013 286.847 125.08 287.514 125.16C288.207 125.24 288.847 125.333 289.434 125.44C290.047 125.547 290.567 125.64 290.994 125.72C291.314 125.773 291.567 125.88 291.754 126.04C291.941 126.2 292.021 126.547 291.994 127.08L291.874 130.76C291.847 131.533 291.487 131.88 290.794 131.8C290.101 131.747 289.247 131.68 288.234 131.6C287.247 131.52 286.407 131.48 285.714 131.48C284.461 131.48 283.447 131.6 282.674 131.84C281.927 132.053 281.327 132.427 280.874 132.96C280.447 133.493 280.154 134.187 279.994 135.04C279.861 135.893 279.794 136.933 279.794 138.16C279.794 139.547 279.874 140.707 280.034 141.64C280.194 142.547 280.487 143.28 280.914 143.84C281.367 144.4 281.981 144.787 282.754 145C283.527 145.24 284.541 145.36 285.794 145.36C286.141 145.36 286.527 145.347 286.954 145.32C287.407 145.293 287.861 145.267 288.314 145.24C288.794 145.213 289.261 145.173 289.714 145.12C290.167 145.093 290.554 145.067 290.874 145.04C291.167 145.013 291.394 145.04 291.554 145.12C291.741 145.2 291.847 145.533 291.874 146.12L291.994 149.76C292.021 150.267 291.941 150.6 291.754 150.76C291.567 150.947 291.314 151.067 290.994 151.12C290.541 151.2 289.994 151.293 289.354 151.4C288.741 151.507 288.087 151.6 287.394 151.68C286.727 151.787 286.047 151.867 285.354 151.92C284.687 152 284.087 152.04 283.554 152.04C281.607 152.04 279.941 151.773 278.554 151.24C277.194 150.707 276.074 149.88 275.194 148.76C274.341 147.64 273.714 146.213 273.314 144.48C272.914 142.72 272.714 140.613 272.714 138.16C272.714 135.84 272.914 133.853 273.314 132.2C273.741 130.52 274.394 129.133 275.274 128.04C276.181 126.947 277.327 126.147 278.714 125.64C280.101 125.107 281.767 124.84 283.714 124.84ZM304.209 150.36C304.209 150.76 304.129 151.027 303.969 151.16C303.809 151.293 303.543 151.36 303.169 151.36H298.289C297.916 151.36 297.649 151.293 297.489 151.16C297.329 151.027 297.249 150.76 297.249 150.36V116.48C297.249 116.08 297.329 115.813 297.489 115.68C297.649 115.547 297.916 115.48 298.289 115.48H303.169C303.543 115.48 303.809 115.547 303.969 115.68C304.129 115.813 304.209 116.08 304.209 116.48V135.28L306.889 134.76L311.529 126.32C311.689 126.027 311.876 125.8 312.089 125.64C312.329 125.48 312.649 125.4 313.049 125.4H318.409C318.863 125.4 319.143 125.52 319.249 125.76C319.383 125.973 319.343 126.28 319.129 126.68L313.129 137.68L319.409 149.88C319.703 150.413 319.783 150.787 319.649 151C319.516 151.24 319.169 151.36 318.609 151.36H313.729C313.143 151.36 312.716 151.267 312.449 151.08C312.183 150.92 311.943 150.653 311.729 150.28L307.009 141.6L304.209 142.12V150.36Z" fill="#F5F1DE"/>
<path d="M114.562 207.164V242.477H110.422V224.469H106.438V240.68H102.453V207.828H106.438V220.992H110.422V207.164H114.562ZM85.2656 234.234V211.344H98.4688V214.859H89.6406V230.563C93.4688 230.524 96.6328 230.328 100.227 229.664L100.539 233.219C96.2617 234.078 92.5703 234.195 87.6484 234.234H85.2656ZM130.188 209.352C135.793 209.352 139.875 212.848 139.914 217.867C139.875 222.203 136.828 225.406 132.375 226.188V231.344C135.52 231.188 138.703 230.914 141.711 230.484L142.062 233.609C134.152 235.113 125.676 235.172 119.445 235.172L118.898 231.617C121.594 231.617 124.738 231.617 128.039 231.52V226.207C123.605 225.426 120.48 222.223 120.5 217.867C120.48 212.848 124.641 209.352 130.188 209.352ZM124.797 217.867C124.777 220.777 127.102 222.672 130.188 222.672C133.332 222.672 135.637 220.777 135.656 217.867C135.637 214.899 133.312 213.082 130.188 213.102C127.102 213.082 124.777 214.899 124.797 217.867ZM143.82 242.516V207.164H148.156V242.516H143.82ZM181.281 207.164V215.758H186.047V219.391H181.281V227.945H176.945V207.164H181.281ZM153 224.391C155.656 224.391 158.723 224.391 161.906 224.313V222.535C157.941 222.125 155.48 220.504 155.5 217.906C155.48 215.055 158.84 213.375 164.016 213.375C169.191 213.375 172.531 215.055 172.531 217.906C172.531 220.465 170.129 222.106 166.242 222.516V224.156C169.25 224 172.277 223.766 175.109 223.375L175.461 226.109C167.902 227.379 159.621 227.438 153.469 227.438L153 224.391ZM153.898 212.516V209.547H161.906V206.891H166.242V209.547H174.172V212.516H153.898ZM157.688 232.281V229.352H181.281V236.969H162.102V239.234H182.531V242.164H157.766V234.274H176.945V232.281H157.688ZM159.68 217.906C159.641 219.176 161.281 219.859 164.016 219.859C166.75 219.859 168.391 219.176 168.391 217.906C168.391 216.734 166.75 216.129 164.016 216.109C161.281 216.129 159.641 216.734 159.68 217.906ZM220.109 224.078V227.555H187.883V224.078H201.867V220.719H191.828V208.766H216.203V212.164H196.164V217.281H216.398V220.719H206.125V224.078H220.109ZM191.633 236.031C191.633 231.891 196.262 229.567 203.938 229.586C211.555 229.567 216.145 231.891 216.164 236.031C216.145 240.133 211.555 242.457 203.938 242.477C196.262 242.457 191.633 240.133 191.633 236.031ZM196.047 236.031C196.027 238.082 198.801 239.137 203.938 239.117C208.996 239.137 211.789 238.082 211.828 236.031C211.789 234 208.996 232.906 203.938 232.906C198.801 232.906 196.027 234 196.047 236.031ZM264.172 224.625V228.102H250.539V234.586H246.125V228.102H231.906V224.625H264.172ZM235.344 215.172C235.324 210.738 240.402 207.945 248 207.945C255.637 207.945 260.656 210.738 260.656 215.172C260.656 219.625 255.637 222.379 248 222.359C240.402 222.379 235.324 219.625 235.344 215.172ZM235.852 241.774V231.305H240.227V238.219H260.617V241.774H235.852ZM240.031 215.172C239.992 217.516 243.156 218.883 248 218.883C252.883 218.883 256.027 217.516 256.008 215.172C256.027 212.75 252.883 211.383 248 211.383C243.156 211.383 239.992 212.75 240.031 215.172ZM276.32 209.156C279.172 209.137 281.652 210.192 283.312 211.969H291.75V207.164H296.086V227.945H291.75V223.453H283.293C281.613 225.192 279.152 226.246 276.32 226.227C270.988 226.246 266.984 222.672 266.984 217.711C266.984 212.711 270.988 209.137 276.32 209.156ZM271.125 217.711C271.125 220.602 273.293 222.555 276.32 222.555C279.25 222.555 281.418 220.602 281.438 217.711C281.418 214.723 279.25 212.867 276.32 212.867C273.293 212.867 271.125 214.723 271.125 217.711ZM272.141 235.563C272.102 231.207 276.73 228.668 284.133 228.688C291.555 228.668 296.184 231.207 296.203 235.563C296.184 239.899 291.555 242.438 284.133 242.438C276.73 242.438 272.102 239.899 272.141 235.563ZM276.398 235.563C276.359 237.809 279.23 239.02 284.133 239.039C289.133 239.02 291.945 237.809 291.945 235.563C291.945 233.258 289.133 232.027 284.133 232.008C279.23 232.027 276.359 233.258 276.398 235.563ZM285.266 215.445C285.461 216.168 285.578 216.91 285.578 217.711C285.578 218.492 285.461 219.234 285.285 219.938H291.75V215.445H285.266ZM313.703 215.641C313.664 221.949 316.828 228.317 322.297 230.953L319.641 234.43C315.812 232.496 313.059 228.766 311.555 224.274C310.012 229.078 307.121 233.063 303.078 235.094L300.422 231.617C306.105 228.922 309.348 222.164 309.367 215.641V210.016H313.703V215.641ZM324.406 242.477V207.164H328.742V220.992H334.172V224.703H328.742V242.477H324.406ZM367.883 227.164V230.68H353.82V242.438H349.523V230.68H335.617V227.164H367.883ZM339.562 223.024V208.961H363.938V223.024H339.562ZM343.82 219.625H359.602V212.438H343.82V219.625ZM398.547 208.766V211.461C398.566 214.078 398.566 217.125 397.785 221.07H402.492V224.586H388.469V230.094H398.625V242.477H394.289V233.57H373.508V230.094H384.133V224.586H370.227V221.07H393.43C394.133 217.438 394.211 214.684 394.211 212.242H374.211V208.766H398.547ZM434.172 207.164V242.516H429.797V207.164H434.172ZM405.93 222.203C405.91 214.586 409.797 209.742 415.148 209.742C420.441 209.742 424.348 214.586 424.367 222.203C424.348 229.879 420.441 234.703 415.148 234.703C409.797 234.703 405.91 229.879 405.93 222.203ZM410.109 222.203C410.109 227.633 412.16 230.777 415.148 230.797C418.117 230.777 420.148 227.633 420.148 222.203C420.148 216.813 418.117 213.649 415.148 213.649C412.16 213.649 410.109 216.813 410.109 222.203ZM97.5703 271.297C97.5703 275.652 100.578 280.008 106.203 281.766L103.977 285.125C99.9727 283.836 97.0625 281.18 95.4414 277.82C93.8594 281.473 90.8516 284.383 86.6719 285.789L84.4453 282.43C90.1289 280.516 93.1562 275.926 93.1953 271.297V270.867H85.5781V267.391H104.992V270.867H97.5703V271.297ZM89.4844 291.609V288.094H113.586V300.477H109.211V291.609H89.4844ZM109.211 286.453V265.164H113.586V286.453H109.211ZM148.312 265.164V284.422H143.977V276.883H137.883V273.289H143.977V265.164H148.312ZM118.664 281.609C124.25 279.734 127.258 275.164 127.297 270.516H119.953V266.961H139.016V270.516H131.711C131.75 274.754 134.602 279.129 140.031 280.945L137.844 284.305C133.898 282.957 131.105 280.281 129.562 276.961C128.02 280.652 125.09 283.621 120.891 285.047L118.664 281.609ZM125.031 300.047V285.906H129.367V289.578H143.977V285.906H148.312V300.047H125.031ZM129.367 296.531H143.977V292.977H129.367V296.531ZM194.992 286.375V289.93H181.008V300.516H176.711V289.93H162.805V286.375H194.992ZM164.562 280.789C171.613 279.93 176.242 276.317 176.672 272.781H165.773V269.344H176.711V265.203H181.008V269.344H191.984V272.781H181.086C181.496 276.277 186.105 279.93 193.156 280.789L191.555 284.227C185.715 283.484 181.184 280.926 178.898 277.527C176.594 280.965 172.004 283.484 166.125 284.227L164.562 280.789ZM210.07 273.524C210.051 277.723 213 281.805 218.586 283.524L216.477 286.922C212.473 285.731 209.562 283.172 207.961 279.93C206.398 283.426 203.488 286.18 199.367 287.508L197.258 284.109C202.824 282.371 205.734 278.055 205.734 273.524V272.977H198.352V269.539H205.734V265.399H210.109V269.539H217.453V272.977H210.07V273.524ZM203.781 299.774V289.149H208.117V296.258H227.844V299.774H203.781ZM216.281 279.188V275.711H222.609V265.203H226.945V291.414H222.609V279.188H216.281ZM259.602 265.164V279.227H265.031V282.82H259.602V300.477H255.305V265.164H259.602ZM231.75 274.07V270.594H240.109V265.672H244.445V270.594H252.57V274.07H231.75ZM233.391 284.695C233.352 279.813 237.141 276.356 242.297 276.375C247.375 276.356 251.145 279.813 251.164 284.695C251.145 289.559 247.375 292.977 242.297 292.977C237.141 292.977 233.352 289.559 233.391 284.695ZM237.531 284.695C237.512 287.567 239.523 289.402 242.297 289.383C245.012 289.402 246.984 287.567 247.023 284.695C246.984 281.824 245.012 279.93 242.297 279.93C239.523 279.93 237.512 281.824 237.531 284.695ZM295.109 275.164V278.602H270.656V266.453H274.953V275.164H295.109ZM266.477 286.141V282.703H298.742V286.141H266.477ZM270.344 299.656V289.266H274.68V296.141H295.344V299.656H270.344ZM115.031 322.891V358.75H109.719V341.016H106.828V357.031H101.711V323.438H106.828V336.563H109.719V322.891H115.031ZM84.8359 350.859V326.992H98.1953V331.484H90.5V346.152C93.5859 346.113 96.4961 345.918 99.7578 345.352L100.148 349.883C95.7539 350.723 91.8867 350.84 87.4141 350.859H84.8359ZM130.07 324.961C135.773 324.981 140.07 328.672 140.109 333.867C140.07 338.184 137.121 341.445 132.883 342.461V346.895C135.734 346.719 138.605 346.465 141.32 346.094L141.75 350.156C133.898 351.641 125.5 351.719 119.289 351.719L118.664 347.227C121.203 347.227 124.152 347.207 127.258 347.129V342.442C123.039 341.445 120.031 338.184 120.031 333.867C120.031 328.672 124.426 324.981 130.07 324.961ZM125.617 333.867C125.617 336.465 127.551 337.988 130.07 337.969C132.648 337.988 134.602 336.465 134.641 333.867C134.602 331.172 132.629 329.766 130.07 329.766C127.551 329.766 125.617 331.172 125.617 333.867ZM143.234 358.828V322.891H148.82V358.828H143.234ZM181.945 322.891V331.133H186.281V335.82H181.945V343.984H176.32V322.891H181.945ZM152.609 339.961C155.148 339.961 158.02 339.961 161.008 339.883V338.496C157.18 338.008 154.836 336.387 154.836 333.867C154.836 330.977 158.332 329.258 163.742 329.258C169.152 329.258 172.648 330.977 172.648 333.867C172.648 336.367 170.344 337.969 166.594 338.496V339.688C169.387 339.551 172.199 339.317 174.836 338.984L175.227 342.422C167.629 343.711 159.406 343.75 153.195 343.75L152.609 339.961ZM153.547 328.711V325H161.008V322.617H166.594V325H173.977V328.711H153.547ZM157.375 348.828V345.156H181.945V353.438H163.039V354.844H183.078V358.555H157.414V350.078H176.32V348.828H157.375ZM160.227 333.867C160.207 334.785 161.457 335.176 163.742 335.195C166.027 335.176 167.258 334.785 167.258 333.867C167.258 333.027 166.027 332.715 163.742 332.695C161.457 332.715 160.207 333.027 160.227 333.867ZM220.422 339.57V343.984H187.648V339.57H201.281V336.875H191.555V324.453H216.555V328.828H197.18V332.461H216.711V336.875H206.828V339.57H220.422ZM191.32 352.188C191.32 347.891 196.066 345.508 203.938 345.508C211.73 345.508 216.438 347.891 216.438 352.188C216.438 356.387 211.73 358.809 203.938 358.828C196.066 358.809 191.32 356.387 191.32 352.188ZM197.062 352.188C197.023 353.848 199.23 354.551 203.938 354.531C208.527 354.551 210.793 353.848 210.812 352.188C210.793 350.547 208.527 349.766 203.938 349.766C199.23 349.766 197.023 350.547 197.062 352.188ZM245.266 325.391L236.164 359.258H230.539L239.641 325.391H245.266ZM271.594 345.117C279.465 345.117 284.406 347.617 284.445 351.953C284.406 356.231 279.465 358.789 271.594 358.75C263.781 358.789 258.742 356.231 258.742 351.953C258.742 347.617 263.781 345.117 271.594 345.117ZM255.578 343.203V338.672H267.336V332.578H272.883V338.672H288.078V343.203H255.578ZM259.172 328.828V324.453H284.289V327.344C284.309 330.156 284.309 333.281 283.273 336.953L277.727 336.445C278.488 333.418 278.625 331.113 278.645 328.828H259.172ZM264.367 351.953C264.348 353.731 266.906 354.512 271.594 354.531C276.262 354.512 278.859 353.731 278.859 351.953C278.859 350.156 276.262 349.277 271.594 349.297C266.906 349.277 264.348 350.156 264.367 351.953ZM322.805 350.117V354.688H290.031V350.117H303.586V343.203H293.391V325.43H319.289V343.203H309.133V350.117H322.805ZM298.938 338.828H313.703V329.922H298.938V338.828ZM354.953 322.93V349.063H349.367V336.524H343.977V331.992H349.367V322.93H354.953ZM324.289 340.703C330.402 338.848 332.707 334.199 332.727 329.766V329.688H325.852V325.195H345.305V329.688H338.469V329.805C338.469 333.848 340.695 338.262 346.516 340.117L343.781 344.57C339.855 343.32 337.219 340.859 335.676 337.774C334.094 341.192 331.34 343.906 327.18 345.234L324.289 340.703ZM330.93 358.164V346.797H336.555V353.672H355.773V358.164H330.93Z" fill="#222222"/>
<path d="M760.021 459.27C851.446 459.27 925.56 433.065 925.56 400.74C925.56 368.415 851.446 342.21 760.021 342.21C668.595 342.21 594.48 368.415 594.48 400.74C594.48 433.065 668.595 459.27 760.021 459.27Z" fill="#D8D5C5"/>
<path d="M757.02 374.1C843 374.1 912.7 308.129 912.7 226.75C912.7 145.371 843 79.4 757.02 79.4C671.04 79.4 601.34 145.371 601.34 226.75C601.34 308.129 671.04 374.1 757.02 374.1Z" fill="#E24444"/>
<path d="M793.77 133.85L775.45 138.38C773.95 138.75 773.06 140.29 773.49 141.77L778.25 158.22C779 160.8 775.95 162.79 773.89 161.06L758.78 148.37C757.77 147.52 756.29 147.52 755.28 148.37L740.17 161.06C738.11 162.79 735.06 160.8 735.81 158.22L740.57 141.77C741 140.29 740.11 138.75 738.61 138.38L720.29 133.85C717.54 133.17 717.54 129.25 720.29 128.57L738.61 124.04C740.11 123.67 741 122.13 740.57 120.65L735.81 104.2C735.06 101.62 738.11 99.6301 740.17 101.36L755.28 114.05C756.29 114.9 757.77 114.9 758.78 114.05L773.89 101.36C775.95 99.6301 779 101.62 778.25 104.2L773.49 120.65C773.06 122.13 773.95 123.67 775.45 124.04L793.77 128.57C796.52 129.25 796.52 133.17 793.77 133.85Z" fill="#4A734E"/>
<path d="M706.38 195.58C700.06 200.64 698.3 207.64 696.22 216.4C694.2 224.94 692.59 231.71 694.19 240.68C695.13 245.97 696.41 253.11 701.95 258.92C711.32 268.74 730.1 271.9 740.38 262.97C746.17 257.94 749.37 250.44 750.48 242.85C751.6 235.27 750.8 227.54 749.71 219.95C747.83 206.86 744.96 196.86 736.23 192.07C725.98 186.46 713.12 191.78 712.24 192.16C710.91 192.73 708.75 193.68 706.38 195.57V195.58Z" fill="#F5F1DE"/>
<path d="M720.6 208.96C715.25 210.78 712.68 215.5 712.36 216.11C710.96 218.76 710.77 221.64 711.09 227.37C711.28 230.79 711.67 234.19 712.25 237.57C712.68 240.02 713.23 242.5 714.47 244.66C716.43 248.07 720.12 250.43 724.05 250.76C727.97 251.09 732.01 249.39 734.51 246.35C736.89 243.47 737.81 239.68 738.55 236.02C739.6 230.83 740.42 225.46 739.47 220.25C738.81 216.66 737.55 212.18 733.56 209.77C729.03 207.03 722.99 208.34 722 208.57C721.66 208.65 721.2 208.76 720.6 208.96Z" fill="#222222"/>
<path d="M807.66 195.58C813.98 200.64 815.74 207.64 817.82 216.4C819.84 224.94 821.45 231.71 819.85 240.68C818.91 245.97 817.63 253.11 812.09 258.92C802.72 268.74 783.94 271.9 773.66 262.97C767.87 257.94 764.67 250.44 763.56 242.85C762.44 235.27 763.24 227.54 764.33 219.95C766.21 206.86 769.08 196.86 777.81 192.07C788.06 186.46 800.92 191.78 801.8 192.16C803.13 192.73 805.29 193.68 807.66 195.57V195.58Z" fill="#F5F1DE"/>
<path d="M793.45 208.96C798.8 210.78 801.37 215.5 801.69 216.11C803.09 218.76 803.28 221.64 802.96 227.37C802.77 230.79 802.38 234.19 801.8 237.57C801.37 240.02 800.82 242.5 799.58 244.66C797.62 248.07 793.93 250.43 790 250.76C786.08 251.09 782.04 249.39 779.54 246.35C777.16 243.47 776.24 239.68 775.5 236.02C774.45 230.83 773.63 225.46 774.58 220.25C775.24 216.66 776.5 212.18 780.49 209.77C785.02 207.03 791.06 208.34 792.05 208.57C792.39 208.65 792.85 208.76 793.45 208.96Z" fill="#222222"/>
<path d="M597.23 238.22C594.66 240.19 556.44 270.1 564 294.39C565.85 300.32 571.38 308.99 578.03 309.17C584.88 309.35 589.79 300.62 594.84 293.63C602.17 283.5 614.48 270.7 636.31 259.47C636.28 259.36 635.73 257.66 633.95 257.17C632.28 256.72 630.99 257.73 630.87 257.83" fill="#963030"/>
<path d="M612.6 216.95C606.77 220.89 550.15 259.94 558.95 289.81C560.92 296.49 567.4 306.94 575.27 307.3C582.98 307.66 588.36 298.17 595.19 289.62C603.39 279.36 617 266.31 640.48 255.31" fill="#E24444"/>
<path d="M913.03 252.78C915.6 250.81 953.82 220.9 946.26 196.61C944.41 190.68 938.88 182.01 932.23 181.83C925.38 181.65 920.47 190.38 915.42 197.37C908.09 207.5 895.78 220.3 873.95 231.53C873.98 231.64 874.53 233.34 876.31 233.83C877.98 234.28 879.27 233.27 879.39 233.17" fill="#963030"/>
<path d="M897.67 274.05C903.5 270.11 960.12 231.06 951.32 201.19C949.35 194.51 942.87 184.06 935 183.7C927.29 183.34 921.91 192.83 915.08 201.38C906.88 211.64 893.27 224.69 869.79 235.69" fill="#E24444"/>
<path d="M698.45 331.86C694.06 347.67 689.68 363.47 685.29 379.28C684.17 379.25 670.42 379.16 663.5 389.84C662.43 391.49 659.05 396.71 660.19 402.65C663 417.21 689.55 421.45 698.44 422.88C708.46 424.48 714.52 425.46 719.93 421.91C727.38 417.03 728.53 407.02 729.7 395.41C732.23 370.31 734.01 351.31 735.22 337.9" fill="#E24444"/>
<path d="M815.6 331.86C819.99 347.67 824.37 363.47 828.76 379.28C829.88 379.25 843.63 379.16 850.55 389.84C851.62 391.49 855 396.71 853.86 402.65C851.05 417.21 824.5 421.45 815.61 422.88C805.59 424.48 799.53 425.46 794.12 421.91C786.67 417.03 785.52 407.02 784.35 395.41C781.82 370.31 780.04 351.31 778.83 337.9" fill="#E24444"/>
<path d="M585.18 100.78L588.67 107.47C589.2 108.46 590.17 109.16 591.29 109.32L598.66 110.33C602.6 110.87 604.13 115.73 601.21 118.43L596.16 123.09C595.29 123.9 594.88 125.09 595.1 126.26L596.33 133.09C597.02 136.89 593.06 139.86 589.58 138.12L582.54 134.63C581.56 134.15 580.41 134.15 579.42 134.63L572.38 138.12C568.91 139.84 564.95 136.89 565.63 133.09L566.86 126.26C567.08 125.1 566.67 123.9 565.8 123.09L560.75 118.43C557.84 115.74 559.36 110.87 563.3 110.33L570.67 109.32C571.79 109.16 572.77 108.48 573.29 107.47L576.78 100.78C578.56 97.4101 583.4 97.4101 585.16 100.78H585.18Z" fill="#F5D45D"/>
<path d="M956.4 293.31L959.89 300C960.42 300.99 961.39 301.69 962.51 301.85L969.88 302.86C973.82 303.4 975.35 308.26 972.43 310.96L967.38 315.62C966.51 316.43 966.1 317.62 966.32 318.79L967.55 325.62C968.24 329.42 964.28 332.39 960.8 330.65L953.76 327.16C952.78 326.68 951.63 326.68 950.64 327.16L943.6 330.65C940.13 332.37 936.17 329.42 936.85 325.62L938.08 318.79C938.3 317.63 937.89 316.43 937.02 315.62L931.97 310.96C929.06 308.27 930.58 303.4 934.52 302.86L941.89 301.85C943.01 301.69 943.99 301.01 944.51 300L948 293.31C949.78 289.94 954.62 289.94 956.38 293.31H956.4Z" fill="#F5D45D"/>
<path d="M929.31 139.06L940.99 180.3L869.51 200.41L884.03 174.06L857.83 159.17L929.31 139.06Z" fill="#F2AD48"/>
<path d="M994.02 175.68L952.69 186.91L972.3 258.57L987.38 232.54L1013.63 247.34L994.02 175.68Z" fill="#F2AD48"/>
<path d="M1011.74 70.7902C1012.72 70.5302 1013.73 71.1002 1014.02 72.0802L1020.33 93.8702C1020.51 94.5002 1021.01 94.9902 1021.64 95.1602L1043.54 101.08C1044.52 101.35 1045.11 102.35 1044.87 103.33L1039.44 125.32C1039.28 125.96 1039.47 126.63 1039.93 127.09L1055.95 143.15C1056.67 143.87 1056.68 145.04 1055.97 145.77L1040.27 162.08C1039.82 162.55 1039.64 163.23 1039.81 163.86L1045.67 185.76C1045.93 186.74 1045.36 187.76 1044.38 188.04L1022.61 194.3C1021.98 194.48 1021.49 194.98 1021.32 195.61L1015.44 217.48C1015.18 218.46 1014.17 219.05 1013.19 218.81L991.18 213.34C990.55 213.18 989.87 213.37 989.41 213.83L973.37 229.82C972.65 230.54 971.49 230.55 970.76 229.84L954.41 214.1C953.94 213.65 953.27 213.47 952.63 213.64L930.72 219.46C929.74 219.72 928.73 219.15 928.44 218.17L922.13 196.38C921.95 195.75 921.45 195.26 920.82 195.09L898.92 189.17C897.94 188.9 897.35 187.9 897.59 186.92L903.02 164.93C903.18 164.29 902.99 163.62 902.53 163.16L886.51 147.1C885.79 146.38 885.78 145.21 886.49 144.48L902.19 128.17C902.64 127.7 902.82 127.02 902.65 126.39L896.79 104.49C896.53 103.51 897.1 102.49 898.08 102.21L919.85 95.9502C920.48 95.7702 920.97 95.2702 921.14 94.6402L927.02 72.7702C927.28 71.7902 928.29 71.2002 929.27 71.4402L951.28 76.9102C951.91 77.0702 952.59 76.8802 953.05 76.4202L969.09 60.4302C969.81 59.7102 970.97 59.7002 971.7 60.4102L988.05 76.1502C988.52 76.6002 989.19 76.7802 989.83 76.6102L1011.74 70.7902Z" fill="#4A734E"/>
<path d="M1004.48 83.0202C1005.46 82.7602 1006.47 83.3302 1006.76 84.3102L1011.89 102.03C1012.07 102.66 1012.57 103.15 1013.2 103.32L1031.02 108.13C1032 108.4 1032.59 109.4 1032.35 110.38L1027.93 128.27C1027.77 128.91 1027.96 129.58 1028.42 130.04L1041.46 143.11C1042.18 143.83 1042.19 145 1041.48 145.73L1028.71 159C1028.26 159.47 1028.08 160.15 1028.25 160.78L1033.01 178.59C1033.27 179.57 1032.7 180.59 1031.72 180.87L1014.01 185.96C1013.38 186.14 1012.89 186.64 1012.72 187.27L1007.94 205.06C1007.68 206.04 1006.67 206.63 1005.69 206.39L987.78 201.94C987.14 201.78 986.47 201.97 986.01 202.43L972.96 215.44C972.24 216.16 971.08 216.17 970.35 215.46L957.05 202.66C956.58 202.21 955.91 202.03 955.27 202.2L937.45 206.93C936.47 207.19 935.46 206.62 935.17 205.64L930.04 187.92C929.86 187.29 929.36 186.8 928.73 186.63L910.91 181.82C909.93 181.55 909.34 180.55 909.58 179.57L914 161.68C914.16 161.04 913.97 160.37 913.51 159.91L900.47 146.84C899.75 146.12 899.74 144.95 900.45 144.22L913.22 130.95C913.67 130.48 913.85 129.8 913.68 129.17L908.92 111.36C908.66 110.38 909.23 109.36 910.21 109.08L927.92 103.99C928.55 103.81 929.04 103.31 929.21 102.68L933.99 84.8902C934.25 83.9102 935.26 83.3202 936.24 83.5602L954.15 88.0102C954.78 88.1702 955.46 87.9802 955.92 87.5202L968.97 74.5102C969.69 73.7902 970.85 73.7802 971.58 74.4902L984.88 87.2902C985.35 87.7402 986.02 87.9202 986.66 87.7502L1004.48 83.0202Z" fill="#F5F1DE"/>
<path d="M949.46 180.78C971.21 193.09 998.21 186.49 1009.77 166.03C1021.33 145.58 1013.07 119.02 991.32 106.71C969.57 94.4002 942.57 101 931.01 121.46C919.45 141.91 927.71 168.47 949.46 180.78Z" fill="#E24444"/>
<path d="M992.1 125.54L986.91 124.12C986.48 124 986.04 124.27 985.94 124.71L984.75 129.57C984.57 130.33 983.52 130.41 983.26 129.68L981.34 124.33C981.21 123.97 980.84 123.76 980.47 123.84L974.89 124.95C974.13 125.1 973.66 124.16 974.22 123.61L977.77 120.09C978.09 119.78 978.09 119.26 977.77 118.95L973.88 115.23C973.3 114.67 973.86 113.67 974.64 113.88L979.83 115.3C980.26 115.42 980.7 115.15 980.8 114.71L981.99 109.85C982.17 109.09 983.22 109.01 983.48 109.74L985.4 115.09C985.53 115.45 985.9 115.66 986.27 115.58L991.85 114.47C992.61 114.32 993.08 115.26 992.52 115.81L988.97 119.33C988.65 119.64 988.65 120.16 988.97 120.47L992.86 124.19C993.44 124.75 992.88 125.75 992.1 125.54Z" fill="#4A734E"/>
<path d="M961.74 128.21C959.4 128.6 957.94 130.13 956.14 132.07C954.39 133.96 953 135.46 952.11 137.99C951.59 139.48 950.88 141.49 951.46 143.77C952.43 147.64 956.76 151.15 960.66 150.34C962.86 149.89 964.76 148.43 966.14 146.66C967.52 144.89 968.43 142.79 969.25 140.7C970.66 137.08 971.37 134.11 969.84 131.64C968.04 128.73 964 128.23 963.71 128.21C963.29 128.17 962.6 128.09 961.72 128.24V128.22L961.74 128.21Z" fill="#F5F1DE"/>
<path d="M963.64 133.58C962.02 133.28 960.69 134.13 960.52 134.24C959.78 134.72 959.32 135.43 958.56 136.95C958.11 137.85 957.72 138.78 957.37 139.74C957.12 140.43 956.9 141.14 956.9 141.88C956.9 143.04 957.5 144.17 958.44 144.82C959.38 145.47 960.65 145.61 961.73 145.18C962.75 144.78 963.53 143.94 964.25 143.11C965.27 141.92 966.26 140.67 966.77 139.2C967.13 138.18 967.45 136.86 966.8 135.66C966.05 134.31 964.34 133.78 964.05 133.7C963.95 133.67 963.83 133.63 963.64 133.6V133.58Z" fill="#222222"/>
<path d="M987.24 142.64C988.11 144.85 987.56 146.89 986.82 149.43C986.1 151.9 985.53 153.87 983.83 155.93C982.82 157.14 981.47 158.79 979.21 159.47C975.4 160.63 970.16 158.73 968.84 154.96C968.09 152.84 968.36 150.46 969.17 148.36C969.98 146.26 971.3 144.4 972.67 142.62C975.04 139.55 977.22 137.4 980.13 137.44C983.55 137.48 986.06 140.69 986.23 140.93C986.49 141.27 986.9 141.82 987.23 142.65H987.25L987.24 142.64Z" fill="#F5F1DE"/>
<path d="M981.97 143.95C982.89 145.09 982.77 146.62 982.75 146.82C982.68 147.67 982.3 148.43 981.4 149.87C980.86 150.73 980.28 151.55 979.66 152.35C979.21 152.93 978.73 153.5 978.14 153.89C977.21 154.52 976.05 154.66 975.14 154.26C974.22 153.86 973.58 152.91 973.47 151.81C973.36 150.77 973.71 149.68 974.07 148.65C974.59 147.18 975.18 145.7 976.15 144.49C976.82 143.65 977.74 142.66 978.98 142.54C980.38 142.4 981.53 143.49 981.71 143.68C981.78 143.74 981.86 143.82 981.97 143.95Z" fill="#222222"/>
<path d="M626.77 94.49C630.73 94.49 633.94 91.2799 633.94 87.32C633.94 83.3601 630.73 80.15 626.77 80.15C622.81 80.15 619.6 83.3601 619.6 87.32C619.6 91.2799 622.81 94.49 626.77 94.49Z" fill="#F5D45D"/>
<path d="M908.99 341.33C912.95 341.33 916.16 338.12 916.16 334.16C916.16 330.2 912.95 326.99 908.99 326.99C905.03 326.99 901.82 330.2 901.82 334.16C901.82 338.12 905.03 341.33 908.99 341.33Z" fill="#F5D45D"/>
</svg>
