<svg width="175" height="268" viewBox="0 0 175 268" fill="none" xmlns="http://www.w3.org/2000/svg">
<g opacity="0.2">
<path d="M86.6334 215.945C134.48 244.634 195.28 231.179 222.434 185.892C249.589 140.605 232.815 80.6357 184.969 51.9465C137.123 23.2573 76.3228 36.7124 49.1681 81.9993C22.0135 127.286 38.7873 187.256 86.6334 215.945Z" fill="#F2AD48"/>
<path d="M161.194 78.8885L149.502 75.2997C148.537 75.0064 147.527 75.5672 147.283 76.5358L144.445 87.2786C144.007 88.9604 141.647 89.0488 141.074 87.4092L136.895 75.3109C136.609 74.4911 135.789 73.9995 134.95 74.1446L122.31 76.1578C120.594 76.4252 119.56 74.3015 120.837 73.1228L128.976 65.5588C129.716 64.8875 129.735 63.7321 129.021 63.0192L120.347 54.396C119.051 53.0999 120.354 50.926 122.108 51.4593L133.801 55.0481C134.766 55.3414 135.776 54.7806 136.02 53.812L138.858 43.0692C139.296 41.3874 141.656 41.299 142.229 42.9386L146.407 55.0369C146.694 55.8566 147.514 56.3483 148.353 56.2032L160.993 54.19C162.709 53.9226 163.743 56.0463 162.466 57.2249L154.327 64.7889C153.587 65.4603 153.568 66.6157 154.282 67.3286L162.955 75.9518C164.252 77.2479 162.949 79.4218 161.194 78.8885Z" fill="#4A734E"/>
<path d="M82.3742 93.4942C77.7573 100.417 74.6289 105.085 72.6588 111.48C70.4545 118.541 69.5291 122.919 71.2459 128.379C73.0262 134.052 78.3319 139.197 84.3644 139.517C88.0358 139.705 91.4274 138.164 94.5144 136.491C99.5888 133.744 104.526 130.312 107 125.225C109.113 120.879 109.21 115.778 109.291 110.842C109.357 105.243 109.277 99.2045 105.71 94.4983C101.682 89.1886 95.0807 88.6284 94.6692 88.583C94.3605 88.549 87.2247 87.92 83.2592 92.3384C82.8364 92.8148 82.5609 93.2286 82.3742 93.4942Z" fill="#F5F1DE"/>
<path d="M118.839 115.357C114.244 122.293 111.13 126.97 109.074 133.314C106.777 140.318 105.773 144.65 107.261 149.972C108.803 155.503 113.723 160.416 119.469 160.564C122.967 160.648 126.245 159.039 129.236 157.309C134.153 154.468 138.958 150.956 141.458 145.885C143.593 141.552 143.827 136.533 144.04 131.676C144.258 126.169 144.347 120.232 141.074 115.701C137.378 110.591 131.095 110.222 130.704 110.188C130.411 110.163 123.62 109.741 119.715 114.196C119.299 114.676 119.024 115.091 118.839 115.357Z" fill="#F5F1DE"/>
<path d="M120.676 121.993C117.47 122.255 115.452 125.256 114.523 126.624C112.709 129.331 112.26 131.896 111.872 133.951C111.124 138.105 111.172 142.657 113.347 146.431C113.959 147.5 114.78 148.538 115.933 149.021C116.994 149.476 118.211 149.399 119.342 149.194C123.834 148.377 127.855 145.667 130.169 141.854C132.462 138.03 133.03 133.223 131.645 128.857C131.057 127.022 130.281 124.503 128.012 123.246C125.954 122.091 122.717 121.995 121.621 121.962C121.134 121.956 120.896 121.943 120.667 121.962L120.676 121.993Z" fill="#222222"/>
<path d="M84.1964 100.116C80.9901 100.378 78.9724 103.38 78.0437 104.747C76.2294 107.454 75.7807 110.019 75.3925 112.074C74.6448 116.228 74.6925 120.78 76.8677 124.554C77.4794 125.623 78.3 126.661 79.4532 127.144C80.5148 127.599 81.7315 127.523 82.8624 127.317C87.3544 126.5 91.3758 123.79 93.6891 119.977C95.9823 116.153 96.5503 111.346 95.1657 106.98C94.5775 105.145 93.8011 102.626 91.5321 101.369C89.4749 100.214 86.2374 100.118 85.1411 100.085C84.6545 100.079 84.4169 100.067 84.1879 100.085L84.1964 100.116Z" fill="#222222"/>
</g>
</svg>
