<svg width="212" height="599" viewBox="0 0 212 599" fill="none" xmlns="http://www.w3.org/2000/svg">
<g opacity="0.2">
<path d="M-32.5 598.858C102.534 598.858 212 495.247 212 367.436C212 239.625 102.534 136.014 -32.5 136.014C-167.534 136.014 -277 239.625 -277 367.436C-277 495.247 -167.534 598.858 -32.5 598.858Z" fill="#629665"/>
<path d="M-16.6752 221.536L12.0644 228.64C14.4324 229.232 15.8317 231.654 15.1321 233.968L7.65117 259.801C6.46715 263.838 11.2568 266.959 14.486 264.268L38.2204 244.355C39.8349 243.01 42.1493 243.01 43.71 244.355L67.4441 264.268C70.6732 266.959 75.4632 263.838 74.2792 259.801L66.7983 233.968C66.0986 231.654 67.498 229.232 69.866 228.64L98.6052 221.536C102.911 220.46 102.911 214.324 98.6052 213.248L69.866 206.144C67.498 205.552 66.0986 203.13 66.7983 200.816L74.2792 174.982C75.4632 170.946 70.6732 167.825 67.4441 170.515L43.71 190.429C42.0954 191.774 39.7811 191.774 38.2204 190.429L14.486 170.515C11.2568 167.825 6.46715 170.946 7.65117 174.982L15.1321 200.816C15.8317 203.13 14.4324 205.552 12.0644 206.144L-16.6752 213.248C-20.9807 214.324 -20.9807 220.46 -16.6752 221.536Z" fill="#4A734E"/>
<path d="M171.017 349.295C171.925 370.326 172.565 384.529 168.936 400.972C164.987 419.163 161.679 429.87 151.967 439.484C141.881 449.481 125.552 453.742 113.438 446.585C106.074 442.215 101.272 434.458 97.2162 426.811C90.5458 414.246 84.9428 400.371 86.0635 386.113C87.024 373.932 92.7872 362.733 98.3903 351.917C104.794 339.68 111.998 326.679 124.432 321.107C138.466 314.825 151.967 322.2 152.82 322.637C153.461 322.965 168.082 330.885 170.644 345.635C170.911 347.219 170.964 348.475 171.017 349.295Z" fill="#F5F1DE"/>
<path d="M154.012 336.562C159.64 341.096 160.042 349.839 160.243 353.833C160.594 361.712 158.584 367.595 157.027 372.344C153.811 381.897 148.687 391.288 140.497 396.415C138.186 397.872 135.523 399.005 132.86 398.574C130.398 398.196 128.238 396.523 126.379 394.688C118.993 387.402 114.572 376.77 114.521 365.976C114.521 355.182 118.792 344.496 126.178 337.156C129.293 334.08 133.513 329.816 139.09 330.032C144.165 330.194 150.244 334.026 152.304 335.321C153.208 335.915 153.661 336.185 154.062 336.508L154.012 336.562Z" fill="#222222"/>
<path d="M68.0535 349.295C68.9607 370.326 69.601 384.529 65.9723 400.972C62.0234 419.163 58.715 429.87 49.0029 439.484C38.9172 449.481 22.5883 453.742 10.4749 446.585C3.11078 442.215 -1.69211 434.458 -5.7477 426.811C-12.4181 414.246 -18.021 400.371 -16.9004 386.113C-15.9399 373.932 -10.1767 362.733 -4.57355 351.917C1.83002 339.68 9.03407 326.679 21.4677 321.107C35.5022 314.825 49.0031 322.2 49.8569 322.637C50.4972 322.965 65.1185 330.885 67.6799 345.635C67.9468 347.219 68.0002 348.475 68.0535 349.295Z" fill="#F5F1DE"/>
<path d="M55.985 336.562C62.3156 341.096 62.7677 349.839 62.9938 353.833C63.3895 361.712 61.1285 367.595 59.3762 372.344C55.7588 381.897 49.9935 391.288 40.7803 396.415C38.1802 397.872 35.1844 399.005 32.1887 398.574C29.419 398.196 26.9887 396.523 24.8973 394.688C16.5884 387.402 11.6141 376.77 11.5576 365.976C11.5576 355.182 16.3621 344.496 24.671 337.156C28.1754 334.08 32.9234 329.816 39.1975 330.032C44.9063 330.194 51.7456 334.026 54.0631 335.321C55.0805 335.915 55.589 336.185 56.0412 336.508L55.985 336.562Z" fill="#222222"/>
<path d="M39.1193 204.624C95.0205 197.435 134.822 148.715 128.018 95.804C121.214 42.8929 70.3809 5.82746 14.4798 13.016C-41.4214 20.2045 -81.2225 68.9249 -74.4185 121.836C-67.6145 174.747 -16.7819 211.813 39.1193 204.624Z" fill="#E24444"/>
<path d="M25.584 47.5778L37.8598 48.9888C38.8716 49.1078 39.5798 50.0359 39.4134 51.0312L37.6917 62.1238C37.4164 63.8579 39.5654 64.8951 40.7589 63.6092L49.5244 54.1021C50.1212 53.4592 51.0793 53.336 51.797 53.8099L62.6825 60.79C64.1626 61.7321 65.9794 60.1848 65.2743 58.5769L60.8021 48.2807C60.3893 47.3599 60.8397 46.2828 61.7885 45.9117L73.3077 41.4408C75.0328 40.766 74.7062 38.2261 72.8665 38.0097L60.5909 36.5986C59.579 36.4796 58.8708 35.5515 59.0372 34.5563L60.759 23.4636C61.0342 21.7296 58.8851 20.6923 57.6916 21.9782L48.9262 31.4853C48.3294 32.1283 47.3714 32.2515 46.6536 31.7775L35.768 24.7975C34.2879 23.8554 32.4713 25.4026 33.1763 27.0105L37.6485 37.3067C38.0613 38.2275 37.611 39.3046 36.6622 39.6757L25.1428 44.1466C23.4177 44.8215 23.7443 47.3614 25.584 47.5778Z" fill="#4A734E"/>
<path d="M110.086 90.4727C111.581 99.1309 112.602 104.977 111.976 111.977C111.309 119.718 110.51 124.326 107.001 128.823C103.358 133.499 96.8246 136.132 91.4289 133.814C88.1477 132.397 85.7466 129.442 83.6605 126.491C80.2303 121.645 77.1721 116.199 76.877 110.237C76.6261 105.143 78.4158 100.2 80.1596 95.4245C82.1592 90.0179 84.4494 84.2522 89.3 81.2836C94.7756 77.9358 100.757 80.2701 101.134 80.4055C101.416 80.5071 107.891 83.0078 109.737 88.9774C109.931 89.619 110.02 90.1363 110.086 90.4727Z" fill="#F5F1DE"/>
<path d="M102.367 86.1061C104.938 87.6833 105.57 91.2814 105.866 92.924C106.431 96.1673 105.912 98.7096 105.52 100.759C104.698 104.884 103.076 109.045 99.9586 111.603C99.0794 112.33 98.0374 112.941 96.912 112.904C95.8727 112.878 94.8893 112.301 94.022 111.64C90.5767 109.017 88.1802 104.851 87.5848 100.385C87.0102 95.9165 88.2093 91.2654 90.8761 87.8336C92.0019 86.3943 93.5221 84.4046 95.8423 84.197C97.9517 83.9939 100.672 85.2566 101.594 85.6831C102 85.8808 102.202 85.9684 102.385 86.0811L102.367 86.1061Z" fill="#222222"/>
<path d="M67.4621 95.9546C68.9573 104.613 69.9785 110.459 69.3516 117.459C68.6852 125.2 67.8856 129.808 64.3768 134.305C60.7337 138.981 54.2007 141.614 48.805 139.296C45.5238 137.879 43.1226 134.923 41.0365 131.973C37.6062 127.127 34.5481 121.681 34.253 115.719C34.0021 110.625 35.7918 105.682 37.5356 100.906C39.5351 95.4999 41.8253 89.7341 46.676 86.7655C52.1515 83.4177 58.1332 85.752 58.5099 85.8874C58.7925 85.989 65.2671 88.4898 67.1126 94.4593C67.3074 95.1009 67.3964 95.6182 67.4621 95.9546Z" fill="#F5F1DE"/>
<path d="M61.788 91.3253C64.65 92.865 65.3026 96.4604 65.6088 98.1017C66.1921 101.343 65.5693 103.898 65.0967 105.958C64.1077 110.105 62.2209 114.299 58.6798 116.912C57.681 117.654 56.5011 118.283 55.2379 118.263C54.0713 118.254 52.9761 117.691 52.0126 117.043C48.185 114.469 45.5598 110.332 44.9618 105.867C44.3871 101.398 45.8072 96.7189 48.8562 93.238C50.1432 91.7779 51.8818 89.7601 54.4906 89.5155C56.8626 89.2786 59.8979 90.5008 60.9262 90.9137C61.379 91.1053 61.6039 91.1899 61.8084 91.2999L61.788 91.3253Z" fill="#222222"/>
</g>
</svg>
