<svg width="168" height="271" viewBox="0 0 168 271" fill="none" xmlns="http://www.w3.org/2000/svg">
<path d="M81.441 265.97C116.498 265.97 144.917 255.937 144.917 243.561C144.917 231.185 116.498 221.152 81.441 221.152C46.3841 221.152 17.9648 231.185 17.9648 243.561C17.9648 255.937 46.3841 265.97 81.441 265.97Z" fill="#D8D5C5"/>
<path d="M80.289 233.362C113.258 233.362 139.984 208.104 139.984 176.947C139.984 145.79 113.258 120.532 80.289 120.532C47.3202 120.532 20.5938 145.79 20.5938 176.947C20.5938 208.104 47.3202 233.362 80.289 233.362Z" fill="#E24444"/>
<path d="M94.3808 141.379L87.356 143.113C86.7808 143.255 86.4395 143.845 86.6044 144.411L88.4296 150.709C88.7172 151.697 87.5477 152.459 86.7578 151.797L80.9639 146.938C80.5766 146.613 80.0091 146.613 79.6218 146.938L73.8279 151.797C73.038 152.459 71.8685 151.697 72.1561 150.709L73.9813 144.411C74.1462 143.845 73.8049 143.255 73.2297 143.113L66.2049 141.379C65.1504 141.119 65.1504 139.618 66.2049 139.357L73.2297 137.623C73.8049 137.481 74.1462 136.892 73.9813 136.325L72.1561 130.027C71.8685 129.039 73.038 128.277 73.8279 128.94L79.6218 133.798C80.0091 134.124 80.5766 134.124 80.9639 133.798L86.7578 128.94C87.5477 128.277 88.7172 129.039 88.4296 130.027L86.6044 136.325C86.4395 136.892 86.7808 137.481 87.356 137.623L94.3808 139.357C95.4352 139.618 95.4352 141.119 94.3808 141.379Z" fill="#4A734E"/>
<path d="M60.8651 165.013C58.4417 166.95 57.7669 169.63 56.9693 172.984C56.1947 176.254 55.5774 178.846 56.1909 182.28C56.5513 184.305 57.0421 187.039 59.1665 189.263C62.7594 193.023 69.9605 194.233 73.9024 190.814C76.1226 188.888 77.3496 186.017 77.7752 183.111C78.2047 180.208 77.8979 177.249 77.48 174.343C76.7591 169.331 75.6586 165.503 72.3111 163.669C68.3807 161.521 63.4496 163.558 63.1121 163.703C62.6021 163.922 61.7739 164.285 60.8651 165.009V165.013Z" fill="#F5F1DE"/>
<path d="M66.319 170.136C64.2676 170.833 63.2821 172.64 63.1594 172.873C62.6226 173.888 62.5497 174.99 62.6725 177.184C62.7453 178.494 62.8948 179.795 63.1172 181.089C63.2821 182.027 63.493 182.977 63.9685 183.804C64.72 185.109 66.135 186.013 67.6419 186.139C69.1451 186.266 70.6942 185.615 71.6528 184.451C72.5654 183.348 72.9182 181.897 73.2019 180.496C73.6046 178.509 73.919 176.453 73.5547 174.458C73.3016 173.084 72.8185 171.369 71.2885 170.446C69.5515 169.397 67.2355 169.898 66.8559 169.986C66.7255 170.017 66.5491 170.059 66.319 170.136Z" fill="#222222"/>
<path d="M99.7072 165.013C102.131 166.95 102.805 169.63 103.603 172.984C104.378 176.254 104.995 178.846 104.381 182.28C104.021 184.305 103.53 187.039 101.406 189.263C97.813 193.023 90.6118 194.233 86.67 190.814C84.4498 188.888 83.2228 186.017 82.7971 183.111C82.3677 180.208 82.6744 177.249 83.0924 174.343C83.8133 169.331 84.9138 165.503 88.2613 163.669C92.1916 161.521 97.1228 163.558 97.4602 163.703C97.9702 163.922 98.7984 164.285 99.7072 165.009V165.013Z" fill="#F5F1DE"/>
<path d="M94.2558 170.136C96.3072 170.833 97.2927 172.64 97.4154 172.873C97.9522 173.888 98.0251 174.99 97.9024 177.184C97.8295 178.494 97.6799 179.795 97.4575 181.089C97.2927 182.027 97.0818 182.977 96.6063 183.804C95.8547 185.109 94.4398 186.013 92.9328 186.139C91.4297 186.266 89.8806 185.615 88.922 184.451C88.0094 183.348 87.6566 181.897 87.3728 180.496C86.9702 178.509 86.6558 176.453 87.0201 174.458C87.2732 173.084 87.7563 171.369 89.2862 170.446C91.0233 169.397 93.3393 169.898 93.7189 169.986C93.8493 170.017 94.0257 170.059 94.2558 170.136Z" fill="#222222"/>
<path d="M19.0154 181.338C18.03 182.093 3.37455 193.544 6.27342 202.844C6.9828 205.114 9.10329 208.434 11.6532 208.503C14.2798 208.571 16.1626 205.229 18.099 202.553C20.9097 198.674 25.6299 193.774 34.0006 189.474C33.9891 189.432 33.7782 188.781 33.0957 188.594C32.4553 188.421 31.9607 188.808 31.9146 188.846" fill="#963030"/>
<path d="M24.9118 173.195C22.6762 174.704 0.965394 189.655 4.33974 201.091C5.09514 203.648 7.57989 207.649 10.5976 207.787C13.554 207.925 15.617 204.291 18.2359 201.018C21.3802 197.09 26.5989 192.093 35.6023 187.882" fill="#E24444"/>
<path d="M140.114 186.913C141.1 186.158 155.755 174.707 152.856 165.407C152.147 163.137 150.026 159.818 147.476 159.749C144.85 159.68 142.967 163.022 141.031 165.698C138.22 169.577 133.5 174.477 125.129 178.777C125.14 178.819 125.351 179.47 126.034 179.657C126.674 179.83 127.169 179.443 127.215 179.405" fill="#963030"/>
<path d="M134.222 195.056C136.457 193.548 158.168 178.597 154.794 167.161C154.038 164.603 151.554 160.602 148.536 160.464C145.58 160.327 143.517 163.96 140.898 167.233C137.753 171.162 132.535 176.158 123.531 180.369" fill="#E24444"/>
<path d="M57.8299 217.19C56.1466 223.243 54.4671 229.292 52.7837 235.345C52.3543 235.334 47.0819 235.299 44.4284 239.388C44.0181 240.02 42.7221 242.019 43.1592 244.293C44.2367 249.867 54.4172 251.491 57.8261 252.038C61.6683 252.651 63.992 253.026 66.0664 251.667C68.9231 249.798 69.3641 245.966 69.8127 241.521C70.7828 231.911 71.4654 224.637 71.9293 219.502" fill="#E24444"/>
<path d="M102.748 217.19C104.431 223.243 106.111 229.292 107.794 235.345C108.223 235.334 113.496 235.299 116.149 239.388C116.56 240.02 117.856 242.019 117.419 244.293C116.341 249.867 106.161 251.491 102.752 252.038C98.9095 252.651 96.5858 253.026 94.5114 251.667C91.6547 249.798 91.2137 245.966 90.7651 241.521C89.7949 231.911 89.1124 224.637 88.6484 219.502" fill="#E24444"/>
<path d="M14.3936 128.718L15.7318 131.279C15.9351 131.658 16.307 131.926 16.7365 131.987L19.5625 132.374C21.0733 132.581 21.66 134.441 20.5403 135.475L18.6039 137.259C18.2703 137.569 18.1131 138.025 18.1974 138.473L18.6691 141.088C18.9336 142.543 17.4152 143.68 16.0808 143.014L13.3813 141.678C13.0055 141.494 12.5646 141.494 12.1849 141.678L9.48547 143.014C8.1549 143.672 6.63644 142.543 6.89719 141.088L7.36882 138.473C7.45318 138.029 7.29597 137.569 6.96237 137.259L5.02596 135.475C3.91012 134.445 4.49296 132.581 6.00375 132.374L8.82976 131.987C9.25923 131.926 9.635 131.666 9.8344 131.279L11.1727 128.718C11.8552 127.427 13.7111 127.427 14.3859 128.718H14.3936Z" fill="#F5D45D"/>
<path d="M156.741 202.43L158.08 204.991C158.283 205.37 158.655 205.638 159.084 205.7L161.91 206.086C163.421 206.293 164.008 208.154 162.888 209.188L160.952 210.972C160.618 211.282 160.461 211.737 160.545 212.185L161.017 214.8C161.281 216.255 159.763 217.392 158.428 216.726L155.729 215.39C155.353 215.206 154.912 215.206 154.533 215.39L151.833 216.726C150.503 217.385 148.984 216.255 149.245 214.8L149.716 212.185C149.801 211.741 149.644 211.282 149.31 210.972L147.374 209.188C146.258 208.158 146.841 206.293 148.351 206.086L151.177 205.7C151.607 205.638 151.983 205.378 152.182 204.991L153.52 202.43C154.203 201.14 156.059 201.14 156.734 202.43H156.741Z" fill="#F5D45D"/>
<path d="M30.3431 126.309C31.8615 126.309 33.0924 125.08 33.0924 123.564C33.0924 122.048 31.8615 120.819 30.3431 120.819C28.8247 120.819 27.5938 122.048 27.5938 123.564C27.5938 125.08 28.8247 126.309 30.3431 126.309Z" fill="#F5D45D"/>
<path d="M138.554 220.815C140.072 220.815 141.303 219.586 141.303 218.07C141.303 216.554 140.072 215.325 138.554 215.325C137.036 215.325 135.805 216.554 135.805 218.07C135.805 219.586 137.036 220.815 138.554 220.815Z" fill="#F5D45D"/>
<path fill-rule="evenodd" clip-rule="evenodd" d="M30.3951 51.7046C27.9199 48.1482 26.4688 43.8258 26.4688 39.1645C26.4688 27.0264 36.3086 17.1865 48.4467 17.1865C51.0047 17.1865 53.4607 17.6235 55.744 18.427C58.9399 9.9945 67.0924 4 76.645 4C84.669 4 91.7052 8.22955 95.6457 14.5808C97.7382 13.8943 99.9701 13.5235 102.287 13.5235C107.055 13.5235 111.462 15.0937 115.036 17.7532C117.349 16.9122 119.841 16.4541 122.439 16.4541C133.722 16.4541 143.02 25.099 144.273 36.2294C151 39.8133 155.607 47.1277 155.607 55.5683C155.607 67.5459 146.329 77.2557 134.884 77.2557L134.781 77.2554C133.681 88.3636 124.309 97.0399 112.912 97.0399C107.777 97.0399 103.053 95.279 99.3121 92.3283C95.3706 98.6747 88.3373 102.9 80.3169 102.9C71.4896 102.9 63.8578 97.7816 60.228 90.3504C58.7169 90.5368 57.1695 90.6334 55.5943 90.6334C38.6975 90.6334 25 79.5126 25 65.7945C25 60.5624 26.9925 55.7081 30.3951 51.7046Z" fill="#ECECEC"/>
<path d="M68.1643 46.7969C68.1643 46.6769 68.1883 46.6049 68.2363 46.5569C68.2843 46.5209 68.3563 46.4969 68.4763 46.4969H77.2123C77.3203 46.4969 77.4043 46.5209 77.4523 46.5569C77.5003 46.6049 77.5243 46.6769 77.5243 46.7969V48.0689C77.5243 48.1889 77.5003 48.2729 77.4523 48.3089C77.4043 48.3569 77.3203 48.3689 77.2123 48.3689H74.6083C74.8963 48.6089 75.2563 48.8129 75.7003 48.9689C76.1323 49.1369 76.6243 49.2449 77.1883 49.2809C77.2123 49.2809 77.2363 49.2929 77.2843 49.2929C77.3203 49.3049 77.3563 49.3169 77.4043 49.3409C77.4283 49.3649 77.4643 49.4009 77.4883 49.4489C77.5123 49.4969 77.5243 49.5689 77.5243 49.6529V50.8889C77.5243 50.9849 77.5123 51.0449 77.4883 51.0929C77.4523 51.1409 77.4163 51.1769 77.3803 51.1889C77.3323 51.2129 77.2843 51.2249 77.2483 51.2249C77.2003 51.2369 77.1523 51.2369 77.1283 51.2369C76.5883 51.2249 76.0963 51.1649 75.6523 51.0569C75.1963 50.9609 74.7883 50.8409 74.4283 50.6729C74.0683 50.5289 73.7563 50.3489 73.4922 50.1449C73.2283 49.9529 73.0123 49.7609 72.8563 49.5569C72.6883 49.7609 72.4843 49.9529 72.2203 50.1449C71.9563 50.3489 71.6443 50.5289 71.2843 50.6729C70.9243 50.8409 70.5163 50.9609 70.0723 51.0569C69.6163 51.1649 69.1123 51.2249 68.5843 51.2369C68.5483 51.2369 68.5123 51.2369 68.4763 51.2249C68.4283 51.2249 68.3803 51.2129 68.3443 51.1889C68.2963 51.1769 68.2603 51.1409 68.2363 51.0929C68.2003 51.0449 68.1883 50.9849 68.1883 50.8889V49.6529C68.1883 49.5689 68.2003 49.4969 68.2243 49.4489C68.2483 49.4009 68.2723 49.3649 68.3203 49.3409C68.3443 49.3169 68.3803 49.3049 68.4283 49.2929C68.4643 49.2929 68.5003 49.2809 68.5243 49.2809C69.0763 49.2449 69.5683 49.1369 70.0123 48.9689C70.4443 48.8129 70.8163 48.6089 71.1043 48.3689H68.4763C68.3563 48.3689 68.2843 48.3569 68.2363 48.3089C68.1883 48.2729 68.1643 48.1889 68.1643 48.0689V46.7969ZM67.4803 51.9569C67.4803 51.8369 67.5043 51.7649 67.5522 51.7169C67.6003 51.6809 67.6723 51.6569 67.7923 51.6569H77.9203C78.0283 51.6569 78.1123 51.6809 78.1603 51.7169C78.2083 51.7649 78.2323 51.8369 78.2323 51.9569V53.3609C78.2323 53.4809 78.2083 53.5649 78.1603 53.6009C78.1123 53.6489 78.0283 53.6609 77.9203 53.6609H74.1283V54.9929C74.1283 55.1129 74.1043 55.1969 74.0563 55.2329C74.0083 55.2809 73.9243 55.2929 73.8163 55.2929H72.1363C72.0163 55.2929 71.9443 55.2809 71.8963 55.2329C71.8483 55.1969 71.8243 55.1129 71.8243 54.9929V53.6609H67.7923C67.6723 53.6609 67.6003 53.6489 67.5522 53.6009C67.5043 53.5649 67.4803 53.4809 67.4803 53.3609V51.9569ZM77.7163 57.3809C77.7283 57.5009 77.7163 57.5849 77.6683 57.6329C77.6083 57.6689 77.5123 57.6929 77.3923 57.7169C76.2403 57.8249 75.1003 57.8849 73.9483 57.9089C72.7963 57.9209 71.6203 57.9209 70.4323 57.8969C69.6643 57.8729 69.1123 57.6689 68.7883 57.2729C68.4523 56.8649 68.2843 56.2049 68.2843 55.3049V54.3689C68.2843 54.2489 68.3083 54.1769 68.3563 54.1289C68.4043 54.0929 68.4763 54.0689 68.5963 54.0689H70.2763C70.3843 54.0689 70.4683 54.0929 70.5163 54.1289C70.5643 54.1769 70.5883 54.2489 70.5883 54.3689V55.0769C70.5883 55.3649 70.6483 55.5809 70.7683 55.7009C70.8883 55.8209 71.1043 55.8929 71.4283 55.9049C72.4003 55.9169 73.3603 55.9169 74.3203 55.8929C75.2683 55.8689 76.2403 55.8089 77.2363 55.7249C77.3443 55.7129 77.4283 55.7249 77.4883 55.7609C77.5363 55.7969 77.5723 55.8809 77.5963 56.0249L77.7163 57.3809ZM81.3426 49.9409H83.5146V46.7969C83.5146 46.6769 83.5386 46.6049 83.5866 46.5569C83.6346 46.5209 83.7066 46.4969 83.8266 46.4969H85.3986C85.5066 46.4969 85.5906 46.5209 85.6386 46.5569C85.6866 46.6049 85.7106 46.6769 85.7106 46.7969V55.6289C85.7106 56.1329 85.6026 56.4929 85.3866 56.7209C85.1706 56.9369 84.8466 57.0569 84.4146 57.0569H80.4426C80.0106 57.0569 79.6866 56.9369 79.4706 56.7209C79.2546 56.4929 79.1466 56.1329 79.1466 55.6289V46.7969C79.1466 46.6769 79.1706 46.6049 79.2186 46.5569C79.2666 46.5209 79.3386 46.4969 79.4586 46.4969H81.0306C81.1386 46.4969 81.2226 46.5209 81.2706 46.5569C81.3186 46.6049 81.3426 46.6769 81.3426 46.7969V49.9409ZM87.3306 57.6569C87.2106 57.6569 87.1386 57.6329 87.0906 57.5969C87.0426 57.5489 87.0186 57.4769 87.0186 57.3569V46.7969C87.0186 46.6769 87.0426 46.6049 87.0906 46.5569C87.1386 46.5209 87.2106 46.4969 87.3306 46.4969H89.0106C89.1186 46.4969 89.2026 46.5209 89.2506 46.5569C89.2986 46.6049 89.3226 46.6769 89.3226 46.7969V57.3569C89.3226 57.4769 89.2986 57.5489 89.2506 57.5969C89.2026 57.6329 89.1186 57.6569 89.0106 57.6569H87.3306ZM83.5146 51.9329H81.3426V54.7889C81.3426 54.9449 81.3666 55.0409 81.4146 55.0889C81.4626 55.1489 81.5466 55.1729 81.6906 55.1729H83.1666C83.2986 55.1729 83.3946 55.1489 83.4426 55.0889C83.4906 55.0409 83.5146 54.9449 83.5146 54.7889V51.9329ZM96.2586 58.2809C94.6986 58.2809 93.5226 58.0769 92.7546 57.6809C91.9746 57.2729 91.5906 56.6849 91.5906 55.9049C91.5906 55.2329 91.8786 54.6929 92.4786 54.2969C93.0546 53.9129 93.9306 53.6849 95.1066 53.5889V53.1929H91.1946C91.0746 53.1929 91.0026 53.1809 90.9546 53.1329C90.9066 53.0969 90.8826 53.0129 90.8826 52.8929V51.4889C90.8826 51.3689 90.9066 51.2969 90.9546 51.2489C91.0026 51.2129 91.0746 51.1889 91.1946 51.1889H101.323C101.431 51.1889 101.515 51.2129 101.563 51.2489C101.611 51.2969 101.635 51.3689 101.635 51.4889V52.8929C101.635 53.0129 101.611 53.0969 101.563 53.1329C101.515 53.1809 101.431 53.1929 101.323 53.1929H97.4106V53.5889C98.5626 53.6849 99.4386 53.9129 100.039 54.2969C100.627 54.6929 100.927 55.2329 100.927 55.9049C100.927 56.6849 100.531 57.2729 99.7626 57.6809C98.9826 58.0769 97.8186 58.2809 96.2586 58.2809ZM91.5666 46.7969C91.5666 46.6769 91.5906 46.6049 91.6386 46.5569C91.6866 46.5209 91.7586 46.4969 91.8786 46.4969H100.615C100.723 46.4969 100.807 46.5209 100.855 46.5569C100.903 46.6049 100.927 46.6769 100.927 46.7969V48.0089C100.927 48.1289 100.903 48.2129 100.855 48.2489C100.807 48.2969 100.723 48.3089 100.615 48.3089H97.8546C98.1426 48.5009 98.5266 48.6329 99.0066 48.7169C99.4746 48.8129 100.015 48.8849 100.639 48.9209C100.663 48.9209 100.687 48.9329 100.735 48.9329C100.771 48.9449 100.807 48.9569 100.855 48.9809C100.879 49.0049 100.915 49.0409 100.939 49.0889C100.963 49.1369 100.975 49.2089 100.975 49.2929V50.4689C100.975 50.5649 100.963 50.6249 100.939 50.6729C100.903 50.7209 100.867 50.7569 100.831 50.7689C100.783 50.7929 100.735 50.8049 100.699 50.8049C100.651 50.8169 100.603 50.8169 100.579 50.8169C99.4626 50.7809 98.5386 50.6489 97.8066 50.4089C97.0626 50.1809 96.5346 49.8809 96.2346 49.5209C95.9226 49.8809 95.4066 50.1809 94.6746 50.4089C93.9306 50.6489 93.0066 50.7809 91.9026 50.8169C91.8666 50.8169 91.8306 50.8169 91.7946 50.8049C91.7466 50.8049 91.6986 50.7929 91.6626 50.7689C91.6146 50.7569 91.5786 50.7209 91.5546 50.6729C91.5186 50.6249 91.5066 50.5649 91.5066 50.4689V49.2929C91.5066 49.2089 91.5186 49.1369 91.5426 49.0889C91.5666 49.0409 91.5906 49.0049 91.6386 48.9809C91.6626 48.9569 91.6986 48.9449 91.7466 48.9329C91.7826 48.9329 91.8186 48.9209 91.8426 48.9209C92.4426 48.8849 92.9946 48.8129 93.4746 48.7169C93.9426 48.6329 94.3266 48.5009 94.6146 48.3089H91.8786C91.7586 48.3089 91.6866 48.2969 91.6386 48.2489C91.5906 48.2129 91.5666 48.1289 91.5666 48.0089V46.7969ZM96.2586 56.4569C96.7386 56.4569 97.1226 56.4449 97.4346 56.4329C97.7346 56.4089 97.9746 56.3729 98.1546 56.3369C98.3226 56.2889 98.4546 56.2289 98.5266 56.1569C98.5866 56.0849 98.6226 55.9889 98.6226 55.8929C98.6226 55.7969 98.5866 55.7129 98.5266 55.6409C98.4546 55.5689 98.3226 55.5089 98.1546 55.4609C97.9746 55.4249 97.7346 55.3889 97.4346 55.3649C97.1226 55.3409 96.7386 55.3289 96.2586 55.3289C95.7786 55.3289 95.3826 55.3409 95.0826 55.3649C94.7706 55.3889 94.5306 55.4249 94.3626 55.4609C94.1826 55.5089 94.0626 55.5689 94.0026 55.6409C93.9306 55.7129 93.8946 55.7969 93.8946 55.8929C93.8946 55.9889 93.9306 56.0849 94.0026 56.1569C94.0626 56.2289 94.1826 56.2889 94.3626 56.3369C94.5306 56.3729 94.7706 56.4089 95.0826 56.4329C95.3826 56.4449 95.7786 56.4569 96.2586 56.4569ZM103.149 57.8129C103.029 57.8129 102.957 57.7889 102.909 57.7529C102.861 57.7049 102.837 57.6329 102.837 57.5129V56.0009C102.837 55.8809 102.861 55.7969 102.909 55.7609C102.957 55.7249 103.029 55.7009 103.149 55.7009H104.757C104.865 55.7009 104.949 55.7249 104.997 55.7609C105.045 55.7969 105.069 55.8809 105.069 56.0009V57.5129C105.069 57.6329 105.045 57.7049 104.997 57.7529C104.949 57.7889 104.865 57.8129 104.757 57.8129H103.149ZM107.11 57.8129C106.99 57.8129 106.918 57.7889 106.87 57.7529C106.822 57.7049 106.798 57.6329 106.798 57.5129V56.0009C106.798 55.8809 106.822 55.7969 106.87 55.7609C106.918 55.7249 106.99 55.7009 107.11 55.7009H108.718C108.826 55.7009 108.91 55.7249 108.958 55.7609C109.006 55.7969 109.03 55.8809 109.03 56.0009V57.5129C109.03 57.6329 109.006 57.7049 108.958 57.7529C108.91 57.7889 108.826 57.8129 108.718 57.8129H107.11ZM111.071 57.8129C110.951 57.8129 110.879 57.7889 110.831 57.7529C110.783 57.7049 110.759 57.6329 110.759 57.5129V56.0009C110.759 55.8809 110.783 55.7969 110.831 55.7609C110.879 55.7249 110.951 55.7009 111.071 55.7009H112.679C112.787 55.7009 112.871 55.7249 112.919 55.7609C112.967 55.7969 112.991 55.8809 112.991 56.0009V57.5129C112.991 57.6329 112.967 57.7049 112.919 57.7529C112.871 57.7889 112.787 57.8129 112.679 57.8129H111.071Z" fill="#494949"/>
</svg>
