<svg width="401" height="290" viewBox="0 0 401 290" fill="none" xmlns="http://www.w3.org/2000/svg">
<rect width="401" height="290" rx="20" fill="#F5F1DE"/>
<mask id="mask0_1_1027" style="mask-type:alpha" maskUnits="userSpaceOnUse" x="0" y="0" width="401" height="290">
<rect width="401" height="290" rx="20" fill="#F5F1DE"/>
</mask>
<g mask="url(#mask0_1_1027)">
<path d="M72 222.623C125.572 222.623 169 181.518 169 130.812C169 80.1054 125.572 39 72 39C18.4284 39 -25 80.1054 -25 130.812C-25 181.518 18.4284 222.623 72 222.623Z" fill="#F2AD48"/>
<path d="M78.2772 72.9285L89.679 75.747C90.6184 75.9818 91.1736 76.9426 90.896 77.8607L87.9281 88.1095C87.4584 89.7108 89.3586 90.9492 90.6397 89.8817L100.056 81.9816C100.696 81.4478 101.614 81.4478 102.234 81.9816L111.65 89.8817C112.931 90.9492 114.831 89.7108 114.361 88.1095L111.393 77.8607C111.116 76.9426 111.671 75.9818 112.61 75.747L124.012 72.9285C125.72 72.5015 125.72 70.0674 124.012 69.6404L112.61 66.822C111.671 66.5871 111.116 65.6263 111.393 64.7082L114.361 54.4595C114.831 52.8581 112.931 51.6197 111.65 52.6873L102.234 60.5874C101.593 61.1211 100.675 61.1211 100.056 60.5874L90.6397 52.6873C89.3586 51.6197 87.4584 52.8581 87.9281 54.4595L90.896 64.7082C91.1736 65.6263 90.6184 66.5871 89.679 66.822L78.2772 69.6404C76.5691 70.0674 76.5691 72.5015 78.2772 72.9285Z" fill="#4A734E"/>
<path d="M152.737 123.608C153.097 131.952 153.351 137.587 151.911 144.11C150.345 151.327 149.032 155.574 145.179 159.389C141.178 163.355 134.7 165.045 129.894 162.206C126.972 160.472 125.067 157.395 123.458 154.361C120.812 149.376 118.589 143.872 119.034 138.215C119.415 133.382 121.701 128.939 123.924 124.648C126.464 119.794 129.322 114.636 134.255 112.425C139.823 109.933 145.179 112.859 145.518 113.032C145.772 113.162 151.573 116.305 152.589 122.156C152.695 122.785 152.716 123.283 152.737 123.608Z" fill="#F5F1DE"/>
<path d="M145.995 118.558C148.228 120.356 148.387 123.825 148.467 125.41C148.606 128.536 147.809 130.869 147.191 132.754C145.916 136.543 143.882 140.269 140.633 142.303C139.717 142.881 138.66 143.331 137.604 143.159C136.627 143.01 135.77 142.346 135.032 141.618C132.102 138.727 130.348 134.509 130.328 130.227C130.328 125.945 132.022 121.705 134.953 118.793C136.188 117.573 137.863 115.881 140.075 115.967C142.088 116.031 144.5 117.552 145.318 118.065C145.676 118.301 145.856 118.408 146.015 118.536L145.995 118.558Z" fill="#222222"/>
<path d="M111.893 123.608C112.253 131.952 112.507 137.587 111.068 144.11C109.501 151.327 108.188 155.574 104.335 159.389C100.334 163.355 93.856 165.045 89.0503 162.206C86.1288 160.472 84.2233 157.395 82.6143 154.361C79.968 149.376 77.7452 143.872 78.1898 138.215C78.5708 133.382 80.8573 128.939 83.0802 124.648C85.6206 119.794 88.4787 114.636 93.4114 112.425C98.9793 109.933 104.336 112.859 104.674 113.032C104.928 113.162 110.729 116.305 111.745 122.156C111.851 122.785 111.872 123.283 111.893 123.608Z" fill="#F5F1DE"/>
<path d="M107.102 118.558C109.614 120.356 109.793 123.825 109.883 125.41C110.04 128.536 109.143 130.869 108.448 132.754C107.012 136.543 104.725 140.269 101.07 142.303C100.038 142.881 98.85 143.331 97.6615 143.159C96.5627 143.01 95.5985 142.346 94.7688 141.618C91.4724 138.727 89.499 134.509 89.4766 130.227C89.4766 125.945 91.3826 121.705 94.679 118.793C96.0693 117.573 97.953 115.881 100.442 115.967C102.707 116.031 105.42 117.552 106.34 118.065C106.743 118.301 106.945 118.408 107.124 118.536L107.102 118.558Z" fill="#222222"/>
<path d="M244.301 364.911C311.961 364.911 366.81 312.996 366.81 248.955C366.81 184.915 311.961 133 244.301 133C176.642 133 121.793 184.915 121.793 248.955C121.793 312.996 176.642 364.911 244.301 364.911Z" fill="#629665"/>
<path d="M236.376 175.85L221.976 179.41C220.79 179.706 220.088 180.92 220.439 182.079L224.187 195.023C224.781 197.046 222.381 198.61 220.763 197.261L208.87 187.284C208.061 186.61 206.902 186.61 206.12 187.284L194.228 197.261C192.61 198.61 190.21 197.046 190.803 195.023L194.551 182.079C194.902 180.92 194.201 179.706 193.014 179.41L178.614 175.85C176.457 175.311 176.457 172.237 178.614 171.697L193.014 168.138C194.201 167.841 194.902 166.628 194.551 165.468L190.803 152.524C190.21 150.502 192.61 148.938 194.228 150.286L206.12 160.263C206.929 160.938 208.088 160.938 208.87 160.263L220.763 150.286C222.381 148.938 224.781 150.502 224.187 152.524L220.439 165.468C220.088 166.628 220.79 167.841 221.976 168.138L236.376 171.697C238.533 172.237 238.533 175.311 236.376 175.85Z" fill="#4A734E"/>
<path d="M163.27 241.858C162.772 251.897 162.421 258.677 164.413 266.525C166.58 275.208 168.396 280.319 173.728 284.908C179.264 289.68 188.227 291.714 194.877 288.298C198.919 286.212 201.555 282.509 203.782 278.859C207.443 272.862 210.519 266.239 209.904 259.433C209.377 253.618 206.213 248.273 203.137 243.11C199.622 237.269 195.668 231.063 188.842 228.403C181.139 225.405 173.727 228.925 173.259 229.134C172.907 229.29 164.881 233.071 163.475 240.111C163.329 240.867 163.299 241.467 163.27 241.858Z" fill="#F5F1DE"/>
<path d="M214.261 241.858C213.805 251.897 213.483 258.677 215.308 266.525C217.295 275.208 218.96 280.319 223.847 284.908C228.922 289.68 237.139 291.714 243.234 288.298C246.94 286.212 249.356 282.509 251.397 278.859C254.753 272.862 257.573 266.239 257.009 259.433C256.525 253.618 253.626 248.273 250.806 243.11C247.584 237.269 243.959 231.063 237.703 228.403C230.641 225.405 223.847 228.925 223.418 229.134C223.095 229.29 215.738 233.071 214.449 240.111C214.315 240.867 214.288 241.467 214.261 241.858Z" fill="#F5F1DE"/>
<path d="M221.601 246.264C218.222 248.597 217.981 253.097 217.86 255.152C217.649 259.207 218.856 262.234 219.791 264.678C221.721 269.594 224.798 274.427 229.715 277.066C231.103 277.815 232.702 278.399 234.3 278.176C235.779 277.982 237.076 277.121 238.192 276.177C242.626 272.427 245.281 266.956 245.311 261.401C245.311 255.846 242.747 250.347 238.312 246.57C236.442 244.987 233.908 242.792 230.56 242.903C227.513 242.987 223.863 244.959 222.626 245.625C222.083 245.931 221.812 246.07 221.571 246.236L221.601 246.264Z" fill="#222222"/>
<path d="M170.036 246.264C167.14 248.597 166.933 253.097 166.83 255.152C166.649 259.207 167.683 262.234 168.484 264.678C170.139 269.594 172.777 274.427 176.991 277.066C178.181 277.815 179.551 278.399 180.921 278.176C182.188 277.982 183.3 277.121 184.257 276.177C188.058 272.427 190.333 266.956 190.359 261.401C190.359 255.846 188.161 250.347 184.36 246.57C182.757 244.987 180.585 242.792 177.715 242.903C175.104 242.987 171.975 244.959 170.915 245.625C170.45 245.931 170.217 246.07 170.01 246.236L170.036 246.264Z" fill="#222222"/>
<path d="M61.047 340.344C116.854 340.344 162.094 297.734 162.094 245.172C162.094 192.61 116.854 150 61.047 150C5.24026 150 -40 192.61 -40 245.172C-40 297.734 5.24026 340.344 61.047 340.344Z" fill="#E24444"/>
<path d="M75.2349 188.804L63.585 191.768C62.625 192.015 62.0578 193.025 62.3414 193.99L65.3738 204.767C65.8538 206.451 63.9122 207.753 62.6032 206.63L52.9822 198.323C52.3277 197.762 51.3896 197.762 50.757 198.323L41.136 206.63C39.827 207.753 37.8853 206.451 38.3653 204.767L41.3977 193.99C41.6813 193.025 41.1141 192.015 40.1542 191.768L28.5043 188.804C26.759 188.355 26.759 185.796 28.5043 185.347L40.1542 182.383C41.1141 182.136 41.6813 181.126 41.3977 180.161L38.3653 169.384C37.8853 167.7 39.827 166.398 41.136 167.521L50.757 175.828C51.4114 176.389 52.3495 176.389 52.9822 175.828L62.6032 167.521C63.9122 166.398 65.8538 167.7 65.3738 169.384L62.3414 180.161C62.0578 181.126 62.625 182.136 63.585 182.383L75.2349 185.347C76.9802 185.796 76.9802 188.355 75.2349 188.804Z" fill="#4A734E"/>
<path d="M19.1564 227.457C15.0336 230.788 13.8685 235.38 12.5017 241.143C11.1797 246.748 10.1266 251.205 11.1797 257.102C11.8071 260.569 12.6361 265.273 16.266 269.077C22.4053 275.538 34.6841 277.608 41.3836 271.733C45.1703 268.425 47.2541 263.495 47.9936 258.52C48.733 253.546 48.1952 248.458 47.5006 243.484C46.2683 234.885 44.3861 228.312 38.6949 225.183C31.9953 221.492 23.5929 224.981 23.0103 225.251C22.1365 225.634 20.7248 226.241 19.1788 227.502L19.1564 227.457Z" fill="#F5F1DE"/>
<path d="M28.7453 235.816C25.2713 237.014 23.6011 240.134 23.4007 240.54C22.4876 242.281 22.3763 244.18 22.5767 247.978C22.6881 250.239 22.9553 252.477 23.3339 254.715C23.6011 256.342 23.9574 257.97 24.7814 259.394C26.0507 261.655 28.4558 263.192 30.9945 263.418C33.5332 263.644 36.161 262.514 37.7866 260.502C39.3232 258.603 39.9245 256.094 40.4145 253.697C41.1048 250.261 41.6393 246.735 41.0157 243.298C40.5926 240.925 39.7686 237.986 37.1854 236.381C34.2458 234.572 30.3265 235.431 29.6806 235.59C29.458 235.635 29.1684 235.703 28.7676 235.838L28.7453 235.816Z" fill="#222222"/>
<path d="M84.587 227.457C88.7098 230.788 89.8749 235.38 91.2417 241.143C92.5637 246.748 93.6168 251.205 92.5637 257.102C91.9363 260.569 91.1073 265.273 87.4774 269.077C81.3381 275.538 69.0593 277.608 62.3598 271.733C58.5731 268.425 56.4893 263.495 55.7498 258.52C55.0104 253.546 55.5482 248.458 56.2428 243.484C57.4751 234.885 59.3573 228.312 65.0485 225.183C71.7481 221.492 80.1505 224.981 80.7331 225.251C81.6069 225.634 83.0186 226.241 84.5646 227.502L84.587 227.457Z" fill="#F5F1DE"/>
<path d="M75.7749 235.816C78.8147 237.014 80.2761 240.134 80.4514 240.54C81.2504 242.281 81.3478 244.18 81.1724 247.978C81.075 250.239 80.8412 252.477 80.5099 254.715C80.2761 256.342 79.9643 257.97 79.2433 259.394C78.1327 261.655 76.0282 263.192 73.8068 263.418C71.5855 263.644 69.2862 262.514 67.8637 260.502C66.5192 258.603 65.9931 256.094 65.5644 253.697C64.9604 250.261 64.4927 246.735 65.0383 243.298C65.4085 240.925 66.1295 237.986 68.3898 236.381C70.9619 234.572 74.3914 235.431 74.9565 235.59C75.1513 235.635 75.4047 235.703 75.7554 235.838L75.7749 235.816Z" fill="#222222"/>
</g>
<path d="M343.293 80.5977C343.293 80.2376 342.969 79.9546 342.607 80.0061L330.856 81.5239C330.559 81.5625 330.326 81.8197 330.326 82.1284V91.5054C329.912 91.3639 329.473 91.2868 329.02 91.2868C326.797 91.2868 325 93.0876 325 95.3C325 97.5124 326.797 99.3003 329.02 99.3003C331.244 99.3003 333.041 97.5124 333.041 95.3C333.041 95.2228 333.041 95.1328 333.041 95.0427V85.4599C333.041 85.1898 333.248 84.9711 333.506 84.9325L339.983 84.0964C340.306 84.0579 340.591 84.3022 340.591 84.6238V89.1258C340.177 88.9843 339.737 88.9071 339.272 88.9071C337.049 88.9071 335.252 90.6951 335.252 92.9075C335.252 95.1199 337.049 96.9078 339.272 96.9078C341.496 96.9078 343.293 95.1199 343.293 92.9075V80.5977Z" fill="#00A6ED"/>
<path d="M180.293 33.7105C180.293 33.3504 179.969 33.0674 179.607 33.1189L167.856 34.6367C167.559 34.6753 167.326 34.9325 167.326 35.2412V44.6182C166.912 44.4767 166.473 44.3996 166.02 44.3996C163.797 44.3996 162 46.2004 162 48.4128C162 50.6252 163.797 52.4131 166.02 52.4131C168.244 52.4131 170.041 50.6252 170.041 48.4128C170.041 48.3356 170.041 48.2455 170.041 48.1555V38.5727C170.041 38.3026 170.248 38.0839 170.506 38.0453L176.983 37.2092C177.306 37.1706 177.591 37.415 177.591 37.7366V42.2386C177.177 42.0971 176.737 42.0199 176.272 42.0199C174.049 42.0199 172.252 43.8079 172.252 46.0203C172.252 48.2327 174.049 50.0206 176.272 50.0206C178.496 50.0206 180.293 48.2327 180.293 46.0203V33.7105Z" fill="#00A6ED"/>
<path d="M271.796 40.0776L266.082 40.8237C265.785 40.8623 265.565 41.1195 265.565 41.4154V48.4771C265.035 48.297 264.453 48.2198 263.833 48.2841C261.919 48.4899 260.42 50.0592 260.29 51.9758C260.135 54.2782 261.971 56.1948 264.259 56.1948C266.547 56.1948 268.241 54.4197 268.241 52.233C268.241 52.1558 268.241 52.0658 268.241 51.9886V44.734C268.241 44.4767 268.435 44.2581 268.693 44.2195L271.912 43.8079C272.158 43.7821 272.339 43.5635 272.339 43.3191V40.605C272.339 40.3092 272.093 40.0776 271.796 40.1162V40.0776Z" fill="#F2AD48"/>
<path d="M270.608 47.1649L276.322 46.4188C276.619 46.3674 276.878 46.5989 276.878 46.8947V49.6088C276.878 49.8532 276.697 50.0719 276.451 50.0976L273.232 50.5092C272.973 50.5478 272.78 50.7664 272.78 51.0237V60.4908C272.78 60.5679 272.78 60.658 272.78 60.7351C272.78 62.9347 270.996 64.6969 268.798 64.6969C266.6 64.6969 264.674 62.7932 264.829 60.4779C264.945 58.5742 266.445 57.0049 268.358 56.7991C268.979 56.7348 269.561 56.7991 270.091 56.9921V47.718C270.091 47.4092 270.31 47.1649 270.608 47.1263V47.1649Z" fill="#F2AD48"/>
<path d="M211.515 90L205.801 90.746C205.503 90.7846 205.284 91.029 205.284 91.3249V100.599C204.754 100.419 204.172 100.342 203.551 100.406C201.638 100.612 200.138 102.181 200.009 104.098C199.854 106.4 201.69 108.317 203.978 108.317C206.266 108.317 207.96 106.542 207.96 104.355C207.96 104.278 207.96 104.188 207.96 104.111V94.6563C207.96 94.3991 208.154 94.1804 208.412 94.1418L211.631 93.7302C211.877 93.6916 212.071 93.4858 212.071 93.2414V90.5145C212.071 90.2187 211.812 90 211.515 90.0386V90Z" fill="#F2AD48"/>
</svg>
