<svg width="1440" height="277" viewBox="0 0 1440 277" fill="none" xmlns="http://www.w3.org/2000/svg">
<rect width="1440" height="277" fill="#E24444"/>
<g opacity="0.2">
<path d="M1018.96 163.149C1017.83 159.178 1013.73 156.842 1009.74 157.952C1009.65 157.952 1009.5 158.01 1009.39 158.039C1003.95 159.85 1003.51 167.296 1008.4 170.011L1019.26 176.056C1020.16 176.552 1021.32 176.231 1021.82 175.326C1022.31 174.421 1021.99 173.253 1021.09 172.756L1010.2 166.712C1008.05 165.515 1008.4 162.419 1010.55 161.689C1010.55 161.689 1010.61 161.689 1010.64 161.689C1010.64 161.689 1010.67 161.689 1010.7 161.689C1012.68 161.134 1014.72 162.273 1015.27 164.259C1015.56 165.281 1016.61 165.865 1017.63 165.573C1018.64 165.281 1019.23 164.23 1018.94 163.208L1018.96 163.149Z" fill="#D3883E"/>
<path d="M1045.07 164.171C1045.63 162.185 1047.69 161.047 1049.64 161.601C1049.64 161.601 1049.67 161.601 1049.7 161.601C1049.76 161.601 1049.79 161.601 1049.79 161.601C1051.94 162.331 1052.29 165.427 1050.14 166.624L1039.25 172.668C1038.35 173.165 1038 174.333 1038.53 175.238C1039.02 176.143 1040.18 176.493 1041.09 175.968L1051.97 169.923C1056.86 167.208 1056.43 159.791 1050.98 157.951C1050.84 157.893 1050.69 157.864 1050.63 157.864C1046.65 156.754 1042.54 159.09 1041.41 163.061C1041.12 164.083 1041.7 165.135 1042.72 165.427C1043.74 165.719 1044.78 165.135 1045.07 164.113V164.171Z" fill="#D3883E"/>
<path d="M1033.84 185.047V175.791H1026.53V185.047C1026.53 186.682 1025.81 188.23 1024.55 189.252L1020.36 192.756H1040.01L1035.82 189.252C1034.57 188.201 1033.84 186.653 1033.84 185.047Z" fill="#D3883E"/>
<path d="M1030.2 182.916C1021.79 182.916 1014.95 176.083 1014.95 167.615V152.548C1014.95 151.701 1015.65 151 1016.49 151H1043.91C1044.75 151 1045.45 151.701 1045.45 152.548V167.615C1045.45 176.054 1038.64 182.916 1030.17 182.916H1030.2Z" fill="#FFB02E"/>
<path d="M1045.8 192.785H1013.87C1012.18 192.785 1010.76 193.895 1010.44 195.472L1006.91 211.035C1006.74 211.765 1007.32 212.437 1008.11 212.437H1051.6C1052.38 212.437 1052.96 211.765 1052.79 211.035L1049.27 195.472C1048.92 193.924 1047.49 192.785 1045.8 192.785Z" fill="#6D4534"/>
<path d="M1036.17 199.211H1023.56C1022.84 199.211 1022.23 199.824 1022.23 200.613V204.584C1022.23 205.343 1022.81 205.985 1023.56 205.985H1036.17C1036.9 205.985 1037.51 205.372 1037.51 204.584V200.613C1037.51 199.853 1036.92 199.211 1036.17 199.211Z" fill="#FFB02E"/>
</g>
<g opacity="0.2">
<path d="M116.971 67.0242C115.754 62.7669 111.354 60.2627 107.079 61.4522C106.985 61.4522 106.829 61.5148 106.704 61.5461C100.869 63.4869 100.401 71.4692 105.643 74.3804L117.283 80.8602C118.25 81.3923 119.498 81.048 120.029 80.0776C120.559 79.1072 120.216 77.8551 119.249 77.3229L107.578 70.8432C105.269 69.5597 105.643 66.2416 107.953 65.459C107.953 65.459 108.015 65.459 108.046 65.459C108.046 65.459 108.077 65.459 108.109 65.459C110.231 64.8643 112.415 66.0851 113.008 68.2137C113.32 69.3093 114.443 69.9354 115.535 69.6223C116.627 69.3093 117.252 68.1824 116.94 67.0868L116.971 67.0242Z" fill="#D3883E"/>
<path d="M144.961 68.1199C145.554 65.9913 147.77 64.7705 149.86 65.3653C149.86 65.3653 149.892 65.3653 149.923 65.3653C149.985 65.3653 150.016 65.3653 150.016 65.3653C152.325 66.1478 152.7 69.466 150.391 70.7494L138.72 77.2292C137.753 77.7613 137.378 79.0134 137.94 79.9838C138.471 80.9542 139.719 81.3299 140.686 80.7664L152.357 74.2867C157.599 71.3755 157.131 63.4245 151.296 61.4524C151.14 61.3898 150.984 61.3585 150.921 61.3585C146.646 60.1689 142.246 62.6732 141.029 66.9304C140.717 68.026 141.341 69.1529 142.434 69.466C143.526 69.779 144.649 69.1529 144.961 68.0573V68.1199Z" fill="#D3883E"/>
<path d="M132.916 90.4993V80.5762H125.084V90.4993C125.084 92.2522 124.304 93.9113 122.962 95.0069L118.468 98.7633H139.531L135.038 95.0069C133.696 93.88 132.916 92.2209 132.916 90.4993Z" fill="#D3883E"/>
<path d="M129.016 88.2143C119.997 88.2143 112.664 80.8894 112.664 71.8115V55.6591C112.664 54.7513 113.413 54 114.318 54H143.713C144.618 54 145.367 54.7513 145.367 55.6591V71.8115C145.367 80.8581 138.065 88.2143 128.984 88.2143H129.016Z" fill="#FFB02E"/>
<path d="M145.742 98.7949H111.51C109.7 98.7949 108.171 99.9844 107.828 101.675L104.052 118.359C103.865 119.142 104.489 119.862 105.332 119.862H151.952C152.794 119.862 153.418 119.142 153.231 118.359L149.455 101.675C149.081 100.016 147.552 98.7949 145.742 98.7949Z" fill="#6D4534"/>
<path d="M135.413 105.684H121.901C121.121 105.684 120.466 106.341 120.466 107.186V111.443C120.466 112.257 121.09 112.946 121.901 112.946H135.413C136.193 112.946 136.848 112.289 136.848 111.443V107.186C136.848 106.372 136.224 105.684 135.413 105.684Z" fill="#FFB02E"/>
</g>
<g opacity="0.2">
<path d="M1304.89 187H1334.52C1335.54 187 1336.36 187.847 1336.36 188.898V198.592C1336.36 199.264 1336.01 199.906 1335.46 200.228L1329.11 204.082L1326.43 205.542V206.447H1313.1V205.542L1310.42 204.082L1303.96 200.228C1303.38 199.906 1303.03 199.264 1303.03 198.592V188.898C1303.03 187.847 1303.87 187 1304.89 187Z" fill="#0074BA"/>
<path d="M1310.42 204.082V187H1314.76V206.447L1310.42 204.082Z" fill="#D3D3D3"/>
<path d="M1324.74 206.447V187H1329.08V204.082L1324.74 206.447Z" fill="#D3D3D3"/>
<path d="M1324.74 187H1314.73V206.447H1324.74V187Z" fill="#F8312F"/>
<path d="M1319.74 233.808C1328.96 233.808 1336.47 226.099 1336.47 216.609C1336.47 207.119 1328.99 199.41 1319.74 199.41C1310.48 199.41 1303 207.119 1303 216.609C1303 226.099 1310.48 233.808 1319.74 233.808Z" fill="#FFB02E"/>
<path d="M1319.77 231.735C1315.84 231.735 1312.14 230.158 1309.37 227.297C1306.58 224.435 1305.07 220.639 1305.07 216.609C1305.07 212.58 1306.61 208.755 1309.37 205.922C1315.11 200.024 1324.45 200.024 1330.19 205.922C1335.92 211.821 1335.92 221.427 1330.19 227.326C1327.39 230.187 1323.7 231.764 1319.77 231.764V231.735ZM1319.74 203.528C1316.48 203.528 1313.22 204.813 1310.74 207.353C1308.36 209.835 1307.02 213.105 1307.02 216.609C1307.02 220.113 1308.33 223.384 1310.74 225.866C1313.13 228.348 1316.33 229.691 1319.74 229.691C1323.14 229.691 1326.32 228.348 1328.73 225.866C1333.68 220.756 1333.68 212.463 1328.73 207.382C1326.26 204.813 1323.03 203.557 1319.74 203.557V203.528Z" fill="#FCD53F"/>
<path d="M1320.76 209.833L1322.15 212.695C1322.33 213.016 1322.65 213.279 1323 213.337L1326.08 213.804C1326.99 213.95 1327.39 215.118 1326.69 215.79L1324.57 217.921C1324.25 218.243 1324.16 218.71 1324.28 219.148L1325.27 222.009C1325.59 222.973 1324.66 223.878 1323.75 223.469L1320.17 221.863C1319.88 221.717 1319.56 221.717 1319.27 221.863L1315.69 223.469C1314.79 223.878 1313.83 222.973 1314.18 222.009L1315.17 219.148C1315.31 218.71 1315.2 218.243 1314.88 217.921L1312.75 215.79C1312.08 215.118 1312.46 213.95 1313.36 213.804L1316.45 213.337C1316.83 213.279 1317.12 213.045 1317.29 212.695L1318.69 209.833C1319.13 208.957 1320.35 208.957 1320.76 209.833Z" fill="#6D4534"/>
</g>
<g opacity="0.2">
<path d="M382.613 61H427.822C429.377 61 430.62 62.2919 430.62 63.8957V78.6862C430.62 79.7109 430.087 80.691 429.243 81.181L419.562 87.0616L415.476 89.2891V90.6701H395.137V89.2891L391.051 87.0616L381.192 81.181C380.304 80.691 379.771 79.7109 379.771 78.6862V63.8957C379.771 62.2919 381.059 61 382.613 61Z" fill="#0074BA"/>
<path d="M391.052 87.0616V61H397.669V90.6701L391.052 87.0616Z" fill="#D3D3D3"/>
<path d="M412.901 90.6701V61H419.518V87.0616L412.901 90.6701Z" fill="#D3D3D3"/>
<path d="M412.901 61H397.624V90.6701H412.901V61Z" fill="#F8312F"/>
<path d="M405.263 132.413C419.34 132.413 430.798 120.652 430.798 106.173C430.798 91.6947 419.385 79.9336 405.263 79.9336C391.14 79.9336 379.727 91.6947 379.727 106.173C379.727 120.652 391.14 132.413 405.263 132.413Z" fill="#FFB02E"/>
<path d="M405.307 129.25C399.311 129.25 393.671 126.845 389.453 122.479C385.189 118.113 382.88 112.321 382.88 106.174C382.88 100.026 385.234 94.1897 389.453 89.8684C398.201 80.8694 412.457 80.8694 421.205 89.8684C429.954 98.8675 429.954 113.524 421.205 122.523C416.942 126.889 411.302 129.295 405.307 129.295V129.25ZM405.262 86.2153C400.288 86.2153 395.315 88.1755 391.54 92.0514C387.898 95.8381 385.855 100.828 385.855 106.174C385.855 111.52 387.854 116.509 391.54 120.296C395.181 124.083 400.066 126.132 405.262 126.132C410.458 126.132 415.299 124.083 418.985 120.296C426.535 112.5 426.535 99.8476 418.985 92.0959C415.21 88.1755 410.281 86.2599 405.262 86.2599V86.2153Z" fill="#FCD53F"/>
<path d="M406.817 95.8344L408.949 100.2C409.215 100.69 409.704 101.091 410.237 101.18L414.944 101.893C416.321 102.116 416.943 103.898 415.877 104.923L412.635 108.175C412.146 108.665 412.013 109.378 412.191 110.046L413.701 114.412C414.189 115.882 412.768 117.263 411.391 116.639L405.929 114.189C405.485 113.966 404.997 113.966 404.552 114.189L399.09 116.639C397.713 117.263 396.248 115.882 396.781 114.412L398.291 110.046C398.513 109.378 398.335 108.665 397.847 108.175L394.605 104.923C393.583 103.898 394.161 102.116 395.537 101.893L400.245 101.18C400.822 101.091 401.266 100.735 401.533 100.2L403.664 95.8344C404.33 94.4979 406.196 94.4979 406.817 95.8344Z" fill="#6D4534"/>
</g>
<g opacity="0.2">
<path d="M1219.63 106.965H1195.21C1181.09 106.965 1169.62 95.4895 1169.62 81.2983V65.209H1245.16V81.2983C1245.19 95.4603 1233.75 106.965 1219.63 106.965Z" fill="#533566"/>
<path d="M1211.66 41.0293L1256.83 64.2434C1259.63 65.6742 1259.63 69.7038 1256.83 71.1346L1211.66 94.3488C1209.01 95.7212 1205.92 95.7212 1203.27 94.3488L1158.1 71.1346C1155.3 69.7038 1155.3 65.6742 1158.1 64.2434L1203.27 41.0293C1205.89 39.6569 1209.01 39.6569 1211.66 41.0293Z" fill="#321B41"/>
<path d="M1204.38 66.0234C1205.08 64.505 1206.88 63.921 1208.37 64.651L1233.05 77.353C1234.04 77.8786 1234.62 78.8714 1234.62 79.981V103.166C1236.86 104.276 1238.41 106.553 1238.41 109.21C1238.41 109.794 1238.32 110.349 1238.17 110.904V110.992C1238.14 111.138 1238.08 111.313 1238.03 111.459C1238.03 111.488 1238 111.546 1238 111.576C1237.97 111.722 1237.88 111.868 1237.82 112.014C1237.82 112.043 1237.79 112.101 1237.79 112.101C1237.62 112.51 1237.36 112.919 1237.1 113.24C1237.07 113.328 1237.01 113.357 1236.95 113.415L1238.67 121.533C1239.63 126 1236.25 130.205 1231.68 130.205C1227.11 130.205 1223.73 126 1224.7 121.533L1226.41 113.415C1225.48 112.276 1224.93 110.846 1224.93 109.24C1224.93 108.305 1225.1 107.429 1225.45 106.67C1225.45 106.641 1225.48 106.582 1225.54 106.553C1225.57 106.436 1225.66 106.29 1225.71 106.174C1225.8 106.028 1225.86 105.882 1225.98 105.736C1226 105.706 1226 105.648 1226.06 105.619C1226.73 104.597 1227.69 103.75 1228.8 103.195V81.7915L1205.8 69.9654C1204.38 69.2354 1203.71 67.4542 1204.41 66.0234H1204.38Z" fill="#FFB02E"/>
</g>
<g opacity="0.2">
<path d="M275.511 223.844H258.427C248.552 223.844 240.529 215.817 240.529 205.89V194.635H293.369V205.89C293.389 215.796 285.387 223.844 275.511 223.844Z" fill="#533566"/>
<path d="M269.932 177.72L301.534 193.959C303.489 194.96 303.489 197.779 301.534 198.779L269.932 215.018C268.079 215.978 265.921 215.978 264.068 215.018L232.466 198.779C230.511 197.779 230.511 194.96 232.466 193.959L264.068 177.72C265.9 176.76 268.079 176.76 269.932 177.72Z" fill="#321B41"/>
<path d="M264.841 195.204C265.33 194.142 266.592 193.734 267.631 194.244L284.898 203.13C285.59 203.497 285.997 204.192 285.997 204.968V221.186C287.565 221.963 288.644 223.556 288.644 225.415C288.644 225.823 288.583 226.211 288.481 226.599V226.661C288.461 226.763 288.42 226.885 288.38 226.987C288.38 227.008 288.359 227.049 288.359 227.069C288.339 227.171 288.278 227.273 288.237 227.376C288.237 227.396 288.217 227.437 288.217 227.437C288.095 227.723 287.911 228.009 287.728 228.233C287.708 228.295 287.667 228.315 287.626 228.356L288.828 234.035C289.499 237.16 287.137 240.101 283.941 240.101C280.744 240.101 278.382 237.16 279.054 234.035L280.255 228.356C279.604 227.559 279.217 226.559 279.217 225.435C279.217 224.781 279.339 224.169 279.583 223.638C279.583 223.617 279.604 223.576 279.644 223.556C279.665 223.474 279.726 223.372 279.766 223.29C279.828 223.188 279.868 223.086 279.95 222.984C279.97 222.964 279.97 222.923 280.011 222.902C280.479 222.187 281.151 221.595 281.925 221.207V206.234L265.839 197.962C264.841 197.451 264.373 196.205 264.861 195.204H264.841Z" fill="#FFB02E"/>
</g>
<path d="M568.395 130.16V133.812H570.934V135.355H568.395V139.008H566.539V130.16H568.395ZM568.395 139.809V144.242H558.941V145.961H569V147.445H557.125V142.855H566.559V141.254H557.086V139.809H568.395ZM559.508 130.766C562.164 130.766 564.098 132.367 564.098 134.672C564.098 136.977 562.164 138.578 559.508 138.578C556.852 138.578 554.898 136.977 554.918 134.672C554.898 132.367 556.852 130.766 559.508 130.766ZM559.508 132.289C557.887 132.289 556.715 133.246 556.715 134.672C556.715 136.098 557.887 137.094 559.508 137.094C561.109 137.094 562.301 136.098 562.301 134.672C562.301 133.246 561.109 132.289 559.508 132.289ZM577.862 134.262C577.862 136.41 579.445 138.441 582.12 139.242L581.202 140.746C579.22 140.121 577.745 138.803 576.964 137.133C576.193 138.939 574.689 140.346 572.648 141.059L571.71 139.574C574.386 138.715 576.027 136.586 576.027 134.262V133.949H572.218V132.445H576.027V130.277H577.882V132.445H581.671V133.949H577.862V134.262ZM585.48 130.141V135.512H588.019V137.055H585.48V143.109H583.624V130.141H585.48ZM586.222 145.785V147.289H574.386V141.977H576.241V145.785H586.222ZM608.517 130.16V147.66H606.74V138.617H604.474V146.762H602.775V130.512H604.474V137.094H606.74V130.16H608.517ZM600.646 132.27V133.773H595.939V141.879C598.088 141.859 599.709 141.762 601.584 141.41L601.72 142.934C599.611 143.363 597.814 143.441 595.255 143.461H594.084V132.27H600.646ZM621.032 131.938V133.422H610.602V131.938H614.899V130.082H616.755V131.938H621.032ZM615.817 134.203C618.337 134.223 620.055 135.473 620.055 137.387C620.055 139.301 618.337 140.57 615.817 140.57C613.278 140.57 611.559 139.301 611.559 137.387C611.559 135.473 613.278 134.223 615.817 134.203ZM615.817 135.629C614.333 135.629 613.337 136.312 613.356 137.387C613.337 138.48 614.333 139.125 615.817 139.125C617.302 139.125 618.298 138.48 618.317 137.387C618.298 136.312 617.302 135.629 615.817 135.629ZM624.333 130.16V134.906H626.872V136.449H624.333V141.098H622.477V130.16H624.333ZM624.333 141.996V147.66H622.477V143.5H612.77V141.996H624.333ZM633.02 133.52C633.02 135.434 634.25 137.367 636.516 138.227L635.539 139.652C633.908 139.027 632.766 137.836 632.141 136.391C631.496 138.021 630.295 139.438 628.605 140.16L627.59 138.715C629.953 137.68 631.223 135.473 631.223 133.52V131.254H633.02V133.52ZM642.59 130.18V140.941H640.832V136.254H638.781V140.395H637.062V130.492H638.781V134.73H640.832V130.18H642.59ZM636.73 141.273C640.383 141.273 642.668 142.465 642.688 144.457C642.668 146.449 640.383 147.641 636.73 147.621C633.078 147.641 630.793 146.449 630.812 144.457C630.793 142.465 633.078 141.273 636.73 141.273ZM636.73 142.699C634.191 142.699 632.629 143.344 632.648 144.457C632.629 145.57 634.191 146.215 636.73 146.195C639.27 146.215 640.812 145.57 640.832 144.457C640.812 143.344 639.27 142.699 636.73 142.699ZM652.722 130.453C656.667 130.453 658.972 131.508 658.972 133.461C658.972 135.414 656.667 136.488 652.722 136.488C648.777 136.488 646.472 135.414 646.472 133.461C646.472 131.508 648.777 130.453 652.722 130.453ZM652.722 131.82C649.929 131.82 648.386 132.426 648.405 133.461C648.386 134.535 649.929 135.102 652.722 135.102C655.515 135.102 657.058 134.535 657.058 133.461C657.058 132.426 655.515 131.82 652.722 131.82ZM660.71 137.562V139.047H644.753V137.562H660.71ZM658.698 140.395V144.496H648.503V146.059H659.187V147.484H646.687V143.148H656.863V141.781H646.667V140.395H658.698ZM672.263 130.961C674.9 130.961 676.814 132.426 676.814 134.594C676.814 136.742 674.9 138.227 672.263 138.207C669.627 138.227 667.752 136.742 667.752 134.594C667.752 132.426 669.627 130.961 672.263 130.961ZM672.263 132.465C670.681 132.465 669.529 133.305 669.548 134.594C669.529 135.863 670.681 136.703 672.263 136.684C673.884 136.703 675.037 135.863 675.037 134.594C675.037 133.305 673.884 132.465 672.263 132.465ZM681.072 130.18V147.66H679.236V130.18H681.072ZM666.502 139.574C669.724 139.574 674.197 139.496 678.025 138.93L678.162 140.316C676.57 140.619 674.91 140.805 673.298 140.922V147.113H671.443V141.02C669.744 141.098 668.142 141.107 666.755 141.117L666.502 139.574ZM697.356 130.18V135.805H699.895V137.348H697.356V143.266H695.501V130.18H697.356ZM694.055 132.211V133.715H683.626V132.211H687.923V130.16H689.778V132.211H694.055ZM688.841 134.555C691.36 134.555 693.079 135.863 693.079 137.855C693.079 139.848 691.36 141.137 688.841 141.137C686.302 141.137 684.583 139.848 684.583 137.855C684.583 135.863 686.302 134.555 688.841 134.555ZM688.841 135.98C687.356 135.98 686.36 136.703 686.38 137.855C686.36 138.988 687.356 139.691 688.841 139.691C690.325 139.691 691.321 138.988 691.341 137.855C691.321 136.703 690.325 135.98 688.841 135.98ZM698.098 145.785V147.289H686.262V142.23H688.118V145.785H698.098ZM720.394 130.16V147.66H718.616V138.617H716.351V146.762H714.652V130.512H716.351V137.094H718.616V130.16H720.394ZM712.523 132.27V133.773H707.816V141.879C709.964 141.859 711.585 141.762 713.46 141.41L713.597 142.934C711.488 143.363 709.691 143.441 707.132 143.461H705.96V132.27H712.523ZM728.163 131.273C730.936 131.273 732.909 132.973 732.928 135.434C732.909 137.611 731.366 139.193 729.08 139.516V142.289C730.731 142.211 732.411 142.074 733.983 141.84L734.12 143.188C730.155 143.93 725.916 143.949 722.791 143.949L722.557 142.426C723.934 142.426 725.536 142.426 727.225 142.367V139.516C724.959 139.184 723.377 137.602 723.397 135.434C723.377 132.973 725.409 131.273 728.163 131.273ZM728.163 132.875C726.463 132.875 725.213 133.871 725.233 135.434C725.213 136.977 726.463 138.012 728.163 137.992C729.862 138.012 731.112 136.977 731.112 135.434C731.112 133.871 729.862 132.875 728.163 132.875ZM736.932 130.16V147.699H735.077V130.16H736.932ZM753.314 130.16V134.516H755.814V136.098H753.314V140.473H751.459V130.16H753.314ZM753.314 141.215V144.867H743.646V146.195H753.959V147.484H741.791V143.676H751.478V142.504H741.752V141.215H753.314ZM739.427 138.812C740.785 138.812 742.357 138.812 743.998 138.754V137.777C741.986 137.592 740.736 136.791 740.755 135.473C740.736 134.047 742.377 133.207 744.916 133.207C747.435 133.207 749.076 134.047 749.076 135.473C749.076 136.781 747.836 137.582 745.853 137.777V138.695C747.416 138.617 748.998 138.49 750.462 138.285L750.619 139.496C746.849 140.121 742.709 140.141 739.623 140.141L739.427 138.812ZM749.974 131.41V132.699H739.877V131.41H743.998V130.004H745.853V131.41H749.974ZM744.916 134.418C743.412 134.418 742.513 134.809 742.513 135.473C742.513 136.176 743.412 136.605 744.916 136.605C746.4 136.605 747.298 136.176 747.298 135.473C747.298 134.809 746.4 134.418 744.916 134.418ZM772.606 138.676V140.16H756.63V138.676H763.72V136.82H758.622V130.961H770.634V132.426H760.458V135.336H770.751V136.82H765.516V138.676H772.606ZM764.598 141.293C768.368 141.293 770.634 142.445 770.634 144.477C770.634 146.508 768.368 147.641 764.598 147.66C760.809 147.641 758.524 146.508 758.524 144.477C758.524 142.445 760.809 141.293 764.598 141.293ZM764.598 142.738C761.923 142.738 760.399 143.363 760.399 144.477C760.399 145.59 761.923 146.215 764.598 146.195C767.235 146.215 768.778 145.59 768.778 144.477C768.778 143.363 767.235 142.738 764.598 142.738ZM794.355 140.707V142.23H787.284V147.68H785.448V142.23H778.398V140.707H794.355ZM792.831 132.27V133.773H787.304C787.411 135.707 790.048 137.592 793.378 138.012L792.714 139.496C789.902 139.105 787.509 137.787 786.386 136C785.243 137.807 782.831 139.105 780.019 139.496L779.335 138.012C782.665 137.592 785.321 135.746 785.448 133.773H779.902V132.27H785.448V130.16H787.284V132.27H792.831ZM801.616 134.32C801.616 136.527 803.256 138.559 805.952 139.398L805.053 140.863C803.041 140.229 801.518 138.9 800.737 137.191C799.955 139.027 798.442 140.453 796.381 141.137L795.483 139.691C798.159 138.832 799.78 136.684 799.78 134.32V133.91H795.971V132.406H799.78V130.277H801.635V132.406H805.424V133.91H801.616V134.32ZM810.073 130.18V143.207H808.217V136.977H804.819V135.473H808.217V130.18H810.073ZM810.541 145.785V147.289H798.705V142.055H800.561V145.785H810.541ZM832.212 130.16V140.98H830.434V130.16H832.212ZM828.97 130.453V140.941H827.212V140.062H824.263V138.773H827.212V130.453H828.97ZM817.153 136.859C819.516 136.859 823.442 136.82 826.333 136.352L826.47 137.621C825.327 137.855 824.067 138.012 822.817 138.109V140.902H821.02V138.207C819.643 138.275 818.354 138.285 817.329 138.285L817.153 136.859ZM821.997 141.586V143.07H830.376V141.586H832.212V147.445H820.18V141.586H821.997ZM821.997 145.98H830.376V144.516H821.997V145.98ZM821.841 130.766C824.126 130.785 825.669 131.762 825.669 133.363C825.669 134.965 824.126 135.98 821.841 135.98C819.536 135.98 818.013 134.965 818.013 133.363C818.013 131.762 819.536 130.785 821.841 130.766ZM821.841 132.094C820.513 132.074 819.692 132.543 819.692 133.363C819.692 134.184 820.513 134.652 821.841 134.652C823.149 134.652 824.009 134.184 824.009 133.363C824.009 132.543 823.149 132.074 821.841 132.094ZM840.41 134.613C840.391 137.719 842.188 140.883 844.805 142.152L843.652 143.637C841.748 142.65 840.273 140.688 839.512 138.344C838.721 140.844 837.188 142.934 835.195 143.969L834.043 142.465C836.738 141.176 838.555 137.816 838.555 134.613V131.625H840.41V134.613ZM847.969 130.16V137.133H850.781V138.715H847.969V147.66H846.113V130.16H847.969ZM865.913 130.16V147.699H864.058V130.16H865.913ZM856.558 131.469C859.155 131.469 861.07 133.852 861.07 137.602C861.07 141.371 859.155 143.754 856.558 143.754C853.921 143.754 852.027 141.371 852.027 137.602C852.027 133.852 853.921 131.469 856.558 131.469ZM856.558 133.129C854.937 133.129 853.823 134.848 853.823 137.602C853.823 140.375 854.937 142.094 856.558 142.094C858.159 142.094 859.273 140.375 859.273 137.602C859.273 134.848 858.159 133.129 856.558 133.129ZM882.705 139.477V140.961H870.518V131.605H882.53V133.109H872.393V135.473H882.159V136.938H872.393V139.477H882.705ZM884.522 143.93V145.453H868.506V143.93H884.522Z" fill="white"/>
<g filter="url(#filter0_d_1_973)">
<path d="M656.086 201.727C656.155 202.261 656.073 202.617 655.813 202.754C655.566 202.905 655.183 203 654.677 203.083C652.363 203.329 650.023 203.534 647.628 203.698C645.232 203.863 642.823 204.013 640.414 204.15V210.693H658.03C658.536 210.693 658.892 210.789 659.111 210.966C659.33 211.144 659.44 211.5 659.44 212.048V218.371C659.44 218.905 659.33 219.275 659.111 219.453C658.892 219.631 658.536 219.726 658.03 219.726H612.41C611.903 219.726 611.547 219.631 611.328 219.453C611.109 219.275 611 218.905 611 218.371V212.048C611 211.5 611.109 211.144 611.328 210.966C611.547 210.789 611.903 210.693 612.41 210.693H630.026V204.479C628.985 204.52 627.959 204.533 626.973 204.533H624.085C620.622 204.533 618.145 203.603 616.653 201.755C615.161 199.893 614.408 196.937 614.408 192.858V171.355C614.408 170.821 614.518 170.452 614.737 170.274C614.956 170.096 615.312 170 615.818 170H654.033C654.54 170 654.896 170.096 655.115 170.274C655.334 170.452 655.443 170.821 655.443 171.355V177.679C655.443 178.226 655.334 178.582 655.115 178.76C654.896 178.938 654.54 179.034 654.033 179.034H624.783V182.921H654.074C654.581 182.921 654.937 183.017 655.156 183.195C655.375 183.373 655.484 183.742 655.484 184.276V190.066C655.484 190.6 655.375 190.969 655.156 191.147C654.937 191.325 654.581 191.421 654.074 191.421H624.783V192.393C624.783 193.693 625.057 194.651 625.591 195.253C626.138 195.869 627.124 196.157 628.561 196.116C632.489 196.047 636.664 195.897 641.099 195.678C645.533 195.459 649.872 195.116 654.129 194.651C654.636 194.583 654.978 194.651 655.156 194.87C655.334 195.089 655.457 195.459 655.539 196.006L656.086 201.741V201.727Z" fill="#F5F1DE"/>
<path d="M692.262 210.693C692.262 212.937 691.783 214.566 690.825 215.565C689.867 216.565 688.416 217.057 686.5 217.057H669.062C667.132 217.057 665.695 216.551 664.736 215.565C663.778 214.566 663.299 212.951 663.299 210.693V171.341C663.299 170.808 663.409 170.452 663.614 170.274C663.833 170.096 664.189 170 664.682 170H690.879C691.372 170 691.742 170.096 691.947 170.274C692.166 170.452 692.262 170.808 692.262 171.341V210.693ZM680.915 208.667C681.517 208.667 681.928 208.557 682.147 208.325C682.366 208.092 682.462 207.64 682.462 206.956V178.13H673.045V206.956C673.045 207.64 673.154 208.092 673.36 208.325C673.579 208.557 673.989 208.667 674.591 208.667H680.901H680.915ZM714.23 195.719C714.23 196.252 714.121 196.608 713.915 196.786C713.696 196.964 713.341 197.06 712.848 197.06H707.934V218.399C707.934 218.933 707.825 219.288 707.619 219.466C707.4 219.644 707.044 219.74 706.552 219.74H699.065C698.558 219.74 698.202 219.658 697.997 219.466C697.778 219.288 697.682 218.933 697.682 218.399V171.341C697.682 170.808 697.792 170.452 697.997 170.274C698.216 170.096 698.572 170 699.065 170H706.552C707.044 170 707.414 170.096 707.619 170.274C707.838 170.452 707.934 170.808 707.934 171.341V188.191H712.848C713.341 188.191 713.71 188.286 713.915 188.464C714.134 188.642 714.23 188.998 714.23 189.532V195.732V195.719Z" fill="#F5F1DE"/>
<path d="M761.48 201.727C761.548 202.261 761.466 202.617 761.206 202.754C760.96 202.905 760.577 203 760.07 203.083C757.757 203.329 755.416 203.534 753.021 203.698C750.626 203.863 748.217 204.013 745.808 204.15V210.693H763.424C763.93 210.693 764.286 210.789 764.505 210.966C764.724 211.144 764.833 211.5 764.833 212.048V218.371C764.833 218.905 764.724 219.275 764.505 219.453C764.286 219.631 763.93 219.726 763.424 219.726H717.803C717.297 219.726 716.941 219.631 716.722 219.453C716.503 219.275 716.394 218.905 716.394 218.371V212.048C716.394 211.5 716.503 211.144 716.722 210.966C716.941 210.789 717.297 210.693 717.803 210.693H735.419V204.479C734.379 204.52 733.352 204.533 732.367 204.533H729.479C726.016 204.533 723.538 203.603 722.046 201.755C720.555 199.893 719.802 196.937 719.802 192.858V171.355C719.802 170.821 719.911 170.452 720.13 170.274C720.349 170.096 720.705 170 721.212 170H759.427C759.933 170 760.289 170.096 760.508 170.274C760.727 170.452 760.837 170.821 760.837 171.355V177.679C760.837 178.226 760.727 178.582 760.508 178.76C760.289 178.938 759.933 179.034 759.427 179.034H730.19V182.921H759.482C759.988 182.921 760.344 183.017 760.563 183.195C760.782 183.373 760.891 183.742 760.891 184.276V190.066C760.891 190.6 760.782 190.969 760.563 191.147C760.344 191.325 759.988 191.421 759.482 191.421H730.19V192.393C730.19 193.693 730.464 194.651 730.998 195.253C731.546 195.869 732.531 196.157 733.968 196.116C737.897 196.047 742.071 195.897 746.506 195.678C750.941 195.459 755.28 195.116 759.536 194.651C760.043 194.583 760.385 194.651 760.563 194.87C760.741 195.089 760.864 195.459 760.946 196.006L761.494 201.741L761.48 201.727Z" fill="#F5F1DE"/>
<path d="M768.283 189.217C768.283 188.697 768.392 188.341 768.598 188.163C768.803 187.985 769.159 187.903 769.652 187.903H813.835C814.327 187.903 814.67 187.985 814.875 188.163C815.08 188.341 815.19 188.683 815.19 189.217V193.83C815.19 194.35 815.08 194.706 814.875 194.884C814.67 195.062 814.314 195.144 813.835 195.144H769.652C769.159 195.144 768.817 195.062 768.598 194.884C768.392 194.706 768.283 194.364 768.283 193.83V189.217ZM812.466 217.536C812.534 217.961 812.452 218.221 812.206 218.317C811.96 218.412 811.59 218.508 811.111 218.577C808.702 218.823 806.361 219.015 804.103 219.152C801.845 219.288 799.518 219.398 797.136 219.494C794.768 219.576 792.263 219.644 789.622 219.672C786.98 219.699 784.078 219.726 780.903 219.726C779.301 219.726 777.905 219.59 776.714 219.302C775.524 219.015 774.552 218.563 773.785 217.947C773.019 217.317 772.444 216.496 772.088 215.483C771.719 214.47 771.541 213.211 771.541 211.719V206.381C771.541 205.888 771.65 205.56 771.855 205.382C772.061 205.204 772.417 205.122 772.909 205.122H802.803V203.603H772.909C772.006 203.603 771.554 203.096 771.554 202.083V198.894C771.554 198.374 771.664 198.018 771.869 197.854C772.074 197.676 772.43 197.594 772.923 197.594H810.509C811.001 197.594 811.344 197.676 811.563 197.854C811.768 198.032 811.877 198.374 811.877 198.894V209.83C811.877 210.351 811.768 210.706 811.563 210.884C811.357 211.062 811.001 211.144 810.509 211.144H780.615V211.979C780.615 212.541 780.821 212.883 781.245 213.006C781.669 213.129 782.313 213.184 783.175 213.184C786.104 213.184 788.8 213.17 791.264 213.129C793.728 213.088 796.055 213.047 798.258 212.965C800.462 212.883 802.556 212.814 804.568 212.705C806.58 212.595 808.606 212.458 810.673 212.28C811.166 212.239 811.494 212.308 811.672 212.458C811.85 212.623 811.973 212.883 812.042 213.266L812.507 217.509L812.466 217.536ZM810.481 170C810.974 170 811.316 170.082 811.535 170.26C811.741 170.438 811.85 170.78 811.85 171.314V175.078C811.85 175.598 811.741 175.954 811.535 176.118C811.33 176.296 810.974 176.378 810.481 176.378H781.642V177.638C781.642 178.336 781.779 178.76 782.066 178.924C782.34 179.075 782.997 179.143 783.996 179.102C786.09 179.075 788.253 179.02 790.484 178.965C792.715 178.911 794.96 178.842 797.204 178.76C799.449 178.678 801.694 178.568 803.911 178.445C806.129 178.322 808.264 178.171 810.331 177.993C810.824 177.925 811.152 177.993 811.33 178.199C811.508 178.404 811.631 178.774 811.7 179.294L812.165 183.058C812.233 183.578 812.151 183.92 811.905 184.084C811.658 184.249 811.289 184.344 810.81 184.372C805.923 184.755 800.64 185.07 794.973 185.316C789.307 185.563 783.394 185.686 777.248 185.686C776.372 185.686 775.592 185.59 774.894 185.398C774.196 185.207 773.607 184.878 773.115 184.399C772.622 183.92 772.252 183.29 771.992 182.483C771.732 181.675 771.595 180.663 771.595 179.444V171.314C771.595 170.794 771.705 170.438 771.91 170.26C772.115 170.082 772.471 170 772.964 170H810.495H810.481Z" fill="#F5F1DE"/>
<path d="M820.76 219.727C820.281 219.727 819.939 219.645 819.734 219.467C819.528 219.289 819.419 218.947 819.419 218.441V211.953C819.419 211.433 819.528 211.091 819.734 210.926C819.939 210.749 820.281 210.666 820.76 210.666H827.659C828.138 210.666 828.48 210.749 828.685 210.926C828.891 211.104 829 211.447 829 211.953V218.441C829 218.961 828.904 219.303 828.685 219.467C828.48 219.632 828.138 219.727 827.659 219.727H820.76Z" fill="#4A734E"/>
</g>
<path d="M755.152 72.5964L737.654 77.0473C736.213 77.4183 735.361 78.9356 735.787 80.3856L740.341 96.5708C741.062 99.0998 738.146 101.056 736.18 99.3695L721.73 86.8934C720.747 86.0504 719.338 86.0504 718.388 86.8934L703.938 99.3695C701.972 101.056 699.056 99.0998 699.776 96.5708L704.331 80.3856C704.757 78.9356 703.905 77.4183 702.463 77.0473L684.966 72.5964C682.345 71.922 682.345 68.078 684.966 67.4036L702.463 62.9527C703.905 62.5817 704.757 61.0644 704.331 59.6144L699.776 43.4292C699.056 40.9002 701.972 38.9445 703.938 40.6305L718.388 53.1066C719.371 53.9496 720.78 53.9496 721.73 53.1066L736.18 40.6305C738.146 38.9445 741.062 40.9002 740.341 43.4292L735.787 59.6144C735.361 61.0644 736.213 62.5817 737.654 62.9527L755.152 67.4036C757.773 68.078 757.773 71.922 755.152 72.5964Z" fill="#4A734E"/>
<defs>
<filter id="filter0_d_1_973" x="599" y="162" width="242" height="73.7401" filterUnits="userSpaceOnUse" color-interpolation-filters="sRGB">
<feFlood flood-opacity="0" result="BackgroundImageFix"/>
<feColorMatrix in="SourceAlpha" type="matrix" values="0 0 0 0 0 0 0 0 0 0 0 0 0 0 0 0 0 0 127 0" result="hardAlpha"/>
<feOffset dy="4"/>
<feGaussianBlur stdDeviation="6"/>
<feComposite in2="hardAlpha" operator="out"/>
<feColorMatrix type="matrix" values="0 0 0 0 0 0 0 0 0 0 0 0 0 0 0 0 0 0 0.1 0"/>
<feBlend mode="normal" in2="BackgroundImageFix" result="effect1_dropShadow_1_973"/>
<feBlend mode="normal" in="SourceGraphic" in2="effect1_dropShadow_1_973" result="shape"/>
</filter>
</defs>
</svg>
