<svg width="1440" height="586" viewBox="0 0 1440 586" fill="none" xmlns="http://www.w3.org/2000/svg">
<g clip-path="url(#clip0_1_906)">
<rect width="1440" height="586" fill="#FCEFDA"/>
<path d="M175.277 312.417C175.41 313.451 175.251 314.14 174.747 314.405C174.271 314.696 173.529 314.881 172.548 315.04C168.071 315.517 163.54 315.915 158.903 316.233C154.266 316.551 149.603 316.842 144.94 317.107V329.772H179.04C180.02 329.772 180.709 329.958 181.133 330.302C181.557 330.646 181.769 331.335 181.769 332.395V344.636C181.769 345.67 181.557 346.385 181.133 346.729C180.709 347.074 180.02 347.259 179.04 347.259H90.7291C89.7487 347.259 89.0598 347.074 88.6359 346.729C88.212 346.385 88 345.67 88 344.636V332.395C88 331.335 88.212 330.646 88.6359 330.302C89.0598 329.958 89.7487 329.772 90.7291 329.772H124.829V317.743C122.816 317.822 120.828 317.849 118.921 317.849H113.33C106.627 317.849 101.831 316.047 98.9428 312.47C96.0547 308.867 94.5975 303.144 94.5975 295.248V253.623C94.5975 252.59 94.8094 251.874 95.2334 251.53C95.6573 251.185 96.3462 251 97.3265 251H171.303C172.283 251 172.972 251.185 173.396 251.53C173.82 251.874 174.032 252.59 174.032 253.623V265.864C174.032 266.924 173.82 267.613 173.396 267.957C172.972 268.302 172.283 268.487 171.303 268.487H114.681V276.012H171.382C172.363 276.012 173.052 276.198 173.476 276.542C173.9 276.886 174.112 277.602 174.112 278.635V289.843C174.112 290.876 173.9 291.592 173.476 291.936C173.052 292.281 172.363 292.466 171.382 292.466H114.681V294.347C114.681 296.864 115.211 298.719 116.245 299.885C117.304 301.077 119.212 301.634 121.994 301.554C129.599 301.422 137.68 301.13 146.264 300.706C154.849 300.282 163.248 299.62 171.488 298.719C172.469 298.587 173.131 298.719 173.476 299.143C173.82 299.567 174.059 300.282 174.218 301.342L175.277 312.444V312.417Z" fill="#E24444"/>
<path d="M245.305 329.772C245.305 334.117 244.378 337.27 242.523 339.205C240.668 341.139 237.86 342.093 234.15 342.093H200.395C196.659 342.093 193.877 341.112 192.022 339.205C190.167 337.27 189.24 334.144 189.24 329.772V253.597C189.24 252.563 189.452 251.874 189.849 251.53C190.273 251.185 190.962 251 191.916 251H242.629C243.583 251 244.298 251.185 244.696 251.53C245.12 251.874 245.305 252.563 245.305 253.597V329.772ZM223.34 325.851C224.506 325.851 225.301 325.639 225.725 325.188C226.149 324.738 226.334 323.864 226.334 322.539V266.739H208.105V322.539C208.105 323.864 208.317 324.738 208.714 325.188C209.138 325.639 209.933 325.851 211.099 325.851H223.314H223.34ZM287.831 300.786C287.831 301.819 287.619 302.508 287.222 302.852C286.798 303.197 286.109 303.382 285.155 303.382H275.643V344.689C275.643 345.723 275.431 346.412 275.034 346.756C274.61 347.1 273.921 347.286 272.967 347.286H258.474C257.493 347.286 256.804 347.127 256.407 346.756C255.983 346.412 255.798 345.723 255.798 344.689V253.597C255.798 252.563 256.01 251.874 256.407 251.53C256.831 251.185 257.52 251 258.474 251H272.967C273.921 251 274.636 251.185 275.034 251.53C275.458 251.874 275.643 252.563 275.643 253.597V286.213H285.155C286.109 286.213 286.824 286.398 287.222 286.743C287.646 287.087 287.831 287.776 287.831 288.81V300.812V300.786Z" fill="#E24444"/>
<path d="M379.296 312.417C379.429 313.451 379.27 314.14 378.766 314.405C378.289 314.696 377.547 314.881 376.567 315.04C372.089 315.517 367.559 315.915 362.922 316.233C358.285 316.551 353.622 316.842 348.958 317.107V329.772H383.059C384.039 329.772 384.728 329.958 385.152 330.302C385.576 330.646 385.788 331.335 385.788 332.395V344.636C385.788 345.67 385.576 346.385 385.152 346.729C384.728 347.074 384.039 347.259 383.059 347.259H294.748C293.768 347.259 293.079 347.074 292.655 346.729C292.231 346.385 292.019 345.67 292.019 344.636V332.395C292.019 331.335 292.231 330.646 292.655 330.302C293.079 329.958 293.768 329.772 294.748 329.772H328.848V317.743C326.834 317.822 324.847 317.849 322.939 317.849H317.349C310.645 317.849 305.85 316.047 302.962 312.47C300.074 308.867 298.616 303.144 298.616 295.248V253.623C298.616 252.59 298.828 251.874 299.252 251.53C299.676 251.185 300.365 251 301.345 251H375.322C376.302 251 376.991 251.185 377.415 251.53C377.839 251.874 378.051 252.59 378.051 253.623V265.864C378.051 266.924 377.839 267.613 377.415 267.957C376.991 268.302 376.302 268.487 375.322 268.487H318.727V276.012H375.428C376.408 276.012 377.097 276.198 377.521 276.542C377.945 276.886 378.157 277.602 378.157 278.635V289.843C378.157 290.876 377.945 291.592 377.521 291.936C377.097 292.281 376.408 292.466 375.428 292.466H318.727V294.347C318.727 296.864 319.257 298.719 320.29 299.885C321.35 301.077 323.257 301.634 326.039 301.554C333.644 301.422 341.725 301.13 350.31 300.706C358.894 300.282 367.294 299.62 375.534 298.719C376.514 298.587 377.176 298.719 377.521 299.143C377.865 299.567 378.104 300.282 378.263 301.342L379.323 312.444L379.296 312.417Z" fill="#E24444"/>
<path d="M392.465 288.2C392.465 287.193 392.677 286.504 393.075 286.16C393.472 285.816 394.161 285.657 395.115 285.657H480.644C481.597 285.657 482.26 285.816 482.657 286.16C483.055 286.504 483.267 287.167 483.267 288.2V297.129C483.267 298.136 483.055 298.825 482.657 299.169C482.26 299.514 481.571 299.673 480.644 299.673H395.115C394.161 299.673 393.499 299.514 393.075 299.169C392.677 298.825 392.465 298.163 392.465 297.129V288.2ZM477.994 343.02C478.126 343.841 477.967 344.345 477.491 344.53C477.014 344.716 476.298 344.901 475.371 345.034C470.708 345.511 466.177 345.882 461.805 346.147C457.433 346.411 452.929 346.623 448.319 346.809C443.735 346.968 438.886 347.1 433.772 347.153C428.659 347.206 423.042 347.259 416.894 347.259C413.794 347.259 411.092 346.994 408.787 346.438C406.482 345.882 404.6 345.007 403.117 343.815C401.633 342.596 400.52 341.006 399.831 339.046C399.116 337.085 398.771 334.647 398.771 331.759V321.426C398.771 320.472 398.983 319.836 399.381 319.492C399.778 319.147 400.467 318.988 401.421 318.988H459.288V316.047H401.421C399.672 316.047 398.798 315.067 398.798 313.106V306.933C398.798 305.926 399.01 305.237 399.407 304.919C399.805 304.575 400.494 304.416 401.447 304.416H474.205C475.159 304.416 475.821 304.575 476.245 304.919C476.643 305.263 476.855 305.926 476.855 306.933V328.103C476.855 329.11 476.643 329.799 476.245 330.143C475.848 330.488 475.159 330.646 474.205 330.646H416.338V332.263C416.338 333.349 416.736 334.011 417.557 334.25C418.378 334.488 419.624 334.594 421.293 334.594C426.963 334.594 432.183 334.568 436.952 334.488C441.721 334.409 446.225 334.329 450.491 334.17C454.757 334.011 458.811 333.879 462.706 333.667C466.601 333.455 470.522 333.19 474.523 332.846C475.477 332.766 476.113 332.899 476.457 333.19C476.802 333.508 477.04 334.011 477.173 334.753L478.073 342.967L477.994 343.02ZM474.152 251C475.106 251 475.768 251.159 476.192 251.503C476.59 251.848 476.802 252.51 476.802 253.544V260.83C476.802 261.837 476.59 262.526 476.192 262.844C475.795 263.188 475.106 263.347 474.152 263.347H418.325V265.785C418.325 267.136 418.59 267.957 419.147 268.275C419.677 268.567 420.948 268.699 422.883 268.62C426.936 268.567 431.123 268.461 435.442 268.355C439.76 268.249 444.106 268.116 448.451 267.957C452.796 267.798 457.142 267.586 461.434 267.348C465.726 267.109 469.86 266.818 473.861 266.474C474.814 266.341 475.45 266.474 475.795 266.871C476.139 267.268 476.378 267.984 476.51 268.991L477.411 276.277C477.544 277.284 477.385 277.946 476.908 278.264C476.431 278.582 475.715 278.768 474.788 278.821C465.329 279.563 455.102 280.172 444.132 280.649C433.163 281.126 421.717 281.364 409.82 281.364C408.124 281.364 406.614 281.179 405.263 280.808C403.912 280.437 402.772 279.801 401.818 278.874C400.865 277.946 400.149 276.727 399.646 275.164C399.142 273.601 398.877 271.64 398.877 269.282V253.544C398.877 252.537 399.089 251.848 399.487 251.503C399.884 251.159 400.573 251 401.527 251H474.179H474.152Z" fill="#E24444"/>
<path d="M494.049 347.262C493.122 347.262 492.459 347.103 492.062 346.759C491.665 346.414 491.453 345.752 491.453 344.771V332.212C491.453 331.205 491.665 330.543 492.062 330.225C492.459 329.881 493.122 329.722 494.049 329.722H507.403C508.33 329.722 508.993 329.881 509.39 330.225C509.788 330.57 510 331.232 510 332.212V344.771C510 345.778 509.814 346.441 509.39 346.759C508.993 347.076 508.33 347.262 507.403 347.262H494.049Z" fill="#4A734E"/>
<path d="M825.253 0H1057.67L1303 377H598L825.253 0Z" fill="url(#paint0_linear_1_906)"/>
<rect x="88" y="167" width="134" height="48" fill="#F7CE91"/>
<path d="M705.681 657.822C793.999 657.822 865.595 587.401 865.595 500.533C865.595 413.665 793.999 343.245 705.681 343.245C617.362 343.245 545.766 413.665 545.766 500.533C545.766 587.401 617.362 657.822 705.681 657.822Z" fill="#E24444"/>
<path d="M695.332 401.371L676.535 406.199C674.986 406.602 674.071 408.248 674.529 409.821L679.421 427.378C680.196 430.122 677.063 432.243 674.951 430.414L659.428 416.88C658.372 415.966 656.858 415.966 655.837 416.88L640.314 430.414C638.202 432.243 635.069 430.122 635.843 427.378L640.736 409.821C641.194 408.248 640.279 406.602 638.73 406.199L619.933 401.371C617.117 400.639 617.117 396.469 619.933 395.738L638.73 390.909C640.279 390.507 641.194 388.861 640.736 387.288L635.843 369.73C635.069 366.987 638.202 364.865 640.314 366.694L655.837 380.228C656.893 381.143 658.407 381.143 659.428 380.228L674.951 366.694C677.063 364.865 680.196 366.987 679.421 369.73L674.529 387.288C674.071 388.861 674.986 390.507 676.535 390.909L695.332 395.738C698.148 396.469 698.148 400.639 695.332 401.371Z" fill="#4A734E"/>
<path d="M1209.82 657.822C1298.14 657.822 1369.73 587.401 1369.73 500.533C1369.73 413.665 1298.14 343.245 1209.82 343.245C1121.5 343.245 1049.9 413.665 1049.9 500.533C1049.9 587.401 1121.5 657.822 1209.82 657.822Z" fill="#E24444"/>
<path d="M1220.2 401.371L1239 406.199C1240.55 406.602 1241.46 408.248 1241 409.821L1236.11 427.378C1235.34 430.122 1238.47 432.243 1240.58 430.414L1256.11 416.88C1257.16 415.966 1258.67 415.966 1259.7 416.88L1275.22 430.414C1277.33 432.243 1280.46 430.122 1279.69 427.378L1274.8 409.821C1274.34 408.248 1275.25 406.602 1276.8 406.199L1295.6 401.371C1298.42 400.639 1298.42 396.469 1295.6 395.738L1276.8 390.909C1275.25 390.507 1274.34 388.861 1274.8 387.288L1279.69 369.73C1280.46 366.987 1277.33 364.865 1275.22 366.694L1259.7 380.228C1258.64 381.143 1257.13 381.143 1256.11 380.228L1240.58 366.694C1238.47 364.865 1235.34 366.987 1236.11 369.73L1241 387.288C1241.46 388.861 1240.55 390.507 1239 390.909L1220.2 395.738C1217.38 396.469 1217.38 400.639 1220.2 401.371Z" fill="#4A734E"/>
<path d="M1343.45 488.527C1344.04 502.822 1344.46 512.475 1342.09 523.65C1339.5 536.014 1337.34 543.291 1330.99 549.826C1324.39 556.62 1313.71 559.516 1305.79 554.652C1300.97 551.682 1297.83 546.41 1295.18 541.212C1290.81 532.672 1287.15 523.242 1287.88 513.552C1288.51 505.272 1292.28 497.661 1295.95 490.31C1300.13 481.993 1304.85 473.156 1312.98 469.369C1322.16 465.1 1330.99 470.112 1331.55 470.409C1331.96 470.632 1341.53 476.015 1343.2 486.04C1343.38 487.117 1343.41 487.97 1343.45 488.527Z" fill="#F5F1DE"/>
<path d="M1332.33 479.875C1336.01 482.956 1336.27 488.899 1336.4 491.613C1336.63 496.968 1335.32 500.967 1334.3 504.195C1332.19 510.687 1328.84 517.07 1323.49 520.554C1321.97 521.545 1320.23 522.315 1318.49 522.022C1316.88 521.765 1315.47 520.628 1314.25 519.381C1309.42 514.429 1306.53 507.203 1306.5 499.866C1306.5 492.53 1309.29 485.267 1314.12 480.279C1316.16 478.188 1318.92 475.29 1322.57 475.437C1325.88 475.547 1329.86 478.151 1331.21 479.031C1331.8 479.435 1332.1 479.618 1332.36 479.838L1332.33 479.875Z" fill="#222222"/>
<path d="M1276.1 488.527C1276.7 502.822 1277.12 512.475 1274.74 523.65C1272.16 536.014 1270 543.291 1263.64 549.826C1257.05 556.62 1246.37 559.516 1238.45 554.652C1233.63 551.682 1230.49 546.41 1227.84 541.212C1223.47 532.672 1219.81 523.242 1220.54 513.552C1221.17 505.272 1224.94 497.661 1228.6 490.31C1232.79 481.993 1237.5 473.156 1245.63 469.369C1254.81 465.1 1263.64 470.112 1264.2 470.409C1264.62 470.632 1274.18 476.015 1275.86 486.04C1276.03 487.117 1276.07 487.97 1276.1 488.527Z" fill="#F5F1DE"/>
<path d="M1268.21 479.875C1272.35 482.956 1272.65 488.899 1272.79 491.613C1273.05 496.968 1271.57 500.967 1270.43 504.195C1268.06 510.687 1264.29 517.07 1258.27 520.554C1256.57 521.545 1254.61 522.315 1252.65 522.022C1250.83 521.765 1249.25 520.628 1247.88 519.381C1242.44 514.429 1239.19 507.203 1239.15 499.866C1239.15 492.53 1242.3 485.267 1247.73 480.279C1250.02 478.188 1253.13 475.29 1257.23 475.437C1260.96 475.547 1265.44 478.151 1266.95 479.031C1267.62 479.435 1267.95 479.618 1268.25 479.838L1268.21 479.875Z" fill="#222222"/>
<path d="M958.557 658.156C1047.41 658.156 1119.43 587.661 1119.43 500.701C1119.43 413.74 1047.41 343.245 958.557 343.245C869.709 343.245 797.682 413.74 797.682 500.701C797.682 587.661 869.709 658.156 958.557 658.156Z" fill="#E24444"/>
<path d="M993.885 402.479L975.338 407.382C973.809 407.79 972.906 409.462 973.358 411.059L978.186 428.888C978.95 431.674 975.859 433.828 973.775 431.971L958.457 418.228C957.415 417.299 955.922 417.299 954.914 418.228L939.597 431.971C937.513 433.828 934.422 431.674 935.186 428.888L940.014 411.059C940.465 409.462 939.562 407.79 938.034 407.382L919.486 402.479C916.708 401.736 916.708 397.502 919.486 396.759L938.034 391.856C939.562 391.447 940.465 389.776 940.014 388.179L935.186 370.35C934.422 367.564 937.513 365.41 939.597 367.267L954.914 381.01C955.956 381.939 957.45 381.939 958.457 381.01L973.775 367.267C975.859 365.41 978.95 367.564 978.186 370.35L973.358 388.179C972.906 389.776 973.809 391.447 975.338 391.856L993.885 396.759C996.664 397.502 996.664 401.736 993.885 402.479Z" fill="#4A734E"/>
<path d="M1082.24 401.562C1082.24 401.562 1082.09 401.746 1082.02 401.855C1089.62 411.011 1117.64 446.937 1117.02 500.515C1116.44 551.933 1089.88 586.247 1082.02 595.733C1082.09 595.806 1082.13 595.879 1082.2 595.952C1089.66 587.639 1118.73 553.288 1119.42 500.589C1120.11 445.582 1089.37 409.509 1082.28 401.562H1082.24Z" fill="#963030"/>
<path d="M831.137 401.564C831.137 401.564 831.282 401.748 831.355 401.857C823.751 411.013 795.737 446.939 796.355 500.517C796.937 551.935 823.497 586.249 831.355 595.735C831.282 595.808 831.246 595.881 831.173 595.954C823.715 587.641 794.645 553.29 793.954 500.59C793.263 445.584 824.006 409.511 831.1 401.564H831.137Z" fill="#963030"/>
<path d="M1194.52 205.624L1221.69 247.233L1149.52 294.183L1156.5 260.003L1122.35 252.574L1194.52 205.624Z" fill="#F2AD48"/>
<path d="M1278.8 223.811L1236.93 250.521L1283.4 323.07L1291.09 289.047L1325.27 296.36L1278.8 223.811Z" fill="#F2AD48"/>
<path d="M1263.35 100.845C1263.69 100.628 1264.15 100.726 1264.37 101.066L1280.08 124.825C1280.23 125.044 1280.48 125.171 1280.74 125.161L1309.21 124.059C1309.62 124.044 1309.96 124.357 1309.99 124.764L1311.71 153.167C1311.73 153.429 1311.88 153.663 1312.11 153.786L1337.34 167.048C1337.7 167.238 1337.84 167.682 1337.66 168.048L1324.93 193.484C1324.81 193.719 1324.83 193.999 1324.97 194.221L1340.19 218.291C1340.41 218.636 1340.31 219.093 1339.97 219.318L1316.2 234.975C1315.98 235.119 1315.85 235.368 1315.86 235.631L1317 264.06C1317.02 264.468 1316.71 264.814 1316.3 264.838L1287.86 266.52C1287.6 266.536 1287.36 266.687 1287.24 266.919L1273.99 292.092C1273.8 292.453 1273.36 292.596 1272.99 292.413L1247.5 279.667C1247.27 279.55 1246.99 279.564 1246.77 279.703L1222.68 294.874C1222.34 295.091 1221.88 294.993 1221.66 294.653L1205.94 270.894C1205.8 270.675 1205.55 270.548 1205.29 270.558L1176.82 271.66C1176.41 271.675 1176.06 271.362 1176.04 270.955L1174.32 242.552C1174.3 242.29 1174.15 242.056 1173.92 241.934L1148.69 228.671C1148.33 228.481 1148.19 228.037 1148.37 227.672L1161.1 202.235C1161.21 202 1161.2 201.72 1161.06 201.498L1145.84 177.428C1145.62 177.083 1145.72 176.626 1146.06 176.401L1169.83 160.744C1170.05 160.6 1170.17 160.351 1170.16 160.088L1169.02 131.659C1169.01 131.251 1169.32 130.905 1169.73 130.881L1198.17 129.199C1198.43 129.183 1198.66 129.032 1198.79 128.8L1212.03 103.627C1212.22 103.266 1212.67 103.123 1213.03 103.306L1238.53 116.052C1238.76 116.169 1239.04 116.155 1239.26 116.016L1263.35 100.845Z" fill="#4A734E"/>
<path d="M1259.54 116.887C1259.88 116.67 1260.34 116.768 1260.57 117.108L1273.57 136.777C1273.72 136.996 1273.97 137.123 1274.23 137.113L1297.8 136.201C1298.21 136.186 1298.55 136.499 1298.58 136.906L1300 160.419C1300.02 160.681 1300.17 160.916 1300.4 161.038L1321.29 172.017C1321.65 172.207 1321.79 172.652 1321.61 173.017L1311.07 194.074C1310.95 194.309 1310.97 194.589 1311.11 194.811L1323.71 214.737C1323.93 215.083 1323.83 215.54 1323.49 215.764L1303.81 228.726C1303.59 228.87 1303.46 229.119 1303.48 229.382L1304.42 252.917C1304.44 253.325 1304.12 253.671 1303.71 253.695L1280.17 255.087C1279.91 255.103 1279.67 255.254 1279.55 255.486L1268.58 276.326C1268.39 276.687 1267.95 276.83 1267.59 276.647L1246.48 266.095C1246.25 265.978 1245.97 265.991 1245.75 266.131L1225.81 278.69C1225.46 278.908 1225.01 278.809 1224.78 278.469L1211.77 258.8C1211.63 258.582 1211.38 258.454 1211.12 258.464L1187.55 259.376C1187.14 259.392 1186.79 259.079 1186.77 258.672L1185.34 235.158C1185.33 234.896 1185.18 234.662 1184.94 234.539L1164.06 223.56C1163.7 223.37 1163.56 222.926 1163.74 222.56L1174.28 201.503C1174.39 201.268 1174.38 200.989 1174.24 200.766L1161.64 180.84C1161.42 180.495 1161.52 180.038 1161.86 179.813L1181.53 166.852C1181.75 166.707 1181.88 166.458 1181.87 166.196L1180.93 142.661C1180.91 142.252 1181.22 141.906 1181.63 141.882L1205.18 140.49C1205.44 140.475 1205.67 140.323 1205.79 140.091L1216.76 119.252C1216.95 118.891 1217.39 118.748 1217.76 118.93L1238.86 129.483C1239.1 129.6 1239.38 129.586 1239.6 129.446L1259.54 116.887Z" fill="#F5F1DE"/>
<path d="M1231.25 244.848C1259.57 250.96 1287.18 234.324 1292.91 207.69C1298.64 181.056 1280.32 154.51 1251.99 148.398C1223.67 142.286 1196.06 158.922 1190.33 185.556C1184.6 212.19 1202.92 238.736 1231.25 244.848Z" fill="#E24444"/>
<path d="M1259.36 168.969L1253.12 169.194C1252.61 169.214 1252.21 169.664 1252.25 170.184L1252.61 175.977C1252.67 176.883 1251.54 177.33 1251 176.618L1247.02 171.355C1246.75 170.999 1246.28 170.896 1245.89 171.111L1240.11 174.267C1239.32 174.692 1238.47 173.82 1238.9 173.019L1241.62 167.891C1241.86 167.433 1241.69 166.858 1241.23 166.628L1235.64 163.851C1234.8 163.432 1235.08 162.135 1236.01 162.099L1242.25 161.873C1242.76 161.853 1243.16 161.403 1243.12 160.883L1242.76 155.09C1242.7 154.184 1243.83 153.737 1244.37 154.449L1248.35 159.712C1248.62 160.068 1249.09 160.171 1249.48 159.956L1255.26 156.801C1256.05 156.375 1256.89 157.248 1256.47 158.048L1253.75 163.177C1253.5 163.635 1253.68 164.209 1254.14 164.439L1259.73 167.217C1260.57 167.635 1260.29 168.932 1259.36 168.969Z" fill="#4A734E"/>
<path d="M1226.68 182.411C1224.22 183.648 1223.13 185.847 1221.81 188.617C1220.53 191.312 1219.51 193.455 1219.4 196.559C1219.34 198.384 1219.25 200.859 1220.67 203.184C1223.09 207.13 1229.09 209.524 1233.13 207.281C1235.42 206.019 1237.01 203.749 1237.93 201.31C1238.85 198.87 1239.13 196.233 1239.32 193.636C1239.63 189.144 1239.39 185.608 1236.84 183.399C1233.84 180.795 1229.2 181.642 1228.87 181.715C1228.39 181.814 1227.61 181.967 1226.68 182.436L1226.68 182.411Z" fill="#F5F1DE"/>
<path d="M1230.64 187.7C1228.74 187.927 1227.55 189.325 1227.41 189.509C1226.75 190.291 1226.49 191.241 1226.18 193.187C1225.99 194.345 1225.88 195.509 1225.83 196.684C1225.79 197.538 1225.79 198.402 1226.05 199.214C1226.45 200.498 1227.5 201.541 1228.77 201.933C1230.03 202.326 1231.49 202.041 1232.53 201.199C1233.52 200.405 1234.1 199.2 1234.61 198.039C1235.33 196.374 1235.99 194.645 1236.05 192.836C1236.09 191.587 1235.99 190.007 1234.86 188.911C1233.56 187.673 1231.48 187.679 1231.14 187.688C1231.02 187.687 1230.86 187.689 1230.64 187.714L1230.64 187.7Z" fill="#222222"/>
<path d="M1259.89 189.579C1261.62 191.719 1261.71 194.173 1261.78 197.243C1261.84 200.227 1261.88 202.601 1260.71 205.474C1260.01 207.162 1259.08 209.455 1256.82 210.985C1253 213.586 1246.54 213.291 1243.78 209.58C1242.22 207.489 1241.7 204.762 1241.87 202.161C1242.03 199.559 1242.86 197.04 1243.76 194.596C1245.32 190.373 1246.99 187.249 1250.22 186.287C1254.02 185.15 1257.91 187.838 1258.17 188.039C1258.58 188.329 1259.23 188.791 1259.87 189.599L1259.89 189.579Z" fill="#F5F1DE"/>
<path d="M1254.5 192.848C1255.92 193.788 1256.32 195.529 1256.36 195.755C1256.58 196.724 1256.42 197.697 1255.92 199.602C1255.62 200.737 1255.26 201.846 1254.85 202.943C1254.55 203.742 1254.21 204.533 1253.69 205.176C1252.88 206.2 1251.65 206.748 1250.5 206.619C1249.34 206.491 1248.3 205.666 1247.8 204.491C1247.32 203.381 1247.33 202.052 1247.37 200.791C1247.44 198.984 1247.59 197.145 1248.24 195.464C1248.68 194.302 1249.37 192.892 1250.69 192.326C1252.2 191.691 1253.84 192.502 1254.11 192.644C1254.21 192.688 1254.33 192.75 1254.49 192.858L1254.5 192.848Z" fill="#222222"/>
<path d="M897.193 398.719L934.222 388.105C955.627 381.969 968.019 359.593 961.839 338.086L954.833 313.703L840.304 346.533L847.311 370.917C853.433 392.392 875.788 404.855 897.193 398.719Z" fill="#533566"/>
<path d="M880.579 295.337L822.191 350.153C818.578 353.536 820.332 359.643 825.192 360.597L903.798 376.143C908.411 377.071 913.09 375.73 916.508 372.499L974.896 317.683C978.51 314.3 976.755 308.193 971.895 307.239L893.29 291.693C888.72 290.752 883.998 292.106 880.579 295.337Z" fill="#321B41"/>
<path d="M902.486 330.051C900.766 328.054 897.776 327.953 895.843 329.705L863.953 359.679C862.682 360.905 862.231 362.663 862.714 364.344L872.809 399.476C869.894 402.131 868.547 406.253 869.704 410.279C869.958 411.164 870.332 411.967 870.794 412.744L870.832 412.877C870.94 413.085 871.105 413.326 871.257 413.521C871.269 413.566 871.339 413.642 871.352 413.686C871.459 413.894 871.655 414.078 871.807 414.274C871.82 414.318 871.889 414.394 871.889 414.394C872.332 414.937 872.907 415.443 873.444 415.816C873.526 415.936 873.627 415.955 873.741 416.018L874.672 429.065C875.161 436.252 882.11 441.156 889.038 439.17C895.966 437.184 899.255 429.345 895.853 422.993L889.715 411.439C890.632 409.308 890.847 406.9 890.148 404.466C889.741 403.051 889.095 401.799 888.235 400.801C888.222 400.756 888.152 400.68 888.051 400.661C887.956 400.497 887.761 400.314 887.621 400.162C887.425 399.979 887.274 399.783 887.034 399.612C886.977 399.581 886.951 399.492 886.85 399.473C885.39 398.216 883.566 397.35 881.647 396.99L872.328 364.557L902.04 336.644C903.884 334.918 904.124 331.928 902.442 330.064L902.486 330.051Z" fill="#FFB02E"/>
<path d="M587.957 480.083C587.345 492.764 586.913 501.328 589.36 511.242C592.023 522.21 594.254 528.666 600.804 534.463C607.605 540.491 618.617 543.06 626.786 538.745C631.752 536.11 634.99 531.433 637.725 526.822C642.223 519.246 646.002 510.88 645.246 502.283C644.598 494.938 640.712 488.186 636.934 481.664C632.615 474.286 627.757 466.447 619.372 463.087C609.908 459.299 600.804 463.746 600.228 464.009C599.796 464.207 589.936 468.983 588.209 477.876C588.029 478.831 587.993 479.589 587.957 480.083Z" fill="#F5F1DE"/>
<path d="M652.514 480.083C651.945 492.764 651.543 501.328 653.819 511.242C656.296 522.21 658.372 528.666 664.464 534.463C670.791 540.491 681.034 543.06 688.633 538.745C693.253 536.11 696.265 531.433 698.81 526.822C702.994 519.246 706.509 510.88 705.806 502.283C705.203 494.938 701.588 488.186 698.073 481.664C694.056 474.286 689.537 466.447 681.737 463.087C672.933 459.299 664.464 463.746 663.929 464.009C663.527 464.207 654.355 468.983 652.748 477.876C652.581 478.831 652.547 479.589 652.514 480.083Z" fill="#F5F1DE"/>
<path d="M660.533 487.178C656.562 490.02 656.278 495.5 656.137 498.003C655.888 502.942 657.307 506.629 658.406 509.606C660.675 515.594 664.292 521.48 670.071 524.694C671.702 525.607 673.582 526.317 675.461 526.047C677.198 525.81 678.723 524.761 680.035 523.611C685.247 519.044 688.367 512.38 688.403 505.615C688.403 498.849 685.389 492.151 680.177 487.55C677.978 485.622 675 482.949 671.064 483.085C667.483 483.186 663.193 485.588 661.739 486.4C661.101 486.772 660.781 486.941 660.498 487.144L660.533 487.178Z" fill="#222222"/>
<path d="M595.943 487.178C591.972 490.02 591.689 495.5 591.547 498.003C591.298 502.942 592.717 506.629 593.816 509.606C596.085 515.594 599.702 521.48 605.481 524.694C607.113 525.607 608.992 526.317 610.871 526.047C612.608 525.81 614.133 524.761 615.445 523.611C620.657 519.044 623.778 512.38 623.813 505.615C623.813 498.849 620.799 492.151 615.587 487.55C613.388 485.622 610.41 482.949 606.474 483.085C602.893 483.186 598.603 485.588 597.149 486.4C596.511 486.772 596.192 486.941 595.908 487.144L595.943 487.178Z" fill="#222222"/>
<path d="M478.138 437.135C474.666 424.998 462.113 417.859 449.916 421.25C449.649 421.25 449.204 421.429 448.848 421.518C432.199 427.051 430.864 449.806 445.821 458.106L479.029 476.578C481.789 478.095 485.35 477.113 486.863 474.347C488.377 471.581 487.397 468.011 484.638 466.494L451.341 448.022C444.752 444.363 445.821 434.904 452.409 432.673C452.409 432.673 452.587 432.673 452.676 432.673C452.676 432.673 452.765 432.673 452.854 432.673C458.908 430.977 465.14 434.457 466.832 440.526C467.722 443.649 470.927 445.434 474.043 444.541C477.159 443.649 478.94 440.436 478.049 437.313L478.138 437.135Z" fill="#D3883E"/>
<path d="M557.999 440.256C559.691 434.188 566.012 430.708 571.977 432.403C571.977 432.403 572.066 432.403 572.155 432.403C572.333 432.403 572.422 432.403 572.422 432.403C579.01 434.634 580.078 444.093 573.49 447.752L540.193 466.225C537.433 467.742 536.365 471.311 537.968 474.078C539.481 476.844 543.042 477.915 545.802 476.308L579.099 457.836C594.056 449.537 592.721 426.87 576.072 421.248C575.627 421.07 575.182 420.981 575.004 420.981C562.807 417.59 550.254 424.729 546.781 436.865C545.891 439.988 547.672 443.201 550.788 444.093C553.904 444.986 557.109 443.201 557.999 440.078V440.256Z" fill="#D3883E"/>
<path d="M523.63 504.045V475.756H501.284V504.045C501.284 509.042 499.058 513.772 495.23 516.895L482.409 527.604H542.504L529.684 516.895C525.856 513.683 523.63 508.953 523.63 504.045Z" fill="#D3883E"/>
<path d="M512.501 497.537C486.772 497.537 465.85 476.655 465.85 450.776V404.729C465.85 402.141 467.987 399.999 470.568 399.999H554.434C557.016 399.999 559.153 402.141 559.153 404.729V450.776C559.153 476.566 538.32 497.537 512.412 497.537H512.501Z" fill="#FFB02E"/>
<path d="M560.223 527.703H462.558C457.394 527.703 453.032 531.094 452.052 535.913L441.28 583.477C440.746 585.708 442.526 587.76 444.93 587.76H577.94C580.344 587.76 582.124 585.708 581.59 583.477L570.818 535.913C569.749 531.183 565.387 527.703 560.223 527.703Z" fill="#6D4534"/>
<path d="M530.755 547.333H492.205C489.979 547.333 488.11 549.207 488.11 551.616V563.753C488.11 566.073 489.89 568.036 492.205 568.036H530.755C532.98 568.036 534.85 566.162 534.85 563.753V551.616C534.85 549.296 533.07 547.333 530.755 547.333Z" fill="#FFB02E"/>
<path d="M907.7 464.935C901.12 470.152 899.26 477.342 897.079 486.365C894.969 495.141 893.288 502.12 894.969 511.354C895.97 516.782 897.293 524.149 903.087 530.105C912.886 540.221 932.484 543.464 943.177 534.264C949.221 529.083 952.547 521.364 953.727 513.575C954.907 505.786 954.049 497.82 952.941 490.03C950.974 476.566 947.969 466.275 938.886 461.375C928.192 455.595 914.781 461.058 913.851 461.481C912.457 462.08 910.204 463.032 907.736 465.006L907.7 464.935Z" fill="#F5F1DE"/>
<path d="M1011.39 464.935C1017.97 470.152 1019.83 477.342 1022.01 486.365C1024.12 495.141 1025.8 502.12 1024.12 511.354C1023.12 516.782 1021.8 524.149 1016.01 530.105C1006.21 540.221 986.608 543.464 975.915 534.264C969.871 529.083 966.545 521.364 965.364 513.575C964.184 505.786 965.043 497.82 966.151 490.03C968.118 476.566 971.122 466.275 980.206 461.375C990.899 455.595 1004.31 461.058 1005.24 461.481C1006.64 462.08 1008.89 463.032 1011.36 465.006L1011.39 464.935Z" fill="#F5F1DE"/>
<path d="M922.267 477.635C916.722 479.546 914.056 484.521 913.736 485.17C912.279 487.946 912.101 490.974 912.421 497.031C912.599 500.637 913.025 504.206 913.63 507.775C914.056 510.371 914.625 512.967 915.94 515.238C917.966 518.843 921.805 521.295 925.857 521.655C929.909 522.016 934.103 520.213 936.698 517.005C939.15 513.976 940.11 509.974 940.892 506.153C941.994 500.673 942.847 495.048 941.852 489.568C941.176 485.783 939.861 481.096 935.738 478.536C931.046 475.652 924.79 477.022 923.76 477.274C923.404 477.346 922.942 477.454 922.302 477.671L922.267 477.635Z" fill="#222222"/>
<path d="M997.823 477.635C1002.81 479.546 1005.21 484.521 1005.5 485.17C1006.81 487.946 1006.97 490.974 1006.68 497.031C1006.52 500.637 1006.14 504.206 1005.6 507.775C1005.21 510.371 1004.7 512.967 1003.52 515.238C1001.69 518.843 998.238 521.295 994.592 521.655C990.945 522.016 987.17 520.213 984.835 517.005C982.627 513.976 981.764 509.974 981.06 506.153C980.068 500.673 979.3 495.048 980.196 489.568C980.804 485.783 981.988 481.096 985.698 478.536C989.921 475.652 995.551 477.022 996.479 477.274C996.799 477.346 997.215 477.454 997.79 477.671L997.823 477.635Z" fill="#222222"/>
<path d="M126.112 99.6V142.32H120.448V120.912H116.416V140.208H110.848V100.368H116.416V116.112H120.448V99.6H126.112ZM90.496 132.624V104.592H106.432V109.392H96.448V127.632C100.576 127.584 104.224 127.344 108.352 126.576L108.832 131.472C103.6 132.48 99.088 132.624 93.472 132.624H90.496ZM144.076 102.192C150.844 102.192 155.884 106.512 155.884 112.656C155.884 117.84 152.284 121.728 147.052 122.832V128.544C150.652 128.352 154.3 128.016 157.708 127.536L158.188 131.856C148.732 133.632 138.604 133.728 131.116 133.776L130.444 128.88C133.612 128.88 137.26 128.88 141.1 128.784V122.784C135.916 121.728 132.22 117.84 132.268 112.656C132.22 106.512 137.356 102.192 144.076 102.192ZM138.22 112.656C138.172 115.968 140.716 117.984 144.076 118.032C147.484 117.984 150.076 115.968 150.124 112.656C150.076 109.248 147.484 107.328 144.076 107.28C140.716 107.328 138.172 109.248 138.22 112.656ZM160.204 142.416V99.6H166.156V142.416H160.204ZM205.337 99.6V109.776H210.809V114.672H205.337V124.752H199.385V99.6H205.337ZM170.777 120.24C173.897 120.24 177.449 120.192 181.145 120.144V118.224C176.489 117.648 173.657 115.728 173.657 112.656C173.657 109.2 177.737 107.184 184.121 107.184C190.457 107.184 194.537 109.2 194.585 112.656C194.537 115.728 191.705 117.648 187.097 118.224V119.904C190.601 119.712 194.105 119.424 197.369 118.992L197.849 122.736C188.777 124.272 178.841 124.32 171.449 124.272L170.777 120.24ZM171.929 106.32V102.288H181.145V99.312H187.097V102.288H196.313V106.32H171.929ZM176.441 130.224V126.288H205.337V135.888H182.489V138H206.777V142.032H176.537V132.24H199.385V130.224H176.441ZM179.417 112.656C179.369 113.952 181.097 114.624 184.121 114.672C187.097 114.624 188.825 113.952 188.825 112.656C188.825 111.456 187.097 110.928 184.121 110.928C181.097 110.928 179.369 111.456 179.417 112.656ZM251.237 119.76V124.56H212.261V119.76H228.869V116.112H216.965V101.52H246.629V106.224H222.917V111.408H246.821V116.112H234.725V119.76H251.237ZM216.773 134.544C216.725 129.456 222.341 126.672 231.653 126.672C240.917 126.672 246.485 129.456 246.533 134.544C246.485 139.536 240.917 142.368 231.653 142.416C222.341 142.368 216.725 139.536 216.773 134.544ZM222.821 134.544C222.773 136.752 225.749 137.808 231.653 137.808C237.461 137.808 240.533 136.752 240.581 134.544C240.533 132.336 237.461 131.184 231.653 131.184C225.749 131.184 222.773 132.336 222.821 134.544ZM302.824 125.232V130.032H286.216V142.32H280.264V130.032H263.848V125.232H302.824ZM265.864 118.224C274.648 117.216 279.448 113.04 280.168 109.296H267.4V104.592H280.264V99.696H286.216V104.592H299.176V109.296H286.408C287.128 113.04 291.88 117.216 300.712 118.224L298.504 122.928C291.304 122.064 286.072 119.088 283.336 115.2C280.552 119.136 275.272 122.064 267.976 122.928L265.864 118.224ZM320.596 109.68C320.596 114.48 323.716 119.376 330.676 121.488L327.796 126.192C322.996 124.8 319.636 121.872 317.716 118.176C315.796 122.16 312.388 125.328 307.444 126.864L304.564 122.16C311.524 120.048 314.644 114.912 314.644 109.68V109.392H306.004V104.688H314.644V99.888H320.692V104.688H329.14V109.392H320.596V109.68ZM312.532 141.552V128.592H318.484V136.752H341.812V141.552H312.532ZM327.796 116.976V112.176H334.9V99.696H340.852V131.28H334.9V116.976H327.796ZM384.833 124.272V128.976H368.225V142.32H362.273V128.976H345.857V124.272H384.833ZM350.369 120.144V101.328H356.321V106.224H374.273V101.328H380.225V120.144H350.369ZM356.321 115.344H374.273V110.928H356.321V115.344ZM422.861 99.6V142.416H417.005V119.568H409.421V114.768H417.005V99.6H422.861ZM388.877 132.72V103.248H408.749V108.048H394.829V115.152H407.213V119.856H394.829V127.824C400.733 127.824 405.485 127.632 410.765 126.768L411.341 131.568C405.101 132.528 399.533 132.72 392.237 132.72H388.877ZM472.528 99.6V109.776H478V114.672H472.528V124.752H466.576V99.6H472.528ZM437.968 120.24C441.088 120.24 444.64 120.192 448.336 120.144V118.224C443.68 117.648 440.848 115.728 440.848 112.656C440.848 109.2 444.928 107.184 451.312 107.184C457.648 107.184 461.728 109.2 461.776 112.656C461.728 115.728 458.896 117.648 454.288 118.224V119.904C457.792 119.712 461.296 119.424 464.56 118.992L465.04 122.736C455.968 124.272 446.032 124.32 438.64 124.272L437.968 120.24ZM439.12 106.32V102.288H448.336V99.312H454.288V102.288H463.504V106.32H439.12ZM443.632 130.224V126.288H472.528V135.888H449.68V138H473.968V142.032H443.728V132.24H466.576V130.224H443.632ZM446.608 112.656C446.56 113.952 448.288 114.624 451.312 114.672C454.288 114.624 456.016 113.952 456.016 112.656C456.016 111.456 454.288 110.928 451.312 110.928C448.288 110.928 446.56 111.456 446.608 112.656ZM518.428 119.76V124.56H479.452V119.76H496.06V116.112H484.156V101.52H513.82V106.224H490.108V111.408H514.012V116.112H501.916V119.76H518.428ZM483.964 134.544C483.916 129.456 489.532 126.672 498.844 126.672C508.108 126.672 513.676 129.456 513.724 134.544C513.676 139.536 508.108 142.368 498.844 142.416C489.532 142.368 483.916 139.536 483.964 134.544ZM490.012 134.544C489.964 136.752 492.94 137.808 498.844 137.808C504.652 137.808 507.724 136.752 507.772 134.544C507.724 132.336 504.652 131.184 498.844 131.184C492.94 131.184 489.964 132.336 490.012 134.544ZM570.015 114.48V119.28H553.503V122.736H565.119V134.544H541.503V137.328H566.367V142.032H535.551V130.128H559.167V127.44H535.455V122.736H547.551V119.28H531.039V114.48H541.311C542.511 110.832 542.751 108.144 542.847 105.744H534.495V101.04H548.703V103.728C548.703 106.512 548.703 110.064 547.407 114.48H558.255C559.311 110.832 559.599 108.048 559.647 105.744H551.295V101.04H565.503V103.344C565.455 105.984 565.455 109.68 564.255 114.48H570.015ZM595.084 101.904V106.512H580.396V109.776H593.836V114.48H580.396V117.84C587.884 117.744 592.684 117.552 598.06 116.688L598.636 121.392C592.588 122.352 587.164 122.496 578.092 122.544H574.444V101.904H595.084ZM579.244 141.84V125.232H585.1V128.88H601.804V125.232H607.756V141.84H579.244ZM585.1 137.04H601.804V133.488H585.1V137.04ZM601.804 123.504V99.6H607.756V123.504H601.804ZM647.224 99.6V116.4H652.888V121.296H647.224V142.32H641.272V99.6H647.224ZM612.184 129.936C618.04 123.6 619.72 117.36 620.056 108.912H614.104V104.016H625.816C625.768 115.728 624.568 124.896 616.888 133.296L612.184 129.936ZM624.28 132.72C630.04 125.568 631.624 118.272 631.96 108.912H627.256V104.016H637.624C637.624 116.208 636.568 126.768 628.984 135.984L624.28 132.72ZM670.564 111.312C670.612 118.176 674.164 125.568 681.316 128.496L678.052 133.2C673.06 131.088 669.556 126.816 667.636 121.68C665.716 127.296 662.164 131.952 657.124 134.256L653.764 129.552C660.82 126.432 664.468 118.512 664.516 111.312V108.624H655.396V103.728H679.492V108.624H670.564V111.312ZM683.716 142.32V99.6H689.764V142.32H683.716Z" fill="#222222"/>
<path d="M123.136 171.696V184.752H128.896V189.648H123.136V203.568H117.088V171.696H123.136ZM89.248 180.912V176.208H98.944V171.6H104.896V176.208H114.592V180.912H89.248ZM91.36 190.704C91.36 185.712 95.68 182.4 101.92 182.352C108.112 182.4 112.432 185.712 112.48 190.704C112.432 195.552 108.112 198.816 101.92 198.768C95.68 198.816 91.36 195.552 91.36 190.704ZM95.392 213.552V201.072H101.44V208.752H124.672V213.552H95.392ZM97.216 190.704C97.168 193.008 99.088 194.256 101.92 194.256C104.8 194.256 106.72 193.008 106.72 190.704C106.72 188.256 104.8 186.96 101.92 186.96C99.088 186.96 97.168 188.256 97.216 190.704ZM176.835 171.696V203.184H170.883V187.824H163.011V196.464H142.659V174.48H148.707V181.008H157.059V174.48H163.011V183.024H170.883V171.696H176.835ZM148.419 213.552V200.016H154.467V208.752H177.699V213.552H148.419ZM148.707 191.76H157.059V185.616H148.707V191.76ZM218.799 171.6V214.32H213.135V171.6H218.799ZM182.223 190.128C182.223 180.576 185.871 174.672 191.535 174.672C196.623 174.672 200.175 179.472 200.847 187.44H204.303V172.272H209.967V212.304H204.303V192.24H200.847C200.319 200.592 196.767 205.632 191.535 205.584C185.871 205.632 182.223 199.728 182.223 190.128ZM187.695 190.128C187.695 196.704 189.135 199.92 191.535 199.92C193.983 199.92 195.423 196.704 195.375 190.128C195.423 183.6 193.983 180.336 191.535 180.336C189.135 180.336 187.695 183.6 187.695 190.128Z" fill="#E24444"/>
</g>
<defs>
<linearGradient id="paint0_linear_1_906" x1="950.5" y1="0" x2="950.5" y2="377" gradientUnits="userSpaceOnUse">
<stop stop-color="#FADEB6"/>
<stop offset="1" stop-color="#F2AD48" stop-opacity="0"/>
</linearGradient>
<clipPath id="clip0_1_906">
<rect width="1440" height="586" fill="white"/>
</clipPath>
</defs>
</svg>
