<svg width="411" height="568" viewBox="0 0 411 568" fill="none" xmlns="http://www.w3.org/2000/svg">
<rect width="411" height="568" rx="6" fill="#DBE3DC"/>
<path fill-rule="evenodd" clip-rule="evenodd" d="M411 451.484V548C411 559.045 402.046 568 391 568H20C8.95432 568 0 559.045 0 548V456.956C53.4916 423.028 127.822 402 210 402C287.665 402 358.32 420.782 411 451.484Z" fill="url(#paint0_linear_1_1028)"/>
<path d="M58.316 101.58C57.956 101.58 57.74 101.508 57.596 101.4C57.452 101.256 57.38 101.04 57.38 100.68V86.316H54.068C53.96 88.512 53.708 90.456 53.276 92.148C52.844 93.876 52.196 95.316 51.368 96.468C50.504 97.62 49.46 98.52 48.2 99.168C46.904 99.744 45.392 100.068 43.592 100.068C41.648 100.068 39.992 99.708 38.66 98.988C37.292 98.268 36.212 97.224 35.42 95.856C34.556 94.488 33.98 92.832 33.62 90.816C33.224 88.872 33.044 86.604 33.044 84.084C33.044 81.564 33.224 79.332 33.62 77.316C33.98 75.372 34.556 73.68 35.42 72.312C36.212 70.944 37.292 69.9 38.66 69.18C39.992 68.46 41.648 68.1 43.592 68.1C45.248 68.1 46.724 68.388 47.984 68.892C49.208 69.468 50.216 70.26 51.08 71.268C51.908 72.348 52.556 73.608 53.06 75.12C53.492 76.668 53.816 78.396 53.996 80.34H57.38V69C57.38 68.64 57.452 68.424 57.596 68.28C57.74 68.172 57.956 68.1 58.316 68.1H63.356C63.68 68.1 63.932 68.172 64.076 68.28C64.22 68.424 64.292 68.64 64.292 69V100.68C64.292 101.04 64.22 101.256 64.076 101.4C63.932 101.508 63.68 101.58 63.356 101.58H58.316ZM47.408 84.084C47.408 81.888 47.264 80.124 47.048 78.792C46.76 77.496 46.436 76.452 46.076 75.732C45.68 75.048 45.284 74.58 44.852 74.364C44.384 74.148 43.952 74.04 43.592 74.04C43.196 74.04 42.8 74.148 42.368 74.364C41.9 74.58 41.468 75.048 41.108 75.732C40.712 76.452 40.388 77.496 40.172 78.792C39.884 80.124 39.776 81.888 39.776 84.084C39.776 86.316 39.884 88.08 40.172 89.376C40.388 90.708 40.712 91.716 41.108 92.4C41.468 93.12 41.9 93.588 42.368 93.804C42.8 94.02 43.196 94.128 43.592 94.128C43.952 94.128 44.384 94.02 44.852 93.804C45.284 93.588 45.68 93.12 46.076 92.4C46.436 91.716 46.76 90.708 47.048 89.376C47.264 88.08 47.408 86.316 47.408 84.084ZM75.632 73.716C75.56 74.148 75.56 74.652 75.56 75.228C75.524 75.84 75.524 76.416 75.524 76.992C75.488 77.604 75.488 78.18 75.488 78.684V80.016C75.488 80.736 75.56 81.204 75.776 81.42C75.956 81.636 76.388 81.744 77.108 81.744H78.152C78.548 81.744 78.872 81.744 79.16 81.708H79.52C79.448 81.168 79.412 80.52 79.484 79.764C79.484 79.116 79.52 78.288 79.592 77.316C79.592 76.38 79.628 75.372 79.7 74.364C79.7 73.356 79.736 72.384 79.808 71.412C79.844 70.476 79.916 69.648 79.988 69C80.024 68.64 80.096 68.424 80.24 68.28C80.348 68.172 80.564 68.1 80.924 68.1H89.24C89.564 68.1 89.816 68.172 89.96 68.28C90.104 68.424 90.176 68.64 90.176 69V72.816C90.176 73.176 90.104 73.428 89.96 73.536C89.816 73.68 89.564 73.716 89.24 73.716H86.072C86 74.148 86 74.652 86 75.228C85.964 75.84 85.964 76.416 85.964 76.992C85.928 77.604 85.928 78.18 85.928 78.684V80.016C85.928 80.736 86 81.204 86.216 81.42C86.396 81.636 86.828 81.744 87.548 81.744H88.664C89.132 81.744 89.492 81.744 89.78 81.708C90.104 81.672 90.356 81.708 90.5 81.78C90.608 81.924 90.68 82.14 90.716 82.5L90.932 86.532C90.932 86.892 90.896 87.144 90.752 87.216C90.572 87.36 90.32 87.432 89.996 87.432C89.132 87.504 88.448 87.504 87.872 87.504C87.26 87.54 86.612 87.54 85.928 87.54C83.012 87.54 81.104 86.568 80.204 84.588L80.312 86.532C80.312 86.892 80.276 87.144 80.132 87.216C79.952 87.36 79.7 87.432 79.376 87.432C78.512 87.504 77.828 87.504 77.324 87.504C76.784 87.54 76.172 87.54 75.488 87.54C73.184 87.54 71.492 86.928 70.448 85.668C69.368 84.444 68.9 82.5 69.044 79.764C69.044 79.116 69.08 78.288 69.152 77.316C69.152 76.38 69.188 75.372 69.26 74.364C69.26 73.356 69.296 72.384 69.368 71.412C69.404 70.476 69.476 69.648 69.548 69C69.584 68.64 69.656 68.424 69.8 68.28C69.908 68.172 70.124 68.1 70.484 68.1H78.08C78.404 68.1 78.656 68.172 78.8 68.28C78.944 68.424 79.016 68.64 79.016 69V72.816C79.016 73.176 78.944 73.428 78.8 73.536C78.656 73.68 78.404 73.716 78.08 73.716H75.632ZM100.328 100.32C100.364 100.68 100.292 100.896 100.148 101.004C99.968 101.076 99.716 101.148 99.392 101.22C97.736 101.364 95.972 101.544 94.172 101.688L88.7 102.012L83.264 102.228C81.464 102.264 79.808 102.3 78.296 102.3C75.992 102.3 74.336 101.688 73.364 100.464C72.356 99.204 71.852 97.224 71.852 94.524V90.564C71.852 90.204 71.924 89.988 72.068 89.844C72.212 89.736 72.428 89.664 72.788 89.664H77.828C78.152 89.664 78.404 89.736 78.548 89.844C78.692 89.988 78.764 90.204 78.764 90.564V93.84C78.764 94.704 78.944 95.352 79.304 95.748C79.664 96.144 80.312 96.324 81.284 96.324C82.58 96.288 83.948 96.252 85.46 96.216C86.936 96.144 88.448 96.036 89.996 95.964C91.508 95.892 93.056 95.784 94.604 95.64C96.116 95.532 97.592 95.388 99.032 95.244C99.356 95.208 99.572 95.244 99.716 95.388C99.824 95.532 99.896 95.784 99.968 96.144L100.328 100.32ZM93.956 91.86C93.596 91.86 93.38 91.824 93.236 91.68C93.092 91.572 93.02 91.32 93.02 90.96V80.556H89.6C89.24 80.556 89.024 80.52 88.88 80.376C88.736 80.268 88.664 80.016 88.664 79.656V75.48C88.664 75.12 88.736 74.904 88.88 74.76C89.024 74.652 89.24 74.58 89.6 74.58H93.02V69C93.02 68.64 93.092 68.424 93.236 68.28C93.38 68.172 93.596 68.1 93.956 68.1H98.996C99.32 68.1 99.572 68.172 99.716 68.28C99.86 68.424 99.932 68.64 99.932 69V90.96C99.932 91.32 99.86 91.572 99.716 91.68C99.572 91.824 99.32 91.86 98.996 91.86H93.956Z" fill="#E24444"/>
<path d="M144.906 100.788C144.942 101.076 144.87 101.256 144.726 101.328C144.546 101.4 144.294 101.436 143.97 101.508C142.314 101.652 140.694 101.796 139.11 101.904C137.49 101.976 135.834 102.084 134.178 102.156L128.85 102.264C126.978 102.264 124.926 102.3 122.766 102.3C121.65 102.3 120.678 102.228 119.886 102.084C119.058 101.94 118.374 101.688 117.87 101.328C117.33 100.932 116.934 100.428 116.718 99.78C116.43 99.132 116.322 98.268 116.322 97.26V94.524C116.322 94.2 116.394 93.984 116.538 93.84C116.682 93.732 116.898 93.66 117.258 93.66H138.246V92.544H117.258C116.61 92.544 116.322 92.22 116.322 91.5V89.988C116.322 89.628 116.394 89.412 116.538 89.268C116.682 89.16 116.898 89.088 117.258 89.088H143.538C143.862 89.088 144.114 89.16 144.258 89.268C144.402 89.412 144.474 89.628 144.474 89.988V96.252C144.474 96.612 144.402 96.828 144.258 96.972C144.114 97.08 143.862 97.152 143.538 97.152H122.55V97.692C122.55 98.052 122.694 98.304 122.982 98.412C123.27 98.484 123.702 98.52 124.314 98.52C126.33 98.52 128.202 98.484 129.966 98.484L134.934 98.376C136.482 98.304 137.994 98.268 139.434 98.196C140.874 98.124 142.278 98.016 143.718 97.908C144.042 97.872 144.258 97.908 144.402 98.052C144.51 98.124 144.582 98.304 144.654 98.592L144.906 100.788ZM113.982 84.66C113.982 84.3 114.054 84.084 114.198 83.94C114.342 83.832 114.558 83.76 114.918 83.76H121.506V82.68C119.382 82.464 117.87 82.032 116.934 81.312C115.998 80.664 115.53 79.728 115.53 78.54C115.53 77.1 116.25 76.056 117.762 75.336C119.202 74.652 121.578 74.292 124.854 74.292C128.094 74.292 130.47 74.652 131.982 75.336C133.422 76.056 134.178 77.1 134.178 78.54C134.178 79.692 133.71 80.628 132.81 81.276C131.874 81.96 130.434 82.428 128.418 82.644V83.76H135.186C135.51 83.76 135.762 83.832 135.906 83.94C136.05 84.084 136.122 84.3 136.122 84.66V87.108C136.122 87.468 136.05 87.72 135.906 87.828C135.762 87.972 135.51 88.008 135.186 88.008H114.918C114.558 88.008 114.342 87.972 114.198 87.828C114.054 87.72 113.982 87.468 113.982 87.108V84.66ZM148.722 80.232C148.722 80.592 148.65 80.844 148.506 80.952C148.362 81.096 148.11 81.132 147.786 81.132H144.474V87.108C144.474 87.468 144.402 87.72 144.258 87.828C144.114 87.972 143.862 88.008 143.538 88.008H138.498C138.138 88.008 137.922 87.972 137.778 87.828C137.634 87.72 137.562 87.468 137.562 87.108V69C137.562 68.64 137.634 68.424 137.778 68.28C137.922 68.172 138.138 68.1 138.498 68.1H143.538C143.862 68.1 144.114 68.172 144.258 68.28C144.402 68.424 144.474 68.64 144.474 69V75.156H147.786C148.11 75.156 148.362 75.228 148.506 75.336C148.65 75.48 148.722 75.696 148.722 76.056V80.232ZM114.45 70.008C114.45 69.648 114.522 69.432 114.666 69.288C114.81 69.18 115.026 69.108 115.386 69.108H121.506V68.1C121.506 67.74 121.578 67.524 121.722 67.38C121.866 67.272 122.082 67.2 122.442 67.2H127.482C127.806 67.2 128.058 67.272 128.202 67.38C128.346 67.524 128.418 67.74 128.418 68.1V69.108H134.322C134.646 69.108 134.898 69.18 135.042 69.288C135.186 69.432 135.258 69.648 135.258 70.008V72.492C135.258 72.852 135.186 73.104 135.042 73.212C134.898 73.356 134.646 73.392 134.322 73.392H115.386C115.026 73.392 114.81 73.356 114.666 73.212C114.522 73.104 114.45 72.852 114.45 72.492V70.008ZM124.854 79.368C125.754 79.368 126.438 79.332 126.87 79.188C127.266 79.116 127.482 78.9 127.482 78.54C127.482 78.216 127.266 78 126.87 77.856C126.438 77.748 125.754 77.676 124.854 77.676C123.918 77.676 123.27 77.748 122.874 77.856C122.442 78 122.226 78.216 122.226 78.54C122.226 78.9 122.442 79.116 122.874 79.188C123.27 79.332 123.918 79.368 124.854 79.368ZM178.638 68.1C178.962 68.1 179.214 68.172 179.358 68.28C179.502 68.424 179.574 68.64 179.574 69V72.348C179.574 72.708 179.502 72.96 179.358 73.068C179.214 73.212 178.962 73.248 178.638 73.248H158.802V74.616C158.802 75.12 158.874 75.408 159.09 75.48C159.27 75.624 159.702 75.66 160.422 75.624C161.862 75.624 163.338 75.588 164.886 75.516C166.398 75.516 167.946 75.444 169.53 75.372C171.042 75.336 172.59 75.264 174.138 75.156C175.65 75.084 177.09 75.012 178.53 74.868C178.854 74.832 179.07 74.868 179.214 75.012C179.322 75.156 179.394 75.408 179.466 75.768L179.79 79.08C179.826 79.44 179.754 79.692 179.61 79.764C179.43 79.908 179.178 79.98 178.854 79.98C177.306 80.124 175.722 80.232 174.138 80.304C172.518 80.448 170.862 80.52 169.206 80.592V82.284H180.942C181.266 82.284 181.518 82.356 181.662 82.464C181.806 82.608 181.878 82.824 181.878 83.184V87.396C181.878 87.756 181.806 88.008 181.662 88.116C181.518 88.26 181.266 88.296 180.942 88.296H150.558C150.198 88.296 149.982 88.26 149.838 88.116C149.694 88.008 149.622 87.756 149.622 87.396V83.184C149.622 82.824 149.694 82.608 149.838 82.464C149.982 82.356 150.198 82.284 150.558 82.284H162.294V80.844C161.43 80.88 160.602 80.88 159.774 80.88H157.254C155.31 80.88 153.942 80.484 153.15 79.692C152.286 78.936 151.89 77.604 151.89 75.696V69C151.89 68.64 151.962 68.424 152.106 68.28C152.25 68.172 152.466 68.1 152.826 68.1H178.638ZM165.75 103.452C161.07 103.452 157.542 102.84 155.238 101.652C152.898 100.428 151.746 98.664 151.746 96.324C151.746 93.984 152.934 92.22 155.31 90.996C157.65 89.844 161.142 89.232 165.75 89.232C170.358 89.232 173.85 89.844 176.226 90.996C178.566 92.22 179.754 93.984 179.754 96.324C179.754 98.664 178.566 100.428 176.262 101.652C173.922 102.84 170.43 103.452 165.75 103.452ZM165.75 97.98C167.19 97.98 168.342 97.944 169.278 97.908C170.178 97.836 170.898 97.728 171.438 97.62C171.942 97.476 172.338 97.296 172.554 97.08C172.734 96.864 172.842 96.576 172.842 96.288C172.842 96 172.734 95.748 172.554 95.532C172.338 95.316 171.942 95.136 171.438 94.992C170.898 94.884 170.178 94.776 169.278 94.704C168.342 94.632 167.19 94.596 165.75 94.596C164.31 94.596 163.122 94.632 162.222 94.704C161.286 94.776 160.566 94.884 160.062 94.992C159.522 95.136 159.162 95.316 158.982 95.532C158.766 95.748 158.658 96 158.658 96.288C158.658 96.576 158.766 96.864 158.982 97.08C159.162 97.296 159.522 97.476 160.062 97.62C160.566 97.728 161.286 97.836 162.222 97.908C163.122 97.944 164.31 97.98 165.75 97.98ZM208.813 101.58C208.453 101.58 208.237 101.508 208.093 101.4C207.949 101.256 207.877 101.04 207.877 100.68V69C207.877 68.64 207.949 68.424 208.093 68.28C208.237 68.172 208.453 68.1 208.813 68.1H213.853C214.177 68.1 214.429 68.172 214.573 68.28C214.717 68.424 214.789 68.64 214.789 69V100.68C214.789 101.04 214.717 101.256 214.573 101.4C214.429 101.508 214.177 101.58 213.853 101.58H208.813ZM204.997 84.084C204.997 86.604 204.817 88.872 204.457 90.816C204.061 92.832 203.449 94.488 202.657 95.856C201.793 97.224 200.713 98.268 199.381 98.988C198.013 99.708 196.393 100.068 194.449 100.068C192.505 100.068 190.849 99.708 189.517 98.988C188.149 98.268 187.069 97.224 186.277 95.856C185.413 94.488 184.837 92.832 184.477 90.816C184.081 88.872 183.901 86.604 183.901 84.084C183.901 81.564 184.081 79.332 184.477 77.316C184.837 75.372 185.413 73.68 186.277 72.312C187.069 70.944 188.149 69.9 189.517 69.18C190.849 68.46 192.505 68.1 194.449 68.1C196.393 68.1 198.013 68.46 199.381 69.18C200.713 69.9 201.793 70.944 202.657 72.312C203.449 73.68 204.061 75.372 204.457 77.316C204.817 79.332 204.997 81.564 204.997 84.084ZM198.265 84.084C198.265 81.888 198.121 80.124 197.905 78.792C197.617 77.496 197.293 76.452 196.933 75.732C196.537 75.048 196.141 74.58 195.709 74.364C195.241 74.148 194.809 74.04 194.449 74.04C194.053 74.04 193.657 74.148 193.225 74.364C192.757 74.58 192.325 75.048 191.965 75.732C191.569 76.452 191.245 77.496 191.029 78.792C190.741 80.124 190.633 81.888 190.633 84.084C190.633 86.316 190.741 88.08 191.029 89.376C191.245 90.708 191.569 91.716 191.965 92.4C192.325 93.12 192.757 93.588 193.225 93.804C193.657 94.02 194.053 94.128 194.449 94.128C194.809 94.128 195.241 94.02 195.709 93.804C196.141 93.588 196.537 93.12 196.933 92.4C197.293 91.716 197.617 90.708 197.905 89.376C198.121 88.08 198.265 86.316 198.265 84.084ZM230.891 69C230.891 68.64 230.963 68.424 231.107 68.28C231.251 68.172 231.467 68.1 231.827 68.1H258.035C258.359 68.1 258.611 68.172 258.755 68.28C258.899 68.424 258.971 68.64 258.971 69V72.276C258.971 72.636 258.899 72.888 258.755 72.996C258.611 73.14 258.359 73.176 258.035 73.176H250.151C251.015 73.68 252.131 74.04 253.499 74.256C254.831 74.508 256.379 74.688 258.107 74.796C258.179 74.796 258.251 74.832 258.395 74.832C258.503 74.868 258.611 74.904 258.755 74.976C258.827 75.048 258.935 75.156 259.007 75.3C259.079 75.444 259.115 75.66 259.115 75.912V79.08C259.115 79.368 259.079 79.548 259.007 79.692C258.899 79.836 258.791 79.944 258.683 79.98C258.539 80.052 258.395 80.088 258.287 80.088C258.143 80.124 257.999 80.124 257.927 80.124C254.579 80.016 251.807 79.62 249.611 78.972C247.379 78.324 245.795 77.496 244.895 76.416C243.959 77.496 242.411 78.324 240.215 78.972C237.983 79.62 235.211 80.016 231.899 80.124C231.791 80.124 231.683 80.124 231.575 80.088C231.431 80.088 231.287 80.052 231.179 79.98C231.035 79.944 230.927 79.836 230.855 79.692C230.747 79.548 230.711 79.368 230.711 79.08V75.912C230.711 75.66 230.747 75.444 230.819 75.3C230.891 75.156 230.963 75.048 231.107 74.976C231.179 74.904 231.287 74.868 231.431 74.832C231.539 74.832 231.647 74.796 231.719 74.796C233.411 74.688 234.959 74.508 236.327 74.256C237.659 74.04 238.775 73.68 239.675 73.176H231.827C231.467 73.176 231.251 73.14 231.107 72.996C230.963 72.888 230.891 72.636 230.891 72.276V69ZM244.859 102.66C242.555 102.66 240.611 102.552 238.991 102.372C237.335 102.156 236.003 101.868 234.995 101.508C233.915 101.112 233.159 100.644 232.691 100.104C232.187 99.528 231.935 98.916 231.935 98.196C231.935 96.756 232.943 95.676 235.031 94.884C237.047 94.164 240.323 93.768 244.859 93.768C249.359 93.768 252.635 94.164 254.723 94.884C256.739 95.676 257.783 96.756 257.783 98.196C257.783 98.916 257.531 99.528 257.063 100.104C256.559 100.644 255.767 101.112 254.759 101.508C253.679 101.868 252.347 102.156 250.727 102.372C249.071 102.552 247.127 102.66 244.859 102.66ZM228.839 81.816C228.839 81.456 228.911 81.24 229.055 81.096C229.199 80.988 229.415 80.916 229.775 80.916H241.511V79.8C241.511 79.44 241.583 79.224 241.727 79.08C241.871 78.972 242.087 78.9 242.447 78.9H247.487C247.811 78.9 248.063 78.972 248.207 79.08C248.351 79.224 248.423 79.44 248.423 79.8V80.916H260.159C260.483 80.916 260.735 80.988 260.879 81.096C261.023 81.24 261.095 81.456 261.095 81.816V84.984C261.095 85.344 261.023 85.596 260.879 85.704C260.735 85.848 260.483 85.884 260.159 85.884H229.775C229.415 85.884 229.199 85.848 229.055 85.704C228.911 85.596 228.839 85.344 228.839 84.984V81.816ZM230.855 88.656C230.855 88.296 230.927 88.08 231.071 87.936C231.215 87.828 231.431 87.756 231.791 87.756H241.511V87.468C241.511 87.108 241.583 86.892 241.727 86.748C241.871 86.64 242.087 86.568 242.447 86.568H247.487C247.811 86.568 248.063 86.64 248.207 86.748C248.351 86.892 248.423 87.108 248.423 87.468V87.756H257.927C258.251 87.756 258.503 87.828 258.647 87.936C258.791 88.08 258.863 88.296 258.863 88.656V91.86C258.863 92.22 258.791 92.472 258.647 92.58C258.503 92.724 258.251 92.76 257.927 92.76H231.791C231.431 92.76 231.215 92.724 231.071 92.58C230.927 92.472 230.855 92.22 230.855 91.86V88.656ZM244.859 98.736C247.019 98.736 248.531 98.7 249.431 98.664C250.295 98.592 250.727 98.448 250.727 98.196C250.727 97.908 250.295 97.764 249.431 97.728C248.531 97.656 247.019 97.62 244.859 97.62C242.699 97.62 241.187 97.656 240.323 97.728C239.423 97.764 238.991 97.908 238.991 98.196C238.991 98.448 239.423 98.592 240.323 98.664C241.187 98.7 242.699 98.736 244.859 98.736ZM263.082 69C263.082 68.64 263.154 68.424 263.298 68.28C263.442 68.172 263.658 68.1 264.018 68.1H282.846C283.17 68.1 283.422 68.172 283.566 68.28C283.71 68.424 283.782 68.64 283.782 69V73.212C283.782 73.572 283.71 73.824 283.566 73.932C283.422 74.076 283.17 74.112 282.846 74.112H276.87V87.18C276.87 87.9 276.942 88.548 277.122 89.196C277.266 89.88 277.59 90.492 278.058 91.032C278.49 91.608 279.102 92.112 279.894 92.544C280.65 93.012 281.622 93.372 282.846 93.588C282.918 93.624 283.062 93.66 283.206 93.66C283.314 93.696 283.422 93.732 283.566 93.804C283.674 93.912 283.782 94.02 283.89 94.164C283.962 94.344 283.998 94.56 283.998 94.848V98.844C283.998 99.276 283.89 99.528 283.674 99.636C283.422 99.708 283.206 99.708 283.062 99.708C282.198 99.636 281.37 99.492 280.506 99.348C279.606 99.132 278.742 98.88 277.914 98.592C277.05 98.232 276.258 97.836 275.502 97.332C274.71 96.828 274.026 96.216 273.45 95.532C272.802 96.216 272.118 96.828 271.398 97.332C270.606 97.836 269.814 98.232 268.986 98.592C268.122 98.88 267.294 99.132 266.43 99.348C265.53 99.492 264.666 99.636 263.838 99.708C263.658 99.708 263.478 99.708 263.262 99.636C263.01 99.528 262.902 99.276 262.902 98.844V94.848C262.902 94.56 262.938 94.344 263.046 94.164C263.118 94.02 263.19 93.912 263.334 93.804C263.442 93.732 263.586 93.696 263.73 93.66C263.838 93.66 263.946 93.624 264.054 93.588C265.242 93.372 266.214 93.012 267.006 92.544C267.762 92.112 268.374 91.608 268.842 91.032C269.274 90.492 269.598 89.88 269.778 89.196C269.922 88.548 270.03 87.9 270.03 87.18V74.112H264.018C263.658 74.112 263.442 74.076 263.298 73.932C263.154 73.824 263.082 73.572 263.082 73.212V69ZM288.03 101.58C287.67 101.58 287.454 101.508 287.31 101.4C287.166 101.256 287.094 101.04 287.094 100.68V69C287.094 68.64 287.166 68.424 287.31 68.28C287.454 68.172 287.67 68.1 288.03 68.1H293.07C293.394 68.1 293.646 68.172 293.79 68.28C293.934 68.424 294.006 68.64 294.006 69V100.68C294.006 101.04 293.934 101.256 293.79 101.4C293.646 101.508 293.394 101.58 293.07 101.58H288.03ZM303.834 102.3C303.474 102.3 303.258 102.228 303.114 102.12C302.97 101.976 302.898 101.76 302.898 101.4V96.864C302.898 96.504 302.97 96.252 303.114 96.144C303.258 96 303.474 95.964 303.834 95.964H308.694C309.018 95.964 309.27 96 309.414 96.144C309.558 96.252 309.63 96.504 309.63 96.864V101.4C309.63 101.76 309.558 101.976 309.414 102.12C309.27 102.228 309.018 102.3 308.694 102.3H303.834ZM302.898 89.664C302.898 88.62 303.078 87.72 303.51 86.928C303.87 86.208 304.374 85.524 304.986 84.948C305.562 84.408 306.246 83.904 306.966 83.4C307.65 82.968 308.298 82.464 308.91 81.96C309.486 81.456 309.99 80.916 310.422 80.304C310.782 79.728 310.998 78.972 310.998 78.108C310.998 77.532 310.962 77.028 310.89 76.596C310.818 76.164 310.638 75.804 310.422 75.48C310.134 75.192 309.738 74.976 309.234 74.832C308.694 74.688 307.974 74.616 307.11 74.616C306.714 74.616 306.282 74.652 305.814 74.652C305.31 74.724 304.806 74.76 304.302 74.796C303.798 74.868 303.294 74.94 302.826 75.012C302.322 75.084 301.89 75.156 301.53 75.228C301.098 75.3 300.774 75.3 300.486 75.192C300.198 75.12 300.018 74.796 299.946 74.148L299.514 70.512C299.442 70.224 299.478 70.008 299.55 69.792C299.622 69.612 299.694 69.468 299.838 69.324C299.946 69.252 300.09 69.18 300.234 69.108C300.378 69.072 300.486 69.036 300.594 69C301.89 68.712 303.222 68.496 304.59 68.28C305.958 68.136 307.29 68.064 308.586 68.1C309.846 68.172 311.034 68.352 312.186 68.64C313.302 69 314.31 69.504 315.174 70.224C316.002 70.944 316.686 71.88 317.19 72.996C317.658 74.148 317.91 75.588 317.91 77.244C317.91 78.684 317.694 79.872 317.298 80.88C316.866 81.924 316.362 82.824 315.786 83.544C315.138 84.336 314.49 84.984 313.77 85.488L311.79 87C311.142 87.468 310.638 87.9 310.242 88.332C309.81 88.764 309.63 89.268 309.63 89.808V92.724C309.63 93.084 309.558 93.336 309.414 93.444C309.27 93.588 309.018 93.624 308.694 93.624H303.834C303.474 93.624 303.258 93.588 303.114 93.444C302.97 93.336 302.898 93.084 302.898 92.724V89.664Z" fill="#222222"/>
<path d="M44.2969 140.008C44.2969 142.938 48.1406 145.492 51.8906 146.008L51.1406 147.508C47.9062 146.969 44.707 145.176 43.3594 142.609C42.0234 145.188 38.8125 146.969 35.5781 147.508L34.8281 146.008C38.5781 145.492 42.3984 142.984 42.3984 140.008V138.812H44.2969V140.008ZM52.8281 149.805V151.352H44.2031V158.898H42.3984V151.352H33.8438V149.805H52.8281ZM70.635 138.062V142.773H73.7756V144.32H70.635V148.75H68.8069V138.062H70.635ZM64.8694 139.445V147.93H55.2366V139.445H64.8694ZM57.0413 140.945V146.453H63.0881V140.945H57.0413ZM58.3538 150.625V156.812C59.5608 156.777 61.1663 156.602 62.6428 156.109L62.9241 157.586C60.885 158.266 58.9163 158.336 57.5569 158.336H56.5725V150.625H58.3538ZM72.7209 150.836V152.242H62.1975V150.836H66.5803V148.984H68.385V150.836H72.7209ZM67.4475 152.992C69.7209 153.016 71.3381 154.117 71.3616 155.922C71.3381 157.727 69.7209 158.852 67.4475 158.852C65.1506 158.852 63.5569 157.727 63.5803 155.922C63.5569 154.117 65.1506 153.016 67.4475 152.992ZM67.4475 154.305C66.1584 154.305 65.2209 154.938 65.2209 155.922C65.2209 156.906 66.1584 157.562 67.4475 157.539C68.76 157.562 69.6741 156.906 69.6741 155.922C69.6741 154.938 68.76 154.305 67.4475 154.305ZM93.8325 149.055V150.555H74.8481V149.055H93.8325ZM91.7231 156.906V158.453H77.3091V152.383H79.1606V156.906H91.7231ZM84.3403 138.812C88.8169 138.789 91.6997 140.336 91.6997 142.938C91.6997 145.539 88.8169 147.086 84.3403 147.086C79.8169 147.086 76.9575 145.539 76.9575 142.938C76.9575 140.336 79.8169 138.789 84.3403 138.812ZM84.3403 140.289C80.9888 140.289 78.8325 141.297 78.8559 142.938C78.8325 144.578 80.9888 145.586 84.3403 145.586C87.6684 145.586 89.8247 144.578 89.8247 142.938C89.8247 141.297 87.6684 140.289 84.3403 140.289ZM110.556 151.234C115.032 151.234 117.868 152.641 117.868 155.055C117.868 157.445 115.032 158.852 110.556 158.852C106.103 158.852 103.267 157.445 103.267 155.055C103.267 152.641 106.103 151.234 110.556 151.234ZM110.556 152.641C107.228 152.664 105.071 153.578 105.095 155.055C105.071 156.508 107.228 157.398 110.556 157.398C113.884 157.398 116.017 156.508 116.04 155.055C116.017 153.578 113.884 152.664 110.556 152.641ZM117.704 139.141V140.898C117.704 142.586 117.704 144.273 117.118 146.43L115.313 146.219C115.876 144.062 115.876 142.539 115.876 140.898V140.641H103.407V139.141H117.704ZM120.118 147.789V149.289H101.157V147.789H109.009V143.758H110.813V147.789H120.118ZM138.347 140.172V142.258C138.323 144.812 138.323 147.672 137.573 151.867L135.698 151.656C136.495 147.672 136.495 144.742 136.495 142.258V141.695H123.652V140.172H138.347ZM140.62 154.422V155.945H121.636V154.422H129.089V146.969H130.894V154.422H140.62ZM166.976 148.539V150.062H147.922V148.539H156.5V145.328H158.304V148.539H166.976ZM158.328 139.375C158.328 142.141 162.078 144.461 165.757 144.977L165.007 146.453C161.843 145.902 158.715 144.227 157.414 141.812C156.101 144.238 152.961 145.902 149.773 146.453L149.07 144.977C152.75 144.461 156.476 142.141 156.476 139.375V138.391H158.328V139.375ZM164.562 152.102V158.898H162.711V153.578H150.031V152.102H164.562ZM186.283 138.062V158.898H184.502V138.062H186.283ZM182.088 138.508V157.844H180.33V147.719H177.658C177.459 151.773 175.736 154.305 173.158 154.305C170.439 154.305 168.682 151.492 168.682 147.062C168.682 142.633 170.439 139.82 173.158 139.82C175.689 139.82 177.4 142.27 177.635 146.195H180.33V138.508H182.088ZM173.158 141.555C171.471 141.555 170.393 143.664 170.416 147.062C170.393 150.438 171.471 152.57 173.158 152.547C174.846 152.57 175.924 150.438 175.924 147.062C175.924 143.664 174.846 141.555 173.158 141.555ZM196.262 143.664C196.262 147.438 198.676 151.234 201.699 152.617L200.598 154.117C198.231 152.898 196.274 150.402 195.348 147.438C194.422 150.555 192.465 153.227 190.098 154.492L188.902 153.016C191.949 151.516 194.387 147.508 194.387 143.664V139.867H196.262V143.664ZM206.199 138.062V158.945H204.371V146.688H199.426V145.188H204.371V138.062H206.199ZM225.594 144.273V146.734H234.266V148.258H215.188V146.734H223.79V144.273H225.594ZM232.508 138.719V140.172H225.923C226.075 142.305 229.567 143.863 233.188 144.156L232.579 145.539C229.11 145.211 225.84 143.863 224.727 141.672C223.59 143.863 220.321 145.211 216.829 145.539L216.219 144.156C219.817 143.863 223.309 142.305 223.508 140.172H216.946V138.719H232.508ZM232.462 151.023V152.477H216.993V151.023H223.79V149.055H225.618V151.023H232.462ZM224.704 153.508C228.712 153.508 231.008 154.445 231.008 156.25C231.008 158.078 228.712 159.016 224.704 159.016C220.649 159.016 218.423 158.078 218.423 156.25C218.423 154.445 220.649 153.508 224.704 153.508ZM224.704 154.797C221.891 154.82 220.274 155.289 220.274 156.25C220.274 157.211 221.891 157.75 224.704 157.727C227.54 157.75 229.11 157.211 229.133 156.25C229.11 155.289 227.54 154.82 224.704 154.797ZM254.698 149.055V150.555H235.714V149.055H254.698ZM252.589 156.906V158.453H238.175V152.383H240.026V156.906H252.589ZM245.206 138.812C249.682 138.789 252.565 140.336 252.565 142.938C252.565 145.539 249.682 147.086 245.206 147.086C240.682 147.086 237.823 145.539 237.823 142.938C237.823 140.336 240.682 138.789 245.206 138.812ZM245.206 140.289C241.854 140.289 239.698 141.297 239.722 142.938C239.698 144.578 241.854 145.586 245.206 145.586C248.534 145.586 250.69 144.578 250.69 142.938C250.69 141.297 248.534 140.289 245.206 140.289ZM278.265 138.062V143.406H281.382V144.977H278.265V150.367H276.413V138.062H278.265ZM278.265 151.305V155.5H266.57V157.352H279.062V158.664H264.742V154.258H276.437V152.617H264.695V151.305H278.265ZM261.906 148.492C263.57 148.492 265.515 148.492 267.554 148.422V147.133C265.117 146.957 263.57 145.984 263.57 144.391C263.57 142.68 265.492 141.695 268.445 141.695C271.421 141.695 273.32 142.68 273.343 144.391C273.32 145.973 271.82 146.945 269.382 147.133V148.375C271.327 148.281 273.296 148.129 275.124 147.859L275.288 149.102C270.788 149.828 265.773 149.875 262.117 149.875L261.906 148.492ZM274.492 139.656V140.992H262.421V139.656H267.554V137.875H269.382V139.656H274.492ZM268.445 142.914C266.523 142.938 265.327 143.477 265.327 144.391C265.327 145.328 266.523 145.938 268.445 145.938C270.367 145.938 271.585 145.328 271.585 144.391C271.585 143.477 270.367 142.938 268.445 142.914ZM301.509 148.375V149.852H282.502V148.375H291.103V145.938H284.916V139.047H299.142V140.523H286.72V144.438H299.283V145.938H292.884V148.375H301.509ZM291.994 151.375C296.47 151.375 299.142 152.734 299.166 155.125C299.142 157.539 296.47 158.875 291.994 158.898C287.494 158.875 284.798 157.539 284.798 155.125C284.798 152.734 287.494 151.375 291.994 151.375ZM291.994 152.828C288.642 152.828 286.65 153.695 286.673 155.125C286.65 156.578 288.642 157.422 291.994 157.422C295.298 157.422 297.314 156.578 297.314 155.125C297.314 153.695 295.298 152.828 291.994 152.828ZM312.496 138.438C317.137 138.438 319.855 139.703 319.855 142.023C319.855 144.391 317.137 145.656 312.496 145.68C307.855 145.656 305.113 144.391 305.113 142.023C305.113 139.703 307.855 138.438 312.496 138.438ZM312.496 139.82C309.027 139.82 307.012 140.664 307.035 142.023C307.012 143.477 309.027 144.273 312.496 144.273C315.941 144.273 317.98 143.477 317.98 142.023C317.98 140.664 315.941 139.82 312.496 139.82ZM321.988 147.086V148.586H303.004V147.086H321.988ZM319.551 150.391V155.055H307.176V157.211H320.183V158.664H305.348V153.695H317.746V151.797H305.301V150.391H319.551ZM40.9453 178.422C40.9453 180.906 43.0547 183.203 46.125 184.117L45.2578 185.523C42.8555 184.809 40.9805 183.262 40.0781 181.258C39.1641 183.461 37.2305 185.137 34.7578 185.945L33.8438 184.492C36.9375 183.555 39.1406 181.164 39.1406 178.422V178.023H34.4297V176.5H39.1406V173.969H40.9922V176.5H45.6562V178.023H40.9453V178.422ZM50.1328 174.062V179.219H53.2734V180.766H50.1328V186.18H48.3047V174.062H50.1328ZM50.5078 187.305V188.805H44.6016C44.9062 190.984 47.9648 192.859 51.3047 193.398L50.625 194.828C47.5664 194.324 44.8008 192.812 43.6172 190.727C42.4219 192.801 39.6797 194.277 36.6562 194.805L35.9531 193.398C39.3164 192.859 42.3398 191.02 42.6562 188.805H36.7734V187.305H50.5078ZM71.1975 180.391V181.867H56.9241V174.836H58.7522V180.391H71.1975ZM73.4006 184.703V186.203H54.3225V184.703H73.4006ZM71.3147 192.859V194.383H56.8069V188.336H58.635V192.859H71.3147ZM97.905 174.086V189.484H96.0534V182.055H91.4362V180.508H96.0534V174.086H97.905ZM91.53 175.68C91.5066 181.023 87.6862 185.102 81.7566 187.047L80.9597 185.57C85.7644 183.988 89.1042 181 89.5144 177.227H82.0144V175.68H91.53ZM98.4441 192.906V194.453H84.6394V187.914H86.5144V192.906H98.4441ZM112.519 175.68C115.355 175.703 117.394 178.129 117.698 182.031H122.363V174.062H124.191V194.945H122.363V183.555H117.722C117.499 187.633 115.425 190.188 112.519 190.188C109.448 190.188 107.292 187.375 107.292 182.945C107.292 178.516 109.448 175.703 112.519 175.68ZM112.519 177.32C110.456 177.344 109.05 179.547 109.05 182.945C109.05 186.344 110.456 188.547 112.519 188.547C114.558 188.547 115.988 186.344 115.988 182.945C115.988 179.547 114.558 177.344 112.519 177.32ZM144.693 174.086V185.734H142.841V182.336H138.693V180.836H142.841V178.305H138.693V176.781H142.841V174.086H144.693ZM137.31 175.023V180.648H130.138V183.555C134.005 183.531 136.021 183.496 138.552 183.062L138.716 184.586C136.068 185.031 133.958 185.078 129.787 185.102H128.31V179.219H135.482V176.547H128.263V175.023H137.31ZM132.951 186.578V189.016H142.865V186.578H144.693V194.617H131.099V186.578H132.951ZM132.951 193.117H142.865V190.492H132.951V193.117ZM152.164 186.578V189.016H162.57V186.578H164.422V194.617H150.336V186.578H152.164ZM152.164 193.141H162.57V190.469H152.164V193.141ZM166.906 183.578V185.102H147.922V183.578H166.906ZM158.375 175.281C158.375 177.859 162.172 180.156 165.828 180.625L165.148 182.102C161.914 181.621 158.75 179.969 157.437 177.625C156.101 179.98 152.914 181.621 149.703 182.102L149 180.625C152.703 180.133 156.476 177.93 156.476 175.281V174.297H158.375V175.281ZM185.603 174.062V194.898H183.775V174.062H185.603ZM171.588 176.125V187.938C174.764 187.926 178.057 187.668 181.549 186.93L181.807 188.5C178.103 189.273 174.799 189.531 171.471 189.531H169.783V176.125H171.588ZM205.051 174.062V182.312H208.543V183.859H205.051V194.945H203.223V174.062H205.051ZM199.567 176.102V177.625H191.668V188.172C195.442 188.172 198.113 187.996 201.207 187.422L201.442 189.016C198.184 189.602 195.442 189.719 191.481 189.719H189.84V176.102H199.567Z" fill="#4E4E4E"/>
<path d="M345.192 398.577C380.077 381.37 395.142 340.662 378.841 307.653C362.541 274.644 321.047 261.834 286.163 279.041C251.279 296.248 236.214 336.956 252.514 369.965C268.815 402.974 310.308 415.784 345.192 398.577Z" fill="#F2AD48"/>
<path d="M292.986 303.151L286.468 308.648C285.931 309.103 285.879 309.906 286.355 310.415L291.582 316.134C292.403 317.025 291.563 318.442 290.386 318.158L281.715 316.04C281.126 315.898 280.528 316.193 280.296 316.739L276.705 324.907C276.214 326.013 274.578 325.817 274.369 324.624L273.007 316.999C272.893 316.312 272.222 315.865 271.535 316.014L263.204 317.841C261.955 318.112 261.172 316.527 262.147 315.701L268.666 310.204C269.202 309.749 269.255 308.945 268.779 308.437L263.552 302.718C262.731 301.826 263.57 300.41 264.748 300.693L273.419 302.812C274.007 302.954 274.605 302.659 274.837 302.112L278.429 293.945C278.92 292.838 280.555 293.034 280.764 294.228L282.126 301.853C282.241 302.54 282.911 302.987 283.598 302.838L291.929 301.01C293.179 300.74 293.961 302.324 292.986 303.151Z" fill="#4A734E"/>
<path d="M271.785 354.851C274.1 360.169 275.656 363.765 278.662 367.333C281.969 371.29 284.186 373.485 288.036 374.539C292.034 375.637 297.054 374.47 299.519 371.055C301.016 368.975 301.393 366.406 301.578 363.965C301.884 359.955 301.736 355.766 299.688 352.396C297.938 349.518 294.983 347.535 292.12 345.625C288.863 343.473 285.292 341.241 281.186 341.555C276.552 341.911 273.731 345.568 273.549 345.792C273.412 345.96 270.349 349.905 271.442 353.896C271.562 354.324 271.7 354.641 271.785 354.851Z" fill="#F5F1DE"/>
<path d="M298.376 341.738C300.706 347.049 302.273 350.639 305.216 354.238C308.455 358.228 310.616 360.451 314.298 361.588C318.123 362.772 322.861 361.743 325.118 358.432C326.488 356.414 326.782 353.885 326.897 351.479C327.088 347.526 326.844 343.384 324.815 340.005C323.081 337.119 320.226 335.087 317.46 333.129C314.313 330.923 310.866 328.63 306.974 328.838C302.582 329.075 299.993 332.617 299.826 332.834C299.7 332.997 296.889 336.817 298.026 340.786C298.15 341.212 298.29 341.529 298.376 341.738Z" fill="#F5F1DE"/>
<path d="M302.957 343.157C301.899 345.134 302.897 347.45 303.348 348.51C304.25 350.595 305.585 351.826 306.643 352.829C308.796 354.835 311.483 356.525 314.517 356.675C315.374 356.72 316.293 356.631 317.012 356.138C317.679 355.687 318.094 354.945 318.4 354.205C319.618 351.264 319.547 347.885 318.185 345.09C316.809 342.303 314.205 340.155 311.123 339.319C309.825 338.971 308.055 338.475 306.461 339.331C305.007 340.1 303.728 341.961 303.295 342.591C303.108 342.874 303.011 343.009 302.935 343.15L302.957 343.157Z" fill="#222222"/>
<path d="M276.355 356.287C275.298 358.265 276.296 360.58 276.746 361.64C277.649 363.726 278.983 364.957 280.041 365.96C282.194 367.966 284.881 369.656 287.915 369.806C288.773 369.851 289.691 369.761 290.41 369.268C291.078 368.818 291.492 368.076 291.799 367.335C293.016 364.395 292.946 361.015 291.584 358.221C290.208 355.433 287.604 353.286 284.521 352.45C283.223 352.102 281.453 351.606 279.86 352.461C278.405 353.231 277.127 355.092 276.693 355.722C276.506 356.005 276.409 356.139 276.334 356.281L276.355 356.287Z" fill="#222222"/>
<path d="M334.807 305.137L363.052 294.504C364.023 294.139 365.104 294.653 365.482 295.655L368.964 304.893C369.205 305.533 369.103 306.27 368.691 306.775L364.027 312.725L361.999 315.077L362.324 315.94L349.617 320.723L349.292 319.861L346.215 319.431L338.671 318.076C338 317.979 337.437 317.492 337.196 316.852L333.713 307.614C333.336 306.613 333.836 305.503 334.807 305.137Z" fill="#0074BA"/>
<path d="M346.215 319.435L340.081 303.159L344.214 301.603L351.198 320.132L346.215 319.435Z" fill="#D3D3D3"/>
<path d="M360.715 316.546L353.731 298.016L357.864 296.46L363.999 312.736L360.715 316.546Z" fill="#D3D3D3"/>
<path d="M353.731 298.019L344.187 301.612L351.171 320.142L360.715 316.549L353.731 298.019Z" fill="#F8312F"/>
<path d="M365.769 344.413C374.564 341.102 378.953 331.061 375.545 322.019C372.136 312.976 362.237 308.315 353.414 311.636C344.592 314.957 340.23 324.987 343.639 334.03C347.047 343.073 356.946 347.734 365.769 344.413Z" fill="#FFB02E"/>
<path d="M365.051 342.427C361.306 343.837 357.216 343.661 353.552 341.926C349.861 340.202 347.055 337.128 345.608 333.288C344.16 329.449 344.257 325.25 345.875 321.559C349.222 313.881 358.128 310.528 365.712 314.091C373.296 317.654 376.747 326.808 373.4 334.486C371.764 338.215 368.807 341.044 365.062 342.454L365.051 342.427ZM354.892 315.559C351.785 316.729 349.139 319.123 347.693 322.431C346.31 325.653 346.208 329.25 347.466 332.588C348.725 335.927 351.148 338.574 354.342 340.072C357.509 341.58 361.043 341.711 364.289 340.489C367.535 339.267 370.077 336.849 371.488 333.617C374.369 326.972 371.391 319.07 364.849 316.004C361.568 314.444 358.038 314.407 354.903 315.587L354.892 315.559Z" fill="#FCD53F"/>
<path d="M358.128 321.2L360.488 323.425C360.769 323.669 361.169 323.804 361.523 323.735L364.632 323.073C365.544 322.888 366.352 323.855 365.927 324.745L364.668 327.539C364.478 327.96 364.562 328.436 364.831 328.812L366.802 331.184C367.453 331.987 366.89 333.184 365.883 333.118L361.894 332.872C361.564 332.838 361.259 332.953 361.034 333.196L358.198 336.011C357.485 336.724 356.244 336.207 356.231 335.163L356.147 332.081C356.128 331.612 355.849 331.208 355.429 331.017L352.638 329.748C351.759 329.349 351.7 328.1 352.507 327.637L355.28 326.085C355.62 325.893 355.814 325.566 355.854 325.17L356.158 321.941C356.26 320.95 357.425 320.511 358.128 321.2Z" fill="#6D4534"/>
<g opacity="0.5" filter="url(#filter0_f_1_1028)">
<path d="M117.659 505.69C77.4626 500.154 46.4535 483.449 48.3987 468.377C50.3439 453.305 84.5068 445.574 124.704 451.109C164.901 456.644 195.91 473.35 193.964 488.422C192.019 503.494 157.856 511.225 117.659 505.69Z" fill="#6B816E"/>
<path d="M118.69 460.541L110.027 460.201C109.313 460.174 108.86 460.402 109.033 460.703L110.866 464.057C111.157 464.581 109.684 464.753 108.764 464.303L102.002 460.982C101.541 460.757 100.853 460.662 100.367 460.757L92.9992 462.132C91.997 462.317 90.6186 461.753 91.0325 461.325L93.6526 458.586C93.8961 458.341 93.5164 457.998 92.8205 457.831L84.3734 455.816C83.1081 455.512 83.2015 454.789 84.4996 454.838L93.1628 455.179C93.8768 455.206 94.3302 454.978 94.1571 454.676L92.3234 451.323C92.0323 450.798 93.5057 450.627 94.426 451.076L101.188 454.398C101.648 454.622 102.337 454.717 102.822 454.623L110.191 453.247C111.193 453.062 112.571 453.627 112.157 454.054L109.537 456.794C109.294 457.038 109.673 457.381 110.369 457.548L118.816 459.564C120.082 459.867 119.988 460.591 118.69 460.541Z" fill="#6B816E"/>
<path d="M60.8708 467.91C60.2808 470.353 59.8742 472.001 60.7042 474.089C61.603 476.396 62.425 477.794 65.1699 479.326C68.0202 480.918 72.8164 482.09 76.5313 481.743C78.7899 481.53 80.3376 480.812 81.6612 480.076C83.8381 478.869 85.7171 477.462 85.6004 475.735C85.4998 474.259 83.9545 472.703 82.4511 471.198C80.7309 469.492 78.7842 467.664 75.1676 466.497C71.0853 465.181 66.9542 465.497 66.6934 465.513C66.4978 465.526 62.0246 465.86 61.0377 467.494C60.9342 467.67 60.8992 467.816 60.8708 467.91Z" fill="#6B816E"/>
<path d="M66.1229 467.107C64.3787 467.41 64.1261 468.425 64.0055 468.887C63.781 469.802 64.2897 470.578 64.6812 471.202C65.4931 472.46 66.8757 473.778 69.2357 474.718C69.9015 474.985 70.677 475.227 71.4762 475.286C72.2149 475.342 72.8834 475.233 73.4647 475.093C75.7742 474.537 77.2522 473.465 77.4313 472.194C77.5956 470.921 76.4868 469.486 74.3998 468.318C73.5193 467.827 72.3278 467.152 70.6644 466.948C69.1513 466.759 67.2832 466.962 66.6503 467.03C66.3721 467.063 66.2334 467.076 66.1088 467.098L66.1229 467.107Z" fill="#6B816E"/>
<path d="M91.5173 472.135C90.9273 474.577 90.5206 476.226 91.3507 478.313C92.2495 480.62 93.0715 482.018 95.8164 483.55C98.6667 485.143 103.463 486.315 107.178 485.967C109.436 485.754 110.984 485.036 112.308 484.301C114.485 483.093 116.364 481.687 116.247 479.96C116.146 478.484 114.601 476.927 113.098 475.422C111.377 473.717 109.431 471.888 105.814 470.722C101.732 469.405 97.6006 469.721 97.3398 469.738C97.1441 469.75 92.6711 470.085 91.6842 471.719C91.5807 471.894 91.5457 472.04 91.5173 472.135Z" fill="#6B816E"/>
<path d="M95.3064 471.133C93.3529 471.408 93.0853 472.42 92.9573 472.882C92.7196 473.794 93.3032 474.581 93.7526 475.213C94.6841 476.487 96.2575 477.831 98.9222 478.813C99.674 479.092 100.549 479.348 101.447 479.42C102.277 479.489 103.026 479.392 103.677 479.261C106.261 478.743 107.903 477.693 108.084 476.423C108.249 475.15 106.981 473.693 104.619 472.487C103.623 471.98 102.274 471.283 100.403 471.051C98.7013 470.836 96.607 471.007 95.8975 471.065C95.5856 471.093 95.4301 471.104 95.2905 471.124L95.3064 471.133Z" fill="#6B816E"/>
<path d="M133.74 459.185L120.141 456.488C112.279 454.929 107.183 451.244 108.778 448.253L110.587 444.862L152.65 453.204L150.841 456.595C149.265 459.583 141.602 460.745 133.74 459.185Z" fill="#6B816E"/>
<path d="M136.712 444.406L159.259 454.288C160.654 454.899 160.201 455.748 158.484 455.741L130.718 455.645C129.089 455.641 127.37 455.301 126.05 454.719L103.503 444.837C102.108 444.227 102.561 443.377 104.278 443.384L132.044 443.481C133.657 443.481 135.391 443.825 136.712 444.406Z" fill="#6B816E"/>
<path d="M129.853 448.866C130.412 448.623 131.483 448.699 132.227 449.017L144.544 454.42C145.036 454.64 145.249 454.913 145.124 455.147L142.518 460.033C143.641 460.515 144.244 461.165 143.945 461.725C143.879 461.848 143.768 461.955 143.625 462.056L143.615 462.075C143.583 462.102 143.53 462.133 143.482 462.157C143.478 462.163 143.456 462.172 143.452 462.179C143.42 462.206 143.355 462.227 143.306 462.252C143.303 462.258 143.28 462.267 143.28 462.267C143.137 462.334 142.945 462.391 142.763 462.43C142.737 462.445 142.701 462.445 142.662 462.451L142.706 464.351C142.738 465.399 140.386 465.912 137.841 465.407C135.296 464.903 133.889 463.644 134.926 462.808L136.795 461.287C136.404 460.944 136.257 460.582 136.437 460.243C136.542 460.046 136.738 459.881 137.018 459.759C137.021 459.753 137.044 459.744 137.08 459.744C137.109 459.723 137.174 459.702 137.22 459.684C137.285 459.663 137.334 459.638 137.415 459.62C137.434 459.617 137.441 459.605 137.477 459.605C137.964 459.464 138.594 459.391 139.273 459.397L141.679 454.886L130.204 449.854C129.492 449.543 129.319 449.093 129.869 448.869L129.853 448.866Z" fill="#6B816E"/>
</g>
<path d="M87.5766 430.525C40.8663 404.368 23.0859 347.333 47.8629 303.134C72.64 258.935 130.592 244.309 177.302 270.466C224.013 296.623 241.793 353.658 217.016 397.857C192.239 442.056 134.287 456.682 87.5766 430.525Z" fill="#E24444"/>
<path d="M155.242 296.979L143.924 293.869C142.99 293.615 142.036 294.181 141.83 295.117L139.409 305.5C139.036 307.125 136.774 307.276 136.179 305.72L131.829 294.236C131.532 293.458 130.731 293.01 129.93 293.173L117.86 295.462C116.221 295.767 115.169 293.76 116.361 292.593L123.957 285.109C124.648 284.444 124.633 283.335 123.929 282.672L115.365 274.648C114.084 273.442 115.273 271.32 116.971 271.782L128.29 274.892C129.224 275.146 130.178 274.58 130.384 273.644L132.804 263.261C133.177 261.636 135.439 261.484 136.035 263.04L140.384 274.524C140.682 275.302 141.483 275.751 142.283 275.588L154.354 273.299C155.993 272.994 157.044 275.001 155.852 276.168L148.256 283.652C147.566 284.317 147.58 285.425 148.285 286.089L156.849 294.113C158.13 295.319 156.94 297.441 155.242 296.979Z" fill="#4A734E"/>
<path d="M65.5537 304.779C61.1634 311.875 58.189 316.663 56.2573 323.051C54.0975 330.106 53.1668 334.45 54.6631 339.656C56.2146 345.066 61.0377 349.703 66.6154 349.576C70.01 349.491 73.1749 347.739 76.0603 345.881C80.8032 342.828 85.4309 339.116 87.8067 333.969C89.8356 329.57 90.0124 324.582 90.1705 319.756C90.327 314.284 90.3547 308.393 87.1334 304.057C83.4958 299.166 77.396 299.101 77.0159 299.086C76.7308 299.076 70.1373 298.982 66.3923 303.586C65.993 304.082 65.731 304.506 65.5537 304.779Z" fill="#F5F1DE"/>
<path d="M73.9059 303.659C71.0805 304.137 69.2469 307.082 68.4032 308.424C66.7543 311.081 66.3093 313.504 65.9276 315.448C65.1885 319.374 65.1411 323.614 66.9805 326.974C67.4976 327.925 68.1992 328.833 69.204 329.2C70.129 329.546 71.2006 329.386 72.1994 329.112C76.1666 328.023 79.757 325.203 81.8665 321.481C83.9587 317.748 84.5525 313.226 83.4201 309.257C82.9388 307.59 82.3051 305.298 80.334 304.292C78.5471 303.365 75.7012 303.512 74.7376 303.561C74.3096 303.591 74.1009 303.597 73.8991 303.631L73.9059 303.659Z" fill="#222222"/>
<path d="M101.171 324.721C96.7806 331.817 93.8062 336.604 91.8745 342.993C89.7147 350.048 88.784 354.392 90.2803 359.598C91.8317 365.008 96.6548 369.645 102.232 369.517C105.627 369.433 108.792 367.681 111.677 365.822C116.42 362.77 121.048 359.058 123.424 353.911C125.453 349.512 125.63 344.524 125.788 339.698C125.944 334.226 125.972 328.335 122.751 323.999C119.113 319.108 113.013 319.043 112.633 319.028C112.348 319.017 105.754 318.924 102.01 323.528C101.61 324.024 101.348 324.448 101.171 324.721Z" fill="#F5F1DE"/>
<path d="M107.816 322.651C104.748 322.992 102.897 325.927 102.044 327.265C100.38 329.913 100.022 332.385 99.7077 334.366C99.1076 338.37 99.2819 342.735 101.475 346.292C102.092 347.3 102.909 348.272 104.029 348.703C105.061 349.109 106.226 349.002 107.305 348.772C111.591 347.863 115.373 345.15 117.485 341.429C119.577 337.696 119.986 333.07 118.534 328.923C117.918 327.18 117.102 324.786 114.89 323.645C112.883 322.595 109.775 322.595 108.722 322.594C108.255 322.602 108.027 322.597 107.807 322.621L107.816 322.651Z" fill="#222222"/>
<path d="M177.789 296.566L163.194 285.273C154.758 278.745 153.214 266.587 159.78 258.109L167.224 248.497L212.364 283.426L204.92 293.038C198.385 301.512 186.225 303.095 177.789 296.566Z" fill="#533566"/>
<path d="M203.532 253.483L219.788 288.241C220.796 290.388 218.931 292.795 216.599 292.358L178.861 285.335C176.643 284.93 174.799 283.503 173.851 281.459L157.595 246.701C156.587 244.554 158.452 242.147 160.784 242.584L198.522 249.607C200.722 249.998 202.584 251.438 203.532 253.483Z" fill="#321B41"/>
<path d="M187.621 265.052C188.741 264.468 190.09 264.953 190.639 266.076L199.513 285.077C199.861 285.849 199.749 286.711 199.236 287.374L188.509 301.224C189.335 302.923 189.203 304.997 187.974 306.584C187.703 306.933 187.394 307.224 187.051 307.488L187.01 307.541C186.925 307.615 186.809 307.692 186.707 307.753C186.694 307.77 186.649 307.791 186.636 307.809C186.551 307.883 186.431 307.929 186.329 307.99C186.315 308.007 186.271 308.029 186.271 308.029C185.977 308.192 185.631 308.315 185.326 308.386C185.268 308.425 185.22 308.415 185.158 308.423L182.429 314.067C180.936 317.179 176.972 318.13 174.242 316.017C171.511 313.904 171.438 309.831 174.079 307.606L178.861 303.551C178.832 302.44 179.163 301.329 179.906 300.37C180.339 299.812 180.848 299.369 181.408 299.077C181.422 299.06 181.466 299.038 181.515 299.048C181.586 298.992 181.706 298.945 181.795 298.902C181.914 298.855 182.017 298.795 182.154 298.761C182.185 298.757 182.212 298.723 182.26 298.732C183.133 298.431 184.099 298.369 185.016 298.549L194.919 285.764L186.649 268.066C186.135 266.971 186.559 265.597 187.638 265.065L187.621 265.052Z" fill="#FFB02E"/>
<g opacity="0.7" filter="url(#filter1_f_1_1028)">
<path d="M199.973 523.723C201.075 525.659 201.812 526.967 203.774 528.358C205.928 529.899 207.446 530.778 210.518 531.377C213.71 532.001 218.123 531.927 220.743 530.936C222.334 530.331 223.061 529.491 223.606 528.682C224.503 527.353 225.045 525.935 223.858 524.671C222.843 523.592 220.671 522.737 218.565 521.913C216.165 520.982 213.514 520.004 210.007 519.849C206.048 519.674 203.09 520.725 202.901 520.788C202.76 520.836 199.552 521.968 199.836 523.38C199.869 523.531 199.935 523.647 199.973 523.723Z" fill="#6B816E"/>
<path d="M224.452 521.003C225.568 522.937 226.316 524.244 228.22 525.641C230.311 527.189 231.777 528.074 234.695 528.691C237.727 529.332 241.881 529.287 244.309 528.317C245.784 527.725 246.435 526.894 246.915 526.092C247.706 524.775 248.16 523.366 246.99 522.101C245.99 521.02 243.91 520.155 241.892 519.321C239.594 518.379 237.057 517.388 233.747 517.211C230.011 517.011 227.267 518.038 227.092 518.1C226.96 518.147 223.984 519.253 224.309 520.66C224.346 520.811 224.413 520.927 224.452 521.003Z" fill="#6B816E"/>
<path d="M228.082 521.77C226.876 522.368 227.348 523.21 227.558 523.596C227.986 524.354 228.913 524.853 229.645 525.258C231.138 526.069 233.131 526.808 235.661 527.052C236.376 527.121 237.164 527.15 237.848 527.03C238.482 526.92 238.949 526.697 239.325 526.468C240.819 525.556 241.298 524.415 240.596 523.389C239.882 522.364 238.031 521.476 235.569 520.999C234.532 520.799 233.12 520.52 231.642 520.707C230.295 520.873 228.922 521.417 228.457 521.602C228.254 521.685 228.151 521.724 228.065 521.767L228.082 521.77Z" fill="#6B816E"/>
<path d="M203.592 524.494C202.387 525.092 202.858 525.934 203.069 526.319C203.497 527.078 204.424 527.576 205.155 527.981C206.648 528.792 208.641 529.532 211.172 529.775C211.887 529.845 212.674 529.873 213.358 529.753C213.992 529.644 214.459 529.421 214.835 529.191C216.329 528.28 216.808 527.139 216.107 526.112C215.392 525.087 213.542 524.2 211.08 523.722C210.042 523.523 208.631 523.243 207.153 523.43C205.806 523.596 204.433 524.141 203.967 524.325C203.765 524.408 203.662 524.447 203.575 524.49L203.592 524.494Z" fill="#6B816E"/>
<path d="M249.991 536.301C272.087 533.845 285.303 525.119 279.509 516.81C273.716 508.501 251.106 503.757 229.009 506.213C206.913 508.668 193.697 517.395 199.491 525.704C205.284 534.012 227.894 538.757 249.991 536.301Z" fill="#6B816E"/>
<path d="M241.743 510.894L237.456 511.876C237.104 511.957 236.99 512.141 237.209 512.282L239.598 513.852C239.973 514.097 239.348 514.388 238.706 514.268L233.981 513.378C233.66 513.318 233.288 513.36 233.1 513.476L230.206 515.213C229.812 515.448 228.899 515.327 228.904 515.04L228.916 513.203C228.922 513.038 228.586 512.903 228.179 512.907L223.24 512.951C222.499 512.957 222.217 512.552 222.859 512.404L227.145 511.423C227.498 511.342 227.611 511.157 227.392 511.017L225.004 509.447C224.628 509.202 225.253 508.911 225.895 509.031L230.62 509.92C230.941 509.98 231.313 509.939 231.501 509.822L234.395 508.086C234.79 507.851 235.702 507.971 235.697 508.259L235.685 510.095C235.679 510.261 236.015 510.395 236.422 510.392L241.361 510.348C242.102 510.342 242.384 510.747 241.743 510.894Z" fill="#6B816E"/>
<path d="M223.798 519.473C222.532 520.182 222.577 520.959 222.671 521.93C222.766 522.874 222.84 523.625 223.907 524.511C224.538 525.031 225.384 525.738 227.241 526.18C230.384 526.931 235.474 526.718 237.479 525.494C238.614 524.805 238.895 523.934 238.64 523.115C238.384 522.296 237.61 521.515 236.787 520.76C235.351 519.455 233.882 518.498 231.283 518.254C228.224 517.966 225.281 518.887 225.08 518.955C224.777 519.054 224.285 519.212 223.811 519.48L223.798 519.473Z" fill="#6B816E"/>
<path d="M228.518 520.372C227.275 520.714 226.957 521.281 226.923 521.354C226.753 521.669 226.918 521.974 227.416 522.566C227.709 522.918 228.062 523.26 228.459 523.597C228.744 523.843 229.064 524.084 229.548 524.273C230.299 524.575 231.421 524.712 232.451 524.636C233.481 524.56 234.397 524.266 234.819 523.876C235.218 523.508 235.18 523.085 235.109 522.685C235.004 522.111 234.827 521.53 234.201 521.015C233.772 520.658 233.122 520.23 231.922 520.09C230.559 519.933 229.102 520.241 228.863 520.295C228.78 520.312 228.673 520.335 228.529 520.374L228.518 520.372Z" fill="#6B816E"/>
<path d="M249.707 516.593C251.707 516.938 252.674 517.613 253.851 518.463C254.992 519.291 255.9 519.949 256.133 520.928C256.267 521.504 256.457 522.284 255.44 523.045C253.721 524.336 249.087 525.204 245.787 524.57C243.923 524.214 242.554 523.526 241.713 522.772C240.872 522.018 240.524 521.191 240.251 520.374C239.791 518.96 239.812 517.838 241.721 517.093C243.966 516.215 247.678 516.397 247.938 516.414C248.326 516.436 248.952 516.47 249.703 516.601L249.707 516.593Z" fill="#6B816E"/>
<path d="M247.139 518.301C248.474 518.357 249.397 518.786 249.511 518.842C250.019 519.082 250.267 519.378 250.616 519.986C250.827 520.348 250.981 520.712 251.097 521.08C251.183 521.348 251.239 521.619 251.111 521.876C250.92 522.282 250.257 522.618 249.402 522.751C248.547 522.885 247.512 522.807 246.727 522.552C245.986 522.311 245.501 521.937 245.067 521.577C244.449 521.061 243.875 520.524 243.712 519.957C243.597 519.565 243.559 519.069 244.277 518.716C245.096 518.317 246.548 518.301 246.79 518.302C246.872 518.3 246.98 518.3 247.133 518.306L247.139 518.301Z" fill="#6B816E"/>
<path d="M270.017 513.737C269.407 512.885 267.202 512.384 265.059 512.622C265.012 512.622 264.934 512.634 264.871 512.641C261.947 513.029 261.712 514.626 264.34 515.209L270.173 516.505C270.658 516.612 271.284 516.543 271.55 516.349C271.815 516.155 271.643 515.904 271.159 515.798L265.309 514.501C264.152 514.244 264.34 513.58 265.497 513.424C265.497 513.424 265.528 513.424 265.544 513.424C265.544 513.424 265.56 513.424 265.575 513.424C266.639 513.305 267.734 513.549 268.031 513.975C268.187 514.194 268.75 514.319 269.297 514.257C269.845 514.194 270.158 513.969 270.001 513.749L270.017 513.737Z" fill="#6B816E"/>
<path d="M284.046 513.955C284.343 513.529 285.453 513.285 286.501 513.404C286.501 513.404 286.517 513.404 286.532 513.404C286.564 513.404 286.579 513.404 286.579 513.404C287.737 513.561 287.924 514.225 286.767 514.481L280.918 515.778C280.433 515.884 280.245 516.135 280.527 516.329C280.793 516.523 281.418 516.599 281.903 516.486L287.752 515.189C290.38 514.607 290.145 513.016 287.221 512.621C287.142 512.609 287.064 512.602 287.033 512.602C284.89 512.364 282.685 512.865 282.075 513.717C281.919 513.937 282.231 514.162 282.779 514.225C283.326 514.287 283.889 514.162 284.046 513.943V513.955Z" fill="#6B816E"/>
<path d="M278.008 518.435V516.45H274.083V518.435C274.083 518.786 273.692 519.118 273.019 519.337L270.767 520.089H281.324L279.072 519.337C278.399 519.112 278.008 518.78 278.008 518.435Z" fill="#6B816E"/>
<path d="M276.054 517.976C271.534 517.976 267.858 516.51 267.858 514.694V511.462C267.858 511.28 268.234 511.13 268.687 511.13H283.42C283.873 511.13 284.249 511.28 284.249 511.462V514.694C284.249 516.504 280.589 517.976 276.038 517.976H276.054Z" fill="#6B816E"/>
<path d="M284.437 520.092H267.281C266.374 520.092 265.607 520.33 265.435 520.669L263.543 524.007C263.449 524.164 263.762 524.308 264.184 524.308H287.55C287.972 524.308 288.285 524.164 288.191 524.007L286.298 520.669C286.111 520.337 285.344 520.092 284.437 520.092Z" fill="#6B816E"/>
<path d="M279.26 521.473H272.488C272.097 521.473 271.769 521.604 271.769 521.773V522.626C271.769 522.789 272.082 522.926 272.488 522.926H279.26C279.651 522.926 279.98 522.795 279.98 522.626V521.773C279.98 521.611 279.667 521.473 279.26 521.473Z" fill="#6B816E"/>
</g>
<g opacity="0.4" filter="url(#filter2_f_1_1028)">
<path d="M334.813 499.507C365.886 493.67 389.259 479.279 387.017 467.365C384.776 455.451 357.769 450.524 326.696 456.362C295.623 462.199 272.251 476.589 274.492 488.504C276.734 500.418 303.74 505.344 334.813 499.507Z" fill="#6B816E"/>
<path d="M324.556 465.021L318.067 466.926C317.533 467.083 317.253 467.37 317.455 467.555L319.629 469.64C319.973 469.965 318.925 470.463 318.135 470.352L312.324 469.521C311.929 469.466 311.396 469.566 311.061 469.759L305.949 472.641C305.253 473.031 304.096 472.948 304.297 472.52L305.566 469.788C305.686 469.543 305.322 469.377 304.766 469.424L298.029 470.005C297.019 470.09 296.911 469.518 297.883 469.232L304.372 467.327C304.906 467.17 305.186 466.883 304.984 466.698L302.81 464.613C302.467 464.288 303.514 463.79 304.304 463.901L310.115 464.732C310.51 464.787 311.043 464.687 311.378 464.494L316.491 461.612C317.187 461.222 318.344 461.306 318.142 461.733L316.874 464.465C316.753 464.711 317.118 464.876 317.673 464.829L324.411 464.248C325.42 464.163 325.528 464.735 324.556 465.021Z" fill="#6B816E"/>
<path d="M293.339 467.597C293.469 469.514 293.55 470.81 294.716 472.109C295.99 473.548 296.982 474.35 299.527 474.759C302.17 475.185 306.25 474.812 309.103 473.616C310.838 472.886 311.887 471.973 312.754 471.104C314.18 469.676 315.323 468.181 314.809 466.962C314.369 465.92 312.767 465.187 311.21 464.481C309.433 463.686 307.447 462.859 304.301 462.936C300.751 463.023 297.561 464.303 297.358 464.382C297.207 464.44 293.75 465.821 293.369 467.254C293.33 467.407 293.338 467.522 293.339 467.597Z" fill="#6B816E"/>
<path d="M317.022 463.148C317.166 465.062 317.256 466.356 318.367 467.665C319.581 469.116 320.522 469.928 322.918 470.365C325.407 470.82 329.236 470.494 331.903 469.332C333.524 468.624 334.5 467.725 335.305 466.867C336.629 465.459 337.686 463.98 337.189 462.757C336.763 461.712 335.249 460.963 333.779 460.241C332.1 459.427 330.224 458.58 327.269 458.62C323.935 458.667 320.951 459.909 320.762 459.984C320.62 460.041 317.388 461.38 317.046 462.805C317.012 462.958 317.02 463.072 317.022 463.148Z" fill="#6B816E"/>
<path d="M320.001 463.692C318.624 464.388 318.673 465.223 318.691 465.605C318.738 466.356 319.361 466.807 319.848 467.174C320.848 467.908 322.339 468.534 324.549 468.613C325.173 468.637 325.882 468.613 326.564 468.443C327.195 468.288 327.725 468.027 328.174 467.766C329.958 466.727 330.916 465.521 330.74 464.513C330.551 463.507 329.258 462.718 327.217 462.393C326.357 462.258 325.19 462.066 323.75 462.358C322.439 462.62 320.932 463.272 320.421 463.493C320.198 463.593 320.085 463.64 319.987 463.69L320.001 463.692Z" fill="#6B816E"/>
<path d="M296.306 468.149C294.928 468.846 294.978 469.68 294.995 470.062C295.043 470.814 295.666 471.264 296.152 471.631C297.152 472.365 298.644 472.991 300.854 473.071C301.478 473.094 302.187 473.07 302.869 472.9C303.499 472.745 304.029 472.484 304.478 472.223C306.263 471.184 307.221 469.978 307.045 468.97C306.856 467.964 305.563 467.176 303.522 466.851C302.662 466.716 301.494 466.523 300.054 466.815C298.743 467.077 297.237 467.73 296.726 467.951C296.502 468.05 296.39 468.097 296.292 468.147L296.306 468.149Z" fill="#6B816E"/>
<path d="M355.04 450.404L379.212 446.854C380.044 446.732 380.693 446.925 380.674 447.285L380.498 450.611C380.486 450.841 380.19 451.103 379.733 451.279L374.487 453.362L372.276 454.183L372.259 454.494L361.384 456.091L361.401 455.78L359.243 455.6L354.041 455.052C353.572 455.012 353.299 454.833 353.311 454.603L353.486 451.278C353.505 450.918 354.209 450.526 355.04 450.404Z" fill="#6B816E"/>
<path d="M359.242 455.603L359.552 449.745L363.089 449.225L362.737 455.894L359.242 455.603Z" fill="#6B816E"/>
<path d="M370.882 454.696L371.234 448.027L374.772 447.507L374.463 453.365L370.882 454.696Z" fill="#6B816E"/>
<path d="M371.234 448.028L363.066 449.228L362.714 455.897L370.882 454.698L371.234 448.028Z" fill="#6B816E"/>
<path d="M366.303 464.678C373.83 463.573 380.096 460.03 380.268 456.775C380.439 453.52 374.477 451.772 366.926 452.881C359.375 453.99 353.133 457.53 352.961 460.785C352.79 464.039 358.752 465.787 366.303 464.678Z" fill="#6B816E"/>
<path d="M366.364 463.965C363.159 464.436 360.172 464.338 357.968 463.687C355.74 463.041 354.574 461.92 354.647 460.538C354.72 459.156 356.048 457.659 358.355 456.357C363.139 453.647 370.761 452.528 375.332 453.864C379.903 455.2 379.729 458.495 374.945 461.204C372.614 462.521 369.569 463.504 366.364 463.975L366.364 463.965ZM366.851 454.294C364.192 454.685 361.509 455.516 359.445 456.684C357.453 457.821 356.302 459.103 356.238 460.305C356.175 461.506 357.184 462.471 359.11 463.033C361.012 463.598 363.6 463.675 366.378 463.267C369.156 462.859 371.768 462.019 373.784 460.878C377.913 458.533 378.063 455.689 374.119 454.539C372.147 453.954 369.534 453.91 366.851 454.304L366.851 454.294Z" fill="#6B816E"/>
<path d="M367.569 456.335L368.657 457.149C368.794 457.238 369.05 457.29 369.334 457.268L371.842 457.059C372.576 457.001 372.887 457.352 372.305 457.667L370.533 458.652C370.266 458.801 370.187 458.971 370.274 459.108L371.029 459.97C371.273 460.263 370.497 460.685 369.768 460.653L366.876 460.531C366.642 460.515 366.38 460.554 366.14 460.639L363.191 461.618C362.447 461.867 361.68 461.671 361.982 461.299L362.842 460.199C362.968 460.031 362.882 459.885 362.626 459.813L360.932 459.337C360.398 459.187 360.727 458.741 361.466 458.582L363.992 458.053C364.301 457.987 364.543 457.872 364.692 457.731L365.883 456.582C366.255 456.23 367.253 456.083 367.569 456.335Z" fill="#6B816E"/>
</g>
<path d="M196.178 473.837C197.501 479.658 198.387 483.591 200.743 487.774C203.33 492.407 205.152 495.051 208.843 496.853C212.676 498.728 217.976 498.507 221.122 495.526C223.034 493.708 223.907 491.182 224.561 488.75C225.638 484.753 226.29 480.489 224.864 476.69C223.644 473.444 221.037 470.874 218.507 468.395C215.625 465.597 212.441 462.657 208.228 462.189C203.474 461.663 199.922 464.822 199.695 465.014C199.524 465.158 195.672 468.561 196.013 472.806C196.053 473.261 196.132 473.609 196.178 473.837Z" fill="#F5F1DE"/>
<path d="M225.578 465.657C226.918 471.473 227.816 475.403 230.103 479.605C232.615 484.259 234.374 486.92 237.88 488.774C241.521 490.702 246.51 490.568 249.426 487.651C251.197 485.872 251.979 483.372 252.555 480.961C253.505 476.999 254.05 472.764 252.646 468.96C251.445 465.709 248.946 463.109 246.523 460.6C243.763 457.767 240.716 454.789 236.741 454.256C232.254 453.656 228.958 456.743 228.748 456.93C228.59 457.07 225.016 460.396 225.406 464.628C225.45 465.081 225.53 465.429 225.578 465.657Z" fill="#F5F1DE"/>
<path d="M229.937 467.969C228.49 469.767 229.056 472.299 229.309 473.457C229.822 475.739 230.936 477.239 231.814 478.455C233.607 480.895 236.001 483.118 239.04 483.85C239.899 484.059 240.845 484.145 241.666 483.783C242.427 483.455 242.989 482.784 243.44 482.094C245.234 479.354 245.809 475.922 244.967 472.836C244.109 469.754 241.887 467.085 238.93 465.65C237.684 465.05 235.989 464.21 234.213 464.77C232.596 465.27 230.947 466.908 230.388 467.462C230.144 467.712 230.02 467.83 229.917 467.958L229.937 467.969Z" fill="#222222"/>
<path d="M200.525 476.157C199.077 477.954 199.644 480.487 199.897 481.645C200.41 483.926 201.524 485.426 202.402 486.643C204.195 489.083 206.589 491.306 209.628 492.037C210.487 492.247 211.433 492.332 212.254 491.971C213.015 491.643 213.576 490.972 214.028 490.282C215.822 487.541 216.397 484.11 215.555 481.023C214.697 477.942 212.475 475.272 209.517 473.837C208.272 473.237 206.576 472.397 204.801 472.958C203.184 473.458 201.535 475.095 200.976 475.649C200.732 475.9 200.608 476.017 200.505 476.146L200.525 476.157Z" fill="#222222"/>
<path d="M256.25 511.654C282.788 504.269 298.661 478.03 291.702 453.046C284.744 428.063 257.59 413.796 231.051 421.18C204.513 428.565 188.641 454.804 195.599 479.788C202.558 504.771 229.712 519.038 256.25 511.654Z" fill="#629665"/>
<path d="M246.344 435.26L241.196 438.21C240.772 438.454 240.636 439.01 240.899 439.431L243.768 444.152C244.219 444.889 243.468 445.765 242.697 445.404L237.022 442.729C236.636 442.549 236.19 442.673 235.964 443.023L232.488 448.245C232.014 448.952 230.919 448.59 230.924 447.726L230.939 442.202C230.947 441.706 230.543 441.301 230.054 441.31L224.122 441.443C223.232 441.461 222.893 440.244 223.664 439.8L228.812 436.85C229.235 436.605 229.371 436.05 229.109 435.629L226.24 430.908C225.789 430.171 226.54 429.295 227.311 429.656L232.986 432.331C233.371 432.511 233.817 432.387 234.044 432.036L237.519 426.815C237.993 426.108 239.089 426.47 239.083 427.334L239.068 432.858C239.061 433.354 239.465 433.759 239.954 433.749L245.886 433.617C246.775 433.599 247.114 434.816 246.344 435.26Z" fill="#4A734E"/>
<path d="M224.792 461.054C223.272 463.183 223.326 465.52 223.439 468.44C223.553 471.279 223.642 473.536 224.923 476.2C225.681 477.765 226.698 479.891 228.927 481.219C232.702 483.477 238.815 482.837 241.223 479.158C242.586 477.084 242.924 474.465 242.617 472.003C242.31 469.541 241.381 467.194 240.392 464.921C238.668 460.997 236.903 458.122 233.782 457.388C230.108 456.52 226.574 459.29 226.333 459.495C225.968 459.793 225.377 460.269 224.809 461.072L224.792 461.054Z" fill="#F5F1DE"/>
<path d="M230.462 463.757C228.968 464.787 228.587 466.49 228.546 466.71C228.342 467.658 228.541 468.576 229.139 470.354C229.491 471.414 229.914 472.443 230.39 473.456C230.733 474.195 231.118 474.921 231.698 475.489C232.601 476.396 233.948 476.808 235.186 476.58C236.423 476.351 237.523 475.466 238.029 474.295C238.509 473.189 238.462 471.916 238.378 470.713C238.252 468.988 238.039 467.241 237.288 465.69C236.772 464.618 235.991 463.33 234.55 462.909C232.913 462.439 231.163 463.365 230.877 463.526C230.777 463.577 230.648 463.648 230.475 463.765L230.462 463.757Z" fill="#222222"/>
<path d="M255.909 452.396C258.31 453.434 259.472 455.463 260.885 458.021C262.256 460.51 263.347 462.489 263.627 465.431C263.787 467.162 264.016 469.508 262.793 471.796C260.729 475.679 255.164 478.289 251.201 476.383C248.962 475.311 247.318 473.243 246.308 470.977C245.298 468.71 244.88 466.221 244.552 463.765C244 459.514 244.024 456.141 246.317 453.901C249.014 451.26 253.471 451.806 253.784 451.858C254.25 451.924 255.002 452.026 255.904 452.42L255.909 452.396Z" fill="#F5F1DE"/>
<path d="M252.824 457.537C254.428 457.704 255.536 458.994 255.673 459.164C256.284 459.886 256.581 460.775 257.001 462.604C257.254 463.691 257.439 464.786 257.578 465.893C257.682 466.698 257.749 467.513 257.595 468.285C257.366 469.507 256.569 470.516 255.542 470.917C254.516 471.319 253.273 471.086 252.33 470.318C251.439 469.593 250.857 468.47 250.336 467.388C249.594 465.834 248.904 464.22 248.709 462.514C248.571 461.337 248.525 459.845 249.387 458.783C250.371 457.583 252.115 457.537 252.405 457.538C252.504 457.534 252.633 457.532 252.818 457.55L252.824 457.537Z" fill="#222222"/>
<path d="M280.3 443.808C279.568 441.246 276.919 439.739 274.346 440.455C274.29 440.455 274.196 440.493 274.121 440.512C270.608 441.679 270.327 446.482 273.482 448.233L280.488 452.132C281.071 452.452 281.822 452.245 282.141 451.661C282.461 451.077 282.254 450.324 281.672 450.004L274.647 446.105C273.257 445.333 273.482 443.337 274.872 442.866C274.872 442.866 274.91 442.866 274.928 442.866C274.928 442.866 274.947 442.866 274.966 442.866C276.243 442.508 277.558 443.243 277.915 444.523C278.103 445.182 278.779 445.559 279.436 445.371C280.094 445.182 280.47 444.504 280.282 443.845L280.3 443.808Z" fill="#D3883E"/>
<path d="M297.149 444.467C297.506 443.186 298.84 442.451 300.098 442.809C300.098 442.809 300.117 442.809 300.136 442.809C300.173 442.809 300.192 442.809 300.192 442.809C301.582 443.28 301.807 445.276 300.417 446.049L293.392 449.947C292.81 450.267 292.585 451.021 292.923 451.605C293.242 452.188 293.994 452.414 294.576 452.075L301.601 448.177C304.756 446.425 304.475 441.642 300.962 440.455C300.868 440.417 300.774 440.399 300.737 440.399C298.163 439.683 295.515 441.19 294.782 443.751C294.595 444.41 294.97 445.088 295.628 445.276C296.285 445.465 296.961 445.088 297.149 444.429V444.467Z" fill="#D3883E"/>
<path d="M289.899 457.931V451.961H285.184V457.931C285.184 458.986 284.715 459.984 283.907 460.643L281.202 462.903H293.881L291.176 460.643C290.368 459.965 289.899 458.967 289.899 457.931Z" fill="#D3883E"/>
<path d="M287.55 456.556C282.122 456.556 277.708 452.149 277.708 446.687V436.969C277.708 436.422 278.159 435.97 278.704 435.97H296.397C296.942 435.97 297.393 436.422 297.393 436.969V446.687C297.393 452.13 292.998 456.556 287.532 456.556H287.55Z" fill="#FFB02E"/>
<path d="M297.619 462.921H277.014C275.925 462.921 275.004 463.636 274.798 464.653L272.525 474.692C272.412 475.163 272.788 475.596 273.295 475.596H301.357C301.864 475.596 302.24 475.163 302.127 474.692L299.855 464.653C299.629 463.655 298.709 462.921 297.619 462.921Z" fill="#6D4534"/>
<path d="M291.401 467.065H283.268C282.799 467.065 282.404 467.461 282.404 467.969V470.531C282.404 471.02 282.78 471.435 283.268 471.435H291.401C291.871 471.435 292.265 471.039 292.265 470.531V467.969C292.265 467.48 291.89 467.065 291.401 467.065Z" fill="#FFB02E"/>
<defs>
<filter id="filter0_f_1_1028" x="28.312" y="423.384" width="185.739" height="104.095" filterUnits="userSpaceOnUse" color-interpolation-filters="sRGB">
<feFlood flood-opacity="0" result="BackgroundImageFix"/>
<feBlend mode="normal" in="SourceGraphic" in2="BackgroundImageFix" result="shape"/>
<feGaussianBlur stdDeviation="10" result="effect1_foregroundBlur_1_1028"/>
</filter>
<filter id="filter1_f_1_1028" x="178.128" y="485.565" width="131.45" height="71.3835" filterUnits="userSpaceOnUse" color-interpolation-filters="sRGB">
<feFlood flood-opacity="0" result="BackgroundImageFix"/>
<feBlend mode="normal" in="SourceGraphic" in2="BackgroundImageFix" result="shape"/>
<feGaussianBlur stdDeviation="10" result="effect1_foregroundBlur_1_1028"/>
</filter>
<filter id="filter2_f_1_1028" x="254.344" y="426.818" width="152.823" height="95.1451" filterUnits="userSpaceOnUse" color-interpolation-filters="sRGB">
<feFlood flood-opacity="0" result="BackgroundImageFix"/>
<feBlend mode="normal" in="SourceGraphic" in2="BackgroundImageFix" result="shape"/>
<feGaussianBlur stdDeviation="10" result="effect1_foregroundBlur_1_1028"/>
</filter>
<linearGradient id="paint0_linear_1_1028" x1="205.5" y1="402" x2="205.5" y2="568" gradientUnits="userSpaceOnUse">
<stop stop-color="#92AB95"/>
<stop offset="1" stop-color="#809B83"/>
</linearGradient>
</defs>
</svg>
