<svg width="1050" height="233" viewBox="0 0 1050 233" fill="none" xmlns="http://www.w3.org/2000/svg">
<g clip-path="url(#clip0_1_1403)">
<rect y="0.873535" width="1050" height="231.874" rx="20" fill="white"/>
<path d="M57.25 81.9575V110.208H53.9375V95.8013H50.75V108.77H47.5625V82.4888H50.75V93.02H53.9375V81.9575H57.25ZM44.375 85.3013V88.1138H37.3125V100.676C40.3906 100.645 42.9219 100.489 45.7812 99.9575L46.0312 102.801C42.625 103.489 39.6562 103.583 35.7188 103.614H33.8125V85.3013H44.375ZM69.43 83.7075C73.8988 83.7075 77.18 86.52 77.2113 90.52C77.18 94.0044 74.7269 96.5513 71.18 97.1763V101.301C73.6956 101.176 76.2425 100.958 78.6488 100.614L78.93 103.114C72.5863 104.301 65.805 104.364 60.8363 104.364L60.3988 101.52C62.555 101.52 65.0706 101.52 67.7113 101.426V97.1763C64.1644 96.5669 61.68 94.0044 61.68 90.52C61.68 86.52 64.9925 83.7075 69.43 83.7075ZM69.43 86.7075C66.9613 86.7075 65.1175 88.145 65.1175 90.52C65.1175 92.8638 66.9613 94.3638 69.43 94.3638C71.93 94.3638 73.805 92.8638 73.805 90.52C73.805 88.145 71.93 86.7075 69.43 86.7075ZM83.805 81.9575V110.239H80.3363V81.9575H83.805ZM109.985 81.9575V88.8325H113.798V91.7388H109.985V98.5825H106.516V81.9575H109.985ZM109.985 99.7075V105.801H94.6413V107.614H110.985V109.958H91.1725V103.645H106.516V102.051H91.11V99.7075H109.985ZM87.36 95.7388C89.485 95.7388 91.9225 95.7388 94.485 95.645V94.2388C91.3131 93.9263 89.36 92.645 89.36 90.5513C89.36 88.27 92.0163 86.9263 96.1725 86.9263C100.329 86.9263 102.985 88.27 102.985 90.5513C102.985 92.6138 101.079 93.895 97.9538 94.2388V95.52C100.36 95.4263 102.782 95.2231 105.048 94.9263L105.329 97.1138C99.2975 98.145 92.6725 98.1763 87.735 98.1763L87.36 95.7388ZM104.298 83.8638V86.2388H88.0788V83.8638H94.485V81.7388H97.9538V83.8638H104.298ZM96.1725 89.1138C93.985 89.145 92.6725 89.6138 92.7038 90.5513C92.6725 91.5513 93.985 92.1138 96.1725 92.1138C98.36 92.1138 99.6725 91.5513 99.6725 90.5513C99.6725 89.6138 98.36 89.145 96.1725 89.1138ZM140.728 95.4888V98.27H114.946V95.4888H126.134V92.8013H118.103V83.2388H137.603V85.9575H121.571V90.0513H137.759V92.8013H129.54V95.4888H140.728ZM127.79 99.895C133.884 99.895 137.54 101.739 137.571 105.051C137.54 108.333 133.884 110.208 127.79 110.208C121.634 110.208 117.946 108.333 117.946 105.051C117.946 101.739 121.634 99.895 127.79 99.895ZM127.79 102.551C123.665 102.551 121.446 103.426 121.478 105.051C121.446 106.676 123.665 107.52 127.79 107.52C131.821 107.52 134.071 106.676 134.103 105.051C134.071 103.426 131.821 102.551 127.79 102.551ZM153.713 84.6138V91.27H158.369V84.6138H161.525V92.395H164.806V82.4888H168.119V108.895H164.806V95.27H161.525V103.364H150.431V84.6138H153.713ZM153.713 100.52H158.369V94.0513H153.713V100.52ZM173.931 81.9575V110.208H170.588V81.9575H173.931ZM188.393 85.2075V87.9575H181.143V92.8013H187.205V95.4888H181.143V100.958C184.502 100.926 186.814 100.77 189.58 100.301L189.893 103.083C186.643 103.708 183.955 103.77 179.674 103.77H177.83V85.2075H188.393ZM201.268 81.9575V110.208H197.893V81.9575H201.268ZM195.33 82.52V108.833H192.08V95.2075H188.58V92.395H192.08V82.52H195.33ZM226.51 81.9888V88.7388H230.479V91.6138H226.51V98.9575H223.041V81.9888H226.51ZM218.197 83.7075V91.8325H208.791V94.8013C213.588 94.77 216.869 94.5981 220.729 93.9575L221.104 96.7388C216.885 97.4888 213.229 97.6763 207.635 97.645H205.322V89.2075H214.791V86.4575H205.291V83.7075H218.197ZM217.291 99.5825C223.104 99.6138 226.76 101.583 226.791 104.926C226.76 108.239 223.104 110.145 217.291 110.145C211.354 110.145 207.729 108.239 207.729 104.926C207.729 101.583 211.354 99.6138 217.291 99.5825ZM217.291 102.301C213.354 102.301 211.104 103.239 211.135 104.926C211.104 106.614 213.354 107.52 217.291 107.52C221.197 107.52 223.354 106.614 223.354 104.926C223.354 103.239 221.197 102.301 217.291 102.301ZM255.065 81.9575V110.239H251.565V81.9575H255.065ZM239.846 84.02C244.096 84.02 247.19 87.895 247.221 93.9888C247.19 100.145 244.096 103.989 239.846 103.989C235.565 103.989 232.471 100.145 232.471 93.9888C232.471 87.895 235.565 84.02 239.846 84.02ZM239.846 87.145C237.44 87.145 235.815 89.6763 235.815 93.9888C235.815 98.3325 237.44 100.864 239.846 100.864C242.221 100.864 243.846 98.3325 243.846 93.9888C243.846 89.6763 242.221 87.145 239.846 87.145ZM56.5938 129.989V150.614H53.125V140.27H48.125V137.458H53.125V129.989H56.5938ZM57.3125 154.833V157.645H38.0625V148.801H41.5312V154.833H57.3125ZM43.3125 135.614C43.3125 139.02 45.5938 142.52 49.9688 143.958L48.2188 146.739C45.0625 145.661 42.8281 143.52 41.5938 140.833C40.3438 143.817 37.9844 146.176 34.6562 147.333L32.875 144.52C37.375 143.051 39.7812 139.333 39.7812 135.583V134.833H33.9062V132.02H49.1562V134.833H43.3125V135.614ZM74.9925 132.301C74.9925 135.864 78.9613 139.458 84.9925 140.239L83.6175 143.051C78.8206 142.333 75.0081 139.973 73.18 136.77C71.3206 139.973 67.5238 142.333 62.7738 143.051L61.3988 140.239C67.3675 139.458 71.3363 135.864 71.3363 132.301V130.864H74.9925V132.301ZM86.0238 145.489V148.364H74.805V158.208H71.3675V148.364H60.2738V145.489H86.0238ZM109.735 129.958V141.208H114.079V144.083H109.735V158.208H106.298V129.958H109.735ZM104.11 134.301V137.083H87.4538V134.301H94.1413V130.364H97.61V134.301H104.11ZM95.8913 138.926C99.9538 138.926 102.985 141.676 102.985 145.583C102.985 149.489 99.9538 152.208 95.8913 152.208C91.7663 152.208 88.735 149.489 88.7663 145.583C88.735 141.676 91.7663 138.926 95.8913 138.926ZM95.8913 141.77C93.6725 141.77 92.0788 143.27 92.0788 145.583C92.0788 147.895 93.6725 149.364 95.8913 149.333C98.0475 149.364 99.6413 147.895 99.6725 145.583C99.6413 143.27 98.0475 141.77 95.8913 141.77ZM137.821 137.958V140.708H118.259V130.989H121.696V137.958H137.821ZM140.728 143.989V146.739H114.915V143.989H140.728ZM138.009 154.739V157.551H118.009V149.239H121.478V154.739H138.009ZM171.931 129.958V136.833H175.744V139.739H171.931V146.583H168.463V129.958H171.931ZM171.931 147.708V153.801H156.588V155.614H172.931V157.958H153.119V151.645H168.463V150.051H153.056V147.708H171.931ZM149.306 143.739C151.431 143.739 153.869 143.739 156.431 143.645V142.239C153.259 141.926 151.306 140.645 151.306 138.551C151.306 136.27 153.963 134.926 158.119 134.926C162.275 134.926 164.931 136.27 164.931 138.551C164.931 140.614 163.025 141.895 159.9 142.239V143.52C162.306 143.426 164.728 143.223 166.994 142.926L167.275 145.114C161.244 146.145 154.619 146.176 149.681 146.176L149.306 143.739ZM166.244 131.864V134.239H150.025V131.864H156.431V129.739H159.9V131.864H166.244ZM158.119 137.114C155.931 137.145 154.619 137.614 154.65 138.551C154.619 139.551 155.931 140.114 158.119 140.114C160.306 140.114 161.619 139.551 161.619 138.551C161.619 137.614 160.306 137.145 158.119 137.114ZM202.674 143.489V146.27H176.893V143.489H188.08V140.801H180.049V131.239H199.549V133.958H183.518V138.051H199.705V140.801H191.486V143.489H202.674ZM189.736 147.895C195.83 147.895 199.486 149.739 199.518 153.051C199.486 156.333 195.83 158.208 189.736 158.208C183.58 158.208 179.893 156.333 179.893 153.051C179.893 149.739 183.58 147.895 189.736 147.895ZM189.736 150.551C185.611 150.551 183.393 151.426 183.424 153.051C183.393 154.676 185.611 155.52 189.736 155.52C193.768 155.52 196.018 154.676 196.049 153.051C196.018 151.426 193.768 150.551 189.736 150.551ZM237.253 139.864V142.676H226.096V145.364H234.034V152.895H218.003V155.208H234.878V157.958H214.534V150.301H230.565V148.114H214.471V145.364H222.628V142.676H211.503V139.864H218.721C219.518 137.254 219.706 135.286 219.753 133.708H213.878V130.895H223.159V132.426C223.159 134.145 223.159 136.676 222.253 139.864H229.94C230.628 137.27 230.815 135.27 230.878 133.708H225.003V130.895H234.253V132.239C234.253 133.942 234.253 136.504 233.409 139.864H237.253ZM254.057 131.458V134.208H243.932V136.801H253.245V139.551H243.932V142.239C249.214 142.192 252.432 142.036 256.151 141.426L256.495 144.208C252.432 144.864 248.901 144.989 242.807 144.958H240.401V131.458H254.057ZM262.37 129.958V145.708H258.87V129.958H262.37ZM247.12 146.926V149.614H258.901V146.926H262.37V157.864H243.682V146.926H247.12ZM247.12 155.051H258.901V152.301H247.12V155.051Z" fill="#222222"/>
<path d="M37.3125 184.553C37.3125 185.194 37.4557 185.814 37.7422 186.413C38.0339 187.006 38.4401 187.535 38.9609 187.999C39.4818 188.457 40.0781 188.808 40.75 189.053L40.0625 190.006C39.2969 189.704 38.6224 189.264 38.0391 188.686C37.4609 188.108 37.0234 187.441 36.7266 186.686C36.4349 187.525 35.9844 188.264 35.375 188.905C34.7656 189.54 34.0521 190.022 33.2344 190.35L32.5781 189.35C33.2656 189.095 33.875 188.722 34.4062 188.233C34.9427 187.743 35.3594 187.176 35.6562 186.53C35.9583 185.884 36.1094 185.209 36.1094 184.506V182.788H37.3125V184.553ZM35.0938 191.163H36.3281V194.491H44.3906V195.522H35.0938V191.163ZM39.75 185.209H42.8438V181.944H44.0781V192.35H42.8438V186.241H39.75V185.209ZM47.9181 186.647H50.9338V183.256H52.0744V192.35H46.7463V183.256H47.9181V186.647ZM50.9338 191.334V187.647H47.9181V191.334H50.9338ZM53.84 182.225H55.0119V187.444H56.9494V181.928H58.1369V195.819H56.9494V188.459H55.0119V195.116H53.84V182.225ZM72.5706 188.756H59.8988V187.772H72.5706V188.756ZM61.43 190.006H70.93V193.225H62.68V194.663H71.3519V195.663H61.4613V192.303H69.7269V190.959H61.43V190.006ZM61.5863 182.413H70.9144V183.397H62.8206V185.631H71.055V186.631H61.5863V182.413ZM78.1138 182.944C78.8325 182.944 79.4731 183.082 80.0356 183.358C80.6033 183.634 81.046 184.019 81.3638 184.514C81.6867 185.009 81.8481 185.574 81.8481 186.209C81.8481 186.845 81.6867 187.41 81.3638 187.905C81.046 188.4 80.6033 188.785 80.0356 189.061C79.4731 189.337 78.8325 189.475 78.1138 189.475C77.3898 189.475 76.7414 189.337 76.1684 189.061C75.6007 188.785 75.158 188.4 74.8403 187.905C74.5226 187.41 74.3638 186.845 74.3638 186.209C74.3638 185.574 74.5226 185.009 74.8403 184.514C75.158 184.019 75.6007 183.634 76.1684 183.358C76.7414 183.082 77.3898 182.944 78.1138 182.944ZM74.2934 191.741C75.8716 191.741 77.369 191.709 78.7856 191.647C80.2075 191.584 81.5513 191.459 82.8169 191.272L82.9106 192.178C81.5096 192.439 80.0851 192.605 78.6372 192.678C77.1893 192.751 75.5825 192.788 73.8169 192.788L73.645 191.741H74.2934ZM75.5669 186.209C75.5669 186.637 75.6736 187.017 75.8872 187.35C76.1059 187.678 76.408 187.936 76.7934 188.124C77.1841 188.306 77.6242 188.397 78.1138 188.397C78.5981 188.397 79.033 188.306 79.4184 188.124C79.8039 187.936 80.1033 187.678 80.3169 187.35C80.5356 187.017 80.645 186.637 80.645 186.209C80.645 185.788 80.5356 185.41 80.3169 185.077C80.1033 184.743 79.8039 184.486 79.4184 184.303C79.033 184.116 78.5981 184.022 78.1138 184.022C77.6242 184.022 77.1841 184.116 76.7934 184.303C76.408 184.486 76.1059 184.743 75.8872 185.077C75.6736 185.41 75.5669 185.788 75.5669 186.209ZM83.7388 181.928H84.9575V195.85H83.7388V181.928ZM103.794 187.897H98.0125V189.616H102.169V193.069H93.8719V194.663H102.622V195.663H92.6375V192.116H100.934V190.616H92.6063V189.616H96.8094V187.897H91.0906V186.881H95.075C95.3927 185.709 95.5672 184.574 95.5984 183.475H92.325V182.444H96.8094V182.897C96.8042 183.517 96.7729 184.134 96.7156 184.749C96.6583 185.363 96.5229 186.074 96.3094 186.881H100.606C100.903 185.725 101.062 184.59 101.083 183.475H97.8563V182.444H102.278V182.913C102.273 183.548 102.244 184.168 102.192 184.772C102.14 185.376 102.02 186.079 101.833 186.881H103.794V187.897ZM112.228 183.709H106.806V185.413H111.837V186.413H106.806V188.209C108.347 188.204 109.589 188.173 110.532 188.116C111.48 188.058 112.425 187.949 113.368 187.788L113.493 188.803C112.53 188.965 111.563 189.071 110.595 189.124C109.631 189.176 108.332 189.204 106.696 189.209H105.571V182.709H112.228V183.709ZM107.228 190.35H108.446V191.928H115.009V190.35H116.228V195.631H107.228V190.35ZM115.009 194.631V192.913H108.446V194.631H115.009ZM115.009 181.928H116.228V189.663H115.009V181.928ZM131.083 190.256H118.427V189.256H131.083V190.256ZM119.833 185.178C119.833 184.605 120.031 184.111 120.427 183.694C120.828 183.277 121.398 182.962 122.138 182.749C122.883 182.53 123.755 182.423 124.755 182.428C125.745 182.423 126.609 182.53 127.349 182.749C128.088 182.962 128.659 183.277 129.06 183.694C129.461 184.111 129.661 184.605 129.661 185.178C129.661 185.746 129.458 186.238 129.052 186.655C128.651 187.071 128.081 187.392 127.341 187.616C126.607 187.834 125.745 187.944 124.755 187.944C123.755 187.944 122.885 187.834 122.146 187.616C121.406 187.392 120.836 187.071 120.435 186.655C120.034 186.238 119.833 185.746 119.833 185.178ZM120.067 191.475H121.302V194.491H129.677V195.522H120.067V191.475ZM121.099 185.178C121.099 185.543 121.247 185.858 121.544 186.124C121.841 186.389 122.263 186.592 122.81 186.733C123.362 186.874 124.01 186.944 124.755 186.944C125.495 186.944 126.138 186.874 126.685 186.733C127.237 186.592 127.661 186.389 127.958 186.124C128.26 185.858 128.411 185.543 128.411 185.178C128.411 184.819 128.26 184.506 127.958 184.241C127.661 183.975 127.237 183.772 126.685 183.631C126.133 183.486 125.489 183.413 124.755 183.413C124.015 183.413 123.37 183.486 122.817 183.631C122.265 183.772 121.841 183.975 121.544 184.241C121.247 184.506 121.099 184.819 121.099 185.178ZM139.685 183.006C140.32 183.012 140.888 183.191 141.388 183.545C141.893 183.894 142.297 184.392 142.599 185.038H146.247V181.928H147.466V195.85H146.247V190.459H142.685C142.393 191.168 141.987 191.717 141.466 192.108C140.945 192.493 140.352 192.683 139.685 192.678C139.003 192.678 138.396 192.483 137.865 192.092C137.339 191.696 136.93 191.134 136.638 190.405C136.346 189.676 136.201 188.824 136.201 187.85C136.201 186.881 136.346 186.032 136.638 185.303C136.93 184.569 137.339 184.004 137.865 183.608C138.396 183.207 139.003 183.006 139.685 183.006ZM137.372 187.85C137.372 188.595 137.469 189.251 137.662 189.819C137.859 190.381 138.133 190.816 138.482 191.124C138.831 191.431 139.232 191.584 139.685 191.584C140.133 191.584 140.531 191.431 140.88 191.124C141.234 190.816 141.508 190.379 141.701 189.811C141.899 189.243 141.997 188.59 141.997 187.85C141.997 187.111 141.899 186.457 141.701 185.889C141.508 185.321 141.234 184.881 140.88 184.569C140.531 184.256 140.133 184.1 139.685 184.1C139.232 184.1 138.831 184.256 138.482 184.569C138.133 184.881 137.859 185.321 137.662 185.889C137.469 186.452 137.372 187.105 137.372 187.85ZM142.951 186.069C143.086 186.621 143.154 187.215 143.154 187.85C143.154 188.418 143.102 188.949 142.997 189.444H146.247V186.069H142.951ZM161.119 195.85H159.9V188.303H157.197V187.272H159.9V181.928H161.119V195.85ZM150.103 183.225H156.353V188.084H151.369V191.459C152.666 191.459 153.775 191.428 154.697 191.366C155.624 191.303 156.567 191.183 157.525 191.006L157.619 192.038C156.629 192.215 155.65 192.337 154.681 192.405C153.718 192.467 152.561 192.501 151.213 192.506H150.15V187.069H155.166V184.241H150.103V183.225ZM175.99 190.288H170.334V193.006H169.115V190.288H163.271V189.288H175.99V190.288ZM164.896 191.725H166.115V194.491H174.568V195.522H164.896V191.725ZM164.974 182.381H166.193V184.163H173.068V182.381H174.287V187.928H164.974V182.381ZM173.068 186.928V185.1H166.193V186.928H173.068ZM181.502 182.944C182.221 182.944 182.861 183.082 183.424 183.358C183.991 183.634 184.434 184.019 184.752 184.514C185.075 185.009 185.236 185.574 185.236 186.209C185.236 186.845 185.075 187.41 184.752 187.905C184.434 188.4 183.991 188.785 183.424 189.061C182.861 189.337 182.221 189.475 181.502 189.475C180.778 189.475 180.129 189.337 179.557 189.061C178.989 188.785 178.546 188.4 178.228 187.905C177.911 187.41 177.752 186.845 177.752 186.209C177.752 185.574 177.911 185.009 178.228 184.514C178.546 184.019 178.989 183.634 179.557 183.358C180.129 183.082 180.778 182.944 181.502 182.944ZM177.682 191.741C179.26 191.741 180.757 191.709 182.174 191.647C183.596 191.584 184.939 191.459 186.205 191.272L186.299 192.178C184.898 192.439 183.473 192.605 182.025 192.678C180.577 192.751 178.971 192.788 177.205 192.788L177.033 191.741H177.682ZM178.955 186.209C178.955 186.637 179.062 187.017 179.275 187.35C179.494 187.678 179.796 187.936 180.182 188.124C180.572 188.306 181.012 188.397 181.502 188.397C181.986 188.397 182.421 188.306 182.807 188.124C183.192 187.936 183.491 187.678 183.705 187.35C183.924 187.017 184.033 186.637 184.033 186.209C184.033 185.788 183.924 185.41 183.705 185.077C183.491 184.743 183.192 184.486 182.807 184.303C182.421 184.116 181.986 184.022 181.502 184.022C181.012 184.022 180.572 184.116 180.182 184.303C179.796 184.486 179.494 184.743 179.275 185.077C179.062 185.41 178.955 185.788 178.955 186.209ZM187.127 181.928H188.346V195.85H187.127V181.928ZM206.354 195.819H205.182V188.538H203.135V195.1H202.01V182.241H203.135V187.522H205.182V181.928H206.354V195.819ZM194.994 183.631H200.197V184.647H196.213V191.334C197.239 191.329 198.109 191.301 198.822 191.249C199.536 191.191 200.26 191.09 200.994 190.944L201.104 191.975C200.322 192.137 199.552 192.243 198.791 192.295C198.031 192.347 197.062 192.376 195.885 192.381H194.994V183.631ZM212.694 182.834C213.413 182.84 214.053 182.98 214.616 183.256C215.183 183.527 215.626 183.91 215.944 184.405C216.267 184.9 216.428 185.465 216.428 186.1C216.428 186.673 216.295 187.191 216.03 187.655C215.769 188.113 215.402 188.486 214.928 188.772C214.459 189.058 213.918 189.238 213.303 189.311V191.678C214.866 191.6 216.23 191.47 217.397 191.288L217.491 192.194C216.511 192.376 215.496 192.512 214.444 192.6C213.392 192.689 212.418 192.743 211.522 192.764C210.626 192.785 209.584 192.798 208.397 192.803L208.225 191.772C209.86 191.772 211.142 191.756 212.069 191.725V189.311C211.449 189.238 210.902 189.058 210.428 188.772C209.959 188.48 209.595 188.105 209.334 187.647C209.074 187.189 208.944 186.673 208.944 186.1C208.944 185.465 209.103 184.902 209.42 184.413C209.738 183.918 210.181 183.532 210.748 183.256C211.321 182.98 211.97 182.84 212.694 182.834ZM210.147 186.1C210.147 186.522 210.254 186.9 210.467 187.233C210.686 187.566 210.988 187.827 211.373 188.014C211.764 188.196 212.204 188.288 212.694 188.288C213.178 188.288 213.613 188.196 213.998 188.014C214.384 187.827 214.683 187.566 214.897 187.233C215.116 186.9 215.225 186.522 215.225 186.1C215.225 185.673 215.116 185.293 214.897 184.959C214.683 184.626 214.384 184.368 213.998 184.186C213.613 184.004 213.178 183.913 212.694 183.913C212.204 183.913 211.764 184.004 211.373 184.186C210.988 184.368 210.686 184.626 210.467 184.959C210.254 185.293 210.147 185.673 210.147 186.1ZM218.319 181.928H219.538V195.85H218.319V181.928ZM232.659 185.491H234.737V186.538H232.659V190.131H231.424V181.928H232.659V185.491ZM221.753 188.881C223.357 188.881 224.612 188.868 225.518 188.842V187.983C224.69 187.915 224.039 187.722 223.565 187.405C223.091 187.087 222.857 186.668 222.862 186.147C222.862 185.772 222.992 185.452 223.253 185.186C223.513 184.915 223.885 184.709 224.37 184.569C224.859 184.423 225.43 184.35 226.081 184.35C226.747 184.35 227.325 184.42 227.815 184.561C228.31 184.702 228.693 184.907 228.963 185.178C229.234 185.449 229.372 185.772 229.378 186.147C229.372 186.663 229.135 187.079 228.667 187.397C228.198 187.715 227.555 187.91 226.737 187.983V188.795C228.2 188.722 229.476 188.611 230.565 188.459L230.674 189.288C229.346 189.506 227.974 189.647 226.557 189.709C225.141 189.772 223.586 189.803 221.893 189.803L221.753 188.881ZM222.096 182.991H225.518V181.803H226.737V182.991H230.143V183.881H222.096V182.991ZM223.612 190.756H232.659V193.553H224.862V194.788H233.19V195.663H223.643V192.725H231.44V191.631H223.612V190.756ZM224.034 186.147C224.029 186.459 224.213 186.709 224.588 186.897C224.963 187.079 225.471 187.173 226.112 187.178C226.753 187.173 227.26 187.079 227.635 186.897C228.016 186.709 228.206 186.459 228.206 186.147C228.206 185.845 228.018 185.608 227.643 185.436C227.268 185.259 226.758 185.168 226.112 185.163C225.466 185.168 224.956 185.259 224.581 185.436C224.211 185.608 224.029 185.845 224.034 186.147ZM248.155 189.788H235.483V188.803H241.217V187.178H237.092V182.584H246.577V183.569H238.296V186.178H246.671V187.178H242.405V188.803H248.155V189.788ZM237.014 193.303C237.014 192.777 237.204 192.329 237.585 191.959C237.965 191.584 238.514 191.298 239.233 191.1C239.952 190.902 240.811 190.803 241.811 190.803C242.801 190.803 243.652 190.902 244.366 191.1C245.079 191.298 245.626 191.584 246.007 191.959C246.392 192.329 246.587 192.777 246.592 193.303C246.587 193.834 246.395 194.285 246.014 194.655C245.634 195.03 245.085 195.316 244.366 195.514C243.652 195.712 242.801 195.814 241.811 195.819C240.811 195.814 239.952 195.712 239.233 195.514C238.514 195.316 237.965 195.03 237.585 194.655C237.204 194.28 237.014 193.829 237.014 193.303ZM238.264 193.303C238.259 193.621 238.395 193.897 238.671 194.131C238.952 194.361 239.356 194.535 239.882 194.655C240.408 194.775 241.035 194.834 241.764 194.834C242.889 194.834 243.767 194.702 244.397 194.436C245.033 194.17 245.353 193.793 245.358 193.303C245.358 192.986 245.215 192.712 244.928 192.483C244.642 192.254 244.233 192.079 243.702 191.959C243.171 191.834 242.54 191.772 241.811 191.772C241.072 191.772 240.434 191.834 239.897 191.959C239.366 192.079 238.96 192.254 238.678 192.483C238.397 192.712 238.259 192.986 238.264 193.303ZM257.976 186.194C257.976 186.959 258.145 187.722 258.483 188.483C258.827 189.243 259.286 189.92 259.858 190.514C260.437 191.103 261.064 191.543 261.741 191.834L261.054 192.803C260.236 192.433 259.499 191.871 258.843 191.116C258.192 190.361 257.705 189.504 257.382 188.545C257.059 189.561 256.569 190.483 255.913 191.311C255.262 192.134 254.538 192.746 253.741 193.147L253.007 192.178C253.668 191.861 254.283 191.381 254.851 190.741C255.424 190.1 255.882 189.379 256.226 188.577C256.569 187.769 256.741 186.975 256.741 186.194V184.381H253.46V183.366H261.288V184.381H257.976V186.194ZM263.226 181.928H264.46V195.819H263.226V181.928ZM278.128 192.491H276.894V191.053H274.019V190.163H276.894V181.944H278.128V192.491ZM266.597 188.381C268.456 188.371 270.102 188.342 271.534 188.295C272.967 188.243 274.336 188.137 275.644 187.975L275.722 188.866C274.592 189.043 273.321 189.176 271.909 189.264V192.006H270.675V189.327C269.738 189.363 268.435 189.381 266.769 189.381L266.597 188.381ZM267.722 184.928C267.722 184.449 267.865 184.027 268.152 183.663C268.438 183.293 268.842 183.009 269.363 182.811C269.883 182.608 270.482 182.506 271.159 182.506C271.831 182.506 272.428 182.608 272.948 182.811C273.469 183.009 273.873 183.293 274.159 183.663C274.451 184.027 274.597 184.449 274.597 184.928C274.597 185.418 274.451 185.845 274.159 186.209C273.873 186.569 273.469 186.847 272.948 187.045C272.433 187.238 271.836 187.334 271.159 187.334C270.477 187.334 269.876 187.238 269.355 187.045C268.834 186.847 268.43 186.569 268.144 186.209C267.863 185.845 267.722 185.418 267.722 184.928ZM268.597 191.459H269.831V194.491H278.472V195.522H268.597V191.459ZM268.894 184.928C268.889 185.225 268.98 185.488 269.167 185.717C269.355 185.941 269.62 186.116 269.964 186.241C270.313 186.366 270.711 186.428 271.159 186.428C271.597 186.428 271.985 186.366 272.323 186.241C272.667 186.116 272.935 185.941 273.128 185.717C273.326 185.488 273.425 185.225 273.425 184.928C273.425 184.637 273.326 184.379 273.128 184.155C272.935 183.926 272.667 183.749 272.323 183.624C271.985 183.499 271.597 183.439 271.159 183.444C270.711 183.439 270.316 183.499 269.972 183.624C269.628 183.749 269.36 183.926 269.167 184.155C268.98 184.379 268.889 184.637 268.894 184.928ZM293.046 191.178H287.249V195.819H286.046V191.178H280.327V190.178H293.046V191.178ZM281.952 182.506H283.171V184.428H290.171V182.506H291.406V188.491H281.952V182.506ZM290.171 187.491V185.428H283.171V187.491H290.171ZM305.527 195.85H304.308V188.194H301.371V187.178H304.308V181.928H305.527V195.85ZM294.652 183.209H301.136V184.225H295.886V187.116H300.527V188.116H295.886V191.475C297.256 191.47 298.386 191.439 299.277 191.381C300.173 191.324 301.074 191.215 301.98 191.053L302.121 192.069C301.131 192.23 300.16 192.342 299.207 192.405C298.259 192.462 297.095 192.491 295.714 192.491H294.652V183.209ZM318.504 183.225C318.504 183.855 318.746 184.457 319.23 185.03C319.72 185.597 320.353 186.077 321.129 186.467C321.91 186.853 322.723 187.105 323.566 187.225L323.066 188.225C322.337 188.105 321.631 187.897 320.949 187.6C320.267 187.298 319.655 186.923 319.113 186.475C318.577 186.022 318.165 185.519 317.879 184.967C317.592 185.525 317.181 186.027 316.644 186.475C316.108 186.923 315.499 187.298 314.816 187.6C314.134 187.897 313.426 188.105 312.691 188.225L312.191 187.225C313.04 187.105 313.853 186.853 314.629 186.467C315.405 186.082 316.032 185.605 316.512 185.038C316.996 184.47 317.238 183.866 317.238 183.225V182.428H318.504V183.225ZM311.535 189.756H324.191V190.788H318.441V195.819H317.238V190.788H311.535V189.756ZM329.844 184.178C329.844 184.798 329.99 185.397 330.281 185.975C330.578 186.548 330.987 187.053 331.508 187.491C332.034 187.928 332.63 188.262 333.297 188.491L332.625 189.459C331.859 189.178 331.185 188.764 330.602 188.217C330.023 187.665 329.581 187.025 329.273 186.295C328.977 187.118 328.529 187.837 327.93 188.452C327.331 189.066 326.625 189.532 325.812 189.85L325.156 188.866C325.844 188.611 326.451 188.243 326.977 187.764C327.503 187.285 327.911 186.73 328.203 186.1C328.495 185.465 328.641 184.793 328.641 184.084V182.647H329.844V184.178ZM327 193.256C327 192.73 327.185 192.28 327.555 191.905C327.924 191.525 328.456 191.236 329.148 191.038C329.841 190.84 330.661 190.741 331.609 190.741C332.557 190.741 333.372 190.84 334.055 191.038C334.742 191.236 335.268 191.525 335.633 191.905C336.003 192.28 336.188 192.73 336.188 193.256C336.188 193.793 336.005 194.249 335.641 194.624C335.276 195.004 334.75 195.293 334.062 195.491C333.375 195.689 332.557 195.788 331.609 195.788C330.656 195.788 329.833 195.689 329.141 195.491C328.453 195.293 327.924 195.004 327.555 194.624C327.185 194.243 327 193.788 327 193.256ZM328.234 193.256C328.229 193.579 328.362 193.858 328.633 194.092C328.904 194.327 329.292 194.506 329.797 194.631C330.307 194.756 330.911 194.819 331.609 194.819C332.307 194.819 332.909 194.756 333.414 194.631C333.924 194.506 334.315 194.327 334.586 194.092C334.862 193.858 335 193.579 335 193.256C335 192.944 334.862 192.673 334.586 192.444C334.315 192.209 333.924 192.032 333.414 191.913C332.904 191.788 332.302 191.725 331.609 191.725C330.917 191.725 330.315 191.788 329.805 191.913C329.294 192.038 328.904 192.215 328.633 192.444C328.362 192.673 328.229 192.944 328.234 193.256ZM334.844 181.928H336.062V185.553H338.156V186.584H336.062V190.381H334.844V181.928ZM349.871 187.663H351.981V188.694H349.871V195.819H348.637V181.928H349.871V187.663ZM338.824 191.975C339.824 190.949 340.569 189.808 341.059 188.553C341.554 187.298 341.843 185.939 341.926 184.475H339.262V183.444H343.09C343.08 185.256 342.824 186.936 342.324 188.483C341.83 190.03 340.991 191.428 339.809 192.678L338.824 191.975ZM342.809 192.913C343.814 191.777 344.538 190.499 344.981 189.077C345.423 187.65 345.679 186.116 345.746 184.475H343.527V183.444H346.902C346.897 185.418 346.676 187.262 346.238 188.975C345.801 190.683 344.991 192.225 343.809 193.6L342.809 192.913ZM357.508 186.194C357.508 186.959 357.677 187.722 358.016 188.483C358.36 189.243 358.818 189.92 359.391 190.514C359.969 191.103 360.597 191.543 361.274 191.834L360.586 192.803C359.769 192.433 359.032 191.871 358.375 191.116C357.724 190.361 357.237 189.504 356.914 188.545C356.591 189.561 356.102 190.483 355.446 191.311C354.795 192.134 354.071 192.746 353.274 193.147L352.539 192.178C353.201 191.861 353.815 191.381 354.383 190.741C354.956 190.1 355.414 189.379 355.758 188.577C356.102 187.769 356.274 186.975 356.274 186.194V184.381H352.992V183.366H360.821V184.381H357.508V186.194ZM362.758 181.928H363.992V195.819H362.758V181.928ZM381.282 189.444H376.985V193.038H382.782V194.069H370.063V193.038H375.782V189.444H371.688V183.069H381.141V184.069H372.922V188.444H381.282V189.444ZM387.919 182.834C388.627 182.84 389.26 182.98 389.817 183.256C390.38 183.532 390.82 183.918 391.138 184.413C391.46 184.902 391.622 185.465 391.622 186.1C391.622 186.673 391.492 187.189 391.231 187.647C390.971 188.105 390.606 188.478 390.138 188.764C389.674 189.051 389.143 189.233 388.544 189.311V191.67C389.981 191.608 391.252 191.506 392.356 191.366L392.434 192.288C391.252 192.491 390.01 192.629 388.708 192.702C387.406 192.769 386.039 192.803 384.606 192.803H383.763L383.559 191.772C385.2 191.762 386.45 191.743 387.309 191.717V189.311C386.695 189.238 386.153 189.058 385.684 188.772C385.221 188.486 384.859 188.113 384.598 187.655C384.343 187.191 384.216 186.673 384.216 186.1C384.216 185.465 384.372 184.902 384.684 184.413C384.997 183.918 385.434 183.532 385.997 183.256C386.559 182.98 387.2 182.84 387.919 182.834ZM385.419 186.1C385.414 186.527 385.518 186.91 385.731 187.249C385.945 187.582 386.242 187.842 386.622 188.03C387.002 188.212 387.434 188.303 387.919 188.303C388.393 188.303 388.817 188.212 389.192 188.03C389.572 187.842 389.869 187.582 390.083 187.249C390.302 186.91 390.414 186.527 390.419 186.1C390.414 185.673 390.302 185.293 390.083 184.959C389.869 184.626 389.572 184.366 389.192 184.178C388.817 183.991 388.393 183.897 387.919 183.897C387.434 183.897 387.002 183.991 386.622 184.178C386.242 184.366 385.945 184.626 385.731 184.959C385.518 185.293 385.414 185.673 385.419 186.1ZM393.247 181.928H394.466V187.663H396.731V188.725H394.466V195.819H393.247V181.928ZM410.056 188.741H404.321V190.147H408.431V193.303H400.181V194.694H408.853V195.663H398.962V192.397H407.228V191.084H398.931V190.147H403.118V188.741H397.399V187.741H410.056V188.741ZM398.087 186.116C398.91 186.043 399.686 185.881 400.415 185.631C401.149 185.381 401.751 185.064 402.22 184.678C402.694 184.288 402.962 183.861 403.024 183.397H398.556V182.428H408.931V183.397H404.438C404.496 183.861 404.759 184.288 405.228 184.678C405.701 185.064 406.306 185.381 407.04 185.631C407.774 185.881 408.556 186.043 409.384 186.116L408.978 187.053C407.79 186.933 406.72 186.652 405.767 186.209C404.813 185.767 404.134 185.207 403.728 184.53C403.326 185.207 402.649 185.767 401.696 186.209C400.743 186.652 399.675 186.933 398.493 187.053L398.087 186.116ZM426.423 195.819H425.204V188.538H421.892V187.522H425.204V181.928H426.423V195.819ZM414.939 192.194C418.506 190.465 420.423 187.881 420.689 184.444H415.548V183.444H421.923C421.918 185.538 421.418 187.41 420.423 189.061C419.428 190.707 417.824 192.079 415.611 193.178L414.939 192.194ZM440.497 195.819H439.31V181.928H440.497V195.819ZM428.763 187.928C428.763 186.954 428.886 186.105 429.13 185.381C429.38 184.652 429.729 184.09 430.177 183.694C430.625 183.298 431.149 183.1 431.747 183.1C432.336 183.105 432.854 183.298 433.302 183.678C433.75 184.058 434.099 184.6 434.349 185.303H436.56V182.225H437.732V195.116H436.56V190.553H434.349C434.099 191.256 433.75 191.801 433.302 192.186C432.854 192.571 432.336 192.762 431.747 192.756C431.149 192.756 430.625 192.561 430.177 192.17C429.729 191.775 429.38 191.212 429.13 190.483C428.886 189.754 428.763 188.902 428.763 187.928ZM429.904 187.889C429.904 188.639 429.977 189.295 430.122 189.858C430.274 190.415 430.487 190.845 430.763 191.147C431.039 191.444 431.367 191.59 431.747 191.584C432.122 191.59 432.451 191.444 432.732 191.147C433.013 190.85 433.229 190.426 433.38 189.874C433.531 189.321 433.607 188.673 433.607 187.928C433.607 187.183 433.531 186.535 433.38 185.983C433.229 185.426 433.013 184.999 432.732 184.702C432.451 184.405 432.122 184.256 431.747 184.256C431.372 184.256 431.044 184.405 430.763 184.702C430.487 184.993 430.274 185.413 430.122 185.959C429.977 186.506 429.904 187.15 429.904 187.889ZM434.607 186.319C434.701 186.808 434.747 187.345 434.747 187.928C434.747 188.491 434.703 189.022 434.615 189.522H436.56V186.319H434.607ZM454.978 194.038H442.259V193.006H445.416V189.264C444.811 188.952 444.343 188.548 444.009 188.053C443.676 187.558 443.509 187.001 443.509 186.381C443.509 185.678 443.726 185.056 444.158 184.514C444.59 183.972 445.189 183.553 445.955 183.256C446.726 182.959 447.603 182.808 448.587 182.803C449.572 182.808 450.447 182.959 451.212 183.256C451.983 183.553 452.585 183.972 453.017 184.514C453.449 185.056 453.666 185.678 453.666 186.381C453.666 186.991 453.504 187.54 453.181 188.03C452.858 188.514 452.405 188.913 451.822 189.225V193.006H454.978V194.038ZM444.697 186.381C444.697 186.892 444.861 187.345 445.189 187.741C445.517 188.131 445.976 188.436 446.564 188.655C447.158 188.868 447.832 188.975 448.587 188.975C449.337 188.975 450.007 188.868 450.595 188.655C451.184 188.436 451.645 188.131 451.978 187.741C452.311 187.345 452.478 186.892 452.478 186.381C452.478 185.871 452.311 185.42 451.978 185.03C451.645 184.639 451.184 184.34 450.595 184.131C450.007 183.918 449.337 183.814 448.587 183.819C447.832 183.814 447.158 183.918 446.564 184.131C445.976 184.34 445.517 184.639 445.189 185.03C444.861 185.42 444.697 185.871 444.697 186.381ZM450.587 193.006V189.702C449.968 189.863 449.301 189.944 448.587 189.944C447.869 189.944 447.212 189.866 446.619 189.709V193.006H450.587Z" fill="#4E4E4E"/>
<path d="M838.549 304.489C907.336 304.489 963.098 251.969 963.098 187.181C963.098 122.394 907.336 69.8734 838.549 69.8734C769.763 69.8734 714 122.394 714 187.181C714 251.969 769.763 304.489 838.549 304.489Z" fill="#E24444"/>
<path d="M865.899 114.003L851.54 117.656C850.357 117.96 849.658 119.206 850.007 120.396L853.745 133.679C854.337 135.754 851.943 137.359 850.33 135.975L838.471 125.736C837.664 125.045 836.508 125.045 835.728 125.736L823.87 135.975C822.256 137.359 819.863 135.754 820.455 133.679L824.192 120.396C824.542 119.206 823.843 117.96 822.659 117.656L808.3 114.003C806.149 113.45 806.149 110.295 808.3 109.742L822.659 106.089C823.843 105.785 824.542 104.539 824.192 103.349L820.455 90.0665C819.863 87.9911 822.256 86.3861 823.87 87.7697L835.728 98.0086C836.535 98.7004 837.691 98.7004 838.471 98.0086L850.33 87.7697C851.943 86.3861 854.337 87.9911 853.745 90.0665L850.007 103.349C849.658 104.539 850.357 105.785 851.54 106.089L865.899 109.742C868.051 110.295 868.051 113.45 865.899 114.003Z" fill="#4A734E"/>
<path d="M796.776 161.642C791.694 165.748 790.258 171.408 788.573 178.511C786.944 185.42 785.646 190.913 786.944 198.182C787.717 202.455 788.739 208.254 793.213 212.943C800.78 220.906 815.915 223.458 824.173 216.217C828.84 212.138 831.409 206.062 832.32 199.93C833.231 193.799 832.569 187.528 831.712 181.396C830.193 170.798 827.874 162.696 820.859 158.84C812.601 154.289 802.244 158.59 801.526 158.923C800.449 159.395 798.709 160.144 796.803 161.697L796.776 161.642Z" fill="#F5F1DE"/>
<path d="M808.602 171.953C804.32 173.43 802.261 177.275 802.014 177.776C800.889 179.922 800.752 182.262 800.999 186.944C801.136 189.73 801.465 192.489 801.932 195.247C802.261 197.254 802.701 199.26 803.716 201.015C805.281 203.802 808.245 205.696 811.374 205.975C814.504 206.254 817.743 204.861 819.746 202.381C821.64 200.04 822.381 196.947 822.985 193.993C823.836 189.758 824.495 185.411 823.726 181.176C823.205 178.25 822.189 174.628 819.005 172.649C815.382 170.42 810.551 171.479 809.755 171.674C809.48 171.73 809.124 171.813 808.63 171.981L808.602 171.953Z" fill="#222222"/>
<path d="M878.982 161.878C884.064 165.984 885.5 171.644 887.185 178.747C888.814 185.655 890.112 191.149 888.814 198.418C888.041 202.691 887.019 208.49 882.545 213.179C874.978 221.141 859.843 223.694 851.585 216.452C846.918 212.374 844.349 206.298 843.438 200.166C842.527 194.034 843.189 187.764 844.046 181.632C845.565 171.034 847.884 162.932 854.899 159.076C863.157 154.525 873.514 158.826 874.232 159.159C875.309 159.63 877.049 160.38 878.955 161.933L878.982 161.878Z" fill="#F5F1DE"/>
<path d="M868.118 172.189C871.865 173.665 873.666 177.511 873.883 178.012C874.867 180.158 874.987 182.498 874.771 187.18C874.651 189.966 874.363 192.725 873.955 195.483C873.666 197.489 873.282 199.496 872.393 201.251C871.024 204.037 868.431 205.932 865.692 206.211C862.954 206.49 860.12 205.096 858.367 202.616C856.71 200.276 856.061 197.183 855.533 194.229C854.788 189.994 854.212 185.647 854.884 181.412C855.341 178.486 856.229 174.864 859.016 172.885C862.186 170.656 866.413 171.715 867.11 171.91C867.35 171.966 867.662 172.049 868.094 172.216L868.118 172.189Z" fill="#222222"/>
<path d="M676.125 112.103L661.663 118.939C658.728 120.325 657.43 123.846 658.86 126.771L665.696 141.232C667.082 144.168 670.585 145.424 673.528 144.036L674.453 143.598C676.732 145.213 679.785 145.586 682.485 144.306C685.184 143.027 686.836 140.437 687.037 137.652L687.997 137.198C690.932 135.812 692.188 132.309 690.8 129.366L683.964 114.904C682.578 111.969 679.075 110.713 676.132 112.101L676.125 112.103Z" fill="#9B9B9B"/>
<path d="M679.532 114.405C680.423 113.983 680.815 112.977 680.487 112.086C679.235 108.768 676.94 100.344 680.512 88.4672C684.925 79.6039 685.596 69.0043 681.659 59.2196C681.314 58.2938 681.072 57.6822 680.892 57.3103L680.883 57.2739L680.859 57.2413L680.721 56.9438C672.097 39.2778 650.96 31.7969 633.224 40.1756C615.487 48.5544 607.846 69.6395 616.021 87.4281C616.021 87.4281 616.408 88.3354 617.258 89.7514C622.313 98.9168 630.879 105.101 640.529 107.323C651.995 112.138 657.157 119.209 658.928 122.287C659.409 123.108 660.431 123.442 661.322 123.021L679.541 114.41L679.532 114.405Z" fill="#FCD53F"/>
<path d="M648.541 72.5024C654.563 69.6531 661.773 72.2052 664.7 78.1991L664.838 78.4966C664.89 78.6073 664.96 78.7597 665.028 78.9976C666.314 82.2066 666.184 85.8709 664.644 88.959L664.474 89.2656L664.358 89.5973C662.413 96.0639 666.999 107.997 669.843 114.391L667.427 115.536C664.253 109.304 657.912 98.199 651.678 95.5905L651.346 95.4741L650.997 95.4087C647.632 94.6361 644.735 92.4511 643.017 89.3065C642.947 89.154 642.854 89.0618 642.821 88.9928L642.666 88.6608C639.935 82.5858 642.554 75.3351 648.543 72.5096L648.541 72.5024ZM646.785 68.7867C638.719 72.6005 635.21 82.2155 638.95 90.324C638.95 90.324 639.139 90.7323 639.5 91.3833C641.795 95.5726 645.707 98.3649 650.102 99.3847C656.923 102.261 665.52 121.033 665.52 121.033L675.334 116.393C675.334 116.393 666.217 97.8618 668.379 90.7901C670.379 86.748 670.691 81.9149 668.896 77.4427C668.741 77.0179 668.62 76.7548 668.526 76.5698L668.456 76.4174C664.513 68.3609 654.891 64.9472 646.783 68.7794L646.785 68.7867Z" fill="#FFB02E"/>
<path d="M686.653 119.782C687.577 119.128 687.799 117.848 687.15 116.915C686.495 115.991 685.215 115.769 684.282 116.418L661.294 132.651C660.37 133.306 660.147 134.586 660.797 135.519C661.453 136.45 662.731 136.665 663.664 136.016L686.653 119.782ZM690.246 127.866C691.17 127.212 691.391 125.925 690.736 125C690.082 124.076 688.794 123.856 687.87 124.511L665.196 140.548C664.272 141.202 664.051 142.49 664.706 143.414C665.36 144.338 666.648 144.558 667.572 143.903L690.246 127.866Z" fill="#D3D3D3"/>
<path d="M632.194 56.3016C631.439 65.3901 637.737 73.3317 646.246 74.003C654.747 74.6689 662.242 67.8968 662.997 58.8083C663.753 49.7198 657.455 41.7783 648.945 41.107C640.445 40.4411 632.95 47.2131 632.194 56.3016Z" fill="#FFF478"/>
<path d="M45.9484 44.736C45.9658 44.9096 45.9311 45.0311 45.8616 45.0659C45.7748 45.118 45.6533 45.1527 45.497 45.17C44.7505 45.2569 44.0039 45.3263 43.24 45.361C42.4587 45.4305 41.6774 45.4826 40.9135 45.5173V47.618H46.5734C46.7297 47.618 46.8512 47.6528 46.9207 47.7049C46.9901 47.7743 47.0249 47.8785 47.0249 48.0521V50.0834C47.0249 50.257 46.9901 50.3612 46.9207 50.4306C46.8512 50.4827 46.7297 50.5174 46.5734 50.5174H31.9202C31.7466 50.5174 31.6424 50.4827 31.5729 50.4306C31.5035 50.3612 31.4688 50.257 31.4688 50.0834V48.0521C31.4688 47.8785 31.5035 47.7743 31.5729 47.7049C31.6424 47.6528 31.7466 47.618 31.9202 47.618H37.5801V45.6214C37.2329 45.6388 36.9203 45.6388 36.6078 45.6388H35.6703C34.5591 45.6388 33.7605 45.3437 33.2917 44.736C32.8056 44.1457 32.5626 43.2082 32.5626 41.8887V34.9787C32.5626 34.8051 32.5973 34.7009 32.6667 34.6315C32.7362 34.5794 32.8403 34.5447 33.014 34.5447H45.2887C45.4449 34.5447 45.5665 34.5794 45.6359 34.6315C45.7054 34.7009 45.7401 34.8051 45.7401 34.9787V37.01C45.7401 37.1837 45.7054 37.3052 45.6359 37.3573C45.5665 37.4267 45.4449 37.4441 45.2887 37.4441H35.896V38.6941H45.306C45.4623 38.6941 45.5838 38.7289 45.6533 38.7809C45.7227 38.8504 45.7574 38.9546 45.7574 39.1282V40.9859C45.7574 41.1595 45.7227 41.281 45.6533 41.3331C45.5838 41.4026 45.4623 41.4199 45.306 41.4199H35.896V41.7324C35.896 42.1491 35.9828 42.4616 36.1564 42.6526C36.33 42.8609 36.6426 42.9477 37.1113 42.9304C38.3614 42.913 39.7156 42.8609 41.1392 42.7915C42.5629 42.722 43.9518 42.6179 45.3234 42.4616C45.4797 42.4443 45.5838 42.4616 45.6533 42.5311C45.7054 42.6005 45.7401 42.722 45.7748 42.8957L45.9484 44.736ZM57.4105 47.7569C57.4105 48.4861 57.2543 49.007 56.9418 49.3369C56.6293 49.6494 56.1605 49.823 55.5355 49.823H49.8756C49.2505 49.823 48.7818 49.6494 48.4693 49.3369C48.1568 49.007 48.0005 48.4861 48.0005 47.7569V34.9787C48.0005 34.8051 48.0352 34.7009 48.1047 34.6315C48.1741 34.5794 48.2783 34.5447 48.4519 34.5447H56.9591C57.1154 34.5447 57.2369 34.5794 57.3064 34.6315C57.3758 34.7009 57.4105 34.8051 57.4105 34.9787V47.7569ZM64.5462 42.8957C64.5462 43.0693 64.5115 43.1908 64.442 43.2429C64.3726 43.3123 64.2511 43.3297 64.0948 43.3297H62.4975V50.257C62.4975 50.4306 62.4628 50.5348 62.3933 50.6043C62.3239 50.6563 62.2024 50.6911 62.0461 50.6911H59.6155C59.4419 50.6911 59.3377 50.6563 59.2682 50.6043C59.1988 50.5348 59.1641 50.4306 59.1641 50.257V34.9787C59.1641 34.8051 59.1988 34.7009 59.2682 34.6315C59.3377 34.5794 59.4419 34.5447 59.6155 34.5447H62.0461C62.2024 34.5447 62.3239 34.5794 62.3933 34.6315C62.4628 34.7009 62.4975 34.8051 62.4975 34.9787V40.4477H64.0948C64.2511 40.4477 64.3726 40.4824 64.442 40.5345C64.5115 40.6039 64.5462 40.7081 64.5462 40.8817V42.8957ZM53.7299 47.0972C53.9208 47.0972 54.0597 47.0625 54.1292 46.9757C54.1986 46.9062 54.2333 46.7673 54.2333 46.5416V37.1837H51.1777V46.5416C51.1777 46.7673 51.2124 46.9062 51.2819 46.9757C51.3513 47.0625 51.4728 47.0972 51.6812 47.0972H53.7299ZM79.4599 44.736C79.4773 44.9096 79.4425 45.0311 79.3731 45.0659C79.2863 45.118 79.1648 45.1527 79.0085 45.17C78.2619 45.2569 77.5154 45.3263 76.7515 45.361C75.9702 45.4305 75.1889 45.4826 74.425 45.5173V47.618H80.0849C80.2412 47.618 80.3627 47.6528 80.4322 47.7049C80.5016 47.7743 80.5363 47.8785 80.5363 48.0521V50.0834C80.5363 50.257 80.5016 50.3612 80.4322 50.4306C80.3627 50.4827 80.2412 50.5174 80.0849 50.5174H65.4316C65.258 50.5174 65.1539 50.4827 65.0844 50.4306C65.015 50.3612 64.9802 50.257 64.9802 50.0834V48.0521C64.9802 47.8785 65.015 47.7743 65.0844 47.7049C65.1539 47.6528 65.258 47.618 65.4316 47.618H71.0916V45.6214C70.7443 45.6388 70.4318 45.6388 70.1193 45.6388H69.1818C68.0706 45.6388 67.272 45.3437 66.8032 44.736C66.3171 44.1457 66.074 43.2082 66.074 41.8887V34.9787C66.074 34.8051 66.1088 34.7009 66.1782 34.6315C66.2476 34.5794 66.3518 34.5447 66.5254 34.5447H78.8002C78.9564 34.5447 79.0779 34.5794 79.1474 34.6315C79.2168 34.7009 79.2516 34.8051 79.2516 34.9787V37.01C79.2516 37.1837 79.2168 37.3052 79.1474 37.3573C79.0779 37.4267 78.9564 37.4441 78.8002 37.4441H69.4075V38.6941H78.8175C78.9738 38.6941 79.0953 38.7289 79.1648 38.7809C79.2342 38.8504 79.2689 38.9546 79.2689 39.1282V40.9859C79.2689 41.1595 79.2342 41.281 79.1648 41.3331C79.0953 41.4026 78.9738 41.4199 78.8175 41.4199H69.4075V41.7324C69.4075 42.1491 69.4943 42.4616 69.6679 42.6526C69.8415 42.8609 70.154 42.9477 70.6228 42.9304C71.8728 42.913 73.227 42.8609 74.6507 42.7915C76.0744 42.722 77.4633 42.6179 78.8349 42.4616C78.9911 42.4443 79.0953 42.4616 79.1648 42.5311C79.2168 42.6005 79.2516 42.722 79.2863 42.8957L79.4599 44.736Z" fill="#222222"/>
<path d="M85.7877 35.6211C85.7877 35.4475 85.8224 35.3433 85.8919 35.2739C85.9613 35.2218 86.0655 35.1871 86.2391 35.1871H96.6214C96.7777 35.1871 96.8992 35.2218 96.9686 35.2739C97.0381 35.3433 97.0728 35.4475 97.0728 35.6211V37.6524C97.0728 37.826 97.0381 37.9476 96.9686 37.9997C96.8992 38.0691 96.7777 38.0865 96.6214 38.0865H93.097V50.3265C93.097 50.5001 93.0623 50.6043 92.9928 50.6737C92.9234 50.7258 92.8018 50.7605 92.6456 50.7605H90.2149C90.0413 50.7605 89.9371 50.7258 89.8677 50.6737C89.7983 50.6043 89.7635 50.5001 89.7635 50.3265V38.0865H86.2391C86.0655 38.0865 85.9613 38.0691 85.8919 37.9997C85.8224 37.9476 85.7877 37.826 85.7877 37.6524V35.6211ZM99.1508 50.7605C98.9772 50.7605 98.873 50.7258 98.8036 50.6737C98.7341 50.6043 98.6994 50.5001 98.6994 50.3265V35.6211C98.6994 35.4475 98.7341 35.3433 98.8036 35.2739C98.873 35.2218 98.9772 35.1871 99.1508 35.1871H101.581C101.738 35.1871 101.859 35.2218 101.929 35.2739C101.998 35.3433 102.033 35.4475 102.033 35.6211V50.3265C102.033 50.5001 101.998 50.6043 101.929 50.6737C101.859 50.7258 101.738 50.7605 101.581 50.7605H99.1508ZM108.146 46.3159V50.3265C108.146 50.5001 108.111 50.6043 108.042 50.6737C107.973 50.7258 107.851 50.7605 107.695 50.7605H105.438C105.264 50.7605 105.16 50.7258 105.091 50.6737C105.021 50.6043 104.986 50.5001 104.986 50.3265V37.3746C104.986 37.0621 105.004 36.7496 105.056 36.4718C105.091 36.2114 105.177 35.9857 105.334 35.7774C105.472 35.6037 105.681 35.4475 105.959 35.3433C106.236 35.2391 106.618 35.1871 107.104 35.1871H110.629C112.435 35.1871 113.806 35.6385 114.726 36.5413C115.629 37.4441 116.098 38.8157 116.098 40.6213C116.098 42.4443 115.629 43.8506 114.726 44.8228C113.806 45.8298 112.435 46.3159 110.629 46.3159H108.146ZM108.146 43.3123H110.612C111.375 43.3123 111.966 43.0866 112.365 42.6005C112.747 42.1491 112.938 41.4894 112.938 40.6213C112.938 39.7879 112.747 39.1803 112.365 38.7809C111.966 38.399 111.375 38.1906 110.612 38.1906H108.962C108.65 38.1906 108.424 38.2601 108.32 38.3643C108.198 38.5031 108.146 38.7289 108.146 39.0587V43.3123Z" fill="#E24444"/>
<path d="M994.167 55.8333L1015.83 34.1666" stroke="#222222" stroke-width="3" stroke-linecap="round" stroke-linejoin="round"/>
<path d="M994.167 34.1666H1015.83V55.8333" stroke="#222222" stroke-width="3" stroke-linecap="round" stroke-linejoin="round"/>
</g>
<rect x="0.5" y="1.37354" width="1049" height="230.874" rx="19.5" stroke="#A7A7A7"/>
<defs>
<clipPath id="clip0_1_1403">
<rect y="0.873535" width="1050" height="231.874" rx="20" fill="white"/>
</clipPath>
</defs>
</svg>
