<svg width="1050" height="232" viewBox="0 0 1050 232" fill="none" xmlns="http://www.w3.org/2000/svg">
<g clip-path="url(#clip0_1_1307)">
<rect width="1050" height="231.874" rx="20" fill="#F9DADA"/>
<rect x="795" y="-34" width="90" height="90" rx="12" fill="#F5F1DE"/>
<rect x="894" y="-34" width="90" height="90" rx="12" fill="#F5F1DE"/>
<rect x="993" y="-34" width="90" height="90" rx="12" fill="#F5F1DE"/>
<rect x="795" y="68" width="90" height="90" rx="12" fill="#F5F1DE"/>
<g filter="url(#filter0_d_1_1307)">
<rect x="894" y="68" width="90" height="90" rx="12" fill="#F5F1DE"/>
<rect x="894.5" y="68.5" width="89" height="89" rx="11.5" stroke="#F2AD48"/>
</g>
<rect x="993" y="68" width="90" height="90" rx="12" fill="#F5F1DE"/>
<rect x="795" y="170" width="90" height="90" rx="12" fill="#F5F1DE"/>
<rect x="894" y="170" width="90" height="90" rx="12" fill="#F5F1DE"/>
<rect x="993" y="170" width="90" height="90" rx="12" fill="#F5F1DE"/>
<g opacity="0.3">
<path d="M928.012 199.58C927.117 196.448 923.88 194.606 920.736 195.481C920.667 195.481 920.552 195.527 920.46 195.55C916.168 196.978 915.824 202.85 919.68 204.991L928.241 209.757C928.953 210.149 929.871 209.895 930.261 209.181C930.651 208.468 930.399 207.547 929.687 207.155L921.103 202.389C919.405 201.445 919.68 199.004 921.378 198.429C921.378 198.429 921.424 198.429 921.447 198.429C921.447 198.429 921.47 198.429 921.493 198.429C923.054 197.991 924.661 198.889 925.097 200.455C925.326 201.261 926.153 201.721 926.956 201.491C927.759 201.261 928.218 200.432 927.989 199.626L928.012 199.58Z" fill="#D3883E"/>
<path d="M948.6 200.385C949.036 198.819 950.666 197.921 952.204 198.358C952.204 198.358 952.227 198.358 952.25 198.358C952.295 198.358 952.318 198.358 952.318 198.358C954.017 198.934 954.292 201.375 952.594 202.319L944.009 207.085C943.298 207.476 943.022 208.397 943.436 209.111C943.826 209.825 944.744 210.101 945.455 209.687L954.04 204.921C957.896 202.779 957.552 196.931 953.259 195.48C953.145 195.434 953.03 195.411 952.984 195.411C949.839 194.536 946.603 196.378 945.708 199.51C945.478 200.315 945.937 201.144 946.741 201.375C947.544 201.605 948.37 201.144 948.6 200.338V200.385Z" fill="#D3883E"/>
<path d="M939.741 216.848V209.549H933.98V216.848C933.98 218.137 933.406 219.358 932.419 220.164L929.114 222.927H944.608L941.302 220.164C940.315 219.335 939.741 218.114 939.741 216.848Z" fill="#D3883E"/>
<path d="M936.871 215.167C930.238 215.167 924.844 209.779 924.844 203.101V191.22C924.844 190.553 925.395 190 926.06 190H947.682C948.348 190 948.898 190.553 948.898 191.22V203.101C948.898 209.756 943.527 215.167 936.848 215.167H936.871Z" fill="#FFB02E"/>
<path d="M949.175 222.949H923.996C922.664 222.949 921.54 223.824 921.287 225.068L918.51 237.34C918.372 237.916 918.831 238.445 919.451 238.445H953.743C954.362 238.445 954.822 237.916 954.684 237.34L951.906 225.068C951.631 223.847 950.506 222.949 949.175 222.949Z" fill="#6D4534"/>
<path d="M941.577 228.016H931.639C931.065 228.016 930.583 228.499 930.583 229.121V232.252C930.583 232.851 931.042 233.358 931.639 233.358H941.577C942.151 233.358 942.633 232.874 942.633 232.252V229.121C942.633 228.522 942.174 228.016 941.577 228.016Z" fill="#FFB02E"/>
</g>
<g opacity="0.3">
<path d="M928.012 -5.42011C927.117 -8.55156 923.88 -10.3936 920.736 -9.51863C920.667 -9.51863 920.552 -9.47258 920.46 -9.44955C916.168 -8.02198 915.824 -2.1505 919.68 -0.0091362L928.241 4.75712C928.953 5.14855 929.871 4.89527 930.261 4.18149C930.651 3.4677 930.399 2.54668 929.687 2.15525L921.103 -2.61101C919.405 -3.55505 919.68 -5.99575 921.378 -6.57138C921.378 -6.57138 921.424 -6.57138 921.447 -6.57138C921.447 -6.57138 921.47 -6.57138 921.493 -6.57138C923.054 -7.00886 924.661 -6.11087 925.097 -4.54514C925.326 -3.73925 926.153 -3.27874 926.956 -3.509C927.759 -3.73925 928.218 -4.56817 927.989 -5.37406L928.012 -5.42011Z" fill="#D3883E"/>
<path d="M948.6 -4.61546C949.036 -6.18118 950.666 -7.07918 952.204 -6.64169C952.204 -6.64169 952.227 -6.64169 952.25 -6.64169C952.295 -6.64169 952.318 -6.64169 952.318 -6.64169C954.017 -6.06606 954.292 -3.62536 952.594 -2.68132L944.009 2.08493C943.298 2.47637 943.022 3.39738 943.436 4.11117C943.826 4.82496 944.744 5.10126 945.455 4.68681L954.04 -0.0794582C957.896 -2.22082 957.552 -8.06927 953.259 -9.51987C953.145 -9.56592 953.03 -9.58894 952.984 -9.58894C949.839 -10.4639 946.603 -8.62188 945.708 -5.49042C945.478 -4.68453 945.937 -3.85562 946.741 -3.62536C947.544 -3.39511 948.37 -3.85562 948.6 -4.66151V-4.61546Z" fill="#D3883E"/>
<path d="M939.741 11.8479V4.54883H933.98V11.8479C933.98 13.1373 933.406 14.3576 932.419 15.1635L929.114 17.9266H944.608L941.302 15.1635C940.315 14.3346 939.741 13.1143 939.741 11.8479Z" fill="#D3883E"/>
<path d="M936.871 10.1668C930.238 10.1668 924.844 4.77882 924.844 -1.89854V-13.7796C924.844 -14.4474 925.395 -15 926.06 -15H947.682C948.348 -15 948.898 -14.4474 948.898 -13.7796V-1.89854C948.898 4.7558 943.527 10.1668 936.848 10.1668H936.871Z" fill="#FFB02E"/>
<path d="M949.175 17.9492H923.996C922.664 17.9492 921.54 18.8242 921.287 20.0676L918.51 32.3401C918.372 32.9157 918.831 33.4453 919.451 33.4453H953.743C954.362 33.4453 954.822 32.9157 954.684 32.3401L951.906 20.0676C951.631 18.8472 950.506 17.9492 949.175 17.9492Z" fill="#6D4534"/>
<path d="M941.577 23.0156H931.639C931.065 23.0156 930.583 23.4992 930.583 24.1208V27.2523C930.583 27.851 931.042 28.3575 931.639 28.3575H941.577C942.151 28.3575 942.633 27.874 942.633 27.2523V24.1208C942.633 23.5222 942.174 23.0156 941.577 23.0156Z" fill="#FFB02E"/>
</g>
<g opacity="0.3">
<path d="M824.891 192H854.524C855.542 192 856.357 192.847 856.357 193.898V203.592C856.357 204.264 856.008 204.906 855.455 205.228L849.109 209.082L846.431 210.542V211.447H833.1V210.542L830.422 209.082L823.96 205.228C823.378 204.906 823.028 204.264 823.028 203.592V193.898C823.028 192.847 823.872 192 824.891 192Z" fill="#0074BA"/>
<path d="M830.423 209.082V192H834.76V211.447L830.423 209.082Z" fill="#D3D3D3"/>
<path d="M844.744 211.447V192H849.081V209.082L844.744 211.447Z" fill="#D3D3D3"/>
<path d="M844.744 192H834.73V211.447H844.744V192Z" fill="#F8312F"/>
<path d="M839.737 238.808C848.965 238.808 856.475 231.099 856.475 221.609C856.475 212.119 848.994 204.41 839.737 204.41C830.481 204.41 823 212.119 823 221.609C823 231.099 830.481 238.808 839.737 238.808Z" fill="#FFB02E"/>
<path d="M839.766 236.735C835.836 236.735 832.14 235.158 829.374 232.297C826.58 229.435 825.066 225.639 825.066 221.609C825.066 217.58 826.609 213.755 829.374 210.922C835.109 205.024 844.453 205.024 850.187 210.922C855.921 216.821 855.921 226.427 850.187 232.326C847.392 235.187 843.696 236.764 839.766 236.764V236.735ZM839.737 208.528C836.477 208.528 833.217 209.813 830.743 212.353C828.356 214.835 827.017 218.105 827.017 221.609C827.017 225.113 828.327 228.384 830.743 230.866C833.129 233.348 836.331 234.691 839.737 234.691C843.143 234.691 846.315 233.348 848.731 230.866C853.68 225.756 853.68 217.463 848.731 212.382C846.257 209.813 843.026 208.557 839.737 208.557V208.528Z" fill="#FCD53F"/>
<path d="M840.756 214.833L842.153 217.695C842.328 218.016 842.648 218.279 842.998 218.337L846.083 218.804C846.985 218.95 847.393 220.118 846.694 220.79L844.569 222.921C844.249 223.243 844.162 223.71 844.278 224.148L845.268 227.009C845.588 227.973 844.657 228.878 843.754 228.469L840.174 226.863C839.883 226.717 839.563 226.717 839.272 226.863L835.691 228.469C834.789 228.878 833.828 227.973 834.178 227.009L835.167 224.148C835.313 223.71 835.197 223.243 834.876 222.921L832.751 220.79C832.082 220.118 832.46 218.95 833.363 218.804L836.448 218.337C836.827 218.279 837.118 218.045 837.292 217.695L838.69 214.833C839.126 213.957 840.349 213.957 840.756 214.833Z" fill="#6D4534"/>
</g>
<g opacity="0.3">
<path d="M823.891 -13H853.524C854.542 -13 855.357 -12.1532 855.357 -11.102V-1.40754C855.357 -0.73594 855.008 -0.0935335 854.455 0.227669L848.109 4.08208L845.431 5.54209V6.44729H832.1V5.54209L829.422 4.08208L822.96 0.227669C822.378 -0.0935335 822.028 -0.73594 822.028 -1.40754V-11.102C822.028 -12.1532 822.872 -13 823.891 -13Z" fill="#0074BA"/>
<path d="M829.423 4.08208V-13H833.76V6.44729L829.423 4.08208Z" fill="#D3D3D3"/>
<path d="M843.744 6.44729V-13H848.081V4.08208L843.744 6.44729Z" fill="#D3D3D3"/>
<path d="M843.744 -13H833.73V6.44729H843.744V-13Z" fill="#F8312F"/>
<path d="M838.737 33.8079C847.965 33.8079 855.475 26.0991 855.475 16.609C855.475 7.11899 847.994 -0.589844 838.737 -0.589844C829.481 -0.589844 822 7.11899 822 16.609C822 26.0991 829.481 33.8079 838.737 33.8079Z" fill="#FFB02E"/>
<path d="M838.766 31.735C834.836 31.735 831.14 30.1582 828.374 27.2966C825.58 24.435 824.066 20.639 824.066 16.6094C824.066 12.5797 825.609 8.75453 828.374 5.92211C834.109 0.0236841 843.453 0.0236841 849.187 5.92211C854.921 11.8205 854.921 21.4274 849.187 27.3258C846.392 30.1874 842.696 31.7642 838.766 31.7642V31.735ZM838.737 3.5277C835.477 3.5277 832.217 4.81251 829.743 7.35292C827.356 9.83493 826.017 13.1053 826.017 16.6094C826.017 20.1134 827.327 23.3838 829.743 25.8658C832.129 28.3478 835.331 29.691 838.737 29.691C842.143 29.691 845.315 28.3478 847.731 25.8658C852.68 20.7558 852.68 12.4629 847.731 7.38212C845.257 4.81251 842.026 3.55691 838.737 3.55691V3.5277Z" fill="#FCD53F"/>
<path d="M839.756 9.83291L841.153 12.6945C841.328 13.0157 841.648 13.2785 841.998 13.3369L845.083 13.8041C845.985 13.9501 846.393 15.1181 845.694 15.7897L843.569 17.9213C843.249 18.2425 843.162 18.7098 843.278 19.1478L844.268 22.0094C844.588 22.973 843.657 23.8782 842.754 23.4694L839.174 21.8634C838.883 21.7174 838.563 21.7174 838.272 21.8634L834.691 23.4694C833.789 23.8782 832.828 22.973 833.178 22.0094L834.167 19.1478C834.313 18.7098 834.197 18.2425 833.876 17.9213L831.751 15.7897C831.082 15.1181 831.46 13.9501 832.363 13.8041L835.448 13.3369C835.827 13.2785 836.118 13.0449 836.292 12.6945L837.69 9.83291C838.126 8.9569 839.349 8.9569 839.756 9.83291Z" fill="#6D4534"/>
</g>
<g opacity="0.3">
<path d="M831.012 98.5799C830.117 95.4484 826.88 93.6064 823.736 94.4814C823.667 94.4814 823.552 94.5274 823.46 94.5504C819.168 95.978 818.824 101.85 822.68 103.991L831.241 108.757C831.953 109.149 832.871 108.895 833.261 108.181C833.651 107.468 833.399 106.547 832.687 106.155L824.103 101.389C822.405 100.445 822.68 98.0043 824.378 97.4286C824.378 97.4286 824.424 97.4286 824.447 97.4286C824.447 97.4286 824.47 97.4286 824.493 97.4286C826.054 96.9911 827.661 97.8891 828.097 99.4549C828.326 100.261 829.153 100.721 829.956 100.491C830.759 100.261 831.218 99.4318 830.989 98.6259L831.012 98.5799Z" fill="#D3883E"/>
<path d="M851.6 99.3845C852.036 97.8188 853.666 96.9208 855.204 97.3583C855.204 97.3583 855.227 97.3583 855.25 97.3583C855.295 97.3583 855.318 97.3583 855.318 97.3583C857.017 97.9339 857.292 100.375 855.594 101.319L847.009 106.085C846.298 106.476 846.022 107.397 846.436 108.111C846.826 108.825 847.744 109.101 848.455 108.687L857.04 103.921C860.896 101.779 860.552 95.9307 856.259 94.4801C856.145 94.4341 856.03 94.4111 855.984 94.4111C852.839 93.5361 849.603 95.3781 848.708 98.5096C848.478 99.3155 848.937 100.144 849.741 100.375C850.544 100.605 851.37 100.144 851.6 99.3385V99.3845Z" fill="#D3883E"/>
<path d="M842.741 115.848V108.549H836.98V115.848C836.98 117.137 836.406 118.358 835.419 119.164L832.114 121.927H847.608L844.302 119.164C843.315 118.335 842.741 117.114 842.741 115.848Z" fill="#D3883E"/>
<path d="M839.871 114.167C833.238 114.167 827.844 108.779 827.844 102.101V90.2204C827.844 89.5526 828.395 89 829.06 89H850.682C851.348 89 851.898 89.5526 851.898 90.2204V102.101C851.898 108.756 846.527 114.167 839.848 114.167H839.871Z" fill="#FFB02E"/>
<path d="M852.175 121.949H826.996C825.664 121.949 824.54 122.824 824.287 124.068L821.51 136.34C821.372 136.916 821.831 137.445 822.451 137.445H856.743C857.362 137.445 857.822 136.916 857.684 136.34L854.906 124.068C854.631 122.847 853.506 121.949 852.175 121.949Z" fill="#6D4534"/>
<path d="M844.577 127.016H834.639C834.065 127.016 833.583 127.499 833.583 128.121V131.252C833.583 131.851 834.042 132.358 834.639 132.358H844.577C845.151 132.358 845.633 131.874 845.633 131.252V128.121C845.633 127.522 845.174 127.016 844.577 127.016Z" fill="#FFB02E"/>
</g>
<g opacity="0.3">
<path d="M1031.01 98.5799C1030.12 95.4484 1026.88 93.6064 1023.74 94.4814C1023.67 94.4814 1023.55 94.5274 1023.46 94.5504C1019.17 95.978 1018.82 101.85 1022.68 103.991L1031.24 108.757C1031.95 109.149 1032.87 108.895 1033.26 108.181C1033.65 107.468 1033.4 106.547 1032.69 106.155L1024.1 101.389C1022.4 100.445 1022.68 98.0043 1024.38 97.4286C1024.38 97.4286 1024.42 97.4286 1024.45 97.4286C1024.45 97.4286 1024.47 97.4286 1024.49 97.4286C1026.05 96.9911 1027.66 97.8891 1028.1 99.4549C1028.33 100.261 1029.15 100.721 1029.96 100.491C1030.76 100.261 1031.22 99.4318 1030.99 98.6259L1031.01 98.5799Z" fill="#D3883E"/>
<path d="M1051.6 99.3845C1052.04 97.8188 1053.67 96.9208 1055.2 97.3583C1055.2 97.3583 1055.23 97.3583 1055.25 97.3583C1055.3 97.3583 1055.32 97.3583 1055.32 97.3583C1057.02 97.9339 1057.29 100.375 1055.59 101.319L1047.01 106.085C1046.3 106.476 1046.02 107.397 1046.44 108.111C1046.83 108.825 1047.74 109.101 1048.46 108.687L1057.04 103.921C1060.9 101.779 1060.55 95.9307 1056.26 94.4801C1056.14 94.4341 1056.03 94.4111 1055.98 94.4111C1052.84 93.5361 1049.6 95.3781 1048.71 98.5096C1048.48 99.3155 1048.94 100.144 1049.74 100.375C1050.54 100.605 1051.37 100.144 1051.6 99.3385V99.3845Z" fill="#D3883E"/>
<path d="M1042.74 115.848V108.549H1036.98V115.848C1036.98 117.137 1036.41 118.358 1035.42 119.164L1032.11 121.927H1047.61L1044.3 119.164C1043.32 118.335 1042.74 117.114 1042.74 115.848Z" fill="#D3883E"/>
<path d="M1039.87 114.167C1033.24 114.167 1027.84 108.779 1027.84 102.101V90.2204C1027.84 89.5526 1028.39 89 1029.06 89H1050.68C1051.35 89 1051.9 89.5526 1051.9 90.2204V102.101C1051.9 108.756 1046.53 114.167 1039.85 114.167H1039.87Z" fill="#FFB02E"/>
<path d="M1052.18 121.949H1027C1025.66 121.949 1024.54 122.824 1024.29 124.068L1021.51 136.34C1021.37 136.916 1021.83 137.445 1022.45 137.445H1056.74C1057.36 137.445 1057.82 136.916 1057.68 136.34L1054.91 124.068C1054.63 122.847 1053.51 121.949 1052.18 121.949Z" fill="#6D4534"/>
<path d="M1044.58 127.016H1034.64C1034.07 127.016 1033.58 127.499 1033.58 128.121V131.252C1033.58 131.851 1034.04 132.358 1034.64 132.358H1044.58C1045.15 132.358 1045.63 131.874 1045.63 131.252V128.121C1045.63 127.522 1045.17 127.016 1044.58 127.016Z" fill="#FFB02E"/>
</g>
<path d="M922.891 92H952.524C953.542 92 954.357 92.8468 954.357 93.898V103.592C954.357 104.264 954.008 104.906 953.455 105.228L947.109 109.082L944.431 110.542V111.447H931.1V110.542L928.422 109.082L921.96 105.228C921.378 104.906 921.028 104.264 921.028 103.592V93.898C921.028 92.8468 921.872 92 922.891 92Z" fill="#0074BA"/>
<path d="M928.423 109.082V92H932.76V111.447L928.423 109.082Z" fill="#D3D3D3"/>
<path d="M942.744 111.447V92H947.081V109.082L942.744 111.447Z" fill="#D3D3D3"/>
<path d="M942.744 92H932.73V111.447H942.744V92Z" fill="#F8312F"/>
<path d="M937.737 138.808C946.965 138.808 954.475 131.099 954.475 121.609C954.475 112.119 946.994 104.41 937.737 104.41C928.481 104.41 921 112.119 921 121.609C921 131.099 928.481 138.808 937.737 138.808Z" fill="#FFB02E"/>
<path d="M937.766 136.735C933.836 136.735 930.14 135.158 927.374 132.297C924.58 129.435 923.066 125.639 923.066 121.609C923.066 117.58 924.609 113.755 927.374 110.922C933.109 105.024 942.453 105.024 948.187 110.922C953.921 116.821 953.921 126.427 948.187 132.326C945.392 135.187 941.696 136.764 937.766 136.764V136.735ZM937.737 108.528C934.477 108.528 931.217 109.813 928.743 112.353C926.356 114.835 925.017 118.105 925.017 121.609C925.017 125.113 926.327 128.384 928.743 130.866C931.129 133.348 934.331 134.691 937.737 134.691C941.143 134.691 944.315 133.348 946.731 130.866C951.68 125.756 951.68 117.463 946.731 112.382C944.257 109.813 941.026 108.557 937.737 108.557V108.528Z" fill="#FCD53F"/>
<path d="M938.756 114.833L940.153 117.695C940.328 118.016 940.648 118.279 940.998 118.337L944.083 118.804C944.985 118.95 945.393 120.118 944.694 120.79L942.569 122.921C942.249 123.243 942.162 123.71 942.278 124.148L943.268 127.009C943.588 127.973 942.657 128.878 941.754 128.469L938.174 126.863C937.883 126.717 937.563 126.717 937.272 126.863L933.691 128.469C932.789 128.878 931.828 127.973 932.178 127.009L933.167 124.148C933.313 123.71 933.197 123.243 932.876 122.921L930.751 120.79C930.082 120.118 930.46 118.95 931.363 118.804L934.448 118.337C934.827 118.279 935.118 118.045 935.292 117.695L936.69 114.833C937.126 113.957 938.349 113.957 938.756 114.833Z" fill="#6D4534"/>
<g opacity="0.3">
<path d="M1022.89 192H1052.52C1053.54 192 1054.36 192.847 1054.36 193.898V203.592C1054.36 204.264 1054.01 204.906 1053.45 205.228L1047.11 209.082L1044.43 210.542V211.447H1031.1V210.542L1028.42 209.082L1021.96 205.228C1021.38 204.906 1021.03 204.264 1021.03 203.592V193.898C1021.03 192.847 1021.87 192 1022.89 192Z" fill="#0074BA"/>
<path d="M1028.42 209.082V192H1032.76V211.447L1028.42 209.082Z" fill="#D3D3D3"/>
<path d="M1042.74 211.447V192H1047.08V209.082L1042.74 211.447Z" fill="#D3D3D3"/>
<path d="M1042.74 192H1032.73V211.447H1042.74V192Z" fill="#F8312F"/>
<path d="M1037.74 238.808C1046.96 238.808 1054.47 231.099 1054.47 221.609C1054.47 212.119 1046.99 204.41 1037.74 204.41C1028.48 204.41 1021 212.119 1021 221.609C1021 231.099 1028.48 238.808 1037.74 238.808Z" fill="#FFB02E"/>
<path d="M1037.77 236.735C1033.84 236.735 1030.14 235.158 1027.37 232.297C1024.58 229.435 1023.07 225.639 1023.07 221.609C1023.07 217.58 1024.61 213.755 1027.37 210.922C1033.11 205.024 1042.45 205.024 1048.19 210.922C1053.92 216.821 1053.92 226.427 1048.19 232.326C1045.39 235.187 1041.7 236.764 1037.77 236.764V236.735ZM1037.74 208.528C1034.48 208.528 1031.22 209.813 1028.74 212.353C1026.36 214.835 1025.02 218.105 1025.02 221.609C1025.02 225.113 1026.33 228.384 1028.74 230.866C1031.13 233.348 1034.33 234.691 1037.74 234.691C1041.14 234.691 1044.32 233.348 1046.73 230.866C1051.68 225.756 1051.68 217.463 1046.73 212.382C1044.26 209.813 1041.03 208.557 1037.74 208.557V208.528Z" fill="#FCD53F"/>
<path d="M1038.76 214.833L1040.15 217.695C1040.33 218.016 1040.65 218.279 1041 218.337L1044.08 218.804C1044.99 218.95 1045.39 220.118 1044.69 220.79L1042.57 222.921C1042.25 223.243 1042.16 223.71 1042.28 224.148L1043.27 227.009C1043.59 227.973 1042.66 228.878 1041.75 228.469L1038.17 226.863C1037.88 226.717 1037.56 226.717 1037.27 226.863L1033.69 228.469C1032.79 228.878 1031.83 227.973 1032.18 227.009L1033.17 224.148C1033.31 223.71 1033.2 223.243 1032.88 222.921L1030.75 220.79C1030.08 220.118 1030.46 218.95 1031.36 218.804L1034.45 218.337C1034.83 218.279 1035.12 218.045 1035.29 217.695L1036.69 214.833C1037.13 213.957 1038.35 213.957 1038.76 214.833Z" fill="#6D4534"/>
</g>
<g opacity="0.3">
<path d="M1021.89 -13H1051.52C1052.54 -13 1053.36 -12.1532 1053.36 -11.102V-1.40754C1053.36 -0.73594 1053.01 -0.0935335 1052.45 0.227669L1046.11 4.08208L1043.43 5.54209V6.44729H1030.1V5.54209L1027.42 4.08208L1020.96 0.227669C1020.38 -0.0935335 1020.03 -0.73594 1020.03 -1.40754V-11.102C1020.03 -12.1532 1020.87 -13 1021.89 -13Z" fill="#0074BA"/>
<path d="M1027.42 4.08208V-13H1031.76V6.44729L1027.42 4.08208Z" fill="#D3D3D3"/>
<path d="M1041.74 6.44729V-13H1046.08V4.08208L1041.74 6.44729Z" fill="#D3D3D3"/>
<path d="M1041.74 -13H1031.73V6.44729H1041.74V-13Z" fill="#F8312F"/>
<path d="M1036.74 33.8079C1045.96 33.8079 1053.47 26.0991 1053.47 16.609C1053.47 7.11899 1045.99 -0.589844 1036.74 -0.589844C1027.48 -0.589844 1020 7.11899 1020 16.609C1020 26.0991 1027.48 33.8079 1036.74 33.8079Z" fill="#FFB02E"/>
<path d="M1036.77 31.735C1032.84 31.735 1029.14 30.1582 1026.37 27.2966C1023.58 24.435 1022.07 20.639 1022.07 16.6094C1022.07 12.5797 1023.61 8.75453 1026.37 5.92211C1032.11 0.0236841 1041.45 0.0236841 1047.19 5.92211C1052.92 11.8205 1052.92 21.4274 1047.19 27.3258C1044.39 30.1874 1040.7 31.7642 1036.77 31.7642V31.735ZM1036.74 3.5277C1033.48 3.5277 1030.22 4.81251 1027.74 7.35292C1025.36 9.83493 1024.02 13.1053 1024.02 16.6094C1024.02 20.1134 1025.33 23.3838 1027.74 25.8658C1030.13 28.3478 1033.33 29.691 1036.74 29.691C1040.14 29.691 1043.32 28.3478 1045.73 25.8658C1050.68 20.7558 1050.68 12.4629 1045.73 7.38212C1043.26 4.81251 1040.03 3.55691 1036.74 3.55691V3.5277Z" fill="#FCD53F"/>
<path d="M1037.76 9.83291L1039.15 12.6945C1039.33 13.0157 1039.65 13.2785 1040 13.3369L1043.08 13.8041C1043.99 13.9501 1044.39 15.1181 1043.69 15.7897L1041.57 17.9213C1041.25 18.2425 1041.16 18.7098 1041.28 19.1478L1042.27 22.0094C1042.59 22.973 1041.66 23.8782 1040.75 23.4694L1037.17 21.8634C1036.88 21.7174 1036.56 21.7174 1036.27 21.8634L1032.69 23.4694C1031.79 23.8782 1030.83 22.973 1031.18 22.0094L1032.17 19.1478C1032.31 18.7098 1032.2 18.2425 1031.88 17.9213L1029.75 15.7897C1029.08 15.1181 1029.46 13.9501 1030.36 13.8041L1033.45 13.3369C1033.83 13.2785 1034.12 13.0449 1034.29 12.6945L1035.69 9.83291C1036.13 8.9569 1037.35 8.9569 1037.76 9.83291Z" fill="#6D4534"/>
</g>
<path d="M45.9484 43.736C45.9658 43.9096 45.9311 44.0311 45.8616 44.0659C45.7748 44.118 45.6533 44.1527 45.497 44.17C44.7505 44.2569 44.0039 44.3263 43.24 44.361C42.4587 44.4305 41.6774 44.4826 40.9135 44.5173V46.618H46.5734C46.7297 46.618 46.8512 46.6528 46.9207 46.7049C46.9901 46.7743 47.0249 46.8785 47.0249 47.0521V49.0834C47.0249 49.257 46.9901 49.3612 46.9207 49.4306C46.8512 49.4827 46.7297 49.5174 46.5734 49.5174H31.9202C31.7466 49.5174 31.6424 49.4827 31.5729 49.4306C31.5035 49.3612 31.4688 49.257 31.4688 49.0834V47.0521C31.4688 46.8785 31.5035 46.7743 31.5729 46.7049C31.6424 46.6528 31.7466 46.618 31.9202 46.618H37.5801V44.6214C37.2329 44.6388 36.9203 44.6388 36.6078 44.6388H35.6703C34.5591 44.6388 33.7605 44.3437 33.2917 43.736C32.8056 43.1457 32.5626 42.2082 32.5626 40.8887V33.9787C32.5626 33.8051 32.5973 33.7009 32.6667 33.6315C32.7362 33.5794 32.8403 33.5447 33.014 33.5447H45.2887C45.4449 33.5447 45.5665 33.5794 45.6359 33.6315C45.7054 33.7009 45.7401 33.8051 45.7401 33.9787V36.01C45.7401 36.1837 45.7054 36.3052 45.6359 36.3573C45.5665 36.4267 45.4449 36.4441 45.2887 36.4441H35.896V37.6941H45.306C45.4623 37.6941 45.5838 37.7289 45.6533 37.7809C45.7227 37.8504 45.7574 37.9546 45.7574 38.1282V39.9859C45.7574 40.1595 45.7227 40.281 45.6533 40.3331C45.5838 40.4026 45.4623 40.4199 45.306 40.4199H35.896V40.7324C35.896 41.1491 35.9828 41.4616 36.1564 41.6526C36.33 41.8609 36.6426 41.9477 37.1113 41.9304C38.3614 41.913 39.7156 41.8609 41.1392 41.7915C42.5629 41.722 43.9518 41.6179 45.3234 41.4616C45.4797 41.4443 45.5838 41.4616 45.6533 41.5311C45.7054 41.6005 45.7401 41.722 45.7748 41.8957L45.9484 43.736ZM57.4105 46.7569C57.4105 47.4861 57.2543 48.007 56.9418 48.3369C56.6293 48.6494 56.1605 48.823 55.5355 48.823H49.8756C49.2505 48.823 48.7818 48.6494 48.4693 48.3369C48.1568 48.007 48.0005 47.4861 48.0005 46.7569V33.9787C48.0005 33.8051 48.0352 33.7009 48.1047 33.6315C48.1741 33.5794 48.2783 33.5447 48.4519 33.5447H56.9591C57.1154 33.5447 57.2369 33.5794 57.3064 33.6315C57.3758 33.7009 57.4105 33.8051 57.4105 33.9787V46.7569ZM64.5462 41.8957C64.5462 42.0693 64.5115 42.1908 64.442 42.2429C64.3726 42.3123 64.2511 42.3297 64.0948 42.3297H62.4975V49.257C62.4975 49.4306 62.4628 49.5348 62.3933 49.6043C62.3239 49.6563 62.2024 49.6911 62.0461 49.6911H59.6155C59.4419 49.6911 59.3377 49.6563 59.2682 49.6043C59.1988 49.5348 59.1641 49.4306 59.1641 49.257V33.9787C59.1641 33.8051 59.1988 33.7009 59.2682 33.6315C59.3377 33.5794 59.4419 33.5447 59.6155 33.5447H62.0461C62.2024 33.5447 62.3239 33.5794 62.3933 33.6315C62.4628 33.7009 62.4975 33.8051 62.4975 33.9787V39.4477H64.0948C64.2511 39.4477 64.3726 39.4824 64.442 39.5345C64.5115 39.6039 64.5462 39.7081 64.5462 39.8817V41.8957ZM53.7299 46.0972C53.9208 46.0972 54.0597 46.0625 54.1292 45.9757C54.1986 45.9062 54.2333 45.7673 54.2333 45.5416V36.1837H51.1777V45.5416C51.1777 45.7673 51.2124 45.9062 51.2819 45.9757C51.3513 46.0625 51.4728 46.0972 51.6812 46.0972H53.7299ZM79.4599 43.736C79.4773 43.9096 79.4425 44.0311 79.3731 44.0659C79.2863 44.118 79.1648 44.1527 79.0085 44.17C78.2619 44.2569 77.5154 44.3263 76.7515 44.361C75.9702 44.4305 75.1889 44.4826 74.425 44.5173V46.618H80.0849C80.2412 46.618 80.3627 46.6528 80.4322 46.7049C80.5016 46.7743 80.5363 46.8785 80.5363 47.0521V49.0834C80.5363 49.257 80.5016 49.3612 80.4322 49.4306C80.3627 49.4827 80.2412 49.5174 80.0849 49.5174H65.4316C65.258 49.5174 65.1539 49.4827 65.0844 49.4306C65.015 49.3612 64.9802 49.257 64.9802 49.0834V47.0521C64.9802 46.8785 65.015 46.7743 65.0844 46.7049C65.1539 46.6528 65.258 46.618 65.4316 46.618H71.0916V44.6214C70.7443 44.6388 70.4318 44.6388 70.1193 44.6388H69.1818C68.0706 44.6388 67.272 44.3437 66.8032 43.736C66.3171 43.1457 66.074 42.2082 66.074 40.8887V33.9787C66.074 33.8051 66.1088 33.7009 66.1782 33.6315C66.2476 33.5794 66.3518 33.5447 66.5254 33.5447H78.8002C78.9564 33.5447 79.0779 33.5794 79.1474 33.6315C79.2168 33.7009 79.2516 33.8051 79.2516 33.9787V36.01C79.2516 36.1837 79.2168 36.3052 79.1474 36.3573C79.0779 36.4267 78.9564 36.4441 78.8002 36.4441H69.4075V37.6941H78.8175C78.9738 37.6941 79.0953 37.7289 79.1648 37.7809C79.2342 37.8504 79.2689 37.9546 79.2689 38.1282V39.9859C79.2689 40.1595 79.2342 40.281 79.1648 40.3331C79.0953 40.4026 78.9738 40.4199 78.8175 40.4199H69.4075V40.7324C69.4075 41.1491 69.4943 41.4616 69.6679 41.6526C69.8415 41.8609 70.154 41.9477 70.6228 41.9304C71.8728 41.913 73.227 41.8609 74.6507 41.7915C76.0744 41.722 77.4633 41.6179 78.8349 41.4616C78.9911 41.4443 79.0953 41.4616 79.1648 41.5311C79.2168 41.6005 79.2516 41.722 79.2863 41.8957L79.4599 43.736Z" fill="#222222"/>
<path d="M90.267 45.3159V49.3265C90.267 49.5001 90.2323 49.6043 90.1628 49.6737C90.0934 49.7258 89.9719 49.7605 89.8156 49.7605H87.5586C87.385 49.7605 87.2808 49.7258 87.2114 49.6737C87.1419 49.6043 87.1072 49.5001 87.1072 49.3265V36.3746C87.1072 36.0621 87.1245 35.7496 87.1766 35.4718C87.2114 35.2114 87.2982 34.9857 87.4544 34.7774C87.5933 34.6037 87.8017 34.4475 88.0794 34.3433C88.3572 34.2391 88.7392 34.1871 89.2253 34.1871H92.7497C94.5554 34.1871 95.9269 34.6385 96.8471 35.5413C97.7499 36.4441 98.2187 37.8157 98.2187 39.6213C98.2187 41.4443 97.7499 42.8506 96.8471 43.8228C95.9269 44.8298 94.5554 45.3159 92.7497 45.3159H90.267ZM90.267 42.3123H92.7324C93.4963 42.3123 94.0866 42.0866 94.4859 41.6005C94.8679 41.1491 95.0588 40.4894 95.0588 39.6213C95.0588 38.7879 94.8679 38.1803 94.4859 37.7809C94.0866 37.399 93.4963 37.1906 92.7324 37.1906H91.083C90.7705 37.1906 90.5448 37.2601 90.4406 37.3643C90.3191 37.5031 90.267 37.7289 90.267 38.0587V42.3123ZM100.711 49.7605C100.537 49.7605 100.433 49.7258 100.363 49.6737C100.294 49.6043 100.259 49.5001 100.259 49.3265V34.6211C100.259 34.4475 100.294 34.3433 100.363 34.2739C100.433 34.2218 100.537 34.1871 100.711 34.1871H103.141C103.298 34.1871 103.419 34.2218 103.488 34.2739C103.558 34.3433 103.593 34.4475 103.593 34.6211V49.3265C103.593 49.5001 103.558 49.6043 103.488 49.6737C103.419 49.7258 103.298 49.7605 103.141 49.7605H100.711ZM116.182 48.8056C116.182 49.0313 116.165 49.1876 116.13 49.2917C116.06 49.3786 115.922 49.448 115.713 49.5174C115.505 49.5695 115.244 49.6216 114.932 49.6911L113.908 49.8473C113.526 49.882 113.161 49.9341 112.796 49.9689C112.414 50.0036 112.05 50.0209 111.737 50.0209C110.557 50.0209 109.584 49.8473 108.821 49.5348C108.057 49.1876 107.449 48.7014 107.032 48.0417C106.581 47.382 106.286 46.5486 106.13 45.5416C105.956 44.5346 105.869 43.354 105.869 41.9998C105.869 40.5414 105.973 39.2914 106.182 38.2671C106.373 37.2601 106.702 36.4441 107.171 35.8017C107.623 35.1767 108.23 34.7253 108.994 34.4301C109.723 34.1523 110.644 34.0134 111.737 34.0134C112.085 34.0134 112.467 34.0308 112.866 34.0655L113.994 34.2218C114.342 34.2912 114.689 34.3433 115.001 34.3954C115.314 34.4649 115.574 34.5343 115.783 34.569C115.922 34.6037 116.026 34.6558 116.112 34.7079C116.182 34.7774 116.217 34.951 116.217 35.2288L116.147 36.6003C116.13 36.8434 116.078 36.9997 115.974 37.0691C115.869 37.1559 115.731 37.1906 115.574 37.1559C115.349 37.1386 115.106 37.1038 114.828 37.0691C114.533 37.0517 114.237 37.017 113.942 36.9823C113.63 36.9649 113.352 36.9476 113.074 36.9129C112.779 36.9129 112.519 36.8955 112.31 36.8955C111.72 36.8955 111.216 36.9823 110.835 37.1212C110.418 37.2774 110.105 37.5379 109.862 37.9198C109.619 38.3018 109.446 38.8226 109.359 39.4824C109.255 40.1421 109.203 40.9929 109.203 41.9998C109.203 42.9721 109.237 43.7707 109.324 44.4131C109.394 45.0729 109.567 45.6111 109.81 45.993C110.036 46.4097 110.366 46.6875 110.782 46.8611C111.199 47.0347 111.737 47.1215 112.397 47.1215C112.588 47.1215 112.831 47.1042 113.109 47.0868C113.369 47.0521 113.647 47.0347 113.942 47.0174L114.793 46.9132C115.071 46.8958 115.314 46.8785 115.54 46.8437C115.783 46.8264 115.939 46.8437 116.026 46.8785C116.095 46.9479 116.13 47.0521 116.147 47.2604L116.182 48.8056ZM118.879 49.7605C118.705 49.7605 118.601 49.7258 118.532 49.6737C118.462 49.6043 118.427 49.5001 118.427 49.3265V34.6211C118.427 34.4475 118.462 34.3433 118.532 34.2739C118.601 34.2218 118.705 34.1871 118.879 34.1871H121.327C121.483 34.1871 121.605 34.2218 121.674 34.2739C121.744 34.3433 121.778 34.4475 121.778 34.6211V40.663H123.566L125.893 34.7426C125.962 34.5517 126.084 34.4128 126.223 34.326C126.344 34.2565 126.518 34.2044 126.726 34.2044H128.914C129.157 34.2044 129.331 34.2565 129.435 34.326C129.539 34.4128 129.522 34.5864 129.417 34.8294L126.344 41.9477L129.469 49.066C129.574 49.3265 129.591 49.5174 129.487 49.6216C129.383 49.7258 129.192 49.7779 128.914 49.7779H126.796C126.57 49.7779 126.396 49.7431 126.292 49.6911C126.171 49.6216 126.067 49.4827 125.98 49.2744L123.619 43.6666H121.778V49.3265C121.778 49.5001 121.744 49.6043 121.674 49.6737C121.605 49.7258 121.483 49.7605 121.327 49.7605H118.879Z" fill="#E24444"/>
<path d="M994.167 54.8333L1015.83 33.1666" stroke="#222222" stroke-width="3" stroke-linecap="round" stroke-linejoin="round"/>
<path d="M994.167 33.1666H1015.83V54.8333" stroke="#222222" stroke-width="3" stroke-linecap="round" stroke-linejoin="round"/>
<path d="M56.25 109.207H52.9375V94.8008H49.75V107.77H46.5625V81.4883H49.75V92.0195H52.9375V80.957H56.25V109.207ZM32.8125 84.3008H43.375V87.1133H36.3125V99.6758C37.9479 99.6549 39.4271 99.5924 40.75 99.4883C42.0729 99.3841 43.4167 99.207 44.7812 98.957L45.0312 101.801C43.4583 102.113 41.9115 102.322 40.3906 102.426C38.8802 102.53 36.9896 102.592 34.7188 102.613H32.8125V84.3008ZM68.43 82.707C69.9092 82.707 71.2373 82.9987 72.4144 83.582C73.5915 84.1549 74.5133 84.957 75.18 85.9883C75.8571 87.0195 76.2008 88.1966 76.2113 89.5195C76.2008 90.6549 75.9404 91.6914 75.43 92.6289C74.93 93.5664 74.2269 94.3424 73.3206 94.957C72.4144 95.5612 71.3675 95.9674 70.18 96.1758V100.301C72.8988 100.165 75.3883 99.9362 77.6488 99.6133L77.93 102.113C75.1383 102.645 72.2894 102.988 69.3831 103.145C66.4873 103.29 63.305 103.363 59.8363 103.363L59.3988 100.52C62.5133 100.52 64.9508 100.493 66.7113 100.441V96.1914C65.5342 95.9831 64.4873 95.5716 63.5706 94.957C62.654 94.3424 61.9404 93.5716 61.43 92.6445C60.93 91.707 60.68 90.6654 60.68 89.5195C60.68 88.207 61.0133 87.0352 61.68 86.0039C62.3467 84.9622 63.2685 84.1549 64.4456 83.582C65.6331 82.9987 66.9613 82.707 68.43 82.707ZM64.1175 89.5195C64.1175 90.2799 64.2998 90.9518 64.6644 91.5352C65.0394 92.1185 65.555 92.5716 66.2113 92.8945C66.8675 93.207 67.6071 93.3633 68.43 93.3633C69.2633 93.3633 70.0081 93.207 70.6644 92.8945C71.331 92.5716 71.8519 92.1185 72.2269 91.5352C72.6123 90.9518 72.805 90.2799 72.805 89.5195C72.805 88.7487 72.6123 88.0768 72.2269 87.5039C71.8519 86.9206 71.331 86.4727 70.6644 86.1602C70.0081 85.8477 69.2633 85.6966 68.43 85.707C67.6071 85.6966 66.8675 85.8477 66.2113 86.1602C65.555 86.4727 65.0394 86.9206 64.6644 87.5039C64.2998 88.0768 64.1175 88.7487 64.1175 89.5195ZM79.3363 80.957H82.805V109.238H79.3363V80.957ZM108.985 87.832H112.798V90.7383H108.985V97.582H105.516V80.957H108.985V87.832ZM86.36 94.7383C89.4121 94.7383 91.7871 94.7174 93.485 94.6758V93.2539C91.8704 93.0872 90.61 92.6862 89.7038 92.0508C88.7975 91.4049 88.3496 90.5716 88.36 89.5508C88.36 88.8008 88.636 88.1549 89.1881 87.6133C89.7506 87.0612 90.5423 86.6445 91.5631 86.3633C92.5944 86.0716 93.7975 85.9258 95.1725 85.9258C96.5475 85.9258 97.7454 86.0716 98.7663 86.3633C99.7975 86.6445 100.589 87.0612 101.141 87.6133C101.704 88.1549 101.985 88.8008 101.985 89.5508C101.985 90.5612 101.537 91.3893 100.641 92.0352C99.7558 92.6706 98.5267 93.0716 96.9538 93.2383V94.5508C99.6933 94.4049 102.058 94.1966 104.048 93.9258L104.329 96.1133C101.652 96.5612 98.8965 96.8529 96.0631 96.9883C93.2402 97.1133 90.1308 97.1758 86.735 97.1758L86.36 94.7383ZM87.0788 82.8633H93.485V80.7383H96.9538V82.8633H103.298V85.2383H87.0788V82.8633ZM90.11 98.707H108.985V104.801H93.6413V106.613H109.985V108.957H90.1725V102.645H105.516V101.051H90.11V98.707ZM91.7038 89.5508C91.6933 90.0508 91.9902 90.4362 92.5944 90.707C93.209 90.9779 94.0683 91.1133 95.1725 91.1133C96.2767 91.1133 97.136 90.9779 97.7506 90.707C98.3652 90.4362 98.6725 90.0508 98.6725 89.5508C98.6725 89.0924 98.3652 88.7435 97.7506 88.5039C97.1465 88.2539 96.2871 88.1237 95.1725 88.1133C94.0579 88.1237 93.1985 88.2539 92.5944 88.5039C91.9902 88.7435 91.6933 89.0924 91.7038 89.5508ZM139.728 97.2695H113.946V94.4883H125.134V91.8008H117.103V82.2383H136.603V84.957H120.571V89.0508H136.759V91.8008H128.54V94.4883H139.728V97.2695ZM116.946 104.051C116.946 102.957 117.337 102.025 118.118 101.254C118.91 100.473 120.04 99.8841 121.509 99.4883C122.988 99.0924 124.748 98.8945 126.79 98.8945C128.821 98.8945 130.566 99.0924 132.024 99.4883C133.493 99.8841 134.618 100.473 135.399 101.254C136.181 102.025 136.571 102.957 136.571 104.051C136.571 105.134 136.181 106.061 135.399 106.832C134.618 107.603 133.493 108.191 132.024 108.598C130.566 109.004 128.821 109.207 126.79 109.207C124.748 109.207 122.988 109.004 121.509 108.598C120.04 108.191 118.91 107.603 118.118 106.832C117.337 106.061 116.946 105.134 116.946 104.051ZM120.478 104.051C120.467 104.863 120.988 105.478 122.04 105.895C123.103 106.311 124.649 106.52 126.681 106.52C128.764 106.52 130.353 106.316 131.446 105.91C132.54 105.493 133.092 104.874 133.103 104.051C133.092 103.238 132.545 102.618 131.462 102.191C130.379 101.764 128.821 101.551 126.79 101.551C124.738 101.551 123.17 101.764 122.087 102.191C121.004 102.618 120.467 103.238 120.478 104.051ZM174.338 97.707H163.431V102.895H159.9V97.707H148.525V94.9258H174.338V97.707ZM151.275 87.3633C151.275 86.1966 151.692 85.1758 152.525 84.3008C153.369 83.4258 154.556 82.7539 156.088 82.2852C157.619 81.8164 159.39 81.582 161.4 81.582C163.421 81.582 165.197 81.8164 166.728 82.2852C168.259 82.7539 169.442 83.4258 170.275 84.3008C171.108 85.1758 171.525 86.1966 171.525 87.3633C171.525 88.5404 171.108 89.5612 170.275 90.4258C169.442 91.2904 168.259 91.957 166.728 92.4258C165.197 92.8841 163.421 93.1133 161.4 93.1133C159.379 93.1133 157.603 92.8841 156.072 92.4258C154.551 91.957 153.369 91.2904 152.525 90.4258C151.692 89.5508 151.275 88.5299 151.275 87.3633ZM151.681 100.27H155.181V105.801H171.494V108.645H151.681V100.27ZM155.025 87.3633C155.015 87.9779 155.27 88.5091 155.791 88.957C156.311 89.4049 157.051 89.7487 158.009 89.9883C158.978 90.2174 160.108 90.332 161.4 90.332C162.702 90.332 163.832 90.2174 164.791 89.9883C165.759 89.7487 166.504 89.4049 167.025 88.957C167.546 88.5091 167.806 87.9779 167.806 87.3633C167.806 86.7279 167.546 86.1862 167.025 85.7383C166.504 85.2799 165.759 84.931 164.791 84.6914C163.832 84.4518 162.702 84.332 161.4 84.332C160.108 84.332 158.978 84.4518 158.009 84.6914C157.051 84.931 156.311 85.2799 155.791 85.7383C155.27 86.1862 155.015 86.7279 155.025 87.3633ZM183.705 82.5508C184.84 82.5508 185.893 82.7487 186.861 83.1445C187.83 83.5299 188.653 84.082 189.33 84.8008H196.08V80.957H199.549V97.582H196.08V93.9883H189.314C188.627 94.6966 187.799 95.2435 186.83 95.6289C185.872 96.0143 184.83 96.207 183.705 96.207C182.309 96.207 181.044 95.9154 179.908 95.332C178.773 94.7487 177.882 93.9414 177.236 92.9102C176.59 91.8685 176.268 90.6966 176.268 89.3945C176.268 88.082 176.59 86.9102 177.236 85.8789C177.882 84.8372 178.768 84.0247 179.893 83.4414C181.028 82.8477 182.299 82.5508 183.705 82.5508ZM179.58 89.3945C179.58 90.1549 179.757 90.832 180.111 91.4258C180.465 92.0091 180.955 92.4622 181.58 92.7852C182.215 93.1081 182.934 93.2695 183.736 93.2695C184.507 93.2695 185.2 93.1081 185.814 92.7852C186.439 92.4622 186.929 92.0091 187.283 91.4258C187.648 90.832 187.83 90.1549 187.83 89.3945C187.83 88.6133 187.653 87.931 187.299 87.3477C186.945 86.7643 186.455 86.3164 185.83 86.0039C185.215 85.681 184.518 85.5195 183.736 85.5195C182.934 85.5195 182.215 85.681 181.58 86.0039C180.955 86.3164 180.465 86.7643 180.111 87.3477C179.757 87.931 179.58 88.6133 179.58 89.3945ZM180.393 103.676C180.382 102.53 180.762 101.546 181.533 100.723C182.314 99.8893 183.424 99.2591 184.861 98.832C186.309 98.3945 188.018 98.1758 189.986 98.1758C191.955 98.1758 193.663 98.3945 195.111 98.832C196.57 99.2591 197.689 99.8893 198.471 100.723C199.252 101.546 199.643 102.53 199.643 103.676C199.643 104.822 199.252 105.806 198.471 106.629C197.689 107.452 196.57 108.082 195.111 108.52C193.663 108.957 191.955 109.176 189.986 109.176C188.018 109.176 186.309 108.957 184.861 108.52C183.424 108.082 182.314 107.452 181.533 106.629C180.762 105.806 180.382 104.822 180.393 103.676ZM183.799 103.676C183.788 104.572 184.32 105.259 185.393 105.738C186.476 106.207 188.007 106.447 189.986 106.457C191.997 106.447 193.538 106.207 194.611 105.738C195.695 105.259 196.236 104.572 196.236 103.676C196.236 102.759 195.695 102.061 194.611 101.582C193.538 101.092 191.997 100.842 189.986 100.832C188.007 100.842 186.476 101.092 185.393 101.582C184.32 102.061 183.788 102.759 183.799 103.676ZM190.893 87.582C191.059 88.1966 191.143 88.8008 191.143 89.3945C191.143 89.957 191.064 90.5508 190.908 91.1758H196.08V87.582H190.893ZM213.354 88.9883C213.343 90.457 213.619 91.9414 214.182 93.4414C214.755 94.9414 215.578 96.3112 216.651 97.5508C217.724 98.7799 218.979 99.7279 220.416 100.395L218.479 103.145C216.927 102.415 215.567 101.348 214.401 99.9414C213.234 98.5247 212.322 96.9049 211.666 95.082C211.01 97.0716 210.078 98.8372 208.869 100.379C207.661 101.921 206.26 103.072 204.666 103.832L202.635 101.113C204.093 100.426 205.369 99.431 206.463 98.1289C207.557 96.8268 208.395 95.3737 208.979 93.7695C209.572 92.1654 209.875 90.5716 209.885 88.9883V86.6133H203.729V83.7383H219.26V86.6133H213.354V88.9883ZM221.885 80.957H225.354V91.957H229.697V94.8633H225.354V109.207H221.885V80.957ZM252.69 91.9883H256.878V94.8945H252.69V109.145H249.221V80.957H252.69V91.9883ZM230.409 101.426C233.857 99.707 236.513 97.6393 238.378 95.2227C240.242 92.7956 241.346 89.9779 241.69 86.7695H231.94V83.8945H245.221C245.2 93.1654 240.919 99.9049 232.378 104.113L230.409 101.426ZM42.6562 133.863C42.6562 135.04 42.9219 136.186 43.4531 137.301C43.9948 138.405 44.7812 139.389 45.8125 140.254C46.8542 141.118 48.1042 141.78 49.5625 142.238L47.7812 144.926C46.2083 144.415 44.8438 143.66 43.6875 142.66C42.5312 141.65 41.6198 140.457 40.9531 139.082C40.3073 140.572 39.3854 141.868 38.1875 142.973C37 144.077 35.5833 144.905 33.9375 145.457L32.1562 142.77C33.625 142.27 34.8854 141.561 35.9375 140.645C36.9896 139.717 37.7865 138.671 38.3281 137.504C38.8698 136.327 39.1458 135.113 39.1562 133.863V133.52H33.0625V130.738H48.5938V133.52H42.6562V133.863ZM36.1875 147.301H55.4688V157.207H51.9688V150.113H36.1875V147.301ZM51.9688 128.957H55.4688V145.988H51.9688V128.957ZM82.93 144.363H79.4613V138.332H74.5863V135.457H79.4613V128.957H82.93V144.363ZM59.2113 142.113C60.6592 141.624 61.8988 140.926 62.93 140.02C63.9717 139.103 64.7581 138.061 65.2894 136.895C65.831 135.717 66.1071 134.499 66.1175 133.238H60.2425V130.395H75.4925V133.238H69.6488C69.6592 134.395 69.9196 135.52 70.43 136.613C70.9508 137.707 71.706 138.691 72.6956 139.566C73.6956 140.441 74.8988 141.113 76.305 141.582L74.555 144.27C73.0133 143.738 71.68 142.967 70.555 141.957C69.4404 140.947 68.5654 139.759 67.93 138.395C67.2946 139.915 66.3883 141.238 65.2113 142.363C64.0446 143.478 62.6383 144.311 60.9925 144.863L59.2113 142.113ZM64.305 145.551H67.7738V148.488H79.4613V145.551H82.93V156.863H64.305V145.551ZM79.4613 154.051V151.207H67.7738V154.051H79.4613ZM104.165 133.957C104.155 135.228 104.399 136.452 104.899 137.629C105.41 138.806 106.165 139.853 107.165 140.77C108.165 141.676 109.373 142.374 110.79 142.863L108.884 145.582C107.384 145.02 106.092 144.212 105.009 143.16C103.925 142.108 103.076 140.874 102.462 139.457C101.847 141.04 100.962 142.415 99.8056 143.582C98.6494 144.749 97.2588 145.634 95.6338 146.238L93.79 143.488C95.2588 142.988 96.5088 142.254 97.54 141.285C98.5713 140.316 99.3473 139.197 99.8681 137.926C100.389 136.655 100.655 135.322 100.665 133.926V130.707H104.165V133.957ZM98.915 147.676H102.446V153.832H118.165V156.645H98.915V147.676ZM108.446 135.207H114.071V128.988H117.54V149.957H114.071V138.051H108.446V135.207ZM144.876 145.738H141.408V138.832H136.595V135.988H141.408V128.957H144.876V145.738ZM121.126 142.926C122.595 142.426 123.85 141.702 124.892 140.754C125.944 139.806 126.736 138.733 127.267 137.535C127.798 136.337 128.064 135.103 128.064 133.832V133.613H122.189V130.801H137.439V133.613H131.595V133.801C131.595 134.967 131.85 136.103 132.361 137.207C132.871 138.301 133.626 139.285 134.626 140.16C135.626 141.025 136.835 141.697 138.251 142.176L136.501 144.926C134.97 144.405 133.647 143.639 132.533 142.629C131.418 141.608 130.538 140.415 129.892 139.051C129.256 140.592 128.35 141.936 127.173 143.082C125.996 144.228 124.585 145.092 122.939 145.676L121.126 142.926ZM125.72 151.832C125.71 150.717 126.09 149.759 126.861 148.957C127.631 148.145 128.736 147.525 130.173 147.098C131.621 146.671 133.335 146.457 135.314 146.457C137.303 146.457 139.022 146.671 140.47 147.098C141.918 147.525 143.027 148.139 143.798 148.941C144.579 149.743 144.97 150.707 144.97 151.832C144.97 152.957 144.579 153.921 143.798 154.723C143.027 155.525 141.918 156.139 140.47 156.566C139.022 156.993 137.303 157.207 135.314 157.207C133.335 157.207 131.621 156.993 130.173 156.566C128.736 156.139 127.631 155.52 126.861 154.707C126.09 153.905 125.71 152.947 125.72 151.832ZM129.158 151.832C129.147 152.697 129.668 153.363 130.72 153.832C131.783 154.29 133.283 154.52 135.22 154.52C137.241 154.52 138.793 154.29 139.876 153.832C140.96 153.374 141.501 152.707 141.501 151.832C141.501 150.957 140.965 150.285 139.892 149.816C138.829 149.348 137.303 149.113 135.314 149.113C133.345 149.113 131.824 149.348 130.751 149.816C129.678 150.285 129.147 150.957 129.158 151.832ZM170.681 140.207H175.025V143.082H170.681V157.207H167.244V128.957H170.681V140.207ZM148.4 133.301H155.088V129.363H158.556V133.301H165.056V136.082H148.4V133.301ZM149.713 144.582C149.702 143.301 150.004 142.155 150.619 141.145C151.233 140.124 152.082 139.332 153.166 138.77C154.249 138.207 155.473 137.926 156.838 137.926C158.181 137.926 159.39 138.207 160.463 138.77C161.535 139.332 162.379 140.124 162.994 141.145C163.619 142.155 163.931 143.301 163.931 144.582C163.931 145.863 163.619 147.009 162.994 148.02C162.379 149.02 161.535 149.801 160.463 150.363C159.39 150.926 158.181 151.207 156.838 151.207C155.473 151.207 154.249 150.926 153.166 150.363C152.082 149.801 151.233 149.02 150.619 148.02C150.004 147.009 149.702 145.863 149.713 144.582ZM153.025 144.582C153.025 145.332 153.186 145.993 153.509 146.566C153.832 147.129 154.28 147.566 154.853 147.879C155.436 148.181 156.098 148.332 156.838 148.332C157.556 148.332 158.202 148.181 158.775 147.879C159.348 147.577 159.796 147.139 160.119 146.566C160.442 145.993 160.608 145.332 160.619 144.582C160.608 143.832 160.436 143.171 160.103 142.598C159.78 142.014 159.332 141.566 158.759 141.254C158.197 140.931 157.556 140.77 156.838 140.77C156.098 140.77 155.436 140.931 154.853 141.254C154.28 141.566 153.832 142.014 153.509 142.598C153.186 143.171 153.025 143.832 153.025 144.582ZM198.768 139.707H179.205V129.988H182.643V136.957H198.768V139.707ZM175.861 142.988H201.674V145.738H175.861V142.988ZM178.955 148.238H182.424V153.738H198.955V156.551H178.955V148.238ZM232.878 135.832H236.69V138.738H232.878V145.582H229.409V128.957H232.878V135.832ZM210.253 142.738C213.305 142.738 215.68 142.717 217.378 142.676V141.254C215.763 141.087 214.503 140.686 213.596 140.051C212.69 139.405 212.242 138.572 212.253 137.551C212.253 136.801 212.529 136.155 213.081 135.613C213.643 135.061 214.435 134.645 215.456 134.363C216.487 134.072 217.69 133.926 219.065 133.926C220.44 133.926 221.638 134.072 222.659 134.363C223.69 134.645 224.482 135.061 225.034 135.613C225.596 136.155 225.878 136.801 225.878 137.551C225.878 138.561 225.43 139.389 224.534 140.035C223.648 140.671 222.419 141.072 220.846 141.238V142.551C223.586 142.405 225.95 142.197 227.94 141.926L228.221 144.113C225.544 144.561 222.789 144.853 219.956 144.988C217.133 145.113 214.023 145.176 210.628 145.176L210.253 142.738ZM210.971 130.863H217.378V128.738H220.846V130.863H227.19V133.238H210.971V130.863ZM214.003 146.707H232.878V152.801H217.534V154.613H233.878V156.957H214.065V150.645H229.409V149.051H214.003V146.707ZM215.596 137.551C215.586 138.051 215.883 138.436 216.487 138.707C217.101 138.978 217.961 139.113 219.065 139.113C220.169 139.113 221.029 138.978 221.643 138.707C222.258 138.436 222.565 138.051 222.565 137.551C222.565 137.092 222.258 136.743 221.643 136.504C221.039 136.254 220.18 136.124 219.065 136.113C217.95 136.124 217.091 136.254 216.487 136.504C215.883 136.743 215.586 137.092 215.596 137.551ZM263.62 145.27H237.839V142.488H249.026V139.801H240.995V130.238H260.495V132.957H244.464V137.051H260.651V139.801H252.432V142.488H263.62V145.27ZM240.839 152.051C240.839 150.957 241.229 150.025 242.011 149.254C242.802 148.473 243.932 147.884 245.401 147.488C246.88 147.092 248.641 146.895 250.682 146.895C252.714 146.895 254.459 147.092 255.917 147.488C257.386 147.884 258.511 148.473 259.292 149.254C260.073 150.025 260.464 150.957 260.464 152.051C260.464 153.134 260.073 154.061 259.292 154.832C258.511 155.603 257.386 156.191 255.917 156.598C254.459 157.004 252.714 157.207 250.682 157.207C248.641 157.207 246.88 157.004 245.401 156.598C243.932 156.191 242.802 155.603 242.011 154.832C241.229 154.061 240.839 153.134 240.839 152.051ZM244.37 152.051C244.36 152.863 244.88 153.478 245.932 153.895C246.995 154.311 248.542 154.52 250.573 154.52C252.656 154.52 254.245 154.316 255.339 153.91C256.432 153.493 256.985 152.874 256.995 152.051C256.985 151.238 256.438 150.618 255.354 150.191C254.271 149.764 252.714 149.551 250.682 149.551C248.63 149.551 247.063 149.764 245.979 150.191C244.896 150.618 244.36 151.238 244.37 152.051ZM298.199 148.77H287.011V157.238H283.574V148.77H272.449V145.926H298.199V148.77ZM273.855 141.457C275.678 141.238 277.303 140.806 278.73 140.16C280.157 139.504 281.287 138.728 282.121 137.832C282.954 136.926 283.428 135.999 283.542 135.051H274.824V132.301H283.574V128.988H287.011V132.301H295.792V135.051H287.074C287.188 135.999 287.657 136.921 288.48 137.816C289.313 138.712 290.444 139.488 291.871 140.145C293.298 140.801 294.917 141.238 296.73 141.457L295.449 144.207C293.147 143.915 291.115 143.296 289.355 142.348C287.595 141.4 286.251 140.233 285.324 138.848C284.386 140.243 283.027 141.415 281.246 142.363C279.475 143.301 277.428 143.915 275.105 144.207L273.855 141.457ZM309.941 135.645C309.931 136.78 310.186 137.874 310.707 138.926C311.238 139.978 312.014 140.915 313.035 141.738C314.066 142.561 315.306 143.197 316.754 143.645L315.066 146.363C313.493 145.895 312.129 145.176 310.973 144.207C309.816 143.238 308.91 142.092 308.254 140.77C307.618 142.197 306.717 143.436 305.551 144.488C304.384 145.53 302.993 146.311 301.379 146.832L299.691 144.113C301.139 143.665 302.368 143.009 303.379 142.145C304.4 141.28 305.17 140.29 305.691 139.176C306.212 138.051 306.473 136.874 306.473 135.645V135.207H300.566V132.457H306.473V129.145H309.973V132.457H315.848V135.207H309.941V135.645ZM304.91 148.145H308.379V153.832H324.16V156.645H304.91V148.145ZM314.91 137.395H319.973V128.988H323.441V149.957H319.973V140.176H314.91V137.395Z" fill="#222222"/>
<path d="M35.2969 181.453C35.9219 181.458 36.4818 181.633 36.9766 181.977C37.4766 182.32 37.8802 182.81 38.1875 183.445C38.4948 184.081 38.6797 184.828 38.7422 185.688H41.8594V180.375H43.0781V194.297H41.8594V186.703H38.7578C38.7109 187.599 38.5365 188.38 38.2344 189.047C37.9323 189.714 37.526 190.227 37.0156 190.586C36.5104 190.945 35.9375 191.125 35.2969 191.125C34.6198 191.125 34.0156 190.927 33.4844 190.531C32.9583 190.135 32.5469 189.573 32.25 188.844C31.9583 188.115 31.8125 187.266 31.8125 186.297C31.8125 185.328 31.9583 184.479 32.25 183.75C32.5469 183.021 32.9583 182.458 33.4844 182.062C34.0104 181.661 34.6146 181.458 35.2969 181.453ZM35.2969 182.547C34.8438 182.552 34.4401 182.711 34.0859 183.023C33.737 183.331 33.4661 183.768 33.2734 184.336C33.0807 184.898 32.9844 185.552 32.9844 186.297C32.9844 187.042 33.0807 187.698 33.2734 188.266C33.4661 188.828 33.737 189.263 34.0859 189.57C34.4401 189.878 34.8438 190.031 35.2969 190.031C35.7448 190.031 36.1432 189.878 36.4922 189.57C36.8464 189.263 37.1198 188.828 37.3125 188.266C37.5104 187.698 37.6094 187.042 37.6094 186.297C37.6094 185.552 37.5104 184.898 37.3125 184.336C37.1198 183.768 36.849 183.331 36.5 183.023C36.151 182.711 35.75 182.552 35.2969 182.547ZM57.2463 193.969H47.5744V189.656H48.7931V192.938H57.2463V193.969ZM56.8713 190.484H55.6681V185.234H53.1056V184.219H55.6681V180.391H56.8713V190.484ZM49.1369 182.547H46.8244V187.242C47.6733 187.216 48.4963 187.115 49.2931 186.938L49.4181 187.953C48.8452 188.078 48.3218 188.156 47.8478 188.188C47.3739 188.219 46.8296 188.234 46.215 188.234H45.6213V181.531H49.1369V182.547ZM53.7775 182.547H51.1369V187.25C51.7723 187.24 52.3322 187.211 52.8166 187.164C53.3061 187.112 53.8035 187.026 54.3088 186.906L54.4338 187.922C53.8296 188.052 53.2541 188.138 52.7072 188.18C52.1603 188.216 51.4598 188.234 50.6056 188.234H49.9025V181.531H53.7775V182.547ZM73.5981 183.938H75.6763V184.984H73.5981V188.578H72.3638V180.375H73.5981V183.938ZM73.5981 192H65.8013V193.234H74.1294V194.109H64.5825V191.172H72.3794V190.078H64.5513V189.203H73.5981V192ZM62.6919 187.328C64.296 187.328 65.5513 187.315 66.4575 187.289V186.43C65.6346 186.367 64.9861 186.177 64.5122 185.859C64.0382 185.542 63.8013 185.12 63.8013 184.594C63.8013 184.219 63.9341 183.896 64.1997 183.625C64.4653 183.354 64.8429 183.148 65.3325 183.008C65.8221 182.867 66.395 182.797 67.0513 182.797C67.7127 182.797 68.2882 182.867 68.7778 183.008C69.2674 183.148 69.645 183.354 69.9106 183.625C70.1763 183.896 70.3117 184.219 70.3169 184.594C70.3117 185.115 70.0747 185.534 69.6059 185.852C69.1424 186.169 68.4992 186.362 67.6763 186.43V187.25C69.1606 187.177 70.4367 187.062 71.5044 186.906L71.6138 187.734C70.2856 187.948 68.9054 188.089 67.4731 188.156C66.0408 188.219 64.494 188.25 62.8325 188.25L62.6919 187.328ZM71.0825 182.328H63.0356V181.438H66.4575V180.25H67.6763V181.438H71.0825V182.328ZM67.0513 183.609C66.4054 183.62 65.8976 183.711 65.5278 183.883C65.158 184.055 64.9731 184.292 64.9731 184.594C64.9731 184.906 65.1606 185.156 65.5356 185.344C65.9106 185.531 66.4158 185.625 67.0513 185.625C67.6919 185.625 68.1997 185.531 68.5747 185.344C68.9549 185.156 69.145 184.906 69.145 184.594C69.145 184.292 68.9575 184.055 68.5825 183.883C68.2075 183.711 67.6971 183.62 67.0513 183.609ZM89.0944 188.234H76.4225V187.25H82.1569V185.625H78.0319V181.031H87.5163V182.016H79.235V184.625H87.61V185.625H83.3444V187.25H89.0944V188.234ZM82.7506 189.25C83.7402 189.25 84.5918 189.349 85.3053 189.547C86.0241 189.74 86.5735 190.023 86.9538 190.398C87.334 190.773 87.5267 191.224 87.5319 191.75C87.5267 192.281 87.334 192.734 86.9538 193.109C86.5735 193.484 86.0267 193.768 85.3131 193.961C84.5996 194.159 83.7454 194.26 82.7506 194.266C81.7506 194.26 80.8913 194.159 80.1725 193.961C79.4538 193.768 78.9043 193.484 78.5241 193.109C78.1439 192.734 77.9538 192.281 77.9538 191.75C77.9538 191.224 78.1439 190.773 78.5241 190.398C78.9043 190.023 79.4538 189.74 80.1725 189.547C80.8913 189.349 81.7506 189.25 82.7506 189.25ZM82.7506 190.219C82.011 190.219 81.373 190.281 80.8366 190.406C80.3053 190.526 79.8991 190.701 79.6178 190.93C79.3366 191.159 79.1985 191.432 79.2038 191.75C79.1985 192.073 79.3366 192.349 79.6178 192.578C79.8991 192.807 80.3053 192.982 80.8366 193.102C81.373 193.221 82.011 193.281 82.7506 193.281C83.485 193.281 84.1178 193.221 84.6491 193.102C85.1803 192.982 85.5866 192.807 85.8678 192.578C86.1543 192.344 86.2975 192.068 86.2975 191.75C86.2975 191.432 86.1543 191.159 85.8678 190.93C85.5866 190.701 85.1777 190.526 84.6413 190.406C84.11 190.281 83.4798 190.219 82.7506 190.219ZM102.794 189.625H96.9969V194.266H95.7938V189.625H90.075V188.625H102.794V189.625ZM92.9188 182.875H99.9188V180.953H101.153V186.938H91.7V180.953H92.9188V182.875ZM99.9188 185.938V183.875H92.9188V185.938H99.9188ZM115.274 194.297H114.056V186.641H111.118V185.625H114.056V180.375H115.274V194.297ZM110.884 182.672H105.634V185.562H110.274V186.562H105.634V189.922C106.962 189.922 108.076 189.893 108.978 189.836C109.884 189.773 110.8 189.661 111.728 189.5L111.868 190.516C110.884 190.677 109.915 190.789 108.962 190.852C108.009 190.909 106.842 190.938 105.462 190.938H104.399V181.656H110.884V182.672ZM126.22 184.109C126.215 184.932 126.381 185.75 126.72 186.562C127.059 187.37 127.517 188.089 128.095 188.719C128.673 189.349 129.303 189.818 129.986 190.125L129.236 191.094C128.444 190.703 127.725 190.122 127.079 189.352C126.439 188.576 125.954 187.695 125.626 186.711C125.303 187.758 124.819 188.695 124.173 189.523C123.527 190.346 122.798 190.964 121.986 191.375L121.204 190.344C121.887 190.026 122.517 189.544 123.095 188.898C123.673 188.247 124.134 187.503 124.478 186.664C124.822 185.82 124.996 184.969 125.001 184.109V181.578H126.22V184.109ZM132.736 194.297H131.501V180.375H132.736V194.297ZM139.654 182.953C139.654 183.562 139.794 184.148 140.076 184.711C140.362 185.268 140.763 185.763 141.279 186.195C141.794 186.628 142.393 186.964 143.076 187.203L142.451 188.156C141.664 187.875 140.977 187.464 140.388 186.922C139.8 186.375 139.357 185.742 139.06 185.023C138.763 185.805 138.31 186.492 137.701 187.086C137.091 187.674 136.378 188.12 135.56 188.422L134.904 187.469C135.591 187.224 136.203 186.872 136.74 186.414C137.276 185.956 137.693 185.427 137.99 184.828C138.292 184.229 138.445 183.604 138.451 182.953V182.359H135.279V181.359H142.779V182.359H139.654V182.953ZM145.81 184.047H147.904V185.094H145.81V188.75H144.591V180.375H145.81V184.047ZM145.81 194.266H144.591V190.484H136.716V189.484H145.81V194.266ZM155.556 183.781H148.588V182.781H151.478V180.797H152.697V182.781H155.556V183.781ZM152.072 184.719C152.65 184.719 153.166 184.854 153.619 185.125C154.077 185.391 154.434 185.763 154.689 186.242C154.949 186.721 155.082 187.266 155.088 187.875C155.082 188.49 154.949 189.039 154.689 189.523C154.434 190.003 154.077 190.38 153.619 190.656C153.166 190.927 152.65 191.062 152.072 191.062C151.499 191.062 150.986 190.927 150.533 190.656C150.08 190.38 149.726 190 149.47 189.516C149.215 189.031 149.088 188.484 149.088 187.875C149.088 187.271 149.215 186.729 149.47 186.25C149.726 185.766 150.08 185.391 150.533 185.125C150.986 184.854 151.499 184.719 152.072 184.719ZM152.072 185.75C151.713 185.755 151.387 185.852 151.095 186.039C150.809 186.221 150.585 186.474 150.423 186.797C150.262 187.115 150.181 187.474 150.181 187.875C150.181 188.281 150.262 188.646 150.423 188.969C150.59 189.292 150.817 189.544 151.103 189.727C151.39 189.904 151.713 189.99 152.072 189.984C152.436 189.99 152.765 189.904 153.056 189.727C153.348 189.544 153.577 189.292 153.744 188.969C153.91 188.646 153.994 188.281 153.994 187.875C153.994 187.474 153.91 187.115 153.744 186.797C153.577 186.474 153.348 186.221 153.056 186.039C152.765 185.852 152.436 185.755 152.072 185.75ZM160.447 194.266H159.275V187.25H157.431V193.578H156.275V180.719H157.431V186.234H159.275V180.375H160.447V194.266ZM166.006 181.453C166.688 181.458 167.292 181.661 167.818 182.062C168.349 182.458 168.763 183.021 169.06 183.75C169.362 184.479 169.516 185.328 169.521 186.297C169.516 187.266 169.362 188.115 169.06 188.844C168.763 189.573 168.349 190.135 167.818 190.531C167.287 190.927 166.683 191.125 166.006 191.125C165.323 191.125 164.717 190.927 164.185 190.531C163.654 190.135 163.24 189.573 162.943 188.844C162.651 188.115 162.506 187.266 162.506 186.297C162.506 185.328 162.651 184.479 162.943 183.75C163.24 183.021 163.654 182.458 164.185 182.062C164.717 181.661 165.323 181.458 166.006 181.453ZM166.006 182.547C165.547 182.552 165.141 182.711 164.787 183.023C164.433 183.331 164.157 183.768 163.959 184.336C163.761 184.898 163.662 185.552 163.662 186.297C163.662 187.042 163.761 187.698 163.959 188.266C164.157 188.828 164.433 189.263 164.787 189.57C165.146 189.878 165.553 190.031 166.006 190.031C166.464 190.031 166.868 189.878 167.217 189.57C167.571 189.263 167.844 188.828 168.037 188.266C168.235 187.698 168.334 187.042 168.334 186.297C168.334 185.552 168.235 184.898 168.037 184.336C167.844 183.768 167.571 183.331 167.217 183.023C166.868 182.711 166.464 182.552 166.006 182.547ZM175.287 184.922H173.037V188.016H175.287V189.047H173.037V194.266H171.818V180.375H173.037V183.875H175.287V184.922ZM190.67 183.703H192.779V184.719H190.67V188.016H189.451V180.328H190.67V183.703ZM190.67 191.812H183.045V193.172H191.186V194.109H181.842V190.906H189.451V189.656H181.811V188.734H190.67V191.812ZM188.123 182.625H179.842V181.641H183.373V180.234H184.592V181.641H188.123V182.625ZM183.982 183.25C184.649 183.25 185.232 183.344 185.732 183.531C186.238 183.714 186.628 183.977 186.904 184.32C187.18 184.664 187.321 185.068 187.326 185.531C187.321 185.995 187.18 186.398 186.904 186.742C186.628 187.086 186.238 187.352 185.732 187.539C185.232 187.721 184.649 187.812 183.982 187.812C183.311 187.812 182.719 187.721 182.209 187.539C181.704 187.352 181.313 187.086 181.037 186.742C180.766 186.398 180.634 185.995 180.639 185.531C180.634 185.068 180.766 184.664 181.037 184.32C181.313 183.977 181.704 183.714 182.209 183.531C182.719 183.344 183.311 183.25 183.982 183.25ZM183.982 184.156C183.55 184.156 183.167 184.214 182.834 184.328C182.506 184.443 182.251 184.604 182.068 184.812C181.891 185.021 181.805 185.26 181.811 185.531C181.805 185.807 181.891 186.049 182.068 186.258C182.251 186.461 182.506 186.617 182.834 186.727C183.162 186.836 183.545 186.891 183.982 186.891C184.644 186.891 185.173 186.771 185.568 186.531C185.964 186.286 186.165 185.953 186.17 185.531C186.165 185.255 186.071 185.016 185.889 184.812C185.706 184.604 185.451 184.443 185.123 184.328C184.795 184.214 184.415 184.156 183.982 184.156ZM198.447 184.641C198.447 185.406 198.617 186.169 198.955 186.93C199.294 187.685 199.75 188.359 200.322 188.953C200.901 189.542 201.531 189.984 202.213 190.281L201.526 191.25C200.708 190.875 199.971 190.31 199.315 189.555C198.658 188.794 198.169 187.938 197.846 186.984C197.523 188.005 197.033 188.93 196.377 189.758C195.726 190.581 195.005 191.193 194.213 191.594L193.479 190.625C194.135 190.307 194.747 189.828 195.315 189.188C195.888 188.547 196.346 187.826 196.69 187.023C197.033 186.216 197.208 185.422 197.213 184.641V182.828H193.932V181.812H201.76V182.828H198.447V184.641ZM204.932 194.266H203.697V180.375H204.932V194.266ZM223.721 192.484H211.003V191.453H216.721V188.062H212.503V181.547H222.143V188.062H217.924V191.453H223.721V192.484ZM213.706 187.078H220.956V182.531H213.706V187.078ZM237.389 192.516H224.671V191.484H237.389V192.516ZM235.78 185.641H227.483V187.922H236.108V188.906H226.264V184.641H234.577V182.453H226.233V181.438H235.78V185.641ZM244.495 181.406C244.495 182.469 244.302 183.448 243.917 184.344H246.167V180.688H247.339V188.203H246.167V185.359H243.37C242.474 186.75 241.057 187.859 239.12 188.688L238.479 187.781C239.906 187.198 241.024 186.453 241.831 185.547C242.638 184.641 243.104 183.599 243.229 182.422H239.073V181.406H244.495ZM250.136 188.422H248.964V180.391H250.136V188.422ZM243.182 189.828C243.172 190.474 243.336 191.094 243.675 191.688C244.018 192.281 244.511 192.763 245.151 193.133C245.578 192.867 245.94 192.547 246.237 192.172C246.539 191.792 246.768 191.398 246.925 190.992C247.081 190.581 247.162 190.193 247.167 189.828V188.891H248.354V189.828C248.354 190.307 248.469 190.779 248.698 191.242C248.927 191.701 249.255 192.112 249.682 192.477C250.115 192.841 250.62 193.12 251.198 193.312L250.589 194.219C249.906 193.979 249.323 193.628 248.839 193.164C248.354 192.706 247.987 192.174 247.737 191.57C247.513 192.174 247.185 192.721 246.753 193.211C246.321 193.701 245.797 194.078 245.182 194.344C244.531 194.083 243.987 193.714 243.55 193.234C243.112 192.76 242.787 192.216 242.573 191.602C242.318 192.185 241.951 192.706 241.472 193.164C240.992 193.622 240.432 193.974 239.792 194.219L239.167 193.312C239.735 193.104 240.232 192.812 240.659 192.438C241.091 192.062 241.425 191.646 241.659 191.188C241.893 190.729 242.011 190.276 242.011 189.828V188.891H243.182V189.828ZM258.335 180.625C259.366 180.625 260.249 180.719 260.983 180.906C261.718 181.089 262.278 181.359 262.663 181.719C263.049 182.073 263.241 182.505 263.241 183.016C263.241 183.797 262.814 184.396 261.96 184.812C261.106 185.229 259.898 185.443 258.335 185.453C257.304 185.448 256.418 185.352 255.679 185.164C254.944 184.977 254.382 184.703 253.991 184.344C253.606 183.979 253.413 183.536 253.413 183.016C253.413 182.505 253.606 182.073 253.991 181.719C254.382 181.359 254.944 181.089 255.679 180.906C256.418 180.719 257.304 180.625 258.335 180.625ZM258.335 181.547C257.569 181.547 256.913 181.607 256.366 181.727C255.819 181.841 255.403 182.01 255.116 182.234C254.83 182.453 254.689 182.714 254.694 183.016C254.689 183.495 255.004 183.865 255.64 184.125C256.275 184.385 257.174 184.516 258.335 184.516C259.491 184.516 260.39 184.385 261.03 184.125C261.671 183.865 261.991 183.495 261.991 183.016C261.991 182.714 261.845 182.453 261.554 182.234C261.262 182.016 260.843 181.846 260.296 181.727C259.749 181.607 259.095 181.547 258.335 181.547ZM264.663 187.391H252.007V186.391H264.663V187.391ZM263.038 191.703H254.788V193.141H263.46V194.109H253.569V190.797H261.835V189.531H253.538V188.594H263.038V191.703ZM278.765 184.453H280.374V180.375H281.546V190.703H280.374V185.453H278.765V190.25H277.609V180.656H278.765V184.453ZM272.89 182.734H271.109V187.086C271.77 187.065 272.416 186.979 273.046 186.828L273.171 187.844C272.661 187.958 272.2 188.031 271.788 188.062C271.377 188.094 270.947 188.109 270.499 188.109H269.968V181.734H272.89V182.734ZM276.64 182.734H274.749V187.086C275.505 187.076 276.213 186.984 276.874 186.812L277.015 187.844C276.499 187.958 276.028 188.031 275.601 188.062C275.174 188.094 274.697 188.109 274.171 188.109H273.593V181.734H276.64V182.734ZM281.937 193.969H272.156V189.5H273.39V192.938H281.937V193.969ZM298.304 188.609H293.992V191.516H299.773V192.531H287.054V191.516H292.773V188.609H288.695V181.516H298.148V182.531H289.945V184.516H297.851V185.516H289.945V187.609H298.304V188.609ZM307.707 190.734H301.301V181.781H307.707V190.734ZM302.488 189.734H306.488V182.766H302.488V189.734ZM311.473 185.922H313.801V186.984H311.473V194.266H310.254V180.375H311.473V185.922ZM325.641 188.609H321.328V191.516H327.109V192.531H314.391V191.516H320.109V188.609H316.031V181.516H325.484V182.531H317.281V184.516H325.188V185.516H317.281V187.609H325.641V188.609ZM332.602 181.688H336.446C337.3 181.688 338.016 181.844 338.594 182.156C339.172 182.469 339.602 182.896 339.883 183.438C340.164 183.974 340.305 184.589 340.305 185.281C340.305 185.969 340.164 186.586 339.883 187.133C339.602 187.674 339.172 188.104 338.594 188.422C338.021 188.734 337.31 188.891 336.461 188.891H334.008V193H332.602V181.688ZM336.399 187.641C337.253 187.641 337.886 187.427 338.297 187C338.709 186.568 338.914 185.995 338.914 185.281C338.914 184.562 338.709 183.992 338.297 183.57C337.886 183.148 337.248 182.938 336.383 182.938H334.008V187.641H336.399ZM343.52 193H342.114V181.688H343.52V193ZM353.579 185.25C353.475 184.745 353.266 184.312 352.954 183.953C352.646 183.589 352.271 183.312 351.829 183.125C351.391 182.938 350.922 182.844 350.422 182.844C349.73 182.844 349.107 183.018 348.555 183.367C348.008 183.716 347.576 184.229 347.258 184.906C346.941 185.583 346.782 186.396 346.782 187.344C346.782 188.292 346.941 189.104 347.258 189.781C347.576 190.458 348.008 190.971 348.555 191.32C349.107 191.669 349.73 191.844 350.422 191.844C350.922 191.844 351.391 191.753 351.829 191.57C352.266 191.383 352.639 191.109 352.946 190.75C353.258 190.385 353.469 189.953 353.579 189.453H354.985C354.85 190.208 354.568 190.867 354.141 191.43C353.714 191.987 353.178 192.414 352.532 192.711C351.891 193.008 351.188 193.156 350.422 193.156C349.454 193.156 348.592 192.919 347.837 192.445C347.081 191.971 346.49 191.297 346.063 190.422C345.636 189.542 345.422 188.516 345.422 187.344C345.422 186.172 345.636 185.148 346.063 184.273C346.49 183.393 347.081 182.716 347.837 182.242C348.592 181.768 349.454 181.531 350.422 181.531C351.183 181.531 351.883 181.68 352.524 181.977C353.17 182.273 353.706 182.703 354.133 183.266C354.566 183.823 354.85 184.484 354.985 185.25H353.579ZM356.794 181.688H358.2V187.281H358.341L363.372 181.688H365.216L360.481 186.797L365.216 193H363.497L359.606 187.766L358.2 189.359V193H356.794V181.688ZM377.79 194.266H376.603V180.375H377.79V194.266ZM374.993 193.562H373.821V186.812H372.032C371.991 187.708 371.842 188.487 371.587 189.148C371.332 189.805 370.985 190.312 370.548 190.672C370.11 191.026 369.608 191.203 369.04 191.203C368.441 191.203 367.915 191.008 367.462 190.617C367.014 190.221 366.668 189.659 366.423 188.93C366.178 188.201 366.056 187.349 366.056 186.375C366.056 185.401 366.178 184.549 366.423 183.82C366.668 183.091 367.014 182.531 367.462 182.141C367.915 181.745 368.441 181.547 369.04 181.547C369.597 181.547 370.092 181.719 370.524 182.062C370.957 182.406 371.3 182.898 371.556 183.539C371.816 184.18 371.972 184.932 372.024 185.797H373.821V180.672H374.993V193.562ZM369.04 182.703C368.665 182.703 368.339 182.852 368.063 183.148C367.787 183.445 367.574 183.872 367.423 184.43C367.277 184.982 367.207 185.63 367.212 186.375C367.207 187.12 367.277 187.768 367.423 188.32C367.574 188.872 367.787 189.297 368.063 189.594C368.345 189.891 368.67 190.036 369.04 190.031C369.41 190.036 369.733 189.891 370.009 189.594C370.29 189.297 370.506 188.872 370.657 188.32C370.808 187.768 370.884 187.12 370.884 186.375C370.884 185.625 370.808 184.974 370.657 184.422C370.506 183.87 370.293 183.445 370.017 183.148C369.741 182.852 369.415 182.703 369.04 182.703ZM384.443 184.109C384.443 184.932 384.604 185.745 384.927 186.547C385.25 187.349 385.687 188.062 386.239 188.688C386.791 189.307 387.401 189.771 388.068 190.078L387.333 191.078C386.547 190.672 385.844 190.076 385.224 189.289C384.604 188.503 384.14 187.615 383.833 186.625C383.521 187.672 383.054 188.612 382.435 189.445C381.82 190.279 381.12 190.906 380.333 191.328L379.536 190.344C380.208 190.016 380.823 189.523 381.38 188.867C381.937 188.206 382.377 187.458 382.7 186.625C383.028 185.786 383.193 184.948 383.193 184.109V181.578H384.443V184.109ZM391.068 194.297H389.849V186.125H386.552V185.125H389.849V180.375H391.068V194.297ZM408.122 181.844C408.122 182.474 408.107 183.036 408.076 183.531C408.05 184.021 407.977 184.562 407.857 185.156L406.638 185.031C406.753 184.464 406.826 183.951 406.857 183.492C406.888 183.034 406.904 182.521 406.904 181.953H398.591V180.953H408.122V181.844ZM409.732 186.922H397.091V185.922H402.326V183.516H403.529V185.922H409.732V186.922ZM408.169 191.516H399.841V193.109H408.529V194.109H398.607V190.641H406.951V189.219H398.591V188.219H408.169V191.516ZM421.494 185.906H423.822V186.938H421.494V194.297H420.275V180.375H421.494V185.906ZM417.603 186.641H412.541V189.891C413.921 189.891 415.095 189.857 416.064 189.789C417.038 189.721 418.025 189.594 419.025 189.406L419.15 190.422C418.114 190.615 417.093 190.747 416.087 190.82C415.082 190.888 413.864 190.927 412.431 190.938H411.322V185.625H416.384V182.688H411.291V181.672H417.603V186.641ZM437.131 192.484H424.412V191.469H430.131V188.469H425.912V181.359H427.146V183.875H434.365V181.359H435.568V188.469H431.334V191.469H437.131V192.484ZM434.365 187.469V184.875H427.146V187.469H434.365ZM442.205 184.328C442.205 185.068 442.322 185.807 442.557 186.547C442.791 187.286 443.127 187.961 443.564 188.57C444.007 189.18 444.528 189.661 445.127 190.016L444.424 190.969C443.773 190.573 443.208 190.029 442.728 189.336C442.254 188.638 441.89 187.854 441.635 186.984C441.374 187.922 440.991 188.766 440.486 189.516C439.981 190.266 439.387 190.849 438.705 191.266L437.924 190.344C438.549 189.979 439.096 189.482 439.564 188.852C440.033 188.216 440.392 187.51 440.642 186.734C440.892 185.953 441.017 185.167 441.017 184.375V181.688H442.205V184.328ZM449.986 194.266H448.799V180.375H449.986V194.266ZM447.111 193.562H445.955V186.406H443.596V185.359H445.955V180.672H447.111V193.562ZM464.467 192.484H451.748V191.453H454.904V187.703C454.3 187.391 453.831 186.99 453.498 186.5C453.165 186.005 452.998 185.448 452.998 184.828C452.998 184.12 453.214 183.497 453.647 182.961C454.079 182.419 454.678 182 455.443 181.703C456.214 181.406 457.092 181.255 458.076 181.25C459.061 181.255 459.936 181.406 460.701 181.703C461.472 182 462.074 182.419 462.506 182.961C462.938 183.497 463.154 184.12 463.154 184.828C463.154 185.438 462.993 185.987 462.67 186.477C462.347 186.961 461.894 187.359 461.311 187.672V191.453H464.467V192.484ZM458.076 182.266C457.321 182.26 456.649 182.365 456.061 182.578C455.472 182.792 455.011 183.094 454.678 183.484C454.35 183.87 454.186 184.318 454.186 184.828C454.186 185.339 454.35 185.792 454.678 186.188C455.011 186.578 455.472 186.883 456.061 187.102C456.649 187.315 457.321 187.422 458.076 187.422C458.826 187.422 459.496 187.312 460.084 187.094C460.673 186.875 461.134 186.57 461.467 186.18C461.8 185.789 461.967 185.339 461.967 184.828C461.967 184.318 461.8 183.87 461.467 183.484C461.134 183.094 460.673 182.792 460.084 182.578C459.496 182.365 458.826 182.26 458.076 182.266ZM460.076 191.453V188.148C459.456 188.31 458.79 188.391 458.076 188.391C457.358 188.391 456.701 188.312 456.108 188.156V191.453H460.076Z" fill="#4E4E4E"/>
<path d="M760.805 273.543C823.106 273.543 873.611 225.74 873.611 166.771C873.611 107.803 823.106 60 760.805 60C698.505 60 648 107.803 648 166.771C648 225.74 698.505 273.543 760.805 273.543Z" fill="#E24444"/>
<path d="M768.105 99.4541L781.365 102.732C782.457 103.005 783.103 104.122 782.78 105.19L779.329 117.109C778.782 118.971 780.992 120.411 782.482 119.17L793.432 109.982C794.177 109.361 795.245 109.361 795.965 109.982L806.915 119.17C808.405 120.411 810.615 118.971 810.069 117.109L806.617 105.19C806.295 104.122 806.94 103.005 808.033 102.732L821.292 99.4541C823.279 98.9575 823.279 96.1268 821.292 95.6302L808.033 92.3525C806.94 92.0794 806.295 90.962 806.617 89.8943L810.069 77.9756C810.615 76.1133 808.405 74.6732 806.915 75.9147L795.965 85.102C795.22 85.7228 794.152 85.7228 793.432 85.102L782.482 75.9147C780.992 74.6732 778.782 76.1133 779.329 77.9756L782.78 89.8943C783.103 90.962 782.457 92.0794 781.365 92.3525L768.105 95.6302C766.119 96.1268 766.119 98.9575 768.105 99.4541Z" fill="#4A734E"/>
<path d="M854.704 158.394C855.122 168.097 855.418 174.65 853.744 182.236C851.922 190.629 850.395 195.569 845.914 200.004C841.261 204.617 833.727 206.582 828.139 203.281C824.741 201.264 822.525 197.686 820.654 194.157C817.577 188.36 814.992 181.959 815.509 175.381C815.952 169.76 818.611 164.594 821.196 159.603C824.15 153.958 827.474 147.959 833.211 145.389C839.686 142.49 845.914 145.893 846.308 146.094C846.604 146.246 853.35 149.9 854.532 156.705C854.655 157.436 854.679 158.016 854.704 158.394Z" fill="#F5F1DE"/>
<path d="M846.86 152.516C849.456 154.607 849.641 158.641 849.734 160.484C849.896 164.119 848.969 166.833 848.25 169.024C846.767 173.432 844.403 177.764 840.624 180.13C839.558 180.802 838.329 181.325 837.101 181.126C835.965 180.952 834.968 180.18 834.11 179.333C830.703 175.972 828.663 171.066 828.64 166.086C828.64 161.106 830.61 156.176 834.018 152.79C835.455 151.37 837.402 149.403 839.975 149.503C842.316 149.577 845.121 151.345 846.071 151.943C846.489 152.217 846.697 152.341 846.883 152.491L846.86 152.516Z" fill="#222222"/>
<path d="M807.2 158.394C807.618 168.097 807.913 174.65 806.239 182.236C804.417 190.629 802.891 195.569 798.41 200.004C793.757 204.617 786.223 206.582 780.634 203.281C777.237 201.264 775.021 197.686 773.15 194.157C770.072 188.36 767.487 181.959 768.004 175.381C768.447 169.76 771.106 164.594 773.691 159.603C776.646 153.958 779.97 147.959 785.706 145.389C792.181 142.49 798.41 145.893 798.804 146.094C799.1 146.246 805.845 149.9 807.027 156.705C807.15 157.436 807.175 158.016 807.2 158.394Z" fill="#F5F1DE"/>
<path d="M801.63 152.516C804.551 154.607 804.76 158.641 804.864 160.484C805.047 164.119 804.003 166.833 803.195 169.024C801.526 173.432 798.866 177.764 794.615 180.13C793.416 180.802 792.034 181.325 790.651 181.126C789.374 180.952 788.252 180.18 787.287 179.333C783.454 175.972 781.159 171.066 781.133 166.086C781.133 161.106 783.349 156.176 787.183 152.79C788.8 151.37 790.99 149.403 793.885 149.503C796.519 149.577 799.674 151.345 800.744 151.943C801.213 152.217 801.448 152.341 801.656 152.491L801.63 152.516Z" fill="#222222"/>
<g clip-path="url(#clip1_1_1307)">
<path d="M738.403 201.699C731.485 192.453 728.326 180.93 729.562 169.449C730.798 157.968 736.338 147.381 745.065 139.82C753.793 132.259 765.061 128.285 776.601 128.698C788.141 129.11 799.096 133.879 807.262 142.045C815.427 150.21 820.196 161.165 820.608 172.705C821.021 184.245 817.047 195.513 809.486 204.241C801.925 212.969 791.338 218.508 779.857 219.744C768.376 220.98 756.853 217.821 747.607 210.903L725.507 233.003L716.303 223.816L738.403 201.699ZM774.803 207.003C781.231 207.003 787.515 205.097 792.859 201.526C798.204 197.954 802.37 192.879 804.829 186.94C807.289 181.001 807.933 174.467 806.679 168.162C805.425 161.858 802.33 156.067 797.784 151.522C793.239 146.977 787.448 143.881 781.144 142.627C774.839 141.373 768.305 142.017 762.366 144.477C756.428 146.937 751.352 151.102 747.781 156.447C744.209 161.791 742.303 168.075 742.303 174.503C742.311 183.12 745.738 191.382 751.831 197.475C757.924 203.568 766.186 206.995 774.803 207.003Z" fill="#F2AD48"/>
</g>
</g>
<rect x="0.5" y="0.5" width="1049" height="230.874" rx="19.5" stroke="#EE8F8F"/>
<defs>
<filter id="filter0_d_1_1307" x="881.4" y="55.4" width="115.2" height="115.2" filterUnits="userSpaceOnUse" color-interpolation-filters="sRGB">
<feFlood flood-opacity="0" result="BackgroundImageFix"/>
<feColorMatrix in="SourceAlpha" type="matrix" values="0 0 0 0 0 0 0 0 0 0 0 0 0 0 0 0 0 0 127 0" result="hardAlpha"/>
<feOffset/>
<feGaussianBlur stdDeviation="6.3"/>
<feComposite in2="hardAlpha" operator="out"/>
<feColorMatrix type="matrix" values="0 0 0 0 0.94902 0 0 0 0 0.678431 0 0 0 0 0.282353 0 0 0 0.4 0"/>
<feBlend mode="normal" in2="BackgroundImageFix" result="effect1_dropShadow_1_1307"/>
<feBlend mode="normal" in="SourceGraphic" in2="effect1_dropShadow_1_1307" result="shape"/>
</filter>
<clipPath id="clip0_1_1307">
<rect width="1050" height="231.874" rx="20" fill="white"/>
</clipPath>
<clipPath id="clip1_1_1307">
<rect width="104" height="104" fill="white" transform="matrix(-1 0 0 1 820.305 129)"/>
</clipPath>
</defs>
</svg>
