<svg width="411" height="568" viewBox="0 0 411 568" fill="none" xmlns="http://www.w3.org/2000/svg">
<rect width="410" height="568" rx="6" fill="#F9DADA"/>
<path fill-rule="evenodd" clip-rule="evenodd" d="M411 451.484V548.001C411 559.046 402.046 568.001 391 568.001H20C8.95432 568.001 0 559.046 0 548.001V456.956C53.4916 423.028 127.822 402 210 402C287.665 402 358.32 420.782 411 451.484Z" fill="url(#paint0_linear_1_1136)"/>
<g opacity="0.8" filter="url(#filter0_f_1_1136)">
<ellipse cx="72" cy="484" rx="38" ry="6" fill="#EE8F8F"/>
</g>
<path d="M72 483.869C91.33 483.869 107 469.044 107 450.757C107 432.469 91.33 417.645 72 417.645C52.67 417.645 37 432.469 37 450.757C37 469.044 52.67 483.869 72 483.869Z" fill="#E24444"/>
<path d="M74.265 429.882L78.379 430.898C78.718 430.983 78.9183 431.329 78.8182 431.66L77.7473 435.357C77.5778 435.934 78.2634 436.381 78.7257 435.996L82.1232 433.147C82.3544 432.954 82.6857 432.954 82.9091 433.147L86.3066 435.996C86.7688 436.381 87.4545 435.934 87.285 435.357L86.2141 431.66C86.114 431.329 86.3143 430.983 86.6533 430.898L90.7673 429.882C91.3836 429.728 91.3836 428.85 90.7673 428.696L86.6533 427.679C86.3143 427.595 86.114 427.248 86.2141 426.917L87.285 423.221C87.4545 422.643 86.7688 422.196 86.3066 422.581L82.9091 425.431C82.678 425.623 82.3467 425.623 82.1232 425.431L78.7257 422.581C78.2634 422.196 77.5778 422.643 77.7473 423.221L78.8182 426.917C78.9183 427.248 78.718 427.595 78.379 427.679L74.265 428.696C73.6487 428.85 73.6487 429.728 74.265 429.882Z" fill="#4A734E"/>
<path d="M101.133 448.16C101.263 451.169 101.354 453.201 100.835 455.554C100.27 458.157 99.796 459.689 98.4057 461.064C96.962 462.495 94.6245 463.104 92.8904 462.08C91.8363 461.455 91.1488 460.345 90.5682 459.251C89.6134 457.453 88.8113 455.468 88.9717 453.428C89.1092 451.685 89.9342 450.083 90.7363 448.535C91.653 446.784 92.6842 444.924 94.4641 444.127C96.4731 443.228 98.4057 444.283 98.5279 444.345C98.6196 444.392 100.713 445.526 101.079 447.636C101.118 447.863 101.125 448.043 101.133 448.16Z" fill="#F5F1DE"/>
<path d="M98.699 446.34C99.5045 446.988 99.5621 448.239 99.5908 448.811C99.6412 449.938 99.3535 450.78 99.1305 451.46C98.6702 452.826 97.9366 454.17 96.7643 454.904C96.4335 455.112 96.0523 455.274 95.6711 455.213C95.3187 455.158 95.0094 454.919 94.7433 454.657C93.686 453.614 93.0531 452.093 93.0459 450.548C93.0459 449.004 93.6572 447.475 94.7145 446.425C95.1604 445.985 95.7646 445.375 96.5629 445.405C97.2893 445.429 98.1596 445.977 98.4545 446.162C98.5839 446.247 98.6486 446.286 98.7062 446.332L98.699 446.34Z" fill="#222222"/>
<path d="M86.3945 448.16C86.5244 451.169 86.616 453.201 86.0966 455.554C85.5313 458.157 85.0577 459.689 83.6674 461.064C82.2237 462.495 79.8862 463.104 78.1522 462.08C77.098 461.455 76.4105 460.345 75.8299 459.251C74.8751 457.453 74.073 455.468 74.2334 453.428C74.3709 451.685 75.1959 450.083 75.998 448.535C76.9147 446.784 77.9459 444.924 79.7258 444.127C81.7348 443.228 83.6675 444.283 83.7897 444.345C83.8814 444.392 85.9744 445.526 86.3411 447.636C86.3792 447.863 86.3869 448.043 86.3945 448.16Z" fill="#F5F1DE"/>
<path d="M84.6664 446.34C85.5726 446.988 85.6373 448.239 85.6697 448.811C85.7263 449.938 85.4027 450.78 85.1518 451.46C84.634 452.826 83.8087 454.17 82.4898 454.904C82.1176 455.112 81.6888 455.274 81.26 455.213C80.8635 455.158 80.5156 454.919 80.2162 454.657C79.0268 453.614 78.3147 452.093 78.3066 450.548C78.3066 449.004 78.9944 447.475 80.1838 446.425C80.6855 445.985 81.3651 445.375 82.2633 445.405C83.0805 445.429 84.0595 445.977 84.3913 446.162C84.5369 446.247 84.6097 446.286 84.6744 446.332L84.6664 446.34Z" fill="#222222"/>
<g opacity="0.8" filter="url(#filter1_f_1_1136)">
<ellipse cx="341" cy="487" rx="38" ry="6" fill="#EE8F8F"/>
</g>
<path d="M341 486.901C360.33 486.901 376 472.076 376 453.788C376 435.501 360.33 420.676 341 420.676C321.67 420.676 306 435.501 306 453.788C306 472.076 321.67 486.901 341 486.901Z" fill="#F2AD48"/>
<path d="M338.736 432.913L334.622 433.929C334.283 434.014 334.083 434.361 334.183 434.692L335.254 438.388C335.423 438.966 334.738 439.412 334.275 439.027L330.878 436.178C330.647 435.985 330.315 435.985 330.092 436.178L326.694 439.027C326.232 439.412 325.547 438.966 325.716 438.388L326.787 434.692C326.887 434.361 326.687 434.014 326.348 433.929L322.234 432.913C321.617 432.759 321.617 431.881 322.234 431.727L326.348 430.71C326.687 430.626 326.887 430.279 326.787 429.948L325.716 426.252C325.547 425.674 326.232 425.228 326.694 425.613L330.092 428.462C330.323 428.654 330.654 428.654 330.878 428.462L334.275 425.613C334.738 425.228 335.423 425.674 335.254 426.252L334.183 429.948C334.083 430.279 334.283 430.626 334.622 430.71L338.736 431.727C339.352 431.881 339.352 432.759 338.736 432.913Z" fill="#4A734E"/>
<path d="M317.915 451.287C317.777 454.165 317.679 456.109 318.233 458.36C318.836 460.849 319.341 462.315 320.824 463.631C322.364 464.999 324.858 465.582 326.707 464.602C327.832 464.004 328.565 462.943 329.184 461.896C330.203 460.176 331.058 458.277 330.887 456.326C330.741 454.659 329.861 453.126 329.005 451.646C328.027 449.971 326.927 448.192 325.029 447.429C322.886 446.569 320.824 447.579 320.694 447.639C320.596 447.683 318.363 448.768 317.972 450.786C317.932 451.003 317.923 451.175 317.915 451.287Z" fill="#F5F1DE"/>
<path d="M332.648 451.287C332.518 454.165 332.426 456.109 332.946 458.36C333.511 460.849 333.985 462.315 335.375 463.631C336.819 464.999 339.156 465.582 340.89 464.602C341.944 464.004 342.632 462.943 343.212 461.896C344.167 460.176 344.969 458.277 344.809 456.326C344.671 454.659 343.846 453.126 343.044 451.646C342.128 449.971 341.096 448.192 339.317 447.429C337.308 446.569 335.375 447.579 335.253 447.639C335.161 447.683 333.068 448.768 332.701 450.786C332.663 451.003 332.656 451.175 332.648 451.287Z" fill="#F5F1DE"/>
<path d="M334.375 452.93C333.469 453.578 333.404 454.829 333.372 455.401C333.315 456.528 333.639 457.37 333.89 458.049C334.407 459.416 335.233 460.76 336.552 461.493C336.924 461.702 337.353 461.864 337.781 461.802C338.178 461.748 338.526 461.509 338.825 461.246C340.015 460.204 340.727 458.683 340.735 457.138C340.735 455.594 340.047 454.065 338.858 453.015C338.356 452.574 337.676 451.964 336.778 451.995C335.961 452.018 334.982 452.567 334.65 452.752C334.505 452.837 334.432 452.876 334.367 452.922L334.375 452.93Z" fill="#222222"/>
<path d="M319.636 452.93C318.73 453.578 318.665 454.829 318.633 455.401C318.576 456.528 318.9 457.37 319.15 458.049C319.668 459.416 320.494 460.76 321.812 461.493C322.185 461.702 322.613 461.864 323.042 461.802C323.439 461.748 323.787 461.509 324.086 461.246C325.275 460.204 325.987 458.683 325.996 457.138C325.996 455.594 325.308 454.065 324.118 453.015C323.617 452.574 322.937 451.964 322.039 451.995C321.222 452.018 320.243 452.567 319.911 452.752C319.765 452.837 319.692 452.876 319.628 452.922L319.636 452.93Z" fill="#222222"/>
<g opacity="0.8" filter="url(#filter2_f_1_1136)">
<ellipse cx="206" cy="485" rx="76" ry="6" fill="#EE8F8F"/>
</g>
<path d="M206.545 460.904C249.382 460.904 284.108 427.947 284.108 387.294C284.108 346.64 249.382 313.684 206.545 313.684C163.708 313.684 128.982 346.64 128.982 387.294C128.982 427.947 163.708 460.904 206.545 460.904Z" fill="#629665"/>
<path d="M224.842 340.886L215.706 343.144C214.972 343.322 214.517 344.109 214.719 344.844L217.098 353.066C217.478 354.36 215.959 355.349 214.922 354.487L207.381 348.143C206.874 347.712 206.141 347.712 205.634 348.143L198.093 354.487C197.056 355.349 195.537 354.36 195.917 353.066L198.296 344.844C198.498 344.109 198.068 343.322 197.309 343.144L188.173 340.886C186.807 340.556 186.807 338.577 188.173 338.247L197.309 335.989C198.043 335.811 198.498 335.025 198.296 334.289L195.917 326.068C195.537 324.774 197.056 323.784 198.093 324.647L205.634 330.99C206.141 331.422 206.874 331.422 207.381 330.99L214.922 324.647C215.959 323.784 217.478 324.774 217.098 326.068L214.719 334.289C214.517 335.025 214.947 335.811 215.706 335.989L224.842 338.247C226.208 338.577 226.208 340.556 224.842 340.886Z" fill="#4A734E"/>
<path d="M181.315 371.742C178.177 374.279 177.291 377.756 176.254 382.145C175.241 386.408 174.457 389.808 175.241 394.274C175.722 396.913 176.355 400.491 179.113 403.383C183.795 408.281 193.133 409.854 198.244 405.413C201.129 402.901 202.724 399.146 203.28 395.365C203.837 391.584 203.432 387.728 202.901 383.922C201.964 377.375 200.547 372.376 196.195 369.991C191.083 367.175 184.68 369.839 184.25 370.042C183.592 370.321 182.504 370.803 181.34 371.742H181.315Z" fill="#F5F1DE"/>
<path d="M188.4 378.413C185.743 379.327 184.452 381.687 184.3 381.991C183.617 383.311 183.516 384.757 183.668 387.624C183.769 389.324 183.946 391.024 184.25 392.724C184.452 393.942 184.731 395.186 185.363 396.277C186.35 397.977 188.172 399.169 190.146 399.322C192.095 399.499 194.119 398.637 195.359 397.114C196.549 395.668 197.004 393.79 197.384 391.963C197.915 389.375 198.32 386.685 197.839 384.097C197.51 382.296 196.878 380.063 194.904 378.87C192.651 377.5 189.64 378.16 189.134 378.261C188.957 378.312 188.729 378.363 188.425 378.464L188.4 378.413Z" fill="#222222"/>
<path d="M231.774 371.742C234.912 374.279 235.797 377.756 236.835 382.145C237.847 386.408 238.632 389.808 237.847 394.274C237.366 396.913 236.734 400.491 233.975 403.383C229.294 408.281 219.956 409.854 214.844 405.413C211.959 402.901 210.365 399.146 209.808 395.365C209.251 391.584 209.656 387.728 210.188 383.922C211.124 377.375 212.541 372.376 216.894 369.991C222.006 367.175 228.408 369.839 228.838 370.042C229.496 370.321 230.584 370.803 231.748 371.742H231.774Z" fill="#F5F1DE"/>
<path d="M224.689 378.413C227.346 379.327 228.636 381.687 228.788 381.991C229.472 383.311 229.573 384.757 229.421 387.624C229.32 389.324 229.143 391.024 228.839 392.724C228.636 393.942 228.358 395.186 227.725 396.277C226.739 397.977 224.916 399.169 222.943 399.322C220.994 399.499 218.97 398.637 217.73 397.114C216.54 395.668 216.085 393.79 215.705 391.963C215.174 389.375 214.769 386.685 215.25 384.097C215.579 382.296 216.211 380.063 218.185 378.87C220.437 377.5 223.449 378.16 223.955 378.261C224.132 378.312 224.36 378.363 224.663 378.464L224.689 378.413Z" fill="#222222"/>
<path d="M126.932 393.03C125.642 394.019 106.612 408.964 110.382 421.093C111.293 424.062 114.052 428.376 117.367 428.477C120.783 428.579 123.238 424.214 125.743 420.713C129.387 415.663 135.536 409.269 146.393 403.661C146.393 403.61 146.114 402.748 145.203 402.519C144.368 402.291 143.736 402.799 143.66 402.849" fill="#4A734E"/>
<path d="M134.574 382.398C131.663 384.378 103.472 403.865 107.85 418.785C108.837 422.109 112.051 427.336 115.974 427.513C119.82 427.691 122.503 422.946 125.894 418.683C129.968 413.558 136.75 407.037 148.466 401.556" fill="#629665"/>
<path d="M177.367 439.82C175.191 447.712 172.989 455.603 170.813 463.52C170.256 463.52 163.398 463.469 159.956 468.797C159.425 469.609 157.729 472.223 158.311 475.192C159.703 482.474 172.938 484.58 177.367 485.29C182.352 486.102 185.389 486.584 188.071 484.808C191.791 482.372 192.348 477.374 192.93 471.563C194.195 459.028 195.081 449.538 195.688 442.84" fill="#629665"/>
<path d="M235.722 439.82C237.898 447.712 240.1 455.603 242.276 463.52C242.833 463.52 249.691 463.469 253.132 468.797C253.664 469.609 255.359 472.223 254.777 475.192C253.386 482.474 240.15 484.58 235.722 485.29C230.737 486.102 227.7 486.584 225.017 484.808C221.298 482.372 220.741 477.374 220.159 471.563C218.893 459.028 218.008 449.538 217.4 442.84" fill="#629665"/>
<path d="M122.893 292.931C122.323 292.676 121.847 292.231 121.625 291.659L119.754 287.366C119.405 286.698 118.39 286.698 118.073 287.366L116.202 291.659C115.948 292.231 115.504 292.645 114.933 292.931L112.523 293.98C111.826 294.33 111.826 295.284 112.523 295.634L114.933 296.683C115.504 296.937 115.98 297.383 116.202 297.955L118.073 302.248C118.422 302.915 119.437 302.915 119.754 302.248L121.625 297.955C121.879 297.383 122.323 296.969 122.893 296.683L125.304 295.634C126.001 295.284 126.001 294.33 125.304 293.98L122.893 292.931Z" fill="#00A6ED"/>
<path d="M100.768 337.778C99.0551 337.014 97.6915 335.584 96.9621 333.866L91.3171 320.447C90.2706 318.317 87.2578 318.317 86.2113 320.447L80.5663 333.866C79.8369 335.615 78.4733 337.014 76.7608 337.778L69.5936 341.021C67.4688 342.07 67.4688 345.155 69.5936 346.204L76.7608 349.448C78.4733 350.211 79.8369 351.642 80.5663 353.359L86.2113 366.778C87.2578 368.908 90.2706 368.908 91.3171 366.778L96.9621 353.359C97.6915 351.61 99.0551 350.211 100.768 349.448L107.935 346.204C110.06 345.155 110.06 342.07 107.935 341.021L100.768 337.778Z" fill="#00A6ED"/>
<path d="M59.6627 308.747C60.036 309.658 60.708 310.379 61.5667 310.797L65.188 312.506C66.2707 313.075 66.2707 314.67 65.188 315.201L61.5667 316.91C60.708 317.327 60.036 318.087 59.6627 318.96L56.788 326.021C56.2653 327.123 54.7347 327.123 54.212 326.021L51.3373 318.96C50.964 318.049 50.292 317.327 49.4333 316.91L45.812 315.201C44.7293 314.632 44.7293 313.037 45.812 312.506L49.4333 310.797C50.292 310.379 50.964 309.62 51.3373 308.747L54.212 301.685C54.7347 300.584 56.2653 300.584 56.788 301.685L59.6627 308.747Z" fill="#00A6ED"/>
<path d="M353.985 340.076C353.304 339.773 352.737 339.242 352.473 338.56L350.243 333.443C349.827 332.647 348.617 332.647 348.239 333.443L346.009 338.56C345.706 339.242 345.177 339.735 344.497 340.076L341.624 341.327C340.792 341.743 340.792 342.881 341.624 343.298L344.497 344.548C345.177 344.852 345.744 345.382 346.009 346.064L348.239 351.181C348.655 351.977 349.864 351.977 350.243 351.181L352.473 346.064C352.775 345.382 353.304 344.889 353.985 344.548L356.858 343.298C357.689 342.881 357.689 341.743 356.858 341.327L353.985 340.076Z" fill="#F2AD48"/>
<path d="M347.059 286.439C345.017 285.529 343.392 283.824 342.522 281.777L335.794 265.782C334.546 263.242 330.955 263.242 329.708 265.782L322.979 281.777C322.109 283.861 320.484 285.529 318.443 286.439L309.9 290.305C307.367 291.556 307.367 295.232 309.9 296.483L318.443 300.349C320.484 301.259 322.109 302.965 322.979 305.011L329.708 321.007C330.955 323.546 334.546 323.546 335.794 321.007L342.522 305.011C343.392 302.927 345.017 301.259 347.059 300.349L355.602 296.483C358.134 295.232 358.134 291.556 355.602 290.305L347.059 286.439Z" fill="#F2AD48"/>
<path d="M306.757 324.954C307.184 326.006 307.952 326.838 308.933 327.32L313.072 329.291C314.309 329.948 314.309 331.788 313.072 332.402L308.933 334.373C307.952 334.855 307.184 335.731 306.757 336.739L303.472 344.887C302.875 346.157 301.125 346.157 300.528 344.887L297.243 336.739C296.816 335.687 296.048 334.855 295.067 334.373L290.928 332.402C289.691 331.745 289.691 329.905 290.928 329.291L295.067 327.32C296.048 326.838 296.816 325.962 297.243 324.954L300.528 316.806C301.125 315.536 302.875 315.536 303.472 316.806L306.757 324.954Z" fill="#F2AD48"/>
<path d="M217.122 345.353H195.89C183.617 345.353 173.646 335.381 173.646 323.049V309.068H239.316V323.049C239.341 335.356 229.396 345.353 217.122 345.353Z" fill="#533566"/>
<path d="M210.189 288.057L249.464 308.229C251.893 309.472 251.893 312.974 249.464 314.217L210.189 334.389C207.886 335.582 205.203 335.582 202.901 334.389L163.626 314.217C161.196 312.974 161.196 309.472 163.626 308.229L202.901 288.057C205.178 286.864 207.886 286.864 210.189 288.057Z" fill="#321B41"/>
<path d="M203.862 309.775C204.469 308.455 206.038 307.948 207.328 308.582L228.788 319.62C229.648 320.077 230.154 320.939 230.154 321.904V342.051C232.103 343.015 233.444 344.994 233.444 347.303C233.444 347.81 233.368 348.293 233.242 348.775V348.851C233.216 348.978 233.166 349.13 233.115 349.257C233.115 349.282 233.09 349.333 233.09 349.358C233.065 349.485 232.989 349.612 232.938 349.739C232.938 349.764 232.913 349.815 232.913 349.815C232.761 350.17 232.533 350.525 232.305 350.805C232.28 350.881 232.23 350.906 232.179 350.957L233.672 358.011C234.507 361.893 231.572 365.547 227.599 365.547C223.625 365.547 220.69 361.893 221.525 358.011L223.018 350.957C222.208 349.967 221.728 348.724 221.728 347.328C221.728 346.516 221.879 345.755 222.183 345.095C222.183 345.07 222.208 345.019 222.259 344.994C222.284 344.892 222.36 344.766 222.411 344.664C222.487 344.537 222.537 344.41 222.639 344.283C222.664 344.258 222.664 344.207 222.714 344.182C223.297 343.294 224.132 342.558 225.093 342.076V323.477L205.102 313.2C203.862 312.566 203.279 311.018 203.887 309.775H203.862Z" fill="#FFB02E"/>
<path d="M286.157 393.03C287.447 394.019 306.477 408.964 302.707 421.093C301.796 424.062 299.037 428.376 295.722 428.477C292.306 428.579 289.851 424.214 287.346 420.713C283.702 415.663 277.553 409.269 266.696 403.661C266.696 403.61 266.975 402.748 267.886 402.519C268.721 402.291 269.353 402.799 269.429 402.849" fill="#4A734E"/>
<path d="M278.491 382.398C281.401 384.378 309.592 403.865 305.214 418.785C304.227 422.109 301.013 427.336 297.091 427.513C293.244 427.691 290.562 422.946 287.171 418.683C283.096 413.558 276.314 407.037 264.598 401.556" fill="#629665"/>
<path d="M58.316 101.58C57.956 101.58 57.74 101.508 57.596 101.4C57.452 101.256 57.38 101.04 57.38 100.68V86.316H54.068C53.96 88.512 53.708 90.456 53.276 92.148C52.844 93.876 52.196 95.316 51.368 96.468C50.504 97.62 49.46 98.52 48.2 99.168C46.904 99.744 45.392 100.068 43.592 100.068C41.648 100.068 39.992 99.708 38.66 98.988C37.292 98.268 36.212 97.224 35.42 95.856C34.556 94.488 33.98 92.832 33.62 90.816C33.224 88.872 33.044 86.604 33.044 84.084C33.044 81.564 33.224 79.332 33.62 77.316C33.98 75.372 34.556 73.68 35.42 72.312C36.212 70.944 37.292 69.9 38.66 69.18C39.992 68.46 41.648 68.1 43.592 68.1C45.248 68.1 46.724 68.388 47.984 68.892C49.208 69.468 50.216 70.26 51.08 71.268C51.908 72.348 52.556 73.608 53.06 75.12C53.492 76.668 53.816 78.396 53.996 80.34H57.38V69C57.38 68.64 57.452 68.424 57.596 68.28C57.74 68.172 57.956 68.1 58.316 68.1H63.356C63.68 68.1 63.932 68.172 64.076 68.28C64.22 68.424 64.292 68.64 64.292 69V100.68C64.292 101.04 64.22 101.256 64.076 101.4C63.932 101.508 63.68 101.58 63.356 101.58H58.316ZM47.408 84.084C47.408 81.888 47.264 80.124 47.048 78.792C46.76 77.496 46.436 76.452 46.076 75.732C45.68 75.048 45.284 74.58 44.852 74.364C44.384 74.148 43.952 74.04 43.592 74.04C43.196 74.04 42.8 74.148 42.368 74.364C41.9 74.58 41.468 75.048 41.108 75.732C40.712 76.452 40.388 77.496 40.172 78.792C39.884 80.124 39.776 81.888 39.776 84.084C39.776 86.316 39.884 88.08 40.172 89.376C40.388 90.708 40.712 91.716 41.108 92.4C41.468 93.12 41.9 93.588 42.368 93.804C42.8 94.02 43.196 94.128 43.592 94.128C43.952 94.128 44.384 94.02 44.852 93.804C45.284 93.588 45.68 93.12 46.076 92.4C46.436 91.716 46.76 90.708 47.048 89.376C47.264 88.08 47.408 86.316 47.408 84.084ZM88.664 73.536H86.072C86 74.112 85.964 74.652 85.964 75.228C85.928 75.84 85.928 76.344 85.928 76.776C85.928 77.496 86 77.964 86.216 78.18C86.396 78.396 86.828 78.504 87.548 78.504H88.664C89.132 78.504 89.492 78.504 89.78 78.468C90.104 78.432 90.356 78.468 90.5 78.54C90.608 78.684 90.68 78.9 90.716 79.26L90.932 83.112C90.932 83.472 90.896 83.724 90.752 83.796C90.572 83.94 90.32 84.012 89.996 84.012C89.132 84.084 88.448 84.084 87.872 84.084C87.26 84.12 86.612 84.12 85.928 84.12C84.488 84.12 83.3 83.976 82.364 83.652C81.428 83.364 80.708 82.824 80.24 81.96L80.312 83.112C80.312 83.472 80.276 83.724 80.132 83.796C79.952 83.94 79.7 84.012 79.376 84.012C78.512 84.084 77.828 84.084 77.324 84.084C76.784 84.12 76.172 84.12 75.488 84.12C74.336 84.12 73.328 84.048 72.536 83.832C71.672 83.652 70.988 83.292 70.484 82.788C69.908 82.284 69.548 81.6 69.332 80.736C69.08 79.872 68.972 78.792 69.044 77.424C69.08 76.056 69.152 74.652 69.26 73.176C69.332 71.736 69.404 70.332 69.548 69C69.584 68.64 69.656 68.424 69.8 68.28C69.908 68.172 70.124 68.1 70.484 68.1H78.08C78.404 68.1 78.656 68.172 78.8 68.28C78.944 68.424 79.016 68.64 79.016 69V72.636C79.016 72.996 78.944 73.248 78.8 73.356C78.656 73.5 78.404 73.536 78.08 73.536H75.632C75.56 74.04 75.524 74.58 75.524 75.156C75.488 75.768 75.488 76.308 75.488 76.776C75.488 77.496 75.56 77.964 75.776 78.18C75.956 78.396 76.388 78.504 77.108 78.504H78.152C78.548 78.504 78.872 78.504 79.16 78.468H79.448V77.964C79.448 77.82 79.448 77.64 79.484 77.424C79.52 76.056 79.592 74.652 79.7 73.176C79.772 71.736 79.844 70.332 79.988 69C80.024 68.64 80.096 68.424 80.24 68.28C80.348 68.172 80.564 68.1 80.924 68.1H89.24C89.564 68.1 89.816 68.172 89.96 68.28C90.104 68.424 90.176 68.64 90.176 69V71.376H93.02V69C93.02 68.64 93.092 68.424 93.236 68.28C93.38 68.172 93.596 68.1 93.956 68.1H98.996C99.32 68.1 99.572 68.172 99.716 68.28C99.86 68.424 99.932 68.64 99.932 69V83.76C99.932 84.12 99.86 84.372 99.716 84.48C99.572 84.624 99.32 84.66 98.996 84.66H93.956C93.596 84.66 93.38 84.624 93.236 84.48C93.092 84.372 93.02 84.12 93.02 83.76V77.352H89.6C89.24 77.352 89.024 77.316 88.88 77.172C88.736 77.064 88.664 76.812 88.664 76.452V73.536ZM86.324 102.66C82.652 102.66 80.024 102.192 78.404 101.328C76.748 100.428 75.92 99.276 75.92 97.836C75.92 96.396 76.748 95.244 78.404 94.344C80.06 93.48 82.688 93.048 86.324 93.048C89.924 93.048 92.588 93.48 94.244 94.344C95.9 95.244 96.728 96.396 96.728 97.836C96.728 99.276 95.9 100.428 94.28 101.328C92.624 102.192 89.96 102.66 86.324 102.66ZM73.76 87.936C73.76 87.576 73.832 87.36 73.976 87.216C74.12 87.108 74.336 87.036 74.696 87.036H82.976V86.028C82.976 85.668 83.048 85.452 83.192 85.308C83.336 85.2 83.552 85.128 83.912 85.128H88.952C89.276 85.128 89.528 85.2 89.672 85.308C89.816 85.452 89.888 85.668 89.888 86.028V87.036H97.952C98.276 87.036 98.528 87.108 98.672 87.216C98.816 87.36 98.888 87.576 98.888 87.936V91.14C98.888 91.5 98.816 91.752 98.672 91.86C98.528 92.004 98.276 92.04 97.952 92.04H74.696C74.336 92.04 74.12 92.004 73.976 91.86C73.832 91.752 73.76 91.5 73.76 91.14V87.936ZM86.324 98.556C87.584 98.556 88.448 98.484 88.952 98.412C89.42 98.268 89.672 98.088 89.672 97.836C89.672 97.548 89.42 97.368 88.952 97.26C88.448 97.116 87.584 97.08 86.324 97.08C85.028 97.08 84.164 97.116 83.696 97.26C83.192 97.368 82.976 97.548 82.976 97.836C82.976 98.088 83.192 98.268 83.696 98.412C84.164 98.484 85.028 98.556 86.324 98.556ZM104.684 69C104.684 68.64 104.756 68.424 104.9 68.28C105.044 68.172 105.26 68.1 105.62 68.1H114.8C115.7 68.1 116.492 68.208 117.14 68.424C117.788 68.64 118.328 69 118.76 69.468C119.156 69.972 119.444 70.62 119.66 71.376C119.804 72.168 119.876 73.14 119.876 74.256C119.84 75.156 119.804 76.092 119.768 77.1C119.696 78.144 119.624 79.224 119.516 80.34H122.072V69C122.072 68.64 122.144 68.424 122.288 68.28C122.432 68.172 122.648 68.1 123.008 68.1H127.508C127.832 68.1 128.084 68.172 128.228 68.28C128.372 68.424 128.444 68.64 128.444 69V100.68C128.444 101.04 128.372 101.256 128.228 101.4C128.084 101.508 127.832 101.58 127.508 101.58H123.008C122.648 101.58 122.432 101.508 122.288 101.4C122.144 101.256 122.072 101.04 122.072 100.68V86.316H118.904C118.616 88.584 118.256 90.852 117.896 93.156C117.5 95.46 117.068 97.656 116.636 99.78C116.564 100.14 116.456 100.392 116.384 100.572C116.24 100.716 116.024 100.752 115.7 100.68L111.056 99.708C110.696 99.636 110.444 99.528 110.264 99.42C110.048 99.276 110.048 98.952 110.192 98.376C110.624 96.54 111.056 94.632 111.452 92.58C111.812 90.564 112.136 88.584 112.424 86.604C112.676 84.66 112.892 82.752 113.072 80.952C113.216 79.188 113.288 77.64 113.288 76.272C113.288 75.372 113.144 74.796 112.892 74.508C112.604 74.256 112.172 74.112 111.56 74.112H105.62C105.26 74.112 105.044 74.076 104.9 73.932C104.756 73.824 104.684 73.572 104.684 73.212V69ZM130.784 101.58C130.424 101.58 130.208 101.508 130.064 101.4C129.92 101.256 129.848 101.04 129.848 100.68V69C129.848 68.64 129.92 68.424 130.064 68.28C130.208 68.172 130.424 68.1 130.784 68.1H135.284C135.608 68.1 135.86 68.172 136.004 68.28C136.148 68.424 136.22 68.64 136.22 69V100.68C136.22 101.04 136.148 101.256 136.004 101.4C135.86 101.508 135.608 101.58 135.284 101.58H130.784Z" fill="#E24444"/>
<path d="M169.782 89.772C169.782 90.996 169.602 92.256 169.242 93.48C168.846 94.74 168.27 95.856 167.478 96.828C166.686 97.8 165.642 98.592 164.418 99.24C163.122 99.852 161.61 100.176 159.882 100.176C158.01 100.176 156.498 99.852 155.274 99.24C154.014 98.592 153.006 97.8 152.286 96.828C151.494 95.82 150.954 94.704 150.666 93.444C150.342 92.22 150.198 90.96 150.198 89.7C150.198 88.476 150.342 87.252 150.702 85.992C150.99 84.768 151.53 83.616 152.322 82.608C153.042 81.636 154.05 80.844 155.31 80.196C156.534 79.584 158.046 79.26 159.882 79.26C161.61 79.26 163.122 79.584 164.418 80.196C165.642 80.844 166.686 81.636 167.478 82.608C168.27 83.616 168.846 84.768 169.242 85.992C169.602 87.288 169.782 88.548 169.782 89.772ZM174.138 101.58C173.778 101.58 173.562 101.508 173.418 101.4C173.274 101.256 173.202 101.04 173.202 100.68V69C173.202 68.64 173.274 68.424 173.418 68.28C173.562 68.172 173.778 68.1 174.138 68.1H179.178C179.502 68.1 179.754 68.172 179.898 68.28C180.042 68.424 180.114 68.64 180.114 69V80.34H183.426C183.75 80.34 184.002 80.412 184.146 80.52C184.29 80.664 184.362 80.88 184.362 81.24V85.416C184.362 85.776 184.29 86.028 184.146 86.136C184.002 86.28 183.75 86.316 183.426 86.316H180.114V100.68C180.114 101.04 180.042 101.256 179.898 101.4C179.754 101.508 179.502 101.58 179.178 101.58H174.138ZM149.406 72.492C149.406 72.132 149.478 71.916 149.622 71.772C149.766 71.664 149.982 71.592 150.342 71.592H156.534V68.136C156.534 67.776 156.606 67.56 156.75 67.416C156.894 67.308 157.11 67.236 157.47 67.236H162.51C162.834 67.236 163.086 67.308 163.23 67.416C163.374 67.56 163.446 67.776 163.446 68.136V71.592H169.566C169.89 71.592 170.142 71.664 170.286 71.772C170.43 71.916 170.502 72.132 170.502 72.492V76.344C170.502 76.704 170.43 76.956 170.286 77.064C170.142 77.208 169.89 77.244 169.566 77.244H150.342C149.982 77.244 149.766 77.208 149.622 77.064C149.478 76.956 149.406 76.704 149.406 76.344V72.492ZM163.338 89.7C163.338 88.764 163.23 87.972 163.014 87.324C162.762 86.748 162.474 86.244 162.15 85.884C161.79 85.524 161.394 85.272 161.034 85.128C160.602 85.02 160.242 84.948 159.918 84.948C159.63 84.948 159.27 85.02 158.91 85.128C158.514 85.272 158.154 85.524 157.83 85.848C157.47 86.208 157.182 86.676 156.966 87.288C156.714 87.936 156.606 88.728 156.606 89.664C156.606 90.672 156.714 91.464 156.966 92.04C157.182 92.688 157.47 93.156 157.83 93.48C158.154 93.84 158.514 94.092 158.91 94.2C159.27 94.344 159.63 94.416 159.918 94.416C160.242 94.416 160.602 94.344 161.034 94.2C161.394 94.092 161.79 93.84 162.15 93.48C162.474 93.156 162.762 92.688 163.014 92.04C163.23 91.464 163.338 90.672 163.338 89.7ZM210.606 91.86C210.246 91.86 210.03 91.824 209.886 91.68C209.742 91.572 209.67 91.32 209.67 90.96V83.832H205.71C205.638 85.164 205.278 86.1 204.666 86.676C204.018 87.252 203.082 87.54 201.858 87.54H189.942C188.646 87.54 187.674 87.216 187.026 86.532C186.378 85.884 186.054 84.768 186.054 83.256V69C186.054 68.64 186.126 68.424 186.27 68.28C186.414 68.172 186.63 68.1 186.99 68.1H204.81C205.134 68.1 205.386 68.172 205.53 68.28C205.674 68.424 205.746 68.64 205.746 69V70.656H209.67V69C209.67 68.64 209.742 68.424 209.886 68.28C210.03 68.172 210.246 68.1 210.606 68.1H215.646C215.97 68.1 216.222 68.172 216.366 68.28C216.51 68.424 216.582 68.64 216.582 69V90.96C216.582 91.32 216.51 91.572 216.366 91.68C216.222 91.824 215.97 91.86 215.646 91.86H210.606ZM216.978 100.32C217.014 100.68 216.942 100.896 216.798 101.004C216.618 101.076 216.366 101.148 216.042 101.22C214.386 101.364 212.622 101.544 210.822 101.688L205.35 102.012L199.914 102.228C198.114 102.264 196.458 102.3 194.946 102.3C192.642 102.3 190.986 101.688 190.014 100.464C189.006 99.204 188.502 97.224 188.502 94.524V90.564C188.502 90.204 188.574 89.988 188.718 89.844C188.862 89.736 189.078 89.664 189.438 89.664H194.478C194.802 89.664 195.054 89.736 195.198 89.844C195.342 89.988 195.414 90.204 195.414 90.564V93.84C195.414 94.704 195.594 95.352 195.954 95.748C196.314 96.144 196.962 96.324 197.934 96.324C199.23 96.288 200.598 96.252 202.11 96.216C203.586 96.144 205.098 96.036 206.646 95.964C208.158 95.892 209.706 95.784 211.254 95.64C212.766 95.532 214.242 95.388 215.682 95.244C216.006 95.208 216.222 95.244 216.366 95.388C216.474 95.532 216.546 95.784 216.618 96.144L216.978 100.32ZM198.114 81.888C198.51 81.888 198.798 81.816 198.942 81.636C199.086 81.492 199.158 81.204 199.158 80.736V73.572H192.642V80.736C192.642 81.204 192.714 81.492 192.858 81.636C193.002 81.816 193.254 81.888 193.686 81.888H198.114ZM205.746 78.324H209.67V76.164H205.746V78.324ZM261.556 100.788C261.592 101.076 261.52 101.256 261.376 101.328C261.196 101.4 260.944 101.436 260.62 101.508C258.964 101.652 257.308 101.796 255.724 101.904C254.068 101.976 252.412 102.084 250.684 102.156L245.284 102.264C243.376 102.264 241.324 102.3 239.164 102.3C236.932 102.3 235.276 101.832 234.268 100.932C233.224 99.996 232.72 98.484 232.72 96.432V92.22C232.72 91.896 232.792 91.68 232.936 91.536C233.08 91.428 233.296 91.356 233.656 91.356H254.896V89.988H233.656C233.296 89.988 233.08 89.952 232.936 89.808C232.792 89.7 232.72 89.484 232.72 89.124V86.352C232.72 85.992 232.792 85.776 232.936 85.632C233.08 85.524 233.296 85.452 233.656 85.452H260.188C260.512 85.452 260.764 85.524 260.908 85.632C261.052 85.776 261.124 85.992 261.124 86.352V94.956C261.124 95.316 261.052 95.568 260.908 95.676C260.764 95.82 260.512 95.856 260.188 95.856H238.948V96.252C238.948 96.792 239.092 97.116 239.38 97.26C239.668 97.368 240.1 97.44 240.712 97.44C242.728 97.44 244.6 97.404 246.4 97.404L251.44 97.296C253.024 97.224 254.536 97.188 256.012 97.116C257.452 97.044 258.856 96.936 260.296 96.828C260.872 96.792 261.196 97.008 261.232 97.512L261.556 100.788ZM230.308 69C230.308 68.64 230.38 68.424 230.524 68.28C230.668 68.172 230.884 68.1 231.244 68.1H250.072C250.396 68.1 250.648 68.172 250.792 68.28C250.936 68.424 251.008 68.64 251.008 69V73.212C251.008 73.572 250.936 73.824 250.792 73.932C250.648 74.076 250.396 74.112 250.072 74.112H244.384C244.672 74.976 245.284 75.732 246.148 76.38C247.012 77.028 248.308 77.532 250.072 77.856C250.144 77.892 250.288 77.928 250.432 77.928C250.54 77.964 250.648 78 250.792 78.072C250.9 78.18 251.008 78.288 251.116 78.432C251.188 78.612 251.224 78.828 251.224 79.116V83.076C251.224 83.508 251.116 83.76 250.9 83.832C250.648 83.94 250.432 83.976 250.288 83.94C249.424 83.868 248.596 83.76 247.732 83.544C246.832 83.4 245.968 83.148 245.14 82.788C244.276 82.5 243.484 82.068 242.728 81.564C241.936 81.06 241.252 80.484 240.676 79.764C240.028 80.484 239.344 81.06 238.624 81.564C237.832 82.068 237.04 82.5 236.212 82.788C235.348 83.148 234.52 83.4 233.656 83.544C232.756 83.76 231.892 83.868 231.064 83.94C230.884 83.976 230.704 83.94 230.488 83.832C230.236 83.76 230.128 83.508 230.128 83.076V79.116C230.128 78.828 230.164 78.612 230.272 78.432C230.344 78.288 230.416 78.18 230.56 78.072C230.668 78 230.812 77.964 230.956 77.928C231.064 77.928 231.172 77.892 231.28 77.856C233.008 77.532 234.304 77.028 235.168 76.38C236.032 75.732 236.608 74.976 236.932 74.112H231.244C230.884 74.112 230.668 74.076 230.524 73.932C230.38 73.824 230.308 73.572 230.308 73.212V69ZM255.148 83.94C254.788 83.94 254.572 83.904 254.428 83.76C254.284 83.652 254.212 83.4 254.212 83.04V69C254.212 68.64 254.284 68.424 254.428 68.28C254.572 68.172 254.788 68.1 255.148 68.1H260.188C260.512 68.1 260.764 68.172 260.908 68.28C261.052 68.424 261.124 68.64 261.124 69V72.816H264.436C264.76 72.816 265.012 72.888 265.156 72.996C265.3 73.14 265.372 73.356 265.372 73.716V77.892C265.372 78.252 265.3 78.504 265.156 78.612C265.012 78.756 264.76 78.792 264.436 78.792H261.124V83.04C261.124 83.4 261.052 83.652 260.908 83.76C260.764 83.904 260.512 83.94 260.188 83.94H255.148ZM297.196 100.788C297.232 101.076 297.16 101.256 297.016 101.328C296.836 101.4 296.584 101.436 296.26 101.508C294.604 101.652 292.948 101.796 291.364 101.904C289.708 101.976 288.052 102.084 286.324 102.156L280.924 102.264C279.016 102.264 276.964 102.3 274.804 102.3C273.688 102.3 272.716 102.192 271.924 102.048C271.096 101.832 270.412 101.544 269.908 101.112C269.368 100.68 268.972 100.104 268.756 99.42C268.468 98.7 268.36 97.836 268.36 96.828V93.66C268.36 93.336 268.432 93.12 268.576 92.976C268.72 92.868 268.936 92.796 269.296 92.796H290.536V91.608H269.296C268.936 91.608 268.72 91.572 268.576 91.428C268.432 91.32 268.36 91.104 268.36 90.744V88.512C268.36 88.152 268.432 87.936 268.576 87.792C268.72 87.684 268.936 87.612 269.296 87.612H295.828C296.152 87.612 296.404 87.684 296.548 87.792C296.692 87.936 296.764 88.152 296.764 88.512V95.82C296.764 96.18 296.692 96.396 296.548 96.54C296.404 96.648 296.152 96.72 295.828 96.72H274.588V96.972C274.588 97.512 274.732 97.836 275.02 97.98C275.308 98.088 275.74 98.16 276.352 98.16C278.368 98.16 280.24 98.124 282.04 98.124L287.08 98.016C288.664 97.944 290.176 97.908 291.652 97.836C293.092 97.764 294.532 97.656 295.972 97.548C296.548 97.512 296.872 97.728 296.908 98.232L297.196 100.788ZM276.64 86.28C274.66 86.28 273.04 86.172 271.78 85.884C270.484 85.668 269.512 85.308 268.792 84.84C268.036 84.408 267.532 83.832 267.28 83.184C266.992 82.536 266.848 81.816 266.848 81.024C266.848 80.232 266.992 79.476 267.28 78.828C267.568 78.18 268.072 77.64 268.828 77.172C269.548 76.74 270.556 76.38 271.852 76.128C273.076 75.912 274.696 75.768 276.64 75.768C278.584 75.768 280.168 75.912 281.464 76.128C282.688 76.38 283.696 76.74 284.452 77.172C285.172 77.64 285.712 78.18 286 78.828C286.288 79.476 286.432 80.232 286.432 81.024C286.432 81.816 286.288 82.536 286.036 83.184C285.748 83.832 285.244 84.408 284.524 84.84C283.768 85.308 282.76 85.668 281.5 85.884C280.204 86.172 278.584 86.28 276.64 86.28ZM290.788 86.316C290.428 86.316 290.212 86.28 290.068 86.136C289.924 86.028 289.852 85.776 289.852 85.416V69C289.852 68.64 289.924 68.424 290.068 68.28C290.212 68.172 290.428 68.1 290.788 68.1H295.828C296.152 68.1 296.404 68.172 296.548 68.28C296.692 68.424 296.764 68.64 296.764 69V74.256H300.076C300.4 74.256 300.652 74.328 300.796 74.436C300.94 74.58 301.012 74.796 301.012 75.156V79.332C301.012 79.692 300.94 79.944 300.796 80.052C300.652 80.196 300.4 80.232 300.076 80.232H296.764V85.416C296.764 85.776 296.692 86.028 296.548 86.136C296.404 86.28 296.152 86.316 295.828 86.316H290.788ZM266.056 70.332C266.056 69.972 266.128 69.756 266.272 69.612C266.416 69.504 266.632 69.432 266.992 69.432H273.184V68.136C273.184 67.776 273.256 67.56 273.4 67.416C273.544 67.308 273.76 67.236 274.12 67.236H279.16C279.484 67.236 279.736 67.308 279.88 67.416C280.024 67.56 280.096 67.776 280.096 68.136V69.432H286.216C286.54 69.432 286.792 69.504 286.936 69.612C287.08 69.756 287.152 69.972 287.152 70.332V73.824C287.152 74.184 287.08 74.436 286.936 74.544C286.792 74.688 286.54 74.724 286.216 74.724H266.992C266.632 74.724 266.416 74.688 266.272 74.544C266.128 74.436 266.056 74.184 266.056 73.824V70.332ZM276.64 82.068C277.576 82.068 278.296 81.996 278.836 81.816C279.34 81.672 279.592 81.42 279.592 80.988C279.592 80.592 279.34 80.304 278.908 80.124C278.44 79.98 277.684 79.908 276.64 79.908C275.56 79.908 274.804 79.98 274.372 80.124C273.904 80.304 273.688 80.592 273.688 80.988C273.688 81.42 273.94 81.672 274.48 81.816C274.984 81.996 275.704 82.068 276.64 82.068ZM336.652 85.416C336.652 85.776 336.58 86.028 336.436 86.136C336.292 86.28 336.04 86.316 335.716 86.316H332.764V100.68C332.764 101.04 332.692 101.256 332.548 101.4C332.404 101.508 332.152 101.58 331.828 101.58H326.788C326.428 101.58 326.212 101.508 326.068 101.4C325.924 101.256 325.852 101.04 325.852 100.68V69C325.852 68.64 325.924 68.424 326.068 68.28C326.212 68.172 326.428 68.1 326.788 68.1H331.828C332.152 68.1 332.404 68.172 332.548 68.28C332.692 68.424 332.764 68.64 332.764 69V80.34H335.716C336.04 80.34 336.292 80.412 336.436 80.52C336.58 80.664 336.652 80.88 336.652 81.24V85.416ZM312.784 69C312.784 68.64 312.856 68.424 313 68.28C313.144 68.172 313.36 68.1 313.72 68.1H318.544C319.444 68.1 320.236 68.208 320.884 68.424C321.532 68.64 322.072 69 322.504 69.468C322.9 69.972 323.188 70.62 323.404 71.376C323.548 72.168 323.62 73.14 323.62 74.256C323.584 75.912 323.512 77.748 323.404 79.8C323.26 81.888 323.116 84.048 322.9 86.28C322.648 88.548 322.36 90.816 322.036 93.12C321.676 95.46 321.244 97.656 320.74 99.78C320.632 100.14 320.524 100.356 320.452 100.5C320.344 100.608 320.128 100.68 319.804 100.68L315.052 99.636C314.872 99.6 314.728 99.564 314.62 99.564C314.476 99.492 314.332 99.42 314.26 99.348C314.152 99.24 314.116 99.132 314.116 98.988C314.08 98.808 314.116 98.592 314.188 98.304C314.692 96.468 315.124 94.56 315.484 92.508C315.808 90.492 316.096 88.512 316.312 86.532C316.528 84.588 316.672 82.716 316.78 80.916C316.852 79.152 316.924 77.604 316.924 76.236C316.924 75.336 316.78 74.76 316.528 74.472C316.24 74.22 315.808 74.076 315.196 74.076H313.72C313.36 74.076 313.144 74.04 313 73.896C312.856 73.788 312.784 73.536 312.784 73.176V69ZM301.12 69C301.12 68.64 301.192 68.424 301.336 68.28C301.48 68.172 301.696 68.1 302.056 68.1H306.88C307.78 68.1 308.572 68.208 309.22 68.424C309.868 68.64 310.372 69 310.804 69.468C311.2 69.972 311.488 70.62 311.704 71.376C311.848 72.168 311.956 73.14 311.956 74.256C311.956 76.056 311.884 77.964 311.812 79.98C311.668 81.996 311.488 84.084 311.272 86.172C311.02 88.332 310.732 90.456 310.372 92.616C310.012 94.812 309.58 96.936 309.076 99.06C308.968 99.42 308.86 99.636 308.788 99.78C308.68 99.888 308.464 99.96 308.14 99.96L303.388 98.916C303.208 98.88 303.064 98.844 302.956 98.844C302.812 98.772 302.668 98.7 302.596 98.628C302.488 98.52 302.452 98.412 302.452 98.268C302.416 98.088 302.452 97.872 302.524 97.584C303.028 95.784 303.46 93.876 303.82 91.896C304.144 89.952 304.432 88.044 304.648 86.172C304.864 84.3 305.008 82.536 305.116 80.808C305.188 79.116 305.26 77.604 305.26 76.236C305.26 75.336 305.08 74.76 304.792 74.472C304.468 74.22 304 74.076 303.388 74.076H302.056C301.696 74.076 301.48 74.04 301.336 73.896C301.192 73.788 301.12 73.536 301.12 73.176V69ZM343.06 102.3C342.7 102.3 342.484 102.228 342.34 102.12C342.196 101.976 342.124 101.76 342.124 101.4V96.864C342.124 96.504 342.196 96.252 342.34 96.144C342.484 96 342.7 95.964 343.06 95.964H347.92C348.244 95.964 348.496 96 348.64 96.144C348.784 96.252 348.856 96.504 348.856 96.864V101.4C348.856 101.76 348.784 101.976 348.64 102.12C348.496 102.228 348.244 102.3 347.92 102.3H343.06ZM342.124 89.664C342.124 88.62 342.304 87.72 342.736 86.928C343.096 86.208 343.6 85.524 344.212 84.948C344.788 84.408 345.472 83.904 346.192 83.4C346.876 82.968 347.524 82.464 348.136 81.96C348.712 81.456 349.216 80.916 349.648 80.304C350.008 79.728 350.224 78.972 350.224 78.108C350.224 77.532 350.188 77.028 350.116 76.596C350.044 76.164 349.864 75.804 349.648 75.48C349.36 75.192 348.964 74.976 348.46 74.832C347.92 74.688 347.2 74.616 346.336 74.616C345.94 74.616 345.508 74.652 345.04 74.652C344.536 74.724 344.032 74.76 343.528 74.796C343.024 74.868 342.52 74.94 342.052 75.012C341.548 75.084 341.116 75.156 340.756 75.228C340.324 75.3 340 75.3 339.712 75.192C339.424 75.12 339.244 74.796 339.172 74.148L338.74 70.512C338.668 70.224 338.704 70.008 338.776 69.792C338.848 69.612 338.92 69.468 339.064 69.324C339.172 69.252 339.316 69.18 339.46 69.108C339.604 69.072 339.712 69.036 339.82 69C341.116 68.712 342.448 68.496 343.816 68.28C345.184 68.136 346.516 68.064 347.812 68.1C349.072 68.172 350.26 68.352 351.412 68.64C352.528 69 353.536 69.504 354.4 70.224C355.228 70.944 355.912 71.88 356.416 72.996C356.884 74.148 357.136 75.588 357.136 77.244C357.136 78.684 356.92 79.872 356.524 80.88C356.092 81.924 355.588 82.824 355.012 83.544C354.364 84.336 353.716 84.984 352.996 85.488L351.016 87C350.368 87.468 349.864 87.9 349.468 88.332C349.036 88.764 348.856 89.268 348.856 89.808V92.724C348.856 93.084 348.784 93.336 348.64 93.444C348.496 93.588 348.244 93.624 347.92 93.624H343.06C342.7 93.624 342.484 93.588 342.34 93.444C342.196 93.336 342.124 93.084 342.124 92.724V89.664Z" fill="#222222"/>
<path d="M50.1094 143.406H53.2266V144.977H50.1094V150.367H48.2578V138.062H50.1094V143.406ZM50.1094 155.5H38.4141V157.352H50.9062V158.664H36.5859V154.258H48.2812V152.617H36.5391V151.305H50.1094V155.5ZM33.75 148.492C36.1562 148.492 38.0391 148.473 39.3984 148.434V147.145C38.1641 147.051 37.1914 146.766 36.4805 146.289C35.7695 145.812 35.4141 145.18 35.4141 144.391C35.4141 143.828 35.6133 143.344 36.0117 142.938C36.4102 142.531 36.9766 142.223 37.7109 142.012C38.4453 141.801 39.3047 141.695 40.2891 141.695C41.2812 141.695 42.1445 141.801 42.8789 142.012C43.6133 142.223 44.1797 142.531 44.5781 142.938C44.9766 143.344 45.1797 143.828 45.1875 144.391C45.1797 145.172 44.8242 145.801 44.1211 146.277C43.4258 146.754 42.4609 147.043 41.2266 147.145V148.375C43.4531 148.266 45.3672 148.094 46.9688 147.859L47.1328 149.102C45.1406 149.422 43.0703 149.633 40.9219 149.734C38.7734 149.828 36.4531 149.875 33.9609 149.875L33.75 148.492ZM46.3359 140.992H34.2656V139.656H39.3984V137.875H41.2266V139.656H46.3359V140.992ZM40.2891 142.914C39.3203 142.93 38.5586 143.066 38.0039 143.324C37.4492 143.582 37.1719 143.938 37.1719 144.391C37.1719 144.859 37.4531 145.234 38.0156 145.516C38.5781 145.797 39.3359 145.938 40.2891 145.938C41.25 145.938 42.0117 145.797 42.5742 145.516C43.1445 145.234 43.4297 144.859 43.4297 144.391C43.4297 143.938 43.1484 143.582 42.5859 143.324C42.0234 143.066 41.2578 142.93 40.2891 142.914ZM73.3538 149.852H54.3459V148.375H62.9475V145.938H56.76V139.047H70.9866V140.523H58.5647V144.438H71.1272V145.938H64.7288V148.375H73.3538V149.852ZM63.8381 151.375C65.3225 151.375 66.5998 151.523 67.6702 151.82C68.7483 152.109 69.5725 152.535 70.1428 153.098C70.7131 153.66 71.0022 154.336 71.01 155.125C71.0022 155.922 70.7131 156.602 70.1428 157.164C69.5725 157.727 68.7522 158.152 67.6819 158.441C66.6116 158.738 65.3303 158.891 63.8381 158.898C62.3381 158.891 61.0491 158.738 59.9709 158.441C58.8928 158.152 58.0686 157.727 57.4983 157.164C56.928 156.602 56.6428 155.922 56.6428 155.125C56.6428 154.336 56.928 153.66 57.4983 153.098C58.0686 152.535 58.8928 152.109 59.9709 151.82C61.0491 151.523 62.3381 151.375 63.8381 151.375ZM63.8381 152.828C62.7288 152.828 61.7717 152.922 60.967 153.109C60.1702 153.289 59.5608 153.551 59.1389 153.895C58.717 154.238 58.51 154.648 58.5178 155.125C58.51 155.609 58.717 156.023 59.1389 156.367C59.5608 156.711 60.1702 156.973 60.967 157.152C61.7717 157.332 62.7288 157.422 63.8381 157.422C64.9397 157.422 65.8889 157.332 66.6858 157.152C67.4827 156.973 68.092 156.711 68.5139 156.367C68.9436 156.016 69.1584 155.602 69.1584 155.125C69.1584 154.648 68.9436 154.238 68.5139 153.895C68.092 153.551 67.4788 153.289 66.6741 153.109C65.8772 152.922 64.9319 152.828 63.8381 152.828ZM84.3403 138.438C85.8872 138.438 87.2114 138.578 88.313 138.859C89.4145 139.133 90.2544 139.539 90.8325 140.078C91.4106 140.609 91.6997 141.258 91.6997 142.023C91.6997 143.195 91.0591 144.094 89.7778 144.719C88.4966 145.344 86.6841 145.664 84.3403 145.68C82.7934 145.672 81.4653 145.527 80.3559 145.246C79.2544 144.965 78.4106 144.555 77.8247 144.016C77.2466 143.469 76.9575 142.805 76.9575 142.023C76.9575 141.258 77.2466 140.609 77.8247 140.078C78.4106 139.539 79.2544 139.133 80.3559 138.859C81.4653 138.578 82.7934 138.438 84.3403 138.438ZM84.3403 139.82C83.1919 139.82 82.2075 139.91 81.3872 140.09C80.5669 140.262 79.9419 140.516 79.5122 140.852C79.0825 141.18 78.8716 141.57 78.8794 142.023C78.8716 142.742 79.3442 143.297 80.2973 143.688C81.2505 144.078 82.5981 144.273 84.3403 144.273C86.0747 144.273 87.4223 144.078 88.3833 143.688C89.3442 143.297 89.8247 142.742 89.8247 142.023C89.8247 141.57 89.6059 141.18 89.1684 140.852C88.7309 140.523 88.102 140.27 87.2817 140.09C86.4614 139.91 85.4809 139.82 84.3403 139.82ZM93.8325 148.586H74.8481V147.086H93.8325V148.586ZM91.395 155.055H79.02V157.211H92.0278V158.664H77.1919V153.695H89.5903V151.797H77.145V150.391H91.395V155.055ZM108.235 142.422C108.235 143.242 108.45 144.031 108.88 144.789C109.317 145.547 109.927 146.215 110.708 146.793C111.497 147.371 112.399 147.812 113.415 148.117L112.548 149.523C111.353 149.164 110.302 148.617 109.395 147.883C108.497 147.141 107.817 146.27 107.356 145.27C106.911 146.363 106.224 147.316 105.294 148.129C104.372 148.934 103.29 149.539 102.048 149.945L101.134 148.492C102.165 148.18 103.079 147.723 103.876 147.121C104.681 146.512 105.306 145.801 105.751 144.988C106.204 144.176 106.431 143.32 106.431 142.422V142.023H101.72V140.5H106.431V137.969H108.282V140.5H112.946V142.023H108.235V142.422ZM117.423 143.219H120.563V144.766H117.423V150.18H115.595V138.062H117.423V143.219ZM117.798 152.805H111.892C111.993 153.508 112.36 154.18 112.993 154.82C113.634 155.453 114.446 155.996 115.431 156.449C116.423 156.902 117.478 157.219 118.595 157.398L117.915 158.828C116.353 158.57 114.938 158.078 113.673 157.352C112.407 156.625 111.481 155.75 110.895 154.727C110.317 155.742 109.403 156.605 108.153 157.316C106.903 158.035 105.501 158.531 103.946 158.805L103.243 157.398C104.368 157.219 105.423 156.906 106.407 156.461C107.399 156.008 108.212 155.465 108.845 154.832C109.478 154.199 109.845 153.523 109.946 152.805H104.063V151.305H117.798V152.805ZM127.214 139.68C128.238 139.688 129.144 139.992 129.933 140.594C130.73 141.188 131.351 142.031 131.796 143.125C132.249 144.219 132.48 145.492 132.488 146.945C132.48 148.398 132.249 149.672 131.796 150.766C131.351 151.859 130.73 152.703 129.933 153.297C129.136 153.891 128.23 154.188 127.214 154.188C126.191 154.188 125.28 153.891 124.484 153.297C123.687 152.703 123.066 151.859 122.62 150.766C122.183 149.672 121.964 148.398 121.964 146.945C121.964 145.492 122.183 144.219 122.62 143.125C123.066 142.031 123.687 141.188 124.484 140.594C125.28 139.992 126.191 139.688 127.214 139.68ZM127.214 141.32C126.527 141.328 125.917 141.566 125.386 142.035C124.855 142.496 124.441 143.152 124.144 144.004C123.847 144.848 123.698 145.828 123.698 146.945C123.698 148.062 123.847 149.047 124.144 149.898C124.441 150.742 124.855 151.395 125.386 151.855C125.925 152.316 126.534 152.547 127.214 152.547C127.902 152.547 128.507 152.316 129.03 151.855C129.562 151.395 129.972 150.742 130.261 149.898C130.558 149.047 130.706 148.062 130.706 146.945C130.706 145.828 130.558 144.848 130.261 144.004C129.972 143.152 129.562 142.496 129.03 142.035C128.507 141.566 127.902 141.328 127.214 141.32ZM137.761 146.383H141.253V147.977H137.761V158.898H135.933V138.062H137.761V146.383ZM155.328 143.664C155.32 144.898 155.57 146.125 156.078 147.344C156.586 148.555 157.273 149.633 158.14 150.578C159.007 151.523 159.953 152.227 160.976 152.688L159.851 154.141C158.664 153.555 157.586 152.684 156.617 151.527C155.656 150.363 154.929 149.043 154.437 147.566C153.953 149.137 153.226 150.543 152.257 151.785C151.289 153.02 150.195 153.945 148.976 154.562L147.804 153.016C148.828 152.539 149.773 151.816 150.64 150.848C151.507 149.871 152.199 148.754 152.715 147.496C153.23 146.23 153.492 144.953 153.5 143.664V139.867H155.328V143.664ZM165.101 158.945H163.25V138.062H165.101V158.945ZM175.478 141.93C175.478 142.844 175.689 143.723 176.111 144.566C176.541 145.402 177.143 146.145 177.916 146.793C178.689 147.441 179.588 147.945 180.611 148.305L179.674 149.734C178.494 149.312 177.463 148.695 176.58 147.883C175.697 147.062 175.033 146.113 174.588 145.035C174.143 146.207 173.463 147.238 172.549 148.129C171.635 149.012 170.564 149.68 169.338 150.133L168.353 148.703C169.385 148.336 170.303 147.809 171.107 147.121C171.912 146.434 172.537 145.641 172.982 144.742C173.435 143.844 173.666 142.906 173.674 141.93V141.039H168.916V139.539H180.166V141.039H175.478V141.93ZM184.713 143.57H187.853V145.141H184.713V150.625H182.885V138.062H184.713V143.57ZM184.713 158.898H182.885V153.227H171.072V151.727H184.713V158.898ZM199.332 143.172H188.879V141.672H193.215V138.695H195.043V141.672H199.332V143.172ZM194.106 144.578C194.973 144.578 195.746 144.781 196.426 145.188C197.113 145.586 197.649 146.145 198.031 146.863C198.422 147.582 198.621 148.398 198.629 149.312C198.621 150.234 198.422 151.059 198.031 151.785C197.649 152.504 197.113 153.07 196.426 153.484C195.746 153.891 194.973 154.094 194.106 154.094C193.246 154.094 192.477 153.891 191.797 153.484C191.117 153.07 190.586 152.5 190.203 151.773C189.82 151.047 189.629 150.227 189.629 149.312C189.629 148.406 189.82 147.594 190.203 146.875C190.586 146.148 191.117 145.586 191.797 145.188C192.477 144.781 193.246 144.578 194.106 144.578ZM194.106 146.125C193.567 146.133 193.078 146.277 192.641 146.559C192.211 146.832 191.875 147.211 191.633 147.695C191.391 148.172 191.27 148.711 191.27 149.312C191.27 149.922 191.391 150.469 191.633 150.953C191.883 151.438 192.223 151.816 192.652 152.09C193.082 152.355 193.567 152.484 194.106 152.477C194.652 152.484 195.145 152.355 195.582 152.09C196.02 151.816 196.363 151.438 196.613 150.953C196.863 150.469 196.988 149.922 196.988 149.312C196.988 148.711 196.863 148.172 196.613 147.695C196.363 147.211 196.02 146.832 195.582 146.559C195.145 146.277 194.652 146.133 194.106 146.125ZM206.668 158.898H204.91V148.375H202.145V157.867H200.41V138.578H202.145V146.852H204.91V138.062H206.668V158.898ZM226.256 149.336H219.811V154.727H228.506V156.273H209.428V154.727H218.006V149.336H211.866V139.773H226.045V141.273H213.717V147.836H226.256V149.336ZM252.987 158.945H251.136V147.977H246.565V146.453H251.136V138.062H252.987V158.945ZM242.909 144.859C242.909 145.984 243.143 147.094 243.612 148.188C244.089 149.273 244.741 150.242 245.569 151.094C246.397 151.945 247.323 152.602 248.347 153.062L247.292 154.492C246.104 153.945 245.046 153.133 244.116 152.055C243.186 150.977 242.491 149.754 242.03 148.387C241.577 149.84 240.89 151.141 239.968 152.289C239.046 153.438 237.995 154.297 236.815 154.867L235.761 153.438C236.768 152.961 237.679 152.277 238.491 151.387C239.304 150.488 239.94 149.469 240.401 148.328C240.87 147.188 241.104 146.031 241.104 144.859V143.195H236.323V141.695H241.104V138.461H242.932V141.695H247.643V143.195H242.909V144.859ZM265.708 138.531C267.216 138.531 268.521 138.688 269.622 139C270.732 139.312 271.583 139.766 272.177 140.359C272.771 140.953 273.068 141.664 273.068 142.492C273.068 143.305 272.771 144.004 272.177 144.59C271.583 145.168 270.732 145.613 269.622 145.926C268.521 146.23 267.216 146.383 265.708 146.383C264.2 146.383 262.892 146.23 261.782 145.926C260.673 145.613 259.818 145.168 259.216 144.59C258.622 144.004 258.325 143.305 258.325 142.492C258.325 141.664 258.622 140.953 259.216 140.359C259.818 139.766 260.673 139.312 261.782 139C262.892 138.688 264.2 138.531 265.708 138.531ZM265.708 140.008C264.591 140.008 263.618 140.109 262.79 140.312C261.962 140.508 261.325 140.793 260.88 141.168C260.435 141.543 260.216 141.984 260.224 142.492C260.216 142.992 260.431 143.426 260.868 143.793C261.314 144.152 261.95 144.43 262.778 144.625C263.607 144.82 264.583 144.922 265.708 144.93C266.818 144.922 267.782 144.82 268.603 144.625C269.431 144.43 270.068 144.152 270.513 143.793C270.966 143.426 271.193 142.992 271.193 142.492C271.193 141.984 270.966 141.543 270.513 141.168C270.068 140.793 269.431 140.508 268.603 140.312C267.775 140.109 266.81 140.008 265.708 140.008ZM272.88 158.617H258.536V151.773H272.88V158.617ZM260.364 157.117H271.075V153.25H260.364V157.117ZM275.2 149.711H256.216V148.188H275.2V149.711ZM292.908 143.172H282.455V141.672H286.791V138.695H288.619V141.672H292.908V143.172ZM287.681 144.578C288.548 144.578 289.322 144.781 290.002 145.188C290.689 145.586 291.224 146.145 291.607 146.863C291.998 147.582 292.197 148.398 292.205 149.312C292.197 150.234 291.998 151.059 291.607 151.785C291.224 152.504 290.689 153.07 290.002 153.484C289.322 153.891 288.548 154.094 287.681 154.094C286.822 154.094 286.052 153.891 285.373 153.484C284.693 153.07 284.162 152.5 283.779 151.773C283.396 151.047 283.205 150.227 283.205 149.312C283.205 148.406 283.396 147.594 283.779 146.875C284.162 146.148 284.693 145.586 285.373 145.188C286.052 144.781 286.822 144.578 287.681 144.578ZM287.681 146.125C287.142 146.133 286.654 146.277 286.216 146.559C285.787 146.832 285.451 147.211 285.209 147.695C284.966 148.172 284.845 148.711 284.845 149.312C284.845 149.922 284.966 150.469 285.209 150.953C285.459 151.438 285.798 151.816 286.228 152.09C286.658 152.355 287.142 152.484 287.681 152.477C288.228 152.484 288.72 152.355 289.158 152.09C289.595 151.816 289.939 151.438 290.189 150.953C290.439 150.469 290.564 149.922 290.564 149.312C290.564 148.711 290.439 148.172 290.189 147.695C289.939 147.211 289.595 146.832 289.158 146.559C288.72 146.277 288.228 146.133 287.681 146.125ZM300.244 158.898H298.486V148.375H295.72V157.867H293.986V138.578H295.72V146.852H298.486V138.062H300.244V158.898ZM322.082 156.227H303.004V154.703H311.582V150.203H305.254V139.539H307.105V143.312H317.933V139.539H319.738V150.203H313.387V154.703H322.082V156.227ZM317.933 148.703V144.812H307.105V148.703H317.933ZM340.358 145.867H326.084V138.836H327.912V144.391H340.358V145.867ZM342.561 150.203H323.483V148.703H342.561V150.203ZM340.475 158.383H325.967V152.336H327.795V156.859H340.475V158.383ZM39.75 174.836C40.7812 174.844 41.7031 175.043 42.5156 175.434C43.3359 175.824 43.9766 176.371 44.4375 177.074C44.9062 177.77 45.1406 178.562 45.1406 179.453C45.1406 180.344 44.9062 181.141 44.4375 181.844C43.9766 182.539 43.3359 183.082 42.5156 183.473C41.7031 183.855 40.7812 184.047 39.75 184.047C38.7031 184.047 37.7695 183.855 36.9492 183.473C36.1289 183.082 35.4883 182.539 35.0273 181.844C34.5664 181.141 34.3359 180.344 34.3359 179.453C34.3359 178.562 34.5664 177.77 35.0273 177.074C35.4883 176.371 36.1289 175.824 36.9492 175.434C37.7695 175.043 38.7031 174.844 39.75 174.836ZM39.75 176.383C39.0625 176.383 38.4414 176.516 37.8867 176.781C37.3398 177.039 36.9102 177.402 36.5977 177.871C36.2852 178.332 36.1328 178.859 36.1406 179.453C36.1328 180.055 36.2852 180.59 36.5977 181.059C36.9102 181.527 37.3398 181.895 37.8867 182.16C38.4414 182.418 39.0625 182.547 39.75 182.547C40.4297 182.547 41.043 182.418 41.5898 182.16C42.1445 181.895 42.5781 181.527 42.8906 181.059C43.2031 180.59 43.3594 180.055 43.3594 179.453C43.3594 178.859 43.2031 178.332 42.8906 177.871C42.5781 177.402 42.1445 177.039 41.5898 176.781C41.043 176.516 40.4297 176.383 39.75 176.383ZM51.0469 184.773H49.2188V174.062H51.0469V184.773ZM51.0469 190.797H39.3516V193.141H51.7969V194.617H37.5469V189.414H49.2188V187.258H37.5V185.781H51.0469V190.797ZM63.8381 174.438C65.385 174.438 66.7092 174.578 67.8108 174.859C68.9123 175.133 69.7522 175.539 70.3303 176.078C70.9084 176.609 71.1975 177.258 71.1975 178.023C71.1975 179.195 70.5569 180.094 69.2756 180.719C67.9944 181.344 66.1819 181.664 63.8381 181.68C62.2913 181.672 60.9631 181.527 59.8538 181.246C58.7522 180.965 57.9084 180.555 57.3225 180.016C56.7444 179.469 56.4553 178.805 56.4553 178.023C56.4553 177.258 56.7444 176.609 57.3225 176.078C57.9084 175.539 58.7522 175.133 59.8538 174.859C60.9631 174.578 62.2913 174.438 63.8381 174.438ZM63.8381 175.82C62.6897 175.82 61.7053 175.91 60.885 176.09C60.0647 176.262 59.4397 176.516 59.01 176.852C58.5803 177.18 58.3694 177.57 58.3772 178.023C58.3694 178.742 58.842 179.297 59.7952 179.688C60.7483 180.078 62.0959 180.273 63.8381 180.273C65.5725 180.273 66.9202 180.078 67.8811 179.688C68.842 179.297 69.3225 178.742 69.3225 178.023C69.3225 177.57 69.1038 177.18 68.6663 176.852C68.2288 176.523 67.5998 176.27 66.7795 176.09C65.9592 175.91 64.9788 175.82 63.8381 175.82ZM73.3303 184.586H54.3459V183.086H73.3303V184.586ZM70.8928 191.055H58.5178V193.211H71.5256V194.664H56.6897V189.695H69.0881V187.797H56.6428V186.391H70.8928V191.055ZM87.6862 177.367C87.6784 178.18 87.8933 178.961 88.3308 179.711C88.7683 180.461 89.3816 181.125 90.1706 181.703C90.9675 182.273 91.8737 182.711 92.8894 183.016L92.0222 184.445C90.8191 184.086 89.7605 183.539 88.8464 182.805C87.9402 182.07 87.2566 181.211 86.7956 180.227C86.3503 181.344 85.655 182.316 84.7097 183.145C83.7722 183.973 82.6628 184.586 81.3816 184.984L80.4675 183.555C81.5066 183.227 82.4284 182.754 83.2331 182.137C84.0456 181.512 84.6784 180.793 85.1316 179.98C85.5925 179.16 85.8269 178.305 85.8347 177.414V176.758H81.1003V175.258H92.3269V176.758H87.6862V177.367ZM96.9206 178.633H100.061V180.156H96.9206V184.82H95.0925V174.062H96.9206V178.633ZM96.9206 190.773H85.4831V193.258H97.6941V194.711H83.6784V189.414H95.0925V187.258H83.6316V185.781H96.9206V190.773ZM117.259 182.664H120.751V184.188H117.259V194.898H115.431V174.062H117.259V182.664ZM113.415 178.938H101.017V177.414H106.384V174.32H108.212V177.414H113.415V178.938ZM107.321 180.672C108.298 180.672 109.173 180.875 109.946 181.281C110.72 181.688 111.325 182.254 111.763 182.98C112.2 183.707 112.423 184.531 112.431 185.453C112.423 186.375 112.2 187.199 111.763 187.926C111.325 188.652 110.72 189.219 109.946 189.625C109.173 190.031 108.298 190.234 107.321 190.234C106.337 190.234 105.454 190.031 104.673 189.625C103.899 189.219 103.294 188.652 102.856 187.926C102.419 187.199 102.204 186.375 102.212 185.453C102.204 184.531 102.419 183.707 102.856 182.98C103.294 182.254 103.899 181.688 104.673 181.281C105.454 180.875 106.337 180.672 107.321 180.672ZM107.321 182.219C106.681 182.219 106.103 182.359 105.587 182.641C105.079 182.914 104.681 183.297 104.392 183.789C104.103 184.281 103.962 184.836 103.97 185.453C103.962 186.078 104.103 186.637 104.392 187.129C104.681 187.613 105.079 187.992 105.587 188.266C106.103 188.539 106.681 188.672 107.321 188.664C107.954 188.672 108.524 188.539 109.032 188.266C109.54 187.992 109.938 187.613 110.228 187.129C110.517 186.637 110.665 186.078 110.673 185.453C110.665 184.836 110.517 184.281 110.228 183.789C109.938 183.297 109.54 182.914 109.032 182.641C108.524 182.359 107.954 182.219 107.321 182.219ZM138.488 181.867H124.214V174.836H126.042V180.391H138.488V181.867ZM140.691 186.203H121.613V184.703H140.691V186.203ZM138.605 194.383H124.097V188.336H125.925V192.859H138.605V194.383ZM165.195 188.195H163.343V181.492H158.773V179.945H163.343V174.086H165.195V188.195ZM158.679 175.727C158.672 177.484 158.289 179.086 157.531 180.531C156.773 181.969 155.679 183.219 154.25 184.281C152.82 185.344 151.101 186.195 149.093 186.836L148.273 185.359C149.929 184.852 151.367 184.199 152.586 183.402C153.804 182.598 154.765 181.676 155.468 180.637C156.172 179.59 156.586 178.453 156.711 177.227H149.304V175.727H158.679ZM159.336 187.328C159.336 188.305 159.656 189.207 160.297 190.035C160.937 190.863 161.793 191.559 162.863 192.121C163.933 192.684 165.093 193.078 166.343 193.305L165.57 194.781C163.968 194.469 162.527 193.91 161.246 193.105C159.972 192.309 159.035 191.32 158.433 190.141C157.824 191.328 156.871 192.324 155.574 193.129C154.277 193.941 152.82 194.508 151.203 194.828L150.453 193.375C151.703 193.164 152.867 192.773 153.945 192.203C155.023 191.625 155.886 190.914 156.535 190.07C157.191 189.227 157.523 188.312 157.531 187.328V186.367H159.336V187.328ZM187.408 186.555H168.424V185.055H187.408V186.555ZM185.299 194.453H170.885V188.383H172.736V192.906H185.299V194.453ZM177.916 174.812C179.4 174.805 180.697 174.965 181.807 175.293C182.916 175.621 183.771 176.098 184.373 176.723C184.975 177.34 185.275 178.078 185.275 178.938C185.275 179.797 184.975 180.539 184.373 181.164C183.771 181.781 182.916 182.258 181.807 182.594C180.697 182.922 179.4 183.086 177.916 183.086C176.416 183.086 175.111 182.922 174.002 182.594C172.893 182.258 172.037 181.781 171.435 181.164C170.834 180.539 170.533 179.797 170.533 178.938C170.533 178.078 170.834 177.34 171.435 176.723C172.037 176.098 172.893 175.621 174.002 175.293C175.111 174.965 176.416 174.805 177.916 174.812ZM177.916 176.289C176.807 176.289 175.838 176.398 175.01 176.617C174.182 176.828 173.541 177.133 173.088 177.531C172.643 177.93 172.424 178.398 172.432 178.938C172.424 179.477 172.643 179.945 173.088 180.344C173.541 180.742 174.182 181.051 175.01 181.27C175.838 181.48 176.807 181.586 177.916 181.586C179.018 181.586 179.982 181.48 180.81 181.27C181.639 181.051 182.275 180.742 182.721 180.344C183.174 179.945 183.4 179.477 183.4 178.938C183.4 178.398 183.174 177.93 182.721 177.531C182.275 177.133 181.639 176.828 180.81 176.617C179.982 176.398 179.018 176.289 177.916 176.289ZM199.866 189.32H209.967V187.047H211.772V194.617H198.038V187.047H199.866V189.32ZM209.967 193.117V190.773H199.866V193.117H209.967ZM211.772 186.039H209.944V174.086H211.772V186.039ZM194.733 183.203C197.584 183.203 200.088 183.172 202.245 183.109C204.409 183.039 206.498 182.875 208.514 182.617L208.631 183.93C206.944 184.211 205.03 184.418 202.889 184.551V187.68H201.061V184.633C199.6 184.695 197.577 184.727 194.991 184.727L194.733 183.203ZM202.702 175.633C202.702 176.328 202.916 176.984 203.346 177.602C203.784 178.211 204.389 178.738 205.163 179.184C205.944 179.629 206.834 179.961 207.834 180.18L207.038 181.586C205.811 181.312 204.741 180.867 203.827 180.25C202.913 179.625 202.229 178.879 201.776 178.012C201.338 178.941 200.663 179.746 199.748 180.426C198.834 181.098 197.756 181.594 196.514 181.914L195.67 180.461C196.67 180.227 197.557 179.871 198.33 179.395C199.112 178.918 199.721 178.355 200.159 177.707C200.596 177.059 200.819 176.367 200.827 175.633V174.578H202.702V175.633ZM222.665 180.461C222.665 181.609 222.919 182.754 223.426 183.895C223.934 185.027 224.618 186.039 225.477 186.93C226.344 187.812 227.29 188.477 228.313 188.922L227.282 190.375C226.055 189.812 224.95 188.965 223.965 187.832C222.981 186.691 222.247 185.406 221.762 183.977C221.278 185.508 220.544 186.895 219.559 188.137C218.583 189.371 217.501 190.289 216.313 190.891L215.212 189.438C216.196 188.961 217.114 188.242 217.965 187.281C218.825 186.32 219.512 185.238 220.028 184.035C220.544 182.824 220.805 181.633 220.813 180.461V177.742H215.891V176.219H227.633V177.742H222.665V180.461ZM232.391 194.898H230.54V174.062H232.391V194.898ZM247.31 175.258C248.341 175.258 249.267 175.465 250.087 175.879C250.907 176.285 251.552 176.855 252.021 177.59C252.489 178.316 252.724 179.141 252.724 180.062C252.724 180.992 252.489 181.824 252.021 182.559C251.552 183.285 250.907 183.855 250.087 184.27C249.267 184.676 248.341 184.883 247.31 184.891C246.278 184.883 245.349 184.676 244.521 184.27C243.7 183.855 243.056 183.285 242.587 182.559C242.118 181.824 241.888 180.992 241.896 180.062C241.888 179.141 242.118 178.316 242.587 177.59C243.056 176.855 243.7 176.285 244.521 175.879C245.349 175.465 246.278 175.258 247.31 175.258ZM247.31 176.805C246.638 176.805 246.025 176.945 245.47 177.227C244.915 177.508 244.478 177.898 244.157 178.398C243.845 178.891 243.693 179.445 243.7 180.062C243.693 180.688 243.845 181.254 244.157 181.762C244.478 182.262 244.915 182.656 245.47 182.945C246.025 183.227 246.638 183.367 247.31 183.367C247.989 183.367 248.603 183.227 249.15 182.945C249.704 182.656 250.138 182.262 250.45 181.762C250.763 181.262 250.919 180.695 250.919 180.062C250.919 179.445 250.763 178.891 250.45 178.398C250.138 177.898 249.704 177.508 249.15 177.227C248.603 176.945 247.989 176.805 247.31 176.805ZM257.786 178.773H260.927V180.297H257.786V184.492H255.958V174.062H257.786V178.773ZM245.505 192.824C247.122 192.762 248.552 192.523 249.794 192.109L250.075 193.586C249.169 193.891 248.275 194.09 247.392 194.184C246.509 194.285 245.614 194.336 244.708 194.336H243.724V186.742H245.505V192.824ZM259.872 188.266H249.349V186.836H253.732V184.984H255.536V186.836H259.872V188.266ZM254.599 188.969C255.357 188.969 256.028 189.09 256.614 189.332C257.208 189.574 257.669 189.918 257.997 190.363C258.333 190.809 258.505 191.328 258.513 191.922C258.505 192.516 258.333 193.031 257.997 193.469C257.669 193.914 257.208 194.254 256.614 194.488C256.028 194.73 255.357 194.852 254.599 194.852C253.833 194.852 253.157 194.73 252.571 194.488C251.985 194.254 251.528 193.914 251.2 193.469C250.88 193.031 250.724 192.516 250.732 191.922C250.724 191.328 250.88 190.809 251.2 190.363C251.528 189.918 251.985 189.574 252.571 189.332C253.157 189.09 253.833 188.969 254.599 188.969ZM254.599 190.305C254.169 190.305 253.786 190.375 253.45 190.516C253.114 190.648 252.849 190.84 252.653 191.09C252.466 191.332 252.372 191.609 252.372 191.922C252.372 192.406 252.579 192.797 252.993 193.094C253.407 193.391 253.943 193.539 254.599 193.539C255.263 193.539 255.798 193.391 256.204 193.094C256.618 192.805 256.825 192.414 256.825 191.922C256.825 191.445 256.618 191.059 256.204 190.762C255.79 190.457 255.255 190.305 254.599 190.305ZM266.242 189.016H276.648V186.578H278.499V194.617H264.413V186.578H266.242V189.016ZM276.648 193.141V190.469H266.242V193.141H276.648ZM280.984 185.102H261.999V183.578H280.984V185.102ZM272.452 175.281C272.452 176.109 272.812 176.906 273.531 177.672C274.249 178.43 275.183 179.074 276.331 179.605C277.488 180.129 278.679 180.469 279.906 180.625L279.226 182.102C278.14 181.938 277.085 181.652 276.062 181.246C275.046 180.832 274.14 180.316 273.343 179.699C272.546 179.082 271.933 178.395 271.503 177.637C271.074 178.395 270.456 179.082 269.652 179.699C268.855 180.316 267.949 180.832 266.933 181.246C265.917 181.652 264.867 181.938 263.781 182.102L263.077 180.625C264.327 180.461 265.527 180.121 266.675 179.605C267.831 179.082 268.765 178.445 269.476 177.695C270.195 176.938 270.554 176.133 270.554 175.281V174.297H272.452V175.281ZM299.681 194.898H297.853V174.062H299.681V194.898ZM285.666 187.938C289.189 187.922 292.509 187.586 295.627 186.93L295.884 188.5C294.111 188.867 292.384 189.133 290.705 189.297C289.025 189.453 287.306 189.531 285.548 189.531H283.861V176.125H285.666V187.938ZM319.129 182.312H322.621V183.859H319.129V194.945H317.301V174.062H319.129V182.312ZM313.644 177.625H305.746V188.172C307.691 188.172 309.39 188.117 310.844 188.008C312.297 187.898 313.777 187.703 315.285 187.422L315.519 189.016C313.98 189.297 312.469 189.484 310.984 189.578C309.5 189.672 307.691 189.719 305.558 189.719H303.918V176.102H313.644V177.625Z" fill="#4E4E4E"/>
<defs>
<filter id="filter0_f_1_1136" x="24" y="468" width="96" height="32" filterUnits="userSpaceOnUse" color-interpolation-filters="sRGB">
<feFlood flood-opacity="0" result="BackgroundImageFix"/>
<feBlend mode="normal" in="SourceGraphic" in2="BackgroundImageFix" result="shape"/>
<feGaussianBlur stdDeviation="5" result="effect1_foregroundBlur_1_1136"/>
</filter>
<filter id="filter1_f_1_1136" x="293" y="471" width="96" height="32" filterUnits="userSpaceOnUse" color-interpolation-filters="sRGB">
<feFlood flood-opacity="0" result="BackgroundImageFix"/>
<feBlend mode="normal" in="SourceGraphic" in2="BackgroundImageFix" result="shape"/>
<feGaussianBlur stdDeviation="5" result="effect1_foregroundBlur_1_1136"/>
</filter>
<filter id="filter2_f_1_1136" x="120" y="469" width="172" height="32" filterUnits="userSpaceOnUse" color-interpolation-filters="sRGB">
<feFlood flood-opacity="0" result="BackgroundImageFix"/>
<feBlend mode="normal" in="SourceGraphic" in2="BackgroundImageFix" result="shape"/>
<feGaussianBlur stdDeviation="5" result="effect1_foregroundBlur_1_1136"/>
</filter>
<linearGradient id="paint0_linear_1_1136" x1="205.5" y1="457.5" x2="205.5" y2="568.001" gradientUnits="userSpaceOnUse">
<stop stop-color="#F3B4B4"/>
<stop offset="1" stop-color="#FCAEAE"/>
</linearGradient>
</defs>
</svg>
