<svg width="1050" height="233" viewBox="0 0 1050 233" fill="none" xmlns="http://www.w3.org/2000/svg">
<g clip-path="url(#clip0_1_1434)">
<rect y="0.74707" width="1050" height="231.874" rx="20" fill="#F9DADA"/>
<path d="M45.6562 99.6123C51.7812 99.6436 55.6562 101.581 55.6875 104.925C55.6562 108.206 51.7812 110.175 45.6562 110.175C39.5625 110.175 35.6562 108.206 35.6562 104.925C35.6562 101.581 39.5625 99.6436 45.6562 99.6123ZM45.6562 102.237C41.5938 102.237 39.125 103.206 39.1562 104.925C39.125 106.581 41.5938 107.487 45.6562 107.487C49.75 107.487 52.2188 106.581 52.25 104.925C52.2188 103.206 49.75 102.237 45.6562 102.237ZM55.5 83.2998V85.6436C55.5 87.8623 55.5 90.2373 54.7188 93.1436L51.2812 92.8311C51.9844 90.0811 52.0312 88.0967 52.0312 86.0498H35.9375V83.2998H55.5ZM58.625 94.7686V97.5811H33V94.7686H42.9375V89.6436H46.375V94.7686H58.625ZM86.0863 103.925V106.769H60.2738V103.925H71.3988V97.7686H63.1175V84.1436H83.1175V97.7686H74.8363V103.925H86.0863ZM66.5238 86.9248V95.0498H79.68V86.9248H66.5238ZM111.266 81.9873V102.612H107.798V92.2686H102.798V89.4561H107.798V81.9873H111.266ZM111.985 106.831V109.644H92.735V100.8H96.2038V106.831H111.985ZM97.985 87.6123C97.985 91.0186 100.266 94.5186 104.641 95.9561L102.891 98.7373C99.735 97.6592 97.5006 95.5186 96.2663 92.8311C95.0163 95.8154 92.6569 98.1748 89.3288 99.3311L87.5475 96.5186C92.0475 95.0498 94.4538 91.3311 94.4538 87.5811V86.8311H88.5788V84.0186H103.829V86.8311H97.985V87.6123ZM137.283 83.7061V95.4561H123.658V83.7061H137.283ZM127.095 86.4561V92.7373H133.845V86.4561H127.095ZM145.689 81.9561V98.0498H142.251V81.9561H145.689ZM146.283 99.7061V102.331H138.22C138.548 104.519 141.939 106.925 147.345 107.456L146.158 110.112C141.579 109.644 138.111 107.831 136.408 105.487C134.642 107.862 131.142 109.612 126.533 110.112L125.345 107.456C130.751 106.987 134.22 104.581 134.533 102.331H126.501V99.7061H134.626V97.2373H138.126V99.7061H146.283ZM181.143 81.9561V110.206H177.83V95.7998H174.643V108.769H171.455V82.4873H174.643V93.0186H177.83V81.9561H181.143ZM168.268 85.2998V88.1123H161.205V100.675C164.283 100.644 166.814 100.487 169.674 99.9561L169.924 102.8C166.518 103.487 163.549 103.581 159.611 103.612H157.705V85.2998H168.268ZM193.322 83.7061C197.791 83.7061 201.072 86.5186 201.104 90.5186C201.072 94.0029 198.619 96.5498 195.072 97.1748V101.3C197.588 101.175 200.135 100.956 202.541 100.612L202.822 103.112C196.479 104.3 189.697 104.362 184.729 104.362L184.291 101.519C186.447 101.519 188.963 101.519 191.604 101.425V97.1748C188.057 96.5654 185.572 94.0029 185.572 90.5186C185.572 86.5186 188.885 83.7061 193.322 83.7061ZM193.322 86.7061C190.854 86.7061 189.01 88.1436 189.01 90.5186C189.01 92.8623 190.854 94.3623 193.322 94.3623C195.822 94.3623 197.697 92.8623 197.697 90.5186C197.697 88.1436 195.822 86.7061 193.322 86.7061ZM207.697 81.9561V110.237H204.229V81.9561H207.697ZM233.878 81.9561V88.8311H237.69V91.7373H233.878V98.5811H230.409V81.9561H233.878ZM233.878 99.7061V105.8H218.534V107.612H234.878V109.956H215.065V103.644H230.409V102.05H215.003V99.7061H233.878ZM211.253 95.7373C213.378 95.7373 215.815 95.7373 218.378 95.6436V94.2373C215.206 93.9248 213.253 92.6436 213.253 90.5498C213.253 88.2686 215.909 86.9248 220.065 86.9248C224.221 86.9248 226.878 88.2686 226.878 90.5498C226.878 92.6123 224.971 93.8936 221.846 94.2373V95.5186C224.253 95.4248 226.674 95.2217 228.94 94.9248L229.221 97.1123C223.19 98.1436 216.565 98.1748 211.628 98.1748L211.253 95.7373ZM228.19 83.8623V86.2373H211.971V83.8623H218.378V81.7373H221.846V83.8623H228.19ZM220.065 89.1123C217.878 89.1436 216.565 89.6123 216.596 90.5498C216.565 91.5498 217.878 92.1123 220.065 92.1123C222.253 92.1123 223.565 91.5498 223.565 90.5498C223.565 89.6123 222.253 89.1436 220.065 89.1123ZM264.62 95.4873V98.2686H238.839V95.4873H250.026V92.7998H241.995V83.2373H261.495V85.9561H245.464V90.0498H261.651V92.7998H253.432V95.4873H264.62ZM251.682 99.8936C257.776 99.8936 261.432 101.737 261.464 105.05C261.432 108.331 257.776 110.206 251.682 110.206C245.526 110.206 241.839 108.331 241.839 105.05C241.839 101.737 245.526 99.8936 251.682 99.8936ZM251.682 102.55C247.557 102.55 245.339 103.425 245.37 105.05C245.339 106.675 247.557 107.519 251.682 107.519C255.714 107.519 257.964 106.675 257.995 105.05C257.964 103.425 255.714 102.55 251.682 102.55ZM296.417 96.7686V99.5186H276.605V84.1748H296.167V86.9873H280.136V90.3936H295.511V93.1123H280.136V96.7686H296.417ZM299.261 103.925V106.769H273.449V103.925H299.261ZM311.973 84.1436V92.7998H305.379V96.3311C308.629 96.2998 311.051 96.1592 313.91 95.6123L314.254 98.3623C310.91 99.0186 308.035 99.1123 303.879 99.1123H301.973V90.2686H308.598V86.8623H301.941V84.1436H311.973ZM324.941 81.9873V103.206H321.629V81.9873H324.941ZM319.223 82.4873V102.487H315.941V92.1748H313.035V89.2998H315.941V82.4873H319.223ZM325.723 106.831V109.644H306.035V101.081H309.504V106.831H325.723ZM351.059 95.2061V97.9873H331.246V84.4248H350.84V87.2373H334.684V95.2061H351.059ZM353.934 103.737V106.612H328.121V103.737H353.934ZM381.239 94.7686V97.3936H355.426V94.7686H381.239ZM378.114 99.0811V105.519H361.926V107.487H378.957V109.894H358.457V103.269H374.676V101.519H358.426V99.0811H378.114ZM378.051 82.5811V88.9561H362.145V90.7998H378.551V93.1748H358.707V86.7061H374.582V84.9873H358.614V82.5811H378.051ZM55.2188 129.956V135.644H59.1562V138.519H55.2188V144.144H51.75V129.956H55.2188ZM55.2188 145.362V152.769H40.2188V155.112H56.0938V157.862H36.7812V150.237H51.75V148.05H36.75V145.362H55.2188ZM40.75 130.894C45.0625 130.894 48.2188 133.487 48.25 137.237C48.2188 140.925 45.0625 143.55 40.75 143.55C36.4375 143.55 33.2188 140.925 33.25 137.237C33.2188 133.487 36.4375 130.894 40.75 130.894ZM40.75 133.706C38.375 133.706 36.625 135.081 36.6562 137.237C36.625 139.362 38.375 140.8 40.75 140.8C43.125 140.8 44.875 139.362 44.875 137.237C44.875 135.081 43.125 133.706 40.75 133.706ZM82.2663 132.3C82.2663 135.862 86.235 139.456 92.2663 140.237L90.8913 143.05C86.0944 142.331 82.2819 139.972 80.4538 136.769C78.5944 139.972 74.7975 142.331 70.0475 143.05L68.6725 140.237C74.6413 139.456 78.61 135.862 78.61 132.3V130.862H82.2663V132.3ZM93.2975 145.487V148.362H82.0788V158.206H78.6413V148.362H67.5475V145.487H93.2975ZM112.189 148.331C112.189 150.675 113.267 153.144 115.689 154.675C118.142 153.034 119.283 150.472 119.314 148.331V147.175H122.72V148.331C122.689 151.3 124.439 154.05 128.158 155.237L126.47 157.769C123.72 156.847 121.892 155.05 120.908 152.8C120.001 155.019 118.329 157.003 115.783 158.019C113.095 157.05 111.408 155.144 110.533 152.894C109.517 155.065 107.72 156.831 105.095 157.769L103.376 155.237C107.033 153.956 108.783 151.081 108.814 148.331V147.175H112.189V148.331ZM125.689 129.987V145.987H122.189V129.987H125.689ZM110.283 131.487C114.626 131.487 117.876 134.237 117.876 138.206C117.876 142.144 114.626 144.894 110.283 144.894C105.908 144.894 102.658 142.144 102.658 138.206C102.658 134.237 105.908 131.487 110.283 131.487ZM110.283 134.425C107.814 134.425 106.033 135.894 106.064 138.206C106.033 140.519 107.814 142.019 110.283 142.019C112.72 142.019 114.47 140.519 114.47 138.206C114.47 135.894 112.72 134.425 110.283 134.425ZM152.369 137.956V140.706H132.806V130.987H136.244V137.956H152.369ZM155.275 143.987V146.737H129.463V143.987H155.275ZM152.556 154.737V157.55H132.556V149.237H136.025V154.737H152.556ZM189.885 144.581V147.362H178.979V152.237H175.541V147.362H164.072V144.581H189.885ZM187.041 154.831V157.644H167.197V149.862H170.635V154.831H187.041ZM170.885 130.862V134.05H183.072V130.862H186.51V142.362H167.447V130.862H170.885ZM170.885 139.612H183.072V136.644H170.885V139.612ZM201.69 134.425C201.69 138.05 203.971 141.519 208.315 142.925L206.44 145.706C203.378 144.628 201.19 142.487 200.003 139.769C198.737 142.737 196.44 145.065 193.19 146.237L191.315 143.456C195.909 141.925 198.19 138.237 198.19 134.206V131.425H201.69V134.425ZM215.096 148.112V158.206H211.628V150.862H195.846V148.112H215.096ZM215.096 129.956V146.737H211.628V138.3H206.003V135.456H211.628V129.956H215.096ZM249.581 129.956V158.237H246.144V129.956H249.581ZM240.894 132.425V143.019H231.175V148.706C235.628 148.675 239.472 148.456 243.863 147.706L244.175 150.55C239.363 151.394 235.144 151.55 230.081 151.55H227.613V140.269H237.363V135.237H227.581V132.425H240.894ZM279.199 152.019V154.925H253.386V152.019H264.48V146.456H255.605V143.706H259.574V135.269H255.511V132.456H276.949V135.269H272.824V143.706H276.855V146.456H267.917V152.019H279.199ZM263.042 143.706H269.386V135.269H263.042V143.706ZM303.691 144.769V147.519H283.879V132.175H303.441V134.987H287.41V138.394H302.785V141.112H287.41V144.769H303.691ZM306.535 151.925V154.769H280.723V151.925H306.535Z" fill="#222222"/>
<path d="M45.2812 193.909H32.5625V192.878H35.7188V189.136C35.1146 188.823 34.6458 188.42 34.3125 187.925C33.9792 187.43 33.8125 186.873 33.8125 186.253C33.8125 185.55 34.0286 184.927 34.4609 184.386C34.8932 183.844 35.4922 183.425 36.2578 183.128C37.0286 182.831 37.9062 182.68 38.8906 182.675C39.875 182.68 40.75 182.831 41.5156 183.128C42.2865 183.425 42.888 183.844 43.3203 184.386C43.7526 184.927 43.9688 185.55 43.9688 186.253C43.9688 186.862 43.8073 187.412 43.4844 187.901C43.1615 188.386 42.7083 188.784 42.125 189.097V192.878H45.2812V193.909ZM35 186.253C35 186.763 35.1641 187.216 35.4922 187.612C35.8203 188.003 36.2786 188.308 36.8672 188.526C37.4609 188.74 38.1354 188.847 38.8906 188.847C39.6406 188.847 40.3099 188.74 40.8984 188.526C41.487 188.308 41.9479 188.003 42.2812 187.612C42.6146 187.216 42.7812 186.763 42.7812 186.253C42.7812 185.743 42.6146 185.292 42.2812 184.901C41.9479 184.511 41.487 184.211 40.8984 184.003C40.3099 183.789 39.6406 183.685 38.8906 183.69C38.1354 183.685 37.4609 183.789 36.8672 184.003C36.2786 184.211 35.8203 184.511 35.4922 184.901C35.1641 185.292 35 185.743 35 186.253ZM40.8906 192.878V189.573C40.2708 189.735 39.6042 189.815 38.8906 189.815C38.1719 189.815 37.5156 189.737 36.9219 189.581V192.878H40.8906ZM57.7619 183.425H53.3556C53.366 183.935 53.5978 184.409 54.0509 184.847C54.5041 185.284 55.0978 185.649 55.8322 185.94C56.5666 186.227 57.3504 186.414 58.1838 186.503L57.7306 187.472C56.9598 187.383 56.228 187.214 55.5353 186.964C54.8426 186.709 54.2358 186.383 53.715 185.987C53.1942 185.586 52.8088 185.136 52.5588 184.636C52.314 185.141 51.9311 185.591 51.4103 185.987C50.8895 186.383 50.2827 186.709 49.59 186.964C48.8973 187.214 48.1629 187.383 47.3869 187.472L46.9494 186.503C47.7723 186.414 48.5483 186.227 49.2775 185.94C50.0119 185.649 50.6056 185.287 51.0588 184.854C51.5171 184.417 51.7515 183.94 51.7619 183.425H47.3869V182.425H57.7619V183.425ZM46.2306 188.331H58.8869V189.315H46.2306V188.331ZM47.7775 190.815H57.34V195.503H47.7775V190.815ZM56.1369 194.503V191.8H48.9963V194.503H56.1369ZM75.6294 195.69H74.4575V188.409H72.4106V194.972H71.2856V182.112H72.4106V187.394H74.4575V181.8H75.6294V195.69ZM64.27 183.503H69.4731V184.519H65.4888V191.206C66.5148 191.201 67.3846 191.172 68.0981 191.12C68.8117 191.063 69.5356 190.961 70.27 190.815L70.3794 191.847C69.5981 192.008 68.8273 192.115 68.0669 192.167C67.3065 192.219 66.3377 192.248 65.1606 192.253H64.27V183.503ZM85.735 184.3H77.4538V183.3H80.985V181.737H82.2038V183.3H85.735V184.3ZM78.2506 187.534C78.2506 187.029 78.3886 186.589 78.6647 186.214C78.9407 185.834 79.3314 185.542 79.8366 185.339C80.3418 185.131 80.9277 185.024 81.5944 185.019C82.2558 185.024 82.8366 185.131 83.3366 185.339C83.8418 185.542 84.2324 185.834 84.5084 186.214C84.7897 186.589 84.9329 187.029 84.9381 187.534C84.9329 188.029 84.7897 188.466 84.5084 188.847C84.2324 189.222 83.8418 189.513 83.3366 189.722C82.8314 189.93 82.2506 190.034 81.5944 190.034C80.9329 190.034 80.347 189.93 79.8366 189.722C79.3314 189.513 78.9407 189.222 78.6647 188.847C78.3886 188.466 78.2506 188.029 78.2506 187.534ZM79.1881 191.253H88.2819V195.69H87.0631V192.253H79.1881V191.253ZM79.4225 187.534C79.4225 187.836 79.511 188.102 79.6881 188.331C79.8652 188.56 80.1152 188.737 80.4381 188.862C80.7663 188.987 81.1439 189.05 81.5709 189.05C82.0032 189.05 82.386 188.99 82.7194 188.87C83.0527 188.745 83.3105 188.568 83.4928 188.339C83.6803 188.11 83.7767 187.841 83.7819 187.534C83.7767 187.222 83.6829 186.948 83.5006 186.714C83.3183 186.479 83.0605 186.297 82.7272 186.167C82.3991 186.037 82.0215 185.972 81.5944 185.972C81.1621 185.972 80.7793 186.037 80.4459 186.167C80.1178 186.297 79.8652 186.479 79.6881 186.714C79.511 186.948 79.4225 187.222 79.4225 187.534ZM87.0631 181.8H88.2819V185.659H90.3756V186.69H88.2819V190.487H87.0631V181.8ZM95.2313 184.565C95.2365 185.081 95.3536 185.586 95.5828 186.081C95.812 186.576 96.1427 187.021 96.575 187.417C97.0073 187.808 97.5125 188.112 98.0906 188.331L97.45 189.269C96.7938 189.013 96.226 188.651 95.7469 188.183C95.2729 187.714 94.9083 187.175 94.6531 186.565C94.3927 187.248 94.0151 187.862 93.5203 188.409C93.0255 188.956 92.4448 189.373 91.7781 189.659L91.1063 188.706C91.7 188.451 92.2182 188.097 92.6609 187.644C93.1089 187.19 93.4526 186.696 93.6922 186.159C93.9318 185.618 94.0542 185.086 94.0594 184.565V182.675H95.2313V184.565ZM93.6375 193.19C93.6323 192.67 93.8146 192.224 94.1844 191.854C94.5594 191.479 95.0984 191.196 95.8016 191.003C96.5047 190.805 97.3354 190.706 98.2938 190.706C99.2469 190.706 100.072 190.805 100.77 191.003C101.473 191.196 102.015 191.479 102.395 191.854C102.776 192.224 102.966 192.67 102.966 193.19C102.966 193.706 102.776 194.149 102.395 194.519C102.015 194.888 101.473 195.17 100.77 195.362C100.072 195.56 99.2469 195.659 98.2938 195.659C97.3354 195.659 96.5047 195.56 95.8016 195.362C95.0984 195.17 94.5594 194.888 94.1844 194.519C93.8146 194.149 93.6323 193.706 93.6375 193.19ZM94.8563 193.19C94.851 193.503 94.9839 193.774 95.2547 194.003C95.5307 194.227 95.924 194.399 96.4344 194.519C96.95 194.644 97.5568 194.706 98.2547 194.706C98.963 194.706 99.5776 194.646 100.098 194.526C100.619 194.407 101.023 194.232 101.309 194.003C101.596 193.774 101.742 193.503 101.747 193.19C101.742 192.873 101.598 192.599 101.317 192.37C101.036 192.136 100.635 191.956 100.114 191.831C99.5984 191.706 98.9917 191.644 98.2938 191.644C97.5854 191.644 96.9708 191.706 96.45 191.831C95.9344 191.956 95.5385 192.136 95.2625 192.37C94.9865 192.599 94.851 192.873 94.8563 193.19ZM98.7156 182.081H99.8719V185.55H101.716V181.815H102.888V190.394H101.716V186.565H99.8719V189.956H98.7156V182.081ZM117.431 188.628H104.759V187.644H117.431V188.628ZM106.29 189.878H115.79V193.097H107.54V194.534H116.212V195.534H106.321V192.175H114.587V190.831H106.29V189.878ZM106.446 182.284H115.774V183.269H107.681V185.503H115.915V186.503H106.446V182.284ZM130.333 195.69H129.146V181.8H130.333V195.69ZM118.599 187.8C118.599 186.826 118.721 185.977 118.966 185.253C119.216 184.524 119.565 183.961 120.013 183.565C120.461 183.17 120.984 182.972 121.583 182.972C122.14 182.972 122.635 183.146 123.067 183.495C123.5 183.839 123.844 184.331 124.099 184.972C124.359 185.607 124.515 186.357 124.567 187.222H126.364V182.097H127.536V194.987H126.364V188.237H124.575C124.539 189.128 124.39 189.907 124.13 190.573C123.875 191.235 123.528 191.743 123.091 192.097C122.653 192.451 122.151 192.628 121.583 192.628C120.984 192.628 120.461 192.433 120.013 192.042C119.565 191.646 119.216 191.084 118.966 190.354C118.721 189.625 118.599 188.774 118.599 187.8ZM119.755 187.8C119.75 188.545 119.82 189.193 119.966 189.745C120.117 190.297 120.331 190.722 120.607 191.019C120.888 191.315 121.213 191.461 121.583 191.456C121.953 191.461 122.276 191.318 122.552 191.026C122.833 190.729 123.049 190.308 123.2 189.761C123.351 189.214 123.427 188.573 123.427 187.839C123.427 187.084 123.351 186.427 123.2 185.87C123.054 185.313 122.841 184.883 122.56 184.581C122.284 184.279 121.958 184.128 121.583 184.128C121.208 184.128 120.883 184.279 120.607 184.581C120.331 184.878 120.117 185.302 119.966 185.854C119.82 186.407 119.75 187.055 119.755 187.8ZM143.986 195.69H142.814V181.8H143.986V195.69ZM132.111 191.8C133.59 190.925 134.723 189.878 135.509 188.659C136.301 187.435 136.756 186.081 136.876 184.597H132.704V183.581H138.095C138.095 184.993 137.863 186.3 137.4 187.503H139.892V182.175H141.064V194.987H139.892V188.503H136.947C136.072 190.19 134.699 191.586 132.829 192.69L132.111 191.8ZM161.088 191.972H159.869V181.815H161.088V191.972ZM149.947 186.19C149.947 185.534 150.103 184.948 150.416 184.433C150.733 183.917 151.168 183.513 151.72 183.222C152.278 182.93 152.9 182.784 153.588 182.784C154.275 182.784 154.895 182.93 155.447 183.222C155.999 183.513 156.434 183.917 156.752 184.433C157.069 184.948 157.228 185.534 157.228 186.19C157.228 186.852 157.069 187.443 156.752 187.964C156.434 188.485 155.999 188.891 155.447 189.183C154.895 189.469 154.275 189.612 153.588 189.612C152.9 189.612 152.278 189.469 151.72 189.183C151.168 188.891 150.733 188.485 150.416 187.964C150.103 187.443 149.947 186.852 149.947 186.19ZM151.15 186.19C151.145 186.644 151.246 187.05 151.455 187.409C151.668 187.763 151.96 188.039 152.33 188.237C152.705 188.435 153.124 188.534 153.588 188.534C154.046 188.534 154.46 188.435 154.83 188.237C155.199 188.039 155.491 187.763 155.705 187.409C155.918 187.05 156.025 186.644 156.025 186.19C156.025 185.743 155.918 185.344 155.705 184.995C155.491 184.641 155.199 184.365 154.83 184.167C154.46 183.964 154.046 183.862 153.588 183.862C153.124 183.862 152.705 183.961 152.33 184.159C151.96 184.357 151.668 184.633 151.455 184.987C151.246 185.341 151.145 185.743 151.15 186.19ZM152.119 190.94H153.338V194.362H161.525V195.394H152.119V190.94ZM174.771 195.69H173.537V181.8H174.771V195.69ZM163.459 192.081C165.313 191.201 166.732 190.107 167.717 188.8C168.706 187.493 169.271 185.998 169.412 184.315H164.099V183.315H170.662C170.651 185.409 170.12 187.292 169.068 188.964C168.016 190.636 166.37 192.008 164.131 193.081L163.459 192.081ZM185.514 191.128C185.509 191.769 185.675 192.386 186.014 192.979C186.357 193.568 186.85 194.045 187.49 194.409C187.917 194.144 188.282 193.826 188.584 193.456C188.891 193.081 189.123 192.69 189.279 192.284C189.441 191.878 189.519 191.493 189.514 191.128V190.362H190.717V191.128C190.712 191.607 190.821 192.073 191.045 192.526C191.274 192.979 191.602 193.388 192.029 193.753C192.456 194.112 192.962 194.394 193.545 194.597L192.936 195.503C192.259 195.263 191.678 194.914 191.193 194.456C190.709 194.003 190.342 193.477 190.092 192.878C189.863 193.477 189.529 194.019 189.092 194.503C188.66 194.987 188.139 195.357 187.529 195.612C186.878 195.362 186.331 195.003 185.889 194.534C185.451 194.065 185.123 193.526 184.904 192.917C184.644 193.495 184.277 194.008 183.803 194.456C183.329 194.909 182.769 195.258 182.123 195.503L181.498 194.597C182.066 194.383 182.563 194.091 182.99 193.722C183.417 193.347 183.746 192.933 183.975 192.479C184.204 192.026 184.321 191.576 184.326 191.128V190.362H185.514V191.128ZM181.139 185.878C181.139 185.243 181.292 184.677 181.6 184.183C181.912 183.688 182.344 183.305 182.897 183.034C183.454 182.763 184.081 182.628 184.779 182.628C185.477 182.628 186.102 182.763 186.654 183.034C187.206 183.305 187.639 183.688 187.951 184.183C188.264 184.677 188.42 185.243 188.42 185.878C188.42 186.503 188.264 187.06 187.951 187.55C187.639 188.039 187.206 188.42 186.654 188.69C186.102 188.961 185.477 189.097 184.779 189.097C184.081 189.097 183.454 188.961 182.897 188.69C182.344 188.42 181.912 188.039 181.6 187.55C181.292 187.06 181.139 186.503 181.139 185.878ZM182.342 185.878C182.337 186.3 182.438 186.677 182.647 187.011C182.855 187.344 183.144 187.607 183.514 187.8C183.884 187.987 184.305 188.081 184.779 188.081C185.248 188.081 185.667 187.987 186.037 187.8C186.407 187.607 186.696 187.344 186.904 187.011C187.113 186.677 187.217 186.3 187.217 185.878C187.217 185.451 187.113 185.071 186.904 184.737C186.696 184.399 186.404 184.136 186.029 183.948C185.66 183.761 185.243 183.67 184.779 183.675C184.311 183.67 183.889 183.761 183.514 183.948C183.144 184.136 182.855 184.399 182.647 184.737C182.438 185.071 182.337 185.451 182.342 185.878ZM191.061 181.815H192.279V189.753H191.061V181.815ZM205.713 187.003H196.197V182.315H197.416V186.019H205.713V187.003ZM194.463 188.894H207.182V189.894H194.463V188.894ZM196.119 191.315H197.338V194.331H205.791V195.347H196.119V191.315ZM222.846 185.362H224.924V186.409H222.846V190.003H221.612V181.8H222.846V185.362ZM211.94 188.753C213.544 188.753 214.799 188.74 215.706 188.714V187.854C214.878 187.787 214.226 187.594 213.753 187.276C213.279 186.959 213.044 186.539 213.049 186.019C213.049 185.644 213.18 185.323 213.44 185.058C213.7 184.787 214.073 184.581 214.557 184.44C215.047 184.295 215.617 184.222 216.268 184.222C216.935 184.222 217.513 184.292 218.003 184.433C218.497 184.573 218.88 184.779 219.151 185.05C219.422 185.321 219.56 185.644 219.565 186.019C219.56 186.534 219.323 186.951 218.854 187.269C218.385 187.586 217.742 187.782 216.924 187.854V188.667C218.388 188.594 219.664 188.482 220.753 188.331L220.862 189.159C219.534 189.378 218.161 189.519 216.745 189.581C215.328 189.644 213.773 189.675 212.081 189.675L211.94 188.753ZM212.284 182.862H215.706V181.675H216.924V182.862H220.331V183.753H212.284V182.862ZM213.799 190.628H222.846V193.425H215.049V194.659H223.378V195.534H213.831V192.597H221.628V191.503H213.799V190.628ZM214.221 186.019C214.216 186.331 214.401 186.581 214.776 186.769C215.151 186.951 215.659 187.045 216.299 187.05C216.94 187.045 217.448 186.951 217.823 186.769C218.203 186.581 218.393 186.331 218.393 186.019C218.393 185.716 218.206 185.479 217.831 185.308C217.456 185.131 216.945 185.039 216.299 185.034C215.654 185.039 215.143 185.131 214.768 185.308C214.398 185.479 214.216 185.716 214.221 186.019ZM238.342 189.659H225.671V188.675H231.405V187.05H227.28V182.456H236.764V183.44H228.483V186.05H236.858V187.05H232.592V188.675H238.342V189.659ZM227.202 193.175C227.202 192.649 227.392 192.201 227.772 191.831C228.152 191.456 228.702 191.17 229.421 190.972C230.139 190.774 230.999 190.675 231.999 190.675C232.988 190.675 233.84 190.774 234.553 190.972C235.267 191.17 235.814 191.456 236.194 191.831C236.579 192.201 236.775 192.649 236.78 193.175C236.775 193.706 236.582 194.157 236.202 194.526C235.822 194.901 235.272 195.188 234.553 195.386C233.84 195.584 232.988 195.685 231.999 195.69C230.999 195.685 230.139 195.584 229.421 195.386C228.702 195.188 228.152 194.901 227.772 194.526C227.392 194.151 227.202 193.701 227.202 193.175ZM228.452 193.175C228.447 193.493 228.582 193.769 228.858 194.003C229.139 194.232 229.543 194.407 230.069 194.526C230.595 194.646 231.223 194.706 231.952 194.706C233.077 194.706 233.954 194.573 234.585 194.308C235.22 194.042 235.54 193.664 235.546 193.175C235.546 192.857 235.402 192.584 235.116 192.354C234.829 192.125 234.421 191.951 233.889 191.831C233.358 191.706 232.728 191.644 231.999 191.644C231.259 191.644 230.621 191.706 230.085 191.831C229.553 191.951 229.147 192.125 228.866 192.354C228.585 192.584 228.447 192.857 228.452 193.175ZM247.042 184.065C247.037 184.966 247.011 185.831 246.964 186.659C246.917 187.487 246.807 188.461 246.636 189.581L245.401 189.472C245.672 187.815 245.807 186.196 245.807 184.612V184.347H239.979V183.347H247.042V184.065ZM239.198 191.612C240.526 191.602 241.526 191.589 242.198 191.573V187.315H243.401V191.534C245.115 191.472 246.636 191.362 247.964 191.206L248.026 192.128C245.875 192.461 243.203 192.628 240.011 192.628H239.354L239.198 191.612ZM248.839 181.8H250.057V187.612H252.307V188.675H250.057V195.69H248.839V181.8ZM261.019 185.722C261.019 186.487 261.136 187.243 261.37 187.987C261.61 188.727 261.951 189.394 262.394 189.987C262.842 190.581 263.368 191.039 263.972 191.362L263.238 192.331C262.581 191.956 262.014 191.435 261.534 190.769C261.055 190.097 260.688 189.331 260.433 188.472C260.172 189.399 259.79 190.229 259.284 190.964C258.779 191.698 258.185 192.269 257.503 192.675L256.706 191.769C257.336 191.409 257.889 190.914 258.363 190.284C258.836 189.649 259.201 188.943 259.456 188.167C259.711 187.386 259.836 186.597 259.831 185.8V183.112H261.019V185.722ZM264.488 182.097H265.675V187.394H267.581V181.8H268.769V195.69H267.581V188.409H265.675V194.987H264.488V182.097ZM283.249 193.972H270.531V192.94H276.249V190.315H272.124V186.034H280.437V183.847H272.093V182.831H281.64V187.034H273.343V189.3H281.968V190.315H277.452V192.94H283.249V193.972ZM296.902 189.878H291.261V192.722H290.027V189.878H284.183V188.862H296.902V189.878ZM285.621 184.956C285.621 184.388 285.821 183.894 286.222 183.472C286.623 183.05 287.194 182.727 287.933 182.503C288.678 182.274 289.542 182.159 290.527 182.159C291.511 182.159 292.371 182.274 293.105 182.503C293.845 182.727 294.415 183.05 294.816 183.472C295.217 183.894 295.417 184.388 295.417 184.956C295.417 185.519 295.217 186.011 294.816 186.433C294.415 186.849 293.845 187.17 293.105 187.394C292.371 187.612 291.511 187.722 290.527 187.722C289.542 187.722 288.681 187.612 287.941 187.394C287.201 187.17 286.628 186.849 286.222 186.433C285.821 186.011 285.621 185.519 285.621 184.956ZM285.824 191.331H287.058V194.347H295.48V195.394H285.824V191.331ZM286.933 184.956C286.928 185.31 287.074 185.62 287.371 185.886C287.667 186.151 288.087 186.357 288.628 186.503C289.175 186.649 289.808 186.722 290.527 186.722C291.24 186.722 291.868 186.651 292.41 186.511C292.951 186.365 293.371 186.159 293.667 185.894C293.97 185.623 294.121 185.31 294.121 184.956C294.121 184.591 293.972 184.274 293.675 184.003C293.378 183.732 292.959 183.524 292.417 183.378C291.876 183.232 291.246 183.159 290.527 183.159C289.808 183.159 289.175 183.232 288.628 183.378C288.087 183.524 287.667 183.732 287.371 184.003C287.074 184.274 286.928 184.591 286.933 184.956ZM308.004 190.581C308.993 190.581 309.853 190.683 310.582 190.886C311.316 191.084 311.881 191.375 312.277 191.761C312.678 192.141 312.879 192.597 312.879 193.128C312.879 193.654 312.678 194.107 312.277 194.487C311.881 194.868 311.316 195.157 310.582 195.354C309.853 195.558 308.993 195.659 308.004 195.659C307.014 195.659 306.152 195.558 305.418 195.354C304.689 195.157 304.126 194.868 303.73 194.487C303.34 194.107 303.144 193.654 303.144 193.128C303.144 192.597 303.34 192.141 303.73 191.761C304.126 191.375 304.689 191.084 305.418 190.886C306.152 190.683 307.014 190.581 308.004 190.581ZM301.738 188.284H306.973V185.597H308.176V188.284H314.379V189.284H301.738V188.284ZM303.238 182.519H312.769V183.69C312.764 184.456 312.741 185.104 312.699 185.636C312.657 186.162 312.551 186.743 312.379 187.378L311.176 187.237C311.342 186.602 311.446 186.032 311.488 185.526C311.53 185.016 311.551 184.404 311.551 183.69V183.519H303.238V182.519ZM304.363 193.128C304.363 193.446 304.512 193.724 304.808 193.964C305.105 194.198 305.527 194.378 306.074 194.503C306.626 194.628 307.269 194.69 308.004 194.69C308.738 194.69 309.379 194.628 309.926 194.503C310.478 194.378 310.902 194.198 311.199 193.964C311.501 193.724 311.655 193.446 311.66 193.128C311.655 192.8 311.501 192.516 311.199 192.276C310.902 192.037 310.478 191.852 309.926 191.722C309.379 191.586 308.738 191.519 308.004 191.519C307.269 191.519 306.626 191.586 306.074 191.722C305.527 191.852 305.105 192.037 304.808 192.276C304.512 192.516 304.363 192.8 304.363 193.128ZM328.109 193.909H315.391V192.878H321.109V189.487H316.891V182.972H326.531V189.487H322.312V192.878H328.109V193.909ZM325.344 188.503V183.956H318.094V188.503H325.344ZM340.574 192.003H339.34V186.675H336.481V185.659H339.34V181.815H340.574V192.003ZM329.121 189.222C329.798 188.982 330.405 188.631 330.942 188.167C331.478 187.703 331.897 187.17 332.199 186.565C332.501 185.956 332.652 185.326 332.652 184.675V183.956H329.512V182.94H336.996V183.956H333.887V184.675C333.887 185.269 334.03 185.847 334.317 186.409C334.608 186.972 335.012 187.472 335.527 187.909C336.048 188.347 336.642 188.68 337.309 188.909L336.668 189.894C335.892 189.612 335.21 189.196 334.621 188.644C334.038 188.086 333.595 187.446 333.293 186.722C332.991 187.529 332.533 188.237 331.918 188.847C331.304 189.456 330.585 189.914 329.762 190.222L329.121 189.222ZM331.652 191.081H332.887V194.362H340.965V195.394H331.652V191.081ZM353.727 187.534H355.836V188.565H353.727V195.69H352.492V181.8H353.727V187.534ZM342.68 191.847C343.68 190.821 344.425 189.68 344.914 188.425C345.409 187.17 345.698 185.81 345.782 184.347H343.117V183.315H346.946C346.935 185.128 346.68 186.808 346.18 188.354C345.685 189.901 344.847 191.3 343.664 192.55L342.68 191.847ZM346.664 192.784C347.67 191.649 348.394 190.37 348.836 188.948C349.279 187.521 349.534 185.987 349.602 184.347H347.383V183.315H350.758C350.753 185.289 350.532 187.133 350.094 188.847C349.657 190.555 348.847 192.097 347.664 193.472L346.664 192.784ZM361.364 186.065C361.364 186.831 361.533 187.594 361.872 188.354C362.215 189.115 362.674 189.792 363.247 190.386C363.825 190.974 364.452 191.414 365.129 191.706L364.442 192.675C363.624 192.305 362.887 191.743 362.231 190.987C361.58 190.232 361.093 189.375 360.77 188.417C360.447 189.433 359.957 190.354 359.301 191.183C358.65 192.006 357.926 192.618 357.129 193.019L356.395 192.05C357.056 191.732 357.671 191.253 358.239 190.612C358.812 189.972 359.27 189.25 359.614 188.448C359.957 187.641 360.129 186.847 360.129 186.065V184.253H356.848V183.237H364.676V184.253H361.364V186.065ZM366.614 181.8H367.848V195.69H366.614V181.8ZM384.778 186.394H386.872V187.425H384.778V192.222H383.559V181.815H384.778V186.394ZM373.95 183.519H377.481V181.815H378.7V183.519H382.231V184.519H373.95V183.519ZM374.747 187.878C374.747 187.357 374.885 186.901 375.161 186.511C375.437 186.12 375.828 185.818 376.333 185.604C376.838 185.391 377.424 185.284 378.091 185.284C378.747 185.284 379.325 185.391 379.825 185.604C380.33 185.818 380.723 186.12 381.005 186.511C381.286 186.901 381.429 187.357 381.434 187.878C381.429 188.394 381.286 188.847 381.005 189.237C380.723 189.623 380.33 189.92 379.825 190.128C379.325 190.336 378.747 190.44 378.091 190.44C377.424 190.44 376.838 190.336 376.333 190.128C375.828 189.92 375.437 189.623 375.161 189.237C374.885 188.847 374.747 188.394 374.747 187.878ZM375.919 187.878C375.919 188.201 376.007 188.485 376.184 188.729C376.361 188.969 376.614 189.154 376.942 189.284C377.276 189.414 377.658 189.477 378.091 189.472C378.518 189.477 378.895 189.414 379.223 189.284C379.557 189.154 379.815 188.969 379.997 188.729C380.179 188.485 380.273 188.201 380.278 187.878C380.273 187.555 380.179 187.271 379.997 187.026C379.815 186.776 379.559 186.586 379.231 186.456C378.908 186.321 378.536 186.253 378.114 186.253C377.677 186.253 377.291 186.321 376.958 186.456C376.624 186.586 376.367 186.774 376.184 187.019C376.007 187.263 375.919 187.55 375.919 187.878ZM376.091 191.394H377.294V194.362H385.419V195.394H376.091V191.394ZM398.821 187.034H389.337V182.331H390.556V186.034H398.821V187.034ZM387.587 188.675H400.259V189.69H394.634V192.565H393.415V189.69H387.587V188.675ZM389.212 191.331H390.431V194.362H398.915V195.394H389.212V191.331ZM413.161 195.69H411.974V181.8H413.161V195.69ZM401.427 187.8C401.427 186.826 401.549 185.977 401.794 185.253C402.044 184.524 402.393 183.961 402.841 183.565C403.289 183.17 403.812 182.972 404.411 182.972C404.969 182.972 405.463 183.146 405.896 183.495C406.328 183.839 406.672 184.331 406.927 184.972C407.187 185.607 407.344 186.357 407.396 187.222H409.193V182.097H410.364V194.987H409.193V188.237H407.403C407.367 189.128 407.219 189.907 406.958 190.573C406.703 191.235 406.357 191.743 405.919 192.097C405.482 192.451 404.979 192.628 404.411 192.628C403.812 192.628 403.289 192.433 402.841 192.042C402.393 191.646 402.044 191.084 401.794 190.354C401.549 189.625 401.427 188.774 401.427 187.8ZM402.583 187.8C402.578 188.545 402.648 189.193 402.794 189.745C402.945 190.297 403.159 190.722 403.435 191.019C403.716 191.315 404.041 191.461 404.411 191.456C404.781 191.461 405.104 191.318 405.38 191.026C405.661 190.729 405.877 190.308 406.028 189.761C406.179 189.214 406.255 188.573 406.255 187.839C406.255 187.084 406.179 186.427 406.028 185.87C405.883 185.313 405.669 184.883 405.388 184.581C405.112 184.279 404.786 184.128 404.411 184.128C404.036 184.128 403.711 184.279 403.435 184.581C403.159 184.878 402.945 185.302 402.794 185.854C402.648 186.407 402.578 187.055 402.583 187.8ZM426.763 184.331H425.216V191.019C425.94 190.972 426.675 190.904 427.419 190.815L427.482 191.722C426.18 191.93 424.82 192.068 423.404 192.136C421.992 192.203 420.445 192.243 418.763 192.253L418.607 191.206C418.971 191.206 419.596 191.201 420.482 191.19V184.331H418.951V183.315H426.763V184.331ZM421.669 191.175C422.372 191.159 423.164 191.131 424.044 191.089V184.331H421.669V191.175ZM428.31 181.8H429.529V187.378H431.857V188.409H429.529V195.69H428.31V181.8ZM436.353 182.644C437.051 182.644 437.676 182.782 438.228 183.058C438.78 183.334 439.212 183.719 439.525 184.214C439.843 184.709 440.004 185.274 440.009 185.909C440.004 186.55 439.845 187.12 439.533 187.62C439.22 188.12 438.785 188.511 438.228 188.792C437.676 189.068 437.051 189.206 436.353 189.206C435.655 189.206 435.03 189.068 434.478 188.792C433.926 188.511 433.494 188.12 433.181 187.62C432.869 187.12 432.712 186.55 432.712 185.909C432.712 185.274 432.869 184.709 433.181 184.214C433.494 183.719 433.926 183.334 434.478 183.058C435.035 182.782 435.66 182.644 436.353 182.644ZM433.916 185.909C433.916 186.347 434.02 186.737 434.228 187.081C434.436 187.42 434.726 187.683 435.095 187.87C435.47 188.058 435.89 188.149 436.353 188.144C436.822 188.149 437.241 188.058 437.611 187.87C437.986 187.683 438.278 187.42 438.486 187.081C438.699 186.737 438.806 186.347 438.806 185.909C438.806 185.482 438.699 185.102 438.486 184.769C438.278 184.43 437.986 184.167 437.611 183.979C437.241 183.787 436.822 183.69 436.353 183.69C435.89 183.69 435.47 183.787 435.095 183.979C434.726 184.167 434.436 184.43 434.228 184.769C434.02 185.102 433.916 185.482 433.916 185.909ZM434.212 190.706H443.306V195.722H442.087V191.706H434.212V190.706ZM442.087 181.8H443.306V185.394H445.4V186.425H443.306V189.987H442.087V181.8ZM453.052 185.206H446.084V184.206H448.974V182.222H450.193V184.206H453.052V185.206ZM446.584 189.3C446.584 188.696 446.711 188.154 446.967 187.675C447.227 187.196 447.584 186.821 448.037 186.55C448.49 186.279 449 186.144 449.568 186.144C450.146 186.144 450.662 186.279 451.115 186.55C451.573 186.821 451.93 187.196 452.185 187.675C452.446 188.149 452.579 188.69 452.584 189.3C452.579 189.914 452.446 190.464 452.185 190.948C451.93 191.427 451.573 191.805 451.115 192.081C450.662 192.352 450.146 192.487 449.568 192.487C449 192.487 448.487 192.352 448.029 192.081C447.576 191.805 447.222 191.427 446.967 190.948C446.711 190.464 446.584 189.914 446.584 189.3ZM447.677 189.3C447.677 189.706 447.758 190.071 447.92 190.394C448.081 190.711 448.305 190.961 448.592 191.144C448.878 191.321 449.204 191.409 449.568 191.409C449.933 191.409 450.261 191.321 450.552 191.144C450.844 190.961 451.073 190.711 451.24 190.394C451.407 190.071 451.49 189.706 451.49 189.3C451.49 188.899 451.407 188.539 451.24 188.222C451.073 187.899 450.844 187.646 450.552 187.464C450.261 187.276 449.933 187.18 449.568 187.175C449.204 187.18 448.878 187.276 448.592 187.464C448.305 187.646 448.081 187.899 447.92 188.222C447.758 188.539 447.677 188.899 447.677 189.3ZM453.771 182.144H454.927V187.659H456.771V181.8H457.943V195.69H456.771V188.675H454.927V195.003H453.771V182.144ZM476.358 193.909H463.639V192.894H469.358V189.894H465.139V182.784H466.373V185.3H473.592V182.784H474.795V189.894H470.561V192.894H476.358V193.909ZM473.592 188.894V186.3H466.373V188.894H473.592ZM481.432 185.753C481.432 186.498 481.549 187.24 481.783 187.979C482.018 188.714 482.354 189.386 482.791 189.995C483.234 190.604 483.755 191.086 484.354 191.44L483.651 192.394C482.994 191.998 482.427 191.451 481.948 190.753C481.474 190.055 481.112 189.271 480.862 188.401C480.601 189.344 480.218 190.19 479.713 190.94C479.208 191.69 478.614 192.274 477.932 192.69L477.151 191.769C477.776 191.404 478.323 190.907 478.791 190.276C479.26 189.641 479.619 188.935 479.869 188.159C480.119 187.383 480.244 186.597 480.244 185.8V183.112H481.432V185.753ZM482.823 186.784H485.182V182.097H486.338V194.987H485.182V187.831H482.823V186.784ZM488.026 181.8H489.213V195.69H488.026V181.8ZM503.694 193.909H490.975V192.878H494.131V189.136C493.527 188.823 493.058 188.42 492.725 187.925C492.392 187.43 492.225 186.873 492.225 186.253C492.225 185.55 492.441 184.927 492.873 184.386C493.306 183.844 493.905 183.425 494.67 183.128C495.441 182.831 496.319 182.68 497.303 182.675C498.288 182.68 499.163 182.831 499.928 183.128C500.699 183.425 501.301 183.844 501.733 184.386C502.165 184.927 502.381 185.55 502.381 186.253C502.381 186.862 502.22 187.412 501.897 187.901C501.574 188.386 501.121 188.784 500.538 189.097V192.878H503.694V193.909ZM493.413 186.253C493.413 186.763 493.577 187.216 493.905 187.612C494.233 188.003 494.691 188.308 495.28 188.526C495.873 188.74 496.548 188.847 497.303 188.847C498.053 188.847 498.722 188.74 499.311 188.526C499.899 188.308 500.36 188.003 500.694 187.612C501.027 187.216 501.194 186.763 501.194 186.253C501.194 185.743 501.027 185.292 500.694 184.901C500.36 184.511 499.899 184.211 499.311 184.003C498.722 183.789 498.053 183.685 497.303 183.69C496.548 183.685 495.873 183.789 495.28 184.003C494.691 184.211 494.233 184.511 493.905 184.901C493.577 185.292 493.413 185.743 493.413 186.253ZM499.303 192.878V189.573C498.683 189.735 498.017 189.815 497.303 189.815C496.584 189.815 495.928 189.737 495.334 189.581V192.878H499.303Z" fill="#4E4E4E"/>
<rect x="625" y="53" width="100" height="120" rx="12" fill="white"/>
<line x1="652" y1="71" x2="697" y2="71" stroke="#A7A7A7" stroke-width="2" stroke-linecap="round"/>
<line x1="652" y1="75" x2="697" y2="75" stroke="#A7A7A7" stroke-width="2" stroke-linecap="round"/>
<line x1="638.5" y1="91.5" x2="712.5" y2="91.5" stroke="#A7A7A7" stroke-linecap="round"/>
<line x1="638.5" y1="100.5" x2="712.5" y2="100.5" stroke="#A7A7A7" stroke-linecap="round"/>
<line x1="638.5" y1="109.5" x2="712.5" y2="109.5" stroke="#A7A7A7" stroke-linecap="round"/>
<line x1="638.5" y1="118.5" x2="712.5" y2="118.5" stroke="#A7A7A7" stroke-linecap="round"/>
<line x1="638.5" y1="127.5" x2="712.5" y2="127.5" stroke="#A7A7A7" stroke-linecap="round"/>
<line x1="638.5" y1="136.5" x2="712.5" y2="136.5" stroke="#A7A7A7" stroke-linecap="round"/>
<line x1="638.5" y1="145.5" x2="712.5" y2="145.5" stroke="#A7A7A7" stroke-linecap="round"/>
<line x1="638.5" y1="154.5" x2="712.5" y2="154.5" stroke="#A7A7A7" stroke-linecap="round"/>
<rect x="738" y="53" width="100" height="120" rx="12" fill="white"/>
<line x1="765" y1="71" x2="810" y2="71" stroke="#A7A7A7" stroke-width="2" stroke-linecap="round"/>
<line x1="765" y1="75" x2="810" y2="75" stroke="#A7A7A7" stroke-width="2" stroke-linecap="round"/>
<line x1="751.5" y1="91.5" x2="825.5" y2="91.5" stroke="#A7A7A7" stroke-linecap="round"/>
<line x1="751.5" y1="100.5" x2="825.5" y2="100.5" stroke="#A7A7A7" stroke-linecap="round"/>
<line x1="751.5" y1="109.5" x2="825.5" y2="109.5" stroke="#A7A7A7" stroke-linecap="round"/>
<line x1="751.5" y1="118.5" x2="825.5" y2="118.5" stroke="#A7A7A7" stroke-linecap="round"/>
<line x1="751.5" y1="127.5" x2="825.5" y2="127.5" stroke="#A7A7A7" stroke-linecap="round"/>
<line x1="751.5" y1="136.5" x2="825.5" y2="136.5" stroke="#A7A7A7" stroke-linecap="round"/>
<line x1="751.5" y1="145.5" x2="825.5" y2="145.5" stroke="#A7A7A7" stroke-linecap="round"/>
<line x1="751.5" y1="154.5" x2="825.5" y2="154.5" stroke="#A7A7A7" stroke-linecap="round"/>
<rect x="851" y="53" width="100" height="120" rx="12" fill="white"/>
<line x1="878" y1="71" x2="923" y2="71" stroke="#A7A7A7" stroke-width="2" stroke-linecap="round"/>
<line x1="878" y1="75" x2="923" y2="75" stroke="#A7A7A7" stroke-width="2" stroke-linecap="round"/>
<line x1="864.5" y1="91.5" x2="938.5" y2="91.5" stroke="#A7A7A7" stroke-linecap="round"/>
<line x1="864.5" y1="100.5" x2="938.5" y2="100.5" stroke="#A7A7A7" stroke-linecap="round"/>
<line x1="864.5" y1="109.5" x2="938.5" y2="109.5" stroke="#A7A7A7" stroke-linecap="round"/>
<line x1="864.5" y1="118.5" x2="938.5" y2="118.5" stroke="#A7A7A7" stroke-linecap="round"/>
<line x1="864.5" y1="127.5" x2="938.5" y2="127.5" stroke="#A7A7A7" stroke-linecap="round"/>
<line x1="864.5" y1="136.5" x2="938.5" y2="136.5" stroke="#A7A7A7" stroke-linecap="round"/>
<line x1="864.5" y1="145.5" x2="938.5" y2="145.5" stroke="#A7A7A7" stroke-linecap="round"/>
<line x1="864.5" y1="154.5" x2="938.5" y2="154.5" stroke="#A7A7A7" stroke-linecap="round"/>
<rect x="964" y="53" width="100" height="120" rx="12" fill="white"/>
<line x1="991" y1="71" x2="1036" y2="71" stroke="#A7A7A7" stroke-width="2" stroke-linecap="round"/>
<line x1="991" y1="75" x2="1036" y2="75" stroke="#A7A7A7" stroke-width="2" stroke-linecap="round"/>
<line x1="977.5" y1="91.5" x2="1051.5" y2="91.5" stroke="#A7A7A7" stroke-linecap="round"/>
<line x1="977.5" y1="100.5" x2="1051.5" y2="100.5" stroke="#A7A7A7" stroke-linecap="round"/>
<line x1="977.5" y1="109.5" x2="1051.5" y2="109.5" stroke="#A7A7A7" stroke-linecap="round"/>
<line x1="977.5" y1="118.5" x2="1051.5" y2="118.5" stroke="#A7A7A7" stroke-linecap="round"/>
<line x1="977.5" y1="127.5" x2="1051.5" y2="127.5" stroke="#A7A7A7" stroke-linecap="round"/>
<line x1="977.5" y1="136.5" x2="1051.5" y2="136.5" stroke="#A7A7A7" stroke-linecap="round"/>
<line x1="977.5" y1="145.5" x2="1051.5" y2="145.5" stroke="#A7A7A7" stroke-linecap="round"/>
<line x1="977.5" y1="154.5" x2="1051.5" y2="154.5" stroke="#A7A7A7" stroke-linecap="round"/>
<path d="M848.179 221.01C888.815 221.01 921.757 189.834 921.757 151.378C921.757 112.921 888.815 81.7458 848.179 81.7458C807.543 81.7458 774.601 112.921 774.601 151.378C774.601 189.834 807.543 221.01 848.179 221.01Z" fill="#629665"/>
<path d="M865.558 107.476L856.891 109.613C856.195 109.781 855.763 110.525 855.955 111.221L858.212 118.998C858.572 120.222 857.131 121.158 856.147 120.342L848.994 114.341C848.513 113.933 847.817 113.933 847.337 114.341L840.183 120.342C839.199 121.158 837.759 120.222 838.119 118.998L840.375 111.221C840.567 110.525 840.159 109.781 839.439 109.613L830.773 107.476C829.477 107.164 829.477 105.292 830.773 104.98L839.439 102.844C840.135 102.676 840.567 101.932 840.375 101.236L838.119 93.4587C837.759 92.2346 839.199 91.2985 840.183 92.1146L847.337 98.1153C847.817 98.5233 848.513 98.5233 848.994 98.1153L856.147 92.1146C857.131 91.2985 858.572 92.2346 858.212 93.4587L855.955 101.236C855.763 101.932 856.171 102.676 856.891 102.844L865.558 104.98C866.854 105.292 866.854 107.164 865.558 107.476Z" fill="#4A734E"/>
<path d="M824.245 136.641C821.268 139.042 820.428 142.33 819.444 146.482C818.484 150.515 817.74 153.731 818.484 157.956C818.94 160.452 819.54 163.836 822.157 166.573C826.598 171.205 835.456 172.693 840.305 168.493C843.042 166.117 844.554 162.564 845.082 158.988C845.61 155.411 845.226 151.763 844.722 148.163C843.834 141.97 842.49 137.241 838.361 134.985C833.511 132.321 827.438 134.841 827.03 135.033C826.406 135.297 825.373 135.753 824.269 136.641H824.245Z" fill="#F5F1DE"/>
<path d="M830.967 142.977C828.446 143.841 827.222 146.073 827.078 146.361C826.43 147.61 826.334 148.978 826.478 151.69C826.574 153.298 826.742 154.906 827.03 156.515C827.222 157.667 827.486 158.843 828.086 159.875C829.022 161.483 830.751 162.611 832.623 162.755C834.472 162.923 836.392 162.107 837.568 160.667C838.697 159.299 839.129 157.523 839.489 155.795C839.993 153.346 840.377 150.802 839.921 148.354C839.609 146.649 839.009 144.537 837.136 143.409C835 142.113 832.143 142.737 831.663 142.833C831.495 142.881 831.279 142.929 830.991 143.025L830.967 142.977Z" fill="#222222"/>
<path d="M872.112 136.641C875.089 139.042 875.929 142.33 876.913 146.482C877.873 150.515 878.618 153.731 877.873 157.956C877.417 160.452 876.817 163.836 874.201 166.573C869.759 171.205 860.901 172.693 856.052 168.493C853.315 166.117 851.803 162.564 851.275 158.988C850.747 155.411 851.131 151.763 851.635 148.163C852.523 141.97 853.868 137.241 857.997 134.985C862.846 132.321 868.919 134.841 869.327 135.033C869.952 135.297 870.984 135.753 872.088 136.641H872.112Z" fill="#F5F1DE"/>
<path d="M865.39 142.977C867.91 143.841 869.134 146.073 869.279 146.361C869.927 147.61 870.023 148.978 869.879 151.69C869.783 153.298 869.615 154.906 869.327 156.515C869.134 157.667 868.87 158.843 868.27 159.875C867.334 161.483 865.606 162.611 863.733 162.755C861.885 162.923 859.964 162.107 858.788 160.667C857.66 159.299 857.228 157.523 856.867 155.795C856.363 153.346 855.979 150.802 856.435 148.354C856.747 146.649 857.348 144.537 859.22 143.409C861.357 142.113 864.213 142.737 864.693 142.833C864.861 142.881 865.077 142.929 865.366 143.025L865.39 142.977Z" fill="#222222"/>
<path d="M772.655 163.22C771.431 162.284 753.379 148.146 756.956 136.673C757.82 133.864 760.436 129.784 763.581 129.688C766.822 129.592 769.15 133.72 771.527 137.033C774.984 141.809 780.817 147.858 791.116 153.163C791.116 153.211 790.852 154.027 789.988 154.243C789.195 154.459 788.595 153.979 788.523 153.931" fill="#4A734E"/>
<path d="M779.93 173.276C777.169 171.404 750.427 152.97 754.58 138.856C755.516 135.712 758.565 130.767 762.286 130.599C765.934 130.431 768.479 134.92 771.696 138.952C775.561 143.801 781.994 149.97 793.109 155.154" fill="#629665"/>
<path d="M820.499 201.04C818.435 208.504 816.346 215.969 814.282 223.458C813.754 223.458 807.248 223.41 803.983 228.451C803.479 229.219 801.871 231.691 802.423 234.499C803.743 241.388 816.298 243.38 820.499 244.052C825.229 244.821 828.109 245.277 830.654 243.596C834.183 241.292 834.711 236.564 835.263 231.067C836.463 219.21 837.304 210.233 837.88 203.896" fill="#629665"/>
<path d="M875.857 201.04C877.921 208.504 880.01 215.969 882.074 223.458C882.602 223.458 889.108 223.41 892.373 228.451C892.877 229.219 894.485 231.691 893.933 234.499C892.613 241.388 880.058 243.38 875.857 244.052C871.128 244.821 868.247 245.277 865.702 243.596C862.173 241.292 861.645 236.564 861.093 231.067C859.893 219.21 859.053 210.233 858.477 203.896" fill="#629665"/>
<path d="M919.767 163.22C920.991 162.284 939.043 148.146 935.467 136.673C934.602 133.864 931.986 129.784 928.841 129.688C925.6 129.592 923.272 133.72 920.895 137.033C917.438 141.809 911.605 147.858 901.306 153.163C901.306 153.211 901.57 154.027 902.434 154.243C903.227 154.459 903.827 153.979 903.899 153.931" fill="#4A734E"/>
<path d="M912.518 173.276C915.278 171.404 942.021 152.97 937.868 138.856C936.932 135.712 933.883 130.767 930.162 130.599C926.513 130.431 923.968 134.92 920.752 138.952C916.887 143.801 910.453 149.97 899.338 155.154" fill="#629665"/>
<rect x="713.568" y="67.8684" width="4.12108" height="82.4633" rx="2.06054" transform="rotate(-30 713.568 67.8684)" fill="#F2AD48"/>
<path d="M751.263 138.203C750.499 136.35 751.225 134.217 752.961 133.215L754.034 132.596C755.77 131.593 757.98 132.031 759.203 133.619L763.791 139.578C765.267 141.495 764.716 144.273 762.621 145.482L759.828 147.095C757.733 148.305 755.052 147.392 754.13 145.156L751.263 138.203Z" fill="#F2AD48"/>
<path d="M45.9484 44.736C45.9658 44.9096 45.9311 45.0311 45.8616 45.0659C45.7748 45.118 45.6533 45.1527 45.497 45.17C44.7505 45.2569 44.0039 45.3263 43.24 45.361C42.4587 45.4305 41.6774 45.4826 40.9135 45.5173V47.618H46.5734C46.7297 47.618 46.8512 47.6528 46.9207 47.7049C46.9901 47.7743 47.0249 47.8785 47.0249 48.0521V50.0834C47.0249 50.257 46.9901 50.3612 46.9207 50.4306C46.8512 50.4827 46.7297 50.5174 46.5734 50.5174H31.9202C31.7466 50.5174 31.6424 50.4827 31.5729 50.4306C31.5035 50.3612 31.4688 50.257 31.4688 50.0834V48.0521C31.4688 47.8785 31.5035 47.7743 31.5729 47.7049C31.6424 47.6528 31.7466 47.618 31.9202 47.618H37.5801V45.6214C37.2329 45.6388 36.9203 45.6388 36.6078 45.6388H35.6703C34.5591 45.6388 33.7605 45.3437 33.2917 44.736C32.8056 44.1457 32.5626 43.2082 32.5626 41.8887V34.9787C32.5626 34.8051 32.5973 34.7009 32.6667 34.6315C32.7362 34.5794 32.8403 34.5447 33.014 34.5447H45.2887C45.4449 34.5447 45.5665 34.5794 45.6359 34.6315C45.7054 34.7009 45.7401 34.8051 45.7401 34.9787V37.01C45.7401 37.1837 45.7054 37.3052 45.6359 37.3573C45.5665 37.4267 45.4449 37.4441 45.2887 37.4441H35.896V38.6941H45.306C45.4623 38.6941 45.5838 38.7289 45.6533 38.7809C45.7227 38.8504 45.7574 38.9546 45.7574 39.1282V40.9859C45.7574 41.1595 45.7227 41.281 45.6533 41.3331C45.5838 41.4026 45.4623 41.4199 45.306 41.4199H35.896V41.7324C35.896 42.1491 35.9828 42.4616 36.1564 42.6526C36.33 42.8609 36.6426 42.9477 37.1113 42.9304C38.3614 42.913 39.7156 42.8609 41.1392 42.7915C42.5629 42.722 43.9518 42.6179 45.3234 42.4616C45.4797 42.4443 45.5838 42.4616 45.6533 42.5311C45.7054 42.6005 45.7401 42.722 45.7748 42.8957L45.9484 44.736ZM57.4105 47.7569C57.4105 48.4861 57.2543 49.007 56.9418 49.3369C56.6293 49.6494 56.1605 49.823 55.5355 49.823H49.8756C49.2505 49.823 48.7818 49.6494 48.4693 49.3369C48.1568 49.007 48.0005 48.4861 48.0005 47.7569V34.9787C48.0005 34.8051 48.0352 34.7009 48.1047 34.6315C48.1741 34.5794 48.2783 34.5447 48.4519 34.5447H56.9591C57.1154 34.5447 57.2369 34.5794 57.3064 34.6315C57.3758 34.7009 57.4105 34.8051 57.4105 34.9787V47.7569ZM64.5462 42.8957C64.5462 43.0693 64.5115 43.1908 64.442 43.2429C64.3726 43.3123 64.2511 43.3297 64.0948 43.3297H62.4975V50.257C62.4975 50.4306 62.4628 50.5348 62.3933 50.6043C62.3239 50.6563 62.2024 50.6911 62.0461 50.6911H59.6155C59.4419 50.6911 59.3377 50.6563 59.2682 50.6043C59.1988 50.5348 59.1641 50.4306 59.1641 50.257V34.9787C59.1641 34.8051 59.1988 34.7009 59.2682 34.6315C59.3377 34.5794 59.4419 34.5447 59.6155 34.5447H62.0461C62.2024 34.5447 62.3239 34.5794 62.3933 34.6315C62.4628 34.7009 62.4975 34.8051 62.4975 34.9787V40.4477H64.0948C64.2511 40.4477 64.3726 40.4824 64.442 40.5345C64.5115 40.6039 64.5462 40.7081 64.5462 40.8817V42.8957ZM53.7299 47.0972C53.9208 47.0972 54.0597 47.0625 54.1292 46.9757C54.1986 46.9062 54.2333 46.7673 54.2333 46.5416V37.1837H51.1777V46.5416C51.1777 46.7673 51.2124 46.9062 51.2819 46.9757C51.3513 47.0625 51.4728 47.0972 51.6812 47.0972H53.7299ZM79.4599 44.736C79.4773 44.9096 79.4425 45.0311 79.3731 45.0659C79.2863 45.118 79.1648 45.1527 79.0085 45.17C78.2619 45.2569 77.5154 45.3263 76.7515 45.361C75.9702 45.4305 75.1889 45.4826 74.425 45.5173V47.618H80.0849C80.2412 47.618 80.3627 47.6528 80.4322 47.7049C80.5016 47.7743 80.5363 47.8785 80.5363 48.0521V50.0834C80.5363 50.257 80.5016 50.3612 80.4322 50.4306C80.3627 50.4827 80.2412 50.5174 80.0849 50.5174H65.4316C65.258 50.5174 65.1539 50.4827 65.0844 50.4306C65.015 50.3612 64.9802 50.257 64.9802 50.0834V48.0521C64.9802 47.8785 65.015 47.7743 65.0844 47.7049C65.1539 47.6528 65.258 47.618 65.4316 47.618H71.0916V45.6214C70.7443 45.6388 70.4318 45.6388 70.1193 45.6388H69.1818C68.0706 45.6388 67.272 45.3437 66.8032 44.736C66.3171 44.1457 66.074 43.2082 66.074 41.8887V34.9787C66.074 34.8051 66.1088 34.7009 66.1782 34.6315C66.2476 34.5794 66.3518 34.5447 66.5254 34.5447H78.8002C78.9564 34.5447 79.0779 34.5794 79.1474 34.6315C79.2168 34.7009 79.2516 34.8051 79.2516 34.9787V37.01C79.2516 37.1837 79.2168 37.3052 79.1474 37.3573C79.0779 37.4267 78.9564 37.4441 78.8002 37.4441H69.4075V38.6941H78.8175C78.9738 38.6941 79.0953 38.7289 79.1648 38.7809C79.2342 38.8504 79.2689 38.9546 79.2689 39.1282V40.9859C79.2689 41.1595 79.2342 41.281 79.1648 41.3331C79.0953 41.4026 78.9738 41.4199 78.8175 41.4199H69.4075V41.7324C69.4075 42.1491 69.4943 42.4616 69.6679 42.6526C69.8415 42.8609 70.154 42.9477 70.6228 42.9304C71.8728 42.913 73.227 42.8609 74.6507 42.7915C76.0744 42.722 77.4633 42.6179 78.8349 42.4616C78.9911 42.4443 79.0953 42.4616 79.1648 42.5311C79.2168 42.6005 79.2516 42.722 79.2863 42.8957L79.4599 44.736Z" fill="#222222"/>
<path d="M98.2187 50.6911C98.0451 50.6911 97.9409 50.6563 97.8714 50.6043C97.802 50.5348 97.7673 50.4306 97.7673 50.257V34.9787C97.7673 34.8051 97.802 34.7009 97.8714 34.6315C97.9409 34.5794 98.0451 34.5447 98.2187 34.5447H100.649C100.806 34.5447 100.927 34.5794 100.997 34.6315C101.066 34.7009 101.101 34.8051 101.101 34.9787V50.257C101.101 50.4306 101.066 50.5348 100.997 50.6043C100.927 50.6563 100.806 50.6911 100.649 50.6911H98.2187ZM89.7114 45.743C89.7114 46.1597 89.7983 46.4722 89.9719 46.6631C90.1455 46.8715 90.458 46.9583 90.9268 46.9409C91.7775 46.9236 92.6108 46.8889 93.4442 46.8368C94.2428 46.802 95.0936 46.75 95.9617 46.6631C96.1179 46.6458 96.2221 46.6631 96.2915 46.7152C96.3436 46.7847 96.3783 46.9062 96.4131 47.0798L96.5867 49.0938C96.604 49.2674 96.5693 49.3716 96.4999 49.4237C96.4131 49.4584 96.2915 49.4931 96.1353 49.5278C94.9894 49.6146 93.8609 49.6841 92.7845 49.7535C91.6907 49.7883 90.5969 49.823 89.4857 49.823C88.3746 49.823 87.576 49.5278 87.1072 48.9375C86.6211 48.3299 86.378 47.3923 86.378 46.0729V41.0727C86.378 40.8991 86.4127 40.7949 86.4822 40.7254C86.5516 40.6734 86.6558 40.6386 86.8294 40.6386H92.09C92.2463 40.6386 92.3678 40.6213 92.4372 40.5518C92.5067 40.4997 92.5414 40.3782 92.5414 40.2046V38.399C92.5414 37.9649 92.4546 37.6871 92.3157 37.5483C92.1594 37.4267 91.9337 37.3573 91.6386 37.3573H86.8294C86.6558 37.3573 86.5516 37.3399 86.4822 37.2705C86.4127 37.2184 86.378 37.0969 86.378 36.9232V34.9787C86.378 34.8051 86.4127 34.7009 86.4822 34.6315C86.5516 34.5794 86.6558 34.5447 86.8294 34.5447H93.4442C93.8783 34.5447 94.2602 34.5968 94.5727 34.7009C94.8852 34.8051 95.1283 34.9787 95.3366 35.2044C95.5103 35.4475 95.6491 35.76 95.7533 36.1246C95.8228 36.5066 95.8748 36.9753 95.8748 37.5135V43.0172C95.8748 43.1908 95.8401 43.3123 95.7707 43.3644C95.7012 43.4339 95.5797 43.4512 95.4234 43.4512H90.1628C89.9892 43.4512 89.8851 43.486 89.8156 43.538C89.7462 43.6075 89.7114 43.7117 89.7114 43.8853V45.743ZM104.191 34.9787C104.191 34.8051 104.226 34.7009 104.295 34.6315C104.365 34.5794 104.469 34.5447 104.643 34.5447H117.264C117.421 34.5447 117.542 34.5794 117.612 34.6315C117.681 34.7009 117.716 34.8051 117.716 34.9787V36.8364C117.716 37.01 117.681 37.1316 117.612 37.1837C117.542 37.2531 117.421 37.2705 117.264 37.2705H115.58V42.5831H117.351C117.508 42.5831 117.629 42.6179 117.699 42.67C117.768 42.7394 117.803 42.8436 117.803 43.0172V44.8749C117.803 45.0485 117.768 45.17 117.699 45.2221C117.629 45.2916 117.508 45.3089 117.351 45.3089H112.629V47.618H118.289C118.445 47.618 118.567 47.6528 118.636 47.7049C118.705 47.7743 118.74 47.8785 118.74 48.0521V50.0834C118.74 50.257 118.705 50.3612 118.636 50.4306C118.567 50.4827 118.445 50.5174 118.289 50.5174H103.636C103.462 50.5174 103.358 50.4827 103.288 50.4306C103.219 50.3612 103.184 50.257 103.184 50.0834V48.0521C103.184 47.8785 103.219 47.7743 103.288 47.7049C103.358 47.6528 103.462 47.618 103.636 47.618H109.295V45.3089H104.556C104.382 45.3089 104.278 45.2916 104.208 45.2221C104.139 45.17 104.104 45.0485 104.104 44.8749V43.0172C104.104 42.8436 104.139 42.7394 104.208 42.67C104.278 42.6179 104.382 42.5831 104.556 42.5831H106.344V37.2705H104.643C104.469 37.2705 104.365 37.2531 104.295 37.1837C104.226 37.1316 104.191 37.01 104.191 36.8364V34.9787ZM109.677 42.5831H112.247V37.2705H109.677V42.5831ZM133.987 44.736C134.005 44.9096 133.97 45.0311 133.9 45.0659C133.814 45.118 133.692 45.1527 133.536 45.17C132.737 45.2569 131.904 45.3263 131.07 45.3784C130.22 45.4478 129.369 45.4826 128.536 45.5173C127.685 45.5694 126.852 45.6041 126.053 45.6041C125.22 45.6388 124.438 45.6388 123.709 45.6388C122.598 45.6388 121.799 45.3437 121.33 44.736C120.844 44.1457 120.601 43.2082 120.601 41.8887V34.9787C120.601 34.8051 120.636 34.7009 120.705 34.6315C120.775 34.5794 120.879 34.5447 121.053 34.5447H133.327C133.484 34.5447 133.605 34.5794 133.675 34.6315C133.744 34.7009 133.779 34.8051 133.779 34.9787V37.01C133.779 37.1837 133.744 37.3052 133.675 37.3573C133.605 37.4267 133.484 37.4441 133.327 37.4441H123.935V38.6941H133.345C133.501 38.6941 133.623 38.7289 133.692 38.7809C133.761 38.8504 133.796 38.9546 133.796 39.1282V40.9859C133.796 41.1595 133.761 41.281 133.692 41.3331C133.623 41.4026 133.501 41.4199 133.345 41.4199H123.935V41.7324C123.935 42.1491 124.022 42.4616 124.195 42.6526C124.369 42.8609 124.681 42.9477 125.15 42.9304C126.4 42.913 127.754 42.8609 129.178 42.7915C130.602 42.722 131.991 42.6179 133.362 42.4616C133.518 42.4443 133.623 42.4616 133.692 42.5311C133.744 42.6005 133.779 42.722 133.814 42.8957L133.987 44.736ZM119.508 48.0521C119.508 47.8785 119.542 47.7743 119.612 47.7049C119.681 47.6528 119.785 47.618 119.959 47.618H134.612C134.768 47.618 134.89 47.6528 134.959 47.7049C135.029 47.7743 135.064 47.8785 135.064 48.0521V50.0834C135.064 50.257 135.029 50.3612 134.959 50.4306C134.89 50.4827 134.768 50.5174 134.612 50.5174H119.959C119.785 50.5174 119.681 50.4827 119.612 50.4306C119.542 50.3612 119.508 50.257 119.508 50.0834V48.0521Z" fill="#E24444"/>
<path d="M994.167 55.8334L1015.83 34.1667" stroke="#222222" stroke-width="3" stroke-linecap="round" stroke-linejoin="round"/>
<path d="M994.167 34.1667H1015.83V55.8334" stroke="#222222" stroke-width="3" stroke-linecap="round" stroke-linejoin="round"/>
</g>
<rect x="0.5" y="1.24707" width="1049" height="230.874" rx="19.5" stroke="#EE8F8F"/>
<defs>
<clipPath id="clip0_1_1434">
<rect y="0.74707" width="1050" height="231.874" rx="20" fill="white"/>
</clipPath>
</defs>
</svg>
