<svg width="411" height="571" viewBox="0 0 411 571" fill="none" xmlns="http://www.w3.org/2000/svg">
<rect width="411" height="568.265" rx="6" fill="#FCEFDA"/>
<path d="M2 417H411V551C411 562.046 402.046 571 391 571H22C10.9543 571 2 562.046 2 551V417Z" fill="#F7CE91"/>
<g filter="url(#filter0_f_1_846)">
<ellipse cx="94.5" cy="465.5" rx="48.5" ry="6.5" fill="#F5BD6D"/>
</g>
<g filter="url(#filter1_f_1_846)">
<ellipse cx="317.5" cy="465.5" rx="48.5" ry="6.5" fill="#F5BD6D"/>
</g>
<g filter="url(#filter2_f_1_846)">
<ellipse cx="209.5" cy="479.5" rx="69.5" ry="13.5" fill="#F5BD6D"/>
</g>
<path d="M73.0131 98.016C73.0131 99.528 72.6891 100.608 72.0411 101.292C71.3931 101.94 70.4211 102.3 69.1251 102.3H49.2171C47.9211 102.3 46.9491 101.94 46.3011 101.292C45.6531 100.608 45.3291 99.528 45.3291 98.016V92.22C45.3291 91.86 45.4011 91.644 45.5451 91.5C45.6891 91.392 45.9051 91.32 46.2651 91.32H55.7331V89.916H43.9971C43.6371 89.916 43.4211 89.88 43.2771 89.736C43.1331 89.628 43.0611 89.376 43.0611 89.016V85.164C43.0611 84.804 43.1331 84.588 43.2771 84.444C43.4211 84.336 43.6371 84.264 43.9971 84.264H74.3811C74.7051 84.264 74.9571 84.336 75.1011 84.444C75.2451 84.588 75.3171 84.804 75.3171 85.164V89.016C75.3171 89.376 75.2451 89.628 75.1011 89.736C74.9571 89.88 74.7051 89.916 74.3811 89.916H62.6451V91.32H72.0771C72.4011 91.32 72.6531 91.392 72.7971 91.5C72.9411 91.644 73.0131 91.86 73.0131 92.22V98.016ZM45.1131 70.26C45.1131 69.9 45.1851 69.684 45.3291 69.54C45.4731 69.432 45.6891 69.36 46.0491 69.36H55.9851V68.1C55.9851 67.848 56.0211 67.632 56.1651 67.452C56.2371 67.308 56.4891 67.2 56.8491 67.2H61.4211C61.7811 67.2 61.9971 67.308 62.1411 67.452C62.2131 67.632 62.2851 67.848 62.2851 68.1V69.36H72.2571C72.5811 69.36 72.8331 69.432 72.9771 69.54C73.1211 69.684 73.1931 69.9 73.1931 70.26V73.896C73.1931 74.256 73.1211 74.508 72.9771 74.616C72.8331 74.76 72.5811 74.796 72.2571 74.796H63.2571C64.0491 75.588 65.2371 76.128 66.8211 76.452C68.3691 76.812 70.2051 77.028 72.3291 77.172C72.4011 77.172 72.4731 77.208 72.6171 77.208C72.7251 77.244 72.8331 77.28 72.9771 77.352C73.0491 77.424 73.1571 77.532 73.2291 77.676C73.3011 77.82 73.3371 78.036 73.3371 78.288V81.816C73.3371 82.104 73.3011 82.284 73.2291 82.428C73.1211 82.572 73.0131 82.68 72.9051 82.716C72.7611 82.788 72.6171 82.824 72.5091 82.824C72.3651 82.86 72.2211 82.86 72.1491 82.86C68.8011 82.752 66.0291 82.356 63.8331 81.636C61.6011 80.952 60.0171 80.052 59.1171 78.972C58.1811 80.052 56.6331 80.952 54.4371 81.636C52.2051 82.356 49.4331 82.752 46.1211 82.86C46.0131 82.86 45.9051 82.86 45.7971 82.824C45.6531 82.824 45.5091 82.788 45.4011 82.716C45.2571 82.68 45.1491 82.572 45.0771 82.428C44.9691 82.284 44.9331 82.104 44.9331 81.816V78.288C44.9331 78.036 44.9691 77.82 45.0411 77.676C45.1131 77.532 45.1851 77.424 45.3291 77.352C45.4011 77.28 45.5091 77.244 45.6531 77.208C45.7611 77.208 45.8691 77.172 45.9411 77.172C48.0291 77.028 49.9011 76.812 51.4851 76.452C53.0331 76.128 54.1851 75.588 54.9771 74.796H46.0491C45.6891 74.796 45.4731 74.76 45.3291 74.616C45.1851 74.508 45.1131 74.256 45.1131 73.896V70.26ZM65.5251 97.476C65.8491 97.476 66.0651 97.44 66.2091 97.368C66.3171 97.296 66.3891 97.116 66.3891 96.864V95.964H51.8811V96.864C51.8811 97.116 51.9171 97.296 52.0611 97.368C52.1691 97.44 52.3851 97.476 52.7451 97.476H65.5251ZM107.292 100.788C107.328 101.076 107.256 101.256 107.112 101.328C106.932 101.4 106.68 101.436 106.356 101.508C104.7 101.652 103.08 101.796 101.532 101.904C99.9481 101.976 98.3641 102.084 96.7441 102.156L91.5961 102.264C89.7601 102.264 87.7441 102.3 85.5841 102.3C84.4681 102.3 83.4961 102.192 82.7041 102.012C81.8761 101.796 81.1921 101.508 80.6881 101.076C80.1481 100.644 79.7521 100.068 79.5361 99.384C79.2481 98.664 79.1401 97.8 79.1401 96.792V93.12C79.1401 92.796 79.2121 92.58 79.3561 92.436C79.5001 92.328 79.7161 92.256 80.0761 92.256H100.632V91.212H80.0761C79.4281 91.212 79.1401 90.888 79.1401 90.168V87.972C79.1401 87.612 79.2121 87.396 79.3561 87.252C79.5001 87.144 79.7161 87.072 80.0761 87.072H105.924C106.248 87.072 106.5 87.144 106.644 87.252C106.788 87.396 106.86 87.612 106.86 87.972V95.496C106.86 95.856 106.788 96.072 106.644 96.216C106.5 96.324 106.248 96.396 105.924 96.396H85.3681V96.972C85.3681 97.332 85.5121 97.584 85.8001 97.692C86.0881 97.764 86.5201 97.8 87.1321 97.8C89.1481 97.8 90.9841 97.764 92.7121 97.764C94.3681 97.728 95.9881 97.692 97.5001 97.656C99.0121 97.584 100.452 97.548 101.856 97.476C103.224 97.404 104.592 97.296 106.032 97.188C106.356 97.152 106.572 97.188 106.716 97.332C106.824 97.404 106.896 97.584 106.968 97.872L107.292 100.788ZM76.9081 81.636C76.9081 81.276 76.9801 81.06 77.1241 80.916C77.2681 80.808 77.4841 80.736 77.8441 80.736H108.228C108.552 80.736 108.804 80.808 108.948 80.916C109.092 81.06 109.164 81.276 109.164 81.636V84.804C109.164 85.164 109.092 85.416 108.948 85.524C108.804 85.668 108.552 85.704 108.228 85.704H77.8441C77.4841 85.704 77.2681 85.668 77.1241 85.524C76.9801 85.416 76.9081 85.164 76.9081 84.804V81.636ZM93.0361 79.62C90.4441 79.62 88.2481 79.512 86.4841 79.26C84.6841 79.044 83.2441 78.684 82.1641 78.18C81.0481 77.712 80.2561 77.1 79.7881 76.308C79.2841 75.588 79.0321 74.688 79.0321 73.68C79.0321 72.672 79.2841 71.772 79.7881 71.016C80.2561 70.296 81.0481 69.684 82.2001 69.18C83.2801 68.712 84.7201 68.352 86.5201 68.1C88.2841 67.884 90.4441 67.74 93.0361 67.74C95.5921 67.74 97.7521 67.884 99.5521 68.1C101.316 68.352 102.756 68.712 103.908 69.18C104.988 69.684 105.816 70.296 106.32 71.016C106.788 71.772 107.04 72.672 107.04 73.68C107.04 74.688 106.788 75.588 106.32 76.308C105.816 77.1 105.024 77.712 103.944 78.18C102.828 78.684 101.388 79.044 99.6241 79.26C97.8241 79.512 95.6281 79.62 93.0361 79.62ZM93.0361 74.616C94.5481 74.616 95.8081 74.616 96.7441 74.544C97.6801 74.544 98.4001 74.472 98.9401 74.364C99.4441 74.292 99.8041 74.22 100.02 74.076C100.164 73.968 100.272 73.824 100.272 73.68C100.272 73.536 100.164 73.428 100.02 73.284C99.8041 73.176 99.4441 73.068 98.9401 72.96C98.4001 72.888 97.6801 72.852 96.7441 72.78C95.8081 72.78 94.5481 72.744 93.0361 72.744C91.4881 72.744 90.2641 72.78 89.3281 72.78C88.3561 72.852 87.6361 72.888 87.1321 72.96C86.5921 73.068 86.2321 73.176 86.0881 73.284C85.8721 73.428 85.8001 73.536 85.8001 73.68C85.8001 73.824 85.8721 73.968 86.0881 74.076C86.2321 74.22 86.5921 74.292 87.1321 74.364C87.6361 74.472 88.3561 74.544 89.3281 74.544C90.2641 74.616 91.4881 74.616 93.0361 74.616ZM122.933 70.8C122.933 70.44 123.005 70.224 123.149 70.08C123.293 69.972 123.509 69.9 123.869 69.9H133.157V68.1C133.157 67.74 133.229 67.524 133.373 67.38C133.517 67.272 133.733 67.2 134.093 67.2H139.133C139.457 67.2 139.709 67.272 139.853 67.38C139.997 67.524 140.069 67.74 140.069 68.1V69.9H149.321C149.645 69.9 149.897 69.972 150.041 70.08C150.185 70.224 150.257 70.44 150.257 70.8V75.012C150.257 75.372 150.185 75.624 150.041 75.732C149.897 75.876 149.645 75.912 149.321 75.912H141.005C141.689 77.136 142.769 78.108 144.245 78.9C145.685 79.728 147.521 80.268 149.753 80.484C150.077 80.556 150.293 80.628 150.401 80.736C150.473 80.88 150.545 81.168 150.545 81.6V85.812C150.545 86.1 150.509 86.28 150.437 86.424C150.329 86.568 150.221 86.676 150.113 86.748C149.969 86.82 149.825 86.856 149.717 86.856H149.357C147.845 86.712 146.405 86.46 145.073 86.064C143.705 85.704 142.517 85.272 141.437 84.732C140.321 84.228 139.349 83.652 138.557 83.004C137.729 82.392 137.081 81.744 136.613 81.096C136.109 81.744 135.461 82.392 134.669 83.004C133.841 83.652 132.869 84.228 131.789 84.732C130.673 85.272 129.449 85.704 128.153 86.064C126.785 86.46 125.381 86.712 123.869 86.856H123.545C123.401 86.856 123.257 86.82 123.149 86.748C123.005 86.676 122.897 86.568 122.825 86.424C122.717 86.28 122.681 86.1 122.681 85.812V81.6C122.681 81.168 122.717 80.88 122.825 80.736C122.897 80.628 123.113 80.556 123.473 80.484C125.669 80.268 127.505 79.728 128.981 78.9C130.421 78.108 131.501 77.136 132.221 75.912H123.869C123.509 75.912 123.293 75.876 123.149 75.732C123.005 75.624 122.933 75.372 122.933 75.012V70.8ZM120.485 89.988C120.485 89.628 120.557 89.412 120.701 89.268C120.845 89.16 121.061 89.088 121.421 89.088H151.805C152.129 89.088 152.381 89.16 152.525 89.268C152.669 89.412 152.741 89.628 152.741 89.988V94.2C152.741 94.56 152.669 94.812 152.525 94.92C152.381 95.064 152.129 95.1 151.805 95.1H140.069V101.364C140.069 101.724 139.997 101.94 139.853 102.084C139.709 102.192 139.457 102.264 139.133 102.264H134.093C133.733 102.264 133.517 102.192 133.373 102.084C133.229 101.94 133.157 101.724 133.157 101.364V95.1H121.421C121.061 95.1 120.845 95.064 120.701 94.92C120.557 94.812 120.485 94.56 120.485 94.2V89.988ZM154.332 85.56C154.332 85.2 154.404 84.984 154.548 84.84C154.692 84.732 154.908 84.66 155.268 84.66H185.652C185.976 84.66 186.228 84.732 186.372 84.84C186.516 84.984 186.588 85.2 186.588 85.56V89.772C186.588 90.132 186.516 90.384 186.372 90.492C186.228 90.636 185.976 90.672 185.652 90.672H163.656V93.84C163.656 94.704 163.836 95.352 164.196 95.748C164.556 96.144 165.204 96.324 166.176 96.324C167.472 96.288 168.84 96.252 170.316 96.216C171.756 96.144 173.268 96.036 174.816 95.964C176.328 95.892 177.84 95.784 179.352 95.64C180.864 95.532 182.304 95.388 183.744 95.244C184.068 95.208 184.284 95.244 184.428 95.388C184.536 95.532 184.608 95.784 184.68 96.144L185.04 100.32C185.076 100.68 185.004 100.896 184.86 101.004C184.68 101.076 184.428 101.148 184.104 101.22C182.448 101.364 180.72 101.544 178.92 101.688L173.484 102.012L168.12 102.228C166.356 102.264 164.7 102.3 163.188 102.3C160.884 102.3 159.228 101.688 158.256 100.464C157.248 99.204 156.744 97.224 156.744 94.524V90.672H155.268C154.908 90.672 154.692 90.636 154.548 90.492C154.404 90.384 154.332 90.132 154.332 89.772V85.56ZM184.392 80.268C184.428 80.628 184.356 80.88 184.212 80.952C184.032 81.06 183.78 81.132 183.456 81.168C181.8 81.348 180.072 81.492 178.344 81.6C176.544 81.744 174.816 81.816 173.088 81.888C171.324 81.996 169.596 82.068 167.904 82.068C166.176 82.14 164.556 82.14 163.044 82.14C160.74 82.14 159.084 81.528 158.112 80.268C157.104 79.044 156.6 77.1 156.6 74.364V69C156.6 68.64 156.672 68.424 156.816 68.28C156.96 68.172 157.176 68.1 157.536 68.1H162.576C162.9 68.1 163.152 68.172 163.296 68.28C163.44 68.424 163.512 68.64 163.512 69V73.68C163.512 74.544 163.692 75.192 164.052 75.588C164.412 76.02 165.06 76.2 166.032 76.164C168.624 76.128 171.432 76.02 174.42 75.876C177.372 75.732 180.252 75.516 183.096 75.192C183.42 75.156 183.636 75.192 183.78 75.336C183.888 75.48 183.96 75.732 184.032 76.092L184.392 80.268ZM227.933 89.232C227.969 89.592 227.897 89.844 227.753 89.916C227.573 90.024 227.321 90.096 226.997 90.132C225.449 90.312 223.901 90.456 222.317 90.528C220.697 90.672 219.077 90.78 217.493 90.852V95.208H229.229C229.553 95.208 229.805 95.28 229.949 95.388C230.093 95.532 230.165 95.748 230.165 96.108V100.32C230.165 100.68 230.093 100.896 229.949 101.04C229.805 101.148 229.553 101.22 229.229 101.22H198.845C198.485 101.22 198.269 101.148 198.125 101.04C197.981 100.896 197.909 100.68 197.909 100.32V96.108C197.909 95.748 197.981 95.532 198.125 95.388C198.269 95.28 198.485 95.208 198.845 95.208H210.581V91.068C209.861 91.104 209.213 91.104 208.565 91.104H206.621C204.317 91.104 202.661 90.492 201.689 89.232C200.681 88.008 200.177 86.064 200.177 83.328V69C200.177 68.64 200.249 68.424 200.393 68.28C200.537 68.172 200.753 68.1 201.113 68.1H226.565C226.889 68.1 227.141 68.172 227.285 68.28C227.429 68.424 227.501 68.64 227.501 69V73.212C227.501 73.572 227.429 73.824 227.285 73.932C227.141 74.076 226.889 74.112 226.565 74.112H207.089V76.704H226.601C226.925 76.704 227.177 76.776 227.321 76.884C227.465 77.028 227.537 77.244 227.537 77.604V81.456C227.537 81.816 227.465 82.068 227.321 82.176C227.177 82.32 226.925 82.356 226.601 82.356H207.089V83.004C207.089 83.868 207.269 84.516 207.629 84.912C207.989 85.344 208.637 85.524 209.609 85.488C212.201 85.452 215.009 85.344 217.961 85.2C220.913 85.056 223.793 84.84 226.637 84.516C226.961 84.48 227.177 84.516 227.321 84.66C227.429 84.804 227.501 85.056 227.573 85.416L227.933 89.232ZM251.7 95.496C251.7 97.008 251.376 98.088 250.728 98.772C250.08 99.42 249.108 99.78 247.812 99.78H236.076C234.78 99.78 233.808 99.42 233.16 98.772C232.512 98.088 232.188 97.008 232.188 95.496V69C232.188 68.64 232.26 68.424 232.404 68.28C232.548 68.172 232.764 68.1 233.124 68.1H250.764C251.088 68.1 251.34 68.172 251.484 68.28C251.628 68.424 251.7 68.64 251.7 69V95.496ZM266.496 85.416C266.496 85.776 266.424 86.028 266.28 86.136C266.136 86.28 265.884 86.316 265.56 86.316H262.248V100.68C262.248 101.04 262.176 101.256 262.032 101.4C261.888 101.508 261.636 101.58 261.312 101.58H256.272C255.912 101.58 255.696 101.508 255.552 101.4C255.408 101.256 255.336 101.04 255.336 100.68V69C255.336 68.64 255.408 68.424 255.552 68.28C255.696 68.172 255.912 68.1 256.272 68.1H261.312C261.636 68.1 261.888 68.172 262.032 68.28C262.176 68.424 262.248 68.64 262.248 69V80.34H265.56C265.884 80.34 266.136 80.412 266.28 80.52C266.424 80.664 266.496 80.88 266.496 81.24V85.416ZM244.068 94.128C244.464 94.128 244.752 94.056 244.896 93.876C245.04 93.732 245.112 93.444 245.112 92.976V73.572H238.776V92.976C238.776 93.444 238.848 93.732 238.992 93.876C239.136 94.056 239.388 94.128 239.82 94.128H244.068ZM297.42 89.232C297.456 89.592 297.384 89.844 297.24 89.916C297.06 90.024 296.808 90.096 296.484 90.132C294.936 90.312 293.388 90.456 291.804 90.528C290.184 90.672 288.564 90.78 286.98 90.852V95.208H298.716C299.04 95.208 299.292 95.28 299.436 95.388C299.58 95.532 299.652 95.748 299.652 96.108V100.32C299.652 100.68 299.58 100.896 299.436 101.04C299.292 101.148 299.04 101.22 298.716 101.22H268.332C267.972 101.22 267.756 101.148 267.612 101.04C267.468 100.896 267.396 100.68 267.396 100.32V96.108C267.396 95.748 267.468 95.532 267.612 95.388C267.756 95.28 267.972 95.208 268.332 95.208H280.068V91.068C279.348 91.104 278.7 91.104 278.052 91.104H276.108C273.804 91.104 272.148 90.492 271.176 89.232C270.168 88.008 269.664 86.064 269.664 83.328V69C269.664 68.64 269.736 68.424 269.88 68.28C270.024 68.172 270.24 68.1 270.6 68.1H296.052C296.376 68.1 296.628 68.172 296.772 68.28C296.916 68.424 296.988 68.64 296.988 69V73.212C296.988 73.572 296.916 73.824 296.772 73.932C296.628 74.076 296.376 74.112 296.052 74.112H276.576V76.704H296.088C296.412 76.704 296.664 76.776 296.808 76.884C296.952 77.028 297.024 77.244 297.024 77.604V81.456C297.024 81.816 296.952 82.068 296.808 82.176C296.664 82.32 296.412 82.356 296.088 82.356H276.576V83.004C276.576 83.868 276.756 84.516 277.116 84.912C277.476 85.344 278.124 85.524 279.096 85.488C281.688 85.452 284.496 85.344 287.448 85.2C290.4 85.056 293.28 84.84 296.124 84.516C296.448 84.48 296.664 84.516 296.808 84.66C296.916 84.804 296.988 85.056 297.06 85.416L297.42 89.232ZM300.919 71.52C300.919 71.16 300.991 70.944 301.135 70.8C301.279 70.692 301.495 70.62 301.855 70.62H307.867V68.1C307.867 67.74 307.939 67.524 308.083 67.38C308.227 67.272 308.443 67.2 308.803 67.2H313.771C314.095 67.2 314.347 67.272 314.491 67.38C314.635 67.524 314.707 67.74 314.707 68.1V70.62H320.683C321.007 70.62 321.259 70.692 321.403 70.8C321.547 70.944 321.619 71.16 321.619 71.52V75.732C321.619 76.092 321.547 76.344 321.403 76.452C321.259 76.596 321.007 76.632 320.683 76.632H314.707V87.18C314.707 87.9 314.779 88.548 314.959 89.196C315.103 89.88 315.427 90.492 315.895 91.032C316.327 91.608 316.939 92.112 317.731 92.544C318.487 93.012 319.459 93.372 320.683 93.588C320.755 93.624 320.899 93.66 321.043 93.66C321.151 93.696 321.259 93.732 321.403 93.804C321.511 93.912 321.619 94.02 321.727 94.164C321.799 94.344 321.835 94.56 321.835 94.848V98.844C321.835 99.276 321.727 99.528 321.511 99.636C321.259 99.708 321.043 99.708 320.899 99.708C320.035 99.636 319.207 99.492 318.343 99.348C317.443 99.132 316.579 98.88 315.751 98.592C314.887 98.232 314.095 97.836 313.339 97.332C312.547 96.828 311.863 96.216 311.287 95.532C310.639 96.216 309.955 96.828 309.235 97.332C308.443 97.836 307.651 98.232 306.823 98.592C305.959 98.88 305.131 99.132 304.267 99.348C303.367 99.492 302.503 99.636 301.675 99.708C301.495 99.708 301.315 99.708 301.099 99.636C300.847 99.528 300.739 99.276 300.739 98.844V94.848C300.739 94.56 300.775 94.344 300.883 94.164C300.955 94.02 301.027 93.912 301.171 93.804C301.279 93.732 301.423 93.696 301.567 93.66C301.675 93.66 301.783 93.624 301.891 93.588C303.079 93.372 304.051 93.012 304.843 92.544C305.599 92.112 306.211 91.608 306.679 91.032C307.111 90.492 307.435 89.88 307.615 89.196C307.759 88.548 307.867 87.9 307.867 87.18V76.632H301.855C301.495 76.632 301.279 76.596 301.135 76.452C300.991 76.344 300.919 76.092 300.919 75.732V71.52ZM319.495 81.42C319.495 81.06 319.567 80.844 319.711 80.7C319.855 80.592 320.071 80.52 320.431 80.52H325.651V69C325.651 68.64 325.723 68.424 325.867 68.28C326.011 68.172 326.227 68.1 326.587 68.1H331.627C331.951 68.1 332.203 68.172 332.347 68.28C332.491 68.424 332.563 68.64 332.563 69V100.68C332.563 101.04 332.491 101.256 332.347 101.4C332.203 101.508 331.951 101.58 331.627 101.58H326.587C326.227 101.58 326.011 101.508 325.867 101.4C325.723 101.256 325.651 101.04 325.651 100.68V86.496H320.431C320.071 86.496 319.855 86.46 319.711 86.316C319.567 86.208 319.495 85.956 319.495 85.596V81.42ZM368.203 98.016C368.203 99.528 367.879 100.608 367.231 101.292C366.583 101.94 365.611 102.3 364.315 102.3H343.651C342.355 102.3 341.383 101.94 340.735 101.292C340.087 100.608 339.763 99.528 339.763 98.016V90.24C339.763 89.88 339.835 89.664 339.979 89.52C340.123 89.412 340.339 89.34 340.699 89.34H367.267C367.591 89.34 367.843 89.412 367.987 89.52C368.131 89.664 368.203 89.88 368.203 90.24V98.016ZM344.587 81.384C344.587 81.816 344.695 82.068 344.911 82.14C345.091 82.284 345.415 82.32 345.883 82.32C347.035 82.32 348.115 82.32 349.087 82.248C350.023 82.248 350.887 82.212 351.751 82.14C352.579 82.104 353.407 82.032 354.199 81.924C354.991 81.852 355.819 81.78 356.719 81.708C357.043 81.672 357.259 81.708 357.403 81.816C357.511 81.96 357.583 82.212 357.655 82.572L357.943 86.028C357.979 86.388 357.907 86.64 357.763 86.712C357.583 86.82 357.331 86.892 357.007 86.928C355.819 87.036 354.703 87.108 353.659 87.18C352.579 87.252 351.535 87.324 350.527 87.36C349.483 87.432 348.439 87.504 347.431 87.504C346.351 87.54 345.271 87.54 344.119 87.54C342.967 87.54 341.995 87.468 341.203 87.252C340.375 87.072 339.691 86.748 339.187 86.28C338.647 85.848 338.251 85.236 338.035 84.444C337.783 83.688 337.675 82.752 337.675 81.6V76.2C337.675 75.84 337.747 75.624 337.891 75.48C338.035 75.372 338.251 75.3 338.611 75.3H349.087C349.339 75.3 349.519 75.264 349.627 75.156C349.699 75.084 349.735 74.94 349.735 74.724V73.788C349.735 73.572 349.699 73.392 349.627 73.32C349.555 73.248 349.375 73.212 349.159 73.212H338.611C338.251 73.212 338.035 73.176 337.891 73.032C337.747 72.924 337.675 72.672 337.675 72.312V69C337.675 68.64 337.747 68.424 337.891 68.28C338.035 68.172 338.251 68.1 338.611 68.1H353.155C354.451 68.1 355.351 68.424 355.891 69.036C356.395 69.684 356.647 70.656 356.647 71.952V79.152C356.647 79.512 356.575 79.764 356.431 79.872C356.287 80.016 356.035 80.052 355.711 80.052H345.199C344.911 80.052 344.767 80.124 344.695 80.196C344.623 80.34 344.587 80.52 344.587 80.772V81.384ZM357.655 74.796C357.655 74.436 357.727 74.22 357.871 74.076C358.015 73.968 358.231 73.896 358.591 73.896H361.291V69C361.291 68.64 361.363 68.424 361.507 68.28C361.651 68.172 361.867 68.1 362.227 68.1H367.267C367.591 68.1 367.843 68.172 367.987 68.28C368.131 68.424 368.203 68.64 368.203 69V86.784C368.203 87.144 368.131 87.396 367.987 87.504C367.843 87.648 367.591 87.684 367.267 87.684H362.227C361.867 87.684 361.651 87.648 361.507 87.504C361.363 87.396 361.291 87.144 361.291 86.784V79.872H358.591C358.231 79.872 358.015 79.836 357.871 79.692C357.727 79.584 357.655 79.332 357.655 78.972V74.796ZM360.535 96.828C360.931 96.828 361.219 96.756 361.363 96.612C361.507 96.432 361.579 96.108 361.579 95.676V94.632H346.315V95.676C346.315 96.108 346.387 96.432 346.531 96.612C346.675 96.756 346.927 96.828 347.359 96.828H360.535Z" fill="#F2AD48"/>
<path d="M319.651 441.67C349.317 441.67 373.367 418.91 373.367 390.835C373.367 362.76 349.317 340 319.651 340C289.985 340 265.936 362.76 265.936 390.835C265.936 418.91 289.985 441.67 319.651 441.67Z" fill="#629665"/>
<path d="M332.339 358.785L326.012 360.344C325.504 360.467 325.189 361.01 325.329 361.518L326.976 367.196C327.239 368.089 326.188 368.773 325.469 368.177L320.247 363.796C319.896 363.498 319.388 363.498 319.037 363.796L313.815 368.177C313.096 368.773 312.045 368.089 312.307 367.196L313.955 361.518C314.095 361.01 313.797 360.467 313.271 360.344L306.945 358.785C305.998 358.557 305.998 357.19 306.945 356.962L313.271 355.403C313.78 355.28 314.095 354.737 313.955 354.229L312.307 348.551C312.045 347.657 313.096 346.974 313.815 347.57L319.037 351.951C319.388 352.248 319.896 352.248 320.247 351.951L325.469 347.57C326.188 346.974 327.239 347.657 326.976 348.551L325.329 354.229C325.189 354.737 325.487 355.28 326.012 355.403L332.339 356.962C333.285 357.19 333.285 358.557 332.339 358.785Z" fill="#4A734E"/>
<path d="M302.178 380.076C300.005 381.829 299.391 384.229 298.673 387.261C297.972 390.205 297.428 392.553 297.972 395.637C298.305 397.459 298.743 399.93 300.653 401.928C303.895 405.31 310.362 406.396 313.902 403.33C315.9 401.595 317.004 399.002 317.39 396.391C317.776 393.78 317.495 391.116 317.127 388.488C316.479 383.967 315.497 380.515 312.483 378.867C308.943 376.922 304.509 378.762 304.211 378.902C303.755 379.095 303.002 379.428 302.195 380.076H302.178Z" fill="#F5F1DE"/>
<path d="M307.085 384.702C305.245 385.333 304.351 386.962 304.246 387.173C303.773 388.084 303.702 389.083 303.808 391.063C303.878 392.237 304 393.411 304.211 394.585C304.351 395.426 304.544 396.285 304.982 397.038C305.665 398.212 306.927 399.036 308.294 399.141C309.644 399.264 311.046 398.668 311.904 397.616C312.728 396.618 313.044 395.321 313.306 394.059C313.674 392.272 313.955 390.414 313.622 388.627C313.394 387.383 312.956 385.841 311.589 385.017C310.029 384.071 307.944 384.527 307.593 384.597C307.47 384.632 307.313 384.667 307.102 384.737L307.085 384.702Z" fill="#222222"/>
<path d="M337.124 380.076C339.297 381.829 339.91 384.229 340.629 387.261C341.33 390.205 341.873 392.553 341.33 395.637C340.997 397.459 340.559 399.93 338.648 401.928C335.406 405.31 328.939 406.396 325.399 403.33C323.401 401.595 322.297 399.002 321.912 396.391C321.526 393.78 321.806 391.116 322.174 388.488C322.823 383.967 323.804 380.515 326.819 378.867C330.359 376.922 334.793 378.762 335.091 378.902C335.546 379.095 336.3 379.428 337.106 380.076H337.124Z" fill="#F5F1DE"/>
<path d="M332.216 384.702C334.056 385.333 334.95 386.962 335.055 387.173C335.529 388.084 335.599 389.083 335.494 391.063C335.423 392.237 335.301 393.411 335.09 394.585C334.95 395.426 334.757 396.285 334.319 397.038C333.636 398.212 332.374 399.036 331.007 399.141C329.658 399.264 328.256 398.668 327.397 397.616C326.573 396.618 326.258 395.321 325.995 394.059C325.627 392.272 325.346 390.414 325.679 388.627C325.907 387.383 326.345 385.841 327.712 385.017C329.272 384.071 331.358 384.527 331.708 384.597C331.831 384.632 331.988 384.667 332.199 384.737L332.216 384.702Z" fill="#222222"/>
<path d="M264.515 394.795C263.622 395.478 250.442 405.799 253.054 414.176C253.685 416.226 255.595 419.205 257.891 419.275C260.257 419.345 261.957 416.331 263.692 413.913C266.215 410.426 270.474 406.01 277.992 402.137C277.992 402.102 277.8 401.506 277.169 401.349C276.59 401.191 276.152 401.541 276.1 401.576" fill="#4A734E"/>
<path d="M269.826 387.453C267.811 388.82 248.287 402.278 251.319 412.581C252.003 414.877 254.228 418.487 256.945 418.609C259.609 418.732 261.466 415.455 263.815 412.511C266.636 408.972 271.333 404.468 279.447 400.683" fill="#629665"/>
<path d="M299.444 427.09C297.937 432.54 296.412 437.989 294.905 443.457C294.519 443.457 289.77 443.421 287.386 447.101C287.018 447.662 285.844 449.467 286.247 451.517C287.211 456.546 296.377 458.001 299.444 458.491C302.896 459.052 304.999 459.385 306.857 458.158C309.433 456.476 309.819 453.024 310.222 449.011C311.098 440.355 311.712 433.801 312.132 429.175" fill="#629665"/>
<path d="M339.857 427.09C341.365 432.54 342.889 437.989 344.396 443.457C344.782 443.457 349.531 443.421 351.915 447.101C352.283 447.662 353.457 449.467 353.054 451.517C352.09 456.546 342.924 458.001 339.857 458.491C336.405 459.052 334.302 459.385 332.444 458.158C329.868 456.476 329.482 453.024 329.079 449.011C328.203 440.355 327.59 433.801 327.169 429.175" fill="#629665"/>
<path d="M371.914 399.477C372.807 398.793 385.987 388.472 383.375 380.096C382.744 378.046 380.834 375.067 378.538 374.997C376.172 374.927 374.472 377.941 372.737 380.359C370.214 383.846 365.955 388.262 358.437 392.134C358.437 392.169 358.629 392.765 359.26 392.923C359.839 393.081 360.277 392.73 360.329 392.695" fill="#4A734E"/>
<path d="M366.621 406.818C368.637 405.452 388.16 391.994 385.128 381.69C384.445 379.395 382.219 375.785 379.503 375.662C376.839 375.539 374.981 378.816 372.633 381.76C369.811 385.3 365.114 389.803 357 393.588" fill="#629665"/>
<path d="M77.3074 285.545L68.2226 286.731C67.7499 286.792 67.4005 287.181 67.4005 287.651V302.396C66.5578 302.11 65.6328 301.987 64.6463 302.09C61.6043 302.417 59.2201 304.912 59.0146 307.959C58.7679 311.62 61.6865 314.667 65.3245 314.667C68.9626 314.667 71.6551 311.845 71.6551 308.368C71.6551 308.245 71.6551 308.102 71.6551 307.979V292.948C71.6551 292.539 71.9634 292.191 72.3745 292.13L77.4924 291.476C77.8829 291.414 78.1912 291.087 78.1912 290.699V286.363C78.1912 285.893 77.7801 285.545 77.3074 285.606V285.545Z" fill="#F2AD48"/>
<path d="M268.097 214L259.012 215.186C258.539 215.247 258.19 215.657 258.19 216.127V227.354C257.347 227.068 256.422 226.945 255.436 227.048C252.394 227.375 250.01 229.87 249.804 232.917C249.557 236.578 252.476 239.625 256.114 239.625C259.752 239.625 262.445 236.803 262.445 233.326C262.445 233.203 262.445 233.06 262.445 232.937V221.403C262.445 220.994 262.753 220.647 263.164 220.585L268.282 219.931C268.672 219.89 268.96 219.542 268.96 219.154V214.838C268.96 214.368 268.57 214 268.097 214.061V214Z" fill="#F2AD48"/>
<path d="M266.206 225.27L275.291 224.084C275.764 224.002 276.175 224.37 276.175 224.84V229.155C276.175 229.544 275.887 229.892 275.497 229.933L270.379 230.587C269.968 230.648 269.659 230.996 269.659 231.405V246.457C269.659 246.58 269.659 246.723 269.659 246.845C269.659 250.342 266.823 253.144 263.329 253.144C259.835 253.144 256.772 250.118 257.019 246.436C257.204 243.41 259.588 240.915 262.63 240.587C263.617 240.485 264.541 240.587 265.384 240.894V226.149C265.384 225.658 265.734 225.27 266.206 225.208V225.27Z" fill="#F2AD48"/>
<path d="M317.031 254.696C317.031 254.124 316.517 253.674 315.941 253.756L297.258 256.169C296.785 256.23 296.415 256.639 296.415 257.13V272.039C295.758 271.814 295.059 271.691 294.339 271.691C290.804 271.691 287.947 274.554 287.947 278.072C287.947 281.589 290.804 284.432 294.339 284.432C297.875 284.432 300.732 281.589 300.732 278.072C300.732 277.949 300.732 277.806 300.732 277.663V262.427C300.732 261.997 301.061 261.65 301.472 261.588L311.769 260.259C312.283 260.198 312.735 260.586 312.735 261.098V268.255C312.077 268.03 311.379 267.908 310.639 267.908C307.103 267.908 304.246 270.75 304.246 274.268C304.246 277.785 307.103 280.628 310.639 280.628C314.174 280.628 317.031 277.785 317.031 274.268V254.696Z" fill="#00A6ED"/>
<path d="M131.011 251.519C131.011 250.946 130.497 250.496 129.922 250.578L111.239 252.991C110.766 253.053 110.396 253.462 110.396 253.952V268.861C109.738 268.636 109.039 268.513 108.32 268.513C104.785 268.513 101.928 271.376 101.928 274.894C101.928 278.411 104.785 281.254 108.32 281.254C111.855 281.254 114.712 278.411 114.712 274.894C114.712 274.771 114.712 274.628 114.712 274.485V259.249C114.712 258.82 115.041 258.472 115.452 258.411L125.75 257.081C126.263 257.02 126.716 257.409 126.716 257.92V265.078C126.058 264.853 125.359 264.73 124.619 264.73C121.084 264.73 118.227 267.573 118.227 271.09C118.227 274.608 121.084 277.45 124.619 277.45C128.154 277.45 131.011 274.608 131.011 271.09V251.519Z" fill="#00A6ED"/>
<path d="M93.6682 445.67C123.335 445.67 147.384 422.91 147.384 394.835C147.384 366.76 123.335 344 93.6682 344C64.0019 344 39.9526 366.76 39.9526 394.835C39.9526 422.91 64.0019 445.67 93.6682 445.67Z" fill="#F2AD48"/>
<path d="M106.339 362.785L100.012 364.344C99.5041 364.467 99.1887 365.01 99.3289 365.518L100.976 371.196C101.239 372.089 100.188 372.773 99.4691 372.177L94.2465 367.796C93.896 367.498 93.3877 367.498 93.0372 367.796L87.8146 372.177C87.0961 372.773 86.0446 372.089 86.3074 371.196L87.9548 365.518C88.095 365.01 87.7971 364.467 87.2713 364.344L80.9446 362.785C79.9983 362.557 79.9983 361.19 80.9446 360.962L87.2713 359.403C87.7796 359.28 88.095 358.737 87.9548 358.229L86.3074 352.551C86.0446 351.657 87.0961 350.974 87.8146 351.57L93.0372 355.951C93.3877 356.248 93.896 356.248 94.2465 355.951L99.4691 351.57C100.188 350.974 101.239 351.657 100.976 352.551L99.3289 358.229C99.1887 358.737 99.4866 359.28 100.012 359.403L106.339 360.962C107.285 361.19 107.285 362.557 106.339 362.785Z" fill="#4A734E"/>
<path d="M76.1954 384.076C74.0223 385.829 73.4089 388.229 72.6903 391.261C71.9893 394.205 71.446 396.553 71.9893 399.637C72.3223 401.459 72.7604 403.93 74.6707 405.928C77.9129 409.31 84.3798 410.396 87.92 407.33C89.9179 405.595 91.022 403.002 91.4075 400.391C91.7931 397.78 91.5127 395.116 91.1447 392.488C90.4962 387.967 89.5148 384.515 86.5004 382.867C82.9603 380.922 78.5263 382.762 78.2284 382.902C77.7727 383.095 77.0191 383.428 76.213 384.076H76.1954Z" fill="#F5F1DE"/>
<path d="M81.0849 388.702C79.2447 389.333 78.3509 390.962 78.2458 391.173C77.7726 392.084 77.7025 393.083 77.8076 395.063C77.8777 396.237 78.0004 397.411 78.2107 398.585C78.3509 399.426 78.5437 400.285 78.9818 401.038C79.6653 402.212 80.9271 403.036 82.2941 403.141C83.6436 403.264 85.0456 402.668 85.9044 401.616C86.7281 400.618 87.0435 399.321 87.3064 398.059C87.6745 396.272 87.9549 394.414 87.6219 392.627C87.394 391.383 86.9559 389.841 85.5889 389.017C84.0292 388.071 81.9436 388.527 81.5931 388.597C81.4704 388.632 81.3127 388.667 81.1024 388.737L81.0849 388.702Z" fill="#222222"/>
<path d="M111.141 384.076C113.314 385.829 113.928 388.229 114.646 391.261C115.347 394.205 115.891 396.553 115.347 399.637C115.014 401.459 114.576 403.93 112.666 405.928C109.424 409.31 102.957 410.396 99.4168 407.33C97.4189 405.595 96.3147 403.002 95.9292 400.391C95.5436 397.78 95.824 395.116 96.1921 392.488C96.8405 387.967 97.8219 384.515 100.836 382.867C104.376 380.922 108.81 382.762 109.108 382.902C109.564 383.095 110.318 383.428 111.124 384.076H111.141Z" fill="#F5F1DE"/>
<path d="M106.234 388.702C108.074 389.333 108.968 390.962 109.073 391.173C109.546 392.084 109.616 393.083 109.511 395.063C109.441 396.237 109.318 397.411 109.108 398.585C108.968 399.426 108.775 400.285 108.337 401.038C107.653 402.212 106.392 403.036 105.025 403.141C103.675 403.264 102.273 402.668 101.414 401.616C100.591 400.618 100.275 399.321 100.012 398.059C99.6443 396.272 99.3639 394.414 99.6969 392.627C99.9247 391.383 100.363 389.841 101.73 389.017C103.29 388.071 105.375 388.527 105.726 388.597C105.848 388.632 106.006 388.667 106.216 388.737L106.234 388.702Z" fill="#222222"/>
<path d="M38.533 406.477C37.6392 405.793 24.46 395.472 27.0713 387.096C27.7022 385.046 29.6125 382.067 31.9083 381.997C34.2743 381.927 35.9742 384.941 37.7093 387.359C40.2329 390.846 44.4916 395.262 52.01 399.134C52.01 399.169 51.8173 399.765 51.1863 399.923C50.608 400.081 50.1699 399.73 50.1173 399.695" fill="#A87533"/>
<path d="M43.826 413.818C41.8105 412.452 22.2872 398.994 25.3191 388.69C26.0026 386.395 28.2283 382.785 30.9447 382.662C33.6086 382.539 35.4663 385.816 37.8147 388.76C40.6363 392.3 45.3331 396.803 53.4474 400.588" fill="#F2AD48"/>
<path d="M73.4439 431.09C71.9367 436.54 70.412 441.989 68.9048 447.457C68.5192 447.457 63.7698 447.421 61.3863 451.101C61.0183 451.662 59.8441 453.467 60.2472 455.517C61.2111 460.546 70.3769 462.001 73.4439 462.491C76.8964 463.052 78.9994 463.385 80.8571 462.158C83.4334 460.476 83.8189 457.024 84.222 453.011C85.0983 444.355 85.7117 437.801 86.1323 433.175" fill="#F2AD48"/>
<path d="M113.875 431.09C115.382 436.54 116.907 441.989 118.414 447.457C118.8 447.457 123.549 447.421 125.932 451.101C126.301 451.662 127.475 453.467 127.072 455.517C126.108 460.546 116.942 462.001 113.875 462.491C110.422 463.052 108.319 463.385 106.462 462.158C103.885 460.476 103.5 457.024 103.097 453.011C102.221 444.355 101.607 437.801 101.187 433.175" fill="#F2AD48"/>
<path d="M148.786 398.795C149.679 399.478 162.859 409.799 160.247 418.176C159.616 420.226 157.706 423.205 155.41 423.275C153.044 423.345 151.344 420.331 149.609 417.913C147.086 414.426 142.827 410.01 135.309 406.137C135.309 406.102 135.501 405.506 136.132 405.349C136.711 405.191 137.149 405.541 137.201 405.576" fill="#A87533"/>
<path d="M143.493 391.453C145.508 392.82 165.032 406.278 162 416.581C161.316 418.877 159.091 422.487 156.374 422.609C153.71 422.732 151.853 419.455 149.504 416.511C146.683 412.972 141.986 408.468 133.872 404.683" fill="#F2AD48"/>
<path d="M209.127 449.646C256.294 449.646 294.53 413.46 294.53 368.823C294.53 324.186 256.294 288 209.127 288C161.96 288 123.724 324.186 123.724 368.823C123.724 413.46 161.96 449.646 209.127 449.646Z" fill="#E24444"/>
<path d="M229.272 317.865L219.214 320.344C218.405 320.539 217.904 321.403 218.127 322.211L220.746 331.238C221.164 332.658 219.492 333.745 218.35 332.798L210.046 325.833C209.489 325.359 208.681 325.359 208.124 325.833L199.82 332.798C198.678 333.745 197.006 332.658 197.424 331.238L200.043 322.211C200.266 321.403 199.792 320.539 198.956 320.344L188.898 317.865C187.393 317.502 187.393 315.329 188.898 314.967L198.956 312.488C199.764 312.293 200.266 311.429 200.043 310.621L197.424 301.594C197.006 300.173 198.678 299.087 199.82 300.034L208.124 306.999C208.681 307.473 209.489 307.473 210.046 306.999L218.35 300.034C219.492 299.087 221.164 300.173 220.746 301.594L218.127 310.621C217.904 311.429 218.378 312.293 219.214 312.488L229.272 314.967C230.777 315.329 230.777 317.502 229.272 317.865Z" fill="#4A734E"/>
<path d="M181.347 351.719C177.892 354.505 176.916 358.322 175.774 363.142C174.659 367.822 173.796 371.556 174.659 376.459C175.189 379.357 175.885 383.285 178.923 386.461C184.077 391.838 194.359 393.565 199.988 388.69C203.164 385.932 204.92 381.808 205.533 377.657C206.146 373.506 205.7 369.271 205.115 365.092C204.084 357.904 202.523 352.416 197.731 349.797C192.102 346.704 185.053 349.63 184.579 349.853C183.854 350.159 182.656 350.688 181.375 351.719H181.347Z" fill="#F5F1DE"/>
<path d="M189.149 359.07C186.223 360.073 184.802 362.664 184.635 362.998C183.882 364.447 183.771 366.035 183.938 369.183C184.05 371.05 184.245 372.916 184.579 374.783C184.802 376.12 185.108 377.485 185.805 378.683C186.892 380.55 188.898 381.859 191.071 382.027C193.217 382.222 195.446 381.274 196.811 379.603C198.121 378.015 198.622 375.953 199.04 373.947C199.626 371.105 200.071 368.152 199.542 365.31C199.18 363.332 198.483 360.881 196.31 359.571C193.83 358.067 190.514 358.791 189.957 358.902C189.762 358.958 189.511 359.014 189.177 359.125L189.149 359.07Z" fill="#222222"/>
<path d="M236.907 351.719C240.363 354.505 241.338 358.322 242.48 363.142C243.595 367.822 244.458 371.556 243.595 376.459C243.065 379.357 242.369 383.285 239.332 386.461C234.177 391.838 223.895 393.565 218.266 388.69C215.09 385.932 213.334 381.808 212.721 377.657C212.108 373.506 212.554 369.271 213.139 365.092C214.17 357.904 215.731 352.416 220.523 349.797C226.152 346.704 233.201 349.63 233.675 349.853C234.4 350.159 235.598 350.688 236.879 351.719H236.907Z" fill="#F5F1DE"/>
<path d="M229.106 359.07C232.032 360.073 233.453 362.664 233.62 362.998C234.372 364.447 234.484 366.035 234.317 369.183C234.205 371.05 234.01 372.916 233.676 374.783C233.453 376.12 233.146 377.486 232.45 378.684C231.363 380.55 229.357 381.86 227.183 382.027C225.038 382.222 222.809 381.275 221.443 379.603C220.134 378.015 219.632 375.953 219.214 373.947C218.629 371.105 218.183 368.152 218.713 365.311C219.075 363.332 219.772 360.881 221.945 359.571C224.425 358.067 227.741 358.791 228.298 358.903C228.493 358.958 228.744 359.014 229.078 359.126L229.106 359.07Z" fill="#222222"/>
<path d="M121.467 387.328C120.046 386.242 99.0919 369.832 103.244 356.515C104.247 353.255 107.284 348.519 110.934 348.407C114.696 348.296 117.399 353.088 120.157 356.933C124.169 362.477 130.94 369.498 142.894 375.655C142.894 375.71 142.588 376.658 141.584 376.908C140.665 377.159 139.968 376.602 139.885 376.546" fill="#963030"/>
<path d="M129.91 399.002C126.706 396.829 95.6653 375.432 100.486 359.05C101.573 355.401 105.111 349.661 109.43 349.466C113.665 349.271 116.619 354.481 120.353 359.162C124.839 364.789 132.306 371.95 145.207 377.967" fill="#E24444"/>
<path d="M176.999 426.465C174.603 435.129 172.179 443.794 169.783 452.486C169.17 452.486 161.619 452.431 157.829 458.281C157.244 459.173 155.377 462.042 156.018 465.302C157.55 473.298 172.123 475.61 176.999 476.39C182.489 477.282 185.832 477.811 188.786 475.861C192.882 473.186 193.495 467.698 194.136 461.318C195.529 447.555 196.504 437.135 197.173 429.78" fill="#E24444"/>
<path d="M241.253 426.465C243.649 435.129 246.074 443.794 248.47 452.486C249.083 452.486 256.634 452.431 260.423 458.281C261.009 459.173 262.876 462.042 262.235 465.302C260.702 473.298 246.129 475.61 241.253 476.39C235.764 477.282 232.42 477.811 229.467 475.861C225.371 473.186 224.758 467.698 224.117 461.318C222.724 447.555 221.748 437.135 221.08 429.78" fill="#E24444"/>
<path d="M293.209 389.327C294.723 388.374 317.081 373.935 314.156 360.296C313.453 356.959 310.859 351.966 307.234 351.524C303.498 351.071 300.371 355.598 297.274 359.176C292.775 364.333 285.394 370.71 272.931 375.756C272.926 375.811 273.145 376.782 274.121 377.123C275.014 377.456 275.758 376.965 275.847 376.917" fill="#963030"/>
<path d="M283.742 400.186C287.13 398.313 319.986 379.824 316.673 363.072C315.923 359.339 312.92 353.302 308.637 352.716C304.436 352.137 301.022 357.057 296.878 361.379C291.9 366.576 283.813 373.028 270.418 377.849" fill="#E24444"/>
<defs>
<filter id="filter0_f_1_846" x="36" y="449" width="117" height="33" filterUnits="userSpaceOnUse" color-interpolation-filters="sRGB">
<feFlood flood-opacity="0" result="BackgroundImageFix"/>
<feBlend mode="normal" in="SourceGraphic" in2="BackgroundImageFix" result="shape"/>
<feGaussianBlur stdDeviation="5" result="effect1_foregroundBlur_1_846"/>
</filter>
<filter id="filter1_f_1_846" x="259" y="449" width="117" height="33" filterUnits="userSpaceOnUse" color-interpolation-filters="sRGB">
<feFlood flood-opacity="0" result="BackgroundImageFix"/>
<feBlend mode="normal" in="SourceGraphic" in2="BackgroundImageFix" result="shape"/>
<feGaussianBlur stdDeviation="5" result="effect1_foregroundBlur_1_846"/>
</filter>
<filter id="filter2_f_1_846" x="130" y="456" width="159" height="47" filterUnits="userSpaceOnUse" color-interpolation-filters="sRGB">
<feFlood flood-opacity="0" result="BackgroundImageFix"/>
<feBlend mode="normal" in="SourceGraphic" in2="BackgroundImageFix" result="shape"/>
<feGaussianBlur stdDeviation="5" result="effect1_foregroundBlur_1_846"/>
</filter>
</defs>
</svg>
