<svg width="411" height="580" viewBox="0 0 411 580" fill="none" xmlns="http://www.w3.org/2000/svg">
<rect width="411" height="567.735" rx="6" fill="#FCEFDA"/>
<path fill-rule="evenodd" clip-rule="evenodd" d="M411 451.484V548.001C411 559.046 402.046 568.001 391 568.001H20C8.95432 568.001 0 559.046 0 548.001V456.956C53.4916 423.028 127.822 402 210 402C287.665 402 358.32 420.782 411 451.484Z" fill="url(#paint0_linear_1_1188)"/>
<path d="M32.972 89.268C32.972 88.908 33.044 88.692 33.188 88.548C33.332 88.44 33.548 88.368 33.908 88.368H64.292C64.616 88.368 64.868 88.44 65.012 88.548C65.156 88.692 65.228 88.908 65.228 89.268V93.48C65.228 93.84 65.156 94.092 65.012 94.2C64.868 94.344 64.616 94.38 64.292 94.38H52.556V101.364C52.556 101.724 52.484 101.94 52.34 102.084C52.196 102.192 51.944 102.264 51.62 102.264H46.58C46.22 102.264 46.004 102.192 45.86 102.084C45.716 101.94 45.644 101.724 45.644 101.364V94.38H33.908C33.548 94.38 33.332 94.344 33.188 94.2C33.044 94.092 32.972 93.84 32.972 93.48V89.268ZM62.996 83.508C63.032 83.868 62.96 84.12 62.816 84.192C62.636 84.3 62.384 84.372 62.06 84.408C60.404 84.588 58.676 84.732 56.948 84.84C55.184 84.984 53.42 85.056 51.692 85.128C49.928 85.236 48.2 85.308 46.544 85.308C44.816 85.38 43.196 85.38 41.684 85.38C39.38 85.38 37.724 84.768 36.752 83.508C35.744 82.284 35.24 80.34 35.24 77.604V69C35.24 68.64 35.312 68.424 35.456 68.28C35.6 68.172 35.816 68.1 36.176 68.1H41.216C41.54 68.1 41.792 68.172 41.936 68.28C42.08 68.424 42.152 68.64 42.152 69V76.92C42.152 77.784 42.332 78.432 42.692 78.828C43.052 79.26 43.7 79.44 44.672 79.404C47.264 79.368 50.072 79.26 53.024 79.116C55.976 78.972 58.856 78.756 61.7 78.432C62.024 78.396 62.24 78.432 62.384 78.576C62.492 78.72 62.564 78.972 62.636 79.332L62.996 83.508ZM67.251 69C67.251 68.64 67.323 68.424 67.467 68.28C67.611 68.172 67.827 68.1 68.187 68.1H80.607C81.507 68.1 82.299 68.208 82.947 68.424C83.595 68.64 84.135 69 84.567 69.468C84.963 69.972 85.251 70.62 85.467 71.376C85.611 72.168 85.683 73.14 85.683 74.256C85.647 75.912 85.539 77.748 85.323 79.8C85.071 81.888 84.783 84.048 84.423 86.28C84.063 88.548 83.631 90.816 83.199 93.12C82.695 95.46 82.227 97.656 81.723 99.78C81.615 100.14 81.507 100.392 81.435 100.572C81.327 100.716 81.111 100.752 80.787 100.68L75.783 99.636C75.603 99.6 75.459 99.564 75.351 99.564C75.207 99.492 75.063 99.42 74.991 99.348C74.883 99.24 74.847 99.132 74.847 98.988C74.811 98.808 74.847 98.592 74.919 98.304C75.423 96.468 75.891 94.56 76.359 92.508C76.791 90.492 77.223 88.512 77.583 86.532C77.907 84.588 78.195 82.752 78.411 80.952C78.627 79.188 78.735 77.64 78.735 76.272C78.735 75.372 78.591 74.796 78.339 74.508C78.051 74.256 77.619 74.112 77.007 74.112H68.187C67.827 74.112 67.611 74.076 67.467 73.932C67.323 73.824 67.251 73.572 67.251 73.212V69ZM101.559 85.416C101.559 85.776 101.487 86.028 101.343 86.136C101.199 86.28 100.947 86.316 100.623 86.316H97.311V100.68C97.311 101.04 97.239 101.256 97.095 101.4C96.951 101.508 96.699 101.58 96.375 101.58H91.335C90.975 101.58 90.759 101.508 90.615 101.4C90.471 101.256 90.399 101.04 90.399 100.68V69C90.399 68.64 90.471 68.424 90.615 68.28C90.759 68.172 90.975 68.1 91.335 68.1H96.375C96.699 68.1 96.951 68.172 97.095 68.28C97.239 68.424 97.311 68.64 97.311 69V80.34H100.623C100.947 80.34 101.199 80.412 101.343 80.52C101.487 80.664 101.559 80.88 101.559 81.24V85.416Z" fill="#E24444"/>
<path d="M143.113 100.788C143.149 101.076 143.077 101.256 142.933 101.328C142.753 101.4 142.501 101.436 142.177 101.508C140.521 101.652 138.865 101.796 137.281 101.904C135.625 101.976 133.969 102.084 132.241 102.156L126.841 102.264C124.933 102.264 122.881 102.3 120.721 102.3C118.489 102.3 116.833 101.832 115.825 100.932C114.781 99.996 114.277 98.484 114.277 96.432V92.22C114.277 91.896 114.349 91.68 114.493 91.536C114.637 91.428 114.853 91.356 115.213 91.356H136.453V89.988H115.213C114.853 89.988 114.637 89.952 114.493 89.808C114.349 89.7 114.277 89.484 114.277 89.124V86.352C114.277 85.992 114.349 85.776 114.493 85.632C114.637 85.524 114.853 85.452 115.213 85.452H141.745C142.069 85.452 142.321 85.524 142.465 85.632C142.609 85.776 142.681 85.992 142.681 86.352V94.956C142.681 95.316 142.609 95.568 142.465 95.676C142.321 95.82 142.069 95.856 141.745 95.856H120.505V96.252C120.505 96.792 120.649 97.116 120.937 97.26C121.225 97.368 121.657 97.44 122.269 97.44C124.285 97.44 126.157 97.404 127.957 97.404L132.997 97.296C134.581 97.224 136.093 97.188 137.569 97.116C139.009 97.044 140.413 96.936 141.853 96.828C142.429 96.792 142.753 97.008 142.789 97.512L143.113 100.788ZM122.809 67.92C124.825 67.92 126.553 68.172 127.921 68.604C129.253 69.072 130.333 69.684 131.161 70.404C131.953 71.196 132.493 72.024 132.853 72.96C133.177 73.932 133.357 74.904 133.357 75.912C133.357 76.92 133.177 77.928 132.889 78.864C132.529 79.836 131.989 80.7 131.197 81.42C130.369 82.212 129.289 82.824 127.957 83.256C126.589 83.724 124.861 83.94 122.809 83.94C120.721 83.94 119.029 83.724 117.697 83.256C116.329 82.824 115.249 82.212 114.457 81.42C113.629 80.7 113.053 79.836 112.765 78.864C112.405 77.928 112.261 76.92 112.261 75.912C112.261 74.904 112.405 73.932 112.765 72.96C113.089 72.024 113.665 71.196 114.493 70.404C115.285 69.684 116.365 69.072 117.733 68.604C119.065 68.172 120.757 67.92 122.809 67.92ZM136.705 83.94C136.345 83.94 136.129 83.904 135.985 83.76C135.841 83.652 135.769 83.4 135.769 83.04V69C135.769 68.64 135.841 68.424 135.985 68.28C136.129 68.172 136.345 68.1 136.705 68.1H141.745C142.069 68.1 142.321 68.172 142.465 68.28C142.609 68.424 142.681 68.64 142.681 69V72.816H145.993C146.317 72.816 146.569 72.888 146.713 72.996C146.857 73.14 146.929 73.356 146.929 73.716V77.892C146.929 78.252 146.857 78.504 146.713 78.612C146.569 78.756 146.317 78.792 145.993 78.792H142.681V83.04C142.681 83.4 142.609 83.652 142.465 83.76C142.321 83.904 142.069 83.94 141.745 83.94H136.705ZM122.809 78.324C123.241 78.324 123.673 78.288 124.141 78.216C124.573 78.18 125.005 78.072 125.401 77.856C125.761 77.712 126.085 77.46 126.337 77.1C126.553 76.812 126.697 76.38 126.697 75.876C126.697 75.372 126.553 74.976 126.337 74.652C126.085 74.364 125.761 74.112 125.401 73.896C125.005 73.752 124.573 73.608 124.141 73.536C123.673 73.5 123.241 73.464 122.809 73.464C122.377 73.464 121.909 73.5 121.477 73.536C121.009 73.608 120.577 73.752 120.217 73.896C119.821 74.112 119.497 74.364 119.281 74.652C119.029 74.976 118.921 75.372 118.921 75.876C118.921 76.38 119.029 76.812 119.281 77.1C119.497 77.46 119.821 77.712 120.217 77.856C120.577 78.072 121.009 78.18 121.477 78.216C121.909 78.288 122.377 78.324 122.809 78.324ZM155.533 91.32C155.533 92.184 155.713 92.832 156.073 93.228C156.433 93.66 157.081 93.84 158.053 93.804C159.817 93.768 161.545 93.696 163.273 93.588C164.929 93.516 166.693 93.408 168.493 93.228C168.817 93.192 169.033 93.228 169.177 93.336C169.285 93.48 169.357 93.732 169.429 94.092L169.789 98.268C169.825 98.628 169.753 98.844 169.609 98.952C169.429 99.024 169.177 99.096 168.853 99.168C166.477 99.348 164.137 99.492 161.905 99.636C159.637 99.708 157.369 99.78 155.065 99.78C152.761 99.78 151.105 99.168 150.133 97.944C149.125 96.684 148.621 94.74 148.621 92.004V81.636C148.621 81.276 148.693 81.06 148.837 80.916C148.981 80.808 149.197 80.736 149.557 80.736H160.465C160.789 80.736 161.041 80.7 161.185 80.556C161.329 80.448 161.401 80.196 161.401 79.836V76.092C161.401 75.192 161.221 74.616 160.933 74.328C160.609 74.076 160.141 73.932 159.529 73.932H149.557C149.197 73.932 148.981 73.896 148.837 73.752C148.693 73.644 148.621 73.392 148.621 73.032V69C148.621 68.64 148.693 68.424 148.837 68.28C148.981 68.172 149.197 68.1 149.557 68.1H163.273C165.073 68.1 166.369 68.568 167.161 69.468C167.917 70.404 168.313 71.988 168.313 74.22H172.237V69C172.237 68.64 172.309 68.424 172.453 68.28C172.597 68.172 172.813 68.1 173.173 68.1H178.213C178.537 68.1 178.789 68.172 178.933 68.28C179.077 68.424 179.149 68.64 179.149 69V100.68C179.149 101.04 179.077 101.256 178.933 101.4C178.789 101.508 178.537 101.58 178.213 101.58H173.173C172.813 101.58 172.597 101.508 172.453 101.4C172.309 101.256 172.237 101.04 172.237 100.68V91.896H167.017C166.657 91.896 166.441 91.86 166.297 91.716C166.153 91.608 166.081 91.356 166.081 90.996V86.82V86.676C166.045 86.676 166.045 86.64 166.081 86.568H156.469C156.109 86.568 155.893 86.64 155.749 86.748C155.605 86.892 155.533 87.108 155.533 87.468V91.32ZM168.313 85.92H172.237V80.196H168.313V85.668V85.92ZM185.917 69C185.917 68.64 185.989 68.424 186.133 68.28C186.277 68.172 186.493 68.1 186.853 68.1H212.305C212.629 68.1 212.881 68.172 213.025 68.28C213.169 68.424 213.241 68.64 213.241 69V73.212C213.241 73.572 213.169 73.824 213.025 73.932C212.881 74.076 212.629 74.112 212.305 74.112H203.449C203.989 75.588 205.033 76.812 206.617 77.82C208.129 78.864 210.181 79.512 212.737 79.764C213.061 79.836 213.277 79.908 213.385 80.016C213.457 80.16 213.529 80.448 213.529 80.88V85.092C213.529 85.38 213.493 85.56 213.421 85.704C213.313 85.848 213.205 85.956 213.097 86.028C212.953 86.1 212.809 86.136 212.701 86.136H212.341C210.829 85.992 209.389 85.74 208.057 85.344C206.689 84.984 205.501 84.552 204.421 84.012C203.305 83.508 202.333 82.932 201.541 82.284C200.713 81.672 200.065 81.024 199.597 80.376C199.093 81.024 198.445 81.672 197.653 82.284C196.825 82.932 195.853 83.508 194.773 84.012C193.657 84.552 192.433 84.984 191.137 85.344C189.769 85.74 188.365 85.992 186.853 86.136H186.529C186.385 86.136 186.241 86.1 186.133 86.028C185.989 85.956 185.881 85.848 185.809 85.704C185.701 85.56 185.665 85.38 185.665 85.092V80.88C185.665 80.448 185.701 80.16 185.809 80.016C185.881 79.908 186.097 79.836 186.457 79.764C188.977 79.512 191.029 78.864 192.613 77.82C194.125 76.812 195.169 75.588 195.709 74.112H186.853C186.493 74.112 186.277 74.076 186.133 73.932C185.989 73.824 185.917 73.572 185.917 73.212V69ZM183.469 89.268C183.469 88.908 183.541 88.692 183.685 88.548C183.829 88.44 184.045 88.368 184.405 88.368H214.789C215.113 88.368 215.365 88.44 215.509 88.548C215.653 88.692 215.725 88.908 215.725 89.268V93.48C215.725 93.84 215.653 94.092 215.509 94.2C215.365 94.344 215.113 94.38 214.789 94.38H203.053V101.364C203.053 101.724 202.981 101.94 202.837 102.084C202.693 102.192 202.441 102.264 202.117 102.264H197.077C196.717 102.264 196.501 102.192 196.357 102.084C196.213 101.94 196.141 101.724 196.141 101.364V94.38H184.405C184.045 94.38 183.829 94.344 183.685 94.2C183.541 94.092 183.469 93.84 183.469 93.48V89.268ZM242.66 91.86C242.3 91.86 242.084 91.824 241.94 91.68C241.796 91.572 241.724 91.32 241.724 90.96V83.832H237.764C237.692 85.164 237.332 86.1 236.72 86.676C236.072 87.252 235.136 87.54 233.912 87.54H221.996C220.7 87.54 219.728 87.216 219.08 86.532C218.432 85.884 218.108 84.768 218.108 83.256V69C218.108 68.64 218.18 68.424 218.324 68.28C218.468 68.172 218.684 68.1 219.044 68.1H236.864C237.188 68.1 237.44 68.172 237.584 68.28C237.728 68.424 237.8 68.64 237.8 69V70.656H241.724V69C241.724 68.64 241.796 68.424 241.94 68.28C242.084 68.172 242.3 68.1 242.66 68.1H247.7C248.024 68.1 248.276 68.172 248.42 68.28C248.564 68.424 248.636 68.64 248.636 69V90.96C248.636 91.32 248.564 91.572 248.42 91.68C248.276 91.824 248.024 91.86 247.7 91.86H242.66ZM249.032 100.32C249.068 100.68 248.996 100.896 248.852 101.004C248.672 101.076 248.42 101.148 248.096 101.22C246.44 101.364 244.676 101.544 242.876 101.688L237.404 102.012L231.968 102.228C230.168 102.264 228.512 102.3 227 102.3C224.696 102.3 223.04 101.688 222.068 100.464C221.06 99.204 220.556 97.224 220.556 94.524V90.564C220.556 90.204 220.628 89.988 220.772 89.844C220.916 89.736 221.132 89.664 221.492 89.664H226.532C226.856 89.664 227.108 89.736 227.252 89.844C227.396 89.988 227.468 90.204 227.468 90.564V93.84C227.468 94.704 227.648 95.352 228.008 95.748C228.368 96.144 229.016 96.324 229.988 96.324C231.284 96.288 232.652 96.252 234.164 96.216C235.64 96.144 237.152 96.036 238.7 95.964C240.212 95.892 241.76 95.784 243.308 95.64C244.82 95.532 246.296 95.388 247.736 95.244C248.06 95.208 248.276 95.244 248.42 95.388C248.528 95.532 248.6 95.784 248.672 96.144L249.032 100.32ZM230.168 81.888C230.564 81.888 230.852 81.816 230.996 81.636C231.14 81.492 231.212 81.204 231.212 80.736V73.572H224.696V80.736C224.696 81.204 224.768 81.492 224.912 81.636C225.056 81.816 225.308 81.888 225.74 81.888H230.168ZM237.8 78.324H241.724V76.164H237.8V78.324ZM264.738 69C264.738 68.64 264.81 68.424 264.954 68.28C265.098 68.172 265.314 68.1 265.674 68.1H291.882C292.206 68.1 292.458 68.172 292.602 68.28C292.746 68.424 292.818 68.64 292.818 69V72.276C292.818 72.636 292.746 72.888 292.602 72.996C292.458 73.14 292.206 73.176 291.882 73.176H283.998C284.862 73.68 285.978 74.04 287.346 74.256C288.678 74.508 290.226 74.688 291.954 74.796C292.026 74.796 292.098 74.832 292.242 74.832C292.35 74.868 292.458 74.904 292.602 74.976C292.674 75.048 292.782 75.156 292.854 75.3C292.926 75.444 292.962 75.66 292.962 75.912V79.08C292.962 79.368 292.926 79.548 292.854 79.692C292.746 79.836 292.638 79.944 292.53 79.98C292.386 80.052 292.242 80.088 292.134 80.088C291.99 80.124 291.846 80.124 291.774 80.124C288.426 80.016 285.654 79.62 283.458 78.972C281.226 78.324 279.642 77.496 278.742 76.416C277.806 77.496 276.258 78.324 274.062 78.972C271.83 79.62 269.058 80.016 265.746 80.124C265.638 80.124 265.53 80.124 265.422 80.088C265.278 80.088 265.134 80.052 265.026 79.98C264.882 79.944 264.774 79.836 264.702 79.692C264.594 79.548 264.558 79.368 264.558 79.08V75.912C264.558 75.66 264.594 75.444 264.666 75.3C264.738 75.156 264.81 75.048 264.954 74.976C265.026 74.904 265.134 74.868 265.278 74.832C265.386 74.832 265.494 74.796 265.566 74.796C267.258 74.688 268.806 74.508 270.174 74.256C271.506 74.04 272.622 73.68 273.522 73.176H265.674C265.314 73.176 265.098 73.14 264.954 72.996C264.81 72.888 264.738 72.636 264.738 72.276V69ZM278.706 102.66C276.402 102.66 274.458 102.552 272.838 102.372C271.182 102.156 269.85 101.868 268.842 101.508C267.762 101.112 267.006 100.644 266.538 100.104C266.034 99.528 265.782 98.916 265.782 98.196C265.782 96.756 266.79 95.676 268.878 94.884C270.894 94.164 274.17 93.768 278.706 93.768C283.206 93.768 286.482 94.164 288.57 94.884C290.586 95.676 291.63 96.756 291.63 98.196C291.63 98.916 291.378 99.528 290.91 100.104C290.406 100.644 289.614 101.112 288.606 101.508C287.526 101.868 286.194 102.156 284.574 102.372C282.918 102.552 280.974 102.66 278.706 102.66ZM262.686 81.816C262.686 81.456 262.758 81.24 262.902 81.096C263.046 80.988 263.262 80.916 263.622 80.916H275.358V79.8C275.358 79.44 275.43 79.224 275.574 79.08C275.718 78.972 275.934 78.9 276.294 78.9H281.334C281.658 78.9 281.91 78.972 282.054 79.08C282.198 79.224 282.27 79.44 282.27 79.8V80.916H294.006C294.33 80.916 294.582 80.988 294.726 81.096C294.87 81.24 294.942 81.456 294.942 81.816V84.984C294.942 85.344 294.87 85.596 294.726 85.704C294.582 85.848 294.33 85.884 294.006 85.884H263.622C263.262 85.884 263.046 85.848 262.902 85.704C262.758 85.596 262.686 85.344 262.686 84.984V81.816ZM264.702 88.656C264.702 88.296 264.774 88.08 264.918 87.936C265.062 87.828 265.278 87.756 265.638 87.756H275.358V87.468C275.358 87.108 275.43 86.892 275.574 86.748C275.718 86.64 275.934 86.568 276.294 86.568H281.334C281.658 86.568 281.91 86.64 282.054 86.748C282.198 86.892 282.27 87.108 282.27 87.468V87.756H291.774C292.098 87.756 292.35 87.828 292.494 87.936C292.638 88.08 292.71 88.296 292.71 88.656V91.86C292.71 92.22 292.638 92.472 292.494 92.58C292.35 92.724 292.098 92.76 291.774 92.76H265.638C265.278 92.76 265.062 92.724 264.918 92.58C264.774 92.472 264.702 92.22 264.702 91.86V88.656ZM278.706 98.736C280.866 98.736 282.378 98.7 283.278 98.664C284.142 98.592 284.574 98.448 284.574 98.196C284.574 97.908 284.142 97.764 283.278 97.728C282.378 97.656 280.866 97.62 278.706 97.62C276.546 97.62 275.034 97.656 274.17 97.728C273.27 97.764 272.838 97.908 272.838 98.196C272.838 98.448 273.27 98.592 274.17 98.664C275.034 98.7 276.546 98.736 278.706 98.736ZM305.605 75.624C305.605 75.048 305.497 74.652 305.281 74.436C305.029 74.22 304.705 74.112 304.273 74.112H297.901C297.541 74.112 297.325 74.076 297.181 73.932C297.037 73.824 296.965 73.572 296.965 73.212V69C296.965 68.64 297.037 68.424 297.181 68.28C297.325 68.172 297.541 68.1 297.901 68.1H308.269C309.565 68.1 310.537 68.46 311.185 69.108C311.833 69.792 312.157 70.872 312.157 72.384V73.176C312.157 73.464 312.121 73.752 312.121 74.04H314.353V69C314.353 68.64 314.425 68.424 314.569 68.28C314.713 68.172 314.929 68.1 315.289 68.1H319.789C320.113 68.1 320.365 68.172 320.509 68.28C320.653 68.424 320.725 68.64 320.725 69V85.704C320.725 86.064 320.653 86.316 320.509 86.424C320.365 86.568 320.113 86.604 319.789 86.604H315.289C314.929 86.604 314.713 86.568 314.569 86.424C314.425 86.316 314.353 86.064 314.353 85.704V79.512H311.761C311.689 80.448 311.581 81.348 311.473 82.248C311.329 83.184 311.221 84.12 311.077 85.02C311.005 85.38 310.933 85.632 310.825 85.776C310.681 85.92 310.465 85.992 310.141 85.92L305.569 85.416C305.209 85.38 304.957 85.272 304.813 85.092C304.597 84.948 304.561 84.66 304.669 84.228L305.101 81.636C305.209 80.772 305.317 79.944 305.389 79.152C305.461 78.396 305.497 77.712 305.569 77.064C305.569 76.452 305.605 75.984 305.605 75.624ZM320.257 98.196C318.529 100.464 316.369 101.76 313.777 102.084C311.113 101.76 308.953 100.464 307.297 98.196C306.577 99.276 305.605 100.212 304.381 101.004C303.085 101.724 301.537 102.156 299.701 102.3H299.377C299.233 102.3 299.089 102.264 298.981 102.192C298.837 102.12 298.729 102.012 298.657 101.868C298.549 101.724 298.513 101.508 298.513 101.256V97.548C298.513 97.26 298.549 97.08 298.621 96.936C298.693 96.792 298.765 96.684 298.909 96.612C298.981 96.54 299.089 96.468 299.233 96.468C299.341 96.432 299.449 96.432 299.521 96.432C301.249 96.18 302.437 95.46 303.121 94.2C303.769 92.976 304.129 91.248 304.165 89.016C304.165 88.764 304.201 88.548 304.345 88.368C304.417 88.224 304.669 88.116 305.029 88.116H309.601C309.961 88.116 310.177 88.224 310.321 88.368C310.393 88.548 310.465 88.764 310.465 89.016C310.465 91.14 310.753 92.832 311.293 94.056C311.797 95.316 312.625 96 313.777 96.18C314.929 96 315.757 95.316 316.297 94.056C316.801 92.832 317.089 91.14 317.125 89.016C317.125 88.764 317.161 88.548 317.305 88.368C317.377 88.224 317.629 88.116 317.989 88.116H322.561C322.921 88.116 323.137 88.224 323.281 88.368C323.353 88.548 323.425 88.764 323.425 89.016C323.425 91.248 323.785 92.976 324.469 94.2C325.117 95.46 326.341 96.18 328.069 96.432C328.141 96.432 328.213 96.432 328.357 96.468C328.465 96.468 328.573 96.54 328.717 96.612C328.789 96.684 328.897 96.792 328.969 96.936C329.041 97.08 329.077 97.26 329.077 97.548V101.256C329.077 101.508 329.041 101.724 328.969 101.868C328.861 102.012 328.753 102.12 328.645 102.192C328.501 102.264 328.357 102.3 328.249 102.3H327.889C326.017 102.156 324.433 101.724 323.209 101.004C321.913 100.212 320.941 99.276 320.257 98.196ZM323.065 86.604C322.705 86.604 322.489 86.568 322.345 86.424C322.201 86.316 322.129 86.064 322.129 85.704V69C322.129 68.64 322.201 68.424 322.345 68.28C322.489 68.172 322.705 68.1 323.065 68.1H327.565C327.889 68.1 328.141 68.172 328.285 68.28C328.429 68.424 328.501 68.64 328.501 69V85.704C328.501 86.064 328.429 86.316 328.285 86.424C328.141 86.568 327.889 86.604 327.565 86.604H323.065ZM339.697 73.896C339.553 76.704 339.481 79.512 339.481 82.32C339.445 85.164 339.445 88.152 339.517 91.32C339.517 92.184 339.733 92.832 340.093 93.228C340.417 93.66 341.065 93.84 342.037 93.804C343.801 93.768 345.493 93.696 347.149 93.588C348.769 93.516 350.497 93.408 352.297 93.228C352.621 93.192 352.837 93.228 352.981 93.336C353.089 93.48 353.161 93.732 353.233 94.092L353.593 98.268C353.629 98.628 353.557 98.844 353.413 98.952C353.233 99.024 352.981 99.096 352.657 99.168C350.281 99.348 347.977 99.492 345.817 99.636C343.585 99.708 341.353 99.78 339.049 99.78C336.745 99.78 335.089 99.168 334.117 97.944C333.109 96.684 332.605 94.74 332.605 92.004C332.605 89.916 332.605 87.864 332.641 85.884C332.641 83.94 332.677 81.996 332.749 80.124C332.749 78.252 332.821 76.416 332.893 74.544C332.929 72.744 333.001 70.872 333.109 69C333.109 68.64 333.217 68.424 333.361 68.28C333.469 68.172 333.685 68.1 334.045 68.1H351.181C351.505 68.1 351.757 68.172 351.901 68.28C352.045 68.424 352.117 68.64 352.117 69V72.996C352.117 73.356 352.045 73.608 351.901 73.716C351.757 73.86 351.505 73.896 351.181 73.896H339.697ZM366.913 85.416C366.913 85.776 366.841 86.028 366.697 86.136C366.553 86.28 366.301 86.316 365.977 86.316H362.665V100.68C362.665 101.04 362.593 101.256 362.449 101.4C362.305 101.508 362.053 101.58 361.729 101.58H356.689C356.329 101.58 356.113 101.508 355.969 101.4C355.825 101.256 355.753 101.04 355.753 100.68V69C355.753 68.64 355.825 68.424 355.969 68.28C356.113 68.172 356.329 68.1 356.689 68.1H361.729C362.053 68.1 362.305 68.172 362.449 68.28C362.593 68.424 362.665 68.64 362.665 69V80.34H365.977C366.301 80.34 366.553 80.412 366.697 80.52C366.841 80.664 366.913 80.88 366.913 81.24V85.416Z" fill="#222222"/>
<path d="M50.5078 138.062V143.664H53.2734V145.234H50.5078V150.555H48.6562V138.062H50.5078ZM50.5078 151.539V158.945H48.6562V153.016H36.6562V151.539H50.5078ZM39.8438 139.727V141.227H36.3984V147.391C37.4766 147.367 38.7891 147.25 40.2188 146.922L40.4062 148.492C38.4375 148.914 36.8203 148.938 35.5547 148.938H34.6406V139.727H39.8438ZM46.6406 139.727V141.227H42.8672V147.414C44.5312 147.391 45.8203 147.273 47.3672 146.922L47.5781 148.469C45.7031 148.867 44.25 148.938 42.1406 148.938H41.1094V139.727H46.6406ZM71.01 138.062V143.664H73.7756V145.234H71.01V150.555H69.1584V138.062H71.01ZM71.01 151.539V158.945H69.1584V153.016H57.1584V151.539H71.01ZM60.3459 139.727V141.227H56.9006V147.391C57.9788 147.367 59.2913 147.25 60.7209 146.922L60.9084 148.492C58.9397 148.914 57.3225 148.938 56.0569 148.938H55.1428V139.727H60.3459ZM67.1428 139.727V141.227H63.3694V147.414C65.0334 147.391 66.3225 147.273 67.8694 146.922L68.0803 148.469C66.2053 148.867 64.7522 148.938 62.6428 148.938H61.6116V139.727H67.1428ZM91.1372 138.086V144.953H94.2778V146.5H91.1372V153.695H89.3091V138.086H91.1372ZM87.3169 140.641V142.141H74.895V140.641H80.1919V138.086H82.02V140.641H87.3169ZM81.1059 143.289C84.0825 143.289 86.0981 144.812 86.1216 147.18C86.0981 149.523 84.0825 151.023 81.1059 151.023C78.1059 151.023 76.0669 149.523 76.0903 147.18C76.0669 144.812 78.1059 143.289 81.1059 143.289ZM81.1059 144.742C79.1372 144.742 77.8247 145.703 77.8481 147.18C77.8247 148.656 79.1372 149.594 81.1059 149.57C83.0513 149.594 84.3638 148.656 84.3872 147.18C84.3638 145.703 83.0513 144.742 81.1059 144.742ZM92.0981 156.906V158.453H78.1059V152.453H79.9106V156.906H92.0981ZM118.946 138.062V158.898H117.188V147.977H114.118V157.82H112.431V138.531H114.118V146.453H117.188V138.062H118.946ZM109.712 140.617V142.141H103.735V152.172C106.606 152.16 108.599 152.055 110.907 151.586L111.071 153.133C108.563 153.648 106.431 153.742 103.243 153.742H101.907V140.617H109.712ZM128.456 139.422C131.738 139.445 134.058 141.414 134.058 144.32C134.058 146.945 132.159 148.809 129.37 149.125V152.688C131.433 152.582 133.53 152.406 135.511 152.102L135.652 153.461C130.894 154.352 125.761 154.375 122.011 154.375L121.753 152.828C123.452 152.828 125.433 152.828 127.519 152.758V149.125C124.73 148.797 122.808 146.945 122.831 144.32C122.808 141.414 125.175 139.445 128.456 139.422ZM128.456 141.039C126.23 141.039 124.613 142.375 124.636 144.32C124.613 146.266 126.23 147.625 128.456 147.602C130.659 147.625 132.253 146.266 132.253 144.32C132.253 142.375 130.659 141.039 128.456 141.039ZM138.722 138.062V158.945H136.894V138.062H138.722ZM158.404 138.062V143.406H161.521V144.977H158.404V150.367H156.552V138.062H158.404ZM158.404 151.305V155.5H146.708V157.352H159.201V158.664H144.88V154.258H156.576V152.617H144.833V151.305H158.404ZM142.044 148.492C143.708 148.492 145.654 148.492 147.693 148.422V147.133C145.255 146.957 143.708 145.984 143.708 144.391C143.708 142.68 145.63 141.695 148.583 141.695C151.56 141.695 153.458 142.68 153.482 144.391C153.458 145.973 151.958 146.945 149.521 147.133V148.375C151.466 148.281 153.435 148.129 155.263 147.859L155.427 149.102C150.927 149.828 145.912 149.875 142.255 149.875L142.044 148.492ZM154.63 139.656V140.992H142.56V139.656H147.693V137.875H149.521V139.656H154.63ZM148.583 142.914C146.662 142.938 145.466 143.477 145.466 144.391C145.466 145.328 146.662 145.938 148.583 145.938C150.505 145.938 151.724 145.328 151.724 144.391C151.724 143.477 150.505 142.938 148.583 142.914ZM181.648 148.375V149.852H162.64V148.375H171.242V145.938H165.054V139.047H179.281V140.523H166.859V144.438H179.422V145.938H173.023V148.375H181.648ZM172.133 151.375C176.609 151.375 179.281 152.734 179.304 155.125C179.281 157.539 176.609 158.875 172.133 158.898C167.633 158.875 164.937 157.539 164.937 155.125C164.937 152.734 167.633 151.375 172.133 151.375ZM172.133 152.828C168.781 152.828 166.789 153.695 166.812 155.125C166.789 156.578 168.781 157.422 172.133 157.422C175.437 157.422 177.453 156.578 177.453 155.125C177.453 153.695 175.437 152.828 172.133 152.828ZM50.6719 181.094V182.617H36.3047V175.141H38.1328V181.094H50.6719ZM52.9219 185.758V187.305H44.2031V194.898H42.375V187.305H33.8438V185.758H52.9219ZM70.9163 175.188V176.828C70.9163 178.586 70.9163 180.578 70.4006 183.297H73.4241V184.773H64.8459V189.812H63.0413V184.773H54.3459V183.297H68.5256C69.0881 180.566 69.0881 178.586 69.0881 176.828V176.711H56.76V175.188H70.9163ZM71.3616 192.906V194.453H56.76V187.938H58.6116V192.906H71.3616ZM90.9731 174.062V182.547H94.3481V184.094H90.9731V194.898H89.145V174.062H90.9731ZM85.5825 176.312C85.5825 182.219 82.8169 187.586 76.02 190.938L74.9888 189.484C80.3794 186.801 83.3091 182.793 83.7309 177.859H75.9497V176.312H85.5825ZM102.171 175.586C105.452 175.586 107.772 177.578 107.772 180.484C107.772 183.391 105.452 185.383 102.171 185.383C98.8894 185.383 96.5222 183.391 96.5456 180.484C96.5222 177.578 98.8894 175.586 102.171 175.586ZM102.171 177.203C99.9441 177.203 98.3269 178.539 98.3503 180.484C98.3269 182.43 99.9441 183.766 102.171 183.766C104.374 183.766 105.967 182.43 105.967 180.484C105.967 178.539 104.374 177.203 102.171 177.203ZM112.436 174.062V194.945H110.608V174.062H112.436ZM95.4675 188.781C99.3112 188.781 104.608 188.758 109.225 188.078L109.366 189.438C104.608 190.328 99.4753 190.352 95.7253 190.352L95.4675 188.781ZM138.464 183.836V185.336H132.019V190.727H140.714V192.273H121.636V190.727H130.214V185.336H124.073V175.773H138.253V177.273H125.925V183.836H138.464ZM151.63 174.461C156.154 174.461 158.99 175.914 158.99 178.398C158.99 180.836 156.154 182.266 151.63 182.266C147.107 182.266 144.247 180.836 144.247 178.398C144.247 175.914 147.107 174.461 151.63 174.461ZM151.63 175.914C148.255 175.914 146.122 176.828 146.146 178.398C146.122 179.922 148.255 180.812 151.63 180.812C154.958 180.812 157.115 179.922 157.115 178.398C157.115 176.828 154.958 175.914 151.63 175.914ZM158.802 187.773V194.617H144.458V187.773H150.716V185.383H142.138V183.859H161.122V185.383H152.521V187.773H158.802ZM146.287 189.25V193.117H156.997V189.25H146.287ZM179.82 174.062V194.945H177.968V174.062H179.82ZM168.734 175.68C171.828 175.703 174.054 178.516 174.054 182.945C174.054 187.375 171.828 190.188 168.734 190.188C165.617 190.188 163.414 187.375 163.414 182.945C163.414 178.516 165.617 175.703 168.734 175.68ZM168.734 177.32C166.648 177.344 165.195 179.547 165.195 182.945C165.195 186.344 166.648 188.547 168.734 188.547C170.82 188.547 172.273 186.344 172.273 182.945C172.273 179.547 170.82 177.344 168.734 177.32ZM206.152 174.062V184.891H204.301V174.062H206.152ZM206.152 185.898V190.867H194.387V193.164H206.949V194.664H192.582V189.484H204.324V187.375H192.512V185.898H206.152ZM201.137 175.492V176.969H199.027V182.289C200.106 182.23 201.172 182.125 202.168 182.008L202.262 183.367C198.09 183.977 193.192 184.141 189.512 184.141L189.277 182.617C190.11 182.617 191.012 182.617 191.949 182.594V176.969H189.863V175.492H201.137ZM193.731 182.547C194.879 182.523 196.063 182.488 197.246 182.406V176.969H193.731V182.547ZM228.506 190.68V192.227H209.428V190.68H214.163V185.055C212.381 184.129 211.303 182.629 211.303 180.742C211.303 177.508 214.467 175.398 218.92 175.375C223.373 175.398 226.538 177.508 226.538 180.742C226.538 182.594 225.495 184.082 223.772 185.008V190.68H228.506ZM218.92 176.898C215.498 176.875 213.084 178.422 213.084 180.742C213.084 183.062 215.498 184.633 218.92 184.633C222.319 184.633 224.756 183.062 224.756 180.742C224.756 178.422 222.319 176.875 218.92 176.898ZM215.967 190.68H221.92V185.711C221.018 185.957 220.01 186.086 218.92 186.086C217.854 186.086 216.858 185.969 215.967 185.734V190.68ZM246.055 174.062V182.664H249.548V184.188H246.055V194.898H244.227V174.062H246.055ZM242.212 177.414V178.938H229.813V177.414H235.18V174.32H237.008V177.414H242.212ZM236.118 180.672C239.071 180.672 241.204 182.641 241.227 185.453C241.204 188.266 239.071 190.234 236.118 190.234C233.141 190.234 230.985 188.266 231.008 185.453C230.985 182.641 233.141 180.672 236.118 180.672ZM236.118 182.219C234.173 182.219 232.743 183.578 232.766 185.453C232.743 187.352 234.173 188.688 236.118 188.664C238.04 188.688 239.446 187.352 239.469 185.453C239.446 183.578 238.04 182.219 236.118 182.219ZM266.557 174.062V182.312H270.05V183.859H266.557V194.945H264.729V174.062H266.557ZM261.073 176.102V177.625H253.175V188.172C256.948 188.172 259.62 187.996 262.714 187.422L262.948 189.016C259.69 189.602 256.948 189.719 252.987 189.719H251.347V176.102H261.073ZM281.482 175.891V177.742H286.357V174.086H288.208V189.297H286.357V183.742H281.482V185.617H271.919V175.891H281.482ZM273.747 177.414V184.141H279.677V177.414H273.747ZM288.677 192.906V194.453H274.732V187.938H276.583V192.906H288.677ZM281.482 182.219H286.357V179.289H281.482V182.219Z" fill="#4E4E4E"/>
<g opacity="0.4" filter="url(#filter0_f_1_1188)">
<path d="M129.291 427.028C172.292 429.085 206.306 448.432 205.262 470.241C204.218 492.05 168.512 508.063 125.51 506.007C82.5083 503.95 48.4947 484.603 49.5386 462.794C50.5826 440.985 86.2887 424.972 129.291 427.028Z" fill="url(#paint1_linear_1_1188)"/>
<path d="M144.575 492.289L135.463 490.639C134.731 490.508 134.294 490.064 134.516 489.679L137.115 485.383C137.529 484.707 136.03 484.103 134.966 484.516L127.233 487.557C126.714 487.765 125.977 487.729 125.48 487.474L118.073 483.709C117.054 483.196 115.504 483.654 115.852 484.366L118.029 488.891C118.213 489.295 117.761 489.697 116.994 489.756L107.766 490.529C106.385 490.64 106.335 491.702 107.698 491.944L116.811 493.594C117.543 493.725 117.98 494.169 117.758 494.554L115.159 498.85C114.744 499.526 116.243 500.13 117.307 499.717L125.04 496.676C125.559 496.468 126.296 496.504 126.793 496.759L134.2 500.524C135.22 501.037 136.769 500.579 136.421 499.867L134.245 495.342C134.06 494.938 134.512 494.536 135.279 494.477L144.508 493.704C145.888 493.593 145.939 492.531 144.575 492.289Z" fill="url(#paint2_linear_1_1188)"/>
<path d="M101.674 473.659C98.5893 472.147 97.7894 470.24 96.8606 467.835C95.9539 465.5 95.2538 463.638 96.1559 461.28C96.7064 459.887 97.4333 457.998 100.277 456.579C105.102 454.177 114.516 453.781 119.534 456.408C122.365 457.895 123.869 459.986 124.331 462.041C124.793 464.096 124.287 466.145 123.656 468.162C122.548 471.629 120.997 474.242 116.566 475.313C111.363 476.578 105.004 474.842 104.577 474.712C103.924 474.531 102.844 474.22 101.7 473.66L101.674 473.659Z" fill="url(#paint3_linear_1_1188)"/>
<path d="M108.959 470.408C106.315 469.791 105.08 468.463 104.936 468.292C104.284 467.551 104.219 466.771 104.445 465.24C104.59 464.333 104.812 463.429 105.16 462.532C105.395 461.888 105.706 461.234 106.369 460.679C107.404 459.815 109.263 459.262 111.249 459.276C113.209 459.274 115.22 459.834 116.425 460.71C117.582 461.543 117.991 462.572 118.325 463.571C118.792 464.984 119.13 466.447 118.58 467.812C118.204 468.763 117.512 469.93 115.499 470.475C113.203 471.102 110.197 470.604 109.692 470.525C109.515 470.489 109.288 470.451 108.986 470.382L108.959 470.408Z" fill="url(#paint4_linear_1_1188)"/>
<path d="M152.328 476.082C155.543 474.871 156.522 473.049 157.676 470.744C158.802 468.505 159.676 466.719 159.003 464.286C158.589 462.847 158.045 460.897 155.351 459.213C150.777 456.361 141.443 455.069 136.198 457.205C133.237 458.415 131.54 460.353 130.884 462.354C130.228 464.356 130.536 466.444 130.972 468.512C131.743 472.068 133.038 474.818 137.346 476.307C142.405 478.063 148.901 476.941 149.338 476.853C150.005 476.735 151.11 476.528 152.303 476.08L152.328 476.082Z" fill="url(#paint5_linear_1_1188)"/>
<path d="M145.39 472.147C148.08 471.785 149.437 470.581 149.597 470.425C150.317 469.75 150.455 468.979 150.377 467.433C150.319 466.516 150.184 465.596 149.923 464.669C149.751 464.006 149.504 463.326 148.897 462.71C147.95 461.751 146.151 461.023 144.174 460.847C142.222 460.658 140.168 461.024 138.884 461.781C137.653 462.5 137.147 463.485 136.719 464.447C136.119 465.81 135.644 467.234 136.06 468.645C136.344 469.627 136.922 470.856 138.873 471.59C141.098 472.433 144.138 472.224 144.649 472.194C144.828 472.175 145.058 472.159 145.365 472.119L145.39 472.147Z" fill="url(#paint6_linear_1_1188)"/>
<path d="M47.6289 459.611C46.3587 459.018 27.6391 450.087 31.7356 443.761C32.7264 442.213 35.6061 440.031 38.9366 440.136C42.3687 440.245 44.7208 442.704 47.1458 444.703C50.6742 447.587 56.6831 451.312 67.4372 454.842C67.4359 454.869 67.1343 455.319 66.2139 455.397C65.3697 455.48 64.7477 455.177 64.6728 455.146" fill="url(#paint7_linear_1_1188)"/>
<path d="M55.0533 465.684C52.1827 464.482 24.3836 452.675 29.1615 444.881C30.2376 443.145 33.5981 440.495 37.5402 440.588C41.4061 440.678 43.977 443.352 47.2716 445.802C51.2299 448.747 57.8706 452.571 69.4917 456.074" fill="url(#paint8_linear_1_1188)"/>
<path d="M99.4581 436.951C97.4761 432.613 95.4688 428.274 93.4875 423.923C92.9286 423.896 86.0431 423.594 82.7251 420.57C82.2125 420.109 80.5776 418.626 81.2382 417.061C82.8224 413.221 96.1624 412.726 100.626 412.557C105.651 412.361 108.712 412.248 111.359 413.33C115.031 414.815 115.461 417.523 115.896 420.669C116.845 427.454 117.49 432.588 117.928 436.211" fill="url(#paint9_linear_1_1188)"/>
<path d="M158.037 439.752C160.425 435.623 162.838 431.495 165.226 427.352C165.785 427.379 172.667 427.735 176.259 425.042C176.814 424.632 178.583 423.311 178.075 421.69C176.865 417.717 163.633 415.952 159.206 415.358C154.222 414.683 151.186 414.279 148.448 415.103C144.651 416.232 143.963 418.887 143.23 421.976C141.638 428.64 140.505 433.689 139.723 437.253" fill="url(#paint10_linear_1_1188)"/>
<path d="M204.534 460.21C205.892 460.742 225.938 468.771 222.952 475.307C222.233 476.907 219.751 479.233 216.436 479.292C213.019 479.35 210.274 477.002 207.535 475.119C203.554 472.403 196.974 468.965 185.729 465.957C185.726 465.929 185.948 465.464 186.846 465.34C187.668 465.217 188.335 465.489 188.415 465.516" fill="url(#paint11_linear_1_1188)"/>
<path d="M196.156 454.497C199.201 455.56 228.723 466.026 225.311 474.066C224.54 475.858 221.661 478.676 217.742 478.776C213.899 478.876 210.901 476.323 207.225 474.031C202.807 471.274 195.585 467.769 183.486 464.83" fill="url(#paint12_linear_1_1188)"/>
</g>
<g opacity="0.4" filter="url(#filter1_f_1_1188)">
<path d="M292.3 518.266C315.433 523.281 346.412 517.54 361.494 505.444C376.575 493.348 370.048 479.476 346.914 474.461C323.781 469.446 292.802 475.187 277.72 487.283C262.639 499.38 269.166 513.251 292.3 518.266Z" fill="#E6A344"/>
<path d="M334.109 481.97L328.347 481.575C327.872 481.543 327.346 481.72 327.193 481.965L325.426 484.688C325.153 485.114 323.964 485.232 323.728 484.857L322.012 482.091C321.894 481.904 321.497 481.818 321.071 481.887L314.655 482.89C313.785 483.025 313.332 482.552 314.012 482.214L318.342 480.047C318.734 479.853 318.781 479.572 318.445 479.428L314.359 477.689C313.749 477.427 314.473 476.846 315.337 476.904L321.099 477.299C321.575 477.331 322.1 477.154 322.254 476.909L324.02 474.186C324.294 473.76 325.483 473.642 325.718 474.017L327.435 476.783C327.552 476.971 327.949 477.056 328.375 476.987L334.791 475.984C335.662 475.849 336.114 476.322 335.435 476.66L331.105 478.828C330.712 479.021 330.666 479.302 331.002 479.446L335.087 481.186C335.698 481.447 334.974 482.028 334.109 481.97Z" fill="#E6A344"/>
<path d="M294.039 488.724C291.5 490.592 289.78 491.852 288.588 493.484C287.257 495.287 286.653 496.388 287.343 497.643C288.058 498.947 290.562 499.98 293.583 499.812C295.422 499.708 297.175 499.197 298.779 498.665C301.416 497.792 304.006 496.758 305.41 495.423C306.609 494.282 306.82 493.04 307.016 491.839C307.227 490.478 307.378 489.015 305.734 488.018C303.878 486.894 300.579 487.026 300.373 487.032C300.219 487.036 296.653 487.174 294.521 488.408C294.293 488.54 294.141 488.652 294.039 488.724Z" fill="#E6A344"/>
<path d="M311.674 492.539C309.145 494.409 307.432 495.671 306.199 497.294C304.822 499.087 304.181 500.179 304.76 501.41C305.36 502.69 307.677 503.682 310.56 503.484C312.315 503.362 314.013 502.838 315.571 502.297C318.132 501.407 320.657 500.359 322.074 499.027C323.284 497.889 323.561 496.661 323.821 495.474C324.105 494.128 324.338 492.684 322.836 491.718C321.141 490.628 317.995 490.794 317.8 490.802C317.653 490.807 314.254 490.981 312.151 492.221C311.926 492.355 311.775 492.467 311.674 492.539Z" fill="#E6A344"/>
<path d="M312.386 494.08C310.766 494.274 309.657 495.085 309.147 495.454C308.15 496.185 307.843 496.826 307.583 497.34C307.076 498.379 306.956 499.482 307.929 500.309C308.203 500.544 308.582 500.762 309.147 500.833C309.666 500.9 310.28 500.832 310.854 500.736C313.138 500.355 315.244 499.533 316.527 498.514C317.801 497.492 318.238 496.303 317.681 495.299C317.443 494.878 317.133 494.298 316.032 494.086C315.035 493.889 313.411 493.998 312.861 494.034C312.617 494.052 312.498 494.059 312.382 494.073L312.386 494.08Z" fill="#E6A344"/>
<path d="M294.747 490.252C293.127 490.446 292.018 491.256 291.508 491.626C290.511 492.357 290.204 492.998 289.944 493.512C289.437 494.551 289.317 495.654 290.291 496.481C290.564 496.715 290.944 496.934 291.508 497.004C292.027 497.072 292.641 497.003 293.216 496.908C295.499 496.527 297.605 495.705 298.889 494.686C300.162 493.664 300.6 492.475 300.042 491.471C299.804 491.05 299.494 490.47 298.394 490.258C297.396 490.061 295.772 490.169 295.223 490.206C294.978 490.224 294.859 490.231 294.744 490.245L294.747 490.252Z" fill="#E6A344"/>
<path d="M216.736 557.788C189.39 553.179 179.547 538.088 194.75 524.08C209.953 510.072 244.446 502.452 271.791 507.061C299.137 511.669 308.98 526.76 293.777 540.768C278.574 554.776 244.081 562.396 216.736 557.788Z" fill="#E6A344"/>
<path d="M258.408 515.897L251.743 515.695C251.193 515.679 250.622 515.896 250.488 516.174L248.93 519.261C248.69 519.743 247.349 519.922 247.015 519.517L244.577 516.524C244.41 516.322 243.941 516.243 243.465 516.337L236.29 517.71C235.316 517.894 234.717 517.389 235.437 516.987L240.025 514.411C240.442 514.181 240.447 513.868 240.038 513.722L235.063 511.963C234.319 511.698 235.049 511.025 236.049 511.054L242.714 511.256C243.264 511.272 243.835 511.055 243.969 510.777L245.527 507.691C245.767 507.208 247.108 507.029 247.442 507.434L249.88 510.427C250.047 510.629 250.516 510.708 250.992 510.614L258.167 509.242C259.141 509.057 259.74 509.562 259.02 509.964L254.432 512.54C254.015 512.77 254.01 513.083 254.419 513.229L259.394 514.988C260.138 515.253 259.408 515.926 258.408 515.897Z" fill="#E6A344"/>
<path d="M205.207 523.484C202.523 525.758 200.704 527.293 199.483 529.219C198.12 531.347 197.516 532.633 198.34 534.018C199.194 535.458 201.994 536.483 205.299 536.112C207.31 535.884 209.205 535.198 210.936 534.498C213.781 533.349 216.566 532.02 218.035 530.419C219.289 529.051 219.453 527.627 219.605 526.251C219.763 524.691 219.85 523.021 217.995 521.985C215.899 520.818 212.288 521.165 212.063 521.184C211.895 521.198 207.991 521.567 205.718 523.096C205.476 523.261 205.316 523.396 205.207 523.484Z" fill="#E6A344"/>
<path d="M210.165 522.671C208.486 522.976 207.365 523.921 206.849 524.351C205.841 525.203 205.548 525.916 205.299 526.49C204.814 527.646 204.735 528.851 205.784 529.692C206.079 529.931 206.483 530.146 207.074 530.189C207.617 530.232 208.254 530.122 208.849 529.985C211.211 529.438 213.371 528.424 214.665 527.243C215.949 526.06 216.354 524.743 215.731 523.687C215.466 523.243 215.119 522.632 213.964 522.465C212.917 522.31 211.23 522.522 210.658 522.594C210.405 522.628 210.281 522.642 210.161 522.664L210.165 522.671Z" fill="#E6A344"/>
<path d="M226.063 527.004C223.378 529.278 221.559 530.812 220.339 532.738C218.975 534.867 218.372 536.153 219.195 537.538C220.049 538.978 222.85 540.002 226.154 539.631C228.165 539.404 230.06 538.718 231.791 538.018C234.637 536.869 237.422 535.539 238.89 533.939C240.144 532.571 240.309 531.147 240.46 529.77C240.619 528.211 240.706 526.54 238.85 525.505C236.755 524.337 233.144 524.685 232.919 524.704C232.75 524.718 228.847 525.087 226.574 526.616C226.331 526.78 226.171 526.916 226.063 527.004Z" fill="#E6A344"/>
<path d="M230.019 526.015C228.198 526.295 227.067 527.238 226.546 527.668C225.529 528.518 225.287 529.24 225.077 529.82C224.674 530.991 224.725 532.216 225.981 533.093C226.334 533.341 226.806 533.568 227.464 533.623C228.07 533.676 228.761 533.575 229.403 533.446C231.952 532.931 234.224 531.936 235.519 530.755C236.803 529.572 237.101 528.237 236.291 527.149C235.947 526.692 235.492 526.062 234.196 525.872C233.021 525.695 231.18 525.881 230.556 525.944C230.28 525.974 230.144 525.987 230.014 526.007L230.019 526.015Z" fill="#E6A344"/>
</g>
<path d="M284.528 474.299C307.465 492.458 340 489.587 357.198 467.885C374.396 446.183 369.744 413.87 346.808 395.71C323.871 377.551 291.336 380.423 274.138 402.124C256.939 423.826 261.592 456.14 284.528 474.299Z" fill="#629665"/>
<path d="M332.613 408.107L326.775 405.448C326.293 405.23 325.73 405.453 325.537 405.94L323.332 411.333C322.99 412.177 321.756 412.063 321.57 411.172L320.218 404.599C320.124 404.154 319.731 403.842 319.285 403.861L312.574 404.05C311.664 404.073 311.27 402.899 312.014 402.373L316.761 398.992C317.191 398.694 317.28 398.094 316.957 397.675L313.031 392.604C312.445 391.842 313.27 390.8 314.146 391.197L319.984 393.855C320.466 394.073 321.03 393.85 321.222 393.363L323.427 387.971C323.769 387.126 325.003 387.24 325.19 388.132L326.542 394.704C326.635 395.15 327.028 395.461 327.474 395.443L334.185 395.253C335.096 395.231 335.489 396.405 334.745 396.931L329.998 400.311C329.568 400.61 329.48 401.21 329.802 401.629L333.728 406.7C334.314 407.461 333.489 408.503 332.613 408.107Z" fill="#4A734E"/>
<path d="M290.628 410.348C287.756 413.634 285.812 415.849 284.354 419.04C282.728 422.56 281.95 424.774 282.472 427.728C283.013 430.799 285.423 433.833 288.539 434.409C290.436 434.755 292.304 434.185 294.023 433.524C296.849 432.441 299.65 430.991 301.282 428.515C302.676 426.399 303.073 423.753 303.449 421.193C303.864 418.287 304.232 415.142 302.696 412.454C300.962 409.42 297.566 408.681 297.355 408.629C297.197 408.591 293.529 407.78 291.166 409.808C290.914 410.027 290.743 410.223 290.628 410.348Z" fill="#F5F1DE"/>
<path d="M308.11 424.19C305.249 427.483 303.312 429.704 301.812 432.862C300.142 436.348 299.326 438.531 299.738 441.399C300.165 444.379 302.39 447.267 305.369 447.734C307.182 448.014 308.997 447.401 310.67 446.704C313.42 445.561 316.157 444.061 317.802 441.595C319.207 439.487 319.669 436.893 320.109 434.383C320.596 431.535 321.046 428.454 319.651 425.877C318.075 422.969 314.833 422.351 314.632 422.308C314.481 422.275 310.978 421.595 308.644 423.646C308.395 423.867 308.224 424.064 308.11 424.19Z" fill="#F5F1DE"/>
<path d="M308.614 427.762C306.928 427.68 305.675 429.104 305.099 429.752C303.972 431.036 303.564 432.339 303.223 433.381C302.552 435.489 302.268 437.859 303.143 439.969C303.389 440.566 303.745 441.161 304.312 441.491C304.833 441.799 305.471 441.842 306.073 441.812C308.465 441.692 310.741 440.556 312.203 438.731C313.655 436.898 314.277 434.438 313.853 432.074C313.671 431.08 313.439 429.718 312.344 428.911C311.352 428.171 309.675 427.901 309.107 427.81C308.854 427.774 308.732 427.751 308.611 427.745L308.614 427.762Z" fill="#222222"/>
<path d="M291.124 413.914C289.439 413.833 288.186 415.256 287.61 415.904C286.483 417.189 286.075 418.491 285.734 419.533C285.063 421.642 284.779 424.012 285.654 426.121C285.899 426.718 286.256 427.314 286.823 427.643C287.344 427.952 287.982 427.994 288.584 427.964C290.976 427.844 293.251 426.708 294.713 424.883C296.166 423.05 296.787 420.59 296.364 418.226C296.182 417.233 295.949 415.87 294.855 415.063C293.863 414.323 292.186 414.054 291.618 413.962C291.365 413.926 291.242 413.903 291.122 413.897L291.124 413.914Z" fill="#222222"/>
<path d="M201.44 537.022C174.134 518.437 166.268 482.427 183.87 456.59C201.472 430.754 237.877 424.875 265.183 443.459C292.489 462.044 300.355 498.054 282.753 523.891C265.15 549.727 228.745 555.606 201.44 537.022Z" fill="#F2AD48"/>
<path d="M250.203 458.567L243.413 456.048C242.852 455.841 242.236 456.138 242.058 456.702L240.013 462.954C239.697 463.933 238.298 463.905 238.016 462.916L235.959 455.625C235.818 455.13 235.35 454.812 234.849 454.869L227.307 455.628C226.284 455.727 225.745 454.437 226.54 453.784L231.611 449.592C232.071 449.22 232.122 448.538 231.724 448.092L226.891 442.701C226.169 441.891 227.014 440.65 228.033 441.025L234.822 443.545C235.383 443.751 235.999 443.454 236.177 442.89L238.222 436.638C238.538 435.659 239.937 435.687 240.219 436.676L242.276 443.968C242.417 444.462 242.885 444.78 243.386 444.723L250.928 443.964C251.952 443.865 252.49 445.155 251.695 445.808L246.624 450.001C246.164 450.372 246.114 451.054 246.511 451.5L251.344 456.891C252.066 457.702 251.221 458.942 250.203 458.567Z" fill="#4A734E"/>
<path d="M194.658 458.555C191.578 462.682 189.493 465.464 187.962 469.288C186.256 473.508 185.45 476.128 186.091 479.408C186.753 482.817 189.469 485.926 192.904 486.146C194.995 486.277 197.035 485.37 198.908 484.382C201.987 482.761 205.031 480.727 206.767 477.691C208.251 475.096 208.627 472.039 208.984 469.082C209.374 465.727 209.707 462.108 207.96 459.27C205.987 456.068 202.241 455.701 202.009 455.672C201.834 455.65 197.786 455.238 195.237 457.867C194.965 458.15 194.781 458.397 194.658 458.555Z" fill="#F5F1DE"/>
<path d="M199.849 458.325C198.087 458.467 196.802 460.179 196.211 460.959C195.055 462.503 194.651 463.969 194.312 465.143C193.647 467.517 193.39 470.12 194.34 472.284C194.607 472.897 194.989 473.492 195.587 473.771C196.137 474.034 196.804 473.993 197.433 473.878C199.93 473.422 202.288 471.881 203.785 469.706C205.271 467.525 205.879 464.777 205.396 462.277C205.19 461.226 204.924 459.783 203.766 459.059C202.718 458.394 200.96 458.331 200.366 458.31C200.101 458.305 199.972 458.297 199.846 458.308L199.849 458.325Z" fill="#222222"/>
<path d="M215.48 472.731C212.401 476.857 210.315 479.64 208.785 483.463C207.078 487.684 206.273 490.303 206.913 493.583C207.576 496.992 210.291 500.101 213.727 500.322C215.818 500.452 217.857 499.545 219.73 498.558C222.809 496.936 225.853 494.903 227.59 491.866C229.073 489.272 229.45 486.215 229.806 483.257C230.196 479.903 230.53 476.283 228.783 473.445C226.81 470.244 223.064 469.876 222.831 469.847C222.656 469.825 218.609 469.414 216.06 472.043C215.788 472.326 215.604 472.573 215.48 472.731Z" fill="#F5F1DE"/>
<path d="M219.673 471.816C217.768 471.861 216.473 473.566 215.877 474.342C214.712 475.881 214.359 477.381 214.06 478.582C213.476 481.011 213.348 483.703 214.506 486.007C214.831 486.66 215.28 487.301 215.946 487.626C216.558 487.931 217.28 487.927 217.955 487.844C220.639 487.515 223.109 486.051 224.607 483.877C226.093 481.695 226.593 478.874 225.924 476.246C225.639 475.142 225.266 473.627 223.967 472.807C222.79 472.054 220.879 471.887 220.232 471.83C219.945 471.81 219.805 471.794 219.669 471.797L219.673 471.816Z" fill="#222222"/>
<path d="M126.56 413.76C170.015 413.76 205.242 380.438 205.242 339.332C205.242 298.227 170.015 264.904 126.56 264.904C83.1044 264.904 47.877 298.227 47.877 339.332C47.877 380.438 83.1044 413.76 126.56 413.76Z" fill="#E24444"/>
<path d="M145.12 292.408L135.853 294.691C135.108 294.871 134.646 295.666 134.852 296.41L137.265 304.723C137.65 306.031 136.11 307.032 135.057 306.16L127.407 299.746C126.894 299.31 126.149 299.31 125.636 299.746L117.986 306.16C116.933 307.032 115.393 306.031 115.778 304.723L118.191 296.41C118.396 295.666 117.96 294.871 117.19 294.691L107.923 292.408C106.536 292.075 106.536 290.073 107.923 289.74L117.19 287.456C117.934 287.277 118.396 286.482 118.191 285.738L115.778 277.425C115.393 276.117 116.933 275.116 117.986 275.988L125.636 282.402C126.149 282.838 126.894 282.838 127.407 282.402L135.057 275.988C136.11 275.116 137.65 276.117 137.265 277.425L134.852 285.738C134.646 286.482 135.083 287.277 135.853 287.456L145.12 289.74C146.506 290.073 146.506 292.075 145.12 292.408Z" fill="#4A734E"/>
<path d="M100.966 323.582C97.7824 326.148 96.8839 329.663 95.8314 334.101C94.8045 338.412 94.0087 341.85 94.8045 346.365C95.2923 349.033 95.9341 352.651 98.7323 355.576C103.481 360.527 112.954 362.118 118.14 357.628C121.066 355.088 122.684 351.291 123.248 347.468C123.813 343.645 123.402 339.746 122.863 335.897C121.913 329.278 120.476 324.224 116.06 321.812C110.875 318.964 104.38 321.658 103.944 321.864C103.276 322.146 102.172 322.633 100.991 323.582H100.966Z" fill="#F5F1DE"/>
<path d="M108.154 330.353C105.458 331.277 104.149 333.663 103.995 333.971C103.302 335.305 103.199 336.767 103.353 339.667C103.456 341.386 103.636 343.104 103.944 344.823C104.149 346.055 104.431 347.312 105.073 348.415C106.074 350.134 107.923 351.34 109.925 351.494C111.902 351.674 113.955 350.801 115.213 349.262C116.42 347.8 116.882 345.901 117.267 344.054C117.806 341.437 118.217 338.717 117.729 336.1C117.395 334.279 116.754 332.021 114.751 330.815C112.467 329.43 109.412 330.097 108.898 330.2C108.719 330.251 108.488 330.302 108.179 330.405L108.154 330.353Z" fill="#222222"/>
<path d="M152.154 323.582C155.338 326.148 156.236 329.663 157.289 334.101C158.315 338.412 159.111 341.85 158.315 346.365C157.828 349.033 157.186 352.651 154.388 355.576C149.639 360.527 140.166 362.118 134.98 357.628C132.054 355.088 130.436 351.291 129.872 347.468C129.307 343.645 129.718 339.746 130.257 335.897C131.207 329.278 132.644 324.224 137.06 321.812C142.245 318.964 148.74 321.658 149.176 321.864C149.844 322.146 150.948 322.633 152.129 323.582H152.154Z" fill="#F5F1DE"/>
<path d="M144.967 330.353C147.662 331.277 148.972 333.663 149.126 333.971C149.819 335.305 149.921 336.767 149.767 339.667C149.665 341.386 149.485 343.104 149.177 344.823C148.972 346.055 148.689 347.312 148.047 348.415C147.046 350.134 145.198 351.34 143.195 351.494C141.219 351.674 139.165 350.801 137.907 349.262C136.701 347.8 136.239 345.901 135.853 344.054C135.314 341.437 134.904 338.717 135.391 336.1C135.725 334.279 136.367 332.021 138.369 330.815C140.654 329.43 143.709 330.097 144.222 330.2C144.402 330.251 144.633 330.302 144.941 330.405L144.967 330.353Z" fill="#222222"/>
<path d="M45.7975 345.131C44.4883 346.131 25.1835 361.243 29.0085 373.506C29.9327 376.508 32.7308 380.87 36.0938 380.972C39.5594 381.075 42.0495 376.662 44.591 373.122C48.2877 368.016 54.5258 361.551 65.5388 355.881C65.5388 355.829 65.2564 354.957 64.3322 354.726C63.4851 354.495 62.8433 355.008 62.7663 355.06" fill="#963030"/>
<path d="M53.5763 334.383C50.6241 336.384 22.0262 356.088 26.4674 371.174C27.4686 374.534 30.7288 379.82 34.7079 379.999C38.6099 380.179 41.3311 375.381 44.771 371.071C48.9041 365.888 55.784 359.295 67.6698 353.753" fill="#E24444"/>
<path d="M96.9601 392.416C94.7524 400.395 92.5189 408.374 90.3112 416.379C89.7464 416.379 82.7895 416.327 79.2982 421.715C78.7591 422.536 77.0391 425.179 77.6296 428.18C79.0415 435.544 92.4676 437.673 96.9601 438.392C102.017 439.213 105.098 439.7 107.819 437.904C111.593 435.441 112.158 430.387 112.748 424.512C114.032 411.838 114.93 402.242 115.546 395.469" fill="#E24444"/>
<path d="M156.157 392.416C158.365 400.395 160.598 408.374 162.806 416.379C163.371 416.379 170.328 416.327 173.819 421.715C174.358 422.536 176.078 425.179 175.488 428.18C174.076 435.544 160.65 437.673 156.157 438.392C151.1 439.213 148.02 439.7 145.298 437.904C141.525 435.441 140.96 430.387 140.369 424.512C139.086 411.838 138.187 402.242 137.571 395.469" fill="#E24444"/>
<path d="M204.027 358.126C205.422 357.249 226.02 343.952 223.325 331.392C222.677 328.319 220.287 323.721 216.947 323.314C213.505 322.897 210.625 327.065 207.772 330.361C203.627 335.109 196.827 340.982 185.344 345.628C185.339 345.68 185.541 346.574 186.441 346.888C187.263 347.195 187.949 346.742 188.03 346.698" fill="#963030"/>
<path d="M195.304 368.127C198.426 366.402 228.696 349.376 225.644 333.95C224.952 330.512 222.186 324.952 218.24 324.412C214.37 323.879 211.224 328.41 207.407 332.39C202.82 337.176 195.369 343.118 183.029 347.557" fill="#E24444"/>
<path d="M226.238 323.85L244.349 337.98L219.811 369.313L217.746 353.321L201.7 355.182L226.238 323.85Z" fill="#F2AD48"/>
<path d="M265.819 319.191L251.504 337.138L282.681 361.914L280.956 345.882L296.996 343.967L265.819 319.191Z" fill="#F2AD48"/>
<path d="M240.411 268.033C240.667 267.716 241.13 267.662 241.453 267.911L251.387 275.57C251.595 275.73 251.871 275.771 252.115 275.676L263.822 271.158C264.203 271.011 264.631 271.195 264.786 271.573L269.553 283.161C269.653 283.404 269.872 283.577 270.132 283.617L282.533 285.547C282.937 285.609 283.216 285.984 283.161 286.388L281.485 298.8C281.449 299.06 281.553 299.32 281.758 299.485L291.531 307.343C291.849 307.599 291.904 308.063 291.654 308.386L283.984 318.297C283.823 318.505 283.783 318.782 283.878 319.027L288.406 330.708C288.554 331.089 288.369 331.518 287.991 331.673L276.381 336.428C276.138 336.527 275.965 336.747 275.925 337.006L273.994 349.383C273.931 349.786 273.558 350.064 273.153 350.01L260.713 348.333C260.454 348.298 260.195 348.401 260.03 348.605L252.156 358.361C251.9 358.678 251.438 358.732 251.115 358.483L241.18 350.824C240.973 350.664 240.696 350.624 240.452 350.718L228.745 355.236C228.365 355.383 227.936 355.199 227.781 354.822L223.014 343.233C222.915 342.99 222.695 342.817 222.436 342.777L210.035 340.848C209.631 340.785 209.351 340.411 209.406 340.006L211.083 327.594C211.118 327.334 211.014 327.074 210.809 326.909L201.037 319.051C200.718 318.795 200.663 318.331 200.913 318.008L208.583 308.097C208.744 307.889 208.784 307.612 208.689 307.367L204.161 295.686C204.014 295.305 204.198 294.876 204.576 294.721L216.186 289.966C216.429 289.867 216.602 289.647 216.643 289.388L218.573 277.012C218.636 276.609 219.01 276.33 219.414 276.384L231.854 278.061C232.114 278.096 232.373 277.993 232.537 277.789L240.411 268.033Z" fill="#4A734E"/>
<path d="M241.147 275.619C241.403 275.302 241.865 275.247 242.188 275.496L250.328 281.772C250.536 281.932 250.812 281.972 251.056 281.878L260.648 278.176C261.029 278.029 261.457 278.213 261.612 278.591L265.518 288.085C265.617 288.328 265.837 288.501 266.096 288.541L276.257 290.122C276.66 290.185 276.94 290.559 276.885 290.964L275.512 301.132C275.476 301.392 275.58 301.652 275.785 301.817L283.791 308.255C284.11 308.511 284.165 308.975 283.915 309.298L277.631 317.418C277.47 317.626 277.43 317.903 277.525 318.148L281.235 327.718C281.382 328.099 281.198 328.528 280.82 328.683L271.308 332.579C271.065 332.678 270.892 332.897 270.851 333.157L269.27 343.297C269.207 343.7 268.833 343.979 268.429 343.924L258.236 342.55C257.976 342.515 257.717 342.619 257.553 342.822L251.101 350.816C250.845 351.133 250.383 351.187 250.06 350.938L241.92 344.662C241.713 344.502 241.436 344.462 241.192 344.556L231.6 348.258C231.219 348.405 230.791 348.221 230.636 347.844L226.731 338.349C226.631 338.106 226.411 337.933 226.152 337.893L215.992 336.312C215.588 336.25 215.309 335.875 215.363 335.471L216.737 325.302C216.772 325.042 216.668 324.782 216.463 324.617L208.457 318.179C208.138 317.923 208.083 317.459 208.333 317.136L214.617 309.016C214.778 308.808 214.818 308.531 214.723 308.286L211.014 298.716C210.866 298.335 211.05 297.906 211.428 297.752L220.941 293.856C221.184 293.756 221.357 293.537 221.397 293.278L222.979 283.137C223.042 282.734 223.415 282.456 223.82 282.51L234.012 283.884C234.272 283.919 234.531 283.816 234.696 283.612L241.147 275.619Z" fill="#F5F1DE"/>
<path d="M248.169 335.508C261.471 333.942 271.055 322.536 269.575 310.03C268.096 297.525 256.112 288.656 242.81 290.222C229.507 291.787 219.923 303.194 221.403 315.7C222.883 328.205 234.866 337.073 248.169 335.508Z" fill="#E24444"/>
<path d="M249.107 298.117L246.414 299.148C246.192 299.234 246.085 299.49 246.18 299.712L247.206 302.191C247.368 302.578 246.942 302.942 246.598 302.712L244.071 301.006C243.899 300.89 243.676 300.917 243.541 301.068L241.481 303.314C241.201 303.618 240.701 303.363 240.768 302.949L241.188 300.3C241.228 300.062 241.065 299.838 240.829 299.806L237.968 299.428C237.54 299.37 237.468 298.761 237.871 298.605L240.565 297.573C240.786 297.487 240.893 297.231 240.798 297.009L239.772 294.531C239.61 294.143 240.037 293.779 240.38 294.01L242.907 295.716C243.079 295.831 243.303 295.805 243.438 295.654L245.497 293.407C245.778 293.104 246.277 293.359 246.21 293.773L245.791 296.422C245.75 296.66 245.914 296.884 246.15 296.916L249.01 297.294C249.439 297.352 249.511 297.961 249.107 298.117Z" fill="#4A734E"/>
<path d="M236.828 308.885C235.939 309.794 235.79 310.919 235.627 312.328C235.469 313.699 235.344 314.789 235.761 316.162C236.008 316.969 236.338 318.065 237.31 318.869C238.956 320.233 241.941 320.382 243.372 318.796C244.182 317.902 244.54 316.671 244.576 315.467C244.612 314.263 244.341 313.067 244.035 311.903C243.499 309.892 242.866 308.381 241.421 307.796C239.72 307.106 237.815 308.172 237.684 308.252C237.487 308.368 237.167 308.552 236.834 308.895L236.828 308.885Z" fill="#F5F1DE"/>
<path d="M239.35 310.606C238.556 310.989 238.246 311.778 238.209 311.88C238.041 312.32 238.068 312.775 238.222 313.673C238.313 314.208 238.439 314.733 238.592 315.254C238.702 315.634 238.833 316.011 239.069 316.327C239.435 316.829 240.052 317.128 240.664 317.11C241.275 317.093 241.87 316.75 242.2 316.226C242.513 315.731 242.586 315.117 242.635 314.533C242.703 313.696 242.731 312.842 242.486 312.042C242.318 311.489 242.039 310.813 241.378 310.504C240.626 310.156 239.716 310.47 239.567 310.526C239.515 310.543 239.448 310.567 239.356 310.611L239.35 310.606Z" fill="#222222"/>
<path d="M252.425 307.05C253.501 307.727 253.908 308.787 254.396 310.12C254.869 311.416 255.246 312.447 255.161 313.88C255.109 314.722 255.044 315.864 254.286 316.871C253.004 318.581 250.136 319.418 248.373 318.208C247.377 317.527 246.742 316.413 246.426 315.25C246.109 314.087 246.094 312.862 246.12 311.659C246.171 309.578 246.435 307.962 247.704 307.058C249.197 305.991 251.298 306.586 251.444 306.634C251.663 306.7 252.017 306.805 252.421 307.062L252.425 307.05Z" fill="#F5F1DE"/>
<path d="M250.559 309.286C251.317 309.486 251.753 310.187 251.806 310.279C252.046 310.671 252.122 311.12 252.188 312.028C252.228 312.569 252.235 313.108 252.219 313.65C252.209 314.044 252.181 314.44 252.049 314.799C251.848 315.368 251.39 315.792 250.867 315.908C250.343 316.025 249.764 315.82 249.368 315.381C248.994 314.967 248.798 314.385 248.628 313.827C248.387 313.026 248.177 312.2 248.21 311.368C248.231 310.793 248.321 310.073 248.814 309.628C249.376 309.125 250.218 309.234 250.357 309.255C250.405 309.261 250.467 309.27 250.555 309.292L250.559 309.286Z" fill="#222222"/>
<defs>
<filter id="filter0_f_1_1188" x="8.6106" y="392.429" width="236.975" height="133.755" filterUnits="userSpaceOnUse" color-interpolation-filters="sRGB">
<feFlood flood-opacity="0" result="BackgroundImageFix"/>
<feBlend mode="normal" in="SourceGraphic" in2="BackgroundImageFix" result="shape"/>
<feGaussianBlur stdDeviation="10" result="effect1_foregroundBlur_1_1188"/>
</filter>
<filter id="filter1_f_1_1188" x="167.602" y="452.647" width="222.013" height="126.485" filterUnits="userSpaceOnUse" color-interpolation-filters="sRGB">
<feFlood flood-opacity="0" result="BackgroundImageFix"/>
<feBlend mode="normal" in="SourceGraphic" in2="BackgroundImageFix" result="shape"/>
<feGaussianBlur stdDeviation="10" result="effect1_foregroundBlur_1_1188"/>
</filter>
<linearGradient id="paint0_linear_1_1188" x1="205.5" y1="402" x2="205.5" y2="568.001" gradientUnits="userSpaceOnUse">
<stop stop-color="#FADEB6"/>
<stop offset="1" stop-color="#FFDAA4"/>
</linearGradient>
<linearGradient id="paint1_linear_1_1188" x1="76.5454" y1="471.239" x2="75.9628" y2="480.644" gradientUnits="userSpaceOnUse">
<stop stop-color="#E6A344"/>
<stop offset="1" stop-color="#E6A344" stop-opacity="0"/>
</linearGradient>
<linearGradient id="paint2_linear_1_1188" x1="113.458" y1="492.992" x2="113.342" y2="494.94" gradientUnits="userSpaceOnUse">
<stop stop-color="#E6A344"/>
<stop offset="1" stop-color="#E6A344" stop-opacity="0"/>
</linearGradient>
<linearGradient id="paint3_linear_1_1188" x1="100.639" y1="466.581" x2="100.468" y2="469.092" gradientUnits="userSpaceOnUse">
<stop stop-color="#E6A344"/>
<stop offset="1" stop-color="#E6A344" stop-opacity="0"/>
</linearGradient>
<linearGradient id="paint4_linear_1_1188" x1="106.908" y1="465.827" x2="106.813" y2="467.189" gradientUnits="userSpaceOnUse">
<stop stop-color="#E6A344"/>
<stop offset="1" stop-color="#E6A344" stop-opacity="0"/>
</linearGradient>
<linearGradient id="paint5_linear_1_1188" x1="135.392" y1="468.243" x2="135.221" y2="470.754" gradientUnits="userSpaceOnUse">
<stop stop-color="#E6A344"/>
<stop offset="1" stop-color="#E6A344" stop-opacity="0"/>
</linearGradient>
<linearGradient id="paint6_linear_1_1188" x1="138.46" y1="467.333" x2="138.365" y2="468.694" gradientUnits="userSpaceOnUse">
<stop stop-color="#E6A344"/>
<stop offset="1" stop-color="#E6A344" stop-opacity="0"/>
</linearGradient>
<linearGradient id="paint7_linear_1_1188" x1="37.328" y1="451.311" x2="37.187" y2="453.575" gradientUnits="userSpaceOnUse">
<stop stop-color="#E6A344"/>
<stop offset="1" stop-color="#E6A344" stop-opacity="0"/>
</linearGradient>
<linearGradient id="paint8_linear_1_1188" x1="35.481" y1="454.81" x2="35.2961" y2="457.692" gradientUnits="userSpaceOnUse">
<stop stop-color="#E6A344"/>
<stop offset="1" stop-color="#E6A344" stop-opacity="0"/>
</linearGradient>
<linearGradient id="paint9_linear_1_1188" x1="87.3057" y1="426.194" x2="87.1106" y2="429.145" gradientUnits="userSpaceOnUse">
<stop stop-color="#E6A344"/>
<stop offset="1" stop-color="#E6A344" stop-opacity="0"/>
</linearGradient>
<linearGradient id="paint10_linear_1_1188" x1="146.742" y1="429.036" x2="146.547" y2="431.987" gradientUnits="userSpaceOnUse">
<stop stop-color="#E6A344"/>
<stop offset="1" stop-color="#E6A344" stop-opacity="0"/>
</linearGradient>
<linearGradient id="paint11_linear_1_1188" x1="192.407" y1="468.045" x2="192.372" y2="465.765" gradientUnits="userSpaceOnUse">
<stop stop-color="#E6A344"/>
<stop offset="1" stop-color="#E6A344" stop-opacity="0"/>
</linearGradient>
<linearGradient id="paint12_linear_1_1188" x1="190.671" y1="464.459" x2="190.62" y2="461.557" gradientUnits="userSpaceOnUse">
<stop stop-color="#E6A344"/>
<stop offset="1" stop-color="#E6A344" stop-opacity="0"/>
</linearGradient>
</defs>
</svg>
