<svg width="118" height="38" viewBox="0 0 118 38" fill="none" xmlns="http://www.w3.org/2000/svg">
<path d="M34.3183 24.1499C34.3704 24.5562 34.3079 24.8271 34.11 24.9313C33.9225 25.0459 33.6307 25.1188 33.2453 25.1813C31.4845 25.3689 29.703 25.5252 27.8798 25.6502C26.0565 25.7752 24.2229 25.8898 22.3892 25.994V30.974H35.7978C36.1833 30.974 36.4541 31.0469 36.6208 31.1824C36.7875 31.3178 36.8709 31.5887 36.8709 32.0054V36.8187C36.8709 37.2251 36.7875 37.5064 36.6208 37.6418C36.4541 37.7772 36.1833 37.8502 35.7978 37.8502H1.0731C0.687617 37.8502 0.416738 37.7772 0.250043 37.6418C0.0833475 37.5064 0 37.2251 0 36.8187V32.0054C0 31.5887 0.0833475 31.3178 0.250043 31.1824C0.416738 31.0469 0.687617 30.974 1.0731 30.974H14.4816V26.244C13.6898 26.2753 12.9085 26.2857 12.1583 26.2857H9.96003C7.32417 26.2857 5.43843 25.5773 4.30282 24.1708C3.16721 22.7539 2.59419 20.5035 2.59419 17.3988V1.03142C2.59419 0.625106 2.67754 0.343808 2.84423 0.208369C3.01093 0.072929 3.28181 0 3.66729 0H32.7556C33.1411 0 33.4119 0.072929 33.5786 0.208369C33.7453 0.343808 33.8287 0.625106 33.8287 1.03142V5.84474C33.8287 6.26148 33.7453 6.53236 33.5786 6.6678C33.4119 6.80324 33.1411 6.87616 32.7556 6.87616H10.4914V9.835H32.7868C33.1723 9.835 33.4432 9.90793 33.6099 10.0434C33.7766 10.1788 33.8599 10.4601 33.8599 10.8664V15.2734C33.8599 15.6797 33.7766 15.961 33.6099 16.0965C33.4432 16.2319 33.1723 16.3048 32.7868 16.3048H10.4914V17.0446C10.4914 18.0343 10.6997 18.7636 11.1061 19.222C11.5228 19.6908 12.2729 19.9096 13.3669 19.8784C16.357 19.8263 19.5346 19.7117 22.9102 19.545C26.2857 19.3783 29.5884 19.1178 32.8285 18.7636C33.214 18.7115 33.4745 18.7636 33.6099 18.9303C33.7453 19.097 33.8391 19.3783 33.9016 19.795L34.3183 24.1603V24.1499Z" fill="#E24444"/>
<path d="M61.8535 30.974C61.8535 32.6826 61.4889 33.9224 60.7596 34.683C60.0303 35.4435 58.9259 35.8186 57.4674 35.8186H44.1943C42.7253 35.8186 41.6313 35.4331 40.902 34.683C40.1728 33.9224 39.8081 32.693 39.8081 30.974V1.02101C39.8081 0.614688 39.8915 0.343808 40.0477 0.208369C40.2144 0.072929 40.4853 0 40.8604 0H60.8013C61.1763 0 61.4576 0.072929 61.6139 0.208369C61.7806 0.343808 61.8535 0.614688 61.8535 1.02101V30.974ZM53.2166 29.4321C53.6751 29.4321 53.9876 29.3487 54.1543 29.1716C54.321 28.9945 54.3939 28.6507 54.3939 28.1298V6.18855H47.226V28.1298C47.226 28.6507 47.3094 28.9945 47.4657 29.1716C47.6324 29.3487 47.9449 29.4321 48.4033 29.4321H53.2062H53.2166ZM78.5751 19.5762C78.5751 19.9826 78.4918 20.2534 78.3355 20.3889C78.1688 20.5243 77.8979 20.5972 77.5229 20.5972H73.7826V36.8396C73.7826 37.2459 73.6993 37.5168 73.543 37.6522C73.3763 37.7877 73.1054 37.8606 72.7304 37.8606H67.0315C66.646 37.8606 66.3751 37.7981 66.2189 37.6522C66.0522 37.5168 65.9792 37.2459 65.9792 36.8396V1.02101C65.9792 0.614688 66.0626 0.343808 66.2189 0.208369C66.3856 0.072929 66.6564 0 67.0315 0H72.7304C73.1054 0 73.3867 0.072929 73.543 0.208369C73.7097 0.343808 73.7826 0.614688 73.7826 1.02101V13.8461H77.5229C77.8979 13.8461 78.1792 13.919 78.3355 14.0545C78.5022 14.1899 78.5751 14.4608 78.5751 14.8671V19.5867V19.5762Z" fill="#E24444"/>
<path d="M114.541 24.1499C114.593 24.5562 114.53 24.8271 114.332 24.9313C114.145 25.0459 113.853 25.1188 113.467 25.1813C111.707 25.3689 109.925 25.5252 108.102 25.6502C106.279 25.7752 104.445 25.8898 102.611 25.994V30.974H116.02C116.405 30.974 116.676 31.0469 116.843 31.1824C117.01 31.3178 117.093 31.5887 117.093 32.0054V36.8187C117.093 37.2251 117.01 37.5064 116.843 37.6418C116.676 37.7772 116.405 37.8502 116.02 37.8502H81.2953C80.9098 37.8502 80.6389 37.7772 80.4722 37.6418C80.3055 37.5064 80.2222 37.2251 80.2222 36.8187V32.0054C80.2222 31.5887 80.3055 31.3178 80.4722 31.1824C80.6389 31.0469 80.9098 30.974 81.2953 30.974H94.7038V26.244C93.912 26.2753 93.1306 26.2857 92.3805 26.2857H90.1822C87.5463 26.2857 85.6606 25.5773 84.525 24.1708C83.3894 22.7539 82.8164 20.5035 82.8164 17.3988V1.03142C82.8164 0.625106 82.8997 0.343808 83.0664 0.208369C83.2331 0.072929 83.504 0 83.8895 0H112.978C113.363 0 113.634 0.072929 113.801 0.208369C113.968 0.343808 114.051 0.625106 114.051 1.03142V5.84474C114.051 6.26148 113.968 6.53236 113.801 6.6678C113.634 6.80324 113.363 6.87616 112.978 6.87616H90.724V9.835H113.019C113.405 9.835 113.676 9.90793 113.842 10.0434C114.009 10.1788 114.093 10.4601 114.093 10.8664V15.2734C114.093 15.6797 114.009 15.961 113.842 16.0965C113.676 16.2319 113.405 16.3048 113.019 16.3048H90.724V17.0446C90.724 18.0343 90.9323 18.7636 91.3386 19.222C91.7554 19.6908 92.5055 19.9096 93.5994 19.8784C96.5895 19.8263 99.7672 19.7117 103.143 19.545C106.518 19.3783 109.821 19.1178 113.061 18.7636C113.447 18.7115 113.707 18.7636 113.842 18.9303C113.978 19.097 114.072 19.3783 114.134 19.795L114.551 24.1603L114.541 24.1499Z" fill="#E24444"/>
</svg>
